<?xml version="1.0" encoding="UTF-8" standalone="no"?>
<!-- Created with Inkscape (http://www.inkscape.org/) -->

<svg
   xmlns:dc="http://purl.org/dc/elements/1.1/"
   xmlns:cc="http://creativecommons.org/ns#"
   xmlns:rdf="http://www.w3.org/1999/02/22-rdf-syntax-ns#"
   xmlns:svg="http://www.w3.org/2000/svg"
   xmlns="http://www.w3.org/2000/svg"
   xmlns:sodipodi="http://sodipodi.sourceforge.net/DTD/sodipodi-0.dtd"
   xmlns:inkscape="http://www.inkscape.org/namespaces/inkscape"
   sodipodi:docname="logo_type_simplified.inkscape.svg"
   inkscape:version="0.92.4 5da689c313, 2019-01-14"
   id="svg935"
   version="1.1"
   viewBox="0 0 20.201401 9.2519321"
   height="9.2519321mm"
   width="20.201401mm">
  <defs
     id="defs929">
    <inkscape:path-effect
       effect="simplify"
       id="path-effect5319"
       is_visible="true"
       steps="1"
       threshold="0.002"
       smooth_angles="0"
       helper_size="5"
       simplify_individual_paths="false"
       simplify_just_coalesce="false" />
    <inkscape:path-effect
       effect="interpolate"
       id="path-effect1614"
       is_visible="true"
       trajectory="M 0,0 V 0"
       equidistant_spacing="true"
       steps="5" />
  </defs>
  <sodipodi:namedview
     id="base"
     pagecolor="#ffffff"
     bordercolor="#666666"
     borderopacity="1.0"
     inkscape:pageopacity="0.0"
     inkscape:pageshadow="2"
     inkscape:zoom="11.313709"
     inkscape:cx="21.851205"
     inkscape:cy="14.192582"
     inkscape:document-units="mm"
     inkscape:current-layer="layer1"
     showgrid="false"
     fit-margin-top="1"
     fit-margin-left="1"
     fit-margin-right="1"
     fit-margin-bottom="1"
     inkscape:window-width="1600"
     inkscape:window-height="900"
     inkscape:window-x="0"
     inkscape:window-y="0"
     inkscape:window-maximized="0"
     inkscape:snap-object-midpoints="true"
     inkscape:snap-smooth-nodes="true"
     inkscape:object-paths="true" />
  <metadata
     id="metadata932">
    <rdf:RDF>
      <cc:Work
         rdf:about="">
        <dc:format>image/svg+xml</dc:format>
        <dc:type
           rdf:resource="http://purl.org/dc/dcmitype/StillImage" />
        <dc:title></dc:title>
      </cc:Work>
    </rdf:RDF>
  </metadata>
  <g
     inkscape:label="Ebene 1"
     inkscape:groupmode="layer"
     id="layer1"
     transform="translate(-51.449031,-117.45828)">
    <g
       id="g914"
       transform="matrix(0.96565032,0,0,0.96565032,-18.871877,107.41017)">
      <path
         style="color:#000000;font-style:normal;font-variant:normal;font-weight:normal;font-stretch:normal;font-size:medium;line-height:normal;font-family:sans-serif;font-variant-ligatures:normal;font-variant-position:normal;font-variant-caps:normal;font-variant-numeric:normal;font-variant-alternates:normal;font-feature-settings:normal;text-indent:0;text-align:start;text-decoration:none;text-decoration-line:none;text-decoration-style:solid;text-decoration-color:#000000;letter-spacing:normal;word-spacing:normal;text-transform:none;writing-mode:lr-tb;direction:ltr;text-orientation:mixed;dominant-baseline:auto;baseline-shift:baseline;text-anchor:start;white-space:normal;shape-padding:0;clip-rule:nonzero;display:inline;overflow:visible;visibility:visible;opacity:1;isolation:auto;mix-blend-mode:normal;color-interpolation:sRGB;color-interpolation-filters:linearRGB;solid-color:#000000;solid-opacity:1;vector-effect:none;fill:#000000;fill-opacity:1;fill-rule:nonzero;stroke:none;stroke-width:0.75;stroke-linecap:square;stroke-linejoin:bevel;stroke-miterlimit:15.60000038;stroke-dasharray:none;stroke-dashoffset:0;stroke-opacity:1;paint-order:markers stroke fill;color-rendering:auto;image-rendering:auto;shape-rendering:auto;text-rendering:auto;enable-background:accumulate"
         d="m 77.183594,15.923828 -1.208985,0.699219 -0.835937,-0.482422 1.023437,-0.591797 -0.5625,-0.541016 -1.398437,0.806641 v 0.650391 l 1.585937,0.914062 h 0.375 l 1.583985,-0.914062 0.1875,-0.326172 z"
         id="path5726" />
      <path
         style="color:#000000;font-style:normal;font-variant:normal;font-weight:normal;font-stretch:normal;font-size:medium;line-height:normal;font-family:sans-serif;font-variant-ligatures:normal;font-variant-position:normal;font-variant-caps:normal;font-variant-numeric:normal;font-variant-alternates:normal;font-feature-settings:normal;text-indent:0;text-align:start;text-decoration:none;text-decoration-line:none;text-decoration-style:solid;text-decoration-color:#000000;letter-spacing:normal;word-spacing:normal;text-transform:none;writing-mode:lr-tb;direction:ltr;text-orientation:mixed;dominant-baseline:auto;baseline-shift:baseline;text-anchor:start;white-space:normal;shape-padding:0;clip-rule:nonzero;display:inline;overflow:visible;visibility:visible;opacity:1;isolation:auto;mix-blend-mode:normal;color-interpolation:sRGB;color-interpolation-filters:linearRGB;solid-color:#000000;solid-opacity:1;vector-effect:none;fill:#000000;fill-opacity:1;fill-rule:nonzero;stroke:none;stroke-width:0.75;stroke-linecap:square;stroke-linejoin:bevel;stroke-miterlimit:15.60000038;stroke-dasharray:none;stroke-dashoffset:0;stroke-opacity:1;paint-order:markers stroke fill;color-rendering:auto;image-rendering:auto;shape-rendering:auto;text-rendering:auto;enable-background:accumulate"
         d="m 77.933594,16.138672 v -1.830078 l -0.1875,-0.324219 -1.583985,-0.916016 -0.5625,0.326172 v 1.613281 l 0.5625,0.541016 0.1875,-0.324219 v -1.18164 l 0.833985,0.482422 v 1.398437 z"
         id="path900" />
    </g>
    <g
       aria-label="leshy"
       style="font-style:normal;font-variant:normal;font-weight:normal;font-stretch:normal;font-size:8.76896286px;line-height:5.48060226px;font-family:Literata;-inkscape-font-specification:Literata;text-align:start;letter-spacing:-0.60505843px;word-spacing:0px;text-anchor:start;fill:#000000;fill-opacity:1;stroke:none;stroke-width:0.21922407"
       id="text906">
      <path
         sodipodi:nodetypes="cccccccccccc"
         inkscape:connector-curvature="0"
         d="M57.724759 124.20195L58.522735 124.06165L58.522735 123.7372L58.22459 123.60566L58.22459 118.74766L57.935214 118.45828L57.119701 118.59859L57.119701 118.92304L57.435383 119.0458L57.435383 123.91258L57.724759 124.20195L57.724759 124.20195"
         style="font-style:normal;font-variant:normal;font-weight:normal;font-stretch:normal;font-family:grenze;-inkscape-font-specification:grenze;text-align:start;text-anchor:start;stroke-width:0.21922407"
         id="path1526" />
      <path
         style="font-style:normal;font-variant:normal;font-weight:normal;font-stretch:normal;font-family:grenze;-inkscape-font-specification:grenze;text-align:start;text-anchor:start;stroke-width:0.21922407"
         d="m 60.013443,124.20195 1.332882,-0.30691 v -0.35953 l -1.131196,0.0438 -0.499831,-0.26307 -0.222787,-0.42503 -0.0929,-0.70617 0.01754,-0.35951 0.07234,-0.74646 0.190725,-0.41104 0.333221,-0.0614 0.28321,0.0721 0.187025,0.20853 0.134823,0.78044 0.850592,0.34196 -0.09564,-0.98952 -0.274852,-0.5867 -0.435982,-0.28088 -0.579026,-0.0721 -0.674114,0.34637 -0.64123,0.55683 -0.210455,1.35919 0.126328,0.83429 0.33185,0.57861 0.466674,0.33692 0.530796,0.1092 v 5e-5"
         id="path5722" />
      <path
         style="font-style:normal;font-variant:normal;font-weight:normal;font-stretch:normal;font-family:grenze;-inkscape-font-specification:grenze;text-align:start;text-anchor:start;stroke-width:0.21922407"
         d="m 60.618495,121.6677 -1.201344,0.15783 -0.01754,0.35951 2.069476,-0.17538 z"
         id="path1528" />
      <path
         id="path1530"
         style="font-style:normal;font-variant:normal;font-weight:normal;font-stretch:normal;font-family:grenze;-inkscape-font-specification:grenze;text-align:start;text-anchor:start;stroke-width:0.21922407"
         d="m 63.100107,124.20195 0.54258,-0.35295 0.457082,-0.57656 0.06138,-0.44721 -0.136878,-0.3709 -0.333357,-0.31418 -0.792495,-0.4812 -0.427487,-0.27622 -0.203878,-0.35514 0.05371,-0.28609 0.139207,-0.0822 0.938279,0.1403 0.06138,0.46476 h 0.491062 l 0.02631,-1.06981 -1.455648,-0.0702 -0.472428,0.27294 -0.465851,0.48996 -0.04384,0.42968 0.209359,0.53381 0.72892,0.50093 0.657672,0.3968 0.184148,0.38364 -0.271838,0.53491 -0.885665,-0.18415 -0.184148,-0.66644 -0.438448,0.009 -0.01754,1.26273 1.578413,0.11399 -10e-7,-1.9e-4"
         inkscape:connector-curvature="0"
         sodipodi:nodetypes="cccccccccccccccccccccccccccccc" />
      <path
         id="path1532"
         style="font-style:normal;font-variant:normal;font-weight:normal;font-stretch:normal;font-family:grenze;-inkscape-font-specification:grenze;text-align:start;text-anchor:start;stroke-width:0.21922407"
         d="m 64.643435,124.20195 0.806745,-0.1403 v -0.32445 l -0.298145,-0.13154 v -2.49915 l 0.833052,-0.33322 0.303625,0.0965 0.144002,0.24389 0.06097,0.48392 v 2.31501 l 0.298145,0.28937 0.806745,-0.1403 v -0.32445 l -0.306914,-0.13154 v -2.00809 l -0.08509,-0.71111 -0.247039,-0.45297 -0.396658,-0.23923 -0.533948,-0.0699 -0.876896,0.61383 -0.04385,-0.009 0.04385,-1.98178 -0.306914,-0.28938 -0.797975,0.14031 v 0.32445 l 0.306913,0.12276 v 4.86678 l 0.289376,0.28937 v 2.3e-4"
         inkscape:connector-curvature="0"
         sodipodi:nodetypes="ccccccccccccccccccccccccccccc" />
      <path
         id="path1534"
         style="font-style:normal;font-variant:normal;font-weight:normal;font-stretch:normal;font-family:grenze;-inkscape-font-specification:grenze;text-align:start;text-anchor:start;stroke-width:0.21922407"
         d="M68.694688 125.71021L69.571584 125.60499L69.571584 125.28053L69.229594 125.12269L69.483894 124.12303L70.650166 120.44007L70.395867 120.13315L69.387436 120.19455L69.387436 120.61546L69.913574 120.67686L69.176981 123.3777L69.089291 123.3777L68.887605 122.43942L68.379005 120.39625L68.028247 120.13318L67.282885 120.23841L67.282885 120.59794L67.624874 120.69444L68.554384 124.07926L68.685919 124.14936L68.913912 124.11426L68.501771 125.35946L68.694688 125.71021L68.694688 125.71021"
         inkscape:connector-curvature="0"
         sodipodi:nodetypes="cccccccccccccccccccccccc" />
    </g>
    <path
       sodipodi:type="star"
       style="opacity:1;fill:#000001;fill-opacity:1;stroke:none;stroke-width:0.75;stroke-linecap:round;stroke-linejoin:bevel;stroke-miterlimit:15.60000038;stroke-dasharray:none;stroke-dashoffset:0;stroke-opacity:1;paint-order:markers stroke fill"
       id="path834"
       sodipodi:sides="6"
       sodipodi:cx="52.961952"
       sodipodi:cy="121.22775"
       sodipodi:r1="0.51292026"
       sodipodi:r2="0.44420198"
       sodipodi:arg1="0.52359878"
       sodipodi:arg2="1.0471976"
       inkscape:flatsided="true"
       inkscape:rounded="0"
       inkscape:randomized="0"
       d="m 53.406154,121.48421 -0.444202,0.25646 -0.444202,-0.25646 0,-0.51292 0.444202,-0.25646 0.444202,0.25646 z" />
  </g>
</svg>
