%FSLAX46Y46*%
%MOMM*%
%ADD16C,0.200000*%
%ADD15C,0.600000*%
%AMPS13*
4,1,10,
0.000000,0.606235,
0.525000,0.303117,
0.525000,-0.303117,
0.270000,-0.450252,
0.270000,-1.884155,
0.000000,-1.733765,
-0.270000,-1.884155,
-0.270000,-0.450252,
-0.525000,-0.303117,
-0.525000,0.303117,
0.000000,0.606235,
0
*
%
%ADD13PS13*%
%AMPS10*
4,1,10,
0.000000,0.606235,
0.525000,0.303117,
0.525000,-0.303117,
0.270000,-0.450252,
0.270000,-1.884155,
0.000000,-1.733765,
-0.270000,-1.884155,
-0.270000,-0.450252,
-0.525000,-0.303117,
-0.525000,0.303117,
0.000000,0.606235,
0
*
%
%ADD10PS10*%
%AMPS14*
4,1,6,
0.000000,0.606235,
0.525000,0.303117,
0.525000,-0.303117,
0.000000,-0.606235,
-0.525000,-0.303117,
-0.525000,0.303117,
0.000000,0.606235,
0
*
%
%ADD14PS14*%
%AMPS31*
4,1,5,
0.750000,0.000000,
0.300000,0.450000,
-0.300000,0.450000,
-0.300000,-0.450000,
0.300000,-0.450000,
0.750000,0.000000,
0
*
%
%ADD31PS31*%
%AMPS29*
4,1,5,
0.000000,0.750000,
-0.450000,0.300000,
-0.450000,-0.300000,
0.450000,-0.300000,
0.450000,0.300000,
0.000000,0.750000,
0
*
%
%ADD29PS29*%
%AMPS18*
21,1,2.150000,3.250000,0.000000,0.000000,180.000000*
%
%ADD18PS18*%
%AMPS22*
21,1,0.800000,0.800000,0.000000,0.000000,180.000000*
%
%ADD22PS22*%
%AMPS19*
21,1,2.150000,0.950000,0.000000,0.000000,180.000000*
%
%ADD19PS19*%
%AMPS38*
21,1,0.400000,1.350000,0.000000,0.000000,90.000000*
%
%ADD38PS38*%
%AMPS37*
21,1,0.400000,1.350000,0.000000,0.000000,270.000000*
%
%ADD37PS37*%
%AMPS33*
21,1,1.250000,1.000000,0.000000,0.000000,0.000000*
%
%ADD33PS33*%
%AMPS36*
21,1,1.250000,1.000000,0.000000,0.000000,180.000000*
%
%ADD36PS36*%
%AMPS23*
21,1,0.800000,0.750000,0.000000,0.000000,0.000000*
%
%ADD23PS23*%
%AMPS20*
21,1,0.800000,0.750000,0.000000,0.000000,180.000000*
%
%ADD20PS20*%
%AMPS26*
21,1,0.700000,1.000000,0.000000,0.000000,180.000000*
%
%ADD26PS26*%
%AMPS21*
21,1,0.700000,1.300000,0.000000,0.000000,0.000000*
%
%ADD21PS21*%
%AMPS17*
21,1,0.500000,0.900000,0.000000,0.000000,0.000000*
%
%ADD17PS17*%
%AMPS24*
21,1,0.500000,0.900000,0.000000,0.000000,180.000000*
%
%ADD24PS24*%
%AMPS40*
1,1,0.700000,0.000000,0.000000*
%
%ADD40PS40*%
%AMPS42*
1,1,0.600000,0.000000,0.000000*
%
%ADD42PS42*%
%AMPS28*
4,1,5,
0.300000,0.000000,
0.750000,0.450000,
-0.300000,0.450000,
-0.300000,-0.450000,
0.750000,-0.450000,
0.300000,0.000000,
0
*
%
%ADD28PS28*%
%AMPS35*
4,1,5,
-0.300000,0.000000,
-0.750000,-0.450000,
0.300000,-0.450000,
0.300000,0.450000,
-0.750000,0.450000,
-0.300000,0.000000,
0
*
%
%ADD35PS35*%
%AMPS11*
4,1,12,
-0.350000,1.170000,
0.350000,1.170000,
0.350000,0.721543,
0.800000,0.461893,
0.800000,-0.461893,
0.350000,-0.721543,
0.350000,-1.170000,
-0.350000,-1.170000,
-0.350000,-0.721543,
-0.800000,-0.461893,
-0.800000,0.461893,
-0.350000,0.721543,
-0.350000,1.170000,
0
*
%
%ADD11PS11*%
%AMPS41*
1,1,0.600000,0.000000,0.000000*
%
%ADD41PS41*%
%AMPS32*
4,1,5,
-0.300000,0.000000,
-0.750000,-0.450000,
0.300000,-0.450000,
0.300000,0.450000,
-0.750000,0.450000,
-0.300000,0.000000,
0
*
%
%ADD32PS32*%
%AMPS30*
4,1,5,
0.000000,-0.300000,
0.450000,-0.750000,
0.450000,0.300000,
-0.450000,0.300000,
-0.450000,-0.750000,
0.000000,-0.300000,
0
*
%
%ADD30PS30*%
%AMPS43*
1,1,0.600000,0.000000,0.000000*
%
%ADD43PS43*%
%AMPS12*
4,1,6,
0.000000,0.606235,
0.525000,0.303117,
0.525000,-0.303117,
0.000000,-0.606235,
-0.525000,-0.303117,
-0.525000,0.303117,
0.000000,0.606235,
0
*
%
%ADD12PS12*%
%AMPS34*
4,1,5,
0.750000,0.000000,
0.300000,0.450000,
-0.300000,0.450000,
-0.300000,-0.450000,
0.300000,-0.450000,
0.750000,0.000000,
0
*
%
%ADD34PS34*%
%AMPS27*
4,1,5,
-0.750000,0.000000,
-0.300000,-0.450000,
0.300000,-0.450000,
0.300000,0.450000,
-0.300000,0.450000,
-0.750000,0.000000,
0
*
%
%ADD27PS27*%
%AMPS25*
4,1,6,
0.000000,0.981524,
0.850000,0.490762,
0.850000,-0.490762,
0.000000,-0.981524,
-0.850000,-0.490762,
-0.850000,0.490762,
0.000000,0.981524,
0
*
%
%ADD25PS25*%
%AMPS39*
4,1,6,
0.000000,-0.981524,
-0.850000,-0.490762,
-0.850000,0.490762,
0.000000,0.981524,
0.850000,0.490762,
0.850000,-0.490762,
0.000000,-0.981524,
0
*
%
%ADD39PS39*%
G01*
%LPD*%
G36*
X16550000Y19100000D02*
X16550000Y19590000D01*
X-16550000Y19590000D01*
X-16550000Y19100000D01*
X-17150000Y19100000D01*
X-17150000Y18340000D01*
X-17132138Y18340000D01*
X-17295752Y17945000D01*
X-18190799Y17945000D01*
X-18190799Y14800708D01*
X-21999999Y12601401D01*
X-24489999Y14039045D01*
X-24590000Y13981310D01*
X-24590000Y-1400000D01*
X-19307837Y-1400000D01*
X-19284816Y-1396584D01*
X-19250000Y-1394874D01*
X-19215184Y-1396584D01*
X-19192163Y-1400000D01*
X-18557837Y-1400000D01*
X-18534816Y-1396584D01*
X-18500000Y-1394874D01*
X-18465184Y-1396584D01*
X-18442163Y-1400000D01*
X-17761654Y-1400000D01*
X-17760146Y-1394373D01*
X-17715194Y-1396583D01*
X-17692163Y-1400000D01*
X-17057837Y-1400000D01*
X-17034816Y-1396584D01*
X-17000000Y-1394874D01*
X-16965184Y-1396584D01*
X-16942163Y-1400000D01*
X-16307837Y-1400000D01*
X-16284816Y-1396584D01*
X-16250000Y-1394874D01*
X-16215184Y-1396584D01*
X-16192163Y-1400000D01*
X-15557837Y-1400000D01*
X-15534816Y-1396584D01*
X-15500000Y-1394874D01*
X-15465184Y-1396584D01*
X-15442163Y-1400000D01*
X-14807837Y-1400000D01*
X-14784816Y-1396584D01*
X-14750000Y-1394874D01*
X-14715184Y-1396584D01*
X-14692163Y-1400000D01*
X-14057837Y-1400000D01*
X-14034816Y-1396584D01*
X-14000000Y-1394874D01*
X-13965184Y-1396584D01*
X-13942163Y-1400000D01*
X-13307837Y-1400000D01*
X-13284816Y-1396584D01*
X-13250000Y-1394874D01*
X-13215184Y-1396584D01*
X-13192163Y-1400000D01*
X-12557837Y-1400000D01*
X-12534816Y-1396584D01*
X-12500000Y-1394874D01*
X-12465184Y-1396584D01*
X-12442163Y-1400000D01*
X-11807837Y-1400000D01*
X-11784816Y-1396584D01*
X-11750000Y-1394874D01*
X-11715184Y-1396584D01*
X-11692163Y-1400000D01*
X-11057837Y-1400000D01*
X-11034816Y-1396584D01*
X-11000000Y-1394874D01*
X-10965184Y-1396584D01*
X-10942163Y-1400000D01*
X-10307837Y-1400000D01*
X-10284816Y-1396584D01*
X-10249999Y-1394874D01*
X-10178782Y-1398371D01*
X-10178346Y-1400000D01*
X-9557837Y-1400000D01*
X-9534816Y-1396584D01*
X-9500000Y-1394874D01*
X-9465184Y-1396584D01*
X-9442163Y-1400000D01*
X-8807837Y-1400000D01*
X-8784816Y-1396584D01*
X-8750000Y-1394874D01*
X-8715184Y-1396584D01*
X-8692163Y-1400000D01*
X-8057837Y-1400000D01*
X-8034816Y-1396584D01*
X-8000000Y-1394874D01*
X-7965184Y-1396584D01*
X-7942163Y-1400000D01*
X-7307837Y-1400000D01*
X-7284816Y-1396584D01*
X-7250000Y-1394874D01*
X-7215184Y-1396584D01*
X-7192163Y-1400000D01*
X-6557837Y-1400000D01*
X-6534816Y-1396584D01*
X-6500000Y-1394874D01*
X-6465184Y-1396584D01*
X-6442163Y-1400000D01*
X-5807837Y-1400000D01*
X-5784816Y-1396584D01*
X-5750000Y-1394874D01*
X-5715184Y-1396584D01*
X-5692163Y-1400000D01*
X5692163Y-1400000D01*
X5715184Y-1396584D01*
X5750000Y-1394874D01*
X5784816Y-1396584D01*
X5807837Y-1400000D01*
X6442163Y-1400000D01*
X6465184Y-1396584D01*
X6500000Y-1394874D01*
X6534816Y-1396584D01*
X6557837Y-1400000D01*
X7192163Y-1400000D01*
X7215184Y-1396584D01*
X7250000Y-1394874D01*
X7284816Y-1396584D01*
X7307837Y-1400000D01*
X7942163Y-1400000D01*
X7965184Y-1396584D01*
X8000000Y-1394874D01*
X8034816Y-1396584D01*
X8057837Y-1400000D01*
X8692163Y-1400000D01*
X8715184Y-1396584D01*
X8750000Y-1394874D01*
X8784816Y-1396584D01*
X8807837Y-1400000D01*
X9442163Y-1400000D01*
X9465184Y-1396584D01*
X9500000Y-1394874D01*
X9534816Y-1396584D01*
X9557837Y-1400000D01*
X10178346Y-1400000D01*
X10178782Y-1398371D01*
X10249999Y-1394874D01*
X10284816Y-1396584D01*
X10307837Y-1400000D01*
X10942163Y-1400000D01*
X10965184Y-1396584D01*
X11000000Y-1394874D01*
X11034816Y-1396584D01*
X11057837Y-1400000D01*
X11692163Y-1400000D01*
X11715184Y-1396584D01*
X11750000Y-1394874D01*
X11784816Y-1396584D01*
X11807837Y-1400000D01*
X12442163Y-1400000D01*
X12465184Y-1396584D01*
X12500000Y-1394874D01*
X12534816Y-1396584D01*
X12557837Y-1400000D01*
X13192163Y-1400000D01*
X13215184Y-1396584D01*
X13250000Y-1394874D01*
X13284816Y-1396584D01*
X13307837Y-1400000D01*
X13942163Y-1400000D01*
X13965184Y-1396584D01*
X14000000Y-1394874D01*
X14034816Y-1396584D01*
X14057837Y-1400000D01*
X14692163Y-1400000D01*
X14715184Y-1396584D01*
X14750000Y-1394874D01*
X14784816Y-1396584D01*
X14807837Y-1400000D01*
X15442163Y-1400000D01*
X15465184Y-1396584D01*
X15500000Y-1394874D01*
X15534816Y-1396584D01*
X15557837Y-1400000D01*
X16192163Y-1400000D01*
X16215184Y-1396584D01*
X16250000Y-1394874D01*
X16284816Y-1396584D01*
X16307837Y-1400000D01*
X16942163Y-1400000D01*
X16965184Y-1396584D01*
X17000000Y-1394874D01*
X17034816Y-1396584D01*
X17057837Y-1400000D01*
X17692163Y-1400000D01*
X17715194Y-1396583D01*
X17760146Y-1394373D01*
X17761654Y-1400000D01*
X18442163Y-1400000D01*
X18465184Y-1396584D01*
X18500000Y-1394874D01*
X18534816Y-1396584D01*
X18557837Y-1400000D01*
X19192163Y-1400000D01*
X19215184Y-1396584D01*
X19250000Y-1394874D01*
X19284816Y-1396584D01*
X19307837Y-1400000D01*
X24590000Y-1400000D01*
X24590000Y13981309D01*
X24489999Y14039044D01*
X22000001Y12601401D01*
X18190802Y14800708D01*
X18190802Y17945000D01*
X17295752Y17945000D01*
X17132138Y18340000D01*
X17150000Y18340000D01*
X17150000Y19100000D01*
X16550000Y19100000D01*
D02*
G37*
%LPC*%
G36*
X-6025000Y9825000D02*
X-5404990Y9825000D01*
X-5404990Y10955725D01*
X-5400100Y11005353D01*
X-5382689Y11062747D01*
X-5354411Y11115652D01*
X-5322782Y11154192D01*
X-3931335Y12545640D01*
X-5280685Y13894990D01*
X-5939143Y13894990D01*
X-5988776Y13899877D01*
X-6046175Y13917291D01*
X-6099078Y13945568D01*
X-6144844Y13983127D01*
X-6151318Y13990896D01*
X-6505422Y14345000D01*
X-7455000Y14345000D01*
X-7455000Y15655000D01*
X-7305000Y15655000D01*
X-7305000Y16823933D01*
X-7405001Y16881668D01*
X-7630000Y16751761D01*
X-8685000Y17360883D01*
X-8685000Y18579117D01*
X-7630000Y19188239D01*
X-6575000Y18579117D01*
X-6575000Y17360883D01*
X-6695000Y17291599D01*
X-6695000Y15655000D01*
X-6545000Y15655000D01*
X-6545000Y14984290D01*
X-6398300Y14984290D01*
X-6348677Y14979402D01*
X-6291277Y14961988D01*
X-6238375Y14933711D01*
X-6192609Y14896152D01*
X-6186135Y14888383D01*
X-6078463Y14780711D01*
X-5955000Y14831851D01*
X-5955000Y15655000D01*
X-5805000Y15655000D01*
X-5805000Y17164578D01*
X-6145000Y17360883D01*
X-6145000Y18579117D01*
X-5090000Y19188239D01*
X-4035000Y18579117D01*
X-4035000Y17360883D01*
X-5089998Y16751762D01*
X-5094997Y16754648D01*
X-5195000Y16696913D01*
X-5195000Y15655000D01*
X-5045000Y15655000D01*
X-5045000Y14486830D01*
X-4984349Y14454412D01*
X-4938582Y14416852D01*
X-4932108Y14409083D01*
X-3500000Y12976975D01*
X-2854162Y13622812D01*
X-2815622Y13654441D01*
X-2762717Y13682719D01*
X-2705323Y13700130D01*
X-2655695Y13705020D01*
X437067Y13705020D01*
X591170Y13859123D01*
X597644Y13866892D01*
X643410Y13904451D01*
X696312Y13932728D01*
X753712Y13950142D01*
X803335Y13955030D01*
X2860045Y13955030D01*
X2909673Y13950140D01*
X2967067Y13932729D01*
X3019972Y13904451D01*
X3058512Y13872822D01*
X3276306Y13655029D01*
X6410046Y13655029D01*
X6459668Y13650140D01*
X6595000Y13609081D01*
X6595000Y15045000D01*
X6295000Y15045000D01*
X6295000Y16455000D01*
X9705000Y16455000D01*
X9705000Y15522385D01*
X9890285Y15508716D01*
X9906505Y15618051D01*
X9920932Y15675651D01*
X9940943Y15731573D01*
X9966330Y15785251D01*
X9996862Y15836191D01*
X10032232Y15883883D01*
X10072115Y15927887D01*
X10116119Y15967770D01*
X10163811Y16003140D01*
X10214751Y16033672D01*
X10268429Y16059059D01*
X10324351Y16079070D01*
X10381950Y16093497D01*
X10440683Y16102210D01*
X10500004Y16105124D01*
X10559325Y16102210D01*
X10618058Y16093497D01*
X10675657Y16079070D01*
X10731579Y16059059D01*
X10785257Y16033672D01*
X10836197Y16003140D01*
X10883889Y15967770D01*
X10927893Y15927887D01*
X10967776Y15883883D01*
X11003146Y15836191D01*
X11033678Y15785251D01*
X11059065Y15731573D01*
X11079076Y15675651D01*
X11093503Y15618052D01*
X11102216Y15559319D01*
X11105130Y15499998D01*
X11102216Y15440677D01*
X11093503Y15381944D01*
X11079076Y15324345D01*
X11059065Y15268423D01*
X11033678Y15214745D01*
X11003146Y15163805D01*
X10967776Y15116113D01*
X10927893Y15072109D01*
X10883889Y15032226D01*
X10836197Y14996856D01*
X10785257Y14966324D01*
X10731579Y14940937D01*
X10675657Y14920926D01*
X10618058Y14906499D01*
X10559325Y14897786D01*
X10500004Y14894872D01*
X10440683Y14897786D01*
X10381950Y14906499D01*
X10324351Y14920926D01*
X10268429Y14940937D01*
X10214751Y14966324D01*
X10163811Y14996856D01*
X10116119Y15032226D01*
X10072115Y15072109D01*
X10032232Y15116113D01*
X9996862Y15163805D01*
X9966330Y15214745D01*
X9940943Y15268423D01*
X9920932Y15324345D01*
X9906505Y15381945D01*
X9890285Y15491280D01*
X9705000Y15477611D01*
X9705000Y15045000D01*
X9405000Y15045000D01*
X9405000Y12545000D01*
X8676335Y12545000D01*
X8222241Y12090906D01*
X8215767Y12083137D01*
X8170001Y12045578D01*
X8117098Y12017301D01*
X8059699Y11999887D01*
X8010066Y11995000D01*
X6739935Y11995000D01*
X6690301Y11999887D01*
X6632901Y12017301D01*
X6580001Y12045576D01*
X6533509Y12083732D01*
X6527095Y12091570D01*
X6023646Y12595019D01*
X4705911Y12595019D01*
X4654771Y12471556D01*
X5821327Y11305000D01*
X6045000Y11305000D01*
X6045000Y11655000D01*
X8208858Y11655000D01*
X8261010Y11670822D01*
X8310633Y11675710D01*
X9494375Y11675710D01*
X11027758Y13209093D01*
X11034232Y13216862D01*
X11079998Y13254421D01*
X11132900Y13282698D01*
X11190300Y13300112D01*
X11239923Y13305000D01*
X17260075Y13305000D01*
X17309703Y13300110D01*
X17367097Y13282699D01*
X17420002Y13254421D01*
X17458542Y13222792D01*
X19972792Y10708542D01*
X20004421Y10670002D01*
X20032699Y10617097D01*
X20050110Y10559703D01*
X20055000Y10510075D01*
X20055000Y5404634D01*
X20107264Y5357263D01*
X20140562Y5320523D01*
X20170100Y5280695D01*
X20195588Y5238172D01*
X20216784Y5193356D01*
X20233491Y5146667D01*
X20245540Y5098560D01*
X20252814Y5049524D01*
X20255248Y5000000D01*
X20252814Y4950476D01*
X20245540Y4901440D01*
X20233491Y4853333D01*
X20216787Y4806650D01*
X20195588Y4761826D01*
X20170097Y4719300D01*
X20140562Y4679477D01*
X20107264Y4642736D01*
X20070523Y4609438D01*
X20030700Y4579903D01*
X19988174Y4554412D01*
X19943350Y4533213D01*
X19896667Y4516509D01*
X19848560Y4504460D01*
X19799524Y4497186D01*
X19750000Y4494752D01*
X19700476Y4497186D01*
X19651440Y4504460D01*
X19603333Y4516509D01*
X19556644Y4533216D01*
X19511828Y4554412D01*
X19469305Y4579900D01*
X19429477Y4609438D01*
X19392736Y4642736D01*
X19359438Y4679477D01*
X19329903Y4719300D01*
X19304412Y4761826D01*
X19283213Y4806650D01*
X19266509Y4853333D01*
X19254460Y4901440D01*
X19247186Y4950476D01*
X19244752Y5000000D01*
X19247186Y5049524D01*
X19254460Y5098560D01*
X19266509Y5146667D01*
X19283213Y5193350D01*
X19304412Y5238174D01*
X19329903Y5280700D01*
X19359438Y5320523D01*
X19392736Y5357263D01*
X19445000Y5404634D01*
X19445000Y10373665D01*
X17523463Y12295202D01*
X17400000Y12244062D01*
X17400000Y11850000D01*
X16900000Y11850000D01*
X16900000Y12350000D01*
X17294062Y12350000D01*
X17345202Y12473463D01*
X17123665Y12695000D01*
X11376335Y12695000D01*
X9842951Y11161616D01*
X9836477Y11153847D01*
X9790711Y11116288D01*
X9737808Y11088011D01*
X9680409Y11070597D01*
X9630776Y11065710D01*
X8455000Y11065710D01*
X8455000Y10504990D01*
X10823655Y10504990D01*
X12045000Y11726335D01*
X12045000Y12405000D01*
X12955000Y12405000D01*
X12955000Y5095000D01*
X12528927Y5095000D01*
X12597360Y4950326D01*
X12614065Y4903643D01*
X12626114Y4855536D01*
X12633388Y4806500D01*
X12635822Y4756976D01*
X12633388Y4707452D01*
X12626114Y4658416D01*
X12614065Y4610309D01*
X12597361Y4563626D01*
X12522339Y4405000D01*
X12723665Y4405000D01*
X13077768Y4759103D01*
X13084242Y4766872D01*
X13130008Y4804431D01*
X13182910Y4832708D01*
X13240310Y4850122D01*
X13289933Y4855010D01*
X15714563Y4855010D01*
X15763247Y4936231D01*
X15792782Y4976054D01*
X15838094Y5026051D01*
X15829143Y5046243D01*
X15989990Y5122316D01*
X16036677Y5139022D01*
X16084784Y5151071D01*
X16200000Y5168162D01*
X16200000Y5650000D01*
X16700000Y5650000D01*
X16700000Y5150000D01*
X16576790Y5150000D01*
X16524062Y5031048D01*
X16573906Y4976054D01*
X16603444Y4936226D01*
X16628932Y4893703D01*
X16650128Y4848887D01*
X16666835Y4802198D01*
X16678884Y4754091D01*
X16686158Y4705055D01*
X16688592Y4655531D01*
X16686158Y4606007D01*
X16678884Y4556971D01*
X16666834Y4508858D01*
X16609987Y4350000D01*
X16700000Y4350000D01*
X16700000Y3850000D01*
X16200000Y3850000D01*
X16200000Y4142900D01*
X16084784Y4159991D01*
X16036677Y4172040D01*
X15989988Y4188747D01*
X15805000Y4276237D01*
X15805000Y3145000D01*
X14455000Y3145000D01*
X14455000Y3095000D01*
X13545000Y3095000D01*
X13545000Y4189062D01*
X13421537Y4240202D01*
X12955000Y3773666D01*
X12955000Y3095000D01*
X12045000Y3095000D01*
X12045000Y4251623D01*
X11937224Y4290189D01*
X11892402Y4311388D01*
X11849879Y4336876D01*
X11810051Y4366414D01*
X11773310Y4399712D01*
X11740018Y4436447D01*
X11681111Y4515898D01*
X11566475Y4430878D01*
X11523949Y4405387D01*
X11479125Y4384188D01*
X11432442Y4367484D01*
X11384335Y4355435D01*
X11335299Y4348161D01*
X11285775Y4345727D01*
X11236251Y4348161D01*
X11187215Y4355435D01*
X11139108Y4367484D01*
X11092419Y4384191D01*
X11047603Y4405387D01*
X11005080Y4430875D01*
X10965252Y4460413D01*
X10928511Y4493711D01*
X10895213Y4530452D01*
X10865678Y4570275D01*
X10840187Y4612801D01*
X10818988Y4657625D01*
X10802284Y4704308D01*
X10790235Y4752415D01*
X10782961Y4801451D01*
X10780527Y4850975D01*
X10782961Y4900499D01*
X10790235Y4949535D01*
X10802284Y4997642D01*
X10818988Y5044325D01*
X10840187Y5089149D01*
X10865678Y5131675D01*
X10895213Y5171498D01*
X10928511Y5208238D01*
X10980775Y5255609D01*
X10980775Y6045841D01*
X10985662Y6095474D01*
X11003076Y6152873D01*
X11031353Y6205776D01*
X11068912Y6251542D01*
X11076681Y6258016D01*
X12045000Y7226335D01*
X12045000Y8765710D01*
X10197045Y8765710D01*
X9972241Y8540906D01*
X9965767Y8533137D01*
X9920001Y8495578D01*
X9867098Y8467301D01*
X9809699Y8449887D01*
X9760066Y8445000D01*
X6967114Y8445000D01*
X6917480Y8449887D01*
X6860080Y8467301D01*
X6807180Y8495576D01*
X6760688Y8533732D01*
X6754274Y8541570D01*
X5850864Y9444980D01*
X1760253Y9444981D01*
X1750168Y9443973D01*
X1690325Y9449868D01*
X1632924Y9467279D01*
X1580016Y9495559D01*
X1541474Y9527193D01*
X-126335Y11195000D01*
X-1873665Y11195000D01*
X-2994947Y10073718D01*
X-2994948Y6285286D01*
X-2993940Y6275201D01*
X-2999835Y6215358D01*
X-3017246Y6157957D01*
X-3045526Y6105049D01*
X-3077160Y6066507D01*
X-5127095Y4016570D01*
X-5133509Y4008732D01*
X-5179999Y3970578D01*
X-5245000Y3935834D01*
X-5245000Y3126335D01*
X-5173665Y3055000D01*
X-3154631Y3055000D01*
X-3107264Y3107263D01*
X-3070525Y3140562D01*
X-3030697Y3170098D01*
X-2988176Y3195586D01*
X-2943350Y3216787D01*
X-2896667Y3233491D01*
X-2848560Y3245540D01*
X-2799524Y3252814D01*
X-2750000Y3255248D01*
X-2700476Y3252814D01*
X-2651440Y3245540D01*
X-2603333Y3233491D01*
X-2556650Y3216787D01*
X-2511824Y3195586D01*
X-2469303Y3170098D01*
X-2429475Y3140562D01*
X-2392736Y3107263D01*
X-2359438Y3070523D01*
X-2329900Y3030695D01*
X-2304412Y2988172D01*
X-2283216Y2943356D01*
X-2266509Y2896667D01*
X-2254460Y2848560D01*
X-2247186Y2799524D01*
X-2244752Y2750000D01*
X-2247186Y2700476D01*
X-2254460Y2651440D01*
X-2266509Y2603333D01*
X-2283213Y2556650D01*
X-2304412Y2511826D01*
X-2329903Y2469300D01*
X-2359438Y2429477D01*
X-2392736Y2392736D01*
X-2429477Y2359438D01*
X-2469300Y2329903D01*
X-2511826Y2304412D01*
X-2556650Y2283213D01*
X-2603333Y2266509D01*
X-2651440Y2254460D01*
X-2700476Y2247186D01*
X-2750000Y2244752D01*
X-2799524Y2247186D01*
X-2848560Y2254460D01*
X-2896667Y2266509D01*
X-2943356Y2283216D01*
X-2988172Y2304412D01*
X-3030695Y2329900D01*
X-3070523Y2359438D01*
X-3107268Y2392740D01*
X-3154630Y2445000D01*
X-4389062Y2445000D01*
X-4440202Y2321537D01*
X-3045212Y926546D01*
X-2540000Y1218239D01*
X-1485000Y609117D01*
X-1485000Y-609117D01*
X-2540000Y-1218239D01*
X-3595000Y-609117D01*
X-3595000Y613665D01*
X-5509094Y2527759D01*
X-5516265Y2533734D01*
X-5522240Y2540905D01*
X-6151335Y3170000D01*
X-6845010Y3170000D01*
X-6845010Y2196345D01*
X-5578872Y930206D01*
X-5080000Y1218239D01*
X-4025000Y609117D01*
X-4025000Y-609117D01*
X-5080000Y-1218239D01*
X-6135000Y-609117D01*
X-6135000Y623665D01*
X-7191537Y1680202D01*
X-7315000Y1629062D01*
X-7315000Y1042142D01*
X-6565000Y609117D01*
X-6565000Y-609117D01*
X-7620000Y-1218239D01*
X-8675000Y-609117D01*
X-8675000Y609117D01*
X-7925000Y1042142D01*
X-7925000Y3907652D01*
X-8048463Y3958792D01*
X-8245000Y3762255D01*
X-8245000Y1599935D01*
X-8249887Y1550301D01*
X-8267301Y1492901D01*
X-8295576Y1440001D01*
X-8333732Y1393509D01*
X-8341570Y1387095D01*
X-9105000Y623665D01*
X-9105000Y-609117D01*
X-10160000Y-1218239D01*
X-11215000Y-609117D01*
X-11215000Y609117D01*
X-10160000Y1218239D01*
X-9661127Y930206D01*
X-8855000Y1736335D01*
X-8855000Y3820001D01*
X-9585666Y3820001D01*
X-12375046Y1030621D01*
X-11645000Y609117D01*
X-11645000Y-609117D01*
X-12700000Y-1218239D01*
X-13755000Y-609117D01*
X-13755000Y609117D01*
X-13005000Y1042142D01*
X-13005000Y1147077D01*
X-13000110Y1196705D01*
X-12982699Y1254099D01*
X-12954421Y1307004D01*
X-12922792Y1345544D01*
X-9920543Y4347793D01*
X-9882003Y4379422D01*
X-9829098Y4407700D01*
X-9771704Y4425111D01*
X-9722076Y4430001D01*
X-9076334Y4430001D01*
X-8386265Y5120069D01*
X-8433091Y5241464D01*
X-8549525Y5247186D01*
X-8598560Y5254460D01*
X-8646667Y5266509D01*
X-8693356Y5283216D01*
X-8738172Y5304412D01*
X-8780695Y5329900D01*
X-8820523Y5359438D01*
X-8857264Y5392736D01*
X-8890562Y5429477D01*
X-8920097Y5469300D01*
X-8945588Y5511826D01*
X-8966787Y5556650D01*
X-8983491Y5603333D01*
X-8995540Y5651440D01*
X-9002814Y5700476D01*
X-9005248Y5750000D01*
X-9002814Y5799524D01*
X-8995540Y5848560D01*
X-8983491Y5896667D01*
X-8966787Y5943350D01*
X-8945587Y5988174D01*
X-8894396Y6073578D01*
X-8951850Y6175000D01*
X-9400000Y6175000D01*
X-9400000Y6650000D01*
X-8900000Y6650000D01*
X-8900000Y6216834D01*
X-8798577Y6159381D01*
X-8738169Y6195590D01*
X-8693345Y6216789D01*
X-8605000Y6248399D01*
X-8605000Y7330000D01*
X-7395000Y7330000D01*
X-7395000Y7055000D01*
X-7005000Y7055000D01*
X-7005000Y7820000D01*
X-9960667Y7820000D01*
X-10407002Y7373665D01*
X-10407002Y5527933D01*
X-10411889Y5478299D01*
X-10429303Y5420899D01*
X-10457578Y5367999D01*
X-10495734Y5321507D01*
X-10503572Y5315093D01*
X-14834530Y984135D01*
X-14185000Y609117D01*
X-14185000Y-609117D01*
X-15240000Y-1218239D01*
X-16295000Y-609117D01*
X-16295000Y609117D01*
X-15536993Y1046765D01*
X-15576714Y1195000D01*
X-16153665Y1195000D01*
X-16725000Y623665D01*
X-16725000Y-609117D01*
X-17780001Y-1218239D01*
X-18835000Y-609117D01*
X-18835000Y596219D01*
X-18958463Y647359D01*
X-19265000Y340822D01*
X-19265000Y-609117D01*
X-20320000Y-1218239D01*
X-21375000Y-609117D01*
X-21375000Y340346D01*
X-21433681Y411851D01*
X-21480439Y499328D01*
X-21509234Y594251D01*
X-21517965Y682890D01*
X-21517965Y3023786D01*
X-21681537Y3187358D01*
X-21805000Y3136218D01*
X-21805000Y1930883D01*
X-22860000Y1321762D01*
X-23915000Y1930883D01*
X-23915000Y3149117D01*
X-22860000Y3758239D01*
X-22004279Y3264174D01*
X-21897503Y3403325D01*
X-22540442Y4046264D01*
X-22860000Y3861761D01*
X-23915000Y4470883D01*
X-23915000Y5689117D01*
X-22860000Y6298238D01*
X-21805000Y5689117D01*
X-21805000Y4739179D01*
X-20662449Y3596627D01*
X-20654679Y3590152D01*
X-20592248Y3514078D01*
X-20545490Y3426601D01*
X-20516696Y3331680D01*
X-20507965Y3243031D01*
X-20507965Y1225187D01*
X-20407964Y1167452D01*
X-20320000Y1218239D01*
X-20000442Y1033736D01*
X-18377100Y2657078D01*
X-18369980Y2664199D01*
X-18301123Y2720706D01*
X-18213646Y2767464D01*
X-18118723Y2796259D01*
X-18030085Y2804990D01*
X-17807909Y2804990D01*
X-17807909Y4355000D01*
X-17757909Y4355000D01*
X-17757909Y4670000D01*
X-19105000Y4670000D01*
X-19105000Y5830000D01*
X-19005000Y5830000D01*
X-19005000Y8224185D01*
X-20482909Y8224185D01*
X-20482909Y11648309D01*
X-20606372Y11699449D01*
X-21805000Y10500822D01*
X-21805000Y9550883D01*
X-22860000Y8941762D01*
X-23915000Y9550883D01*
X-23915000Y10769117D01*
X-22860000Y11378239D01*
X-22540441Y11193736D01*
X-21147895Y12586283D01*
X-21140775Y12593404D01*
X-21071918Y12649911D01*
X-20984441Y12696669D01*
X-20889518Y12725464D01*
X-20800880Y12734195D01*
X-16857909Y12734195D01*
X-16857909Y13209185D01*
X-15747909Y13209185D01*
X-15747909Y12859185D01*
X-14682909Y12859185D01*
X-14682909Y13034185D01*
X-13807909Y13034185D01*
X-13807909Y13974185D01*
X-13907909Y13974185D01*
X-13907909Y15134185D01*
X-12697909Y15134185D01*
X-12697909Y15059185D01*
X-12404994Y15059185D01*
X-11610645Y15853533D01*
X-11607264Y15857263D01*
X-11603533Y15860645D01*
X-11599965Y15864212D01*
X-11596072Y15867407D01*
X-11570519Y15890567D01*
X-11542831Y15911100D01*
X-11531114Y15920715D01*
X-11517747Y15927860D01*
X-11488164Y15945593D01*
X-11456976Y15960343D01*
X-11443635Y15967473D01*
X-11429153Y15971867D01*
X-11396662Y15983493D01*
X-11317969Y16003204D01*
X-11286880Y16115545D01*
X-12211128Y17039794D01*
X-12710000Y16751761D01*
X-13765000Y17360883D01*
X-13765000Y18579117D01*
X-12710000Y19188239D01*
X-11655000Y18579117D01*
X-11655000Y17346335D01*
X-10386686Y16078021D01*
X-10263223Y16129161D01*
X-10263223Y16805585D01*
X-11225000Y17360883D01*
X-11225000Y18579117D01*
X-10170000Y19188239D01*
X-9115000Y18579117D01*
X-9115000Y17360883D01*
X-9653223Y17050131D01*
X-9653223Y12415836D01*
X-9600959Y12368465D01*
X-9567661Y12331725D01*
X-9538123Y12291897D01*
X-9512635Y12249374D01*
X-9491439Y12204558D01*
X-9474732Y12157869D01*
X-9462683Y12109762D01*
X-9455409Y12060726D01*
X-9452975Y12011202D01*
X-9455409Y11961678D01*
X-9462683Y11912642D01*
X-9474732Y11864535D01*
X-9491436Y11817852D01*
X-9512635Y11773028D01*
X-9538126Y11730502D01*
X-9567661Y11690679D01*
X-9600959Y11653938D01*
X-9637700Y11620640D01*
X-9677523Y11591105D01*
X-9720049Y11565614D01*
X-9764873Y11544415D01*
X-9811556Y11527711D01*
X-9859663Y11515662D01*
X-9908699Y11508388D01*
X-9958223Y11505954D01*
X-10007747Y11508388D01*
X-10056783Y11515662D01*
X-10104890Y11527711D01*
X-10151579Y11544418D01*
X-10196395Y11565614D01*
X-10238918Y11591102D01*
X-10278746Y11620640D01*
X-10315487Y11653938D01*
X-10348785Y11690679D01*
X-10378320Y11730502D01*
X-10403811Y11773028D01*
X-10425010Y11817852D01*
X-10441714Y11864535D01*
X-10453763Y11912642D01*
X-10461037Y11961678D01*
X-10463471Y12011202D01*
X-10461037Y12060726D01*
X-10453763Y12109762D01*
X-10441714Y12157869D01*
X-10425010Y12204552D01*
X-10403811Y12249376D01*
X-10378320Y12291902D01*
X-10348785Y12331725D01*
X-10315487Y12368465D01*
X-10263223Y12415836D01*
X-10263223Y12802151D01*
X-10373301Y12857560D01*
X-10444293Y12804907D01*
X-10486826Y12779412D01*
X-10531650Y12758213D01*
X-10578333Y12741509D01*
X-10626440Y12729460D01*
X-10675476Y12722186D01*
X-10725000Y12719752D01*
X-10774524Y12722186D01*
X-10823560Y12729460D01*
X-10871667Y12741509D01*
X-10918356Y12758216D01*
X-10963172Y12779412D01*
X-11005695Y12804900D01*
X-11045523Y12834438D01*
X-11082264Y12867736D01*
X-11115562Y12904477D01*
X-11145097Y12944300D01*
X-11170588Y12986826D01*
X-11191787Y13031650D01*
X-11208491Y13078333D01*
X-11220540Y13126440D01*
X-11227814Y13175476D01*
X-11230248Y13225000D01*
X-11227814Y13274524D01*
X-11220540Y13323560D01*
X-11208491Y13371667D01*
X-11191787Y13418350D01*
X-11170588Y13463174D01*
X-11145097Y13505700D01*
X-11115562Y13545523D01*
X-11082264Y13582263D01*
X-11045525Y13615562D01*
X-11005697Y13645098D01*
X-10963176Y13670586D01*
X-10918350Y13691787D01*
X-10805000Y13732346D01*
X-10805000Y15056219D01*
X-10928463Y15107359D01*
X-11832153Y14203668D01*
X-11838627Y14195899D01*
X-11914698Y14133469D01*
X-12002178Y14086710D01*
X-12097099Y14057916D01*
X-12185748Y14049185D01*
X-12697909Y14049185D01*
X-12697909Y13974185D01*
X-12797909Y13974185D01*
X-12797909Y13034185D01*
X-12122909Y13034185D01*
X-12122909Y11674185D01*
X-14682909Y11674185D01*
X-14682909Y11849185D01*
X-15747909Y11849185D01*
X-15747909Y11799185D01*
X-16176046Y11799185D01*
X-16223498Y11666562D01*
X-16091431Y11558180D01*
X-16084956Y11550410D01*
X-15343730Y10809185D01*
X-14797909Y10809185D01*
X-14797909Y10734185D01*
X-12122909Y10734185D01*
X-12122909Y9374185D01*
X-14682909Y9374185D01*
X-14682909Y9399185D01*
X-15907909Y9399185D01*
X-15907909Y9945006D01*
X-16579446Y10616543D01*
X-16702909Y10565403D01*
X-16702909Y10204185D01*
X-17352909Y10204185D01*
X-17352909Y9404185D01*
X-17922909Y9404185D01*
X-17922909Y8224185D01*
X-17995000Y8224185D01*
X-17995000Y5830000D01*
X-17895000Y5830000D01*
X-17895000Y5755000D01*
X-17507909Y5755000D01*
X-17507909Y5905000D01*
X-15905000Y5905000D01*
X-15905000Y7644966D01*
X-15905248Y7650000D01*
X-15905000Y7655034D01*
X-15905000Y7660070D01*
X-15904506Y7665089D01*
X-15902814Y7699516D01*
X-15897754Y7733630D01*
X-15896268Y7748715D01*
X-15891869Y7763215D01*
X-15883491Y7796667D01*
X-15871870Y7829145D01*
X-15867474Y7843635D01*
X-15860337Y7856988D01*
X-15845590Y7888170D01*
X-15827856Y7917756D01*
X-15820717Y7931111D01*
X-15811105Y7942823D01*
X-15790565Y7970519D01*
X-15767406Y7996072D01*
X-15757791Y8007789D01*
X-15746075Y8017404D01*
X-15720527Y8040560D01*
X-15692827Y8061102D01*
X-15681113Y8070716D01*
X-15667749Y8077860D01*
X-15638173Y8095589D01*
X-15606988Y8110337D01*
X-15593635Y8117474D01*
X-15579145Y8121870D01*
X-15546667Y8133491D01*
X-15513215Y8141869D01*
X-15498714Y8146268D01*
X-15483631Y8147754D01*
X-15449517Y8152814D01*
X-15415086Y8154506D01*
X-15400000Y8155992D01*
X-15384914Y8154506D01*
X-15350483Y8152814D01*
X-15316369Y8147754D01*
X-15301286Y8146268D01*
X-15286783Y8141869D01*
X-15253334Y8133492D01*
X-15220858Y8121871D01*
X-15206364Y8117474D01*
X-15193003Y8110333D01*
X-15161830Y8095590D01*
X-15132259Y8077865D01*
X-15118888Y8070718D01*
X-15107162Y8061095D01*
X-15079477Y8040564D01*
X-15053934Y8017412D01*
X-15042209Y8007790D01*
X-15032583Y7996060D01*
X-15009434Y7970519D01*
X-14988907Y7942840D01*
X-14979283Y7931113D01*
X-14972131Y7917733D01*
X-14954408Y7888164D01*
X-14939674Y7857011D01*
X-14932525Y7843637D01*
X-14928123Y7829124D01*
X-14916508Y7796665D01*
X-14908136Y7763237D01*
X-14903730Y7748711D01*
X-14902242Y7733605D01*
X-14897186Y7699517D01*
X-14895494Y7665087D01*
X-14895000Y7660068D01*
X-14895000Y7655034D01*
X-14894752Y7650000D01*
X-14895000Y7644966D01*
X-14895000Y5855014D01*
X-13759165Y5855014D01*
X-13110645Y6503533D01*
X-13107264Y6507263D01*
X-13103533Y6510645D01*
X-13099965Y6514212D01*
X-13096072Y6517407D01*
X-13070519Y6540567D01*
X-13042831Y6561100D01*
X-13031114Y6570715D01*
X-13017747Y6577860D01*
X-12988164Y6595593D01*
X-12956976Y6610343D01*
X-12943635Y6617473D01*
X-12929153Y6621867D01*
X-12896664Y6633492D01*
X-12863219Y6641868D01*
X-12848714Y6646269D01*
X-12833623Y6647755D01*
X-12799524Y6652814D01*
X-12765072Y6654507D01*
X-12749998Y6655991D01*
X-12734924Y6654507D01*
X-12700477Y6652814D01*
X-12666380Y6647755D01*
X-12651283Y6646268D01*
X-12636773Y6641866D01*
X-12603336Y6633492D01*
X-12570861Y6621872D01*
X-12556364Y6617474D01*
X-12543005Y6610333D01*
X-12511831Y6595590D01*
X-12482254Y6577861D01*
X-12468885Y6570715D01*
X-12457168Y6561099D01*
X-12429475Y6540562D01*
X-12403919Y6517399D01*
X-12392210Y6507790D01*
X-12382596Y6496075D01*
X-12359436Y6470521D01*
X-12338914Y6442849D01*
X-12329283Y6431114D01*
X-12322129Y6417730D01*
X-12304415Y6388177D01*
X-12289669Y6356998D01*
X-12282524Y6343631D01*
X-12278126Y6329132D01*
X-12266510Y6296672D01*
X-12258136Y6263239D01*
X-12253731Y6248716D01*
X-12252242Y6233602D01*
X-12247186Y6199523D01*
X-12245494Y6165094D01*
X-12244008Y6150000D01*
X-12245494Y6134906D01*
X-12247186Y6100477D01*
X-12252242Y6066398D01*
X-12253731Y6051284D01*
X-12258137Y6036758D01*
X-12266510Y6003328D01*
X-12278122Y5970878D01*
X-12282525Y5956364D01*
X-12289675Y5942987D01*
X-12304408Y5911833D01*
X-12322129Y5882269D01*
X-12329283Y5868884D01*
X-12338916Y5857147D01*
X-12359437Y5829478D01*
X-12382595Y5803926D01*
X-12385790Y5800033D01*
X-12389349Y5796474D01*
X-12392736Y5792736D01*
X-12396474Y5789349D01*
X-13186324Y4999497D01*
X-13192798Y4991728D01*
X-13268869Y4929298D01*
X-13356349Y4882539D01*
X-13451275Y4853743D01*
X-13494963Y4849440D01*
X-13494963Y4849441D01*
X-13539918Y4845014D01*
X-14847909Y4845014D01*
X-14847909Y4355000D01*
X-14797909Y4355000D01*
X-14797909Y2808029D01*
X-14674446Y2756889D01*
X-11467012Y5964323D01*
X-11467012Y7696475D01*
X-11462122Y7746103D01*
X-11444711Y7803497D01*
X-11416433Y7856402D01*
X-11384804Y7894942D01*
X-10281954Y8997792D01*
X-10243414Y9029421D01*
X-10190509Y9057699D01*
X-10133115Y9075110D01*
X-10083487Y9080000D01*
X-7005000Y9080000D01*
X-7005000Y9180000D01*
X-7000000Y9180000D01*
X-7000000Y9325000D01*
X-6025000Y9325000D01*
X-6025000Y9825000D01*
D02*
G37*
%LPC*%
G36*
X22860000Y8941762D02*
X21805000Y9550883D01*
X21805000Y10500821D01*
X21560821Y10745000D01*
X20739935Y10745000D01*
X20651284Y10753731D01*
X20556363Y10782525D01*
X20468885Y10829283D01*
X20392090Y10892305D01*
X20385673Y10900149D01*
X17540821Y13745000D01*
X16212101Y13745000D01*
X16123450Y13753731D01*
X16028529Y13782525D01*
X15941051Y13829283D01*
X15864256Y13892305D01*
X15857839Y13900149D01*
X12292987Y17465000D01*
X-1495000Y17465000D01*
X-1495000Y17360883D01*
X-2550000Y16751761D01*
X-3605000Y17360883D01*
X-3605000Y18579117D01*
X-2550000Y19188239D01*
X-1495000Y18579117D01*
X-1495000Y18475000D01*
X12512241Y18475000D01*
X12600879Y18466269D01*
X12695802Y18437474D01*
X12783279Y18390716D01*
X12852128Y18334215D01*
X15676537Y15509808D01*
X15800000Y15560948D01*
X15800000Y15650000D01*
X16525000Y15650000D01*
X16525000Y15050000D01*
X16310948Y15050000D01*
X16259808Y14926537D01*
X16431345Y14755000D01*
X17760075Y14755000D01*
X17848713Y14746269D01*
X17943636Y14717474D01*
X18031113Y14670716D01*
X18076314Y14633622D01*
X18099961Y14614216D01*
X20959179Y11755000D01*
X21780075Y11755000D01*
X21868713Y11746269D01*
X21963636Y11717474D01*
X22051113Y11670716D01*
X22119962Y11614215D01*
X22540441Y11193736D01*
X22860000Y11378239D01*
X23915000Y10769117D01*
X23915000Y9550883D01*
X22860000Y8941762D01*
D02*
G37*
%LPC*%
G36*
X-15350000Y18070000D02*
X-16300000Y18070000D01*
X-16300000Y18576231D01*
X-15350000Y19124729D01*
X-15350000Y18070000D01*
D02*
G37*
%LPC*%
G36*
X-14200000Y18070000D02*
X-15150000Y18070000D01*
X-15150000Y19124729D01*
X-14200000Y18576231D01*
X-14200000Y18070000D01*
D02*
G37*
%LPC*%
G36*
X16950000Y18350000D02*
X16550000Y18350000D01*
X16550000Y18900000D01*
X16950000Y18900000D01*
X16950000Y18350000D01*
D02*
G37*
%LPC*%
G36*
X-16950000Y18900000D02*
X-16550000Y18900000D01*
X-16550000Y18350000D01*
X-16950000Y18350000D01*
X-16950000Y18900000D01*
D02*
G37*
%LPC*%
G36*
X-14200000Y17870000D02*
X-14200000Y17363769D01*
X-15150000Y16815271D01*
X-15150000Y17870000D01*
X-14200000Y17870000D01*
D02*
G37*
%LPC*%
G36*
X-15350000Y16815271D02*
X-16300000Y17363769D01*
X-16300000Y17870000D01*
X-15350000Y17870000D01*
X-15350000Y16815271D01*
D02*
G37*
%LPC*%
G36*
X-725000Y15850000D02*
X-1450000Y15850000D01*
X-1450000Y16450000D01*
X-725000Y16450000D01*
X-725000Y15850000D01*
D02*
G37*
%LPC*%
G36*
X16525000Y15850000D02*
X15800000Y15850000D01*
X15800000Y16450000D01*
X16525000Y16450000D01*
X16525000Y15850000D01*
D02*
G37*
%LPC*%
G36*
X17450000Y15850000D02*
X16725000Y15850000D01*
X16725000Y16450000D01*
X17450000Y16450000D01*
X17450000Y15850000D01*
D02*
G37*
%LPC*%
G36*
X200000Y15850000D02*
X-525000Y15850000D01*
X-525000Y16450000D01*
X200000Y16450000D01*
X200000Y15850000D01*
D02*
G37*
%LPC*%
G36*
X2500000Y14894874D02*
X2440679Y14897788D01*
X2381946Y14906501D01*
X2324347Y14920928D01*
X2268425Y14940939D01*
X2214747Y14966326D01*
X2163807Y14996858D01*
X2116115Y15032228D01*
X2072111Y15072111D01*
X2032228Y15116115D01*
X1996858Y15163807D01*
X1966326Y15214747D01*
X1940939Y15268425D01*
X1920928Y15324347D01*
X1906501Y15381946D01*
X1897788Y15440679D01*
X1894874Y15499998D01*
X1897788Y15559321D01*
X1906501Y15618054D01*
X1920928Y15675653D01*
X1940939Y15731575D01*
X1966326Y15785253D01*
X1996858Y15836193D01*
X2032228Y15883885D01*
X2072111Y15927889D01*
X2116115Y15967772D01*
X2163807Y16003142D01*
X2214747Y16033674D01*
X2268425Y16059061D01*
X2324347Y16079072D01*
X2381946Y16093499D01*
X2440679Y16102212D01*
X2500000Y16105126D01*
X2559321Y16102212D01*
X2618054Y16093499D01*
X2675653Y16079072D01*
X2731575Y16059061D01*
X2785253Y16033674D01*
X2836193Y16003142D01*
X2883885Y15967772D01*
X2927889Y15927889D01*
X2967772Y15883885D01*
X3003142Y15836193D01*
X3033674Y15785253D01*
X3059061Y15731575D01*
X3079072Y15675653D01*
X3093499Y15618054D01*
X3102212Y15559321D01*
X3105126Y15499998D01*
X3102212Y15440679D01*
X3093499Y15381946D01*
X3079072Y15324347D01*
X3059061Y15268425D01*
X3033674Y15214747D01*
X3003142Y15163807D01*
X2967772Y15116115D01*
X2927889Y15072111D01*
X2883885Y15032228D01*
X2836193Y14996858D01*
X2785253Y14966326D01*
X2731575Y14940939D01*
X2675653Y14920928D01*
X2618054Y14906501D01*
X2559321Y14897788D01*
X2500000Y14894874D01*
D02*
G37*
%LPC*%
G36*
X16725000Y15650000D02*
X17450000Y15650000D01*
X17450000Y15050000D01*
X16725000Y15050000D01*
X16725000Y15650000D01*
D02*
G37*
%LPC*%
G36*
X200000Y15650000D02*
X200000Y15050000D01*
X-525000Y15050000D01*
X-525000Y15650000D01*
X200000Y15650000D01*
D02*
G37*
%LPC*%
G36*
X-725000Y15050000D02*
X-1450000Y15050000D01*
X-1450000Y15650000D01*
X-725000Y15650000D01*
X-725000Y15050000D01*
D02*
G37*
%LPC*%
G36*
X-14902909Y14654185D02*
X-15402909Y14654185D01*
X-15402909Y15129185D01*
X-14902909Y15129185D01*
X-14902909Y14654185D01*
D02*
G37*
%LPC*%
G36*
X-14202909Y14654185D02*
X-14702909Y14654185D01*
X-14702909Y15129185D01*
X-14202909Y15129185D01*
X-14202909Y14654185D01*
D02*
G37*
%LPC*%
G36*
X-14202909Y14454185D02*
X-14202909Y13979185D01*
X-14702909Y13979185D01*
X-14702909Y14454185D01*
X-14202909Y14454185D01*
D02*
G37*
%LPC*%
G36*
X-14902909Y13979185D02*
X-15402909Y13979185D01*
X-15402909Y14454185D01*
X-14902909Y14454185D01*
X-14902909Y13979185D01*
D02*
G37*
%LPC*%
G36*
X14455000Y5095000D02*
X13545000Y5095000D01*
X13545000Y12405000D01*
X14455000Y12405000D01*
X14455000Y12355000D01*
X15805000Y12355000D01*
X15805000Y11145000D01*
X14455000Y11145000D01*
X14455000Y10855000D01*
X15805000Y10855000D01*
X15805000Y9645000D01*
X14455000Y9645000D01*
X14455000Y9355000D01*
X15805000Y9355000D01*
X15805000Y8145000D01*
X14455000Y8145000D01*
X14455000Y7855000D01*
X15805000Y7855000D01*
X15805000Y6645000D01*
X14455000Y6645000D01*
X14455000Y6355000D01*
X15805000Y6355000D01*
X15805000Y5100706D01*
X15785365Y5145000D01*
X14455000Y5145000D01*
X14455000Y5095000D01*
D02*
G37*
%LPC*%
G36*
X16700000Y12350000D02*
X16700000Y11850000D01*
X16200000Y11850000D01*
X16200000Y12350000D01*
X16700000Y12350000D01*
D02*
G37*
%LPC*%
G36*
X17400000Y11150000D02*
X16900000Y11150000D01*
X16900000Y11650000D01*
X17400000Y11650000D01*
X17400000Y11150000D01*
D02*
G37*
%LPC*%
G36*
X16700000Y11150000D02*
X16200000Y11150000D01*
X16200000Y11650000D01*
X16700000Y11650000D01*
X16700000Y11150000D01*
D02*
G37*
%LPC*%
G36*
X16700000Y10350000D02*
X16200000Y10350000D01*
X16200000Y10850000D01*
X16700000Y10850000D01*
X16700000Y10350000D01*
D02*
G37*
%LPC*%
G36*
X17400000Y10350000D02*
X16900000Y10350000D01*
X16900000Y10850000D01*
X17400000Y10850000D01*
X17400000Y10350000D01*
D02*
G37*
%LPC*%
G36*
X900000Y6350000D02*
X900000Y6670010D01*
X676345Y6670010D01*
X622241Y6615906D01*
X615767Y6608137D01*
X570003Y6570579D01*
X505000Y6535833D01*
X505000Y6420000D01*
X500000Y6420000D01*
X500000Y6275000D01*
X-1250000Y6275000D01*
X-1250000Y6420000D01*
X-1255000Y6420000D01*
X-1255000Y6520000D01*
X-1490075Y6520000D01*
X-1529408Y6436834D01*
X-1554903Y6394300D01*
X-1584438Y6354477D01*
X-1617736Y6317736D01*
X-1654477Y6284438D01*
X-1694300Y6254903D01*
X-1736826Y6229412D01*
X-1781650Y6208213D01*
X-1828333Y6191509D01*
X-1876440Y6179460D01*
X-1925476Y6172186D01*
X-1975000Y6169752D01*
X-2024524Y6172186D01*
X-2073560Y6179460D01*
X-2121667Y6191509D01*
X-2168356Y6208216D01*
X-2213172Y6229412D01*
X-2255695Y6254900D01*
X-2295523Y6284438D01*
X-2332264Y6317736D01*
X-2365562Y6354477D01*
X-2395097Y6394300D01*
X-2420588Y6436826D01*
X-2441787Y6481650D01*
X-2458491Y6528333D01*
X-2470540Y6576440D01*
X-2477814Y6625476D01*
X-2480248Y6675000D01*
X-2477814Y6724524D01*
X-2470540Y6773560D01*
X-2458491Y6821667D01*
X-2441787Y6868350D01*
X-2420588Y6913174D01*
X-2395097Y6955700D01*
X-2365562Y6995523D01*
X-2332264Y7032263D01*
X-2295525Y7065562D01*
X-2255697Y7095098D01*
X-2213176Y7120586D01*
X-2168350Y7141787D01*
X-2121667Y7158491D01*
X-2073560Y7170540D01*
X-2024524Y7177814D01*
X-1975000Y7180248D01*
X-1925476Y7177814D01*
X-1876440Y7170540D01*
X-1828333Y7158491D01*
X-1781646Y7141785D01*
X-1756729Y7130000D01*
X-1255000Y7130000D01*
X-1255000Y8104691D01*
X-1373949Y8157420D01*
X-1454477Y8084438D01*
X-1494300Y8054903D01*
X-1536826Y8029412D01*
X-1581650Y8008213D01*
X-1628333Y7991509D01*
X-1676440Y7979460D01*
X-1725476Y7972186D01*
X-1775000Y7969752D01*
X-1824524Y7972186D01*
X-1873560Y7979460D01*
X-1921667Y7991509D01*
X-1968356Y8008216D01*
X-2013172Y8029412D01*
X-2055695Y8054900D01*
X-2095523Y8084438D01*
X-2132264Y8117736D01*
X-2165562Y8154477D01*
X-2195097Y8194300D01*
X-2220588Y8236826D01*
X-2241787Y8281650D01*
X-2258491Y8328333D01*
X-2270540Y8376440D01*
X-2277814Y8425476D01*
X-2280248Y8475000D01*
X-2277814Y8524524D01*
X-2270540Y8573560D01*
X-2258491Y8621667D01*
X-2241787Y8668350D01*
X-2220588Y8713174D01*
X-2195097Y8755700D01*
X-2165562Y8795523D01*
X-2132264Y8832263D01*
X-2095525Y8865562D01*
X-2055697Y8895098D01*
X-2013176Y8920586D01*
X-1968350Y8941787D01*
X-1921667Y8958491D01*
X-1873560Y8970540D01*
X-1824524Y8977814D01*
X-1775000Y8980248D01*
X-1708879Y8976998D01*
X-1645001Y9029421D01*
X-1592097Y9057699D01*
X-1534703Y9075110D01*
X-1485075Y9080000D01*
X-1255000Y9080000D01*
X-1255000Y9323655D01*
X-1554560Y9623216D01*
X-1625012Y9619752D01*
X-1674534Y9622186D01*
X-1723570Y9629460D01*
X-1771677Y9641509D01*
X-1818366Y9658216D01*
X-1863182Y9679412D01*
X-1905705Y9704900D01*
X-1945533Y9734438D01*
X-1982274Y9767736D01*
X-2015572Y9804477D01*
X-2045107Y9844300D01*
X-2070598Y9886826D01*
X-2091797Y9931650D01*
X-2108501Y9978333D01*
X-2120550Y10026440D01*
X-2127824Y10075476D01*
X-2130258Y10125000D01*
X-2127824Y10174524D01*
X-2120550Y10223560D01*
X-2108501Y10271667D01*
X-2091797Y10318350D01*
X-2070598Y10363174D01*
X-2045107Y10405700D01*
X-2015572Y10445523D01*
X-1982274Y10482263D01*
X-1945535Y10515562D01*
X-1905707Y10545098D01*
X-1863186Y10570586D01*
X-1818360Y10591787D01*
X-1771677Y10608491D01*
X-1723570Y10620540D01*
X-1674534Y10627814D01*
X-1625010Y10630248D01*
X-1575486Y10627814D01*
X-1526450Y10620540D01*
X-1478343Y10608491D01*
X-1431660Y10591787D01*
X-1386834Y10570586D01*
X-1344313Y10545098D01*
X-1304485Y10515562D01*
X-1267746Y10482263D01*
X-1234448Y10445523D01*
X-1204910Y10405695D01*
X-1179422Y10363172D01*
X-1158226Y10318356D01*
X-1141519Y10271667D01*
X-1129470Y10223560D01*
X-1122196Y10174524D01*
X-1119762Y10125000D01*
X-1123226Y10054550D01*
X-898675Y9830000D01*
X505000Y9830000D01*
X505000Y9730000D01*
X660105Y9730000D01*
X709733Y9725110D01*
X767127Y9707699D01*
X820032Y9679421D01*
X858572Y9647792D01*
X1376335Y9130030D01*
X4435045Y9130030D01*
X4484673Y9125140D01*
X4542067Y9107729D01*
X4594972Y9079451D01*
X4633512Y9047822D01*
X5418553Y8262781D01*
X5483202Y8443456D01*
X5504402Y8488283D01*
X5529893Y8530809D01*
X5559428Y8570632D01*
X5592726Y8607372D01*
X5629465Y8640671D01*
X5669293Y8670207D01*
X5711814Y8695695D01*
X5756640Y8716896D01*
X5803323Y8733600D01*
X5851430Y8745649D01*
X5900466Y8752923D01*
X5949990Y8755357D01*
X5999514Y8752923D01*
X6048550Y8745649D01*
X6096657Y8733600D01*
X6143340Y8716896D01*
X6188166Y8695695D01*
X6230687Y8670207D01*
X6270515Y8640671D01*
X6307254Y8607372D01*
X6340552Y8570632D01*
X6370090Y8530804D01*
X6395578Y8488281D01*
X6416774Y8443465D01*
X6433481Y8396776D01*
X6445528Y8348677D01*
X6458443Y8261614D01*
X6553397Y8232809D01*
X6606302Y8204531D01*
X6644842Y8172902D01*
X10922803Y3894940D01*
X10954431Y3856399D01*
X10982710Y3803494D01*
X11000120Y3746096D01*
X11005008Y3696477D01*
X11005009Y3399145D01*
X12149146Y2255009D01*
X15840066Y2255009D01*
X15889694Y2250119D01*
X15947088Y2232708D01*
X15999993Y2204430D01*
X16038533Y2172801D01*
X17281127Y930206D01*
X17780000Y1218239D01*
X18835000Y609117D01*
X18835000Y-609117D01*
X17780001Y-1218239D01*
X16725000Y-609117D01*
X16725000Y623665D01*
X15703656Y1645009D01*
X14200929Y1645009D01*
X14149789Y1521546D01*
X14741127Y930206D01*
X15240000Y1218239D01*
X16295000Y609117D01*
X16295000Y-609117D01*
X15240000Y-1218239D01*
X14185000Y-609117D01*
X14185000Y623665D01*
X13613665Y1195000D01*
X13036714Y1195000D01*
X12996993Y1046765D01*
X13755000Y609117D01*
X13755000Y-609117D01*
X12700000Y-1218239D01*
X11645000Y-609117D01*
X11645000Y623665D01*
X9514805Y2753860D01*
X9425466Y2655288D01*
X9373205Y2607925D01*
X9373205Y1218130D01*
X9661128Y930206D01*
X10160000Y1218239D01*
X11215000Y609117D01*
X11215000Y-609117D01*
X10160000Y-1218239D01*
X9105000Y-609117D01*
X9105000Y623665D01*
X8859775Y868890D01*
X8851937Y875304D01*
X8813781Y921796D01*
X8785506Y974696D01*
X8768092Y1032096D01*
X8763205Y1081730D01*
X8763205Y2607925D01*
X8710945Y2655287D01*
X8677643Y2692032D01*
X8648108Y2731855D01*
X8622617Y2774381D01*
X8601418Y2819205D01*
X8584714Y2865888D01*
X8572665Y2913995D01*
X8565392Y2963020D01*
X8562829Y3015313D01*
X8482720Y3058132D01*
X8436230Y3096286D01*
X8429816Y3104124D01*
X8013083Y3520857D01*
X7889620Y3469717D01*
X7889620Y3320014D01*
X7941884Y3272643D01*
X7975182Y3235903D01*
X8004720Y3196075D01*
X8030208Y3153552D01*
X8051404Y3108736D01*
X8068111Y3062047D01*
X8080160Y3013940D01*
X8087434Y2964904D01*
X8089868Y2915380D01*
X8087434Y2865856D01*
X8080160Y2816820D01*
X8068111Y2768713D01*
X8051407Y2722030D01*
X8030208Y2677206D01*
X8004717Y2634680D01*
X7975182Y2594857D01*
X7925000Y2539487D01*
X7925000Y1042142D01*
X8675000Y609117D01*
X8675000Y-609117D01*
X7620000Y-1218239D01*
X6565000Y-609117D01*
X6565000Y609117D01*
X7315000Y1042142D01*
X7315000Y2487067D01*
X7264095Y2524820D01*
X7227356Y2558116D01*
X7194058Y2594857D01*
X7164523Y2634680D01*
X7139032Y2677206D01*
X7117833Y2722030D01*
X7101129Y2768713D01*
X7089080Y2816820D01*
X7081806Y2865856D01*
X7079372Y2915380D01*
X7081806Y2964904D01*
X7089080Y3013940D01*
X7101129Y3062047D01*
X7117833Y3108730D01*
X7139032Y3153554D01*
X7164523Y3196080D01*
X7194058Y3235903D01*
X7227356Y3272643D01*
X7279620Y3320014D01*
X7279620Y3617909D01*
X3727529Y7170000D01*
X2685938Y7170000D01*
X2634798Y7046537D01*
X2851335Y6830000D01*
X3605000Y6830000D01*
X3605000Y5670000D01*
X2395000Y5670000D01*
X2395000Y6423665D01*
X2223463Y6595202D01*
X2100000Y6544062D01*
X2100000Y6350000D01*
X900000Y6350000D01*
D02*
G37*
%LPC*%
G36*
X17400000Y10150000D02*
X17400000Y9650000D01*
X16900000Y9650000D01*
X16900000Y10150000D01*
X17400000Y10150000D01*
D02*
G37*
%LPC*%
G36*
X16700000Y9650000D02*
X16200000Y9650000D01*
X16200000Y10150000D01*
X16700000Y10150000D01*
X16700000Y9650000D01*
D02*
G37*
%LPC*%
G36*
X-17152909Y10004185D02*
X-16702909Y10004185D01*
X-16702909Y9404185D01*
X-17152909Y9404185D01*
X-17152909Y10004185D01*
D02*
G37*
%LPC*%
G36*
X-6225000Y9825000D02*
X-6225000Y9525000D01*
X-7000000Y9525000D01*
X-7000000Y9825000D01*
X-6225000Y9825000D01*
D02*
G37*
%LPC*%
G36*
X16700000Y8850000D02*
X16200000Y8850000D01*
X16200000Y9350000D01*
X16700000Y9350000D01*
X16700000Y8850000D01*
D02*
G37*
%LPC*%
G36*
X17400000Y8850000D02*
X16900000Y8850000D01*
X16900000Y9350000D01*
X17400000Y9350000D01*
X17400000Y8850000D01*
D02*
G37*
%LPC*%
G36*
X-22960000Y7720000D02*
X-23910000Y7720000D01*
X-23910000Y8226231D01*
X-22960000Y8774729D01*
X-22960000Y7720000D01*
D02*
G37*
%LPC*%
G36*
X-21810000Y7720000D02*
X-22760000Y7720000D01*
X-22760000Y8774729D01*
X-21810000Y8226231D01*
X-21810000Y7720000D01*
D02*
G37*
%LPC*%
G36*
X22760000Y7720000D02*
X21810000Y7720000D01*
X21810000Y8226231D01*
X22760000Y8774729D01*
X22760000Y7720000D01*
D02*
G37*
%LPC*%
G36*
X23910000Y7720000D02*
X22960000Y7720000D01*
X22960000Y8774729D01*
X23910000Y8226231D01*
X23910000Y7720000D01*
D02*
G37*
%LPC*%
G36*
X17400000Y8650000D02*
X17400000Y8150000D01*
X16900000Y8150000D01*
X16900000Y8650000D01*
X17400000Y8650000D01*
D02*
G37*
%LPC*%
G36*
X16700000Y8150000D02*
X16200000Y8150000D01*
X16200000Y8650000D01*
X16700000Y8650000D01*
X16700000Y8150000D01*
D02*
G37*
%LPC*%
G36*
X-13502909Y7854185D02*
X-14677909Y7854185D01*
X-14677909Y8429185D01*
X-13502909Y8429185D01*
X-13502909Y7854185D01*
D02*
G37*
%LPC*%
G36*
X-12127909Y7854185D02*
X-13302909Y7854185D01*
X-13302909Y8429185D01*
X-12127909Y8429185D01*
X-12127909Y7854185D01*
D02*
G37*
%LPC*%
G36*
X16700000Y7350000D02*
X16200000Y7350000D01*
X16200000Y7850000D01*
X16700000Y7850000D01*
X16700000Y7350000D01*
D02*
G37*
%LPC*%
G36*
X17400000Y7350000D02*
X16900000Y7350000D01*
X16900000Y7850000D01*
X17400000Y7850000D01*
X17400000Y7350000D01*
D02*
G37*
%LPC*%
G36*
X-12127909Y7654185D02*
X-12127909Y7079185D01*
X-13302909Y7079185D01*
X-13302909Y7654185D01*
X-12127909Y7654185D01*
D02*
G37*
%LPC*%
G36*
X-13502909Y7079185D02*
X-14677909Y7079185D01*
X-14677909Y7654185D01*
X-13502909Y7654185D01*
X-13502909Y7079185D01*
D02*
G37*
%LPC*%
G36*
X23910000Y7520000D02*
X23910000Y7013769D01*
X22960000Y6465271D01*
X22960000Y7520000D01*
X23910000Y7520000D01*
D02*
G37*
%LPC*%
G36*
X22760000Y6465271D02*
X21810000Y7013769D01*
X21810000Y7520000D01*
X22760000Y7520000D01*
X22760000Y6465271D01*
D02*
G37*
%LPC*%
G36*
X-21810000Y7520000D02*
X-21810000Y7013769D01*
X-22760000Y6465271D01*
X-22760000Y7520000D01*
X-21810000Y7520000D01*
D02*
G37*
%LPC*%
G36*
X-22960000Y6465271D02*
X-23910000Y7013769D01*
X-23910000Y7520000D01*
X-22960000Y7520000D01*
X-22960000Y6465271D01*
D02*
G37*
%LPC*%
G36*
X-9600000Y6850000D02*
X-10100000Y6850000D01*
X-10100000Y7325000D01*
X-9600000Y7325000D01*
X-9600000Y6850000D01*
D02*
G37*
%LPC*%
G36*
X-8900000Y6850000D02*
X-9400000Y6850000D01*
X-9400000Y7325000D01*
X-8900000Y7325000D01*
X-8900000Y6850000D01*
D02*
G37*
%LPC*%
G36*
X17400000Y6650000D02*
X16900000Y6650000D01*
X16900000Y7150000D01*
X17400000Y7150000D01*
X17400000Y6650000D01*
D02*
G37*
%LPC*%
G36*
X16700000Y6650000D02*
X16200000Y6650000D01*
X16200000Y7150000D01*
X16700000Y7150000D01*
X16700000Y6650000D01*
D02*
G37*
%LPC*%
G36*
X-9600000Y6175000D02*
X-10100000Y6175000D01*
X-10100000Y6650000D01*
X-9600000Y6650000D01*
X-9600000Y6175000D01*
D02*
G37*
%LPC*%
G36*
X16700000Y5850000D02*
X16200000Y5850000D01*
X16200000Y6350000D01*
X16700000Y6350000D01*
X16700000Y5850000D01*
D02*
G37*
%LPC*%
G36*
X17400000Y5850000D02*
X16900000Y5850000D01*
X16900000Y6350000D01*
X17400000Y6350000D01*
X17400000Y5850000D01*
D02*
G37*
%LPC*%
G36*
X20320000Y-1218239D02*
X19265000Y-609117D01*
X19265000Y609117D01*
X19815000Y926669D01*
X19815000Y2881590D01*
X19823731Y2970239D01*
X19852525Y3065160D01*
X19899283Y3152637D01*
X19961714Y3228711D01*
X19969484Y3235186D01*
X21805000Y5070703D01*
X21805000Y5689117D01*
X22860000Y6298238D01*
X23915000Y5689117D01*
X23915000Y4470883D01*
X22860000Y3861761D01*
X22330266Y4167612D01*
X20825000Y2662345D01*
X20825000Y926669D01*
X21375000Y609117D01*
X21375000Y-609117D01*
X20320000Y-1218239D01*
D02*
G37*
%LPC*%
G36*
X2100000Y6150000D02*
X2100000Y5675000D01*
X1600000Y5675000D01*
X1600000Y6150000D01*
X2100000Y6150000D01*
D02*
G37*
%LPC*%
G36*
X1400000Y5675000D02*
X900000Y5675000D01*
X900000Y6150000D01*
X1400000Y6150000D01*
X1400000Y5675000D01*
D02*
G37*
%LPC*%
G36*
X500000Y6075000D02*
X500000Y5930000D01*
X505000Y5930000D01*
X505000Y5330010D01*
X4871475Y5330010D01*
X4921103Y5325120D01*
X4978497Y5307709D01*
X5031402Y5279431D01*
X5069942Y5247802D01*
X5922793Y4394951D01*
X5954422Y4356411D01*
X5982700Y4303506D01*
X6000111Y4246112D01*
X6005001Y4196484D01*
X6005001Y4068170D01*
X6081034Y4049121D01*
X6127722Y4032415D01*
X6172548Y4011214D01*
X6215069Y3985726D01*
X6254897Y3956190D01*
X6291636Y3922891D01*
X6324934Y3886151D01*
X6354472Y3846323D01*
X6379960Y3803800D01*
X6401156Y3758984D01*
X6417863Y3712295D01*
X6429912Y3664188D01*
X6437186Y3615152D01*
X6439620Y3565628D01*
X6437186Y3516104D01*
X6429912Y3467068D01*
X6417863Y3418961D01*
X6401159Y3372278D01*
X6379960Y3327454D01*
X6354469Y3284928D01*
X6324934Y3245105D01*
X6291632Y3208360D01*
X6239372Y3160998D01*
X6239372Y844295D01*
X6234484Y794672D01*
X6217070Y737272D01*
X6188795Y684372D01*
X6135000Y618824D01*
X6135000Y-609117D01*
X5080000Y-1218239D01*
X4025000Y-609117D01*
X4025000Y659744D01*
X4051921Y624660D01*
X5080000Y1218239D01*
X5529371Y958787D01*
X5629372Y1016522D01*
X5629372Y2269740D01*
X5514206Y2323683D01*
X5459093Y2277758D01*
X3945145Y763811D01*
X4014518Y673404D01*
X3901537Y720202D01*
X3665206Y483871D01*
X3658734Y476104D01*
X3595000Y423798D01*
X3595000Y-609117D01*
X2540000Y-1218239D01*
X1485000Y-609117D01*
X1485000Y609117D01*
X2540000Y1218239D01*
X3035002Y932442D01*
X3115862Y975662D01*
X3173265Y993077D01*
X3222888Y997965D01*
X3316630Y997965D01*
X4945000Y2626335D01*
X4945000Y3035451D01*
X4826051Y3088180D01*
X4745523Y3015198D01*
X4705700Y2985663D01*
X4663174Y2960172D01*
X4618350Y2938973D01*
X4571667Y2922269D01*
X4523560Y2910220D01*
X4474524Y2902946D01*
X4425000Y2900512D01*
X4375476Y2902946D01*
X4326440Y2910220D01*
X4278333Y2922269D01*
X4231644Y2938976D01*
X4186828Y2960172D01*
X4144305Y2985660D01*
X4104477Y3015198D01*
X4067736Y3048496D01*
X4034438Y3085237D01*
X4004903Y3125060D01*
X3979412Y3167586D01*
X3958213Y3212410D01*
X3941509Y3259093D01*
X3929460Y3307200D01*
X3922186Y3356236D01*
X3919752Y3405758D01*
X3923216Y3476211D01*
X3654424Y3745001D01*
X1001336Y3745001D01*
X622241Y3365906D01*
X615767Y3358137D01*
X570003Y3320579D01*
X505000Y3285833D01*
X505000Y3170000D01*
X-70000Y3170000D01*
X-70000Y1258655D01*
X1055000Y609117D01*
X1055000Y-609117D01*
X0Y-1218239D01*
X-1055000Y-609117D01*
X-1055000Y609117D01*
X-680000Y825630D01*
X-680000Y3170000D01*
X-1255000Y3170000D01*
X-1255000Y3465124D01*
X-1428150Y3383235D01*
X-1474833Y3366530D01*
X-1522940Y3354481D01*
X-1571976Y3347207D01*
X-1621500Y3344773D01*
X-1671024Y3347207D01*
X-1720060Y3354481D01*
X-1768167Y3366530D01*
X-1814856Y3383237D01*
X-1859672Y3404433D01*
X-1902195Y3429921D01*
X-1942023Y3459459D01*
X-1978764Y3492757D01*
X-2012062Y3529498D01*
X-2041597Y3569321D01*
X-2067088Y3611847D01*
X-2088287Y3656671D01*
X-2104991Y3703354D01*
X-2117040Y3751461D01*
X-2124314Y3800497D01*
X-2126748Y3850021D01*
X-2124314Y3899545D01*
X-2117039Y3948584D01*
X-2079716Y4097612D01*
X-2260066Y4097612D01*
X-2309699Y4102499D01*
X-2375992Y4122611D01*
X-2907873Y4122611D01*
X-2955235Y4070351D01*
X-2991980Y4037049D01*
X-3031803Y4007514D01*
X-3074329Y3982023D01*
X-3119153Y3960824D01*
X-3165836Y3944120D01*
X-3213943Y3932071D01*
X-3262979Y3924797D01*
X-3312503Y3922363D01*
X-3362027Y3924797D01*
X-3411063Y3932071D01*
X-3459170Y3944120D01*
X-3505859Y3960827D01*
X-3550675Y3982023D01*
X-3593198Y4007511D01*
X-3633026Y4037049D01*
X-3669767Y4070347D01*
X-3703065Y4107088D01*
X-3732600Y4146911D01*
X-3758091Y4189437D01*
X-3779290Y4234261D01*
X-3795994Y4280944D01*
X-3808043Y4329051D01*
X-3815317Y4378087D01*
X-3817751Y4427611D01*
X-3815317Y4477135D01*
X-3808043Y4526171D01*
X-3795994Y4574278D01*
X-3779290Y4620961D01*
X-3758091Y4665785D01*
X-3732600Y4708311D01*
X-3703065Y4748134D01*
X-3669767Y4784874D01*
X-3633028Y4818173D01*
X-3593200Y4847709D01*
X-3550679Y4873197D01*
X-3505853Y4894398D01*
X-3459170Y4911102D01*
X-3411063Y4923151D01*
X-3362027Y4930425D01*
X-3312503Y4932859D01*
X-3262979Y4930425D01*
X-3213943Y4923151D01*
X-3165836Y4911102D01*
X-3119153Y4894398D01*
X-3074327Y4873197D01*
X-3031806Y4847709D01*
X-2991978Y4818173D01*
X-2955239Y4784874D01*
X-2907872Y4732611D01*
X-2264922Y4732611D01*
X-2215299Y4727723D01*
X-2141221Y4705249D01*
X-2050599Y4753688D01*
X-1993205Y4771099D01*
X-1943315Y4776015D01*
X-1705010Y5014321D01*
X-1705010Y5285065D01*
X-1700120Y5334693D01*
X-1682709Y5392087D01*
X-1654431Y5444992D01*
X-1622802Y5483532D01*
X-1358542Y5747792D01*
X-1320003Y5779420D01*
X-1255000Y5814166D01*
X-1255000Y5930000D01*
X-1250000Y5930000D01*
X-1250000Y6075000D01*
X500000Y6075000D01*
D02*
G37*
%LPC*%
G36*
X-20100000Y5350000D02*
X-20600000Y5350000D01*
X-20600000Y5825000D01*
X-20100000Y5825000D01*
X-20100000Y5350000D01*
D02*
G37*
%LPC*%
G36*
X-19400000Y5350000D02*
X-19900000Y5350000D01*
X-19900000Y5825000D01*
X-19400000Y5825000D01*
X-19400000Y5350000D01*
D02*
G37*
%LPC*%
G36*
X16900000Y5650000D02*
X17400000Y5650000D01*
X17400000Y5150000D01*
X16900000Y5150000D01*
X16900000Y5650000D01*
D02*
G37*
%LPC*%
G36*
X-19400000Y4675000D02*
X-19900000Y4675000D01*
X-19900000Y5150000D01*
X-19400000Y5150000D01*
X-19400000Y4675000D01*
D02*
G37*
%LPC*%
G36*
X-20100000Y4675000D02*
X-20600000Y4675000D01*
X-20600000Y5150000D01*
X-20100000Y5150000D01*
X-20100000Y4675000D01*
D02*
G37*
%LPC*%
G36*
X17400000Y3850000D02*
X16900000Y3850000D01*
X16900000Y4350000D01*
X17400000Y4350000D01*
X17400000Y3850000D01*
D02*
G37*
%LPC*%
G36*
X22860000Y1321762D02*
X21805000Y1930883D01*
X21805000Y3149117D01*
X22860000Y3758239D01*
X23915000Y3149117D01*
X23915000Y1930883D01*
X22860000Y1321762D01*
D02*
G37*
%LPC*%
G36*
X17400000Y3150000D02*
X16900000Y3150000D01*
X16900000Y3650000D01*
X17400000Y3650000D01*
X17400000Y3150000D01*
D02*
G37*
%LPC*%
G36*
X16700000Y3150000D02*
X16200000Y3150000D01*
X16200000Y3650000D01*
X16700000Y3650000D01*
X16700000Y3150000D01*
D02*
G37*
%LPC*%
G36*
X-22960000Y100000D02*
X-23910000Y100000D01*
X-23910000Y606231D01*
X-22960000Y1154729D01*
X-22960000Y100000D01*
D02*
G37*
%LPC*%
G36*
X-21810000Y100000D02*
X-22760000Y100000D01*
X-22760000Y1154729D01*
X-21810000Y606231D01*
X-21810000Y100000D01*
D02*
G37*
%LPC*%
G36*
X22760000Y100000D02*
X21810000Y100000D01*
X21810000Y606231D01*
X22760000Y1154729D01*
X22760000Y100000D01*
D02*
G37*
%LPC*%
G36*
X23910000Y100000D02*
X22960000Y100000D01*
X22960000Y1154729D01*
X23910000Y606231D01*
X23910000Y100000D01*
D02*
G37*
%LPC*%
G36*
X22960000Y-1154729D02*
X22960000Y-100000D01*
X23910000Y-100000D01*
X23910000Y-606231D01*
X22960000Y-1154729D01*
D02*
G37*
%LPC*%
G36*
X22760000Y-1154729D02*
X21810000Y-606231D01*
X21810000Y-100000D01*
X22760000Y-100000D01*
X22760000Y-1154729D01*
D02*
G37*
%LPC*%
G36*
X-21810000Y-100000D02*
X-21810000Y-606231D01*
X-22760000Y-1154729D01*
X-22760000Y-100000D01*
X-21810000Y-100000D01*
D02*
G37*
%LPC*%
G36*
X-22960000Y-1154729D02*
X-23910000Y-606231D01*
X-23910000Y-100000D01*
X-22960000Y-100000D01*
X-22960000Y-1154729D01*
D02*
G37*
%LPD*%
G36*
X-21999999Y13300000D02*
X-18795799Y15150000D01*
X-18795799Y18850000D01*
X-20597079Y19890000D01*
X-23402919Y19890000D01*
X-24890000Y19031408D01*
X-24890000Y14968592D01*
X-21999999Y13300000D01*
D02*
G37*
%LPC*%
G36*
X-22000000Y15294874D02*
X-22167133Y15303085D01*
X-22332658Y15327639D01*
X-22494968Y15368296D01*
X-22652523Y15424669D01*
X-22803793Y15496214D01*
X-22947315Y15582238D01*
X-23081723Y15681922D01*
X-23205706Y15794294D01*
X-23318078Y15918277D01*
X-23417762Y16052685D01*
X-23503786Y16196207D01*
X-23575331Y16347477D01*
X-23631704Y16505032D01*
X-23672361Y16667342D01*
X-23696915Y16832867D01*
X-23705126Y17000000D01*
X-23696915Y17167133D01*
X-23672361Y17332658D01*
X-23631704Y17494968D01*
X-23575331Y17652523D01*
X-23503786Y17803793D01*
X-23417762Y17947315D01*
X-23318078Y18081723D01*
X-23205706Y18205706D01*
X-23081723Y18318078D01*
X-22947315Y18417762D01*
X-22803793Y18503786D01*
X-22652523Y18575331D01*
X-22494968Y18631704D01*
X-22332658Y18672361D01*
X-22167133Y18696915D01*
X-22000000Y18705126D01*
X-21832867Y18696915D01*
X-21667342Y18672361D01*
X-21505032Y18631704D01*
X-21347477Y18575331D01*
X-21196207Y18503786D01*
X-21052686Y18417762D01*
X-20918278Y18318078D01*
X-20794294Y18205707D01*
X-20681922Y18081722D01*
X-20582238Y17947314D01*
X-20496214Y17803793D01*
X-20424669Y17652523D01*
X-20368296Y17494968D01*
X-20327639Y17332658D01*
X-20303085Y17167133D01*
X-20294874Y17000000D01*
X-20303085Y16832867D01*
X-20327639Y16667342D01*
X-20368296Y16505032D01*
X-20424669Y16347477D01*
X-20496214Y16196207D01*
X-20582238Y16052685D01*
X-20681922Y15918277D01*
X-20794294Y15794294D01*
X-20918277Y15681922D01*
X-21052685Y15582238D01*
X-21196207Y15496214D01*
X-21347477Y15424669D01*
X-21505032Y15368296D01*
X-21667342Y15327639D01*
X-21832867Y15303085D01*
X-22000000Y15294874D01*
D02*
G37*
%LPD*%
G36*
X22000001Y13300000D02*
X24890000Y14968591D01*
X24890000Y19031409D01*
X23402921Y19890000D01*
X20597081Y19890000D01*
X18795802Y18850000D01*
X18795802Y15150000D01*
X22000001Y13300000D01*
D02*
G37*
%LPC*%
G36*
X22000000Y15294874D02*
X21832867Y15303085D01*
X21667342Y15327639D01*
X21505032Y15368296D01*
X21347477Y15424669D01*
X21196207Y15496214D01*
X21052685Y15582238D01*
X20918277Y15681922D01*
X20794294Y15794294D01*
X20681922Y15918277D01*
X20582238Y16052685D01*
X20496214Y16196207D01*
X20424669Y16347477D01*
X20368296Y16505032D01*
X20327639Y16667342D01*
X20303085Y16832867D01*
X20294874Y17000000D01*
X20303085Y17167133D01*
X20327639Y17332658D01*
X20368296Y17494968D01*
X20424669Y17652523D01*
X20496214Y17803793D01*
X20582238Y17947315D01*
X20681922Y18081723D01*
X20794294Y18205706D01*
X20918277Y18318078D01*
X21052685Y18417762D01*
X21196207Y18503786D01*
X21347477Y18575331D01*
X21505032Y18631704D01*
X21667342Y18672361D01*
X21832867Y18696915D01*
X22000000Y18705126D01*
X22167133Y18696915D01*
X22332658Y18672361D01*
X22494968Y18631704D01*
X22652523Y18575331D01*
X22803793Y18503786D01*
X22947314Y18417762D01*
X23081722Y18318078D01*
X23205706Y18205707D01*
X23318078Y18081722D01*
X23417762Y17947314D01*
X23503786Y17803793D01*
X23575331Y17652523D01*
X23631704Y17494968D01*
X23672361Y17332658D01*
X23696915Y17167133D01*
X23705126Y17000000D01*
X23696915Y16832867D01*
X23672361Y16667342D01*
X23631704Y16505032D01*
X23575331Y16347477D01*
X23503786Y16196207D01*
X23417762Y16052685D01*
X23318078Y15918277D01*
X23205706Y15794294D01*
X23081723Y15681922D01*
X22947315Y15582238D01*
X22803793Y15496214D01*
X22652523Y15424669D01*
X22494968Y15368296D01*
X22332658Y15327639D01*
X22167133Y15303085D01*
X22000000Y15294874D01*
D02*
G37*
G01*
%LPD*%
D15*
X-13302909Y14554185D02*
X-12195815Y14554185D01*
D16*
X5700001Y4186409D02*
X5700001Y3799999D01*
D16*
X-8000000Y6750000D02*
X-8000000Y6250000D01*
D16*
X12500000Y11750000D02*
X10949990Y10199990D01*
D16*
X7584620Y2915380D02*
X7584620Y3744244D01*
D15*
X16222166Y14250000D02*
X17750000Y14250000D01*
D16*
X6399971Y13350029D02*
X6700000Y13050000D01*
D16*
X7125000Y14575000D02*
X7250000Y14450000D01*
D15*
X-13302909Y14554185D02*
X-13302909Y12454185D01*
D16*
X-20000000Y4480029D02*
X-20481616Y3998413D01*
D15*
X-15452895Y5350014D02*
X-13549986Y5350014D01*
D16*
X2050010Y10199990D02*
X6163600Y10199990D01*
D16*
X3853864Y7475000D02*
X400000Y7475000D01*
D15*
X-16152909Y12354185D02*
X-16302909Y12504185D01*
D16*
X-2805701Y7694387D02*
X-1955702Y7694386D01*
D16*
X-5500000Y17560000D02*
X-5090000Y17970000D01*
D16*
X12500000Y7250000D02*
X11285775Y6035775D01*
D15*
X20750000Y11250000D02*
X21770000Y11250000D01*
D16*
X11250000Y13000000D02*
X17250000Y13000000D01*
D16*
X-4199968Y6675032D02*
X-4199968Y10572852D01*
D15*
X-13549986Y5350014D02*
X-12750000Y6150000D01*
D16*
X536420Y8775000D02*
X-375000Y8775000D01*
D16*
X-5350000Y5525000D02*
X-4199968Y6675032D01*
D16*
X-1246521Y4225000D02*
X-1321501Y4150020D01*
D16*
X-1475000Y8775000D02*
X-1250000Y8775000D01*
D16*
X-6125000Y6175000D02*
X-5350000Y6175000D01*
D16*
X550010Y8125000D02*
X-375000Y8125000D01*
D15*
X-17252909Y5000000D02*
X-17002909Y5250000D01*
D16*
X650030Y9425000D02*
X1250000Y8825030D01*
D16*
X-375000Y3575000D02*
X-375000Y375000D01*
D16*
X9620710Y11370710D02*
X11250000Y13000000D01*
D16*
X-6125000Y7475000D02*
X-5350000Y7475000D01*
D16*
X15829991Y1950009D02*
X17780000Y0D01*
D16*
X1663366Y11665164D02*
X1363367Y11965163D01*
D16*
X-1475002Y5849998D02*
X-2312002Y5849998D01*
D16*
X2461992Y12750010D02*
X2761993Y12450009D01*
D15*
X20320000Y2871524D02*
X22528476Y5080000D01*
D16*
X-1775000Y8475000D02*
X-1475000Y8775000D01*
D16*
X7584620Y3744244D02*
X3853864Y7475000D01*
D16*
X5250000Y4000000D02*
X5250000Y2500000D01*
D16*
X7620000Y2880000D02*
X7584620Y2915380D01*
D16*
X2648392Y13200020D02*
X2948393Y12900019D01*
D15*
X-19202909Y10054185D02*
X-18500000Y9351276D01*
D16*
X4244983Y12450009D02*
X5694992Y11000000D01*
D16*
X-8000000Y6750000D02*
X-6200000Y6750000D01*
D16*
X-6125000Y3575000D02*
X-5300000Y2750000D01*
D15*
X-20320000Y0D02*
X-18020010Y2299990D01*
D16*
X-5099990Y10945650D02*
X-4000000Y12045640D01*
D16*
X12700000Y0D02*
X9750000Y2950000D01*
D16*
X-7000000Y15000000D02*
X-6679290Y14679290D01*
D16*
X936202Y12500000D02*
X1186212Y12750010D01*
D16*
X-7150010Y2070010D02*
X-5772965Y692965D01*
D16*
X6149981Y12900019D02*
X6750000Y12300000D01*
D16*
X-5350000Y7475000D02*
X-5099990Y7725010D01*
D16*
X6977179Y8750000D02*
X5977200Y9749979D01*
D16*
X14000000Y3750000D02*
X15200000Y3750000D01*
D16*
X-5350000Y4225000D02*
X-6125000Y4225000D01*
D15*
X22528476Y5080000D02*
X22860000Y5080000D01*
D15*
X-15773619Y3079290D02*
X-15352909Y3500000D01*
D16*
X1250000Y8825030D02*
X4424970Y8825030D01*
D16*
X9280198Y3762564D02*
X8839121Y3762564D01*
D16*
X2948393Y12900019D02*
X6149981Y12900019D01*
D16*
X-7620000Y4130000D02*
X-7620000Y1081524D01*
D15*
X-16302909Y12504185D02*
X-16577899Y12229195D01*
D16*
X-375000Y6175000D02*
X-1150000Y6175000D01*
D16*
X-12700000Y1137002D02*
X-12700000Y1081524D01*
D16*
X-12700000Y1081524D02*
X-12700000Y0D01*
D16*
X413590Y4875000D02*
X563600Y5025010D01*
D16*
X-17780000Y0D02*
X-16280000Y1500000D01*
D16*
X-3312503Y4427611D02*
X-2274999Y4427611D01*
D16*
X-5929077Y14199990D02*
X-5154350Y14199990D01*
D16*
X-16280000Y1500000D02*
X-15500000Y1500000D01*
D16*
X13300010Y4550010D02*
X12500000Y3750000D01*
D16*
X10070710Y9070710D02*
X9750000Y8750000D01*
D16*
X7620000Y1081524D02*
X7620000Y0D01*
D16*
X6436300Y7950110D02*
X10700009Y3686401D01*
D16*
X-6125000Y8125000D02*
X-10087002Y8125000D01*
D16*
X550010Y5025010D02*
X525000Y5000000D01*
D16*
X7950000Y11000000D02*
X8320710Y11370710D01*
D16*
X14000000Y8750000D02*
X15200000Y8750000D01*
D16*
X8652721Y3312554D02*
X4040265Y7925010D01*
D16*
X12130574Y5380574D02*
X12130574Y5181240D01*
D15*
X-20790805Y12229195D02*
X-22860000Y10160000D01*
D16*
X875001Y4050001D02*
X400000Y3575000D01*
D16*
X1186212Y12750010D02*
X2461992Y12750010D01*
D16*
X10700009Y3686401D02*
X10700010Y3272810D01*
D16*
X11950010Y9700010D02*
X12500000Y10250000D01*
D16*
X-3299947Y6275053D02*
X-5350000Y4225000D01*
D16*
X-10725000Y13275000D02*
X-10500000Y13500000D01*
D15*
X-15352909Y3500000D02*
X-15352909Y5000000D01*
D16*
X8875000Y15750000D02*
X8875000Y14575000D01*
D16*
X10250000Y3086410D02*
X11836410Y1500000D01*
D16*
X-2550000Y0D02*
X-2540000Y0D01*
D15*
X-15452895Y5436402D02*
X-15452895Y5250000D01*
D15*
X-12195815Y14554185D02*
X-11250000Y15500000D01*
D16*
X14000000Y10250000D02*
X15200000Y10250000D01*
D16*
X749802Y12950010D02*
X999812Y13200020D01*
D16*
X9068205Y1091795D02*
X10160000Y0D01*
D16*
X525000Y5000000D02*
X538590Y5000000D01*
D16*
X-8000000Y6250000D02*
X-8500000Y5750000D01*
D16*
X-375000Y8775000D02*
X-1250000Y8775000D01*
D15*
X-17252909Y3500000D02*
X-17252909Y5000000D01*
D16*
X-375000Y375000D02*
X0Y0D01*
D16*
X9750000Y8750000D02*
X6977179Y8750000D01*
D16*
X-2805701Y6343697D02*
X-2805701Y7694387D01*
D16*
X4425000Y3405760D02*
X3780759Y4050001D01*
D16*
X-1400010Y4887986D02*
X-1400010Y5274990D01*
D16*
X-10500000Y15760000D02*
X-12710000Y17970000D01*
D15*
X-21012965Y3232965D02*
X-22167035Y4387035D01*
D15*
X-15452895Y5350014D02*
X-15452895Y5099986D01*
D16*
X-5300000Y2750000D02*
X-2750000Y2750000D01*
D16*
X-2312002Y5849998D02*
X-2805701Y6343697D01*
D16*
X6163600Y10199990D02*
X6663580Y9700010D01*
D16*
X-15602909Y5286388D02*
X-15452895Y5436402D01*
D16*
X-9712001Y4125001D02*
X-12700000Y1137002D01*
D16*
X-3299946Y10200054D02*
X-3299947Y6275053D01*
D16*
X-8550000Y3888590D02*
X-8550000Y1610000D01*
D16*
X2849970Y13650030D02*
X3149971Y13350029D01*
D16*
X-6844992Y4225000D02*
X-7150010Y3919982D01*
D16*
X400000Y4225000D02*
X750000Y4575000D01*
D16*
X400000Y6825000D02*
X550010Y6975010D01*
D16*
X-6125000Y3575000D02*
X-2550000Y0D01*
D16*
X-5154350Y14199990D02*
X-3500000Y12545640D01*
D16*
X5977200Y9749979D02*
X1750020Y9749980D01*
D16*
X-10500000Y13500000D02*
X-10500000Y15760000D01*
D16*
X-375000Y4225000D02*
X-1246521Y4225000D01*
D16*
X-1150000Y6175000D02*
X-1475002Y5849998D01*
D16*
X12500000Y5750000D02*
X12130574Y5380574D01*
D16*
X4040265Y7925010D02*
X750001Y7925010D01*
D16*
X9537426Y4212574D02*
X10250000Y3500000D01*
D16*
X-14802909Y14554185D02*
X-16552909Y14554185D01*
D16*
X-1873408Y5451592D02*
X-1873408Y5375107D01*
D16*
X2328530Y11000000D02*
X1663366Y11665164D01*
D16*
X16183344Y4655531D02*
X16155531Y4655531D01*
D16*
X4675000Y4575000D02*
X5250000Y4000000D01*
D16*
X-15602909Y5250000D02*
X-15552909Y5250000D01*
D16*
X2554290Y6695710D02*
X3000000Y6250000D01*
D16*
X250000Y12000000D02*
X2050010Y10199990D01*
D16*
X-375000Y6825000D02*
X400000Y6825000D01*
D16*
X-19999294Y19000000D02*
X-20161171Y18838123D01*
D16*
X9750000Y3292762D02*
X9280198Y3762564D01*
D16*
X400000Y3575000D02*
X-375000Y3575000D01*
D16*
X-1825000Y6825000D02*
X-1975000Y6675000D01*
D16*
X8000000Y12300000D02*
X8750000Y13050000D01*
D15*
X-13402909Y12354185D02*
X-16152909Y12354185D01*
D16*
X-8949999Y4125001D02*
X-9712001Y4125001D01*
D16*
X3050000Y11000000D02*
X2328530Y11000000D01*
D16*
X-2274999Y4427611D02*
X-2250000Y4402612D01*
D16*
X15200000Y5750000D02*
X14000000Y5750000D01*
D16*
X-2001879Y4402612D02*
X-1933502Y4470989D01*
D16*
X6750000Y12300000D02*
X8000000Y12300000D01*
D16*
X-1150000Y5525000D02*
X-375000Y5525000D01*
D16*
X9750000Y2950000D02*
X9750000Y3292762D01*
D15*
X-15400000Y7650000D02*
X-15400000Y5302895D01*
D16*
X6800010Y10199990D02*
X6550000Y10450000D01*
D16*
X-1817007Y4470989D02*
X-1400010Y4887986D01*
D16*
X-2136410Y12000000D02*
X250000Y12000000D01*
D16*
X-2645620Y13400020D02*
X563402Y13400020D01*
D16*
X-2272820Y12500000D02*
X936202Y12500000D01*
D16*
X-925010Y9425000D02*
X-1625010Y10125000D01*
D16*
X7620000Y0D02*
X7620000Y2880000D01*
D16*
X-4000000Y12045640D02*
X-3500000Y12545640D01*
D16*
X14000000Y11750000D02*
X15200000Y11750000D01*
D16*
X5694992Y11000000D02*
X6550000Y11000000D01*
D16*
X6663580Y9700010D02*
X11950010Y9700010D01*
D16*
X-2000000Y11500000D02*
X-3299946Y10200054D01*
D16*
X-7150010Y3919982D02*
X-7150010Y2070010D01*
D16*
X-10712002Y5537998D02*
X-15240000Y1010000D01*
D16*
X-15240000Y1010000D02*
X-15240000Y0D01*
D16*
X11285775Y6035775D02*
X11285775Y5275239D01*
D15*
X-15352909Y10104185D02*
X-13952909Y10104185D01*
D16*
X8839121Y3762564D02*
X4226665Y8375020D01*
D16*
X-10160000Y0D02*
X-8550000Y1610000D01*
D16*
X8320710Y11370710D02*
X9620710Y11370710D01*
D16*
X-4649979Y10759251D02*
X-2459220Y12950010D01*
D16*
X-3500000Y12545640D02*
X-2645620Y13400020D01*
D16*
X4861400Y5025010D02*
X5700001Y4186409D01*
D16*
X-625000Y16875000D02*
X-500000Y17000000D01*
D15*
X20320000Y0D02*
X20320000Y2871524D01*
D16*
X6249989Y7950110D02*
X6436300Y7950110D01*
D16*
X-625000Y15750000D02*
X-625000Y16875000D01*
D16*
X-6900000Y6175000D02*
X-8949999Y4125001D01*
D16*
X16625000Y15750000D02*
X16625000Y16875000D01*
D16*
X750001Y7925010D02*
X550010Y8125000D01*
D16*
X-20000000Y5250000D02*
X-20000000Y4480029D01*
D16*
X-3749957Y10386453D02*
X-2136410Y12000000D01*
D15*
X-18020010Y2299990D02*
X-16552919Y2299990D01*
D16*
X4204805Y6204805D02*
X4504804Y5904806D01*
D15*
X-13302909Y12454185D02*
X-13402909Y12354185D01*
D15*
X-20320000Y0D02*
X-21012965Y692965D01*
D15*
X-22167035Y4387035D02*
X-22860000Y5080000D01*
D16*
X-15602909Y5250000D02*
X-15602909Y5286388D01*
D15*
X-15400000Y5302895D02*
X-15452895Y5250000D01*
D16*
X936400Y8375020D02*
X536420Y8775000D01*
D16*
X750000Y4575000D02*
X4675000Y4575000D01*
D16*
X-1321501Y4150020D02*
X-1621500Y3850021D01*
D16*
X5080000Y0D02*
X5934372Y854372D01*
D16*
X16155531Y4655531D02*
X16050010Y4550010D01*
D16*
X5250000Y2500000D02*
X3442965Y692965D01*
D16*
X0Y11500000D02*
X-2000000Y11500000D01*
D16*
X400000Y4875000D02*
X-375000Y4875000D01*
D16*
X10250000Y3500000D02*
X10250000Y3086410D01*
D16*
X19750000Y10500000D02*
X19750000Y5000000D01*
D16*
X1750020Y9749980D02*
X0Y11500000D01*
D16*
X-6875000Y4875000D02*
X-7620000Y4130000D01*
D16*
X-11162012Y7686400D02*
X-10073412Y8775000D01*
D16*
X20001058Y19000000D02*
X20162054Y18839004D01*
D16*
X4450000Y11000000D02*
X4450000Y11550000D01*
D16*
X563402Y13400020D02*
X813412Y13650030D01*
D16*
X10700010Y3272810D02*
X12022811Y1950009D01*
D16*
X-5350000Y6175000D02*
X-4649979Y6875021D01*
D16*
X-6125000Y5525000D02*
X-5350000Y5525000D01*
D15*
X17750000Y14250000D02*
X20750000Y11250000D01*
D16*
X3780759Y4050001D02*
X875001Y4050001D01*
D16*
X16625000Y16875000D02*
X16750000Y17000000D01*
D16*
X-1150000Y6175000D02*
X-1873408Y5451592D01*
D15*
X-18500000Y5250000D02*
X-17002909Y5250000D01*
D16*
X4450000Y11550000D02*
X4000000Y12000000D01*
D16*
X4000000Y12000000D02*
X2250000Y12000000D01*
D16*
X12179290Y9070710D02*
X10070710Y9070710D01*
D16*
X550010Y6975010D02*
X2274990Y6975010D01*
D16*
X6750000Y3772820D02*
X6750000Y2500000D01*
D16*
X9037426Y4212574D02*
X9537426Y4212574D01*
D16*
X-375000Y4225000D02*
X400000Y4225000D01*
D16*
X-11162012Y5837988D02*
X-11162012Y7686400D01*
D16*
X12500000Y8750000D02*
X12179290Y9070710D01*
D15*
X-16577899Y12229195D02*
X-20790805Y12229195D01*
D16*
X8875000Y14575000D02*
X8750000Y14450000D01*
D16*
X-1873408Y5375107D02*
X-2173407Y5075108D01*
D15*
X-21012965Y692965D02*
X-21012965Y3232965D01*
D15*
X12502166Y17970000D02*
X16222166Y14250000D01*
D16*
X10949990Y10199990D02*
X6800010Y10199990D01*
D15*
X21770000Y11250000D02*
X22860000Y10160000D01*
D16*
X3442965Y692965D02*
X3232965Y692965D01*
D16*
X3149971Y13350029D02*
X6399971Y13350029D01*
D16*
X17250000Y13000000D02*
X19750000Y10500000D01*
D15*
X-16448619Y11199895D02*
X-18057199Y11199895D01*
D16*
X-375000Y4875000D02*
X413590Y4875000D01*
D16*
X5949990Y8250109D02*
X6249989Y7950110D01*
D16*
X-375000Y6825000D02*
X-1825000Y6825000D01*
D16*
X-5500000Y15000000D02*
X-5500000Y17560000D01*
D16*
X4504804Y5904806D02*
X4618014Y5904806D01*
D16*
X-2459220Y12950010D02*
X749802Y12950010D01*
D15*
X-15352909Y10104185D02*
X-16448619Y11199895D01*
D16*
X-6408377Y14679290D02*
X-5929077Y14199990D01*
D16*
X-1933502Y4470989D02*
X-1817007Y4470989D01*
D15*
X-18057199Y11199895D02*
X-19202909Y10054185D01*
D16*
X-4199968Y10572852D02*
X-2272820Y12500000D01*
D15*
X-18500000Y9351276D02*
X-18500000Y5250000D01*
D16*
X-5772965Y692965D02*
X-5080000Y0D01*
D16*
X-7620000Y1081524D02*
X-7620000Y0D01*
D16*
X-5350000Y4875000D02*
X-3749957Y6475043D01*
D15*
X-2550000Y17970000D02*
X12502166Y17970000D01*
D16*
X4424970Y8825030D02*
X9037426Y4212574D01*
D15*
X-15352909Y5000000D02*
X-15452895Y5099986D01*
D16*
X813412Y13650030D02*
X2849970Y13650030D01*
D16*
X-17252909Y9002909D02*
X-17250000Y9000000D01*
D16*
X999812Y13200020D02*
X2648392Y13200020D01*
D16*
X-1400010Y5274990D02*
X-1150000Y5525000D01*
D15*
X-16552919Y2299990D02*
X-15773619Y3079290D01*
D16*
X400000Y7475000D02*
X-375000Y7475000D01*
D16*
X-2250000Y4402612D02*
X-2001879Y4402612D01*
D16*
X5700001Y3799999D02*
X5934372Y3565628D01*
D16*
X3232965Y692965D02*
X2540000Y0D01*
D16*
X5934372Y854372D02*
X5934372Y3141364D01*
D15*
X-13952909Y10104185D02*
X-13402909Y10054185D01*
D16*
X12022811Y1950009D02*
X15829991Y1950009D01*
D16*
X18450000Y19000000D02*
X20001058Y19000000D01*
D16*
X525000Y5000000D02*
X400000Y4875000D01*
D16*
X-3749957Y6475043D02*
X-3749957Y10386453D01*
D16*
X-6200000Y6750000D02*
X-6125000Y6825000D01*
D16*
X5934372Y3141364D02*
X5934372Y3565628D01*
D16*
X6700000Y13050000D02*
X7250000Y13050000D01*
D16*
X8768206Y3312554D02*
X8652721Y3312554D01*
D16*
X13740000Y1500000D02*
X15240000Y0D01*
D16*
X-15500000Y1500000D02*
X-11162012Y5837988D01*
D16*
X2761993Y12450009D02*
X4244983Y12450009D01*
D16*
X563600Y5025010D02*
X4861400Y5025010D01*
D16*
X6550000Y10450000D02*
X6550000Y11000000D01*
D16*
X9068205Y3012555D02*
X9068205Y1091795D01*
D16*
X4226665Y8375020D02*
X936400Y8375020D01*
D16*
X11285775Y5275239D02*
X11285775Y4850975D01*
D16*
X-10073412Y8775000D02*
X-6125000Y8775000D01*
D16*
X-10087002Y8125000D02*
X-10712002Y7500000D01*
D16*
X14000000Y7250000D02*
X15200000Y7250000D01*
D16*
X-6913590Y5525000D02*
X-8550000Y3888590D01*
D16*
X-6125000Y4225000D02*
X-6844992Y4225000D01*
D16*
X-18450000Y19000000D02*
X-19999294Y19000000D01*
D16*
X-7000000Y17340000D02*
X-7630000Y17970000D01*
D16*
X4618014Y5904806D02*
X6750000Y3772820D01*
D16*
X2274990Y6975010D02*
X2554290Y6695710D01*
D16*
X-7000000Y15000000D02*
X-7000000Y17340000D01*
D16*
X-6679290Y14679290D02*
X-6408377Y14679290D01*
D16*
X-375000Y9425000D02*
X650030Y9425000D01*
D16*
X-6125000Y4875000D02*
X-6875000Y4875000D01*
D16*
X12130574Y5181240D02*
X12130574Y4756976D01*
D16*
X9068205Y3012555D02*
X8768206Y3312554D01*
D16*
X-6125000Y6175000D02*
X-6900000Y6175000D01*
D16*
X-5099990Y7725010D02*
X-5099990Y10945650D01*
D16*
X-6125000Y4875000D02*
X-5350000Y4875000D01*
D16*
X-6125000Y5525000D02*
X-6913590Y5525000D01*
D16*
X-10725000Y13225000D02*
X-10725000Y13275000D01*
D16*
X4861400Y5025010D02*
X550010Y5025010D01*
D16*
X-375000Y9425000D02*
X-925010Y9425000D01*
D16*
X-9958223Y17758223D02*
X-10170000Y17970000D01*
D16*
X7125000Y15750000D02*
X7125000Y14575000D01*
D16*
X-15552909Y5250000D02*
X-15452895Y5350014D01*
D16*
X-9958223Y12011202D02*
X-9958223Y17758223D01*
D16*
X-4649979Y6875021D02*
X-4649979Y10759251D01*
D16*
X11836410Y1500000D02*
X13740000Y1500000D01*
D16*
X-17252909Y10104185D02*
X-17252909Y9002909D01*
D16*
X16050010Y4550010D02*
X13300010Y4550010D01*
D16*
X-10712002Y7500000D02*
X-10712002Y5537998D01*
G75*
D10*
X-16510000Y-8890000D03*
D10*
X21590000Y-19050000D03*
D11*
X17780000Y-17780000D03*
D10*
X19050000Y-26670000D03*
D10*
X-11430000Y-3810000D03*
D11*
X22860000Y-5080000D03*
D11*
X12700000Y-17780000D03*
D11*
X-15240000Y-12700000D03*
D11*
X-7620000Y-12700000D03*
D11*
X12700000Y-20320000D03*
D12*
X11430000Y-29210000D03*
D10*
X11430000Y-13970000D03*
D11*
X7620000Y-27940000D03*
D12*
X-13970000Y-29210000D03*
D10*
X3810000Y-8890000D03*
D10*
X-3810000Y-13970000D03*
D11*
X-17780000Y-5080000D03*
D12*
X-3810000Y-29210000D03*
D13*
X-24130000Y-6350000D03*
D11*
X10160000Y-7620000D03*
D10*
X-3810000Y-11430000D03*
D10*
X-8890000Y-21590000D03*
D10*
X13970000Y-16510000D03*
D11*
X7620000Y-15240000D03*
D10*
X16510000Y-8890000D03*
D10*
X-1270000Y-21590000D03*
D10*
X21590000Y-8890000D03*
D10*
X19050000Y-16510000D03*
D10*
X-8890000Y-13970000D03*
D12*
X21590000Y-24130000D03*
D11*
X-10160000Y-20320000D03*
D10*
X8890000Y-13970000D03*
D11*
X-20320000Y-12700000D03*
D11*
X12700000Y-25400000D03*
D10*
X-16510000Y-19050000D03*
D11*
X-12700000Y-12700000D03*
D11*
X22860000Y-10160000D03*
D10*
X-3810000Y-8890000D03*
D10*
X19050000Y-11430000D03*
D10*
X-11430000Y-24130000D03*
D11*
X12700000Y-27940000D03*
D10*
X13970000Y-26670000D03*
D10*
X-6350000Y-16510000D03*
D11*
X10160000Y-10160000D03*
D10*
X-13970000Y-13970000D03*
D10*
X-8890000Y-24130000D03*
D10*
X-1270000Y-26670000D03*
D11*
X20320000Y-10160000D03*
D11*
X20320000Y-17780000D03*
D10*
X6350000Y-6350000D03*
D11*
X22860000Y-22860000D03*
D10*
X24130000Y-8890000D03*
D11*
X-10160000Y-5080000D03*
D10*
X24130000Y-16510000D03*
D10*
X19050000Y-21590000D03*
D10*
X3810000Y-19050000D03*
D11*
X0Y-25400000D03*
D11*
X5080000Y-7620000D03*
D11*
X-17780000Y-12700000D03*
D10*
X8890000Y-21590000D03*
D10*
X-3810000Y-3810000D03*
D11*
X-22860000Y-10160000D03*
D10*
X-16510000Y-6350000D03*
D10*
X-6350000Y-19050000D03*
D10*
X-13970000Y-24130000D03*
D10*
X-8890000Y-19050000D03*
D10*
X3810000Y-16510000D03*
D11*
X-20320000Y-15240000D03*
D11*
X10160000Y-12700000D03*
D12*
X-1270000Y-29210000D03*
D10*
X1270000Y-8890000D03*
D12*
X6350000Y-29210000D03*
D11*
X-5080000Y-5080000D03*
D10*
X-6350000Y-21590000D03*
D11*
X17780000Y-12700000D03*
D11*
X-15240000Y-15240000D03*
D11*
X7620000Y-5080000D03*
D11*
X-12700000Y-10160000D03*
D10*
X-1270000Y-3810000D03*
D10*
X-8890000Y-8890000D03*
D11*
X10160000Y-22860000D03*
D11*
X2540000Y-22860000D03*
D11*
X-12700000Y-22860000D03*
D11*
X-20320000Y-10160000D03*
D10*
X-13970000Y-8890000D03*
D10*
X-21590000Y-6350000D03*
D11*
X20320000Y-20320000D03*
D11*
X-5080000Y-7620000D03*
D11*
X17780000Y-7620000D03*
D12*
X-8890000Y-29210000D03*
D11*
X-2540000Y-20320000D03*
D11*
X-7620000Y-22860000D03*
D11*
X22860000Y-17780000D03*
D11*
X-5080000Y-20320000D03*
D10*
X-11430000Y-6350000D03*
D10*
X-3810000Y-19050000D03*
D13*
X-24130000Y-8890000D03*
D11*
X5080000Y-20320000D03*
D11*
X5080000Y-27940000D03*
D11*
X20320000Y-22860000D03*
D11*
X-10160000Y-10160000D03*
D10*
X16510000Y-21590000D03*
D11*
X17780000Y-5080000D03*
D11*
X20320000Y-12700000D03*
D10*
X-6350000Y-8890000D03*
D11*
X2540000Y-12700000D03*
D11*
X-12700000Y-15240000D03*
D11*
X-17780000Y-17780000D03*
D10*
X13970000Y-3810000D03*
D11*
X-12700000Y-5080000D03*
D10*
X3810000Y-26670000D03*
D10*
X-8890000Y-26670000D03*
D11*
X-15240000Y-27940000D03*
D10*
X-11430000Y-26670000D03*
D11*
X-7620000Y-27940000D03*
D10*
X6350000Y-3810000D03*
D11*
X5080000Y-17780000D03*
D10*
X-3810000Y-6350000D03*
D10*
X13970000Y-24130000D03*
D10*
X-19050000Y-3810000D03*
D11*
X-22860000Y-12700000D03*
D11*
X-5080000Y-25400000D03*
D11*
X-17780000Y-7620000D03*
D11*
X-20320000Y-5080000D03*
D10*
X-16510000Y-21590000D03*
D11*
X-15240000Y-25400000D03*
D10*
X24130000Y-21590000D03*
D10*
X8890000Y-6350000D03*
D10*
X-6350000Y-6350000D03*
D10*
X8890000Y-26670000D03*
D11*
X-15240000Y-20320000D03*
D11*
X-20320000Y-22860000D03*
D10*
X6350000Y-13970000D03*
D10*
X-1270000Y-8890000D03*
D11*
X7620000Y-22860000D03*
D11*
X-22860000Y-5080000D03*
D10*
X-13970000Y-11430000D03*
D11*
X-2540000Y-5080000D03*
D11*
X15240000Y-7620000D03*
D11*
X-2540000Y-25400000D03*
D11*
X-10160000Y-25400000D03*
D11*
X-17780000Y-25400000D03*
D12*
X3810000Y-29210000D03*
D11*
X0Y-5080000D03*
D10*
X13970000Y-11430000D03*
D11*
X15240000Y-27940000D03*
D11*
X12700000Y-5080000D03*
D11*
X-7620000Y-10160000D03*
D10*
X11430000Y-3810000D03*
D10*
X-6350000Y-11430000D03*
D10*
X3810000Y-6350000D03*
D12*
X24130000Y-24130000D03*
D10*
X-3810000Y-26670000D03*
D11*
X17780000Y-27940000D03*
D11*
X2540000Y-27940000D03*
D12*
X19050000Y-29210000D03*
D10*
X-6350000Y-3810000D03*
D10*
X-11430000Y-8890000D03*
D10*
X21590000Y-11430000D03*
D10*
X-21590000Y-11430000D03*
D10*
X11430000Y-6350000D03*
D11*
X-10160000Y-27940000D03*
D10*
X16510000Y-16510000D03*
D11*
X7620000Y-7620000D03*
D10*
X1270000Y-16510000D03*
D10*
X-3810000Y-16510000D03*
D10*
X-6350000Y-26670000D03*
D11*
X-7620000Y-17780000D03*
D11*
X-15240000Y-7620000D03*
D10*
X1270000Y-11430000D03*
D11*
X-5080000Y-22860000D03*
D13*
X-24130000Y-3810000D03*
D11*
X-10160000Y-15240000D03*
D11*
X17780000Y-20320000D03*
D11*
X15240000Y-25400000D03*
D11*
X10160000Y-27940000D03*
D10*
X16510000Y-26670000D03*
D10*
X-8890000Y-3810000D03*
D10*
X21590000Y-16510000D03*
D11*
X12700000Y-10160000D03*
D10*
X-13970000Y-21590000D03*
D11*
X22860000Y-20320000D03*
D10*
X1270000Y-26670000D03*
D10*
X-8890000Y-16510000D03*
D10*
X-1270000Y-6350000D03*
D11*
X7620000Y-17780000D03*
D11*
X10160000Y-17780000D03*
D12*
X-6350000Y-29210000D03*
D13*
X-24130000Y-21590000D03*
D10*
X16510000Y-3810000D03*
D11*
X0Y-12700000D03*
D10*
X19050000Y-13970000D03*
D10*
X-13970000Y-3810000D03*
D11*
X-7620000Y-5080000D03*
D11*
X-10160000Y-7620000D03*
D10*
X24130000Y-19050000D03*
D10*
X-11430000Y-16510000D03*
D13*
X-24130000Y-11430000D03*
D11*
X-17780000Y-10160000D03*
D11*
X-15240000Y-22860000D03*
D10*
X8890000Y-16510000D03*
D11*
X-10160000Y-12700000D03*
D10*
X13970000Y-6350000D03*
D10*
X-1270000Y-13970000D03*
D10*
X-16510000Y-11430000D03*
D11*
X15240000Y-15240000D03*
D11*
X-2540000Y-22860000D03*
D10*
X-19050000Y-13970000D03*
D10*
X1270000Y-6350000D03*
D11*
X12700000Y-22860000D03*
D11*
X20320000Y-5080000D03*
D10*
X6350000Y-24130000D03*
D10*
X-19050000Y-21590000D03*
D11*
X22860000Y-7620000D03*
D11*
X15240000Y-20320000D03*
D10*
X-21590000Y-13970000D03*
D11*
X10160000Y-15240000D03*
D11*
X0Y-17780000D03*
D10*
X-16510000Y-16510000D03*
D11*
X-15240000Y-10160000D03*
D11*
X5080000Y-15240000D03*
D10*
X6350000Y-8890000D03*
D11*
X2540000Y-17780000D03*
D10*
X-1270000Y-24130000D03*
D10*
X-11430000Y-21590000D03*
D10*
X1270000Y-3810000D03*
D10*
X11430000Y-11430000D03*
D10*
X16510000Y-24130000D03*
D11*
X-22860000Y-7620000D03*
D11*
X0Y-22860000D03*
D10*
X-16510000Y-3810000D03*
D10*
X8890000Y-3810000D03*
D10*
X21590000Y-6350000D03*
D10*
X-11430000Y-19050000D03*
D11*
X5080000Y-12700000D03*
D11*
X17780000Y-15240000D03*
D10*
X-13970000Y-16510000D03*
D11*
X0Y-20320000D03*
D11*
X2540000Y-15240000D03*
D10*
X6350000Y-19050000D03*
D11*
X-2540000Y-27940000D03*
D11*
X-2540000Y-12700000D03*
D10*
X3810000Y-13970000D03*
D10*
X-13970000Y-6350000D03*
D10*
X16510000Y-19050000D03*
D11*
X22860000Y-15240000D03*
D11*
X-7620000Y-15240000D03*
D10*
X8890000Y-19050000D03*
D11*
X2540000Y-10160000D03*
D10*
X-21590000Y-19050000D03*
D11*
X-12700000Y-7620000D03*
D10*
X-21590000Y-3810000D03*
D10*
X-6350000Y-13970000D03*
D11*
X5080000Y-22860000D03*
D11*
X-10160000Y-17780000D03*
D10*
X19050000Y-19050000D03*
D12*
X-11430000Y-29210000D03*
D10*
X19050000Y-24130000D03*
D10*
X13970000Y-21590000D03*
D11*
X2540000Y-7620000D03*
D10*
X-16510000Y-24130000D03*
D11*
X10160000Y-25400000D03*
D10*
X-13970000Y-26670000D03*
D10*
X-21590000Y-8890000D03*
D10*
X21590000Y-3810000D03*
D10*
X-1270000Y-16510000D03*
D12*
X-21590000Y-24130000D03*
D11*
X0Y-10160000D03*
D10*
X3810000Y-11430000D03*
D10*
X-3810000Y-24130000D03*
D11*
X-2540000Y-10160000D03*
D12*
X-16510000Y-29210000D03*
D11*
X15240000Y-22860000D03*
D11*
X-12700000Y-25400000D03*
D11*
X-7620000Y-20320000D03*
D11*
X-17780000Y-27940000D03*
D11*
X-7620000Y-25400000D03*
D10*
X11430000Y-16510000D03*
D10*
X-19050000Y-19050000D03*
D10*
X1270000Y-24130000D03*
D10*
X21590000Y-13970000D03*
D11*
X-5080000Y-15240000D03*
D10*
X6350000Y-11430000D03*
D10*
X6350000Y-21590000D03*
D11*
X-2540000Y-15240000D03*
D10*
X-1270000Y-19050000D03*
D11*
X-20320000Y-20320000D03*
D10*
X6350000Y-26670000D03*
D10*
X13970000Y-13970000D03*
D10*
X24130000Y-11430000D03*
D10*
X-19050000Y-6350000D03*
D11*
X15240000Y-10160000D03*
D10*
X-11430000Y-11430000D03*
D10*
X8890000Y-11430000D03*
D10*
X-8890000Y-6350000D03*
D10*
X6350000Y-16510000D03*
D11*
X2540000Y-5080000D03*
D11*
X-12700000Y-17780000D03*
D10*
X-8890000Y-11430000D03*
D13*
X-19050000Y-26670000D03*
D10*
X-19050000Y-24130000D03*
D10*
X-21590000Y-16510000D03*
D10*
X-13970000Y-19050000D03*
D10*
X1270000Y-19050000D03*
D10*
X-6350000Y-24130000D03*
D11*
X-20320000Y-7620000D03*
D10*
X11430000Y-24130000D03*
D10*
X-19050000Y-8890000D03*
D10*
X13970000Y-8890000D03*
D11*
X12700000Y-12700000D03*
D10*
X-19050000Y-16510000D03*
D13*
X-24130000Y-13970000D03*
D11*
X-5080000Y-10160000D03*
D11*
X7620000Y-20320000D03*
D11*
X5080000Y-10160000D03*
D11*
X-17780000Y-20320000D03*
D11*
X20320000Y-15240000D03*
D11*
X-7620000Y-7620000D03*
D11*
X17780000Y-10160000D03*
D11*
X12700000Y-7620000D03*
D10*
X19050000Y-3810000D03*
D11*
X-5080000Y-12700000D03*
D11*
X-12700000Y-27940000D03*
D10*
X24130000Y-3810000D03*
D10*
X19050000Y-6350000D03*
D10*
X11430000Y-19050000D03*
D11*
X-15240000Y-5080000D03*
D11*
X7620000Y-25400000D03*
D11*
X-17780000Y-15240000D03*
D11*
X5080000Y-5080000D03*
D11*
X22860000Y-12700000D03*
D13*
X-24130000Y-19050000D03*
D10*
X1270000Y-21590000D03*
D11*
X-12700000Y-20320000D03*
D10*
X-1270000Y-11430000D03*
D10*
X-21590000Y-21590000D03*
D11*
X17780000Y-25400000D03*
D11*
X7620000Y-12700000D03*
D11*
X-2540000Y-17780000D03*
D11*
X0Y-7620000D03*
D11*
X-22860000Y-15240000D03*
D10*
X24130000Y-13970000D03*
D10*
X11430000Y-8890000D03*
D11*
X0Y-15240000D03*
D10*
X1270000Y-13970000D03*
D11*
X15240000Y-5080000D03*
D10*
X16510000Y-6350000D03*
D10*
X11430000Y-26670000D03*
D10*
X24130000Y-6350000D03*
D11*
X-22860000Y-22860000D03*
D11*
X-10160000Y-22860000D03*
D10*
X3810000Y-3810000D03*
D10*
X-16510000Y-13970000D03*
D10*
X13970000Y-19050000D03*
D10*
X21590000Y-21590000D03*
D10*
X-3810000Y-21590000D03*
D11*
X2540000Y-20320000D03*
D11*
X5080000Y-25400000D03*
D10*
X16510000Y-13970000D03*
D10*
X8890000Y-24130000D03*
D11*
X10160000Y-5080000D03*
D14*
X-24130000Y-24130000D03*
D11*
X-20320000Y-17780000D03*
D11*
X-15240000Y-17780000D03*
D11*
X-5080000Y-27940000D03*
D11*
X17780000Y-22860000D03*
D11*
X-5080000Y-17780000D03*
D11*
X7620000Y-10160000D03*
D12*
X13970000Y-29210000D03*
D10*
X-16510000Y-26670000D03*
D11*
X20320000Y-7620000D03*
D12*
X1270000Y-29210000D03*
D10*
X-11430000Y-13970000D03*
D11*
X-22860000Y-20320000D03*
D11*
X15240000Y-17780000D03*
D11*
X-2540000Y-7620000D03*
D11*
X12700000Y-15240000D03*
D10*
X3810000Y-24130000D03*
D10*
X16510000Y-11430000D03*
D10*
X-19050000Y-11430000D03*
D13*
X-24130000Y-16510000D03*
D10*
X3810000Y-21590000D03*
D11*
X-22860000Y-17780000D03*
D11*
X0Y-27940000D03*
D10*
X19050000Y-8890000D03*
D10*
X8890000Y-8890000D03*
D12*
X16510000Y-29210000D03*
D12*
X8890000Y-29210000D03*
D11*
X10160000Y-20320000D03*
D11*
X15240000Y-12700000D03*
D11*
X-17780000Y-22860000D03*
D11*
X2540000Y-25400000D03*
D14*
X-19050000Y-29210000D03*
D10*
X11430000Y-21590000D03*
D17*
X12500000Y5750000D03*
D17*
X14000000Y5750000D03*
D18*
X-19202909Y10054185D03*
D19*
X-13402909Y7754185D03*
D19*
X-13402909Y12354185D03*
D19*
X-13402909Y10054185D03*
D20*
X1500000Y6250000D03*
D20*
X3000000Y6250000D03*
D17*
X12500000Y8750000D03*
D17*
X14000000Y8750000D03*
D17*
X12500000Y7250000D03*
D17*
X14000000Y7250000D03*
D20*
X-20000000Y5250000D03*
D20*
X-18500000Y5250000D03*
D20*
X-9500000Y6750000D03*
D20*
X-8000000Y6750000D03*
D21*
X-17252909Y3500000D03*
D21*
X-15352909Y3500000D03*
D22*
X16800000Y11750000D03*
D22*
X15200000Y11750000D03*
D22*
X16800000Y7250000D03*
D22*
X15200000Y7250000D03*
D23*
X-13302909Y14554185D03*
D23*
X-14802909Y14554185D03*
D24*
X-5500000Y15000000D03*
D24*
X-7000000Y15000000D03*
D25*
X22860000Y2540000D03*
D25*
X22860000Y10160000D03*
D25*
X22860000Y7620000D03*
D25*
X22860000Y5080000D03*
D26*
X-16302909Y12504185D03*
D26*
X-17252909Y10104185D03*
D26*
X-15352909Y10104185D03*
D22*
X16800000Y3750000D03*
D22*
X15200000Y3750000D03*
D22*
X16800000Y8750000D03*
D22*
X15200000Y8750000D03*
D27*
X-17050000Y19000000D03*
D28*
X-18450000Y19000000D03*
D25*
X-22860000Y2540000D03*
D25*
X-22860000Y10160000D03*
D25*
X-22860000Y7620000D03*
D25*
X-22860000Y5080000D03*
D29*
X7250000Y13050000D03*
D30*
X7250000Y14450000D03*
D17*
X12500000Y11750000D03*
D17*
X14000000Y11750000D03*
D22*
X16800000Y5750000D03*
D22*
X15200000Y5750000D03*
D22*
X16800000Y10250000D03*
D22*
X15200000Y10250000D03*
D25*
X-10170000Y17970000D03*
D25*
X-2550000Y17970000D03*
D25*
X-5090000Y17970000D03*
D25*
X-12710000Y17970000D03*
D25*
X-7630000Y17970000D03*
D25*
X-15250000Y17970000D03*
D31*
X6550000Y11000000D03*
D32*
X7950000Y11000000D03*
D33*
X16625000Y15750000D03*
D33*
X8875000Y15750000D03*
D34*
X17050000Y19000000D03*
D35*
X18450000Y19000000D03*
D31*
X3050000Y11000000D03*
D32*
X4450000Y11000000D03*
D36*
X-625000Y15750000D03*
D36*
X7125000Y15750000D03*
D37*
X-6125000Y8125000D03*
D37*
X-6125000Y7475000D03*
D38*
X-375000Y8775000D03*
D38*
X-375000Y6175000D03*
D38*
X-375000Y5525000D03*
D37*
X-6125000Y4225000D03*
D37*
X-6125000Y9425000D03*
D38*
X-375000Y9425000D03*
D37*
X-6125000Y4875000D03*
D37*
X-6125000Y3575000D03*
D37*
X-6125000Y5525000D03*
D38*
X-375000Y8125000D03*
D37*
X-6125000Y6175000D03*
D38*
X-375000Y4225000D03*
D38*
X-375000Y7475000D03*
D38*
X-375000Y3575000D03*
D37*
X-6125000Y6825000D03*
D38*
X-375000Y4875000D03*
D38*
X-375000Y6825000D03*
D37*
X-6125000Y8775000D03*
D39*
X-15240000Y0D03*
D39*
X-7620000Y0D03*
D39*
X20320000Y0D03*
D39*
X0Y0D03*
D39*
X5080000Y0D03*
D39*
X17780000Y0D03*
D39*
X-22860000Y0D03*
D39*
X-20320000Y0D03*
D39*
X-12700000Y0D03*
D39*
X10160000Y0D03*
D39*
X-2540000Y0D03*
D39*
X22860000Y0D03*
D39*
X7620000Y0D03*
D39*
X-5080000Y0D03*
D39*
X2540000Y0D03*
D39*
X15240000Y0D03*
D39*
X12700000Y0D03*
D39*
X-17780000Y0D03*
D39*
X-10160000Y0D03*
D17*
X12500000Y10250000D03*
D17*
X14000000Y10250000D03*
D17*
X12500000Y3750000D03*
D17*
X14000000Y3750000D03*
D31*
X-17002909Y5250000D03*
D32*
X-15602909Y5250000D03*
D29*
X8750000Y13050000D03*
D30*
X8750000Y14450000D03*
D40*
X19488424Y16327714D03*
D41*
X10500000Y8250000D03*
D40*
X-24511576Y16327714D03*
D42*
X5949990Y8250109D03*
D40*
X23838299Y15161347D03*
D43*
X-2750000Y2750000D03*
D40*
X21326750Y14488680D03*
D41*
X-2500000Y10000000D03*
D40*
X-19488550Y17672768D03*
D42*
X-8500000Y5750000D03*
D41*
X13500000Y14250000D03*
D41*
X-2173407Y5075108D03*
D41*
X-16552909Y14554185D03*
D42*
X-10725000Y13225000D03*
D42*
X-12750000Y6150000D03*
D41*
X13250000Y6500000D03*
D41*
X-5075000Y12975000D03*
D42*
X12130574Y4756976D03*
D40*
X-23838828Y15161877D03*
D43*
X-1621500Y3850021D03*
D42*
X5934372Y3565628D03*
D42*
X1363367Y11965163D03*
D41*
X18695638Y4949028D03*
D40*
X-24511254Y17673491D03*
D41*
X5300000Y8950000D03*
D41*
X1250000Y-1000000D03*
D42*
X-9958223Y12011202D03*
D40*
X-20161701Y15161347D03*
D41*
X-6150000Y2525000D03*
D40*
X20161172Y15161877D03*
D42*
X7584620Y2915380D03*
D41*
X-500000Y17000000D03*
D41*
X11715306Y3561677D03*
D40*
X-23837946Y18839004D03*
D41*
X11750000Y12349990D03*
D41*
X-11600000Y13850000D03*
D41*
X6750000Y2500000D03*
D41*
X-9525000Y5100000D03*
D40*
X23838829Y18838123D03*
D42*
X9068205Y3012555D03*
D41*
X20750000Y10250000D03*
D41*
X5450000Y12275000D03*
D41*
X-13800000Y4325000D03*
D41*
X-15200000Y11375000D03*
D43*
X-1975000Y6675000D03*
D41*
X-9400000Y3475000D03*
D40*
X-22673250Y14488680D03*
D40*
X22673491Y19511254D03*
D41*
X-3475000Y14100000D03*
D40*
X-22672286Y19511576D03*
D43*
X-1775000Y8475000D03*
D40*
X22672768Y14488550D03*
D40*
X-20161171Y18838123D03*
D41*
X-1000000Y19000000D03*
D43*
X-1625010Y10125000D03*
D41*
X-1955702Y7694386D03*
D42*
X4425000Y3405760D03*
D40*
X21327714Y19511576D03*
D42*
X-11250000Y15500000D03*
D41*
X4204805Y6204805D03*
D41*
X-1250000Y-1000000D03*
D41*
X16750000Y17000000D03*
D42*
X2250000Y12000000D03*
D40*
X-21326509Y19511254D03*
D40*
X19488746Y17673491D03*
D41*
X-7725000Y10575000D03*
D41*
X22250000Y12250000D03*
D42*
X16183344Y4655531D03*
D41*
X19000000Y9500000D03*
D43*
X-3312503Y4427611D03*
D41*
X3500000Y3400000D03*
D40*
X24511450Y17672768D03*
D42*
X11285775Y4850975D03*
D41*
X-17250000Y9000000D03*
D41*
X-20481616Y3998413D03*
D42*
X-15400000Y7650000D03*
D40*
X20162054Y18839004D03*
D40*
X24511320Y16326750D03*
D42*
X19750000Y5000000D03*
D41*
X13250000Y11000000D03*
D40*
X-19488680Y16326750D03*
D41*
X-22250000Y12250000D03*
D40*
X-21327232Y14488550D03*
M02*
