%FSLAX46Y46*%
%MOMM*%
%ADD10C,0.150000*%
G01*
%LPD*%
G36*
X16250000Y18000000D02*
X-250000Y18000000D01*
X-250000Y19750000D01*
X16250000Y19750000D01*
X16250000Y18000000D01*
D02*
G37*
%LPD*%
G36*
X-5766769Y11087032D02*
X-5766769Y13626594D01*
X-5931521Y13690653D01*
X-5931521Y13860007D01*
X-5505928Y13933086D01*
X-5354983Y13782141D01*
X-5354983Y11247181D01*
X-5199435Y11178520D01*
X-5199435Y11009351D01*
X-5615823Y10936087D01*
X-5615823Y10936087D01*
X-5766769Y11087032D01*
D02*
G37*
%LPD*%
G36*
X-3662003Y12079958D02*
X-4105818Y12258513D01*
X-4732609Y12176045D01*
X-4741813Y11988470D01*
X-3662003Y12079958D01*
D02*
G37*
%LPD*%
G36*
X-1740212Y12551384D02*
X-1740212Y11247181D01*
X-1584665Y11178520D01*
X-1584665Y11009351D01*
X-2005655Y10936087D01*
X-2005655Y10936271D01*
X-2156600Y11087216D01*
X-2156600Y13626777D01*
X-2316749Y13690653D01*
X-2316749Y13860007D01*
X-1900361Y13933270D01*
X-1740212Y13782325D01*
X-1763038Y12748165D01*
X-1740212Y12743379D01*
X-1282589Y13063677D01*
X-1004077Y13027230D01*
X-796987Y12902423D01*
X-668132Y12666065D01*
X-623768Y12294960D01*
X-623768Y11247181D01*
X-463618Y11178520D01*
X-463618Y11009351D01*
X-884609Y10936087D01*
X-1040157Y11087032D01*
X-1040157Y12294960D01*
X-1072003Y12547518D01*
X-1147107Y12674902D01*
X-1305416Y12725155D01*
X-1740212Y12551384D01*
D02*
G37*
%LPD*%
G36*
X-6314959Y12488245D02*
X-6409575Y12651706D01*
X-7207561Y13113195D01*
X-7491044Y12948812D01*
X-7491044Y12135916D01*
X-7207561Y11863296D01*
X-7113129Y12026758D01*
X-7113129Y12622070D01*
X-6692874Y12379087D01*
X-6692874Y11674430D01*
X-6314959Y11566191D01*
X-6314959Y12488245D01*
D02*
G37*
%LPD*%
G36*
X-4694872Y12565558D02*
X-4732609Y12176045D01*
X-4741813Y11988470D01*
X-4693400Y11620126D01*
X-4577061Y11398310D01*
X-4316220Y11260987D01*
X-3726063Y11283812D01*
X-3726063Y11096237D01*
X-4421515Y10936087D01*
X-4698554Y10993152D01*
X-4941908Y11168948D01*
X-5115126Y11470837D01*
X-5181028Y11906186D01*
X-5071315Y12615444D01*
X-4736658Y12905921D01*
X-4384883Y13086688D01*
X-4082808Y13049135D01*
X-3855286Y12902423D01*
X-3711888Y12596299D01*
X-3662003Y12079958D01*
X-4105818Y12258513D01*
X-4176137Y12665697D01*
X-4273699Y12774488D01*
X-4421515Y12812041D01*
X-4595469Y12780010D01*
X-4694872Y12565558D01*
D02*
G37*
%LPD*%
G36*
X-3516028Y12162976D02*
X-3625371Y12441488D01*
X-3602544Y12665697D01*
X-3359376Y12921384D01*
X-3112895Y13063861D01*
X-2353383Y13027230D01*
X-2367003Y12468917D01*
X-2623243Y12468917D01*
X-2655272Y12711349D01*
X-3144925Y12784612D01*
X-3217453Y12741722D01*
X-3245617Y12592434D01*
X-3139218Y12407250D01*
X-2916113Y12263116D01*
X-2502671Y12012032D01*
X-2328715Y11848017D01*
X-2257291Y11654550D01*
X-2289323Y11421135D01*
X-2527705Y11120352D01*
X-2810819Y10936087D01*
X-2810819Y10935903D01*
X-3634574Y10995545D01*
X-3625371Y11654366D01*
X-3396560Y11658967D01*
X-3300472Y11311241D01*
X-2838248Y11215152D01*
X-2696506Y11494400D01*
X-2792595Y11694495D01*
X-3135720Y11901584D01*
X-3516028Y12162976D01*
D02*
G37*
%LPD*%
G36*
X-8332656Y12354235D02*
X-8100899Y12220409D01*
X-7869143Y12354235D01*
X-7869143Y12621886D01*
X-8100899Y12755711D01*
X-8332656Y12621886D01*
X-8332656Y12354235D01*
D02*
G37*
%LPD*%
G36*
X-6409391Y11401808D02*
X-6314959Y11566191D01*
X-6692874Y11674430D01*
X-7301993Y11322102D01*
X-7723352Y11565086D01*
X-7207561Y11863296D01*
X-7491044Y12135916D01*
X-8195702Y11729470D01*
X-8195702Y11401808D01*
X-7396611Y10941241D01*
X-7207561Y10941241D01*
X-6409391Y11401808D01*
D02*
G37*
%LPD*%
G36*
X108317Y10149146D02*
X565939Y10204002D01*
X565939Y10373355D01*
X387566Y10455639D01*
X520103Y10977321D01*
X1128671Y12899110D01*
X996134Y13059259D01*
X469849Y13027230D01*
X469849Y12807439D01*
X744312Y12775408D01*
X359954Y11366096D01*
X314303Y11366096D01*
X209008Y11855749D01*
X-56435Y12921936D01*
X-239410Y13059259D01*
X-628371Y13004220D01*
X-628371Y12816642D01*
X-449813Y12766389D01*
X35238Y11000147D01*
X103715Y10963515D01*
X222814Y10981923D01*
X7625Y10332122D01*
X108317Y10149146D01*
X108317Y10149146D01*
D02*
G37*
G01*
%LPD*%
D10*
X21669334Y9675000D02*
X20969334Y9408333D01*
D10*
X21669334Y9675000D02*
X20969334Y9941667D01*
D10*
X21669334Y10108333D02*
X20969334Y10108333D01*
D10*
X21669334Y10375000D02*
X20969334Y10375000D01*
D10*
X21669334Y10841667D02*
X20969334Y10375000D01*
D10*
X21669334Y10841667D02*
X20969334Y10841667D01*
D10*
X-21002666Y4322000D02*
X-21702666Y4055333D01*
D10*
X-21002666Y4322000D02*
X-21702666Y4588667D01*
D10*
X-21002666Y4755333D02*
X-21702666Y4755333D01*
D10*
X-21702666Y4988666D02*
X-21702666Y4755333D01*
D10*
X-21669334Y5088666D02*
X-21702666Y4988666D01*
D10*
X-21602666Y5155333D02*
X-21669334Y5088666D01*
D10*
X-21536000Y5188666D02*
X-21602666Y5155333D01*
D10*
X-21436000Y5222000D02*
X-21536000Y5188666D01*
D10*
X-21269334Y5222000D02*
X-21436000Y5222000D01*
D10*
X-21169334Y5188666D02*
X-21269334Y5222000D01*
D10*
X-21102666Y5155333D02*
X-21169334Y5188666D01*
D10*
X-21036000Y5088666D02*
X-21102666Y5155333D01*
D10*
X-21002666Y4988666D02*
X-21036000Y5088666D01*
D10*
X-21002666Y4755333D02*
X-21002666Y4988666D01*
D10*
X-21002666Y5455333D02*
X-21702666Y5455333D01*
D10*
X-21702666Y5688666D02*
X-21702666Y5455333D01*
D10*
X-21669334Y5788666D02*
X-21702666Y5688666D01*
D10*
X-21602666Y5855333D02*
X-21669334Y5788666D01*
D10*
X-21536000Y5888666D02*
X-21602666Y5855333D01*
D10*
X-21436000Y5922000D02*
X-21536000Y5888666D01*
D10*
X-21269334Y5922000D02*
X-21436000Y5922000D01*
D10*
X-21169334Y5888666D02*
X-21269334Y5922000D01*
D10*
X-21102666Y5855333D02*
X-21169334Y5888666D01*
D10*
X-21036000Y5788666D02*
X-21102666Y5855333D01*
D10*
X-21002666Y5688666D02*
X-21036000Y5788666D01*
D10*
X-21002666Y5455333D02*
X-21002666Y5688666D01*
D10*
X-10634667Y1190666D02*
X-10368000Y1890666D01*
D10*
X-10101333Y1190666D02*
X-10368000Y1890666D01*
D10*
X-10201333Y1424000D02*
X-10534667Y1424000D01*
D10*
X-9801333Y1790666D02*
X-9868000Y1757333D01*
D10*
X-9701333Y1890666D02*
X-9801333Y1790666D01*
D10*
X-9701333Y1190666D02*
X-9701333Y1890666D01*
D10*
X16650000Y17583334D02*
X16650000Y18116666D01*
D10*
X16616667Y17483334D02*
X16650000Y17583334D01*
D10*
X16583333Y17450000D02*
X16616667Y17483334D01*
D10*
X16516667Y17416666D02*
X16583333Y17450000D01*
D10*
X16450000Y17416666D02*
X16516667Y17416666D01*
D10*
X16383333Y17450000D02*
X16450000Y17416666D01*
D10*
X16350000Y17483334D02*
X16383333Y17450000D01*
D10*
X16316667Y17583334D02*
X16350000Y17483334D01*
D10*
X16316667Y17650000D02*
X16316667Y17583334D01*
D10*
X16916666Y17416666D02*
X16916666Y18116666D01*
D10*
X17216666Y18116666D02*
X16916666Y18116666D01*
D10*
X17316666Y18083334D02*
X17216666Y18116666D01*
D10*
X17350000Y18050000D02*
X17316666Y18083334D01*
D10*
X17383334Y17983334D02*
X17350000Y18050000D01*
D10*
X17383334Y17883334D02*
X17383334Y17983334D01*
D10*
X17350000Y17816666D02*
X17383334Y17883334D01*
D10*
X17316666Y17783334D02*
X17350000Y17816666D01*
D10*
X17216666Y17750000D02*
X17316666Y17783334D01*
D10*
X16916666Y17750000D02*
X17216666Y17750000D01*
D10*
X17650000Y18083334D02*
X17750000Y18116666D01*
D10*
X17616666Y18016666D02*
X17650000Y18083334D01*
D10*
X17616666Y17950000D02*
X17616666Y18016666D01*
D10*
X17650000Y17883334D02*
X17616666Y17950000D01*
D10*
X17716666Y17850000D02*
X17650000Y17883334D01*
D10*
X17850000Y17816666D02*
X17716666Y17850000D01*
D10*
X17950000Y17783334D02*
X17850000Y17816666D01*
D10*
X18016666Y17716666D02*
X17950000Y17783334D01*
D10*
X18050000Y17650000D02*
X18016666Y17716666D01*
D10*
X18050000Y17550000D02*
X18050000Y17650000D01*
D10*
X18016666Y17483334D02*
X18050000Y17550000D01*
D10*
X17983334Y17450000D02*
X18016666Y17483334D01*
D10*
X17883334Y17416666D02*
X17983334Y17450000D01*
D10*
X17750000Y17416666D02*
X17883334Y17416666D01*
D10*
X17650000Y17450000D02*
X17750000Y17416666D01*
D10*
X17616666Y17483334D02*
X17650000Y17450000D01*
D10*
X17583334Y17550000D02*
X17616666Y17483334D01*
D10*
X17583334Y17650000D02*
X17583334Y17550000D01*
D10*
X17616666Y17716666D02*
X17583334Y17650000D01*
D10*
X17683334Y17783334D02*
X17616666Y17716666D01*
D10*
X17783334Y17816666D02*
X17683334Y17783334D01*
D10*
X17916666Y17850000D02*
X17783334Y17816666D01*
D10*
X17983334Y17883334D02*
X17916666Y17850000D01*
D10*
X18016666Y17950000D02*
X17983334Y17883334D01*
D10*
X18016666Y18016666D02*
X18016666Y17950000D01*
D10*
X17983334Y18083334D02*
X18016666Y18016666D01*
D10*
X17883334Y18116666D02*
X17983334Y18083334D01*
D10*
X17750000Y18116666D02*
X17883334Y18116666D01*
D10*
X10516667Y3416666D02*
X10516667Y4116666D01*
D10*
X10750000Y4116666D02*
X10516667Y4116666D01*
D10*
X10850000Y4083333D02*
X10750000Y4116666D01*
D10*
X10916667Y4016666D02*
X10850000Y4083333D01*
D10*
X10950000Y3950000D02*
X10916667Y4016666D01*
D10*
X10983333Y3850000D02*
X10950000Y3950000D01*
D10*
X10983333Y3683333D02*
X10983333Y3850000D01*
D10*
X10950000Y3583333D02*
X10983333Y3683333D01*
D10*
X10916667Y3516666D02*
X10950000Y3583333D01*
D10*
X10850000Y3450000D02*
X10916667Y3516666D01*
D10*
X10750000Y3416666D02*
X10850000Y3450000D01*
D10*
X10516667Y3416666D02*
X10750000Y3416666D01*
D10*
X11350000Y4016666D02*
X11283333Y3983333D01*
D10*
X11450000Y4116666D02*
X11350000Y4016666D01*
D10*
X11450000Y3416666D02*
X11450000Y4116666D01*
D10*
X19134334Y2933666D02*
X19167666Y2867000D01*
D10*
X19067666Y3000333D02*
X19134334Y2933666D01*
D10*
X19001000Y3033666D02*
X19067666Y3000333D01*
D10*
X18867666Y3033666D02*
X19001000Y3033666D01*
D10*
X18801000Y3000333D02*
X18867666Y3033666D01*
D10*
X18734334Y2933666D02*
X18801000Y3000333D01*
D10*
X18701000Y2867000D02*
X18734334Y2933666D01*
D10*
X18667666Y2767000D02*
X18701000Y2867000D01*
D10*
X18667666Y2600333D02*
X18667666Y2767000D01*
D10*
X18701000Y2500333D02*
X18667666Y2600333D01*
D10*
X18734334Y2433666D02*
X18701000Y2500333D01*
D10*
X18801000Y2367000D02*
X18734334Y2433666D01*
D10*
X18867666Y2333666D02*
X18801000Y2367000D01*
D10*
X19001000Y2333666D02*
X18867666Y2333666D01*
D10*
X19067666Y2367000D02*
X19001000Y2333666D01*
D10*
X19134334Y2433666D02*
X19067666Y2367000D01*
D10*
X19167666Y2500333D02*
X19134334Y2433666D01*
D10*
X19167666Y2600333D02*
X19167666Y2500333D01*
D10*
X19167666Y2600333D02*
X19001000Y2600333D01*
D10*
X19401000Y2333666D02*
X19401000Y3033666D01*
D10*
X19867666Y2333666D02*
X19401000Y3033666D01*
D10*
X19867666Y2333666D02*
X19867666Y3033666D01*
D10*
X20134334Y2333666D02*
X20134334Y3033666D01*
D10*
X20367666Y3033666D02*
X20134334Y3033666D01*
D10*
X20467666Y3000333D02*
X20367666Y3033666D01*
D10*
X20534334Y2933666D02*
X20467666Y3000333D01*
D10*
X20567666Y2867000D02*
X20534334Y2933666D01*
D10*
X20601000Y2767000D02*
X20567666Y2867000D01*
D10*
X20601000Y2600333D02*
X20601000Y2767000D01*
D10*
X20567666Y2500333D02*
X20601000Y2600333D01*
D10*
X20534334Y2433666D02*
X20567666Y2500333D01*
D10*
X20467666Y2367000D02*
X20534334Y2433666D01*
D10*
X20367666Y2333666D02*
X20467666Y2367000D01*
D10*
X20134334Y2333666D02*
X20367666Y2333666D01*
D10*
X-4616666Y14666667D02*
X-4616666Y15366667D01*
D10*
X-4316666Y15366667D02*
X-4616666Y15366667D01*
D10*
X-4216666Y15333333D02*
X-4316666Y15366667D01*
D10*
X-4183333Y15300000D02*
X-4216666Y15333333D01*
D10*
X-4150000Y15233333D02*
X-4183333Y15300000D01*
D10*
X-4150000Y15166667D02*
X-4150000Y15233333D01*
D10*
X-4183333Y15100000D02*
X-4150000Y15166667D01*
D10*
X-4216666Y15066667D02*
X-4183333Y15100000D01*
D10*
X-4316666Y15033333D02*
X-4216666Y15066667D01*
D10*
X-4616666Y15033333D02*
X-4316666Y15033333D01*
D10*
X-4150000Y14666667D02*
X-4383333Y15033333D01*
D10*
X-3783333Y15266667D02*
X-3850000Y15233333D01*
D10*
X-3683333Y15366667D02*
X-3783333Y15266667D01*
D10*
X-3683333Y14666667D02*
X-3683333Y15366667D01*
D10*
X17633334Y11416667D02*
X17633334Y12116667D01*
D10*
X17933334Y12116667D02*
X17633334Y12116667D01*
D10*
X18033334Y12083333D02*
X17933334Y12116667D01*
D10*
X18066666Y12050000D02*
X18033334Y12083333D01*
D10*
X18100000Y11983333D02*
X18066666Y12050000D01*
D10*
X18100000Y11883333D02*
X18100000Y11983333D01*
D10*
X18066666Y11816667D02*
X18100000Y11883333D01*
D10*
X18033334Y11783333D02*
X18066666Y11816667D01*
D10*
X17933334Y11750000D02*
X18033334Y11783333D01*
D10*
X17633334Y11750000D02*
X17933334Y11750000D01*
D10*
X18233334Y11416667D02*
X18500000Y12116667D01*
D10*
X18766666Y11416667D02*
X18500000Y12116667D01*
D10*
X18666666Y11650000D02*
X18333334Y11650000D01*
D10*
X19066666Y12016667D02*
X19000000Y11983333D01*
D10*
X19166666Y12116667D02*
X19066666Y12016667D01*
D10*
X19166666Y11416667D02*
X19166666Y12116667D01*
D10*
X10516667Y5416666D02*
X10516667Y6116666D01*
D10*
X10750000Y6116666D02*
X10516667Y6116666D01*
D10*
X10850000Y6083333D02*
X10750000Y6116666D01*
D10*
X10916667Y6016666D02*
X10850000Y6083333D01*
D10*
X10950000Y5950000D02*
X10916667Y6016666D01*
D10*
X10983333Y5850000D02*
X10950000Y5950000D01*
D10*
X10983333Y5683333D02*
X10983333Y5850000D01*
D10*
X10950000Y5583333D02*
X10983333Y5683333D01*
D10*
X10916667Y5516666D02*
X10950000Y5583333D01*
D10*
X10850000Y5450000D02*
X10916667Y5516666D01*
D10*
X10750000Y5416666D02*
X10850000Y5450000D01*
D10*
X10516667Y5416666D02*
X10750000Y5416666D01*
D10*
X11583333Y6083333D02*
X11616667Y6016666D01*
D10*
X11483333Y6116666D02*
X11583333Y6083333D01*
D10*
X11416667Y6116666D02*
X11483333Y6116666D01*
D10*
X11316667Y6083333D02*
X11416667Y6116666D01*
D10*
X11250000Y5983333D02*
X11316667Y6083333D01*
D10*
X11216667Y5816666D02*
X11250000Y5983333D01*
D10*
X11216667Y5650000D02*
X11216667Y5816666D01*
D10*
X11250000Y5516666D02*
X11216667Y5650000D01*
D10*
X11316667Y5450000D02*
X11250000Y5516666D01*
D10*
X11416667Y5416666D02*
X11316667Y5450000D01*
D10*
X11450000Y5416666D02*
X11416667Y5416666D01*
D10*
X11550000Y5450000D02*
X11450000Y5416666D01*
D10*
X11616667Y5516666D02*
X11550000Y5450000D01*
D10*
X11650000Y5616666D02*
X11616667Y5516666D01*
D10*
X11650000Y5650000D02*
X11650000Y5616666D01*
D10*
X11616667Y5750000D02*
X11650000Y5650000D01*
D10*
X11550000Y5816666D02*
X11616667Y5750000D01*
D10*
X11450000Y5850000D02*
X11550000Y5816666D01*
D10*
X11416667Y5850000D02*
X11450000Y5850000D01*
D10*
X11316667Y5816666D02*
X11416667Y5850000D01*
D10*
X11250000Y5750000D02*
X11316667Y5816666D01*
D10*
X11216667Y5650000D02*
X11250000Y5750000D01*
D10*
X23200000Y12083333D02*
X23200000Y12616667D01*
D10*
X23166666Y11983333D02*
X23200000Y12083333D01*
D10*
X23133334Y11950000D02*
X23166666Y11983333D01*
D10*
X23066666Y11916667D02*
X23133334Y11950000D01*
D10*
X23000000Y11916667D02*
X23066666Y11916667D01*
D10*
X22933334Y11950000D02*
X23000000Y11916667D01*
D10*
X22900000Y11983333D02*
X22933334Y11950000D01*
D10*
X22866666Y12083333D02*
X22900000Y11983333D01*
D10*
X22866666Y12150000D02*
X22866666Y12083333D01*
D10*
X23500000Y12616667D02*
X23833334Y12616667D01*
D10*
X23466666Y12316667D02*
X23500000Y12616667D01*
D10*
X23500000Y12350000D02*
X23466666Y12316667D01*
D10*
X23600000Y12383333D02*
X23500000Y12350000D01*
D10*
X23700000Y12383333D02*
X23600000Y12383333D01*
D10*
X23800000Y12350000D02*
X23700000Y12383333D01*
D10*
X23866666Y12283333D02*
X23800000Y12350000D01*
D10*
X23900000Y12183333D02*
X23866666Y12283333D01*
D10*
X23900000Y12116667D02*
X23900000Y12183333D01*
D10*
X23866666Y12016667D02*
X23900000Y12116667D01*
D10*
X23800000Y11950000D02*
X23866666Y12016667D01*
D10*
X23700000Y11916667D02*
X23800000Y11950000D01*
D10*
X23600000Y11916667D02*
X23700000Y11916667D01*
D10*
X23500000Y11950000D02*
X23600000Y11916667D01*
D10*
X23466666Y11983333D02*
X23500000Y11950000D01*
D10*
X23433334Y12050000D02*
X23466666Y11983333D01*
D10*
X17633334Y3416666D02*
X17633334Y4116666D01*
D10*
X17933334Y4116666D02*
X17633334Y4116666D01*
D10*
X18033334Y4083333D02*
X17933334Y4116666D01*
D10*
X18066666Y4050000D02*
X18033334Y4083333D01*
D10*
X18100000Y3983333D02*
X18066666Y4050000D01*
D10*
X18100000Y3883333D02*
X18100000Y3983333D01*
D10*
X18066666Y3816666D02*
X18100000Y3883333D01*
D10*
X18033334Y3783333D02*
X18066666Y3816666D01*
D10*
X17933334Y3750000D02*
X18033334Y3783333D01*
D10*
X17633334Y3750000D02*
X17933334Y3750000D01*
D10*
X18433334Y3416666D02*
X18266666Y4116666D01*
D10*
X18433334Y3416666D02*
X18600000Y4116666D01*
D10*
X18766666Y3416666D02*
X18600000Y4116666D01*
D10*
X18766666Y3416666D02*
X18933334Y4116666D01*
D10*
X19133334Y3416666D02*
X19133334Y4116666D01*
D10*
X19433334Y4116666D02*
X19133334Y4116666D01*
D10*
X19533334Y4083333D02*
X19433334Y4116666D01*
D10*
X19566666Y4050000D02*
X19533334Y4083333D01*
D10*
X19600000Y3983333D02*
X19566666Y4050000D01*
D10*
X19600000Y3916666D02*
X19600000Y3983333D01*
D10*
X19566666Y3850000D02*
X19600000Y3916666D01*
D10*
X19533334Y3816666D02*
X19566666Y3850000D01*
D10*
X19433334Y3783333D02*
X19533334Y3816666D01*
D10*
X19133334Y3783333D02*
X19433334Y3783333D01*
D10*
X19600000Y3416666D02*
X19366666Y3783333D01*
D10*
X17633334Y6916666D02*
X17633334Y7616666D01*
D10*
X17933334Y7616666D02*
X17633334Y7616666D01*
D10*
X18033334Y7583333D02*
X17933334Y7616666D01*
D10*
X18066666Y7550000D02*
X18033334Y7583333D01*
D10*
X18100000Y7483333D02*
X18066666Y7550000D01*
D10*
X18100000Y7383333D02*
X18100000Y7483333D01*
D10*
X18066666Y7316666D02*
X18100000Y7383333D01*
D10*
X18033334Y7283333D02*
X18066666Y7316666D01*
D10*
X17933334Y7250000D02*
X18033334Y7283333D01*
D10*
X17633334Y7250000D02*
X17933334Y7250000D01*
D10*
X18233334Y6916666D02*
X18500000Y7616666D01*
D10*
X18766666Y6916666D02*
X18500000Y7616666D01*
D10*
X18666666Y7150000D02*
X18333334Y7150000D01*
D10*
X19300000Y7283333D02*
X19333334Y7383333D01*
D10*
X19233334Y7216666D02*
X19300000Y7283333D01*
D10*
X19133334Y7183333D02*
X19233334Y7216666D01*
D10*
X19100000Y7183333D02*
X19133334Y7183333D01*
D10*
X19000000Y7216666D02*
X19100000Y7183333D01*
D10*
X18933334Y7283333D02*
X19000000Y7216666D01*
D10*
X18900000Y7383333D02*
X18933334Y7283333D01*
D10*
X18900000Y7416666D02*
X18900000Y7383333D01*
D10*
X18933334Y7516666D02*
X18900000Y7416666D01*
D10*
X19000000Y7583333D02*
X18933334Y7516666D01*
D10*
X19100000Y7616666D02*
X19000000Y7583333D01*
D10*
X19133334Y7616666D02*
X19100000Y7616666D01*
D10*
X19233334Y7583333D02*
X19133334Y7616666D01*
D10*
X19300000Y7516666D02*
X19233334Y7583333D01*
D10*
X19333334Y7383333D02*
X19300000Y7516666D01*
D10*
X19333334Y7216666D02*
X19333334Y7383333D01*
D10*
X19300000Y7050000D02*
X19333334Y7216666D01*
D10*
X19233334Y6950000D02*
X19300000Y7050000D01*
D10*
X19133334Y6916666D02*
X19233334Y6950000D01*
D10*
X19066666Y6916666D02*
X19133334Y6916666D01*
D10*
X18966666Y6950000D02*
X19066666Y6916666D01*
D10*
X18933334Y7016666D02*
X18966666Y6950000D01*
D10*
X-8541656Y9755268D02*
X-8541656Y10255268D01*
D10*
X-8508322Y9655268D02*
X-8541656Y9755268D01*
D10*
X-8441656Y9588601D02*
X-8508322Y9655268D01*
D10*
X-8341655Y9555268D02*
X-8441656Y9588601D01*
D10*
X-8274989Y9555268D02*
X-8341655Y9555268D01*
D10*
X-8174989Y9588601D02*
X-8274989Y9555268D01*
D10*
X-8108322Y9655268D02*
X-8174989Y9588601D01*
D10*
X-8074989Y9755268D02*
X-8108322Y9655268D01*
D10*
X-8074989Y10255268D02*
X-8074989Y9755268D01*
D10*
X-7674989Y10155268D02*
X-7741655Y10121934D01*
D10*
X-7574989Y10255268D02*
X-7674989Y10155268D01*
D10*
X-7574989Y9555268D02*
X-7574989Y10255268D01*
D10*
X9177333Y1190666D02*
X9444000Y1890666D01*
D10*
X9710667Y1190666D02*
X9444000Y1890666D01*
D10*
X9610667Y1424000D02*
X9277333Y1424000D01*
D10*
X10010667Y1790666D02*
X9944000Y1757333D01*
D10*
X10110667Y1890666D02*
X10010667Y1790666D01*
D10*
X10110667Y1190666D02*
X10110667Y1890666D01*
D10*
X10610667Y1857333D02*
X10710667Y1890666D01*
D10*
X10544000Y1757333D02*
X10610667Y1857333D01*
D10*
X10510667Y1590666D02*
X10544000Y1757333D01*
D10*
X10510667Y1490666D02*
X10510667Y1590666D01*
D10*
X10544000Y1324000D02*
X10510667Y1490666D01*
D10*
X10610667Y1224000D02*
X10544000Y1324000D01*
D10*
X10710667Y1190666D02*
X10610667Y1224000D01*
D10*
X10777333Y1190666D02*
X10710667Y1190666D01*
D10*
X10877333Y1224000D02*
X10777333Y1190666D01*
D10*
X10944000Y1324000D02*
X10877333Y1224000D01*
D10*
X10977333Y1490666D02*
X10944000Y1324000D01*
D10*
X10977333Y1590666D02*
X10977333Y1490666D01*
D10*
X10944000Y1757333D02*
X10977333Y1590666D01*
D10*
X10877333Y1857333D02*
X10944000Y1757333D01*
D10*
X10777333Y1890666D02*
X10877333Y1857333D01*
D10*
X10710667Y1890666D02*
X10777333Y1890666D01*
D10*
X8766667Y11416667D02*
X8766667Y12116667D01*
D10*
X9066667Y12116667D02*
X8766667Y12116667D01*
D10*
X9166667Y12083333D02*
X9066667Y12116667D01*
D10*
X9200000Y12050000D02*
X9166667Y12083333D01*
D10*
X9233333Y11983333D02*
X9200000Y12050000D01*
D10*
X9233333Y11916667D02*
X9233333Y11983333D01*
D10*
X9200000Y11850000D02*
X9233333Y11916667D01*
D10*
X9166667Y11816667D02*
X9200000Y11850000D01*
D10*
X9066667Y11783333D02*
X9166667Y11816667D01*
D10*
X8766667Y11783333D02*
X9066667Y11783333D01*
D10*
X9233333Y11416667D02*
X9000000Y11783333D01*
D10*
X9566667Y11416667D02*
X9900000Y12116667D01*
D10*
X9900000Y12116667D02*
X9433333Y12116667D01*
D10*
X-21602666Y7122333D02*
X-21536000Y7155667D01*
D10*
X-21669334Y7055667D02*
X-21602666Y7122333D01*
D10*
X-21702666Y6989000D02*
X-21669334Y7055667D01*
D10*
X-21702666Y6855667D02*
X-21702666Y6989000D01*
D10*
X-21669334Y6789000D02*
X-21702666Y6855667D01*
D10*
X-21602666Y6722333D02*
X-21669334Y6789000D01*
D10*
X-21536000Y6689000D02*
X-21602666Y6722333D01*
D10*
X-21436000Y6655667D02*
X-21536000Y6689000D01*
D10*
X-21269334Y6655667D02*
X-21436000Y6655667D01*
D10*
X-21169334Y6689000D02*
X-21269334Y6655667D01*
D10*
X-21102666Y6722333D02*
X-21169334Y6689000D01*
D10*
X-21036000Y6789000D02*
X-21102666Y6722333D01*
D10*
X-21002666Y6855667D02*
X-21036000Y6789000D01*
D10*
X-21002666Y6989000D02*
X-21002666Y6855667D01*
D10*
X-21036000Y7055667D02*
X-21002666Y6989000D01*
D10*
X-21102666Y7122333D02*
X-21036000Y7055667D01*
D10*
X-21169334Y7155667D02*
X-21102666Y7122333D01*
D10*
X-21269334Y7155667D02*
X-21169334Y7155667D01*
D10*
X-21269334Y7155667D02*
X-21269334Y6989000D01*
D10*
X-21002666Y7389000D02*
X-21702666Y7389000D01*
D10*
X-21002666Y7855666D02*
X-21702666Y7389000D01*
D10*
X-21002666Y7855666D02*
X-21702666Y7855666D01*
D10*
X-21002666Y8122333D02*
X-21702666Y8122333D01*
D10*
X-21702666Y8355666D02*
X-21702666Y8122333D01*
D10*
X-21669334Y8455667D02*
X-21702666Y8355666D01*
D10*
X-21602666Y8522333D02*
X-21669334Y8455667D01*
D10*
X-21536000Y8555667D02*
X-21602666Y8522333D01*
D10*
X-21436000Y8589000D02*
X-21536000Y8555667D01*
D10*
X-21269334Y8589000D02*
X-21436000Y8589000D01*
D10*
X-21169334Y8555667D02*
X-21269334Y8589000D01*
D10*
X-21102666Y8522333D02*
X-21169334Y8555667D01*
D10*
X-21036000Y8455667D02*
X-21102666Y8522333D01*
D10*
X-21002666Y8355666D02*
X-21036000Y8455667D01*
D10*
X-21002666Y8122333D02*
X-21002666Y8355666D01*
D10*
X-474666Y1190666D02*
X-208000Y1890666D01*
D10*
X58666Y1190666D02*
X-208000Y1890666D01*
D10*
X-41333Y1424000D02*
X-374666Y1424000D01*
D10*
X258666Y1890666D02*
X592000Y1890666D01*
D10*
X225333Y1590666D02*
X258666Y1890666D01*
D10*
X258666Y1624000D02*
X225333Y1590666D01*
D10*
X358666Y1657333D02*
X258666Y1624000D01*
D10*
X458666Y1657333D02*
X358666Y1657333D01*
D10*
X558666Y1624000D02*
X458666Y1657333D01*
D10*
X625333Y1557333D02*
X558666Y1624000D01*
D10*
X658666Y1457333D02*
X625333Y1557333D01*
D10*
X658666Y1390666D02*
X658666Y1457333D01*
D10*
X625333Y1290666D02*
X658666Y1390666D01*
D10*
X558666Y1224000D02*
X625333Y1290666D01*
D10*
X458666Y1190666D02*
X558666Y1224000D01*
D10*
X358666Y1190666D02*
X458666Y1190666D01*
D10*
X258666Y1224000D02*
X358666Y1190666D01*
D10*
X225333Y1257333D02*
X258666Y1224000D01*
D10*
X192000Y1324000D02*
X225333Y1257333D01*
D10*
X2816666Y7625000D02*
X2883333Y7691667D01*
D10*
X2783333Y7525000D02*
X2816666Y7625000D01*
D10*
X2783333Y7391667D02*
X2783333Y7525000D01*
D10*
X2816666Y7291667D02*
X2783333Y7391667D01*
D10*
X2883333Y7225000D02*
X2816666Y7291667D01*
D10*
X2950000Y7225000D02*
X2883333Y7225000D01*
D10*
X3016666Y7258333D02*
X2950000Y7225000D01*
D10*
X3050000Y7291667D02*
X3016666Y7258333D01*
D10*
X3083333Y7358333D02*
X3050000Y7291667D01*
D10*
X3150000Y7558333D02*
X3083333Y7358333D01*
D10*
X3183333Y7625000D02*
X3150000Y7558333D01*
D10*
X3216666Y7658333D02*
X3183333Y7625000D01*
D10*
X3283333Y7691667D02*
X3216666Y7658333D01*
D10*
X3383333Y7691667D02*
X3283333Y7691667D01*
D10*
X3450000Y7625000D02*
X3383333Y7691667D01*
D10*
X3483333Y7525000D02*
X3450000Y7625000D01*
D10*
X3483333Y7391667D02*
X3483333Y7525000D01*
D10*
X3450000Y7291667D02*
X3483333Y7391667D01*
D10*
X3383333Y7225000D02*
X3450000Y7291667D01*
D10*
X3483333Y7925000D02*
X2783333Y7925000D01*
D10*
X2783333Y8158333D02*
X2783333Y7925000D01*
D10*
X2816666Y8258333D02*
X2783333Y8158333D01*
D10*
X2883333Y8325000D02*
X2816666Y8258333D01*
D10*
X2950000Y8358333D02*
X2883333Y8325000D01*
D10*
X3050000Y8391667D02*
X2950000Y8358333D01*
D10*
X3216666Y8391667D02*
X3050000Y8391667D01*
D10*
X3316666Y8358333D02*
X3216666Y8391667D01*
D10*
X3383333Y8325000D02*
X3316666Y8358333D01*
D10*
X3450000Y8258333D02*
X3383333Y8325000D01*
D10*
X3483333Y8158333D02*
X3450000Y8258333D01*
D10*
X3483333Y7925000D02*
X3483333Y8158333D01*
D10*
X2816666Y9258333D02*
X2883333Y9325000D01*
D10*
X2783333Y9158333D02*
X2816666Y9258333D01*
D10*
X2783333Y9025000D02*
X2783333Y9158333D01*
D10*
X2816666Y8925000D02*
X2783333Y9025000D01*
D10*
X2883333Y8858333D02*
X2816666Y8925000D01*
D10*
X2950000Y8858333D02*
X2883333Y8858333D01*
D10*
X3016666Y8891667D02*
X2950000Y8858333D01*
D10*
X3050000Y8925000D02*
X3016666Y8891667D01*
D10*
X3083333Y8991667D02*
X3050000Y8925000D01*
D10*
X3150000Y9191667D02*
X3083333Y8991667D01*
D10*
X3183333Y9258333D02*
X3150000Y9191667D01*
D10*
X3216666Y9291667D02*
X3183333Y9258333D01*
D10*
X3283333Y9325000D02*
X3216666Y9291667D01*
D10*
X3383333Y9325000D02*
X3283333Y9325000D01*
D10*
X3450000Y9258333D02*
X3383333Y9325000D01*
D10*
X3483333Y9158333D02*
X3450000Y9258333D01*
D10*
X3483333Y9025000D02*
X3483333Y9158333D01*
D10*
X3450000Y8925000D02*
X3483333Y9025000D01*
D10*
X3383333Y8858333D02*
X3450000Y8925000D01*
D10*
X3483333Y9658333D02*
X2783333Y9491667D01*
D10*
X3483333Y9658333D02*
X2783333Y9825000D01*
D10*
X3483333Y9991667D02*
X2783333Y9825000D01*
D10*
X3483333Y9991667D02*
X2783333Y10158333D01*
D10*
X-23600000Y12083333D02*
X-23600000Y12616667D01*
D10*
X-23633334Y11983333D02*
X-23600000Y12083333D01*
D10*
X-23666666Y11950000D02*
X-23633334Y11983333D01*
D10*
X-23733334Y11916667D02*
X-23666666Y11950000D01*
D10*
X-23800000Y11916667D02*
X-23733334Y11916667D01*
D10*
X-23866666Y11950000D02*
X-23800000Y11916667D01*
D10*
X-23900000Y11983333D02*
X-23866666Y11950000D01*
D10*
X-23933334Y12083333D02*
X-23900000Y11983333D01*
D10*
X-23933334Y12150000D02*
X-23933334Y12083333D01*
D10*
X-22933334Y12616667D02*
X-23300000Y12616667D01*
D10*
X-23133334Y12350000D02*
X-22933334Y12616667D01*
D10*
X-23033334Y12350000D02*
X-23133334Y12350000D01*
D10*
X-22966666Y12316667D02*
X-23033334Y12350000D01*
D10*
X-22933334Y12283333D02*
X-22966666Y12316667D01*
D10*
X-22900000Y12183333D02*
X-22933334Y12283333D01*
D10*
X-22900000Y12116667D02*
X-22900000Y12183333D01*
D10*
X-22933334Y12016667D02*
X-22900000Y12116667D01*
D10*
X-23000000Y11950000D02*
X-22933334Y12016667D01*
D10*
X-23100000Y11916667D02*
X-23000000Y11950000D01*
D10*
X-23200000Y11916667D02*
X-23100000Y11916667D01*
D10*
X-23300000Y11950000D02*
X-23200000Y11916667D01*
D10*
X-23333334Y11983333D02*
X-23300000Y11950000D01*
D10*
X-23366666Y12050000D02*
X-23333334Y11983333D01*
D10*
X-17916666Y4066666D02*
X-18516666Y4066666D01*
D10*
X-18216666Y4366666D02*
X-18216666Y3766666D01*
D10*
X-8800000Y8266666D02*
X-8766667Y8200000D01*
D10*
X-8866667Y8333333D02*
X-8800000Y8266666D01*
D10*
X-8933333Y8366666D02*
X-8866667Y8333333D01*
D10*
X-9066667Y8366666D02*
X-8933333Y8366666D01*
D10*
X-9133333Y8333333D02*
X-9066667Y8366666D01*
D10*
X-9200000Y8266666D02*
X-9133333Y8333333D01*
D10*
X-9233333Y8200000D02*
X-9200000Y8266666D01*
D10*
X-9266667Y8100000D02*
X-9233333Y8200000D01*
D10*
X-9266667Y7933333D02*
X-9266667Y8100000D01*
D10*
X-9233333Y7833333D02*
X-9266667Y7933333D01*
D10*
X-9200000Y7766666D02*
X-9233333Y7833333D01*
D10*
X-9133333Y7700000D02*
X-9200000Y7766666D01*
D10*
X-9066667Y7666666D02*
X-9133333Y7700000D01*
D10*
X-8933333Y7666666D02*
X-9066667Y7666666D01*
D10*
X-8866667Y7700000D02*
X-8933333Y7666666D01*
D10*
X-8800000Y7766666D02*
X-8866667Y7700000D01*
D10*
X-8766667Y7833333D02*
X-8800000Y7766666D01*
D10*
X-8400000Y8266666D02*
X-8466667Y8233333D01*
D10*
X-8300000Y8366666D02*
X-8400000Y8266666D01*
D10*
X-8300000Y7666666D02*
X-8300000Y8366666D01*
D10*
X10516667Y9916667D02*
X10516667Y10616667D01*
D10*
X10750000Y10616667D02*
X10516667Y10616667D01*
D10*
X10850000Y10583333D02*
X10750000Y10616667D01*
D10*
X10916667Y10516667D02*
X10850000Y10583333D01*
D10*
X10950000Y10450000D02*
X10916667Y10516667D01*
D10*
X10983333Y10350000D02*
X10950000Y10450000D01*
D10*
X10983333Y10183333D02*
X10983333Y10350000D01*
D10*
X10950000Y10083333D02*
X10983333Y10183333D01*
D10*
X10916667Y10016667D02*
X10950000Y10083333D01*
D10*
X10850000Y9950000D02*
X10916667Y10016667D01*
D10*
X10750000Y9916667D02*
X10850000Y9950000D01*
D10*
X10516667Y9916667D02*
X10750000Y9916667D01*
D10*
X11616667Y10616667D02*
X11250000Y10616667D01*
D10*
X11416667Y10350000D02*
X11616667Y10616667D01*
D10*
X11516667Y10350000D02*
X11416667Y10350000D01*
D10*
X11583333Y10316667D02*
X11516667Y10350000D01*
D10*
X11616667Y10283333D02*
X11583333Y10316667D01*
D10*
X11650000Y10183333D02*
X11616667Y10283333D01*
D10*
X11650000Y10116667D02*
X11650000Y10183333D01*
D10*
X11616667Y10016667D02*
X11650000Y10116667D01*
D10*
X11550000Y9950000D02*
X11616667Y10016667D01*
D10*
X11450000Y9916667D02*
X11550000Y9950000D01*
D10*
X11350000Y9916667D02*
X11450000Y9916667D01*
D10*
X11250000Y9950000D02*
X11350000Y9916667D01*
D10*
X11216667Y9983333D02*
X11250000Y9950000D01*
D10*
X11183333Y10050000D02*
X11216667Y9983333D01*
D10*
X6983333Y8641667D02*
X6283333Y8641667D01*
D10*
X6283333Y8941667D02*
X6283333Y8641667D01*
D10*
X6316666Y9041667D02*
X6283333Y8941667D01*
D10*
X6350000Y9075000D02*
X6316666Y9041667D01*
D10*
X6416666Y9108333D02*
X6350000Y9075000D01*
D10*
X6516666Y9108333D02*
X6416666Y9108333D01*
D10*
X6583333Y9075000D02*
X6516666Y9108333D01*
D10*
X6616666Y9041667D02*
X6583333Y9075000D01*
D10*
X6650000Y8941667D02*
X6616666Y9041667D01*
D10*
X6650000Y8641667D02*
X6650000Y8941667D01*
D10*
X6983333Y9241667D02*
X6283333Y9508333D01*
D10*
X6983333Y9775000D02*
X6283333Y9508333D01*
D10*
X6750000Y9675000D02*
X6750000Y9341667D01*
D10*
X6383333Y10075000D02*
X6416666Y10008333D01*
D10*
X6283333Y10175000D02*
X6383333Y10075000D01*
D10*
X6983333Y10175000D02*
X6283333Y10175000D01*
D10*
X4783333Y8541667D02*
X4083333Y8541667D01*
D10*
X4083333Y8841667D02*
X4083333Y8541667D01*
D10*
X4116666Y8941667D02*
X4083333Y8841667D01*
D10*
X4150000Y8975000D02*
X4116666Y8941667D01*
D10*
X4216666Y9008333D02*
X4150000Y8975000D01*
D10*
X4316666Y9008333D02*
X4216666Y9008333D01*
D10*
X4383333Y8975000D02*
X4316666Y9008333D01*
D10*
X4416666Y8941667D02*
X4383333Y8975000D01*
D10*
X4450000Y8841667D02*
X4416666Y8941667D01*
D10*
X4450000Y8541667D02*
X4450000Y8841667D01*
D10*
X4783333Y9241667D02*
X4083333Y9241667D01*
D10*
X4083333Y9541667D02*
X4083333Y9241667D01*
D10*
X4116666Y9641667D02*
X4083333Y9541667D01*
D10*
X4150000Y9675000D02*
X4116666Y9641667D01*
D10*
X4216666Y9708333D02*
X4150000Y9675000D01*
D10*
X4283333Y9708333D02*
X4216666Y9708333D01*
D10*
X4350000Y9675000D02*
X4283333Y9708333D01*
D10*
X4383333Y9641667D02*
X4350000Y9675000D01*
D10*
X4416666Y9541667D02*
X4383333Y9641667D01*
D10*
X4416666Y9541667D02*
X4416666Y9241667D01*
D10*
X4450000Y9641667D02*
X4416666Y9541667D01*
D10*
X4483333Y9675000D02*
X4450000Y9641667D01*
D10*
X4550000Y9708333D02*
X4483333Y9675000D01*
D10*
X4650000Y9708333D02*
X4550000Y9708333D01*
D10*
X4716666Y9675000D02*
X4650000Y9708333D01*
D10*
X4750000Y9641667D02*
X4716666Y9675000D01*
D10*
X4783333Y9541667D02*
X4750000Y9641667D01*
D10*
X4783333Y9241667D02*
X4783333Y9541667D01*
D10*
X4183333Y10075000D02*
X4216666Y10008333D01*
D10*
X4083333Y10175000D02*
X4183333Y10075000D01*
D10*
X4783333Y10175000D02*
X4083333Y10175000D01*
D10*
X-13143333Y16486667D02*
X-13110000Y16420000D01*
D10*
X-13210000Y16553333D02*
X-13143333Y16486667D01*
D10*
X-13276667Y16586667D02*
X-13210000Y16553333D01*
D10*
X-13410000Y16586667D02*
X-13276667Y16586667D01*
D10*
X-13476667Y16553333D02*
X-13410000Y16586667D01*
D10*
X-13543333Y16486667D02*
X-13476667Y16553333D01*
D10*
X-13576667Y16420000D02*
X-13543333Y16486667D01*
D10*
X-13610000Y16320000D02*
X-13576667Y16420000D01*
D10*
X-13610000Y16153333D02*
X-13610000Y16320000D01*
D10*
X-13576667Y16053333D02*
X-13610000Y16153333D01*
D10*
X-13543333Y15986667D02*
X-13576667Y16053333D01*
D10*
X-13476667Y15920000D02*
X-13543333Y15986667D01*
D10*
X-13410000Y15886667D02*
X-13476667Y15920000D01*
D10*
X-13276667Y15886667D02*
X-13410000Y15886667D01*
D10*
X-13210000Y15920000D02*
X-13276667Y15886667D01*
D10*
X-13143333Y15986667D02*
X-13210000Y15920000D01*
D10*
X-13110000Y16053333D02*
X-13143333Y15986667D01*
D10*
X-12876667Y15886667D02*
X-12876667Y16586667D01*
D10*
X-12476667Y15886667D02*
X-12876667Y15886667D01*
D10*
X-12310000Y15886667D02*
X-12310000Y16586667D01*
D10*
X-12310000Y16120000D02*
X-11843333Y16586667D01*
D10*
X-11843333Y15886667D02*
X-12143333Y16286667D01*
D10*
X17633334Y8416667D02*
X17633334Y9116667D01*
D10*
X17933334Y9116667D02*
X17633334Y9116667D01*
D10*
X18033334Y9083333D02*
X17933334Y9116667D01*
D10*
X18066666Y9050000D02*
X18033334Y9083333D01*
D10*
X18100000Y8983333D02*
X18066666Y9050000D01*
D10*
X18100000Y8883333D02*
X18100000Y8983333D01*
D10*
X18066666Y8816667D02*
X18100000Y8883333D01*
D10*
X18033334Y8783333D02*
X18066666Y8816667D01*
D10*
X17933334Y8750000D02*
X18033334Y8783333D01*
D10*
X17633334Y8750000D02*
X17933334Y8750000D01*
D10*
X18233334Y8416667D02*
X18500000Y9116667D01*
D10*
X18766666Y8416667D02*
X18500000Y9116667D01*
D10*
X18666666Y8650000D02*
X18333334Y8650000D01*
D10*
X19333334Y9116667D02*
X18966666Y9116667D01*
D10*
X19133334Y8850000D02*
X19333334Y9116667D01*
D10*
X19233334Y8850000D02*
X19133334Y8850000D01*
D10*
X19300000Y8816667D02*
X19233334Y8850000D01*
D10*
X19333334Y8783333D02*
X19300000Y8816667D01*
D10*
X19366666Y8683333D02*
X19333334Y8783333D01*
D10*
X19366666Y8616667D02*
X19366666Y8683333D01*
D10*
X19333334Y8516667D02*
X19366666Y8616667D01*
D10*
X19266666Y8450000D02*
X19333334Y8516667D01*
D10*
X19166666Y8416667D02*
X19266666Y8450000D01*
D10*
X19066666Y8416667D02*
X19166666Y8416667D01*
D10*
X18966666Y8450000D02*
X19066666Y8416667D01*
D10*
X18933334Y8483333D02*
X18966666Y8450000D01*
D10*
X18900000Y8550000D02*
X18933334Y8483333D01*
D10*
X-20274000Y1190666D02*
X-20540666Y1890666D01*
D10*
X-20274000Y1190666D02*
X-20007334Y1890666D01*
D10*
X-19840666Y1190666D02*
X-19840666Y1890666D01*
D10*
X-19607334Y1890666D02*
X-19840666Y1890666D01*
D10*
X-19507334Y1857333D02*
X-19607334Y1890666D01*
D10*
X-19440666Y1790666D02*
X-19507334Y1857333D01*
D10*
X-19407334Y1724000D02*
X-19440666Y1790666D01*
D10*
X-19374000Y1624000D02*
X-19407334Y1724000D01*
D10*
X-19374000Y1457333D02*
X-19374000Y1624000D01*
D10*
X-19407334Y1357333D02*
X-19374000Y1457333D01*
D10*
X-19440666Y1290666D02*
X-19407334Y1357333D01*
D10*
X-19507334Y1224000D02*
X-19440666Y1290666D01*
D10*
X-19607334Y1190666D02*
X-19507334Y1224000D01*
D10*
X-19840666Y1190666D02*
X-19607334Y1190666D01*
D10*
X-19140666Y1190666D02*
X-19140666Y1890666D01*
D10*
X-18907334Y1890666D02*
X-19140666Y1890666D01*
D10*
X-18807334Y1857333D02*
X-18907334Y1890666D01*
D10*
X-18740666Y1790666D02*
X-18807334Y1857333D01*
D10*
X-18707334Y1724000D02*
X-18740666Y1790666D01*
D10*
X-18674000Y1624000D02*
X-18707334Y1724000D01*
D10*
X-18674000Y1457333D02*
X-18674000Y1624000D01*
D10*
X-18707334Y1357333D02*
X-18674000Y1457333D01*
D10*
X-18740666Y1290666D02*
X-18707334Y1357333D01*
D10*
X-18807334Y1224000D02*
X-18740666Y1290666D01*
D10*
X-18907334Y1190666D02*
X-18807334Y1224000D01*
D10*
X-19140666Y1190666D02*
X-18907334Y1190666D01*
D10*
X8766667Y9916667D02*
X8766667Y10616667D01*
D10*
X9066667Y10616667D02*
X8766667Y10616667D01*
D10*
X9166667Y10583333D02*
X9066667Y10616667D01*
D10*
X9200000Y10550000D02*
X9166667Y10583333D01*
D10*
X9233333Y10483333D02*
X9200000Y10550000D01*
D10*
X9233333Y10416667D02*
X9233333Y10483333D01*
D10*
X9200000Y10350000D02*
X9233333Y10416667D01*
D10*
X9166667Y10316667D02*
X9200000Y10350000D01*
D10*
X9066667Y10283333D02*
X9166667Y10316667D01*
D10*
X8766667Y10283333D02*
X9066667Y10283333D01*
D10*
X9233333Y9916667D02*
X9000000Y10283333D01*
D10*
X9500000Y10583333D02*
X9600000Y10616667D01*
D10*
X9466667Y10516667D02*
X9500000Y10583333D01*
D10*
X9466667Y10450000D02*
X9466667Y10516667D01*
D10*
X9500000Y10383333D02*
X9466667Y10450000D01*
D10*
X9566667Y10350000D02*
X9500000Y10383333D01*
D10*
X9700000Y10316667D02*
X9566667Y10350000D01*
D10*
X9800000Y10283333D02*
X9700000Y10316667D01*
D10*
X9866667Y10216667D02*
X9800000Y10283333D01*
D10*
X9900000Y10150000D02*
X9866667Y10216667D01*
D10*
X9900000Y10050000D02*
X9900000Y10150000D01*
D10*
X9866667Y9983333D02*
X9900000Y10050000D01*
D10*
X9833333Y9950000D02*
X9866667Y9983333D01*
D10*
X9733333Y9916667D02*
X9833333Y9950000D01*
D10*
X9600000Y9916667D02*
X9733333Y9916667D01*
D10*
X9500000Y9950000D02*
X9600000Y9916667D01*
D10*
X9466667Y9983333D02*
X9500000Y9950000D01*
D10*
X9433333Y10050000D02*
X9466667Y9983333D01*
D10*
X9433333Y10150000D02*
X9433333Y10050000D01*
D10*
X9466667Y10216667D02*
X9433333Y10150000D01*
D10*
X9533333Y10283333D02*
X9466667Y10216667D01*
D10*
X9633333Y10316667D02*
X9533333Y10283333D01*
D10*
X9766667Y10350000D02*
X9633333Y10316667D01*
D10*
X9833333Y10383333D02*
X9766667Y10350000D01*
D10*
X9866667Y10450000D02*
X9833333Y10383333D01*
D10*
X9866667Y10516667D02*
X9866667Y10450000D01*
D10*
X9833333Y10583333D02*
X9866667Y10516667D01*
D10*
X9733333Y10616667D02*
X9833333Y10583333D01*
D10*
X9600000Y10616667D02*
X9733333Y10616667D01*
D10*
X-18250000Y17833334D02*
X-18250000Y18366666D01*
D10*
X-18283334Y17733334D02*
X-18250000Y17833334D01*
D10*
X-18316666Y17700000D02*
X-18283334Y17733334D01*
D10*
X-18383334Y17666666D02*
X-18316666Y17700000D01*
D10*
X-18450000Y17666666D02*
X-18383334Y17666666D01*
D10*
X-18516666Y17700000D02*
X-18450000Y17666666D01*
D10*
X-18550000Y17733334D02*
X-18516666Y17700000D01*
D10*
X-18583334Y17833334D02*
X-18550000Y17733334D01*
D10*
X-18583334Y17900000D02*
X-18583334Y17833334D01*
D10*
X-17983334Y17666666D02*
X-17983334Y18366666D01*
D10*
X-17683334Y18366666D02*
X-17983334Y18366666D01*
D10*
X-17583334Y18333334D02*
X-17683334Y18366666D01*
D10*
X-17550000Y18300000D02*
X-17583334Y18333334D01*
D10*
X-17516666Y18233334D02*
X-17550000Y18300000D01*
D10*
X-17516666Y18133334D02*
X-17516666Y18233334D01*
D10*
X-17550000Y18066666D02*
X-17516666Y18133334D01*
D10*
X-17583334Y18033334D02*
X-17550000Y18066666D01*
D10*
X-17683334Y18000000D02*
X-17583334Y18033334D01*
D10*
X-17983334Y18000000D02*
X-17683334Y18000000D01*
D10*
X-17183334Y17666666D02*
X-16850000Y18366666D01*
D10*
X-16850000Y18366666D02*
X-17316666Y18366666D01*
D10*
X11717333Y1190666D02*
X11984000Y1890666D01*
D10*
X12250667Y1190666D02*
X11984000Y1890666D01*
D10*
X12150667Y1424000D02*
X11817333Y1424000D01*
D10*
X12550667Y1790666D02*
X12484000Y1757333D01*
D10*
X12650667Y1890666D02*
X12550667Y1790666D01*
D10*
X12650667Y1190666D02*
X12650667Y1890666D01*
D10*
X13484000Y1890666D02*
X13117333Y1890666D01*
D10*
X13284000Y1624000D02*
X13484000Y1890666D01*
D10*
X13384000Y1624000D02*
X13284000Y1624000D01*
D10*
X13450667Y1590666D02*
X13384000Y1624000D01*
D10*
X13484000Y1557333D02*
X13450667Y1590666D01*
D10*
X13517333Y1457333D02*
X13484000Y1557333D01*
D10*
X13517333Y1390666D02*
X13517333Y1457333D01*
D10*
X13484000Y1290666D02*
X13517333Y1390666D01*
D10*
X13417333Y1224000D02*
X13484000Y1290666D01*
D10*
X13317333Y1190666D02*
X13417333Y1224000D01*
D10*
X13217333Y1190666D02*
X13317333Y1190666D01*
D10*
X13117333Y1224000D02*
X13217333Y1190666D01*
D10*
X13084000Y1257333D02*
X13117333Y1224000D01*
D10*
X13050667Y1324000D02*
X13084000Y1257333D01*
D10*
X19050000Y1190666D02*
X18783334Y1890666D01*
D10*
X19050000Y1190666D02*
X19316666Y1890666D01*
D10*
X19483334Y1190666D02*
X19483334Y1890666D01*
D10*
X19716666Y1890666D02*
X19483334Y1890666D01*
D10*
X19816666Y1857333D02*
X19716666Y1890666D01*
D10*
X19883334Y1790666D02*
X19816666Y1857333D01*
D10*
X19916666Y1724000D02*
X19883334Y1790666D01*
D10*
X19950000Y1624000D02*
X19916666Y1724000D01*
D10*
X19950000Y1457333D02*
X19950000Y1624000D01*
D10*
X19916666Y1357333D02*
X19950000Y1457333D01*
D10*
X19883334Y1290666D02*
X19916666Y1357333D01*
D10*
X19816666Y1224000D02*
X19883334Y1290666D01*
D10*
X19716666Y1190666D02*
X19816666Y1224000D01*
D10*
X19483334Y1190666D02*
X19716666Y1190666D01*
D10*
X20183334Y1190666D02*
X20183334Y1890666D01*
D10*
X20416666Y1890666D02*
X20183334Y1890666D01*
D10*
X20516666Y1857333D02*
X20416666Y1890666D01*
D10*
X20583334Y1790666D02*
X20516666Y1857333D01*
D10*
X20616666Y1724000D02*
X20583334Y1790666D01*
D10*
X20650000Y1624000D02*
X20616666Y1724000D01*
D10*
X20650000Y1457333D02*
X20650000Y1624000D01*
D10*
X20616666Y1357333D02*
X20650000Y1457333D01*
D10*
X20583334Y1290666D02*
X20616666Y1357333D01*
D10*
X20516666Y1224000D02*
X20583334Y1290666D01*
D10*
X20416666Y1190666D02*
X20516666Y1224000D01*
D10*
X20183334Y1190666D02*
X20416666Y1190666D01*
D10*
X5000000Y12833333D02*
X5000000Y13366667D01*
D10*
X4966667Y12733333D02*
X5000000Y12833333D01*
D10*
X4933333Y12700000D02*
X4966667Y12733333D01*
D10*
X4866667Y12666667D02*
X4933333Y12700000D01*
D10*
X4800000Y12666667D02*
X4866667Y12666667D01*
D10*
X4733333Y12700000D02*
X4800000Y12666667D01*
D10*
X4700000Y12733333D02*
X4733333Y12700000D01*
D10*
X4666667Y12833333D02*
X4700000Y12733333D01*
D10*
X4666667Y12900000D02*
X4666667Y12833333D01*
D10*
X5266667Y12666667D02*
X5266667Y13366667D01*
D10*
X5566666Y13366667D02*
X5266667Y13366667D01*
D10*
X5666666Y13333333D02*
X5566666Y13366667D01*
D10*
X5700000Y13300000D02*
X5666666Y13333333D01*
D10*
X5733333Y13233333D02*
X5700000Y13300000D01*
D10*
X5733333Y13133333D02*
X5733333Y13233333D01*
D10*
X5700000Y13066667D02*
X5733333Y13133333D01*
D10*
X5666666Y13033333D02*
X5700000Y13066667D01*
D10*
X5566666Y13000000D02*
X5666666Y13033333D01*
D10*
X5266667Y13000000D02*
X5566666Y13000000D01*
D10*
X5933333Y12900000D02*
X6266666Y13366667D01*
D10*
X6433333Y12900000D02*
X5933333Y12900000D01*
D10*
X6266666Y12666667D02*
X6266666Y13366667D01*
D10*
X10516667Y6916666D02*
X10516667Y7616666D01*
D10*
X10750000Y7616666D02*
X10516667Y7616666D01*
D10*
X10850000Y7583333D02*
X10750000Y7616666D01*
D10*
X10916667Y7516666D02*
X10850000Y7583333D01*
D10*
X10950000Y7450000D02*
X10916667Y7516666D01*
D10*
X10983333Y7350000D02*
X10950000Y7450000D01*
D10*
X10983333Y7183333D02*
X10983333Y7350000D01*
D10*
X10950000Y7083333D02*
X10983333Y7183333D01*
D10*
X10916667Y7016666D02*
X10950000Y7083333D01*
D10*
X10850000Y6950000D02*
X10916667Y7016666D01*
D10*
X10750000Y6916666D02*
X10850000Y6950000D01*
D10*
X10516667Y6916666D02*
X10750000Y6916666D01*
D10*
X11250000Y7616666D02*
X11583333Y7616666D01*
D10*
X11216667Y7316666D02*
X11250000Y7616666D01*
D10*
X11250000Y7350000D02*
X11216667Y7316666D01*
D10*
X11350000Y7383333D02*
X11250000Y7350000D01*
D10*
X11450000Y7383333D02*
X11350000Y7383333D01*
D10*
X11550000Y7350000D02*
X11450000Y7383333D01*
D10*
X11616667Y7283333D02*
X11550000Y7350000D01*
D10*
X11650000Y7183333D02*
X11616667Y7283333D01*
D10*
X11650000Y7116666D02*
X11650000Y7183333D01*
D10*
X11616667Y7016666D02*
X11650000Y7116666D01*
D10*
X11550000Y6950000D02*
X11616667Y7016666D01*
D10*
X11450000Y6916666D02*
X11550000Y6950000D01*
D10*
X11350000Y6916666D02*
X11450000Y6916666D01*
D10*
X11250000Y6950000D02*
X11350000Y6916666D01*
D10*
X11216667Y6983333D02*
X11250000Y6950000D01*
D10*
X11183333Y7050000D02*
X11216667Y6983333D01*
D10*
X-21002666Y9675000D02*
X-21702666Y9408333D01*
D10*
X-21002666Y9675000D02*
X-21702666Y9941667D01*
D10*
X-21002666Y10108333D02*
X-21702666Y10108333D01*
D10*
X-21002666Y10375000D02*
X-21702666Y10375000D01*
D10*
X-21002666Y10841667D02*
X-21702666Y10375000D01*
D10*
X-21002666Y10841667D02*
X-21702666Y10841667D01*
D10*
X-21002666Y2309000D02*
X-21702666Y2042333D01*
D10*
X-21002666Y2309000D02*
X-21702666Y2575666D01*
D10*
X-21002666Y2742333D02*
X-21702666Y2742333D01*
D10*
X-21002666Y3009000D02*
X-21702666Y3009000D01*
D10*
X-21002666Y3475666D02*
X-21702666Y3009000D01*
D10*
X-21002666Y3475666D02*
X-21702666Y3475666D01*
D10*
X7616666Y9308333D02*
X7583333Y9375000D01*
D10*
X7683333Y9241667D02*
X7616666Y9308333D01*
D10*
X7750000Y9208333D02*
X7683333Y9241667D01*
D10*
X7850000Y9175000D02*
X7750000Y9208333D01*
D10*
X8016666Y9175000D02*
X7850000Y9175000D01*
D10*
X8116666Y9208333D02*
X8016666Y9175000D01*
D10*
X8183333Y9241667D02*
X8116666Y9208333D01*
D10*
X8250000Y9308333D02*
X8183333Y9241667D01*
D10*
X8283333Y9375000D02*
X8250000Y9308333D01*
D10*
X8283333Y9508333D02*
X8283333Y9375000D01*
D10*
X8250000Y9575000D02*
X8283333Y9508333D01*
D10*
X8183333Y9641667D02*
X8250000Y9575000D01*
D10*
X8116666Y9675000D02*
X8183333Y9641667D01*
D10*
X8016666Y9708333D02*
X8116666Y9675000D01*
D10*
X7850000Y9708333D02*
X8016666Y9708333D01*
D10*
X7750000Y9675000D02*
X7850000Y9708333D01*
D10*
X7683333Y9641667D02*
X7750000Y9675000D01*
D10*
X7616666Y9575000D02*
X7683333Y9641667D01*
D10*
X7583333Y9508333D02*
X7616666Y9575000D01*
D10*
X7583333Y9375000D02*
X7583333Y9508333D01*
D10*
X8350000Y9675000D02*
X8150000Y9475000D01*
D10*
X7683333Y10075000D02*
X7716666Y10008333D01*
D10*
X7583333Y10175000D02*
X7683333Y10075000D01*
D10*
X8283333Y10175000D02*
X7583333Y10175000D01*
D10*
X2233333Y12666667D02*
X2233333Y13366667D01*
D10*
X2533333Y13366667D02*
X2233333Y13366667D01*
D10*
X2633333Y13333333D02*
X2533333Y13366667D01*
D10*
X2666666Y13300000D02*
X2633333Y13333333D01*
D10*
X2700000Y13233333D02*
X2666666Y13300000D01*
D10*
X2700000Y13166667D02*
X2700000Y13233333D01*
D10*
X2666666Y13100000D02*
X2700000Y13166667D01*
D10*
X2633333Y13066667D02*
X2666666Y13100000D01*
D10*
X2533333Y13033333D02*
X2633333Y13066667D01*
D10*
X2233333Y13033333D02*
X2533333Y13033333D01*
D10*
X2700000Y12666667D02*
X2466666Y13033333D01*
D10*
X3300000Y13333333D02*
X3366666Y13266667D01*
D10*
X3200000Y13366667D02*
X3300000Y13333333D01*
D10*
X3066666Y13366667D02*
X3200000Y13366667D01*
D10*
X2966666Y13333333D02*
X3066666Y13366667D01*
D10*
X2900000Y13266667D02*
X2966666Y13333333D01*
D10*
X2900000Y13200000D02*
X2900000Y13266667D01*
D10*
X2933333Y13133333D02*
X2900000Y13200000D01*
D10*
X2966666Y13100000D02*
X2933333Y13133333D01*
D10*
X3033333Y13066667D02*
X2966666Y13100000D01*
D10*
X3233333Y13000000D02*
X3033333Y13066667D01*
D10*
X3300000Y12966667D02*
X3233333Y13000000D01*
D10*
X3333333Y12933333D02*
X3300000Y12966667D01*
D10*
X3366666Y12866667D02*
X3333333Y12933333D01*
D10*
X3366666Y12766667D02*
X3366666Y12866667D01*
D10*
X3300000Y12700000D02*
X3366666Y12766667D01*
D10*
X3200000Y12666667D02*
X3300000Y12700000D01*
D10*
X3066666Y12666667D02*
X3200000Y12666667D01*
D10*
X2966666Y12700000D02*
X3066666Y12666667D01*
D10*
X2900000Y12766667D02*
X2966666Y12700000D01*
D10*
X3733333Y12666667D02*
X3733333Y13366667D01*
D10*
X3966666Y13366667D02*
X3500000Y13366667D01*
D10*
X-5554666Y1190666D02*
X-5288000Y1890666D01*
D10*
X-5021333Y1190666D02*
X-5288000Y1890666D01*
D10*
X-5121333Y1424000D02*
X-5454666Y1424000D01*
D10*
X-4454667Y1890666D02*
X-4821333Y1890666D01*
D10*
X-4654666Y1624000D02*
X-4454667Y1890666D01*
D10*
X-4554666Y1624000D02*
X-4654666Y1624000D01*
D10*
X-4488000Y1590666D02*
X-4554666Y1624000D01*
D10*
X-4454667Y1557333D02*
X-4488000Y1590666D01*
D10*
X-4421333Y1457333D02*
X-4454667Y1557333D01*
D10*
X-4421333Y1390666D02*
X-4421333Y1457333D01*
D10*
X-4454667Y1290666D02*
X-4421333Y1390666D01*
D10*
X-4521333Y1224000D02*
X-4454667Y1290666D01*
D10*
X-4621333Y1190666D02*
X-4521333Y1224000D01*
D10*
X-4721333Y1190666D02*
X-4621333Y1190666D01*
D10*
X-4821333Y1224000D02*
X-4721333Y1190666D01*
D10*
X-4854666Y1257333D02*
X-4821333Y1224000D01*
D10*
X-4888000Y1324000D02*
X-4854666Y1257333D01*
D10*
X-15683333Y16486667D02*
X-15650000Y16420000D01*
D10*
X-15750000Y16553333D02*
X-15683333Y16486667D01*
D10*
X-15816667Y16586667D02*
X-15750000Y16553333D01*
D10*
X-15950000Y16586667D02*
X-15816667Y16586667D01*
D10*
X-16016667Y16553333D02*
X-15950000Y16586667D01*
D10*
X-16083333Y16486667D02*
X-16016667Y16553333D01*
D10*
X-16116667Y16420000D02*
X-16083333Y16486667D01*
D10*
X-16150000Y16320000D02*
X-16116667Y16420000D01*
D10*
X-16150000Y16153333D02*
X-16150000Y16320000D01*
D10*
X-16116667Y16053333D02*
X-16150000Y16153333D01*
D10*
X-16083333Y15986667D02*
X-16116667Y16053333D01*
D10*
X-16016667Y15920000D02*
X-16083333Y15986667D01*
D10*
X-15950000Y15886667D02*
X-16016667Y15920000D01*
D10*
X-15816667Y15886667D02*
X-15950000Y15886667D01*
D10*
X-15750000Y15920000D02*
X-15816667Y15886667D01*
D10*
X-15683333Y15986667D02*
X-15750000Y15920000D01*
D10*
X-15650000Y16053333D02*
X-15683333Y15986667D01*
D10*
X-15650000Y16153333D02*
X-15650000Y16053333D01*
D10*
X-15650000Y16153333D02*
X-15816667Y16153333D01*
D10*
X-15416667Y15886667D02*
X-15416667Y16586667D01*
D10*
X-14950000Y15886667D02*
X-15416667Y16586667D01*
D10*
X-14950000Y15886667D02*
X-14950000Y16586667D01*
D10*
X-14683333Y15886667D02*
X-14683333Y16586667D01*
D10*
X-14450000Y16586667D02*
X-14683333Y16586667D01*
D10*
X-14350000Y16553333D02*
X-14450000Y16586667D01*
D10*
X-14283333Y16486667D02*
X-14350000Y16553333D01*
D10*
X-14250000Y16420000D02*
X-14283333Y16486667D01*
D10*
X-14216667Y16320000D02*
X-14250000Y16420000D01*
D10*
X-14216667Y16153333D02*
X-14216667Y16320000D01*
D10*
X-14250000Y16053333D02*
X-14216667Y16153333D01*
D10*
X-14283333Y15986667D02*
X-14250000Y16053333D01*
D10*
X-14350000Y15920000D02*
X-14283333Y15986667D01*
D10*
X-14450000Y15886667D02*
X-14350000Y15920000D01*
D10*
X-14683333Y15886667D02*
X-14450000Y15886667D01*
D10*
X12133333Y12666667D02*
X12133333Y13366667D01*
D10*
X12433333Y13366667D02*
X12133333Y13366667D01*
D10*
X12533333Y13333333D02*
X12433333Y13366667D01*
D10*
X12566667Y13300000D02*
X12533333Y13333333D01*
D10*
X12600000Y13233333D02*
X12566667Y13300000D01*
D10*
X12600000Y13133333D02*
X12600000Y13233333D01*
D10*
X12566667Y13066667D02*
X12600000Y13133333D01*
D10*
X12533333Y13033333D02*
X12566667Y13066667D01*
D10*
X12433333Y13000000D02*
X12533333Y13033333D01*
D10*
X12133333Y13000000D02*
X12433333Y13000000D01*
D10*
X12733333Y12666667D02*
X13000000Y13366667D01*
D10*
X13266667Y12666667D02*
X13000000Y13366667D01*
D10*
X13166667Y12900000D02*
X12833333Y12900000D01*
D10*
X13500000Y13333333D02*
X13600000Y13366667D01*
D10*
X13433333Y13233333D02*
X13500000Y13333333D01*
D10*
X13400000Y13066667D02*
X13433333Y13233333D01*
D10*
X13400000Y12966667D02*
X13400000Y13066667D01*
D10*
X13433333Y12800000D02*
X13400000Y12966667D01*
D10*
X13500000Y12700000D02*
X13433333Y12800000D01*
D10*
X13600000Y12666667D02*
X13500000Y12700000D01*
D10*
X13666667Y12666667D02*
X13600000Y12666667D01*
D10*
X13766667Y12700000D02*
X13666667Y12666667D01*
D10*
X13833333Y12800000D02*
X13766667Y12700000D01*
D10*
X13866667Y12966667D02*
X13833333Y12800000D01*
D10*
X13866667Y13066667D02*
X13866667Y12966667D01*
D10*
X13833333Y13233333D02*
X13866667Y13066667D01*
D10*
X13766667Y13333333D02*
X13833333Y13233333D01*
D10*
X13666667Y13366667D02*
X13766667Y13333333D01*
D10*
X13600000Y13366667D02*
X13666667Y13366667D01*
D10*
X-14366667Y3166666D02*
X-14366667Y3866666D01*
D10*
X-14066667Y3866666D02*
X-14366667Y3866666D01*
D10*
X-13966667Y3833333D02*
X-14066667Y3866666D01*
D10*
X-13933333Y3800000D02*
X-13966667Y3833333D01*
D10*
X-13900000Y3733333D02*
X-13933333Y3800000D01*
D10*
X-13900000Y3666666D02*
X-13900000Y3733333D01*
D10*
X-13933333Y3600000D02*
X-13900000Y3666666D01*
D10*
X-13966667Y3566666D02*
X-13933333Y3600000D01*
D10*
X-14066667Y3533333D02*
X-13966667Y3566666D01*
D10*
X-14366667Y3533333D02*
X-14066667Y3533333D01*
D10*
X-13900000Y3166666D02*
X-14133333Y3533333D01*
D10*
X-13533333Y3766666D02*
X-13600000Y3733333D01*
D10*
X-13433333Y3866666D02*
X-13533333Y3766666D01*
D10*
X-13433333Y3166666D02*
X-13433333Y3866666D01*
D10*
X-13000000Y3733333D02*
X-13000000Y3700000D01*
D10*
X-12966667Y3800000D02*
X-13000000Y3733333D01*
D10*
X-12933333Y3833333D02*
X-12966667Y3800000D01*
D10*
X-12866667Y3866666D02*
X-12933333Y3833333D01*
D10*
X-12733333Y3866666D02*
X-12866667Y3866666D01*
D10*
X-12666667Y3833333D02*
X-12733333Y3866666D01*
D10*
X-12633333Y3800000D02*
X-12666667Y3833333D01*
D10*
X-12600000Y3733333D02*
X-12633333Y3800000D01*
D10*
X-12600000Y3666666D02*
X-12600000Y3733333D01*
D10*
X-12633333Y3600000D02*
X-12600000Y3666666D01*
D10*
X-12700000Y3500000D02*
X-12633333Y3600000D01*
D10*
X-13033333Y3166666D02*
X-12700000Y3500000D01*
D10*
X-12566667Y3166666D02*
X-13033333Y3166666D01*
D10*
X-18154666Y1190666D02*
X-18154666Y1890666D01*
D10*
X-17721334Y1890666D02*
X-18154666Y1890666D01*
D10*
X-17888000Y1557333D02*
X-18154666Y1557333D01*
D10*
X-17488000Y1857333D02*
X-17388000Y1890666D01*
D10*
X-17554666Y1757333D02*
X-17488000Y1857333D01*
D10*
X-17588000Y1590666D02*
X-17554666Y1757333D01*
D10*
X-17588000Y1490666D02*
X-17588000Y1590666D01*
D10*
X-17554666Y1324000D02*
X-17588000Y1490666D01*
D10*
X-17488000Y1224000D02*
X-17554666Y1324000D01*
D10*
X-17388000Y1190666D02*
X-17488000Y1224000D01*
D10*
X-17321334Y1190666D02*
X-17388000Y1190666D01*
D10*
X-17221334Y1224000D02*
X-17321334Y1190666D01*
D10*
X-17154666Y1324000D02*
X-17221334Y1224000D01*
D10*
X-17121334Y1490666D02*
X-17154666Y1324000D01*
D10*
X-17121334Y1590666D02*
X-17121334Y1490666D01*
D10*
X-17154666Y1757333D02*
X-17121334Y1590666D01*
D10*
X-17221334Y1857333D02*
X-17154666Y1757333D01*
D10*
X-17321334Y1890666D02*
X-17221334Y1857333D01*
D10*
X-17388000Y1890666D02*
X-17321334Y1890666D01*
D10*
X-3000000Y15886667D02*
X-3266666Y16586667D01*
D10*
X-3000000Y15886667D02*
X-2733333Y16586667D01*
D10*
X-2566666Y15886667D02*
X-2566666Y16586667D01*
D10*
X-2300000Y15886667D02*
X-2300000Y16586667D01*
D10*
X-1833333Y15886667D02*
X-2300000Y16586667D01*
D10*
X-1833333Y15886667D02*
X-1833333Y16586667D01*
D10*
X21069334Y7122333D02*
X21136000Y7155667D01*
D10*
X21002666Y7055667D02*
X21069334Y7122333D01*
D10*
X20969334Y6989000D02*
X21002666Y7055667D01*
D10*
X20969334Y6855667D02*
X20969334Y6989000D01*
D10*
X21002666Y6789000D02*
X20969334Y6855667D01*
D10*
X21069334Y6722333D02*
X21002666Y6789000D01*
D10*
X21136000Y6689000D02*
X21069334Y6722333D01*
D10*
X21236000Y6655667D02*
X21136000Y6689000D01*
D10*
X21402666Y6655667D02*
X21236000Y6655667D01*
D10*
X21502666Y6689000D02*
X21402666Y6655667D01*
D10*
X21569334Y6722333D02*
X21502666Y6689000D01*
D10*
X21636000Y6789000D02*
X21569334Y6722333D01*
D10*
X21669334Y6855667D02*
X21636000Y6789000D01*
D10*
X21669334Y6989000D02*
X21669334Y6855667D01*
D10*
X21636000Y7055667D02*
X21669334Y6989000D01*
D10*
X21569334Y7122333D02*
X21636000Y7055667D01*
D10*
X21502666Y7155667D02*
X21569334Y7122333D01*
D10*
X21402666Y7155667D02*
X21502666Y7155667D01*
D10*
X21402666Y7155667D02*
X21402666Y6989000D01*
D10*
X21669334Y7389000D02*
X20969334Y7389000D01*
D10*
X21669334Y7855666D02*
X20969334Y7389000D01*
D10*
X21669334Y7855666D02*
X20969334Y7855666D01*
D10*
X21669334Y8122333D02*
X20969334Y8122333D01*
D10*
X20969334Y8355666D02*
X20969334Y8122333D01*
D10*
X21002666Y8455667D02*
X20969334Y8355666D01*
D10*
X21069334Y8522333D02*
X21002666Y8455667D01*
D10*
X21136000Y8555667D02*
X21069334Y8522333D01*
D10*
X21236000Y8589000D02*
X21136000Y8555667D01*
D10*
X21402666Y8589000D02*
X21236000Y8589000D01*
D10*
X21502666Y8555667D02*
X21402666Y8589000D01*
D10*
X21569334Y8522333D02*
X21502666Y8555667D01*
D10*
X21636000Y8455667D02*
X21569334Y8522333D01*
D10*
X21669334Y8355666D02*
X21636000Y8455667D01*
D10*
X21669334Y8122333D02*
X21669334Y8355666D01*
D10*
X-1083333Y14833333D02*
X-1016666Y14766667D01*
D10*
X-1183333Y14866667D02*
X-1083333Y14833333D01*
D10*
X-1316666Y14866667D02*
X-1183333Y14866667D01*
D10*
X-1416666Y14833333D02*
X-1316666Y14866667D01*
D10*
X-1483333Y14766667D02*
X-1416666Y14833333D01*
D10*
X-1483333Y14700000D02*
X-1483333Y14766667D01*
D10*
X-1450000Y14633333D02*
X-1483333Y14700000D01*
D10*
X-1416666Y14600000D02*
X-1450000Y14633333D01*
D10*
X-1350000Y14566667D02*
X-1416666Y14600000D01*
D10*
X-1150000Y14500000D02*
X-1350000Y14566667D01*
D10*
X-1083333Y14466667D02*
X-1150000Y14500000D01*
D10*
X-1050000Y14433333D02*
X-1083333Y14466667D01*
D10*
X-1016666Y14366667D02*
X-1050000Y14433333D01*
D10*
X-1016666Y14266667D02*
X-1016666Y14366667D01*
D10*
X-1083333Y14200000D02*
X-1016666Y14266667D01*
D10*
X-1183333Y14166667D02*
X-1083333Y14200000D01*
D10*
X-1316666Y14166667D02*
X-1183333Y14166667D01*
D10*
X-1416666Y14200000D02*
X-1316666Y14166667D01*
D10*
X-1483333Y14266667D02*
X-1416666Y14200000D01*
D10*
X-650000Y14766667D02*
X-716666Y14733333D01*
D10*
X-550000Y14866667D02*
X-650000Y14766667D01*
D10*
X-550000Y14166667D02*
X-550000Y14866667D01*
D10*
X2065333Y1190666D02*
X2332000Y1890666D01*
D10*
X2598666Y1190666D02*
X2332000Y1890666D01*
D10*
X2498666Y1424000D02*
X2165333Y1424000D01*
D10*
X3132000Y1857333D02*
X3165333Y1790666D01*
D10*
X3032000Y1890666D02*
X3132000Y1857333D01*
D10*
X2965333Y1890666D02*
X3032000Y1890666D01*
D10*
X2865333Y1857333D02*
X2965333Y1890666D01*
D10*
X2798666Y1757333D02*
X2865333Y1857333D01*
D10*
X2765333Y1590666D02*
X2798666Y1757333D01*
D10*
X2765333Y1424000D02*
X2765333Y1590666D01*
D10*
X2798666Y1290666D02*
X2765333Y1424000D01*
D10*
X2865333Y1224000D02*
X2798666Y1290666D01*
D10*
X2965333Y1190666D02*
X2865333Y1224000D01*
D10*
X2998666Y1190666D02*
X2965333Y1190666D01*
D10*
X3098666Y1224000D02*
X2998666Y1190666D01*
D10*
X3165333Y1290666D02*
X3098666Y1224000D01*
D10*
X3198666Y1390666D02*
X3165333Y1290666D01*
D10*
X3198666Y1424000D02*
X3198666Y1390666D01*
D10*
X3165333Y1524000D02*
X3198666Y1424000D01*
D10*
X3098666Y1590666D02*
X3165333Y1524000D01*
D10*
X2998666Y1624000D02*
X3098666Y1590666D01*
D10*
X2965333Y1624000D02*
X2998666Y1624000D01*
D10*
X2865333Y1590666D02*
X2965333Y1624000D01*
D10*
X2798666Y1524000D02*
X2865333Y1590666D01*
D10*
X2765333Y1424000D02*
X2798666Y1524000D01*
D10*
X17633334Y5416666D02*
X17633334Y6116666D01*
D10*
X17933334Y6116666D02*
X17633334Y6116666D01*
D10*
X18033334Y6083333D02*
X17933334Y6116666D01*
D10*
X18066666Y6050000D02*
X18033334Y6083333D01*
D10*
X18100000Y5983333D02*
X18066666Y6050000D01*
D10*
X18100000Y5883333D02*
X18100000Y5983333D01*
D10*
X18066666Y5816666D02*
X18100000Y5883333D01*
D10*
X18033334Y5783333D02*
X18066666Y5816666D01*
D10*
X17933334Y5750000D02*
X18033334Y5783333D01*
D10*
X17633334Y5750000D02*
X17933334Y5750000D01*
D10*
X18233334Y5416666D02*
X18500000Y6116666D01*
D10*
X18766666Y5416666D02*
X18500000Y6116666D01*
D10*
X18666666Y5650000D02*
X18333334Y5650000D01*
D10*
X19066666Y6016666D02*
X19000000Y5983333D01*
D10*
X19166666Y6116666D02*
X19066666Y6016666D01*
D10*
X19166666Y5416666D02*
X19166666Y6116666D01*
D10*
X19666666Y6083333D02*
X19766666Y6116666D01*
D10*
X19600000Y5983333D02*
X19666666Y6083333D01*
D10*
X19566666Y5816666D02*
X19600000Y5983333D01*
D10*
X19566666Y5716666D02*
X19566666Y5816666D01*
D10*
X19600000Y5550000D02*
X19566666Y5716666D01*
D10*
X19666666Y5450000D02*
X19600000Y5550000D01*
D10*
X19766666Y5416666D02*
X19666666Y5450000D01*
D10*
X19833334Y5416666D02*
X19766666Y5416666D01*
D10*
X19933334Y5450000D02*
X19833334Y5416666D01*
D10*
X20000000Y5550000D02*
X19933334Y5450000D01*
D10*
X20033334Y5716666D02*
X20000000Y5550000D01*
D10*
X20033334Y5816666D02*
X20033334Y5716666D01*
D10*
X20000000Y5983333D02*
X20033334Y5816666D01*
D10*
X19933334Y6083333D02*
X20000000Y5983333D01*
D10*
X19833334Y6116666D02*
X19933334Y6083333D01*
D10*
X19766666Y6116666D02*
X19833334Y6116666D01*
D10*
X8766667Y3416666D02*
X8766667Y4116666D01*
D10*
X9066667Y4116666D02*
X8766667Y4116666D01*
D10*
X9166667Y4083333D02*
X9066667Y4116666D01*
D10*
X9200000Y4050000D02*
X9166667Y4083333D01*
D10*
X9233333Y3983333D02*
X9200000Y4050000D01*
D10*
X9233333Y3916666D02*
X9233333Y3983333D01*
D10*
X9200000Y3850000D02*
X9233333Y3916666D01*
D10*
X9166667Y3816666D02*
X9200000Y3850000D01*
D10*
X9066667Y3783333D02*
X9166667Y3816666D01*
D10*
X8766667Y3783333D02*
X9066667Y3783333D01*
D10*
X9233333Y3416666D02*
X9000000Y3783333D01*
D10*
X9833333Y4083333D02*
X9866667Y4016666D01*
D10*
X9733333Y4116666D02*
X9833333Y4083333D01*
D10*
X9666667Y4116666D02*
X9733333Y4116666D01*
D10*
X9566667Y4083333D02*
X9666667Y4116666D01*
D10*
X9500000Y3983333D02*
X9566667Y4083333D01*
D10*
X9466667Y3816666D02*
X9500000Y3983333D01*
D10*
X9466667Y3650000D02*
X9466667Y3816666D01*
D10*
X9500000Y3516666D02*
X9466667Y3650000D01*
D10*
X9566667Y3450000D02*
X9500000Y3516666D01*
D10*
X9666667Y3416666D02*
X9566667Y3450000D01*
D10*
X9700000Y3416666D02*
X9666667Y3416666D01*
D10*
X9800000Y3450000D02*
X9700000Y3416666D01*
D10*
X9866667Y3516666D02*
X9800000Y3450000D01*
D10*
X9900000Y3616666D02*
X9866667Y3516666D01*
D10*
X9900000Y3650000D02*
X9900000Y3616666D01*
D10*
X9866667Y3750000D02*
X9900000Y3650000D01*
D10*
X9800000Y3816666D02*
X9866667Y3750000D01*
D10*
X9700000Y3850000D02*
X9800000Y3816666D01*
D10*
X9666667Y3850000D02*
X9700000Y3850000D01*
D10*
X9566667Y3816666D02*
X9666667Y3850000D01*
D10*
X9500000Y3750000D02*
X9566667Y3816666D01*
D10*
X9466667Y3650000D02*
X9500000Y3750000D01*
D10*
X-8496667Y15886667D02*
X-8496667Y16586667D01*
D10*
X-8196666Y16586667D02*
X-8496667Y16586667D01*
D10*
X-8096666Y16553333D02*
X-8196666Y16586667D01*
D10*
X-8063333Y16520000D02*
X-8096666Y16553333D01*
D10*
X-8030000Y16453333D02*
X-8063333Y16520000D01*
D10*
X-8030000Y16386667D02*
X-8030000Y16453333D01*
D10*
X-8063333Y16320000D02*
X-8030000Y16386667D01*
D10*
X-8096666Y16286667D02*
X-8063333Y16320000D01*
D10*
X-8196666Y16253333D02*
X-8096666Y16286667D01*
D10*
X-8496667Y16253333D02*
X-8196666Y16253333D01*
D10*
X-8030000Y15886667D02*
X-8263333Y16253333D01*
D10*
X-7430000Y16553333D02*
X-7363333Y16486667D01*
D10*
X-7530000Y16586667D02*
X-7430000Y16553333D01*
D10*
X-7663333Y16586667D02*
X-7530000Y16586667D01*
D10*
X-7763333Y16553333D02*
X-7663333Y16586667D01*
D10*
X-7830000Y16486667D02*
X-7763333Y16553333D01*
D10*
X-7830000Y16420000D02*
X-7830000Y16486667D01*
D10*
X-7796666Y16353333D02*
X-7830000Y16420000D01*
D10*
X-7763333Y16320000D02*
X-7796666Y16353333D01*
D10*
X-7696666Y16286667D02*
X-7763333Y16320000D01*
D10*
X-7496667Y16220000D02*
X-7696666Y16286667D01*
D10*
X-7430000Y16186667D02*
X-7496667Y16220000D01*
D10*
X-7396667Y16153333D02*
X-7430000Y16186667D01*
D10*
X-7363333Y16086667D02*
X-7396667Y16153333D01*
D10*
X-7363333Y15986667D02*
X-7363333Y16086667D01*
D10*
X-7430000Y15920000D02*
X-7363333Y15986667D01*
D10*
X-7530000Y15886667D02*
X-7430000Y15920000D01*
D10*
X-7663333Y15886667D02*
X-7530000Y15886667D01*
D10*
X-7763333Y15920000D02*
X-7663333Y15886667D01*
D10*
X-7830000Y15986667D02*
X-7763333Y15920000D01*
D10*
X-6996667Y15886667D02*
X-6996667Y16586667D01*
D10*
X-6763333Y16586667D02*
X-7230000Y16586667D01*
D10*
X-5790000Y15886667D02*
X-6056666Y16586667D01*
D10*
X-5790000Y15886667D02*
X-5523333Y16586667D01*
D10*
X-5356666Y15886667D02*
X-5356666Y16586667D01*
D10*
X-5123333Y16586667D02*
X-5356666Y16586667D01*
D10*
X-5023333Y16553333D02*
X-5123333Y16586667D01*
D10*
X-4956667Y16486667D02*
X-5023333Y16553333D01*
D10*
X-4923333Y16420000D02*
X-4956667Y16486667D01*
D10*
X-4890000Y16320000D02*
X-4923333Y16420000D01*
D10*
X-4890000Y16153333D02*
X-4890000Y16320000D01*
D10*
X-4923333Y16053333D02*
X-4890000Y16153333D01*
D10*
X-4956667Y15986667D02*
X-4923333Y16053333D01*
D10*
X-5023333Y15920000D02*
X-4956667Y15986667D01*
D10*
X-5123333Y15886667D02*
X-5023333Y15920000D01*
D10*
X-5356666Y15886667D02*
X-5123333Y15886667D01*
D10*
X-4656667Y15886667D02*
X-4656667Y16586667D01*
D10*
X-4423333Y16586667D02*
X-4656667Y16586667D01*
D10*
X-4323333Y16553333D02*
X-4423333Y16586667D01*
D10*
X-4256667Y16486667D02*
X-4323333Y16553333D01*
D10*
X-4223333Y16420000D02*
X-4256667Y16486667D01*
D10*
X-4190000Y16320000D02*
X-4223333Y16420000D01*
D10*
X-4190000Y16153333D02*
X-4190000Y16320000D01*
D10*
X-4223333Y16053333D02*
X-4190000Y16153333D01*
D10*
X-4256667Y15986667D02*
X-4223333Y16053333D01*
D10*
X-4323333Y15920000D02*
X-4256667Y15986667D01*
D10*
X-4423333Y15886667D02*
X-4323333Y15920000D01*
D10*
X-4656667Y15886667D02*
X-4423333Y15886667D01*
D10*
X-20134334Y2933666D02*
X-20101000Y2867000D01*
D10*
X-20201000Y3000333D02*
X-20134334Y2933666D01*
D10*
X-20267666Y3033666D02*
X-20201000Y3000333D01*
D10*
X-20401000Y3033666D02*
X-20267666Y3033666D01*
D10*
X-20467666Y3000333D02*
X-20401000Y3033666D01*
D10*
X-20534334Y2933666D02*
X-20467666Y3000333D01*
D10*
X-20567666Y2867000D02*
X-20534334Y2933666D01*
D10*
X-20601000Y2767000D02*
X-20567666Y2867000D01*
D10*
X-20601000Y2600333D02*
X-20601000Y2767000D01*
D10*
X-20567666Y2500333D02*
X-20601000Y2600333D01*
D10*
X-20534334Y2433666D02*
X-20567666Y2500333D01*
D10*
X-20467666Y2367000D02*
X-20534334Y2433666D01*
D10*
X-20401000Y2333666D02*
X-20467666Y2367000D01*
D10*
X-20267666Y2333666D02*
X-20401000Y2333666D01*
D10*
X-20201000Y2367000D02*
X-20267666Y2333666D01*
D10*
X-20134334Y2433666D02*
X-20201000Y2367000D01*
D10*
X-20101000Y2500333D02*
X-20134334Y2433666D01*
D10*
X-20101000Y2600333D02*
X-20101000Y2500333D01*
D10*
X-20101000Y2600333D02*
X-20267666Y2600333D01*
D10*
X-19867666Y2333666D02*
X-19867666Y3033666D01*
D10*
X-19401000Y2333666D02*
X-19867666Y3033666D01*
D10*
X-19401000Y2333666D02*
X-19401000Y3033666D01*
D10*
X-19134334Y2333666D02*
X-19134334Y3033666D01*
D10*
X-18901000Y3033666D02*
X-19134334Y3033666D01*
D10*
X-18801000Y3000333D02*
X-18901000Y3033666D01*
D10*
X-18734334Y2933666D02*
X-18801000Y3000333D01*
D10*
X-18701000Y2867000D02*
X-18734334Y2933666D01*
D10*
X-18667666Y2767000D02*
X-18701000Y2867000D01*
D10*
X-18667666Y2600333D02*
X-18667666Y2767000D01*
D10*
X-18701000Y2500333D02*
X-18667666Y2600333D01*
D10*
X-18734334Y2433666D02*
X-18701000Y2500333D01*
D10*
X-18801000Y2367000D02*
X-18734334Y2433666D01*
D10*
X-18901000Y2333666D02*
X-18801000Y2367000D01*
D10*
X-19134334Y2333666D02*
X-18901000Y2333666D01*
D10*
X-16352909Y14820852D02*
X-16319576Y14754185D01*
D10*
X-16419576Y14887518D02*
X-16352909Y14820852D01*
D10*
X-16486242Y14920852D02*
X-16419576Y14887518D01*
D10*
X-16619576Y14920852D02*
X-16486242Y14920852D01*
D10*
X-16686242Y14887518D02*
X-16619576Y14920852D01*
D10*
X-16752909Y14820852D02*
X-16686242Y14887518D01*
D10*
X-16786242Y14754185D02*
X-16752909Y14820852D01*
D10*
X-16819576Y14654185D02*
X-16786242Y14754185D01*
D10*
X-16819576Y14487518D02*
X-16819576Y14654185D01*
D10*
X-16786242Y14387518D02*
X-16819576Y14487518D01*
D10*
X-16752909Y14320852D02*
X-16786242Y14387518D01*
D10*
X-16686242Y14254185D02*
X-16752909Y14320852D01*
D10*
X-16619576Y14220852D02*
X-16686242Y14254185D01*
D10*
X-16486242Y14220852D02*
X-16619576Y14220852D01*
D10*
X-16419576Y14254185D02*
X-16486242Y14220852D01*
D10*
X-16352909Y14320852D02*
X-16419576Y14254185D01*
D10*
X-16319576Y14387518D02*
X-16352909Y14320852D01*
D10*
X-15686242Y14920852D02*
X-16052909Y14920852D01*
D10*
X-15886242Y14654185D02*
X-15686242Y14920852D01*
D10*
X-15786242Y14654185D02*
X-15886242Y14654185D01*
D10*
X-15719576Y14620852D02*
X-15786242Y14654185D01*
D10*
X-15686242Y14587518D02*
X-15719576Y14620852D01*
D10*
X-15652909Y14487518D02*
X-15686242Y14587518D01*
D10*
X-15652909Y14420852D02*
X-15652909Y14487518D01*
D10*
X-15686242Y14320852D02*
X-15652909Y14420852D01*
D10*
X-15752909Y14254185D02*
X-15686242Y14320852D01*
D10*
X-15852909Y14220852D02*
X-15752909Y14254185D01*
D10*
X-15952909Y14220852D02*
X-15852909Y14220852D01*
D10*
X-16052909Y14254185D02*
X-15952909Y14220852D01*
D10*
X-16086242Y14287518D02*
X-16052909Y14254185D01*
D10*
X-16119576Y14354185D02*
X-16086242Y14287518D01*
D10*
X-8094666Y1190666D02*
X-7828000Y1890666D01*
D10*
X-7561333Y1190666D02*
X-7828000Y1890666D01*
D10*
X-7661333Y1424000D02*
X-7994666Y1424000D01*
D10*
X-7394666Y1757333D02*
X-7394666Y1724000D01*
D10*
X-7361333Y1824000D02*
X-7394666Y1757333D01*
D10*
X-7328000Y1857333D02*
X-7361333Y1824000D01*
D10*
X-7261333Y1890666D02*
X-7328000Y1857333D01*
D10*
X-7128000Y1890666D02*
X-7261333Y1890666D01*
D10*
X-7061333Y1857333D02*
X-7128000Y1890666D01*
D10*
X-7028000Y1824000D02*
X-7061333Y1857333D01*
D10*
X-6994667Y1757333D02*
X-7028000Y1824000D01*
D10*
X-6994667Y1690666D02*
X-6994667Y1757333D01*
D10*
X-7028000Y1624000D02*
X-6994667Y1690666D01*
D10*
X-7094666Y1524000D02*
X-7028000Y1624000D01*
D10*
X-7428000Y1190666D02*
X-7094666Y1524000D01*
D10*
X-6961333Y1190666D02*
X-7428000Y1190666D01*
D10*
X-19433334Y6766666D02*
X-19400000Y6700000D01*
D10*
X-19500000Y6833333D02*
X-19433334Y6766666D01*
D10*
X-19566666Y6866666D02*
X-19500000Y6833333D01*
D10*
X-19700000Y6866666D02*
X-19566666Y6866666D01*
D10*
X-19766666Y6833333D02*
X-19700000Y6866666D01*
D10*
X-19833334Y6766666D02*
X-19766666Y6833333D01*
D10*
X-19866666Y6700000D02*
X-19833334Y6766666D01*
D10*
X-19900000Y6600000D02*
X-19866666Y6700000D01*
D10*
X-19900000Y6433333D02*
X-19900000Y6600000D01*
D10*
X-19866666Y6333333D02*
X-19900000Y6433333D01*
D10*
X-19833334Y6266666D02*
X-19866666Y6333333D01*
D10*
X-19766666Y6200000D02*
X-19833334Y6266666D01*
D10*
X-19700000Y6166666D02*
X-19766666Y6200000D01*
D10*
X-19566666Y6166666D02*
X-19700000Y6166666D01*
D10*
X-19500000Y6200000D02*
X-19566666Y6166666D01*
D10*
X-19433334Y6266666D02*
X-19500000Y6200000D01*
D10*
X-19400000Y6333333D02*
X-19433334Y6266666D01*
D10*
X-19200000Y6400000D02*
X-18866666Y6866666D01*
D10*
X-18700000Y6400000D02*
X-19200000Y6400000D01*
D10*
X-18866666Y6166666D02*
X-18866666Y6866666D01*
D10*
X4605333Y1190666D02*
X4872000Y1890666D01*
D10*
X5138666Y1190666D02*
X4872000Y1890666D01*
D10*
X5038666Y1424000D02*
X4705333Y1424000D01*
D10*
X5405333Y1190666D02*
X5738666Y1890666D01*
D10*
X5738666Y1890666D02*
X5272000Y1890666D01*
D10*
X8100000Y6916666D02*
X8100000Y7616666D01*
D10*
X8400000Y7616666D02*
X8100000Y7616666D01*
D10*
X8500000Y7583333D02*
X8400000Y7616666D01*
D10*
X8533333Y7550000D02*
X8500000Y7583333D01*
D10*
X8566667Y7483333D02*
X8533333Y7550000D01*
D10*
X8566667Y7416666D02*
X8566667Y7483333D01*
D10*
X8533333Y7350000D02*
X8566667Y7416666D01*
D10*
X8500000Y7316666D02*
X8533333Y7350000D01*
D10*
X8400000Y7283333D02*
X8500000Y7316666D01*
D10*
X8100000Y7283333D02*
X8400000Y7283333D01*
D10*
X8566667Y6916666D02*
X8333333Y7283333D01*
D10*
X8933333Y7516666D02*
X8866667Y7483333D01*
D10*
X9033333Y7616666D02*
X8933333Y7516666D01*
D10*
X9033333Y6916666D02*
X9033333Y7616666D01*
D10*
X9533333Y7583333D02*
X9633333Y7616666D01*
D10*
X9466667Y7483333D02*
X9533333Y7583333D01*
D10*
X9433333Y7316666D02*
X9466667Y7483333D01*
D10*
X9433333Y7216666D02*
X9433333Y7316666D01*
D10*
X9466667Y7050000D02*
X9433333Y7216666D01*
D10*
X9533333Y6950000D02*
X9466667Y7050000D01*
D10*
X9633333Y6916666D02*
X9533333Y6950000D01*
D10*
X9700000Y6916666D02*
X9633333Y6916666D01*
D10*
X9800000Y6950000D02*
X9700000Y6916666D01*
D10*
X9866667Y7050000D02*
X9800000Y6950000D01*
D10*
X9900000Y7216666D02*
X9866667Y7050000D01*
D10*
X9900000Y7316666D02*
X9900000Y7216666D01*
D10*
X9866667Y7483333D02*
X9900000Y7316666D01*
D10*
X9800000Y7583333D02*
X9866667Y7483333D01*
D10*
X9700000Y7616666D02*
X9800000Y7583333D01*
D10*
X9633333Y7616666D02*
X9700000Y7616666D01*
D10*
X-14102909Y5083333D02*
X-14102909Y5616666D01*
D10*
X-14136242Y4983333D02*
X-14102909Y5083333D01*
D10*
X-14169576Y4950000D02*
X-14136242Y4983333D01*
D10*
X-14236242Y4916666D02*
X-14169576Y4950000D01*
D10*
X-14302909Y4916666D02*
X-14236242Y4916666D01*
D10*
X-14369576Y4950000D02*
X-14302909Y4916666D01*
D10*
X-14402909Y4983333D02*
X-14369576Y4950000D01*
D10*
X-14436242Y5083333D02*
X-14402909Y4983333D01*
D10*
X-14436242Y5150000D02*
X-14436242Y5083333D01*
D10*
X-13836242Y4916666D02*
X-13836242Y5616666D01*
D10*
X-13536242Y5616666D02*
X-13836242Y5616666D01*
D10*
X-13436242Y5583333D02*
X-13536242Y5616666D01*
D10*
X-13402909Y5550000D02*
X-13436242Y5583333D01*
D10*
X-13369576Y5483333D02*
X-13402909Y5550000D01*
D10*
X-13369576Y5383333D02*
X-13369576Y5483333D01*
D10*
X-13402909Y5316666D02*
X-13369576Y5383333D01*
D10*
X-13436242Y5283333D02*
X-13402909Y5316666D01*
D10*
X-13536242Y5250000D02*
X-13436242Y5283333D01*
D10*
X-13836242Y5250000D02*
X-13536242Y5250000D01*
D10*
X-12736242Y5616666D02*
X-13102909Y5616666D01*
D10*
X-12936242Y5350000D02*
X-12736242Y5616666D01*
D10*
X-12836242Y5350000D02*
X-12936242Y5350000D01*
D10*
X-12769576Y5316666D02*
X-12836242Y5350000D01*
D10*
X-12736242Y5283333D02*
X-12769576Y5316666D01*
D10*
X-12702909Y5183333D02*
X-12736242Y5283333D01*
D10*
X-12702909Y5116666D02*
X-12702909Y5183333D01*
D10*
X-12736242Y5016666D02*
X-12702909Y5116666D01*
D10*
X-12802909Y4950000D02*
X-12736242Y5016666D01*
D10*
X-12902909Y4916666D02*
X-12802909Y4950000D01*
D10*
X-13002909Y4916666D02*
X-12902909Y4916666D01*
D10*
X-13102909Y4950000D02*
X-13002909Y4916666D01*
D10*
X-13136242Y4983333D02*
X-13102909Y4950000D01*
D10*
X-13169576Y5050000D02*
X-13136242Y4983333D01*
D10*
X-12469576Y5350000D02*
X-12436242Y5383333D01*
D10*
X-12436242Y5316666D02*
X-12469576Y5350000D01*
D10*
X-12402909Y5350000D02*
X-12436242Y5316666D01*
D10*
X-12436242Y5383333D02*
X-12402909Y5350000D01*
D10*
X-12469576Y4950000D02*
X-12436242Y4983333D01*
D10*
X-12436242Y4916666D02*
X-12469576Y4950000D01*
D10*
X-12402909Y4950000D02*
X-12436242Y4916666D01*
D10*
X-12436242Y4983333D02*
X-12402909Y4950000D01*
D10*
X-11869576Y4916666D02*
X-11869576Y5616666D01*
D10*
X-11602909Y4916666D02*
X-11602909Y5616666D01*
D10*
X-11369576Y5616666D02*
X-11602909Y5616666D01*
D10*
X-11269576Y5583333D02*
X-11369576Y5616666D01*
D10*
X-11202909Y5516666D02*
X-11269576Y5583333D01*
D10*
X-11169576Y5450000D02*
X-11202909Y5516666D01*
D10*
X-11136242Y5350000D02*
X-11169576Y5450000D01*
D10*
X-11136242Y5183333D02*
X-11136242Y5350000D01*
D10*
X-11169576Y5083333D02*
X-11136242Y5183333D01*
D10*
X-11202909Y5016666D02*
X-11169576Y5083333D01*
D10*
X-11269576Y4950000D02*
X-11202909Y5016666D01*
D10*
X-11369576Y4916666D02*
X-11269576Y4950000D01*
D10*
X-11602909Y4916666D02*
X-11369576Y4916666D01*
D10*
X-10902909Y4916666D02*
X-10902909Y5616666D01*
D10*
X-10669576Y5616666D02*
X-10902909Y5616666D01*
D10*
X-10569576Y5583333D02*
X-10669576Y5616666D01*
D10*
X-10502909Y5516666D02*
X-10569576Y5583333D01*
D10*
X-10469576Y5450000D02*
X-10502909Y5516666D01*
D10*
X-10436242Y5350000D02*
X-10469576Y5450000D01*
D10*
X-10436242Y5183333D02*
X-10436242Y5350000D01*
D10*
X-10469576Y5083333D02*
X-10436242Y5183333D01*
D10*
X-10502909Y5016666D02*
X-10469576Y5083333D01*
D10*
X-10569576Y4950000D02*
X-10502909Y5016666D01*
D10*
X-10669576Y4916666D02*
X-10569576Y4950000D01*
D10*
X-10902909Y4916666D02*
X-10669576Y4916666D01*
D10*
X2100000Y5366666D02*
X2133333Y5300000D01*
D10*
X2033333Y5433333D02*
X2100000Y5366666D01*
D10*
X1966666Y5466666D02*
X2033333Y5433333D01*
D10*
X1833333Y5466666D02*
X1966666Y5466666D01*
D10*
X1766666Y5433333D02*
X1833333Y5466666D01*
D10*
X1700000Y5366666D02*
X1766666Y5433333D01*
D10*
X1666666Y5300000D02*
X1700000Y5366666D01*
D10*
X1633333Y5200000D02*
X1666666Y5300000D01*
D10*
X1633333Y5033333D02*
X1633333Y5200000D01*
D10*
X1666666Y4933333D02*
X1633333Y5033333D01*
D10*
X1700000Y4866666D02*
X1666666Y4933333D01*
D10*
X1766666Y4800000D02*
X1700000Y4866666D01*
D10*
X1833333Y4766666D02*
X1766666Y4800000D01*
D10*
X1966666Y4766666D02*
X1833333Y4766666D01*
D10*
X2033333Y4800000D02*
X1966666Y4766666D01*
D10*
X2100000Y4866666D02*
X2033333Y4800000D01*
D10*
X2133333Y4933333D02*
X2100000Y4866666D01*
D10*
X2366666Y5333333D02*
X2366666Y5300000D01*
D10*
X2400000Y5400000D02*
X2366666Y5333333D01*
D10*
X2433333Y5433333D02*
X2400000Y5400000D01*
D10*
X2500000Y5466666D02*
X2433333Y5433333D01*
D10*
X2633333Y5466666D02*
X2500000Y5466666D01*
D10*
X2700000Y5433333D02*
X2633333Y5466666D01*
D10*
X2733333Y5400000D02*
X2700000Y5433333D01*
D10*
X2766666Y5333333D02*
X2733333Y5400000D01*
D10*
X2766666Y5266666D02*
X2766666Y5333333D01*
D10*
X2733333Y5200000D02*
X2766666Y5266666D01*
D10*
X2666666Y5100000D02*
X2733333Y5200000D01*
D10*
X2333333Y4766666D02*
X2666666Y5100000D01*
D10*
X2800000Y4766666D02*
X2333333Y4766666D01*
D10*
X16750000Y14833333D02*
X16816666Y14766667D01*
D10*
X16650000Y14866667D02*
X16750000Y14833333D01*
D10*
X16516667Y14866667D02*
X16650000Y14866667D01*
D10*
X16416667Y14833333D02*
X16516667Y14866667D01*
D10*
X16350000Y14766667D02*
X16416667Y14833333D01*
D10*
X16350000Y14700000D02*
X16350000Y14766667D01*
D10*
X16383333Y14633333D02*
X16350000Y14700000D01*
D10*
X16416667Y14600000D02*
X16383333Y14633333D01*
D10*
X16483333Y14566667D02*
X16416667Y14600000D01*
D10*
X16683333Y14500000D02*
X16483333Y14566667D01*
D10*
X16750000Y14466667D02*
X16683333Y14500000D01*
D10*
X16783334Y14433333D02*
X16750000Y14466667D01*
D10*
X16816666Y14366667D02*
X16783334Y14433333D01*
D10*
X16816666Y14266667D02*
X16816666Y14366667D01*
D10*
X16750000Y14200000D02*
X16816666Y14266667D01*
D10*
X16650000Y14166667D02*
X16750000Y14200000D01*
D10*
X16516667Y14166667D02*
X16650000Y14166667D01*
D10*
X16416667Y14200000D02*
X16516667Y14166667D01*
D10*
X16350000Y14266667D02*
X16416667Y14200000D01*
D10*
X17050000Y14733333D02*
X17050000Y14700000D01*
D10*
X17083334Y14800000D02*
X17050000Y14733333D01*
D10*
X17116666Y14833333D02*
X17083334Y14800000D01*
D10*
X17183334Y14866667D02*
X17116666Y14833333D01*
D10*
X17316666Y14866667D02*
X17183334Y14866667D01*
D10*
X17383334Y14833333D02*
X17316666Y14866667D01*
D10*
X17416666Y14800000D02*
X17383334Y14833333D01*
D10*
X17450000Y14733333D02*
X17416666Y14800000D01*
D10*
X17450000Y14666667D02*
X17450000Y14733333D01*
D10*
X17416666Y14600000D02*
X17450000Y14666667D01*
D10*
X17350000Y14500000D02*
X17416666Y14600000D01*
D10*
X17016666Y14166667D02*
X17350000Y14500000D01*
D10*
X17483334Y14166667D02*
X17016666Y14166667D01*
D10*
X10516667Y8416667D02*
X10516667Y9116667D01*
D10*
X10750000Y9116667D02*
X10516667Y9116667D01*
D10*
X10850000Y9083333D02*
X10750000Y9116667D01*
D10*
X10916667Y9016667D02*
X10850000Y9083333D01*
D10*
X10950000Y8950000D02*
X10916667Y9016667D01*
D10*
X10983333Y8850000D02*
X10950000Y8950000D01*
D10*
X10983333Y8683333D02*
X10983333Y8850000D01*
D10*
X10950000Y8583333D02*
X10983333Y8683333D01*
D10*
X10916667Y8516667D02*
X10950000Y8583333D01*
D10*
X10850000Y8450000D02*
X10916667Y8516667D01*
D10*
X10750000Y8416667D02*
X10850000Y8450000D01*
D10*
X10516667Y8416667D02*
X10750000Y8416667D01*
D10*
X11183333Y8650000D02*
X11516667Y9116667D01*
D10*
X11683333Y8650000D02*
X11183333Y8650000D01*
D10*
X11516667Y8416667D02*
X11516667Y9116667D01*
D10*
X21669334Y4572000D02*
X20969334Y4305333D01*
D10*
X21669334Y4572000D02*
X20969334Y4838667D01*
D10*
X21669334Y5005333D02*
X20969334Y5005333D01*
D10*
X20969334Y5238666D02*
X20969334Y5005333D01*
D10*
X21002666Y5338666D02*
X20969334Y5238666D01*
D10*
X21069334Y5405333D02*
X21002666Y5338666D01*
D10*
X21136000Y5438666D02*
X21069334Y5405333D01*
D10*
X21236000Y5472000D02*
X21136000Y5438666D01*
D10*
X21402666Y5472000D02*
X21236000Y5472000D01*
D10*
X21502666Y5438666D02*
X21402666Y5472000D01*
D10*
X21569334Y5405333D02*
X21502666Y5438666D01*
D10*
X21636000Y5338666D02*
X21569334Y5405333D01*
D10*
X21669334Y5238666D02*
X21636000Y5338666D01*
D10*
X21669334Y5005333D02*
X21669334Y5238666D01*
D10*
X21669334Y5705333D02*
X20969334Y5705333D01*
D10*
X20969334Y5938666D02*
X20969334Y5705333D01*
D10*
X21002666Y6038666D02*
X20969334Y5938666D01*
D10*
X21069334Y6105333D02*
X21002666Y6038666D01*
D10*
X21136000Y6138666D02*
X21069334Y6105333D01*
D10*
X21236000Y6172000D02*
X21136000Y6138666D01*
D10*
X21402666Y6172000D02*
X21236000Y6172000D01*
D10*
X21502666Y6138666D02*
X21402666Y6172000D01*
D10*
X21569334Y6105333D02*
X21502666Y6138666D01*
D10*
X21636000Y6038666D02*
X21569334Y6105333D01*
D10*
X21669334Y5938666D02*
X21636000Y6038666D01*
D10*
X21669334Y5705333D02*
X21669334Y5938666D01*
D10*
X3250000Y11833333D02*
X3250000Y12366667D01*
D10*
X3216666Y11733333D02*
X3250000Y11833333D01*
D10*
X3183333Y11700000D02*
X3216666Y11733333D01*
D10*
X3116666Y11666667D02*
X3183333Y11700000D01*
D10*
X3050000Y11666667D02*
X3116666Y11666667D01*
D10*
X2983333Y11700000D02*
X3050000Y11666667D01*
D10*
X2950000Y11733333D02*
X2983333Y11700000D01*
D10*
X2916666Y11833333D02*
X2950000Y11733333D01*
D10*
X2916666Y11900000D02*
X2916666Y11833333D01*
D10*
X3516666Y11666667D02*
X3516666Y12366667D01*
D10*
X3816666Y12366667D02*
X3516666Y12366667D01*
D10*
X3916666Y12333333D02*
X3816666Y12366667D01*
D10*
X3950000Y12300000D02*
X3916666Y12333333D01*
D10*
X3983333Y12233333D02*
X3950000Y12300000D01*
D10*
X3983333Y12133333D02*
X3983333Y12233333D01*
D10*
X3950000Y12066667D02*
X3983333Y12133333D01*
D10*
X3916666Y12033333D02*
X3950000Y12066667D01*
D10*
X3816666Y12000000D02*
X3916666Y12033333D01*
D10*
X3516666Y12000000D02*
X3816666Y12000000D01*
D10*
X4216666Y12233333D02*
X4216666Y12200000D01*
D10*
X4250000Y12300000D02*
X4216666Y12233333D01*
D10*
X4283333Y12333333D02*
X4250000Y12300000D01*
D10*
X4350000Y12366667D02*
X4283333Y12333333D01*
D10*
X4483333Y12366667D02*
X4350000Y12366667D01*
D10*
X4550000Y12333333D02*
X4483333Y12366667D01*
D10*
X4583333Y12300000D02*
X4550000Y12333333D01*
D10*
X4616666Y12233333D02*
X4583333Y12300000D01*
D10*
X4616666Y12166667D02*
X4616666Y12233333D01*
D10*
X4583333Y12100000D02*
X4616666Y12166667D01*
D10*
X4516666Y12000000D02*
X4583333Y12100000D01*
D10*
X4183333Y11666667D02*
X4516666Y12000000D01*
D10*
X4650000Y11666667D02*
X4183333Y11666667D01*
D10*
X4683333Y5816666D02*
X4683333Y6516666D01*
D10*
X4983333Y6516666D02*
X4683333Y6516666D01*
D10*
X5083333Y6483333D02*
X4983333Y6516666D01*
D10*
X5116666Y6450000D02*
X5083333Y6483333D01*
D10*
X5150000Y6383333D02*
X5116666Y6450000D01*
D10*
X5150000Y6316666D02*
X5150000Y6383333D01*
D10*
X5116666Y6250000D02*
X5150000Y6316666D01*
D10*
X5083333Y6216666D02*
X5116666Y6250000D01*
D10*
X4983333Y6183333D02*
X5083333Y6216666D01*
D10*
X4683333Y6183333D02*
X4983333Y6183333D01*
D10*
X5150000Y5816666D02*
X4916666Y6183333D01*
D10*
X6050000Y6516666D02*
X5683333Y6516666D01*
D10*
X5850000Y6250000D02*
X6050000Y6516666D01*
D10*
X5950000Y6250000D02*
X5850000Y6250000D01*
D10*
X6016666Y6216666D02*
X5950000Y6250000D01*
D10*
X6050000Y6183333D02*
X6016666Y6216666D01*
D10*
X6083333Y6083333D02*
X6050000Y6183333D01*
D10*
X6083333Y6016666D02*
X6083333Y6083333D01*
D10*
X6050000Y5916666D02*
X6083333Y6016666D01*
D10*
X5983333Y5850000D02*
X6050000Y5916666D01*
D10*
X5883333Y5816666D02*
X5983333Y5850000D01*
D10*
X5783333Y5816666D02*
X5883333Y5816666D01*
D10*
X5683333Y5850000D02*
X5783333Y5816666D01*
D10*
X5650000Y5883333D02*
X5683333Y5850000D01*
D10*
X5616666Y5950000D02*
X5650000Y5883333D01*
D10*
X6316666Y5850000D02*
X6350000Y5883333D01*
D10*
X6350000Y5816666D02*
X6316666Y5850000D01*
D10*
X6383333Y5850000D02*
X6350000Y5816666D01*
D10*
X6350000Y5883333D02*
X6383333Y5850000D01*
D10*
X6783333Y6416666D02*
X6716666Y6383333D01*
D10*
X6883333Y6516666D02*
X6783333Y6416666D01*
D10*
X6883333Y5816666D02*
X6883333Y6516666D01*
D10*
X4716666Y5421666D02*
X5050000Y5421666D01*
D10*
X4683333Y5121666D02*
X4716666Y5421666D01*
D10*
X4716666Y5155000D02*
X4683333Y5121666D01*
D10*
X4816666Y5188333D02*
X4716666Y5155000D01*
D10*
X4916666Y5188333D02*
X4816666Y5188333D01*
D10*
X5016666Y5155000D02*
X4916666Y5188333D01*
D10*
X5083333Y5088333D02*
X5016666Y5155000D01*
D10*
X5116666Y4988333D02*
X5083333Y5088333D01*
D10*
X5116666Y4921666D02*
X5116666Y4988333D01*
D10*
X5083333Y4821666D02*
X5116666Y4921666D01*
D10*
X5016666Y4755000D02*
X5083333Y4821666D01*
D10*
X4916666Y4721666D02*
X5016666Y4755000D01*
D10*
X4816666Y4721666D02*
X4916666Y4721666D01*
D10*
X4716666Y4755000D02*
X4816666Y4721666D01*
D10*
X4683333Y4788333D02*
X4716666Y4755000D01*
D10*
X4650000Y4855000D02*
X4683333Y4788333D01*
D10*
X5350000Y5288333D02*
X5350000Y5255000D01*
D10*
X5383333Y5355000D02*
X5350000Y5288333D01*
D10*
X5416666Y5388333D02*
X5383333Y5355000D01*
D10*
X5483333Y5421666D02*
X5416666Y5388333D01*
D10*
X5616666Y5421666D02*
X5483333Y5421666D01*
D10*
X5683333Y5388333D02*
X5616666Y5421666D01*
D10*
X5716666Y5355000D02*
X5683333Y5388333D01*
D10*
X5750000Y5288333D02*
X5716666Y5355000D01*
D10*
X5750000Y5221666D02*
X5750000Y5288333D01*
D10*
X5716666Y5155000D02*
X5750000Y5221666D01*
D10*
X5650000Y5055000D02*
X5716666Y5155000D01*
D10*
X5316666Y4721666D02*
X5650000Y5055000D01*
D10*
X5783333Y4721666D02*
X5316666Y4721666D01*
D10*
X6150000Y5321666D02*
X6083333Y5288333D01*
D10*
X6250000Y5421666D02*
X6150000Y5321666D01*
D10*
X6250000Y4721666D02*
X6250000Y5421666D01*
D10*
X7050000Y5088333D02*
X7083333Y5188333D01*
D10*
X6983333Y5021666D02*
X7050000Y5088333D01*
D10*
X6883333Y4988333D02*
X6983333Y5021666D01*
D10*
X6850000Y4988333D02*
X6883333Y4988333D01*
D10*
X6750000Y5021666D02*
X6850000Y4988333D01*
D10*
X6683333Y5088333D02*
X6750000Y5021666D01*
D10*
X6650000Y5188333D02*
X6683333Y5088333D01*
D10*
X6650000Y5221666D02*
X6650000Y5188333D01*
D10*
X6683333Y5321666D02*
X6650000Y5221666D01*
D10*
X6750000Y5388333D02*
X6683333Y5321666D01*
D10*
X6850000Y5421666D02*
X6750000Y5388333D01*
D10*
X6883333Y5421666D02*
X6850000Y5421666D01*
D10*
X6983333Y5388333D02*
X6883333Y5421666D01*
D10*
X7050000Y5321666D02*
X6983333Y5388333D01*
D10*
X7083333Y5188333D02*
X7050000Y5321666D01*
D10*
X7083333Y5021666D02*
X7083333Y5188333D01*
D10*
X7050000Y4855000D02*
X7083333Y5021666D01*
D10*
X6983333Y4755000D02*
X7050000Y4855000D01*
D10*
X6883333Y4721666D02*
X6983333Y4755000D01*
D10*
X6816666Y4721666D02*
X6883333Y4721666D01*
D10*
X6716666Y4755000D02*
X6816666Y4721666D01*
D10*
X6683333Y4821666D02*
X6716666Y4755000D01*
D10*
X8766667Y8416667D02*
X8766667Y9116667D01*
D10*
X9066667Y9116667D02*
X8766667Y9116667D01*
D10*
X9166667Y9083333D02*
X9066667Y9116667D01*
D10*
X9200000Y9050000D02*
X9166667Y9083333D01*
D10*
X9233333Y8983333D02*
X9200000Y9050000D01*
D10*
X9233333Y8916667D02*
X9233333Y8983333D01*
D10*
X9200000Y8850000D02*
X9233333Y8916667D01*
D10*
X9166667Y8816667D02*
X9200000Y8850000D01*
D10*
X9066667Y8783333D02*
X9166667Y8816667D01*
D10*
X8766667Y8783333D02*
X9066667Y8783333D01*
D10*
X9233333Y8416667D02*
X9000000Y8783333D01*
D10*
X9833333Y8783333D02*
X9866667Y8883333D01*
D10*
X9766667Y8716667D02*
X9833333Y8783333D01*
D10*
X9666667Y8683333D02*
X9766667Y8716667D01*
D10*
X9633333Y8683333D02*
X9666667Y8683333D01*
D10*
X9533333Y8716667D02*
X9633333Y8683333D01*
D10*
X9466667Y8783333D02*
X9533333Y8716667D01*
D10*
X9433333Y8883333D02*
X9466667Y8783333D01*
D10*
X9433333Y8916667D02*
X9433333Y8883333D01*
D10*
X9466667Y9016667D02*
X9433333Y8916667D01*
D10*
X9533333Y9083333D02*
X9466667Y9016667D01*
D10*
X9633333Y9116667D02*
X9533333Y9083333D01*
D10*
X9666667Y9116667D02*
X9633333Y9116667D01*
D10*
X9766667Y9083333D02*
X9666667Y9116667D01*
D10*
X9833333Y9016667D02*
X9766667Y9083333D01*
D10*
X9866667Y8883333D02*
X9833333Y9016667D01*
D10*
X9866667Y8716667D02*
X9866667Y8883333D01*
D10*
X9833333Y8550000D02*
X9866667Y8716667D01*
D10*
X9766667Y8450000D02*
X9833333Y8550000D01*
D10*
X9666667Y8416667D02*
X9766667Y8450000D01*
D10*
X9600000Y8416667D02*
X9666667Y8416667D01*
D10*
X9500000Y8450000D02*
X9600000Y8416667D01*
D10*
X9466667Y8516667D02*
X9500000Y8450000D01*
D10*
X-18919574Y12437518D02*
X-19419574Y12437518D01*
D10*
X-18819574Y12470852D02*
X-18919574Y12437518D01*
D10*
X-18752908Y12537518D02*
X-18819574Y12470852D01*
D10*
X-18719574Y12637518D02*
X-18752908Y12537518D01*
D10*
X-18719574Y12704185D02*
X-18719574Y12637518D01*
D10*
X-18752908Y12804185D02*
X-18719574Y12704185D01*
D10*
X-18819574Y12870852D02*
X-18752908Y12804185D01*
D10*
X-18919574Y12904185D02*
X-18819574Y12870852D01*
D10*
X-19419574Y12904185D02*
X-18919574Y12904185D01*
D10*
X-19286242Y13170852D02*
X-19252908Y13170852D01*
D10*
X-19352908Y13204185D02*
X-19286242Y13170852D01*
D10*
X-19386242Y13237518D02*
X-19352908Y13204185D01*
D10*
X-19419574Y13304185D02*
X-19386242Y13237518D01*
D10*
X-19419574Y13437518D02*
X-19419574Y13304185D01*
D10*
X-19386242Y13504185D02*
X-19419574Y13437518D01*
D10*
X-19352908Y13537518D02*
X-19386242Y13504185D01*
D10*
X-19286242Y13570852D02*
X-19352908Y13537518D01*
D10*
X-19219574Y13570852D02*
X-19286242Y13570852D01*
D10*
X-19152908Y13537518D02*
X-19219574Y13570852D01*
D10*
X-19052908Y13470852D02*
X-19152908Y13537518D01*
D10*
X-18719574Y13137518D02*
X-19052908Y13470852D01*
D10*
X-18719574Y13604185D02*
X-18719574Y13137518D01*
D10*
X-10536667Y15886667D02*
X-10536667Y16586667D01*
D10*
X-10170000Y16553333D02*
X-10103333Y16586667D01*
D10*
X-10236667Y16486667D02*
X-10170000Y16553333D01*
D10*
X-10270000Y16420000D02*
X-10236667Y16486667D01*
D10*
X-10303333Y16320000D02*
X-10270000Y16420000D01*
D10*
X-10303333Y16153333D02*
X-10303333Y16320000D01*
D10*
X-10270000Y16053333D02*
X-10303333Y16153333D01*
D10*
X-10236667Y15986667D02*
X-10270000Y16053333D01*
D10*
X-10170000Y15920000D02*
X-10236667Y15986667D01*
D10*
X-10103333Y15886667D02*
X-10170000Y15920000D01*
D10*
X-9970000Y15886667D02*
X-10103333Y15886667D01*
D10*
X-9903333Y15920000D02*
X-9970000Y15886667D01*
D10*
X-9836667Y15986667D02*
X-9903333Y15920000D01*
D10*
X-9803333Y16053333D02*
X-9836667Y15986667D01*
D10*
X-9770000Y16153333D02*
X-9803333Y16053333D01*
D10*
X-9770000Y16320000D02*
X-9770000Y16153333D01*
D10*
X-9803333Y16420000D02*
X-9770000Y16320000D01*
D10*
X-9836667Y16486667D02*
X-9803333Y16420000D01*
D10*
X-9903333Y16553333D02*
X-9836667Y16486667D01*
D10*
X-9970000Y16586667D02*
X-9903333Y16553333D01*
D10*
X-10103333Y16586667D02*
X-9970000Y16586667D01*
D10*
X-3014666Y1190666D02*
X-2748000Y1890666D01*
D10*
X-2481333Y1190666D02*
X-2748000Y1890666D01*
D10*
X-2581333Y1424000D02*
X-2914666Y1424000D01*
D10*
X-2348000Y1424000D02*
X-2014666Y1890666D01*
D10*
X-1848000Y1424000D02*
X-2348000Y1424000D01*
D10*
X-2014666Y1190666D02*
X-2014666Y1890666D01*
D10*
X8100000Y5416666D02*
X8100000Y6116666D01*
D10*
X8400000Y6116666D02*
X8100000Y6116666D01*
D10*
X8500000Y6083333D02*
X8400000Y6116666D01*
D10*
X8533333Y6050000D02*
X8500000Y6083333D01*
D10*
X8566667Y5983333D02*
X8533333Y6050000D01*
D10*
X8566667Y5916666D02*
X8566667Y5983333D01*
D10*
X8533333Y5850000D02*
X8566667Y5916666D01*
D10*
X8500000Y5816666D02*
X8533333Y5850000D01*
D10*
X8400000Y5783333D02*
X8500000Y5816666D01*
D10*
X8100000Y5783333D02*
X8400000Y5783333D01*
D10*
X8566667Y5416666D02*
X8333333Y5783333D01*
D10*
X8933333Y6016666D02*
X8866667Y5983333D01*
D10*
X9033333Y6116666D02*
X8933333Y6016666D01*
D10*
X9033333Y5416666D02*
X9033333Y6116666D01*
D10*
X9600000Y6016666D02*
X9533333Y5983333D01*
D10*
X9700000Y6116666D02*
X9600000Y6016666D01*
D10*
X9700000Y5416666D02*
X9700000Y6116666D01*
D10*
X-15614667Y1190666D02*
X-15614667Y1890666D01*
D10*
X-15181333Y1890666D02*
X-15614667Y1890666D01*
D10*
X-15348000Y1557333D02*
X-15614667Y1557333D01*
D10*
X-14881333Y1790666D02*
X-14948000Y1757333D01*
D10*
X-14781333Y1890666D02*
X-14881333Y1790666D01*
D10*
X-14781333Y1190666D02*
X-14781333Y1890666D01*
D10*
X21669334Y2700000D02*
X20969334Y2433333D01*
D10*
X21669334Y2700000D02*
X20969334Y2966666D01*
D10*
X21669334Y3133333D02*
X20969334Y3133333D01*
D10*
X21669334Y3400000D02*
X20969334Y3400000D01*
D10*
X21669334Y3866666D02*
X20969334Y3400000D01*
D10*
X21669334Y3866666D02*
X20969334Y3866666D01*
D10*
X17633334Y9916667D02*
X17633334Y10616667D01*
D10*
X17933334Y10616667D02*
X17633334Y10616667D01*
D10*
X18033334Y10583333D02*
X17933334Y10616667D01*
D10*
X18066666Y10550000D02*
X18033334Y10583333D01*
D10*
X18100000Y10483333D02*
X18066666Y10550000D01*
D10*
X18100000Y10383333D02*
X18100000Y10483333D01*
D10*
X18066666Y10316667D02*
X18100000Y10383333D01*
D10*
X18033334Y10283333D02*
X18066666Y10316667D01*
D10*
X17933334Y10250000D02*
X18033334Y10283333D01*
D10*
X17633334Y10250000D02*
X17933334Y10250000D01*
D10*
X18233334Y9916667D02*
X18500000Y10616667D01*
D10*
X18766666Y9916667D02*
X18500000Y10616667D01*
D10*
X18666666Y10150000D02*
X18333334Y10150000D01*
D10*
X18933334Y10483333D02*
X18933334Y10450000D01*
D10*
X18966666Y10550000D02*
X18933334Y10483333D01*
D10*
X19000000Y10583333D02*
X18966666Y10550000D01*
D10*
X19066666Y10616667D02*
X19000000Y10583333D01*
D10*
X19200000Y10616667D02*
X19066666Y10616667D01*
D10*
X19266666Y10583333D02*
X19200000Y10616667D01*
D10*
X19300000Y10550000D02*
X19266666Y10583333D01*
D10*
X19333334Y10483333D02*
X19300000Y10550000D01*
D10*
X19333334Y10416667D02*
X19333334Y10483333D01*
D10*
X19300000Y10350000D02*
X19333334Y10416667D01*
D10*
X19233334Y10250000D02*
X19300000Y10350000D01*
D10*
X18900000Y9916667D02*
X19233334Y10250000D01*
D10*
X19366666Y9916667D02*
X18900000Y9916667D01*
D10*
X10516667Y11416667D02*
X10516667Y12116667D01*
D10*
X10750000Y12116667D02*
X10516667Y12116667D01*
D10*
X10850000Y12083333D02*
X10750000Y12116667D01*
D10*
X10916667Y12016667D02*
X10850000Y12083333D01*
D10*
X10950000Y11950000D02*
X10916667Y12016667D01*
D10*
X10983333Y11850000D02*
X10950000Y11950000D01*
D10*
X10983333Y11683333D02*
X10983333Y11850000D01*
D10*
X10950000Y11583333D02*
X10983333Y11683333D01*
D10*
X10916667Y11516667D02*
X10950000Y11583333D01*
D10*
X10850000Y11450000D02*
X10916667Y11516667D01*
D10*
X10750000Y11416667D02*
X10850000Y11450000D01*
D10*
X10516667Y11416667D02*
X10750000Y11416667D01*
D10*
X11216667Y11983333D02*
X11216667Y11950000D01*
D10*
X11250000Y12050000D02*
X11216667Y11983333D01*
D10*
X11283333Y12083333D02*
X11250000Y12050000D01*
D10*
X11350000Y12116667D02*
X11283333Y12083333D01*
D10*
X11483333Y12116667D02*
X11350000Y12116667D01*
D10*
X11550000Y12083333D02*
X11483333Y12116667D01*
D10*
X11583333Y12050000D02*
X11550000Y12083333D01*
D10*
X11616667Y11983333D02*
X11583333Y12050000D01*
D10*
X11616667Y11916667D02*
X11616667Y11983333D01*
D10*
X11583333Y11850000D02*
X11616667Y11916667D01*
D10*
X11516667Y11750000D02*
X11583333Y11850000D01*
D10*
X11183333Y11416667D02*
X11516667Y11750000D01*
D10*
X11650000Y11416667D02*
X11183333Y11416667D01*
D10*
X-17300000Y16833334D02*
X-17300000Y17366666D01*
D10*
X-17333334Y16733333D02*
X-17300000Y16833334D01*
D10*
X-17366666Y16700000D02*
X-17333334Y16733333D01*
D10*
X-17433334Y16666667D02*
X-17366666Y16700000D01*
D10*
X-17500000Y16666667D02*
X-17433334Y16666667D01*
D10*
X-17566666Y16700000D02*
X-17500000Y16666667D01*
D10*
X-17600000Y16733333D02*
X-17566666Y16700000D01*
D10*
X-17633334Y16833334D02*
X-17600000Y16733333D01*
D10*
X-17633334Y16900000D02*
X-17633334Y16833334D01*
D10*
X-16900000Y17266666D02*
X-16966666Y17233334D01*
D10*
X-16800000Y17366666D02*
X-16900000Y17266666D01*
D10*
X-16800000Y16666667D02*
X-16800000Y17366666D01*
D10*
X17151334Y1190666D02*
X17151334Y1890666D01*
D10*
X17451334Y1890666D02*
X17151334Y1890666D01*
D10*
X17551334Y1857333D02*
X17451334Y1890666D01*
D10*
X17584666Y1824000D02*
X17551334Y1857333D01*
D10*
X17618000Y1757333D02*
X17584666Y1824000D01*
D10*
X17618000Y1690666D02*
X17618000Y1757333D01*
D10*
X17584666Y1624000D02*
X17618000Y1690666D01*
D10*
X17551334Y1590666D02*
X17584666Y1624000D01*
D10*
X17451334Y1557333D02*
X17551334Y1590666D01*
D10*
X17451334Y1557333D02*
X17151334Y1557333D01*
D10*
X17551334Y1524000D02*
X17451334Y1557333D01*
D10*
X17584666Y1490666D02*
X17551334Y1524000D01*
D10*
X17618000Y1424000D02*
X17584666Y1490666D01*
D10*
X17618000Y1324000D02*
X17618000Y1424000D01*
D10*
X17584666Y1257333D02*
X17618000Y1324000D01*
D10*
X17551334Y1224000D02*
X17584666Y1257333D01*
D10*
X17451334Y1190666D02*
X17551334Y1224000D01*
D10*
X17151334Y1190666D02*
X17451334Y1190666D01*
D10*
X17984666Y1790666D02*
X17918000Y1757333D01*
D10*
X18084666Y1890666D02*
X17984666Y1790666D01*
D10*
X18084666Y1190666D02*
X18084666Y1890666D01*
D10*
X6750000Y11833333D02*
X6750000Y12366667D01*
D10*
X6716666Y11733333D02*
X6750000Y11833333D01*
D10*
X6683333Y11700000D02*
X6716666Y11733333D01*
D10*
X6616666Y11666667D02*
X6683333Y11700000D01*
D10*
X6550000Y11666667D02*
X6616666Y11666667D01*
D10*
X6483333Y11700000D02*
X6550000Y11666667D01*
D10*
X6450000Y11733333D02*
X6483333Y11700000D01*
D10*
X6416666Y11833333D02*
X6450000Y11733333D01*
D10*
X6416666Y11900000D02*
X6416666Y11833333D01*
D10*
X7016666Y11666667D02*
X7016666Y12366667D01*
D10*
X7316666Y12366667D02*
X7016666Y12366667D01*
D10*
X7416666Y12333333D02*
X7316666Y12366667D01*
D10*
X7450000Y12300000D02*
X7416666Y12333333D01*
D10*
X7483333Y12233333D02*
X7450000Y12300000D01*
D10*
X7483333Y12133333D02*
X7483333Y12233333D01*
D10*
X7450000Y12066667D02*
X7483333Y12133333D01*
D10*
X7416666Y12033333D02*
X7450000Y12066667D01*
D10*
X7316666Y12000000D02*
X7416666Y12033333D01*
D10*
X7016666Y12000000D02*
X7316666Y12000000D01*
D10*
X8083333Y12333333D02*
X8116666Y12266667D01*
D10*
X7983333Y12366667D02*
X8083333Y12333333D01*
D10*
X7916666Y12366667D02*
X7983333Y12366667D01*
D10*
X7816666Y12333333D02*
X7916666Y12366667D01*
D10*
X7750000Y12233333D02*
X7816666Y12333333D01*
D10*
X7716666Y12066667D02*
X7750000Y12233333D01*
D10*
X7716666Y11900000D02*
X7716666Y12066667D01*
D10*
X7750000Y11766667D02*
X7716666Y11900000D01*
D10*
X7816666Y11700000D02*
X7750000Y11766667D01*
D10*
X7916666Y11666667D02*
X7816666Y11700000D01*
D10*
X7950000Y11666667D02*
X7916666Y11666667D01*
D10*
X8050000Y11700000D02*
X7950000Y11666667D01*
D10*
X8116666Y11766667D02*
X8050000Y11700000D01*
D10*
X8150000Y11866667D02*
X8116666Y11766667D01*
D10*
X8150000Y11900000D02*
X8150000Y11866667D01*
D10*
X8116666Y12000000D02*
X8150000Y11900000D01*
D10*
X8050000Y12066667D02*
X8116666Y12000000D01*
D10*
X7950000Y12100000D02*
X8050000Y12066667D01*
D10*
X7916666Y12100000D02*
X7950000Y12100000D01*
D10*
X7816666Y12066667D02*
X7916666Y12100000D01*
D10*
X7750000Y12000000D02*
X7816666Y12066667D01*
D10*
X7716666Y11900000D02*
X7750000Y12000000D01*
D10*
X-13174667Y1190666D02*
X-12908000Y1890666D01*
D10*
X-12641333Y1190666D02*
X-12908000Y1890666D01*
D10*
X-12741333Y1424000D02*
X-13074667Y1424000D01*
D10*
X-12408000Y1857333D02*
X-12308000Y1890666D01*
D10*
X-12474667Y1757333D02*
X-12408000Y1857333D01*
D10*
X-12508000Y1590666D02*
X-12474667Y1757333D01*
D10*
X-12508000Y1490666D02*
X-12508000Y1590666D01*
D10*
X-12474667Y1324000D02*
X-12508000Y1490666D01*
D10*
X-12408000Y1224000D02*
X-12474667Y1324000D01*
D10*
X-12308000Y1190666D02*
X-12408000Y1224000D01*
D10*
X-12241333Y1190666D02*
X-12308000Y1190666D01*
D10*
X-12141333Y1224000D02*
X-12241333Y1190666D01*
D10*
X-12074667Y1324000D02*
X-12141333Y1224000D01*
D10*
X-12041333Y1490666D02*
X-12074667Y1324000D01*
D10*
X-12041333Y1590666D02*
X-12041333Y1490666D01*
D10*
X-12074667Y1757333D02*
X-12041333Y1590666D01*
D10*
X-12141333Y1857333D02*
X-12074667Y1757333D01*
D10*
X-12241333Y1890666D02*
X-12141333Y1857333D01*
D10*
X-12308000Y1890666D02*
X-12241333Y1890666D01*
D10*
X14257333Y1190666D02*
X14524000Y1890666D01*
D10*
X14790667Y1190666D02*
X14524000Y1890666D01*
D10*
X14690667Y1424000D02*
X14357333Y1424000D01*
D10*
X15090667Y1790666D02*
X15024000Y1757333D01*
D10*
X15190667Y1890666D02*
X15090667Y1790666D01*
D10*
X15190667Y1190666D02*
X15190667Y1890666D01*
D10*
X15590667Y1424000D02*
X15924000Y1890666D01*
D10*
X16090667Y1424000D02*
X15590667Y1424000D01*
D10*
X15924000Y1190666D02*
X15924000Y1890666D01*
D10*
X7145333Y1190666D02*
X7412000Y1890666D01*
D10*
X7678666Y1190666D02*
X7412000Y1890666D01*
D10*
X7578666Y1424000D02*
X7245333Y1424000D01*
D10*
X8212000Y1557333D02*
X8245333Y1657333D01*
D10*
X8145333Y1490666D02*
X8212000Y1557333D01*
D10*
X8045333Y1457333D02*
X8145333Y1490666D01*
D10*
X8012000Y1457333D02*
X8045333Y1457333D01*
D10*
X7912000Y1490666D02*
X8012000Y1457333D01*
D10*
X7845333Y1557333D02*
X7912000Y1490666D01*
D10*
X7812000Y1657333D02*
X7845333Y1557333D01*
D10*
X7812000Y1690666D02*
X7812000Y1657333D01*
D10*
X7845333Y1790666D02*
X7812000Y1690666D01*
D10*
X7912000Y1857333D02*
X7845333Y1790666D01*
D10*
X8012000Y1890666D02*
X7912000Y1857333D01*
D10*
X8045333Y1890666D02*
X8012000Y1890666D01*
D10*
X8145333Y1857333D02*
X8045333Y1890666D01*
D10*
X8212000Y1790666D02*
X8145333Y1857333D01*
D10*
X8245333Y1657333D02*
X8212000Y1790666D01*
D10*
X8245333Y1490666D02*
X8245333Y1657333D01*
D10*
X8212000Y1324000D02*
X8245333Y1490666D01*
D10*
X8145333Y1224000D02*
X8212000Y1324000D01*
D10*
X8045333Y1190666D02*
X8145333Y1224000D01*
D10*
X7978666Y1190666D02*
X8045333Y1190666D01*
D10*
X7878666Y1224000D02*
X7978666Y1190666D01*
D10*
X7845333Y1290666D02*
X7878666Y1224000D01*
D10*
X9900000Y12833333D02*
X9900000Y13366667D01*
D10*
X9866667Y12733333D02*
X9900000Y12833333D01*
D10*
X9833333Y12700000D02*
X9866667Y12733333D01*
D10*
X9766667Y12666667D02*
X9833333Y12700000D01*
D10*
X9700000Y12666667D02*
X9766667Y12666667D01*
D10*
X9633333Y12700000D02*
X9700000Y12666667D01*
D10*
X9600000Y12733333D02*
X9633333Y12700000D01*
D10*
X9566667Y12833333D02*
X9600000Y12733333D01*
D10*
X9566667Y12900000D02*
X9566667Y12833333D01*
D10*
X10166667Y12666667D02*
X10166667Y13366667D01*
D10*
X10466667Y13366667D02*
X10166667Y13366667D01*
D10*
X10566667Y13333333D02*
X10466667Y13366667D01*
D10*
X10600000Y13300000D02*
X10566667Y13333333D01*
D10*
X10633333Y13233333D02*
X10600000Y13300000D01*
D10*
X10633333Y13133333D02*
X10633333Y13233333D01*
D10*
X10600000Y13066667D02*
X10633333Y13133333D01*
D10*
X10566667Y13033333D02*
X10600000Y13066667D01*
D10*
X10466667Y13000000D02*
X10566667Y13033333D01*
D10*
X10166667Y13000000D02*
X10466667Y13000000D01*
D10*
X11000000Y13266667D02*
X10933333Y13233333D01*
D10*
X11100000Y13366667D02*
X11000000Y13266667D01*
D10*
X11100000Y12666667D02*
X11100000Y13366667D01*
D10*
X-16919574Y8670852D02*
X-16919574Y9170852D01*
D10*
X-16886242Y8570852D02*
X-16919574Y8670852D01*
D10*
X-16819574Y8504185D02*
X-16886242Y8570852D01*
D10*
X-16719575Y8470852D02*
X-16819574Y8504185D01*
D10*
X-16652908Y8470852D02*
X-16719575Y8470852D01*
D10*
X-16552908Y8504185D02*
X-16652908Y8470852D01*
D10*
X-16486241Y8570852D02*
X-16552908Y8504185D01*
D10*
X-16452908Y8670852D02*
X-16486241Y8570852D01*
D10*
X-16452908Y9170852D02*
X-16452908Y8670852D01*
D10*
X-15786241Y9170852D02*
X-16152908Y9170852D01*
D10*
X-15986241Y8904185D02*
X-15786241Y9170852D01*
D10*
X-15886241Y8904185D02*
X-15986241Y8904185D01*
D10*
X-15819575Y8870852D02*
X-15886241Y8904185D01*
D10*
X-15786241Y8837518D02*
X-15819575Y8870852D01*
D10*
X-15752908Y8737518D02*
X-15786241Y8837518D01*
D10*
X-15752908Y8670852D02*
X-15752908Y8737518D01*
D10*
X-15786241Y8570852D02*
X-15752908Y8670852D01*
D10*
X-15852908Y8504185D02*
X-15786241Y8570852D01*
D10*
X-15952908Y8470852D02*
X-15852908Y8504185D01*
D10*
X-16052908Y8470852D02*
X-15952908Y8470852D01*
D10*
X-16152908Y8504185D02*
X-16052908Y8470852D01*
D10*
X-16186241Y8537518D02*
X-16152908Y8504185D01*
D10*
X-16219575Y8604185D02*
X-16186241Y8537518D01*
D10*
X-14277909Y13579185D02*
X-18327909Y13579185D01*
D10*
X-14277909Y10804185D02*
X-14277909Y11604185D01*
D10*
X-18327909Y13579185D02*
X-18327909Y11954185D01*
D10*
X-14277909Y7004185D02*
X-12402909Y7004185D01*
D10*
X-14277909Y13104185D02*
X-14277909Y13579185D01*
D10*
X-14277909Y9304185D02*
X-14277909Y8504185D01*
D10*
X-14277909Y7004185D02*
X-14277909Y6529185D01*
D10*
X-18327909Y6529185D02*
X-18327909Y8154185D01*
D10*
X-14277909Y6529185D02*
X-18327909Y6529185D01*
D10*
X-16702909Y4300000D02*
X-15902909Y4300000D01*
D10*
X-16702909Y2700000D02*
X-15902909Y2700000D01*
D10*
X17200000Y11150000D02*
X15800000Y11150000D01*
D10*
X17200000Y12350000D02*
X15800000Y12350000D01*
D10*
X17200000Y6650000D02*
X15800000Y6650000D01*
D10*
X17200000Y7850000D02*
X15800000Y7850000D01*
D10*
X-14577909Y12104185D02*
X-14577909Y10504185D01*
D10*
X-18027909Y12104185D02*
X-18027909Y9674185D01*
D10*
X17200000Y3150000D02*
X15800000Y3150000D01*
D10*
X17200000Y4350000D02*
X15800000Y4350000D01*
D10*
X17200000Y8150000D02*
X15800000Y8150000D01*
D10*
X17200000Y9350000D02*
X15800000Y9350000D01*
D10*
X17200000Y5150000D02*
X15800000Y5150000D01*
D10*
X17200000Y6350000D02*
X15800000Y6350000D01*
D10*
X17200000Y9650000D02*
X15800000Y9650000D01*
D10*
X17200000Y10850000D02*
X15800000Y10850000D01*
D10*
X-16520000Y19240000D02*
X-1280000Y19240000D01*
D10*
X-16520000Y16700000D02*
X-16520000Y19240000D01*
D10*
X-1280000Y19240000D02*
X-1280000Y16700000D01*
D10*
X9425000Y17875000D02*
X16075000Y17875000D01*
D10*
X16075000Y13625000D02*
X16075000Y14975000D01*
D10*
X9425000Y13625000D02*
X9425000Y14975000D01*
D10*
X9425000Y17875000D02*
X9425000Y16525000D01*
D10*
X16075000Y17875000D02*
X16075000Y16525000D01*
D10*
X9425000Y13625000D02*
X16075000Y13625000D01*
D10*
X6575000Y13625000D02*
X-75000Y13625000D01*
D10*
X-75000Y17875000D02*
X-75000Y16525000D01*
D10*
X6575000Y17875000D02*
X6575000Y16525000D01*
D10*
X6575000Y13625000D02*
X6575000Y14975000D01*
D10*
X-75000Y13625000D02*
X-75000Y14975000D01*
D10*
X6575000Y17875000D02*
X-75000Y17875000D01*
D10*
X-6725000Y9900000D02*
X-5775000Y9900000D01*
D10*
X-5775000Y10075000D02*
X-1000000Y10075000D01*
D10*
X-5775000Y9900000D02*
X-5775000Y10075000D01*
D10*
X-5500000Y2925000D02*
X-1000000Y2925000D01*
D10*
X21844000Y1016000D02*
X20701000Y2159000D01*
D10*
X21844000Y1016000D02*
X21463000Y1143000D01*
D10*
X-21844000Y1016000D02*
X-20701000Y2159000D01*
D10*
X-21844000Y1016000D02*
X-21463000Y1143000D01*
D10*
X4300000Y6900000D02*
X7425000Y6900000D01*
D10*
X4300000Y4400000D02*
X4300000Y6900000D01*
D10*
X21844000Y1016000D02*
X21717000Y1397000D01*
D10*
X-21844000Y1016000D02*
X-21717000Y1397000D01*
D10*
X7425000Y4400000D02*
X4300000Y4400000D01*
D10*
X7425000Y6900000D02*
X7425000Y4400000D01*
G75*
M02*
