%FSLAX46Y46*%
%MOMM*%
%ADD10C,0.150000*%
G01*
G01*
%LPD*%
D10*
X19733334Y10166667D02*
X19733334Y10866667D01*
D10*
X19433334Y10866667D02*
X19733334Y10866667D01*
D10*
X19333334Y10833333D02*
X19433334Y10866667D01*
D10*
X19300000Y10800000D02*
X19333334Y10833333D01*
D10*
X19266666Y10733333D02*
X19300000Y10800000D01*
D10*
X19266666Y10666667D02*
X19266666Y10733333D01*
D10*
X19300000Y10600000D02*
X19266666Y10666667D01*
D10*
X19333334Y10566667D02*
X19300000Y10600000D01*
D10*
X19433334Y10533333D02*
X19333334Y10566667D01*
D10*
X19733334Y10533333D02*
X19433334Y10533333D01*
D10*
X19266666Y10166667D02*
X19500000Y10533333D01*
D10*
X18633334Y10866667D02*
X19000000Y10866667D01*
D10*
X18833334Y10600000D02*
X18633334Y10866667D01*
D10*
X18733334Y10600000D02*
X18833334Y10600000D01*
D10*
X18666666Y10566667D02*
X18733334Y10600000D01*
D10*
X18633334Y10533333D02*
X18666666Y10566667D01*
D10*
X18600000Y10433333D02*
X18633334Y10533333D01*
D10*
X18600000Y10366667D02*
X18600000Y10433333D01*
D10*
X18633334Y10266667D02*
X18600000Y10366667D01*
D10*
X18700000Y10200000D02*
X18633334Y10266667D01*
D10*
X18800000Y10166667D02*
X18700000Y10200000D01*
D10*
X18900000Y10166667D02*
X18800000Y10166667D01*
D10*
X19000000Y10200000D02*
X18900000Y10166667D01*
D10*
X19033334Y10233333D02*
X19000000Y10200000D01*
D10*
X19066666Y10300000D02*
X19033334Y10233333D01*
D10*
X-4354667Y1190666D02*
X-4621333Y1890666D01*
D10*
X-4888000Y1190666D02*
X-4621333Y1890666D01*
D10*
X-4788000Y1424000D02*
X-4454667Y1424000D01*
D10*
X-5454666Y1890666D02*
X-5088000Y1890666D01*
D10*
X-5254666Y1624000D02*
X-5454666Y1890666D01*
D10*
X-5354666Y1624000D02*
X-5254666Y1624000D01*
D10*
X-5421333Y1590666D02*
X-5354666Y1624000D01*
D10*
X-5454666Y1557333D02*
X-5421333Y1590666D01*
D10*
X-5488000Y1457333D02*
X-5454666Y1557333D01*
D10*
X-5488000Y1390666D02*
X-5488000Y1457333D01*
D10*
X-5454666Y1290666D02*
X-5488000Y1390666D01*
D10*
X-5388000Y1224000D02*
X-5454666Y1290666D01*
D10*
X-5288000Y1190666D02*
X-5388000Y1224000D01*
D10*
X-5188000Y1190666D02*
X-5288000Y1190666D01*
D10*
X-5088000Y1224000D02*
X-5188000Y1190666D01*
D10*
X-5054666Y1257333D02*
X-5088000Y1224000D01*
D10*
X-5021333Y1324000D02*
X-5054666Y1257333D01*
D10*
X18251334Y1190666D02*
X18251334Y1890666D01*
D10*
X17951334Y1890666D02*
X18251334Y1890666D01*
D10*
X17851334Y1857333D02*
X17951334Y1890666D01*
D10*
X17818000Y1824000D02*
X17851334Y1857333D01*
D10*
X17784666Y1757333D02*
X17818000Y1824000D01*
D10*
X17784666Y1690666D02*
X17784666Y1757333D01*
D10*
X17818000Y1624000D02*
X17784666Y1690666D01*
D10*
X17851334Y1590666D02*
X17818000Y1624000D01*
D10*
X17951334Y1557333D02*
X17851334Y1590666D01*
D10*
X17951334Y1557333D02*
X18251334Y1557333D01*
D10*
X17851334Y1524000D02*
X17951334Y1557333D01*
D10*
X17818000Y1490666D02*
X17851334Y1524000D01*
D10*
X17784666Y1424000D02*
X17818000Y1490666D01*
D10*
X17784666Y1324000D02*
X17784666Y1424000D01*
D10*
X17818000Y1257333D02*
X17784666Y1324000D01*
D10*
X17851334Y1224000D02*
X17818000Y1257333D01*
D10*
X17951334Y1190666D02*
X17851334Y1224000D01*
D10*
X18251334Y1190666D02*
X17951334Y1190666D01*
D10*
X17418000Y1790666D02*
X17484666Y1757333D01*
D10*
X17318000Y1890666D02*
X17418000Y1790666D01*
D10*
X17318000Y1190666D02*
X17318000Y1890666D01*
D10*
X-12310000Y16486667D02*
X-12343333Y16420000D01*
D10*
X-12243333Y16553333D02*
X-12310000Y16486667D01*
D10*
X-12176667Y16586667D02*
X-12243333Y16553333D01*
D10*
X-12043333Y16586667D02*
X-12176667Y16586667D01*
D10*
X-11976667Y16553333D02*
X-12043333Y16586667D01*
D10*
X-11910000Y16486667D02*
X-11976667Y16553333D01*
D10*
X-11876667Y16420000D02*
X-11910000Y16486667D01*
D10*
X-11843333Y16320000D02*
X-11876667Y16420000D01*
D10*
X-11843333Y16153333D02*
X-11843333Y16320000D01*
D10*
X-11876667Y16053333D02*
X-11843333Y16153333D01*
D10*
X-11910000Y15986667D02*
X-11876667Y16053333D01*
D10*
X-11976667Y15920000D02*
X-11910000Y15986667D01*
D10*
X-12043333Y15886667D02*
X-11976667Y15920000D01*
D10*
X-12176667Y15886667D02*
X-12043333Y15886667D01*
D10*
X-12243333Y15920000D02*
X-12176667Y15886667D01*
D10*
X-12310000Y15986667D02*
X-12243333Y15920000D01*
D10*
X-12343333Y16053333D02*
X-12310000Y15986667D01*
D10*
X-12576667Y15886667D02*
X-12576667Y16586667D01*
D10*
X-12976667Y15886667D02*
X-12576667Y15886667D01*
D10*
X-13143333Y15886667D02*
X-13143333Y16586667D01*
D10*
X-13143333Y16120000D02*
X-13610000Y16586667D01*
D10*
X-13610000Y15886667D02*
X-13310000Y16286667D01*
D10*
X725333Y1190666D02*
X458666Y1890666D01*
D10*
X192000Y1190666D02*
X458666Y1890666D01*
D10*
X292000Y1424000D02*
X625333Y1424000D01*
D10*
X-8000Y1890666D02*
X-341333Y1890666D01*
D10*
X25333Y1590666D02*
X-8000Y1890666D01*
D10*
X-8000Y1624000D02*
X25333Y1590666D01*
D10*
X-108000Y1657333D02*
X-8000Y1624000D01*
D10*
X-208000Y1657333D02*
X-108000Y1657333D01*
D10*
X-308000Y1624000D02*
X-208000Y1657333D01*
D10*
X-374666Y1557333D02*
X-308000Y1624000D01*
D10*
X-408000Y1457333D02*
X-374666Y1557333D01*
D10*
X-408000Y1390666D02*
X-408000Y1457333D01*
D10*
X-374666Y1290666D02*
X-408000Y1390666D01*
D10*
X-308000Y1224000D02*
X-374666Y1290666D01*
D10*
X-208000Y1190666D02*
X-308000Y1224000D01*
D10*
X-108000Y1190666D02*
X-208000Y1190666D01*
D10*
X-8000Y1224000D02*
X-108000Y1190666D01*
D10*
X25333Y1257333D02*
X-8000Y1224000D01*
D10*
X58666Y1324000D02*
X25333Y1257333D01*
D10*
X-9434667Y1190666D02*
X-9701333Y1890666D01*
D10*
X-9968000Y1190666D02*
X-9701333Y1890666D01*
D10*
X-9868000Y1424000D02*
X-9534667Y1424000D01*
D10*
X-10268000Y1790666D02*
X-10201333Y1757333D01*
D10*
X-10368000Y1890666D02*
X-10268000Y1790666D01*
D10*
X-10368000Y1190666D02*
X-10368000Y1890666D01*
D10*
X-19136000Y1190666D02*
X-18869334Y1890666D01*
D10*
X-19136000Y1190666D02*
X-19402666Y1890666D01*
D10*
X-19569334Y1190666D02*
X-19569334Y1890666D01*
D10*
X-19802666Y1890666D02*
X-19569334Y1890666D01*
D10*
X-19902666Y1857333D02*
X-19802666Y1890666D01*
D10*
X-19969334Y1790666D02*
X-19902666Y1857333D01*
D10*
X-20002666Y1724000D02*
X-19969334Y1790666D01*
D10*
X-20036000Y1624000D02*
X-20002666Y1724000D01*
D10*
X-20036000Y1457333D02*
X-20036000Y1624000D01*
D10*
X-20002666Y1357333D02*
X-20036000Y1457333D01*
D10*
X-19969334Y1290666D02*
X-20002666Y1357333D01*
D10*
X-19902666Y1224000D02*
X-19969334Y1290666D01*
D10*
X-19802666Y1190666D02*
X-19902666Y1224000D01*
D10*
X-19569334Y1190666D02*
X-19802666Y1190666D01*
D10*
X-20269334Y1190666D02*
X-20269334Y1890666D01*
D10*
X-20502666Y1890666D02*
X-20269334Y1890666D01*
D10*
X-20602666Y1857333D02*
X-20502666Y1890666D01*
D10*
X-20669334Y1790666D02*
X-20602666Y1857333D01*
D10*
X-20702666Y1724000D02*
X-20669334Y1790666D01*
D10*
X-20736000Y1624000D02*
X-20702666Y1724000D01*
D10*
X-20736000Y1457333D02*
X-20736000Y1624000D01*
D10*
X-20702666Y1357333D02*
X-20736000Y1457333D01*
D10*
X-20669334Y1290666D02*
X-20702666Y1357333D01*
D10*
X-20602666Y1224000D02*
X-20669334Y1290666D01*
D10*
X-20502666Y1190666D02*
X-20602666Y1224000D01*
D10*
X-20269334Y1190666D02*
X-20502666Y1190666D01*
D10*
X21002666Y9675000D02*
X21702666Y9408333D01*
D10*
X21002666Y9675000D02*
X21702666Y9941667D01*
D10*
X21002666Y10108333D02*
X21702666Y10108333D01*
D10*
X21002666Y10375000D02*
X21702666Y10375000D01*
D10*
X21002666Y10841667D02*
X21702666Y10375000D01*
D10*
X21002666Y10841667D02*
X21702666Y10841667D01*
D10*
X-2000000Y15886667D02*
X-1733333Y16586667D01*
D10*
X-2000000Y15886667D02*
X-2266666Y16586667D01*
D10*
X-2433333Y15886667D02*
X-2433333Y16586667D01*
D10*
X-2700000Y15886667D02*
X-2700000Y16586667D01*
D10*
X-3166666Y15886667D02*
X-2700000Y16586667D01*
D10*
X-3166666Y15886667D02*
X-3166666Y16586667D01*
D10*
X21002666Y2305000D02*
X21702666Y2038333D01*
D10*
X21002666Y2305000D02*
X21702666Y2571666D01*
D10*
X21002666Y2738333D02*
X21702666Y2738333D01*
D10*
X21002666Y3005000D02*
X21702666Y3005000D01*
D10*
X21002666Y3471666D02*
X21702666Y3005000D01*
D10*
X21002666Y3471666D02*
X21702666Y3471666D01*
D10*
X20516666Y2733666D02*
X20450000Y2767000D01*
D10*
X20583334Y2667000D02*
X20516666Y2733666D01*
D10*
X20616666Y2600333D02*
X20583334Y2667000D01*
D10*
X20616666Y2467000D02*
X20616666Y2600333D01*
D10*
X20583334Y2400333D02*
X20616666Y2467000D01*
D10*
X20516666Y2333666D02*
X20583334Y2400333D01*
D10*
X20450000Y2300333D02*
X20516666Y2333666D01*
D10*
X20350000Y2267000D02*
X20450000Y2300333D01*
D10*
X20183334Y2267000D02*
X20350000Y2267000D01*
D10*
X20083334Y2300333D02*
X20183334Y2267000D01*
D10*
X20016666Y2333666D02*
X20083334Y2300333D01*
D10*
X19950000Y2400333D02*
X20016666Y2333666D01*
D10*
X19916666Y2467000D02*
X19950000Y2400333D01*
D10*
X19916666Y2600333D02*
X19916666Y2467000D01*
D10*
X19950000Y2667000D02*
X19916666Y2600333D01*
D10*
X20016666Y2733666D02*
X19950000Y2667000D01*
D10*
X20083334Y2767000D02*
X20016666Y2733666D01*
D10*
X20183334Y2767000D02*
X20083334Y2767000D01*
D10*
X20183334Y2767000D02*
X20183334Y2600333D01*
D10*
X19916666Y3000333D02*
X20616666Y3000333D01*
D10*
X19916666Y3467000D02*
X20616666Y3000333D01*
D10*
X19916666Y3467000D02*
X20616666Y3467000D01*
D10*
X19916666Y3733666D02*
X20616666Y3733666D01*
D10*
X20616666Y3967000D02*
X20616666Y3733666D01*
D10*
X20583334Y4067000D02*
X20616666Y3967000D01*
D10*
X20516666Y4133666D02*
X20583334Y4067000D01*
D10*
X20450000Y4167000D02*
X20516666Y4133666D01*
D10*
X20350000Y4200333D02*
X20450000Y4167000D01*
D10*
X20183334Y4200333D02*
X20350000Y4200333D01*
D10*
X20083334Y4167000D02*
X20183334Y4200333D01*
D10*
X20016666Y4133666D02*
X20083334Y4167000D01*
D10*
X19950000Y4067000D02*
X20016666Y4133666D01*
D10*
X19916666Y3967000D02*
X19950000Y4067000D01*
D10*
X19916666Y3733666D02*
X19916666Y3967000D01*
D10*
X-1814666Y1190666D02*
X-2081333Y1890666D01*
D10*
X-2348000Y1190666D02*
X-2081333Y1890666D01*
D10*
X-2248000Y1424000D02*
X-1914666Y1424000D01*
D10*
X-2481333Y1424000D02*
X-2814666Y1890666D01*
D10*
X-2981333Y1424000D02*
X-2481333Y1424000D01*
D10*
X-2814666Y1190666D02*
X-2814666Y1890666D01*
D10*
X-21069334Y7122333D02*
X-21136000Y7155667D01*
D10*
X-21002666Y7055667D02*
X-21069334Y7122333D01*
D10*
X-20969334Y6989000D02*
X-21002666Y7055667D01*
D10*
X-20969334Y6855667D02*
X-20969334Y6989000D01*
D10*
X-21002666Y6789000D02*
X-20969334Y6855667D01*
D10*
X-21069334Y6722333D02*
X-21002666Y6789000D01*
D10*
X-21136000Y6689000D02*
X-21069334Y6722333D01*
D10*
X-21236000Y6655667D02*
X-21136000Y6689000D01*
D10*
X-21402666Y6655667D02*
X-21236000Y6655667D01*
D10*
X-21502666Y6689000D02*
X-21402666Y6655667D01*
D10*
X-21569334Y6722333D02*
X-21502666Y6689000D01*
D10*
X-21636000Y6789000D02*
X-21569334Y6722333D01*
D10*
X-21669334Y6855667D02*
X-21636000Y6789000D01*
D10*
X-21669334Y6989000D02*
X-21669334Y6855667D01*
D10*
X-21636000Y7055667D02*
X-21669334Y6989000D01*
D10*
X-21569334Y7122333D02*
X-21636000Y7055667D01*
D10*
X-21502666Y7155667D02*
X-21569334Y7122333D01*
D10*
X-21402666Y7155667D02*
X-21502666Y7155667D01*
D10*
X-21402666Y7155667D02*
X-21402666Y6989000D01*
D10*
X-21669334Y7389000D02*
X-20969334Y7389000D01*
D10*
X-21669334Y7855666D02*
X-20969334Y7389000D01*
D10*
X-21669334Y7855666D02*
X-20969334Y7855666D01*
D10*
X-21669334Y8122333D02*
X-20969334Y8122333D01*
D10*
X-20969334Y8355666D02*
X-20969334Y8122333D01*
D10*
X-21002666Y8455667D02*
X-20969334Y8355666D01*
D10*
X-21069334Y8522333D02*
X-21002666Y8455667D01*
D10*
X-21136000Y8555667D02*
X-21069334Y8522333D01*
D10*
X-21236000Y8589000D02*
X-21136000Y8555667D01*
D10*
X-21402666Y8589000D02*
X-21236000Y8589000D01*
D10*
X-21502666Y8555667D02*
X-21402666Y8589000D01*
D10*
X-21569334Y8522333D02*
X-21502666Y8555667D01*
D10*
X-21636000Y8455667D02*
X-21569334Y8522333D01*
D10*
X-21669334Y8355666D02*
X-21636000Y8455667D01*
D10*
X-21669334Y8122333D02*
X-21669334Y8355666D01*
D10*
X-19059334Y2790666D02*
X-19092666Y2724000D01*
D10*
X-18992666Y2857333D02*
X-19059334Y2790666D01*
D10*
X-18926000Y2890666D02*
X-18992666Y2857333D01*
D10*
X-18792666Y2890666D02*
X-18926000Y2890666D01*
D10*
X-18726000Y2857333D02*
X-18792666Y2890666D01*
D10*
X-18659334Y2790666D02*
X-18726000Y2857333D01*
D10*
X-18626000Y2724000D02*
X-18659334Y2790666D01*
D10*
X-18592666Y2624000D02*
X-18626000Y2724000D01*
D10*
X-18592666Y2457333D02*
X-18592666Y2624000D01*
D10*
X-18626000Y2357333D02*
X-18592666Y2457333D01*
D10*
X-18659334Y2290666D02*
X-18626000Y2357333D01*
D10*
X-18726000Y2224000D02*
X-18659334Y2290666D01*
D10*
X-18792666Y2190666D02*
X-18726000Y2224000D01*
D10*
X-18926000Y2190666D02*
X-18792666Y2190666D01*
D10*
X-18992666Y2224000D02*
X-18926000Y2190666D01*
D10*
X-19059334Y2290666D02*
X-18992666Y2224000D01*
D10*
X-19092666Y2357333D02*
X-19059334Y2290666D01*
D10*
X-19092666Y2457333D02*
X-19092666Y2357333D01*
D10*
X-19092666Y2457333D02*
X-18926000Y2457333D01*
D10*
X-19326000Y2190666D02*
X-19326000Y2890666D01*
D10*
X-19792666Y2190666D02*
X-19326000Y2890666D01*
D10*
X-19792666Y2190666D02*
X-19792666Y2890666D01*
D10*
X-20059334Y2190666D02*
X-20059334Y2890666D01*
D10*
X-20292666Y2890666D02*
X-20059334Y2890666D01*
D10*
X-20392666Y2857333D02*
X-20292666Y2890666D01*
D10*
X-20459334Y2790666D02*
X-20392666Y2857333D01*
D10*
X-20492666Y2724000D02*
X-20459334Y2790666D01*
D10*
X-20526000Y2624000D02*
X-20492666Y2724000D01*
D10*
X-20526000Y2457333D02*
X-20526000Y2624000D01*
D10*
X-20492666Y2357333D02*
X-20526000Y2457333D01*
D10*
X-20459334Y2290666D02*
X-20492666Y2357333D01*
D10*
X-20392666Y2224000D02*
X-20459334Y2290666D01*
D10*
X-20292666Y2190666D02*
X-20392666Y2224000D01*
D10*
X-20059334Y2190666D02*
X-20292666Y2190666D01*
D10*
X19550000Y8266666D02*
X19516666Y8200000D01*
D10*
X19616666Y8333333D02*
X19550000Y8266666D01*
D10*
X19683334Y8366666D02*
X19616666Y8333333D01*
D10*
X19816666Y8366666D02*
X19683334Y8366666D01*
D10*
X19883334Y8333333D02*
X19816666Y8366666D01*
D10*
X19950000Y8266666D02*
X19883334Y8333333D01*
D10*
X19983334Y8200000D02*
X19950000Y8266666D01*
D10*
X20016666Y8100000D02*
X19983334Y8200000D01*
D10*
X20016666Y7933333D02*
X20016666Y8100000D01*
D10*
X19983334Y7833333D02*
X20016666Y7933333D01*
D10*
X19950000Y7766666D02*
X19983334Y7833333D01*
D10*
X19883334Y7700000D02*
X19950000Y7766666D01*
D10*
X19816666Y7666666D02*
X19883334Y7700000D01*
D10*
X19683334Y7666666D02*
X19816666Y7666666D01*
D10*
X19616666Y7700000D02*
X19683334Y7666666D01*
D10*
X19550000Y7766666D02*
X19616666Y7700000D01*
D10*
X19516666Y7833333D02*
X19550000Y7766666D01*
D10*
X19250000Y8366666D02*
X18916666Y8366666D01*
D10*
X19283334Y8066666D02*
X19250000Y8366666D01*
D10*
X19250000Y8100000D02*
X19283334Y8066666D01*
D10*
X19150000Y8133333D02*
X19250000Y8100000D01*
D10*
X19050000Y8133333D02*
X19150000Y8133333D01*
D10*
X18950000Y8100000D02*
X19050000Y8133333D01*
D10*
X18883334Y8033333D02*
X18950000Y8100000D01*
D10*
X18850000Y7933333D02*
X18883334Y8033333D01*
D10*
X18850000Y7866666D02*
X18850000Y7933333D01*
D10*
X18883334Y7766666D02*
X18850000Y7866666D01*
D10*
X18950000Y7700000D02*
X18883334Y7766666D01*
D10*
X19050000Y7666666D02*
X18950000Y7700000D01*
D10*
X19150000Y7666666D02*
X19050000Y7666666D01*
D10*
X19250000Y7700000D02*
X19150000Y7666666D01*
D10*
X19283334Y7733333D02*
X19250000Y7700000D01*
D10*
X19316666Y7800000D02*
X19283334Y7733333D01*
D10*
X-6894667Y1190666D02*
X-7161333Y1890666D01*
D10*
X-7428000Y1190666D02*
X-7161333Y1890666D01*
D10*
X-7328000Y1424000D02*
X-6994667Y1424000D01*
D10*
X-7594666Y1757333D02*
X-7594666Y1724000D01*
D10*
X-7628000Y1824000D02*
X-7594666Y1757333D01*
D10*
X-7661333Y1857333D02*
X-7628000Y1824000D01*
D10*
X-7728000Y1890666D02*
X-7661333Y1857333D01*
D10*
X-7861333Y1890666D02*
X-7728000Y1890666D01*
D10*
X-7928000Y1857333D02*
X-7861333Y1890666D01*
D10*
X-7961333Y1824000D02*
X-7928000Y1857333D01*
D10*
X-7994666Y1757333D02*
X-7961333Y1824000D01*
D10*
X-7994666Y1690666D02*
X-7994666Y1757333D01*
D10*
X-7961333Y1624000D02*
X-7994666Y1690666D01*
D10*
X-7894666Y1524000D02*
X-7961333Y1624000D01*
D10*
X-7561333Y1190666D02*
X-7894666Y1524000D01*
D10*
X-8028000Y1190666D02*
X-7561333Y1190666D01*
D10*
X20254000Y1190666D02*
X20520666Y1890666D01*
D10*
X20254000Y1190666D02*
X19987334Y1890666D01*
D10*
X19820666Y1190666D02*
X19820666Y1890666D01*
D10*
X19587334Y1890666D02*
X19820666Y1890666D01*
D10*
X19487334Y1857333D02*
X19587334Y1890666D01*
D10*
X19420666Y1790666D02*
X19487334Y1857333D01*
D10*
X19387334Y1724000D02*
X19420666Y1790666D01*
D10*
X19354000Y1624000D02*
X19387334Y1724000D01*
D10*
X19354000Y1457333D02*
X19354000Y1624000D01*
D10*
X19387334Y1357333D02*
X19354000Y1457333D01*
D10*
X19420666Y1290666D02*
X19387334Y1357333D01*
D10*
X19487334Y1224000D02*
X19420666Y1290666D01*
D10*
X19587334Y1190666D02*
X19487334Y1224000D01*
D10*
X19820666Y1190666D02*
X19587334Y1190666D01*
D10*
X19120666Y1190666D02*
X19120666Y1890666D01*
D10*
X18887334Y1890666D02*
X19120666Y1890666D01*
D10*
X18787334Y1857333D02*
X18887334Y1890666D01*
D10*
X18720666Y1790666D02*
X18787334Y1857333D01*
D10*
X18687334Y1724000D02*
X18720666Y1790666D01*
D10*
X18654000Y1624000D02*
X18687334Y1724000D01*
D10*
X18654000Y1457333D02*
X18654000Y1624000D01*
D10*
X18687334Y1357333D02*
X18654000Y1457333D01*
D10*
X18720666Y1290666D02*
X18687334Y1357333D01*
D10*
X18787334Y1224000D02*
X18720666Y1290666D01*
D10*
X18887334Y1190666D02*
X18787334Y1224000D01*
D10*
X19120666Y1190666D02*
X18887334Y1190666D01*
D10*
X-21669334Y2555000D02*
X-20969334Y2288333D01*
D10*
X-21669334Y2555000D02*
X-20969334Y2821666D01*
D10*
X-21669334Y2988333D02*
X-20969334Y2988333D01*
D10*
X-21669334Y3255000D02*
X-20969334Y3255000D01*
D10*
X-21669334Y3721666D02*
X-20969334Y3255000D01*
D10*
X-21669334Y3721666D02*
X-20969334Y3721666D01*
D10*
X19733334Y11416667D02*
X19733334Y12116667D01*
D10*
X19433334Y12116667D02*
X19733334Y12116667D01*
D10*
X19333334Y12083333D02*
X19433334Y12116667D01*
D10*
X19300000Y12050000D02*
X19333334Y12083333D01*
D10*
X19266666Y11983333D02*
X19300000Y12050000D01*
D10*
X19266666Y11916667D02*
X19266666Y11983333D01*
D10*
X19300000Y11850000D02*
X19266666Y11916667D01*
D10*
X19333334Y11816667D02*
X19300000Y11850000D01*
D10*
X19433334Y11783333D02*
X19333334Y11816667D01*
D10*
X19733334Y11783333D02*
X19433334Y11783333D01*
D10*
X19266666Y11416667D02*
X19500000Y11783333D01*
D10*
X19033334Y11983333D02*
X19033334Y11950000D01*
D10*
X19000000Y12050000D02*
X19033334Y11983333D01*
D10*
X18966666Y12083333D02*
X19000000Y12050000D01*
D10*
X18900000Y12116667D02*
X18966666Y12083333D01*
D10*
X18766666Y12116667D02*
X18900000Y12116667D01*
D10*
X18700000Y12083333D02*
X18766666Y12116667D01*
D10*
X18666666Y12050000D02*
X18700000Y12083333D01*
D10*
X18633334Y11983333D02*
X18666666Y12050000D01*
D10*
X18633334Y11916667D02*
X18633334Y11983333D01*
D10*
X18666666Y11850000D02*
X18633334Y11916667D01*
D10*
X18733334Y11750000D02*
X18666666Y11850000D01*
D10*
X19066666Y11416667D02*
X18733334Y11750000D01*
D10*
X18600000Y11416667D02*
X19066666Y11416667D01*
D10*
X-9803333Y15886667D02*
X-9803333Y16586667D01*
D10*
X-10170000Y16553333D02*
X-10236667Y16586667D01*
D10*
X-10103333Y16486667D02*
X-10170000Y16553333D01*
D10*
X-10070000Y16420000D02*
X-10103333Y16486667D01*
D10*
X-10036667Y16320000D02*
X-10070000Y16420000D01*
D10*
X-10036667Y16153333D02*
X-10036667Y16320000D01*
D10*
X-10070000Y16053333D02*
X-10036667Y16153333D01*
D10*
X-10103333Y15986667D02*
X-10070000Y16053333D01*
D10*
X-10170000Y15920000D02*
X-10103333Y15986667D01*
D10*
X-10236667Y15886667D02*
X-10170000Y15920000D01*
D10*
X-10370000Y15886667D02*
X-10236667Y15886667D01*
D10*
X-10436667Y15920000D02*
X-10370000Y15886667D01*
D10*
X-10503333Y15986667D02*
X-10436667Y15920000D01*
D10*
X-10536667Y16053333D02*
X-10503333Y15986667D01*
D10*
X-10570000Y16153333D02*
X-10536667Y16053333D01*
D10*
X-10570000Y16320000D02*
X-10570000Y16153333D01*
D10*
X-10536667Y16420000D02*
X-10570000Y16320000D01*
D10*
X-10503333Y16486667D02*
X-10536667Y16420000D01*
D10*
X-10436667Y16553333D02*
X-10503333Y16486667D01*
D10*
X-10370000Y16586667D02*
X-10436667Y16553333D01*
D10*
X-10236667Y16586667D02*
X-10370000Y16586667D01*
D10*
X-6863333Y15886667D02*
X-6863333Y16586667D01*
D10*
X-7163333Y16586667D02*
X-6863333Y16586667D01*
D10*
X-7263333Y16553333D02*
X-7163333Y16586667D01*
D10*
X-7296667Y16520000D02*
X-7263333Y16553333D01*
D10*
X-7330000Y16453333D02*
X-7296667Y16520000D01*
D10*
X-7330000Y16386667D02*
X-7330000Y16453333D01*
D10*
X-7296667Y16320000D02*
X-7330000Y16386667D01*
D10*
X-7263333Y16286667D02*
X-7296667Y16320000D01*
D10*
X-7163333Y16253333D02*
X-7263333Y16286667D01*
D10*
X-6863333Y16253333D02*
X-7163333Y16253333D01*
D10*
X-7330000Y15886667D02*
X-7096667Y16253333D01*
D10*
X-7930000Y16553333D02*
X-7996666Y16486667D01*
D10*
X-7830000Y16586667D02*
X-7930000Y16553333D01*
D10*
X-7696666Y16586667D02*
X-7830000Y16586667D01*
D10*
X-7596666Y16553333D02*
X-7696666Y16586667D01*
D10*
X-7530000Y16486667D02*
X-7596666Y16553333D01*
D10*
X-7530000Y16420000D02*
X-7530000Y16486667D01*
D10*
X-7563333Y16353333D02*
X-7530000Y16420000D01*
D10*
X-7596666Y16320000D02*
X-7563333Y16353333D01*
D10*
X-7663333Y16286667D02*
X-7596666Y16320000D01*
D10*
X-7863333Y16220000D02*
X-7663333Y16286667D01*
D10*
X-7930000Y16186667D02*
X-7863333Y16220000D01*
D10*
X-7963333Y16153333D02*
X-7930000Y16186667D01*
D10*
X-7996666Y16086667D02*
X-7963333Y16153333D01*
D10*
X-7996666Y15986667D02*
X-7996666Y16086667D01*
D10*
X-7930000Y15920000D02*
X-7996666Y15986667D01*
D10*
X-7830000Y15886667D02*
X-7930000Y15920000D01*
D10*
X-7696666Y15886667D02*
X-7830000Y15886667D01*
D10*
X-7596666Y15920000D02*
X-7696666Y15886667D01*
D10*
X-7530000Y15986667D02*
X-7596666Y15920000D01*
D10*
X-8363333Y15886667D02*
X-8363333Y16586667D01*
D10*
X-8596667Y16586667D02*
X-8130000Y16586667D01*
D10*
X21002666Y4322000D02*
X21702666Y4055333D01*
D10*
X21002666Y4322000D02*
X21702666Y4588667D01*
D10*
X21002666Y4755333D02*
X21702666Y4755333D01*
D10*
X21702666Y4988666D02*
X21702666Y4755333D01*
D10*
X21669334Y5088666D02*
X21702666Y4988666D01*
D10*
X21602666Y5155333D02*
X21669334Y5088666D01*
D10*
X21536000Y5188666D02*
X21602666Y5155333D01*
D10*
X21436000Y5222000D02*
X21536000Y5188666D01*
D10*
X21269334Y5222000D02*
X21436000Y5222000D01*
D10*
X21169334Y5188666D02*
X21269334Y5222000D01*
D10*
X21102666Y5155333D02*
X21169334Y5188666D01*
D10*
X21036000Y5088666D02*
X21102666Y5155333D01*
D10*
X21002666Y4988666D02*
X21036000Y5088666D01*
D10*
X21002666Y4755333D02*
X21002666Y4988666D01*
D10*
X21002666Y5455333D02*
X21702666Y5455333D01*
D10*
X21702666Y5688666D02*
X21702666Y5455333D01*
D10*
X21669334Y5788666D02*
X21702666Y5688666D01*
D10*
X21602666Y5855333D02*
X21669334Y5788666D01*
D10*
X21536000Y5888666D02*
X21602666Y5855333D01*
D10*
X21436000Y5922000D02*
X21536000Y5888666D01*
D10*
X21269334Y5922000D02*
X21436000Y5922000D01*
D10*
X21169334Y5888666D02*
X21269334Y5922000D01*
D10*
X21102666Y5855333D02*
X21169334Y5888666D01*
D10*
X21036000Y5788666D02*
X21102666Y5855333D01*
D10*
X21002666Y5688666D02*
X21036000Y5788666D01*
D10*
X21002666Y5455333D02*
X21002666Y5688666D01*
D10*
X-14683333Y16486667D02*
X-14716667Y16420000D01*
D10*
X-14616667Y16553333D02*
X-14683333Y16486667D01*
D10*
X-14550000Y16586667D02*
X-14616667Y16553333D01*
D10*
X-14416667Y16586667D02*
X-14550000Y16586667D01*
D10*
X-14350000Y16553333D02*
X-14416667Y16586667D01*
D10*
X-14283333Y16486667D02*
X-14350000Y16553333D01*
D10*
X-14250000Y16420000D02*
X-14283333Y16486667D01*
D10*
X-14216667Y16320000D02*
X-14250000Y16420000D01*
D10*
X-14216667Y16153333D02*
X-14216667Y16320000D01*
D10*
X-14250000Y16053333D02*
X-14216667Y16153333D01*
D10*
X-14283333Y15986667D02*
X-14250000Y16053333D01*
D10*
X-14350000Y15920000D02*
X-14283333Y15986667D01*
D10*
X-14416667Y15886667D02*
X-14350000Y15920000D01*
D10*
X-14550000Y15886667D02*
X-14416667Y15886667D01*
D10*
X-14616667Y15920000D02*
X-14550000Y15886667D01*
D10*
X-14683333Y15986667D02*
X-14616667Y15920000D01*
D10*
X-14716667Y16053333D02*
X-14683333Y15986667D01*
D10*
X-14716667Y16153333D02*
X-14716667Y16053333D01*
D10*
X-14716667Y16153333D02*
X-14550000Y16153333D01*
D10*
X-14950000Y15886667D02*
X-14950000Y16586667D01*
D10*
X-15416667Y15886667D02*
X-14950000Y16586667D01*
D10*
X-15416667Y15886667D02*
X-15416667Y16586667D01*
D10*
X-15683333Y15886667D02*
X-15683333Y16586667D01*
D10*
X-15916667Y16586667D02*
X-15683333Y16586667D01*
D10*
X-16016667Y16553333D02*
X-15916667Y16586667D01*
D10*
X-16083333Y16486667D02*
X-16016667Y16553333D01*
D10*
X-16116667Y16420000D02*
X-16083333Y16486667D01*
D10*
X-16150000Y16320000D02*
X-16116667Y16420000D01*
D10*
X-16150000Y16153333D02*
X-16150000Y16320000D01*
D10*
X-16116667Y16053333D02*
X-16150000Y16153333D01*
D10*
X-16083333Y15986667D02*
X-16116667Y16053333D01*
D10*
X-16016667Y15920000D02*
X-16083333Y15986667D01*
D10*
X-15916667Y15886667D02*
X-16016667Y15920000D01*
D10*
X-15683333Y15886667D02*
X-15916667Y15886667D01*
D10*
X8345333Y1190666D02*
X8078666Y1890666D01*
D10*
X7812000Y1190666D02*
X8078666Y1890666D01*
D10*
X7912000Y1424000D02*
X8245333Y1424000D01*
D10*
X7278666Y1557333D02*
X7245333Y1657333D01*
D10*
X7345333Y1490666D02*
X7278666Y1557333D01*
D10*
X7445333Y1457333D02*
X7345333Y1490666D01*
D10*
X7478666Y1457333D02*
X7445333Y1457333D01*
D10*
X7578666Y1490666D02*
X7478666Y1457333D01*
D10*
X7645333Y1557333D02*
X7578666Y1490666D01*
D10*
X7678666Y1657333D02*
X7645333Y1557333D01*
D10*
X7678666Y1690666D02*
X7678666Y1657333D01*
D10*
X7645333Y1790666D02*
X7678666Y1690666D01*
D10*
X7578666Y1857333D02*
X7645333Y1790666D01*
D10*
X7478666Y1890666D02*
X7578666Y1857333D01*
D10*
X7445333Y1890666D02*
X7478666Y1890666D01*
D10*
X7345333Y1857333D02*
X7445333Y1890666D01*
D10*
X7278666Y1790666D02*
X7345333Y1857333D01*
D10*
X7245333Y1657333D02*
X7278666Y1790666D01*
D10*
X7245333Y1490666D02*
X7245333Y1657333D01*
D10*
X7278666Y1324000D02*
X7245333Y1490666D01*
D10*
X7345333Y1224000D02*
X7278666Y1324000D01*
D10*
X7445333Y1190666D02*
X7345333Y1224000D01*
D10*
X7512000Y1190666D02*
X7445333Y1190666D01*
D10*
X7612000Y1224000D02*
X7512000Y1190666D01*
D10*
X7645333Y1290666D02*
X7612000Y1224000D01*
D10*
X15583333Y16900000D02*
X16116667Y16900000D01*
D10*
X15483333Y16866666D02*
X15583333Y16900000D01*
D10*
X15450000Y16833334D02*
X15483333Y16866666D01*
D10*
X15416667Y16766667D02*
X15450000Y16833334D01*
D10*
X15416667Y16700000D02*
X15416667Y16766667D01*
D10*
X15450000Y16633333D02*
X15416667Y16700000D01*
D10*
X15483333Y16600000D02*
X15450000Y16633333D01*
D10*
X15583333Y16566667D02*
X15483333Y16600000D01*
D10*
X15650000Y16566667D02*
X15583333Y16566667D01*
D10*
X15983333Y17166666D02*
X15950000Y17166666D01*
D10*
X16050000Y17200000D02*
X15983333Y17166666D01*
D10*
X16083333Y17233334D02*
X16050000Y17200000D01*
D10*
X16116667Y17300000D02*
X16083333Y17233334D01*
D10*
X16116667Y17433334D02*
X16116667Y17300000D01*
D10*
X16083333Y17500000D02*
X16116667Y17433334D01*
D10*
X16050000Y17533334D02*
X16083333Y17500000D01*
D10*
X15983333Y17566666D02*
X16050000Y17533334D01*
D10*
X15916667Y17566666D02*
X15983333Y17566666D01*
D10*
X15850000Y17533334D02*
X15916667Y17566666D01*
D10*
X15750000Y17466666D02*
X15850000Y17533334D01*
D10*
X15416667Y17133334D02*
X15750000Y17466666D01*
D10*
X15416667Y17600000D02*
X15416667Y17133334D01*
D10*
X16124000Y1190666D02*
X15857333Y1890666D01*
D10*
X15590667Y1190666D02*
X15857333Y1890666D01*
D10*
X15690667Y1424000D02*
X16024000Y1424000D01*
D10*
X15290667Y1790666D02*
X15357333Y1757333D01*
D10*
X15190667Y1890666D02*
X15290667Y1790666D01*
D10*
X15190667Y1190666D02*
X15190667Y1890666D01*
D10*
X14790667Y1424000D02*
X14457333Y1890666D01*
D10*
X14290667Y1424000D02*
X14790667Y1424000D01*
D10*
X14457333Y1190666D02*
X14457333Y1890666D01*
D10*
X-4390000Y15886667D02*
X-4123333Y16586667D01*
D10*
X-4390000Y15886667D02*
X-4656667Y16586667D01*
D10*
X-4823333Y15886667D02*
X-4823333Y16586667D01*
D10*
X-5056666Y16586667D02*
X-4823333Y16586667D01*
D10*
X-5156666Y16553333D02*
X-5056666Y16586667D01*
D10*
X-5223333Y16486667D02*
X-5156666Y16553333D01*
D10*
X-5256666Y16420000D02*
X-5223333Y16486667D01*
D10*
X-5290000Y16320000D02*
X-5256666Y16420000D01*
D10*
X-5290000Y16153333D02*
X-5290000Y16320000D01*
D10*
X-5256666Y16053333D02*
X-5290000Y16153333D01*
D10*
X-5223333Y15986667D02*
X-5256666Y16053333D01*
D10*
X-5156666Y15920000D02*
X-5223333Y15986667D01*
D10*
X-5056666Y15886667D02*
X-5156666Y15920000D01*
D10*
X-4823333Y15886667D02*
X-5056666Y15886667D01*
D10*
X-5523333Y15886667D02*
X-5523333Y16586667D01*
D10*
X-5756666Y16586667D02*
X-5523333Y16586667D01*
D10*
X-5856666Y16553333D02*
X-5756666Y16586667D01*
D10*
X-5923333Y16486667D02*
X-5856666Y16553333D01*
D10*
X-5956666Y16420000D02*
X-5923333Y16486667D01*
D10*
X-5990000Y16320000D02*
X-5956666Y16420000D01*
D10*
X-5990000Y16153333D02*
X-5990000Y16320000D01*
D10*
X-5956666Y16053333D02*
X-5990000Y16153333D01*
D10*
X-5923333Y15986667D02*
X-5956666Y16053333D01*
D10*
X-5856666Y15920000D02*
X-5923333Y15986667D01*
D10*
X-5756666Y15886667D02*
X-5856666Y15920000D01*
D10*
X-5523333Y15886667D02*
X-5756666Y15886667D01*
D10*
X12100000Y2833333D02*
X12100000Y3366666D01*
D10*
X12133333Y2733333D02*
X12100000Y2833333D01*
D10*
X12166667Y2700000D02*
X12133333Y2733333D01*
D10*
X12233333Y2666666D02*
X12166667Y2700000D01*
D10*
X12300000Y2666666D02*
X12233333Y2666666D01*
D10*
X12366667Y2700000D02*
X12300000Y2666666D01*
D10*
X12400000Y2733333D02*
X12366667Y2700000D01*
D10*
X12433333Y2833333D02*
X12400000Y2733333D01*
D10*
X12433333Y2900000D02*
X12433333Y2833333D01*
D10*
X11833333Y2666666D02*
X11833333Y3366666D01*
D10*
X11533333Y3366666D02*
X11833333Y3366666D01*
D10*
X11433333Y3333333D02*
X11533333Y3366666D01*
D10*
X11400000Y3300000D02*
X11433333Y3333333D01*
D10*
X11366667Y3233333D02*
X11400000Y3300000D01*
D10*
X11366667Y3133333D02*
X11366667Y3233333D01*
D10*
X11400000Y3066666D02*
X11366667Y3133333D01*
D10*
X11433333Y3033333D02*
X11400000Y3066666D01*
D10*
X11533333Y3000000D02*
X11433333Y3033333D01*
D10*
X11833333Y3000000D02*
X11533333Y3000000D01*
D10*
X11100000Y3366666D02*
X10766667Y3366666D01*
D10*
X11133333Y3066666D02*
X11100000Y3366666D01*
D10*
X11100000Y3100000D02*
X11133333Y3066666D01*
D10*
X11000000Y3133333D02*
X11100000Y3100000D01*
D10*
X10900000Y3133333D02*
X11000000Y3133333D01*
D10*
X10800000Y3100000D02*
X10900000Y3133333D01*
D10*
X10733333Y3033333D02*
X10800000Y3100000D01*
D10*
X10700000Y2933333D02*
X10733333Y3033333D01*
D10*
X10700000Y2866666D02*
X10700000Y2933333D01*
D10*
X10733333Y2766666D02*
X10700000Y2866666D01*
D10*
X10800000Y2700000D02*
X10733333Y2766666D01*
D10*
X10900000Y2666666D02*
X10800000Y2700000D01*
D10*
X11000000Y2666666D02*
X10900000Y2666666D01*
D10*
X11100000Y2700000D02*
X11000000Y2666666D01*
D10*
X11133333Y2733333D02*
X11100000Y2700000D01*
D10*
X11166667Y2800000D02*
X11133333Y2733333D01*
D10*
X10466667Y3100000D02*
X10433333Y3133333D01*
D10*
X10433333Y3066666D02*
X10466667Y3100000D01*
D10*
X10400000Y3100000D02*
X10433333Y3066666D01*
D10*
X10433333Y3133333D02*
X10400000Y3100000D01*
D10*
X10466667Y2700000D02*
X10433333Y2733333D01*
D10*
X10433333Y2666666D02*
X10466667Y2700000D01*
D10*
X10400000Y2700000D02*
X10433333Y2666666D01*
D10*
X10433333Y2733333D02*
X10400000Y2700000D01*
D10*
X9500000Y3333333D02*
X9433334Y3266666D01*
D10*
X9600000Y3366666D02*
X9500000Y3333333D01*
D10*
X9733334Y3366666D02*
X9600000Y3366666D01*
D10*
X9833334Y3333333D02*
X9733334Y3366666D01*
D10*
X9900000Y3266666D02*
X9833334Y3333333D01*
D10*
X9900000Y3200000D02*
X9900000Y3266666D01*
D10*
X9866667Y3133333D02*
X9900000Y3200000D01*
D10*
X9833334Y3100000D02*
X9866667Y3133333D01*
D10*
X9766667Y3066666D02*
X9833334Y3100000D01*
D10*
X9566667Y3000000D02*
X9766667Y3066666D01*
D10*
X9500000Y2966666D02*
X9566667Y3000000D01*
D10*
X9466667Y2933333D02*
X9500000Y2966666D01*
D10*
X9433334Y2866666D02*
X9466667Y2933333D01*
D10*
X9433334Y2766666D02*
X9433334Y2866666D01*
D10*
X9500000Y2700000D02*
X9433334Y2766666D01*
D10*
X9600000Y2666666D02*
X9500000Y2700000D01*
D10*
X9733334Y2666666D02*
X9600000Y2666666D01*
D10*
X9833334Y2700000D02*
X9733334Y2666666D01*
D10*
X9900000Y2766666D02*
X9833334Y2700000D01*
D10*
X9200000Y2666666D02*
X9200000Y3366666D01*
D10*
X8966667Y3366666D02*
X9200000Y3366666D01*
D10*
X8866667Y3333333D02*
X8966667Y3366666D01*
D10*
X8800000Y3266666D02*
X8866667Y3333333D01*
D10*
X8766667Y3200000D02*
X8800000Y3266666D01*
D10*
X8733334Y3100000D02*
X8766667Y3200000D01*
D10*
X8733334Y2933333D02*
X8733334Y3100000D01*
D10*
X8766667Y2833333D02*
X8733334Y2933333D01*
D10*
X8800000Y2766666D02*
X8766667Y2833333D01*
D10*
X8866667Y2700000D02*
X8800000Y2766666D01*
D10*
X8966667Y2666666D02*
X8866667Y2700000D01*
D10*
X9200000Y2666666D02*
X8966667Y2666666D01*
D10*
X8233333Y2666666D02*
X8233333Y3366666D01*
D10*
X7933333Y3366666D02*
X8233333Y3366666D01*
D10*
X7833333Y3333333D02*
X7933333Y3366666D01*
D10*
X7800000Y3300000D02*
X7833333Y3333333D01*
D10*
X7766667Y3233333D02*
X7800000Y3300000D01*
D10*
X7766667Y3133333D02*
X7766667Y3233333D01*
D10*
X7800000Y3066666D02*
X7766667Y3133333D01*
D10*
X7833333Y3033333D02*
X7800000Y3066666D01*
D10*
X7933333Y3000000D02*
X7833333Y3033333D01*
D10*
X8233333Y3000000D02*
X7933333Y3000000D01*
D10*
X7433333Y2666666D02*
X7600000Y3366666D01*
D10*
X7433333Y2666666D02*
X7266667Y3366666D01*
D10*
X7100000Y2666666D02*
X7266667Y3366666D01*
D10*
X7100000Y2666666D02*
X6933333Y3366666D01*
D10*
X6733333Y2666666D02*
X6733333Y3366666D01*
D10*
X6433333Y3366666D02*
X6733333Y3366666D01*
D10*
X6333333Y3333333D02*
X6433333Y3366666D01*
D10*
X6300000Y3300000D02*
X6333333Y3333333D01*
D10*
X6266667Y3233333D02*
X6300000Y3300000D01*
D10*
X6266667Y3166666D02*
X6266667Y3233333D01*
D10*
X6300000Y3100000D02*
X6266667Y3166666D01*
D10*
X6333333Y3066666D02*
X6300000Y3100000D01*
D10*
X6433333Y3033333D02*
X6333333Y3066666D01*
D10*
X6733333Y3033333D02*
X6433333Y3033333D01*
D10*
X6266667Y2666666D02*
X6500000Y3033333D01*
D10*
X-11974667Y1190666D02*
X-12241333Y1890666D01*
D10*
X-12508000Y1190666D02*
X-12241333Y1890666D01*
D10*
X-12408000Y1424000D02*
X-12074667Y1424000D01*
D10*
X-12741333Y1857333D02*
X-12841333Y1890666D01*
D10*
X-12674667Y1757333D02*
X-12741333Y1857333D01*
D10*
X-12641333Y1590666D02*
X-12674667Y1757333D01*
D10*
X-12641333Y1490666D02*
X-12641333Y1590666D01*
D10*
X-12674667Y1324000D02*
X-12641333Y1490666D01*
D10*
X-12741333Y1224000D02*
X-12674667Y1324000D01*
D10*
X-12841333Y1190666D02*
X-12741333Y1224000D01*
D10*
X-12908000Y1190666D02*
X-12841333Y1190666D01*
D10*
X-13008000Y1224000D02*
X-12908000Y1190666D01*
D10*
X-13074667Y1324000D02*
X-13008000Y1224000D01*
D10*
X-13108000Y1490666D02*
X-13074667Y1324000D01*
D10*
X-13108000Y1590666D02*
X-13108000Y1490666D01*
D10*
X-13074667Y1757333D02*
X-13108000Y1590666D01*
D10*
X-13008000Y1857333D02*
X-13074667Y1757333D01*
D10*
X-12908000Y1890666D02*
X-13008000Y1857333D01*
D10*
X-12841333Y1890666D02*
X-12908000Y1890666D01*
D10*
X19733334Y6416666D02*
X19733334Y7116666D01*
D10*
X19433334Y7116666D02*
X19733334Y7116666D01*
D10*
X19333334Y7083333D02*
X19433334Y7116666D01*
D10*
X19300000Y7050000D02*
X19333334Y7083333D01*
D10*
X19266666Y6983333D02*
X19300000Y7050000D01*
D10*
X19266666Y6916666D02*
X19266666Y6983333D01*
D10*
X19300000Y6850000D02*
X19266666Y6916666D01*
D10*
X19333334Y6816666D02*
X19300000Y6850000D01*
D10*
X19433334Y6783333D02*
X19333334Y6816666D01*
D10*
X19733334Y6783333D02*
X19433334Y6783333D01*
D10*
X19266666Y6416666D02*
X19500000Y6783333D01*
D10*
X19000000Y7116666D02*
X18666666Y7116666D01*
D10*
X19033334Y6816666D02*
X19000000Y7116666D01*
D10*
X19000000Y6850000D02*
X19033334Y6816666D01*
D10*
X18900000Y6883333D02*
X19000000Y6850000D01*
D10*
X18800000Y6883333D02*
X18900000Y6883333D01*
D10*
X18700000Y6850000D02*
X18800000Y6883333D01*
D10*
X18633334Y6783333D02*
X18700000Y6850000D01*
D10*
X18600000Y6683333D02*
X18633334Y6783333D01*
D10*
X18600000Y6616666D02*
X18600000Y6683333D01*
D10*
X18633334Y6516666D02*
X18600000Y6616666D01*
D10*
X18700000Y6450000D02*
X18633334Y6516666D01*
D10*
X18800000Y6416666D02*
X18700000Y6450000D01*
D10*
X18900000Y6416666D02*
X18800000Y6416666D01*
D10*
X19000000Y6450000D02*
X18900000Y6416666D01*
D10*
X19033334Y6483333D02*
X19000000Y6450000D01*
D10*
X19066666Y6550000D02*
X19033334Y6483333D01*
D10*
X19733334Y8916667D02*
X19733334Y9616667D01*
D10*
X19433334Y9616667D02*
X19733334Y9616667D01*
D10*
X19333334Y9583333D02*
X19433334Y9616667D01*
D10*
X19300000Y9550000D02*
X19333334Y9583333D01*
D10*
X19266666Y9483333D02*
X19300000Y9550000D01*
D10*
X19266666Y9416667D02*
X19266666Y9483333D01*
D10*
X19300000Y9350000D02*
X19266666Y9416667D01*
D10*
X19333334Y9316667D02*
X19300000Y9350000D01*
D10*
X19433334Y9283333D02*
X19333334Y9316667D01*
D10*
X19733334Y9283333D02*
X19433334Y9283333D01*
D10*
X19266666Y8916667D02*
X19500000Y9283333D01*
D10*
X19066666Y9150000D02*
X18733334Y9616667D01*
D10*
X18566666Y9150000D02*
X19066666Y9150000D01*
D10*
X18733334Y8916667D02*
X18733334Y9616667D01*
D10*
X-1333333Y14591667D02*
X-1333333Y15291667D01*
D10*
X-1633333Y15291667D02*
X-1333333Y15291667D01*
D10*
X-1733333Y15258333D02*
X-1633333Y15291667D01*
D10*
X-1766666Y15225000D02*
X-1733333Y15258333D01*
D10*
X-1800000Y15158333D02*
X-1766666Y15225000D01*
D10*
X-1800000Y15058333D02*
X-1800000Y15158333D01*
D10*
X-1766666Y14991667D02*
X-1800000Y15058333D01*
D10*
X-1733333Y14958333D02*
X-1766666Y14991667D01*
D10*
X-1633333Y14925000D02*
X-1733333Y14958333D01*
D10*
X-1333333Y14925000D02*
X-1633333Y14925000D01*
D10*
X-2033333Y14591667D02*
X-2033333Y15291667D01*
D10*
X-2466666Y15291667D02*
X-2033333Y15291667D01*
D10*
X-2300000Y14958333D02*
X-2033333Y14958333D01*
D10*
X-2700000Y15258333D02*
X-2800000Y15291667D01*
D10*
X-2633333Y15158333D02*
X-2700000Y15258333D01*
D10*
X-2600000Y14991667D02*
X-2633333Y15158333D01*
D10*
X-2600000Y14891667D02*
X-2600000Y14991667D01*
D10*
X-2633333Y14725000D02*
X-2600000Y14891667D01*
D10*
X-2700000Y14625000D02*
X-2633333Y14725000D01*
D10*
X-2800000Y14591667D02*
X-2700000Y14625000D01*
D10*
X-2866666Y14591667D02*
X-2800000Y14591667D01*
D10*
X-2966666Y14625000D02*
X-2866666Y14591667D01*
D10*
X-3033333Y14725000D02*
X-2966666Y14625000D01*
D10*
X-3066666Y14891667D02*
X-3033333Y14725000D01*
D10*
X-3066666Y14991667D02*
X-3066666Y14891667D01*
D10*
X-3033333Y15158333D02*
X-3066666Y14991667D01*
D10*
X-2966666Y15258333D02*
X-3033333Y15158333D01*
D10*
X-2866666Y15291667D02*
X-2966666Y15258333D01*
D10*
X-2800000Y15291667D02*
X-2866666Y15291667D01*
D10*
X-3300000Y15025000D02*
X-3333333Y15058333D01*
D10*
X-3333333Y14991667D02*
X-3300000Y15025000D01*
D10*
X-3366666Y15025000D02*
X-3333333Y14991667D01*
D10*
X-3333333Y15058333D02*
X-3366666Y15025000D01*
D10*
X-3300000Y14625000D02*
X-3333333Y14658333D01*
D10*
X-3333333Y14591667D02*
X-3300000Y14625000D01*
D10*
X-3366666Y14625000D02*
X-3333333Y14591667D01*
D10*
X-3333333Y14658333D02*
X-3366666Y14625000D01*
D10*
X-4000000Y15258333D02*
X-4066666Y15291667D01*
D10*
X-3933333Y15191667D02*
X-4000000Y15258333D01*
D10*
X-3900000Y15125000D02*
X-3933333Y15191667D01*
D10*
X-3866666Y15025000D02*
X-3900000Y15125000D01*
D10*
X-3866666Y14858333D02*
X-3866666Y15025000D01*
D10*
X-3900000Y14758333D02*
X-3866666Y14858333D01*
D10*
X-3933333Y14691667D02*
X-3900000Y14758333D01*
D10*
X-4000000Y14625000D02*
X-3933333Y14691667D01*
D10*
X-4066666Y14591667D02*
X-4000000Y14625000D01*
D10*
X-4200000Y14591667D02*
X-4066666Y14591667D01*
D10*
X-4266666Y14625000D02*
X-4200000Y14591667D01*
D10*
X-4333333Y14691667D02*
X-4266666Y14625000D01*
D10*
X-4366666Y14758333D02*
X-4333333Y14691667D01*
D10*
X-4400000Y14858333D02*
X-4366666Y14758333D01*
D10*
X-4400000Y15025000D02*
X-4400000Y14858333D01*
D10*
X-4366666Y15125000D02*
X-4400000Y15025000D01*
D10*
X-4333333Y15191667D02*
X-4366666Y15125000D01*
D10*
X-4266666Y15258333D02*
X-4333333Y15191667D01*
D10*
X-4200000Y15291667D02*
X-4266666Y15258333D01*
D10*
X-4066666Y15291667D02*
X-4200000Y15291667D01*
D10*
X-5000000Y15258333D02*
X-5066666Y15191667D01*
D10*
X-4900000Y15291667D02*
X-5000000Y15258333D01*
D10*
X-4766666Y15291667D02*
X-4900000Y15291667D01*
D10*
X-4666666Y15258333D02*
X-4766666Y15291667D01*
D10*
X-4600000Y15191667D02*
X-4666666Y15258333D01*
D10*
X-4600000Y15125000D02*
X-4600000Y15191667D01*
D10*
X-4633333Y15058333D02*
X-4600000Y15125000D01*
D10*
X-4666666Y15025000D02*
X-4633333Y15058333D01*
D10*
X-4733333Y14991667D02*
X-4666666Y15025000D01*
D10*
X-4933333Y14925000D02*
X-4733333Y14991667D01*
D10*
X-5000000Y14891667D02*
X-4933333Y14925000D01*
D10*
X-5033333Y14858333D02*
X-5000000Y14891667D01*
D10*
X-5066666Y14791667D02*
X-5033333Y14858333D01*
D10*
X-5066666Y14691667D02*
X-5066666Y14791667D01*
D10*
X-5000000Y14625000D02*
X-5066666Y14691667D01*
D10*
X-4900000Y14591667D02*
X-5000000Y14625000D01*
D10*
X-4766666Y14591667D02*
X-4900000Y14591667D01*
D10*
X-4666666Y14625000D02*
X-4766666Y14591667D01*
D10*
X-4600000Y14691667D02*
X-4666666Y14625000D01*
D10*
X-5733333Y15191667D02*
X-5766666Y15125000D01*
D10*
X-5666666Y15258333D02*
X-5733333Y15191667D01*
D10*
X-5600000Y15291667D02*
X-5666666Y15258333D01*
D10*
X-5466666Y15291667D02*
X-5600000Y15291667D01*
D10*
X-5400000Y15258333D02*
X-5466666Y15291667D01*
D10*
X-5333333Y15191667D02*
X-5400000Y15258333D01*
D10*
X-5300000Y15125000D02*
X-5333333Y15191667D01*
D10*
X-5266666Y15025000D02*
X-5300000Y15125000D01*
D10*
X-5266666Y14858333D02*
X-5266666Y15025000D01*
D10*
X-5300000Y14758333D02*
X-5266666Y14858333D01*
D10*
X-5333333Y14691667D02*
X-5300000Y14758333D01*
D10*
X-5400000Y14625000D02*
X-5333333Y14691667D01*
D10*
X-5466666Y14591667D02*
X-5400000Y14625000D01*
D10*
X-5600000Y14591667D02*
X-5466666Y14591667D01*
D10*
X-5666666Y14625000D02*
X-5600000Y14591667D01*
D10*
X-5733333Y14691667D02*
X-5666666Y14625000D01*
D10*
X-5766666Y14758333D02*
X-5733333Y14691667D01*
D10*
X-6000000Y14591667D02*
X-6000000Y15291667D01*
D10*
X-6266666Y14591667D02*
X-6266666Y15291667D01*
D10*
X-6733333Y14591667D02*
X-6266666Y15291667D01*
D10*
X-6733333Y14591667D02*
X-6733333Y15291667D01*
D10*
X-8066666Y14591667D02*
X-8066666Y15291667D01*
D10*
X-8366666Y15291667D02*
X-8066666Y15291667D01*
D10*
X-8466666Y15258333D02*
X-8366666Y15291667D01*
D10*
X-8500000Y15225000D02*
X-8466666Y15258333D01*
D10*
X-8533333Y15158333D02*
X-8500000Y15225000D01*
D10*
X-8533333Y15058333D02*
X-8533333Y15158333D01*
D10*
X-8500000Y14991667D02*
X-8533333Y15058333D01*
D10*
X-8466666Y14958333D02*
X-8500000Y14991667D01*
D10*
X-8366666Y14925000D02*
X-8466666Y14958333D01*
D10*
X-8066666Y14925000D02*
X-8366666Y14925000D01*
D10*
X-8766666Y14591667D02*
X-8766666Y15291667D01*
D10*
X-9200000Y15291667D02*
X-8766666Y15291667D01*
D10*
X-9033333Y14958333D02*
X-8766666Y14958333D01*
D10*
X-9500000Y15191667D02*
X-9433333Y15158333D01*
D10*
X-9600000Y15291667D02*
X-9500000Y15191667D01*
D10*
X-9600000Y14591667D02*
X-9600000Y15291667D01*
D10*
X-10033333Y15025000D02*
X-10066666Y15058333D01*
D10*
X-10066666Y14991667D02*
X-10033333Y15025000D01*
D10*
X-10100000Y15025000D02*
X-10066666Y14991667D01*
D10*
X-10066666Y15058333D02*
X-10100000Y15025000D01*
D10*
X-10033333Y14625000D02*
X-10066666Y14658333D01*
D10*
X-10066666Y14591667D02*
X-10033333Y14625000D01*
D10*
X-10100000Y14625000D02*
X-10066666Y14591667D01*
D10*
X-10066666Y14658333D02*
X-10100000Y14625000D01*
D10*
X-10733333Y15258333D02*
X-10800000Y15291667D01*
D10*
X-10666666Y15191667D02*
X-10733333Y15258333D01*
D10*
X-10633333Y15125000D02*
X-10666666Y15191667D01*
D10*
X-10600000Y15025000D02*
X-10633333Y15125000D01*
D10*
X-10600000Y14858333D02*
X-10600000Y15025000D01*
D10*
X-10633333Y14758333D02*
X-10600000Y14858333D01*
D10*
X-10666666Y14691667D02*
X-10633333Y14758333D01*
D10*
X-10733333Y14625000D02*
X-10666666Y14691667D01*
D10*
X-10800000Y14591667D02*
X-10733333Y14625000D01*
D10*
X-10933333Y14591667D02*
X-10800000Y14591667D01*
D10*
X-11000000Y14625000D02*
X-10933333Y14591667D01*
D10*
X-11066666Y14691667D02*
X-11000000Y14625000D01*
D10*
X-11100000Y14758333D02*
X-11066666Y14691667D01*
D10*
X-11133333Y14858333D02*
X-11100000Y14758333D01*
D10*
X-11133333Y15025000D02*
X-11133333Y14858333D01*
D10*
X-11100000Y15125000D02*
X-11133333Y15025000D01*
D10*
X-11066666Y15191667D02*
X-11100000Y15125000D01*
D10*
X-11000000Y15258333D02*
X-11066666Y15191667D01*
D10*
X-10933333Y15291667D02*
X-11000000Y15258333D01*
D10*
X-10800000Y15291667D02*
X-10933333Y15291667D01*
D10*
X-11733333Y15258333D02*
X-11800000Y15191667D01*
D10*
X-11633333Y15291667D02*
X-11733333Y15258333D01*
D10*
X-11500000Y15291667D02*
X-11633333Y15291667D01*
D10*
X-11400000Y15258333D02*
X-11500000Y15291667D01*
D10*
X-11333333Y15191667D02*
X-11400000Y15258333D01*
D10*
X-11333333Y15125000D02*
X-11333333Y15191667D01*
D10*
X-11366666Y15058333D02*
X-11333333Y15125000D01*
D10*
X-11400000Y15025000D02*
X-11366666Y15058333D01*
D10*
X-11466666Y14991667D02*
X-11400000Y15025000D01*
D10*
X-11666666Y14925000D02*
X-11466666Y14991667D01*
D10*
X-11733333Y14891667D02*
X-11666666Y14925000D01*
D10*
X-11766666Y14858333D02*
X-11733333Y14891667D01*
D10*
X-11800000Y14791667D02*
X-11766666Y14858333D01*
D10*
X-11800000Y14691667D02*
X-11800000Y14791667D01*
D10*
X-11733333Y14625000D02*
X-11800000Y14691667D01*
D10*
X-11633333Y14591667D02*
X-11733333Y14625000D01*
D10*
X-11500000Y14591667D02*
X-11633333Y14591667D01*
D10*
X-11400000Y14625000D02*
X-11500000Y14591667D01*
D10*
X-11333333Y14691667D02*
X-11400000Y14625000D01*
D10*
X-12466666Y15191667D02*
X-12500000Y15125000D01*
D10*
X-12400000Y15258333D02*
X-12466666Y15191667D01*
D10*
X-12333333Y15291667D02*
X-12400000Y15258333D01*
D10*
X-12200000Y15291667D02*
X-12333333Y15291667D01*
D10*
X-12133333Y15258333D02*
X-12200000Y15291667D01*
D10*
X-12066666Y15191667D02*
X-12133333Y15258333D01*
D10*
X-12033333Y15125000D02*
X-12066666Y15191667D01*
D10*
X-12000000Y15025000D02*
X-12033333Y15125000D01*
D10*
X-12000000Y14858333D02*
X-12000000Y15025000D01*
D10*
X-12033333Y14758333D02*
X-12000000Y14858333D01*
D10*
X-12066666Y14691667D02*
X-12033333Y14758333D01*
D10*
X-12133333Y14625000D02*
X-12066666Y14691667D01*
D10*
X-12200000Y14591667D02*
X-12133333Y14625000D01*
D10*
X-12333333Y14591667D02*
X-12200000Y14591667D01*
D10*
X-12400000Y14625000D02*
X-12333333Y14591667D01*
D10*
X-12466666Y14691667D02*
X-12400000Y14625000D01*
D10*
X-12500000Y14758333D02*
X-12466666Y14691667D01*
D10*
X-12833333Y15258333D02*
X-12900000Y15291667D01*
D10*
X-12766666Y15191667D02*
X-12833333Y15258333D01*
D10*
X-12733333Y15125000D02*
X-12766666Y15191667D01*
D10*
X-12700000Y15025000D02*
X-12733333Y15125000D01*
D10*
X-12700000Y14858333D02*
X-12700000Y15025000D01*
D10*
X-12733333Y14758333D02*
X-12700000Y14858333D01*
D10*
X-12766666Y14691667D02*
X-12733333Y14758333D01*
D10*
X-12833333Y14625000D02*
X-12766666Y14691667D01*
D10*
X-12900000Y14591667D02*
X-12833333Y14625000D01*
D10*
X-13033333Y14591667D02*
X-12900000Y14591667D01*
D10*
X-13100000Y14625000D02*
X-13033333Y14591667D01*
D10*
X-13166666Y14691667D02*
X-13100000Y14625000D01*
D10*
X-13200000Y14758333D02*
X-13166666Y14691667D01*
D10*
X-13233333Y14858333D02*
X-13200000Y14758333D01*
D10*
X-13233333Y15025000D02*
X-13233333Y14858333D01*
D10*
X-13200000Y15125000D02*
X-13233333Y15025000D01*
D10*
X-13166666Y15191667D02*
X-13200000Y15125000D01*
D10*
X-13100000Y15258333D02*
X-13166666Y15191667D01*
D10*
X-13033333Y15291667D02*
X-13100000Y15258333D01*
D10*
X-12900000Y15291667D02*
X-13033333Y15291667D01*
D10*
X-13466666Y14791667D02*
X-13466666Y15291667D01*
D10*
X-13500000Y14691667D02*
X-13466666Y14791667D01*
D10*
X-13566666Y14625000D02*
X-13500000Y14691667D01*
D10*
X-13666666Y14591667D02*
X-13566666Y14625000D01*
D10*
X-13733333Y14591667D02*
X-13666666Y14591667D01*
D10*
X-13833333Y14625000D02*
X-13733333Y14591667D01*
D10*
X-13900000Y14691667D02*
X-13833333Y14625000D01*
D10*
X-13933333Y14791667D02*
X-13900000Y14691667D01*
D10*
X-13933333Y15291667D02*
X-13933333Y14791667D01*
D10*
X-14333333Y14591667D02*
X-14333333Y15291667D01*
D10*
X-14566666Y15291667D02*
X-14099999Y15291667D01*
D10*
X-1333333Y13496667D02*
X-1333333Y14196667D01*
D10*
X-1633333Y14196667D02*
X-1333333Y14196667D01*
D10*
X-1733333Y14163333D02*
X-1633333Y14196667D01*
D10*
X-1766666Y14130000D02*
X-1733333Y14163333D01*
D10*
X-1800000Y14063333D02*
X-1766666Y14130000D01*
D10*
X-1800000Y13963333D02*
X-1800000Y14063333D01*
D10*
X-1766666Y13896667D02*
X-1800000Y13963333D01*
D10*
X-1733333Y13863333D02*
X-1766666Y13896667D01*
D10*
X-1633333Y13830000D02*
X-1733333Y13863333D01*
D10*
X-1333333Y13830000D02*
X-1633333Y13830000D01*
D10*
X-1933333Y13496667D02*
X-2200000Y14196667D01*
D10*
X-2466666Y13496667D02*
X-2200000Y14196667D01*
D10*
X-2366666Y13730000D02*
X-2033333Y13730000D01*
D10*
X-2700000Y14163333D02*
X-2800000Y14196667D01*
D10*
X-2633333Y14063333D02*
X-2700000Y14163333D01*
D10*
X-2600000Y13896667D02*
X-2633333Y14063333D01*
D10*
X-2600000Y13796667D02*
X-2600000Y13896667D01*
D10*
X-2633333Y13630000D02*
X-2600000Y13796667D01*
D10*
X-2700000Y13530000D02*
X-2633333Y13630000D01*
D10*
X-2800000Y13496667D02*
X-2700000Y13530000D01*
D10*
X-2866666Y13496667D02*
X-2800000Y13496667D01*
D10*
X-2966666Y13530000D02*
X-2866666Y13496667D01*
D10*
X-3033333Y13630000D02*
X-2966666Y13530000D01*
D10*
X-3066666Y13796667D02*
X-3033333Y13630000D01*
D10*
X-3066666Y13896667D02*
X-3066666Y13796667D01*
D10*
X-3033333Y14063333D02*
X-3066666Y13896667D01*
D10*
X-2966666Y14163333D02*
X-3033333Y14063333D01*
D10*
X-2866666Y14196667D02*
X-2966666Y14163333D01*
D10*
X-2800000Y14196667D02*
X-2866666Y14196667D01*
D10*
X-3300000Y13930000D02*
X-3333333Y13963333D01*
D10*
X-3333333Y13896667D02*
X-3300000Y13930000D01*
D10*
X-3366666Y13930000D02*
X-3333333Y13896667D01*
D10*
X-3333333Y13963333D02*
X-3366666Y13930000D01*
D10*
X-3300000Y13530000D02*
X-3333333Y13563333D01*
D10*
X-3333333Y13496667D02*
X-3300000Y13530000D01*
D10*
X-3366666Y13530000D02*
X-3333333Y13496667D01*
D10*
X-3333333Y13563333D02*
X-3366666Y13530000D01*
D10*
X-3800000Y13496667D02*
X-4066666Y14196667D01*
D10*
X-4333333Y13496667D02*
X-4066666Y14196667D01*
D10*
X-4233333Y13730000D02*
X-3900000Y13730000D01*
D10*
X-4566666Y14163333D02*
X-4666666Y14196667D01*
D10*
X-4500000Y14063333D02*
X-4566666Y14163333D01*
D10*
X-4466666Y13896667D02*
X-4500000Y14063333D01*
D10*
X-4466666Y13796667D02*
X-4466666Y13896667D01*
D10*
X-4500000Y13630000D02*
X-4466666Y13796667D01*
D10*
X-4566666Y13530000D02*
X-4500000Y13630000D01*
D10*
X-4666666Y13496667D02*
X-4566666Y13530000D01*
D10*
X-4733333Y13496667D02*
X-4666666Y13496667D01*
D10*
X-4833333Y13530000D02*
X-4733333Y13496667D01*
D10*
X-4900000Y13630000D02*
X-4833333Y13530000D01*
D10*
X-4933333Y13796667D02*
X-4900000Y13630000D01*
D10*
X-4933333Y13896667D02*
X-4933333Y13796667D01*
D10*
X-4900000Y14063333D02*
X-4933333Y13896667D01*
D10*
X-4833333Y14163333D02*
X-4900000Y14063333D01*
D10*
X-4733333Y14196667D02*
X-4833333Y14163333D01*
D10*
X-4666666Y14196667D02*
X-4733333Y14196667D01*
D10*
X-5200000Y13496667D02*
X-5233333Y13530000D01*
D10*
X-5166666Y13530000D02*
X-5200000Y13496667D01*
D10*
X-5200000Y13563333D02*
X-5166666Y13530000D01*
D10*
X-5233333Y13530000D02*
X-5200000Y13563333D01*
D10*
X-5233333Y13463333D02*
X-5233333Y13530000D01*
D10*
X-5200000Y13396667D02*
X-5233333Y13463333D01*
D10*
X-5166666Y13363333D02*
X-5200000Y13396667D01*
D10*
X-6200000Y14096667D02*
X-6233333Y14030000D01*
D10*
X-6133333Y14163333D02*
X-6200000Y14096667D01*
D10*
X-6066666Y14196667D02*
X-6133333Y14163333D01*
D10*
X-5933333Y14196667D02*
X-6066666Y14196667D01*
D10*
X-5866666Y14163333D02*
X-5933333Y14196667D01*
D10*
X-5800000Y14096667D02*
X-5866666Y14163333D01*
D10*
X-5766666Y14030000D02*
X-5800000Y14096667D01*
D10*
X-5733333Y13930000D02*
X-5766666Y14030000D01*
D10*
X-5733333Y13763333D02*
X-5733333Y13930000D01*
D10*
X-5766666Y13663333D02*
X-5733333Y13763333D01*
D10*
X-5800000Y13596667D02*
X-5766666Y13663333D01*
D10*
X-5866666Y13530000D02*
X-5800000Y13596667D01*
D10*
X-5933333Y13496667D02*
X-5866666Y13530000D01*
D10*
X-6066666Y13496667D02*
X-5933333Y13496667D01*
D10*
X-6133333Y13530000D02*
X-6066666Y13496667D01*
D10*
X-6200000Y13596667D02*
X-6133333Y13530000D01*
D10*
X-6233333Y13663333D02*
X-6200000Y13596667D01*
D10*
X-6600000Y13496667D02*
X-6600000Y14196667D01*
D10*
X-6833333Y14196667D02*
X-6366666Y14196667D01*
D10*
X-7366666Y14163333D02*
X-7433333Y14096667D01*
D10*
X-7266666Y14196667D02*
X-7366666Y14163333D01*
D10*
X-7133333Y14196667D02*
X-7266666Y14196667D01*
D10*
X-7033333Y14163333D02*
X-7133333Y14196667D01*
D10*
X-6966666Y14096667D02*
X-7033333Y14163333D01*
D10*
X-6966666Y14030000D02*
X-6966666Y14096667D01*
D10*
X-7000000Y13963333D02*
X-6966666Y14030000D01*
D10*
X-7033333Y13930000D02*
X-7000000Y13963333D01*
D10*
X-7100000Y13896667D02*
X-7033333Y13930000D01*
D10*
X-7300000Y13830000D02*
X-7100000Y13896667D01*
D10*
X-7366666Y13796667D02*
X-7300000Y13830000D01*
D10*
X-7400000Y13763333D02*
X-7366666Y13796667D01*
D10*
X-7433333Y13696667D02*
X-7400000Y13763333D01*
D10*
X-7433333Y13596667D02*
X-7433333Y13696667D01*
D10*
X-7366666Y13530000D02*
X-7433333Y13596667D01*
D10*
X-7266666Y13496667D02*
X-7366666Y13530000D01*
D10*
X-7133333Y13496667D02*
X-7266666Y13496667D01*
D10*
X-7033333Y13530000D02*
X-7133333Y13496667D01*
D10*
X-6966666Y13596667D02*
X-7033333Y13530000D01*
D10*
X-7699999Y13496667D02*
X-7733333Y13530000D01*
D10*
X-7666666Y13530000D02*
X-7699999Y13496667D01*
D10*
X-7699999Y13563333D02*
X-7666666Y13530000D01*
D10*
X-7733333Y13530000D02*
X-7699999Y13563333D01*
D10*
X-7733333Y13463333D02*
X-7733333Y13530000D01*
D10*
X-7699999Y13396667D02*
X-7733333Y13463333D01*
D10*
X-7666666Y13363333D02*
X-7699999Y13396667D01*
D10*
X-8400000Y13496667D02*
X-8400000Y14196667D01*
D10*
X-8633333Y14196667D02*
X-8166666Y14196667D01*
D10*
X-8700000Y13496667D02*
X-8966666Y14196667D01*
D10*
X-9233333Y13496667D02*
X-8966666Y14196667D01*
D10*
X-9133333Y13730000D02*
X-8800000Y13730000D01*
D10*
X-9400000Y13496667D02*
X-9400000Y14196667D01*
D10*
X-9666666Y13496667D02*
X-9400000Y14196667D01*
D10*
X-9666666Y13496667D02*
X-9933333Y14196667D01*
D10*
X-9933333Y13496667D02*
X-9933333Y14196667D01*
D10*
X-10200000Y13496667D02*
X-10200000Y14196667D01*
D10*
X-10500000Y14196667D02*
X-10200000Y14196667D01*
D10*
X-10600000Y14163333D02*
X-10500000Y14196667D01*
D10*
X-10633333Y14130000D02*
X-10600000Y14163333D01*
D10*
X-10666666Y14063333D02*
X-10633333Y14130000D01*
D10*
X-10666666Y13963333D02*
X-10666666Y14063333D01*
D10*
X-10633333Y13896667D02*
X-10666666Y13963333D01*
D10*
X-10600000Y13863333D02*
X-10633333Y13896667D01*
D10*
X-10500000Y13830000D02*
X-10600000Y13863333D01*
D10*
X-10200000Y13830000D02*
X-10500000Y13830000D01*
D10*
X-10900000Y14063333D02*
X-10900000Y14030000D01*
D10*
X-10933333Y14130000D02*
X-10900000Y14063333D01*
D10*
X-10966666Y14163333D02*
X-10933333Y14130000D01*
D10*
X-11033333Y14196667D02*
X-10966666Y14163333D01*
D10*
X-11166666Y14196667D02*
X-11033333Y14196667D01*
D10*
X-11233333Y14163333D02*
X-11166666Y14196667D01*
D10*
X-11266666Y14130000D02*
X-11233333Y14163333D01*
D10*
X-11300000Y14063333D02*
X-11266666Y14130000D01*
D10*
X-11300000Y13996667D02*
X-11300000Y14063333D01*
D10*
X-11266666Y13930000D02*
X-11300000Y13996667D01*
D10*
X-11200000Y13830000D02*
X-11266666Y13930000D01*
D10*
X-10866666Y13496667D02*
X-11200000Y13830000D01*
D10*
X-11333333Y13496667D02*
X-10866666Y13496667D01*
D10*
X-11600000Y13496667D02*
X-11633333Y13530000D01*
D10*
X-11566666Y13530000D02*
X-11600000Y13496667D01*
D10*
X-11600000Y13563333D02*
X-11566666Y13530000D01*
D10*
X-11633333Y13530000D02*
X-11600000Y13563333D01*
D10*
X-11633333Y13463333D02*
X-11633333Y13530000D01*
D10*
X-11600000Y13396667D02*
X-11633333Y13463333D01*
D10*
X-11566666Y13363333D02*
X-11600000Y13396667D01*
D10*
X-12266666Y13496667D02*
X-12100000Y14196667D01*
D10*
X-12266666Y13496667D02*
X-12433333Y14196667D01*
D10*
X-12600000Y13496667D02*
X-12433333Y14196667D01*
D10*
X-12600000Y13496667D02*
X-12766666Y14196667D01*
D10*
X-12966666Y13496667D02*
X-12966666Y14196667D01*
D10*
X-12966666Y13730000D02*
X-13433333Y14196667D01*
D10*
X-13433333Y13496667D02*
X-13133333Y13896667D01*
D10*
X-13666666Y13696667D02*
X-13666666Y14196667D01*
D10*
X-13700000Y13596667D02*
X-13666666Y13696667D01*
D10*
X-13766666Y13530000D02*
X-13700000Y13596667D01*
D10*
X-13866666Y13496667D02*
X-13766666Y13530000D01*
D10*
X-13933333Y13496667D02*
X-13866666Y13496667D01*
D10*
X-14033333Y13530000D02*
X-13933333Y13496667D01*
D10*
X-14099999Y13596667D02*
X-14033333Y13530000D01*
D10*
X-14133333Y13696667D02*
X-14099999Y13596667D01*
D10*
X-14133333Y14196667D02*
X-14133333Y13696667D01*
D10*
X-14399999Y13496667D02*
X-14399999Y14196667D01*
D10*
X-14699999Y14196667D02*
X-14399999Y14196667D01*
D10*
X-14799999Y14163333D02*
X-14699999Y14196667D01*
D10*
X-14833333Y14130000D02*
X-14799999Y14163333D01*
D10*
X-14866666Y14063333D02*
X-14833333Y14130000D01*
D10*
X-14866666Y13963333D02*
X-14866666Y14063333D01*
D10*
X-14833333Y13896667D02*
X-14866666Y13963333D01*
D10*
X-14799999Y13863333D02*
X-14833333Y13896667D01*
D10*
X-14699999Y13830000D02*
X-14799999Y13863333D01*
D10*
X-14399999Y13830000D02*
X-14699999Y13830000D01*
D10*
X-15233333Y14096667D02*
X-15166666Y14063333D01*
D10*
X-15333333Y14196667D02*
X-15233333Y14096667D01*
D10*
X-15333333Y13496667D02*
X-15333333Y14196667D01*
D10*
X-1333333Y12401667D02*
X-1333333Y13101667D01*
D10*
X-1633333Y13101667D02*
X-1333333Y13101667D01*
D10*
X-1733333Y13068333D02*
X-1633333Y13101667D01*
D10*
X-1766666Y13035000D02*
X-1733333Y13068333D01*
D10*
X-1800000Y12968333D02*
X-1766666Y13035000D01*
D10*
X-1800000Y12868333D02*
X-1800000Y12968333D01*
D10*
X-1766666Y12801667D02*
X-1800000Y12868333D01*
D10*
X-1733333Y12768333D02*
X-1766666Y12801667D01*
D10*
X-1633333Y12735000D02*
X-1733333Y12768333D01*
D10*
X-1333333Y12735000D02*
X-1633333Y12735000D01*
D10*
X-1933333Y12401667D02*
X-2200000Y13101667D01*
D10*
X-2466666Y12401667D02*
X-2200000Y13101667D01*
D10*
X-2366666Y12635000D02*
X-2033333Y12635000D01*
D10*
X-2766666Y13001667D02*
X-2700000Y12968333D01*
D10*
X-2866666Y13101667D02*
X-2766666Y13001667D01*
D10*
X-2866666Y12401667D02*
X-2866666Y13101667D01*
D10*
X-3300000Y12835000D02*
X-3333333Y12868333D01*
D10*
X-3333333Y12801667D02*
X-3300000Y12835000D01*
D10*
X-3366666Y12835000D02*
X-3333333Y12801667D01*
D10*
X-3333333Y12868333D02*
X-3366666Y12835000D01*
D10*
X-3300000Y12435000D02*
X-3333333Y12468333D01*
D10*
X-3333333Y12401667D02*
X-3300000Y12435000D01*
D10*
X-3366666Y12435000D02*
X-3333333Y12401667D01*
D10*
X-3333333Y12468333D02*
X-3366666Y12435000D01*
D10*
X-3800000Y12401667D02*
X-4066666Y13101667D01*
D10*
X-4333333Y12401667D02*
X-4066666Y13101667D01*
D10*
X-4233333Y12635000D02*
X-3900000Y12635000D01*
D10*
X-4633333Y13001667D02*
X-4566666Y12968333D01*
D10*
X-4733333Y13101667D02*
X-4633333Y13001667D01*
D10*
X-4733333Y12401667D02*
X-4733333Y13101667D01*
D10*
X-5200000Y12401667D02*
X-5233333Y12435000D01*
D10*
X-5166666Y12435000D02*
X-5200000Y12401667D01*
D10*
X-5200000Y12468333D02*
X-5166666Y12435000D01*
D10*
X-5233333Y12435000D02*
X-5200000Y12468333D01*
D10*
X-5233333Y12368333D02*
X-5233333Y12435000D01*
D10*
X-5200000Y12301667D02*
X-5233333Y12368333D01*
D10*
X-5166666Y12268333D02*
X-5200000Y12301667D01*
D10*
X-5766666Y12401667D02*
X-5766666Y13101667D01*
D10*
X-6066666Y13101667D02*
X-5766666Y13101667D01*
D10*
X-6166666Y13068333D02*
X-6066666Y13101667D01*
D10*
X-6200000Y13035000D02*
X-6166666Y13068333D01*
D10*
X-6233333Y12968333D02*
X-6200000Y13035000D01*
D10*
X-6233333Y12901667D02*
X-6233333Y12968333D01*
D10*
X-6200000Y12835000D02*
X-6233333Y12901667D01*
D10*
X-6166666Y12801667D02*
X-6200000Y12835000D01*
D10*
X-6066666Y12768333D02*
X-6166666Y12801667D01*
D10*
X-5766666Y12768333D02*
X-6066666Y12768333D01*
D10*
X-6233333Y12401667D02*
X-6000000Y12768333D01*
D10*
X-6600000Y12401667D02*
X-6600000Y13101667D01*
D10*
X-6833333Y13101667D02*
X-6366666Y13101667D01*
D10*
X-7366666Y13068333D02*
X-7433333Y13001667D01*
D10*
X-7266666Y13101667D02*
X-7366666Y13068333D01*
D10*
X-7133333Y13101667D02*
X-7266666Y13101667D01*
D10*
X-7033333Y13068333D02*
X-7133333Y13101667D01*
D10*
X-6966666Y13001667D02*
X-7033333Y13068333D01*
D10*
X-6966666Y12935000D02*
X-6966666Y13001667D01*
D10*
X-7000000Y12868333D02*
X-6966666Y12935000D01*
D10*
X-7033333Y12835000D02*
X-7000000Y12868333D01*
D10*
X-7100000Y12801667D02*
X-7033333Y12835000D01*
D10*
X-7300000Y12735000D02*
X-7100000Y12801667D01*
D10*
X-7366666Y12701667D02*
X-7300000Y12735000D01*
D10*
X-7400000Y12668333D02*
X-7366666Y12701667D01*
D10*
X-7433333Y12601667D02*
X-7400000Y12668333D01*
D10*
X-7433333Y12501667D02*
X-7433333Y12601667D01*
D10*
X-7366666Y12435000D02*
X-7433333Y12501667D01*
D10*
X-7266666Y12401667D02*
X-7366666Y12435000D01*
D10*
X-7133333Y12401667D02*
X-7266666Y12401667D01*
D10*
X-7033333Y12435000D02*
X-7133333Y12401667D01*
D10*
X-6966666Y12501667D02*
X-7033333Y12435000D01*
D10*
X-8733333Y12401667D02*
X-8733333Y13101667D01*
D10*
X-9033333Y13101667D02*
X-8733333Y13101667D01*
D10*
X-9133333Y13068333D02*
X-9033333Y13101667D01*
D10*
X-9166666Y13035000D02*
X-9133333Y13068333D01*
D10*
X-9200000Y12968333D02*
X-9166666Y13035000D01*
D10*
X-9200000Y12868333D02*
X-9200000Y12968333D01*
D10*
X-9166666Y12801667D02*
X-9200000Y12868333D01*
D10*
X-9133333Y12768333D02*
X-9166666Y12801667D01*
D10*
X-9033333Y12735000D02*
X-9133333Y12768333D01*
D10*
X-8733333Y12735000D02*
X-9033333Y12735000D01*
D10*
X-9333333Y12401667D02*
X-9600000Y13101667D01*
D10*
X-9866666Y12401667D02*
X-9600000Y13101667D01*
D10*
X-9766666Y12635000D02*
X-9433333Y12635000D01*
D10*
X-10033333Y12968333D02*
X-10033333Y12935000D01*
D10*
X-10066666Y13035000D02*
X-10033333Y12968333D01*
D10*
X-10100000Y13068333D02*
X-10066666Y13035000D01*
D10*
X-10166666Y13101667D02*
X-10100000Y13068333D01*
D10*
X-10300000Y13101667D02*
X-10166666Y13101667D01*
D10*
X-10366666Y13068333D02*
X-10300000Y13101667D01*
D10*
X-10400000Y13035000D02*
X-10366666Y13068333D01*
D10*
X-10433333Y12968333D02*
X-10400000Y13035000D01*
D10*
X-10433333Y12901667D02*
X-10433333Y12968333D01*
D10*
X-10400000Y12835000D02*
X-10433333Y12901667D01*
D10*
X-10333333Y12735000D02*
X-10400000Y12835000D01*
D10*
X-10000000Y12401667D02*
X-10333333Y12735000D01*
D10*
X-10466666Y12401667D02*
X-10000000Y12401667D01*
D10*
X-10700000Y12835000D02*
X-10733333Y12868333D01*
D10*
X-10733333Y12801667D02*
X-10700000Y12835000D01*
D10*
X-10766666Y12835000D02*
X-10733333Y12801667D01*
D10*
X-10733333Y12868333D02*
X-10766666Y12835000D01*
D10*
X-10700000Y12435000D02*
X-10733333Y12468333D01*
D10*
X-10733333Y12401667D02*
X-10700000Y12435000D01*
D10*
X-10766666Y12435000D02*
X-10733333Y12401667D01*
D10*
X-10733333Y12468333D02*
X-10766666Y12435000D01*
D10*
X-11200000Y12401667D02*
X-11466666Y13101667D01*
D10*
X-11733333Y12401667D02*
X-11466666Y13101667D01*
D10*
X-11633333Y12635000D02*
X-11300000Y12635000D01*
D10*
X-11900000Y12968333D02*
X-11900000Y12935000D01*
D10*
X-11933333Y13035000D02*
X-11900000Y12968333D01*
D10*
X-11966666Y13068333D02*
X-11933333Y13035000D01*
D10*
X-12033333Y13101667D02*
X-11966666Y13068333D01*
D10*
X-12166666Y13101667D02*
X-12033333Y13101667D01*
D10*
X-12233333Y13068333D02*
X-12166666Y13101667D01*
D10*
X-12266666Y13035000D02*
X-12233333Y13068333D01*
D10*
X-12300000Y12968333D02*
X-12266666Y13035000D01*
D10*
X-12300000Y12901667D02*
X-12300000Y12968333D01*
D10*
X-12266666Y12835000D02*
X-12300000Y12901667D01*
D10*
X-12200000Y12735000D02*
X-12266666Y12835000D01*
D10*
X-11866666Y12401667D02*
X-12200000Y12735000D01*
D10*
X-12333333Y12401667D02*
X-11866666Y12401667D01*
D10*
X-12600000Y12401667D02*
X-12633333Y12435000D01*
D10*
X-12566666Y12435000D02*
X-12600000Y12401667D01*
D10*
X-12600000Y12468333D02*
X-12566666Y12435000D01*
D10*
X-12633333Y12435000D02*
X-12600000Y12468333D01*
D10*
X-12633333Y12368333D02*
X-12633333Y12435000D01*
D10*
X-12600000Y12301667D02*
X-12633333Y12368333D01*
D10*
X-12566666Y12268333D02*
X-12600000Y12301667D01*
D10*
X-13300000Y12401667D02*
X-13300000Y13101667D01*
D10*
X-13533333Y13101667D02*
X-13066666Y13101667D01*
D10*
X-14133333Y12401667D02*
X-13666666Y13101667D01*
D10*
X-13666666Y12401667D02*
X-14133333Y13101667D01*
D10*
X-15433333Y12401667D02*
X-15433333Y13101667D01*
D10*
X-15733333Y13101667D02*
X-15433333Y13101667D01*
D10*
X-15833333Y13068333D02*
X-15733333Y13101667D01*
D10*
X-15866666Y13035000D02*
X-15833333Y13068333D01*
D10*
X-15899999Y12968333D02*
X-15866666Y13035000D01*
D10*
X-15899999Y12868333D02*
X-15899999Y12968333D01*
D10*
X-15866666Y12801667D02*
X-15899999Y12868333D01*
D10*
X-15833333Y12768333D02*
X-15866666Y12801667D01*
D10*
X-15733333Y12735000D02*
X-15833333Y12768333D01*
D10*
X-15433333Y12735000D02*
X-15733333Y12735000D01*
D10*
X-16033333Y12401667D02*
X-16299999Y13101667D01*
D10*
X-16566666Y12401667D02*
X-16299999Y13101667D01*
D10*
X-16466666Y12635000D02*
X-16133333Y12635000D01*
D10*
X-17133332Y13101667D02*
X-16766666Y13101667D01*
D10*
X-16933332Y12835000D02*
X-17133332Y13101667D01*
D10*
X-17033332Y12835000D02*
X-16933332Y12835000D01*
D10*
X-17100000Y12801667D02*
X-17033332Y12835000D01*
D10*
X-17133332Y12768333D02*
X-17100000Y12801667D01*
D10*
X-17166666Y12668333D02*
X-17133332Y12768333D01*
D10*
X-17166666Y12601667D02*
X-17166666Y12668333D01*
D10*
X-17133332Y12501667D02*
X-17166666Y12601667D01*
D10*
X-17066666Y12435000D02*
X-17133332Y12501667D01*
D10*
X-16966666Y12401667D02*
X-17066666Y12435000D01*
D10*
X-16866666Y12401667D02*
X-16966666Y12401667D01*
D10*
X-16766666Y12435000D02*
X-16866666Y12401667D01*
D10*
X-16733333Y12468333D02*
X-16766666Y12435000D01*
D10*
X-16699999Y12535000D02*
X-16733333Y12468333D01*
D10*
X-17400000Y12835000D02*
X-17433332Y12868333D01*
D10*
X-17433332Y12801667D02*
X-17400000Y12835000D01*
D10*
X-17466666Y12835000D02*
X-17433332Y12801667D01*
D10*
X-17433332Y12868333D02*
X-17466666Y12835000D01*
D10*
X-17400000Y12435000D02*
X-17433332Y12468333D01*
D10*
X-17433332Y12401667D02*
X-17400000Y12435000D01*
D10*
X-17466666Y12435000D02*
X-17433332Y12401667D01*
D10*
X-17433332Y12468333D02*
X-17466666Y12435000D01*
D10*
X-17900000Y12401667D02*
X-18166666Y13101667D01*
D10*
X-18433332Y12401667D02*
X-18166666Y13101667D01*
D10*
X-18333332Y12635000D02*
X-18000000Y12635000D01*
D10*
X-19000000Y13101667D02*
X-18633332Y13101667D01*
D10*
X-18800000Y12835000D02*
X-19000000Y13101667D01*
D10*
X-18900000Y12835000D02*
X-18800000Y12835000D01*
D10*
X-18966666Y12801667D02*
X-18900000Y12835000D01*
D10*
X-19000000Y12768333D02*
X-18966666Y12801667D01*
D10*
X-19033332Y12668333D02*
X-19000000Y12768333D01*
D10*
X-19033332Y12601667D02*
X-19033332Y12668333D01*
D10*
X-19000000Y12501667D02*
X-19033332Y12601667D01*
D10*
X-18933332Y12435000D02*
X-19000000Y12501667D01*
D10*
X-18833332Y12401667D02*
X-18933332Y12435000D01*
D10*
X-18733332Y12401667D02*
X-18833332Y12401667D01*
D10*
X-18633332Y12435000D02*
X-18733332Y12401667D01*
D10*
X-18600000Y12468333D02*
X-18633332Y12435000D01*
D10*
X-18566666Y12535000D02*
X-18600000Y12468333D01*
D10*
X-19300000Y12401667D02*
X-19333332Y12435000D01*
D10*
X-19266666Y12435000D02*
X-19300000Y12401667D01*
D10*
X-19300000Y12468333D02*
X-19266666Y12435000D01*
D10*
X-19333332Y12435000D02*
X-19300000Y12468333D01*
D10*
X-19333332Y12368333D02*
X-19333332Y12435000D01*
D10*
X-19300000Y12301667D02*
X-19333332Y12368333D01*
D10*
X-19266666Y12268333D02*
X-19300000Y12301667D01*
D10*
X-19866666Y12401667D02*
X-19866666Y13101667D01*
D10*
X-20166666Y13101667D02*
X-19866666Y13101667D01*
D10*
X-20266666Y13068333D02*
X-20166666Y13101667D01*
D10*
X-20300000Y13035000D02*
X-20266666Y13068333D01*
D10*
X-20333332Y12968333D02*
X-20300000Y13035000D01*
D10*
X-20333332Y12901667D02*
X-20333332Y12968333D01*
D10*
X-20300000Y12835000D02*
X-20333332Y12901667D01*
D10*
X-20266666Y12801667D02*
X-20300000Y12835000D01*
D10*
X-20166666Y12768333D02*
X-20266666Y12801667D01*
D10*
X-19866666Y12768333D02*
X-20166666Y12768333D01*
D10*
X-20333332Y12401667D02*
X-20100000Y12768333D01*
D10*
X-21000000Y12401667D02*
X-20533332Y13101667D01*
D10*
X-20533332Y12401667D02*
X-21000000Y13101667D01*
D10*
X-1333333Y11306667D02*
X-1333333Y12006667D01*
D10*
X-1633333Y12006667D02*
X-1333333Y12006667D01*
D10*
X-1733333Y11973333D02*
X-1633333Y12006667D01*
D10*
X-1766666Y11940000D02*
X-1733333Y11973333D01*
D10*
X-1800000Y11873333D02*
X-1766666Y11940000D01*
D10*
X-1800000Y11773333D02*
X-1800000Y11873333D01*
D10*
X-1766666Y11706667D02*
X-1800000Y11773333D01*
D10*
X-1733333Y11673333D02*
X-1766666Y11706667D01*
D10*
X-1633333Y11640000D02*
X-1733333Y11673333D01*
D10*
X-1333333Y11640000D02*
X-1633333Y11640000D01*
D10*
X-1933333Y11306667D02*
X-2200000Y12006667D01*
D10*
X-2466666Y11306667D02*
X-2200000Y12006667D01*
D10*
X-2366666Y11540000D02*
X-2033333Y11540000D01*
D10*
X-2600000Y11540000D02*
X-2933333Y12006667D01*
D10*
X-3100000Y11540000D02*
X-2600000Y11540000D01*
D10*
X-2933333Y11306667D02*
X-2933333Y12006667D01*
D10*
X-3300000Y11740000D02*
X-3333333Y11773333D01*
D10*
X-3333333Y11706667D02*
X-3300000Y11740000D01*
D10*
X-3366666Y11740000D02*
X-3333333Y11706667D01*
D10*
X-3333333Y11773333D02*
X-3366666Y11740000D01*
D10*
X-3300000Y11340000D02*
X-3333333Y11373333D01*
D10*
X-3333333Y11306667D02*
X-3300000Y11340000D01*
D10*
X-3366666Y11340000D02*
X-3333333Y11306667D01*
D10*
X-3333333Y11373333D02*
X-3366666Y11340000D01*
D10*
X-3800000Y11306667D02*
X-4066666Y12006667D01*
D10*
X-4333333Y11306667D02*
X-4066666Y12006667D01*
D10*
X-4233333Y11540000D02*
X-3900000Y11540000D01*
D10*
X-4466666Y11540000D02*
X-4800000Y12006667D01*
D10*
X-4966666Y11540000D02*
X-4466666Y11540000D01*
D10*
X-4800000Y11306667D02*
X-4800000Y12006667D01*
D10*
X-5200000Y11306667D02*
X-5233333Y11340000D01*
D10*
X-5166666Y11340000D02*
X-5200000Y11306667D01*
D10*
X-5200000Y11373333D02*
X-5166666Y11340000D01*
D10*
X-5233333Y11340000D02*
X-5200000Y11373333D01*
D10*
X-5233333Y11273333D02*
X-5233333Y11340000D01*
D10*
X-5200000Y11206667D02*
X-5233333Y11273333D01*
D10*
X-5166666Y11173333D02*
X-5200000Y11206667D01*
D10*
X-5766666Y11306667D02*
X-5766666Y12006667D01*
D10*
X-6233333Y11306667D02*
X-5766666Y12006667D01*
D10*
X-6233333Y11306667D02*
X-6233333Y12006667D01*
D10*
X-6866666Y11973333D02*
X-6933333Y11906667D01*
D10*
X-6766666Y12006667D02*
X-6866666Y11973333D01*
D10*
X-6633333Y12006667D02*
X-6766666Y12006667D01*
D10*
X-6533333Y11973333D02*
X-6633333Y12006667D01*
D10*
X-6466666Y11906667D02*
X-6533333Y11973333D01*
D10*
X-6466666Y11840000D02*
X-6466666Y11906667D01*
D10*
X-6500000Y11773333D02*
X-6466666Y11840000D01*
D10*
X-6533333Y11740000D02*
X-6500000Y11773333D01*
D10*
X-6600000Y11706667D02*
X-6533333Y11740000D01*
D10*
X-6800000Y11640000D02*
X-6600000Y11706667D01*
D10*
X-6866666Y11606667D02*
X-6800000Y11640000D01*
D10*
X-6900000Y11573333D02*
X-6866666Y11606667D01*
D10*
X-6933333Y11506667D02*
X-6900000Y11573333D01*
D10*
X-6933333Y11406667D02*
X-6933333Y11506667D01*
D10*
X-6866666Y11340000D02*
X-6933333Y11406667D01*
D10*
X-6766666Y11306667D02*
X-6866666Y11340000D01*
D10*
X-6633333Y11306667D02*
X-6766666Y11306667D01*
D10*
X-6533333Y11340000D02*
X-6633333Y11306667D01*
D10*
X-6466666Y11406667D02*
X-6533333Y11340000D01*
D10*
X-7533333Y11973333D02*
X-7600000Y11906667D01*
D10*
X-7433333Y12006667D02*
X-7533333Y11973333D01*
D10*
X-7300000Y12006667D02*
X-7433333Y12006667D01*
D10*
X-7200000Y11973333D02*
X-7300000Y12006667D01*
D10*
X-7133333Y11906667D02*
X-7200000Y11973333D01*
D10*
X-7133333Y11840000D02*
X-7133333Y11906667D01*
D10*
X-7166666Y11773333D02*
X-7133333Y11840000D01*
D10*
X-7200000Y11740000D02*
X-7166666Y11773333D01*
D10*
X-7266666Y11706667D02*
X-7200000Y11740000D01*
D10*
X-7466666Y11640000D02*
X-7266666Y11706667D01*
D10*
X-7533333Y11606667D02*
X-7466666Y11640000D01*
D10*
X-7566666Y11573333D02*
X-7533333Y11606667D01*
D10*
X-7600000Y11506667D02*
X-7566666Y11573333D01*
D10*
X-7600000Y11406667D02*
X-7600000Y11506667D01*
D10*
X-7533333Y11340000D02*
X-7600000Y11406667D01*
D10*
X-7433333Y11306667D02*
X-7533333Y11340000D01*
D10*
X-7300000Y11306667D02*
X-7433333Y11306667D01*
D10*
X-7200000Y11340000D02*
X-7300000Y11306667D01*
D10*
X-7133333Y11406667D02*
X-7200000Y11340000D01*
D10*
X-7866666Y11306667D02*
X-7899999Y11340000D01*
D10*
X-7833333Y11340000D02*
X-7866666Y11306667D01*
D10*
X-7866666Y11373333D02*
X-7833333Y11340000D01*
D10*
X-7899999Y11340000D02*
X-7866666Y11373333D01*
D10*
X-7899999Y11273333D02*
X-7899999Y11340000D01*
D10*
X-7866666Y11206667D02*
X-7899999Y11273333D01*
D10*
X-7833333Y11173333D02*
X-7866666Y11206667D01*
D10*
X-8866666Y11906667D02*
X-8900000Y11840000D01*
D10*
X-8800000Y11973333D02*
X-8866666Y11906667D01*
D10*
X-8733333Y12006667D02*
X-8800000Y11973333D01*
D10*
X-8600000Y12006667D02*
X-8733333Y12006667D01*
D10*
X-8533333Y11973333D02*
X-8600000Y12006667D01*
D10*
X-8466666Y11906667D02*
X-8533333Y11973333D01*
D10*
X-8433333Y11840000D02*
X-8466666Y11906667D01*
D10*
X-8400000Y11740000D02*
X-8433333Y11840000D01*
D10*
X-8400000Y11573333D02*
X-8400000Y11740000D01*
D10*
X-8433333Y11473333D02*
X-8400000Y11573333D01*
D10*
X-8466666Y11406667D02*
X-8433333Y11473333D01*
D10*
X-8533333Y11340000D02*
X-8466666Y11406667D01*
D10*
X-8600000Y11306667D02*
X-8533333Y11340000D01*
D10*
X-8733333Y11306667D02*
X-8600000Y11306667D01*
D10*
X-8800000Y11340000D02*
X-8733333Y11306667D01*
D10*
X-8866666Y11406667D02*
X-8800000Y11340000D01*
D10*
X-8900000Y11473333D02*
X-8866666Y11406667D01*
D10*
X-9133333Y11306667D02*
X-9133333Y12006667D01*
D10*
X-9133333Y11540000D02*
X-9600000Y12006667D01*
D10*
X-9600000Y11306667D02*
X-9300000Y11706667D01*
D10*
X-9866666Y11306667D02*
X-9900000Y11340000D01*
D10*
X-9833333Y11340000D02*
X-9866666Y11306667D01*
D10*
X-9866666Y11373333D02*
X-9833333Y11340000D01*
D10*
X-9900000Y11340000D02*
X-9866666Y11373333D01*
D10*
X-9900000Y11273333D02*
X-9900000Y11340000D01*
D10*
X-9866666Y11206667D02*
X-9900000Y11273333D01*
D10*
X-9833333Y11173333D02*
X-9866666Y11206667D01*
D10*
X-10566666Y11306667D02*
X-10566666Y12006667D01*
D10*
X-10800000Y12006667D02*
X-10333333Y12006667D01*
D10*
X-11100000Y11906667D02*
X-11033333Y11873333D01*
D10*
X-11200000Y12006667D02*
X-11100000Y11906667D01*
D10*
X-11200000Y11306667D02*
X-11200000Y12006667D01*
D10*
X-11600000Y11540000D02*
X-11933333Y12006667D01*
D10*
X-12100000Y11540000D02*
X-11600000Y11540000D01*
D10*
X-11933333Y11306667D02*
X-11933333Y12006667D01*
D10*
X-12733333Y11906667D02*
X-12766666Y11840000D01*
D10*
X-12666666Y11973333D02*
X-12733333Y11906667D01*
D10*
X-12600000Y12006667D02*
X-12666666Y11973333D01*
D10*
X-12466666Y12006667D02*
X-12600000Y12006667D01*
D10*
X-12400000Y11973333D02*
X-12466666Y12006667D01*
D10*
X-12333333Y11906667D02*
X-12400000Y11973333D01*
D10*
X-12300000Y11840000D02*
X-12333333Y11906667D01*
D10*
X-12266666Y11740000D02*
X-12300000Y11840000D01*
D10*
X-12266666Y11573333D02*
X-12266666Y11740000D01*
D10*
X-12300000Y11473333D02*
X-12266666Y11573333D01*
D10*
X-12333333Y11406667D02*
X-12300000Y11473333D01*
D10*
X-12400000Y11340000D02*
X-12333333Y11406667D01*
D10*
X-12466666Y11306667D02*
X-12400000Y11340000D01*
D10*
X-12600000Y11306667D02*
X-12466666Y11306667D01*
D10*
X-12666666Y11340000D02*
X-12600000Y11306667D01*
D10*
X-12733333Y11406667D02*
X-12666666Y11340000D01*
D10*
X-12766666Y11473333D02*
X-12733333Y11406667D01*
D10*
X-13000000Y11306667D02*
X-13000000Y12006667D01*
D10*
X-13466666Y11306667D02*
X-13466666Y12006667D01*
D10*
X-13466666Y11673333D02*
X-13000000Y11673333D01*
D10*
X-13866666Y11906667D02*
X-13800000Y11873333D01*
D10*
X-13966666Y12006667D02*
X-13866666Y11906667D01*
D10*
X-13966666Y11306667D02*
X-13966666Y12006667D01*
D10*
X-15466666Y11306667D02*
X-15466666Y12006667D01*
D10*
X-15766666Y12006667D02*
X-15466666Y12006667D01*
D10*
X-15866666Y11973333D02*
X-15766666Y12006667D01*
D10*
X-15899999Y11940000D02*
X-15866666Y11973333D01*
D10*
X-15933333Y11873333D02*
X-15899999Y11940000D01*
D10*
X-15933333Y11773333D02*
X-15933333Y11873333D01*
D10*
X-15899999Y11706667D02*
X-15933333Y11773333D01*
D10*
X-15866666Y11673333D02*
X-15899999Y11706667D01*
D10*
X-15766666Y11640000D02*
X-15866666Y11673333D01*
D10*
X-15466666Y11640000D02*
X-15766666Y11640000D01*
D10*
X-16066666Y11306667D02*
X-16333333Y12006667D01*
D10*
X-16599999Y11306667D02*
X-16333333Y12006667D01*
D10*
X-16499999Y11540000D02*
X-16166666Y11540000D01*
D10*
X-16800000Y12006667D02*
X-17133332Y12006667D01*
D10*
X-16766666Y11706667D02*
X-16800000Y12006667D01*
D10*
X-16800000Y11740000D02*
X-16766666Y11706667D01*
D10*
X-16900000Y11773333D02*
X-16800000Y11740000D01*
D10*
X-17000000Y11773333D02*
X-16900000Y11773333D01*
D10*
X-17100000Y11740000D02*
X-17000000Y11773333D01*
D10*
X-17166666Y11673333D02*
X-17100000Y11740000D01*
D10*
X-17200000Y11573333D02*
X-17166666Y11673333D01*
D10*
X-17200000Y11506667D02*
X-17200000Y11573333D01*
D10*
X-17166666Y11406667D02*
X-17200000Y11506667D01*
D10*
X-17100000Y11340000D02*
X-17166666Y11406667D01*
D10*
X-17000000Y11306667D02*
X-17100000Y11340000D01*
D10*
X-16900000Y11306667D02*
X-17000000Y11306667D01*
D10*
X-16800000Y11340000D02*
X-16900000Y11306667D01*
D10*
X-16766666Y11373333D02*
X-16800000Y11340000D01*
D10*
X-16733333Y11440000D02*
X-16766666Y11373333D01*
D10*
X-17433332Y11740000D02*
X-17466666Y11773333D01*
D10*
X-17466666Y11706667D02*
X-17433332Y11740000D01*
D10*
X-17500000Y11740000D02*
X-17466666Y11706667D01*
D10*
X-17466666Y11773333D02*
X-17500000Y11740000D01*
D10*
X-17433332Y11340000D02*
X-17466666Y11373333D01*
D10*
X-17466666Y11306667D02*
X-17433332Y11340000D01*
D10*
X-17500000Y11340000D02*
X-17466666Y11306667D01*
D10*
X-17466666Y11373333D02*
X-17500000Y11340000D01*
D10*
X-17933332Y11306667D02*
X-18200000Y12006667D01*
D10*
X-18466666Y11306667D02*
X-18200000Y12006667D01*
D10*
X-18366666Y11540000D02*
X-18033332Y11540000D01*
D10*
X-18666666Y12006667D02*
X-19000000Y12006667D01*
D10*
X-18633332Y11706667D02*
X-18666666Y12006667D01*
D10*
X-18666666Y11740000D02*
X-18633332Y11706667D01*
D10*
X-18766666Y11773333D02*
X-18666666Y11740000D01*
D10*
X-18866666Y11773333D02*
X-18766666Y11773333D01*
D10*
X-18966666Y11740000D02*
X-18866666Y11773333D01*
D10*
X-19033332Y11673333D02*
X-18966666Y11740000D01*
D10*
X-19066666Y11573333D02*
X-19033332Y11673333D01*
D10*
X-19066666Y11506667D02*
X-19066666Y11573333D01*
D10*
X-19033332Y11406667D02*
X-19066666Y11506667D01*
D10*
X-18966666Y11340000D02*
X-19033332Y11406667D01*
D10*
X-18866666Y11306667D02*
X-18966666Y11340000D01*
D10*
X-18766666Y11306667D02*
X-18866666Y11306667D01*
D10*
X-18666666Y11340000D02*
X-18766666Y11306667D01*
D10*
X-18633332Y11373333D02*
X-18666666Y11340000D01*
D10*
X-18600000Y11440000D02*
X-18633332Y11373333D01*
D10*
X-19333332Y11306667D02*
X-19366666Y11340000D01*
D10*
X-19300000Y11340000D02*
X-19333332Y11306667D01*
D10*
X-19333332Y11373333D02*
X-19300000Y11340000D01*
D10*
X-19366666Y11340000D02*
X-19333332Y11373333D01*
D10*
X-19366666Y11273333D02*
X-19366666Y11340000D01*
D10*
X-19333332Y11206667D02*
X-19366666Y11273333D01*
D10*
X-19300000Y11173333D02*
X-19333332Y11206667D01*
D10*
X-20266666Y11973333D02*
X-20333332Y11906667D01*
D10*
X-20166666Y12006667D02*
X-20266666Y11973333D01*
D10*
X-20033332Y12006667D02*
X-20166666Y12006667D01*
D10*
X-19933332Y11973333D02*
X-20033332Y12006667D01*
D10*
X-19866666Y11906667D02*
X-19933332Y11973333D01*
D10*
X-19866666Y11840000D02*
X-19866666Y11906667D01*
D10*
X-19900000Y11773333D02*
X-19866666Y11840000D01*
D10*
X-19933332Y11740000D02*
X-19900000Y11773333D01*
D10*
X-20000000Y11706667D02*
X-19933332Y11740000D01*
D10*
X-20200000Y11640000D02*
X-20000000Y11706667D01*
D10*
X-20266666Y11606667D02*
X-20200000Y11640000D01*
D10*
X-20300000Y11573333D02*
X-20266666Y11606667D01*
D10*
X-20333332Y11506667D02*
X-20300000Y11573333D01*
D10*
X-20333332Y11406667D02*
X-20333332Y11506667D01*
D10*
X-20266666Y11340000D02*
X-20333332Y11406667D01*
D10*
X-20166666Y11306667D02*
X-20266666Y11340000D01*
D10*
X-20033332Y11306667D02*
X-20166666Y11306667D01*
D10*
X-19933332Y11340000D02*
X-20033332Y11306667D01*
D10*
X-19866666Y11406667D02*
X-19933332Y11340000D01*
D10*
X-21000000Y11906667D02*
X-21033332Y11840000D01*
D10*
X-20933332Y11973333D02*
X-21000000Y11906667D01*
D10*
X-20866666Y12006667D02*
X-20933332Y11973333D01*
D10*
X-20733332Y12006667D02*
X-20866666Y12006667D01*
D10*
X-20666666Y11973333D02*
X-20733332Y12006667D01*
D10*
X-20600000Y11906667D02*
X-20666666Y11973333D01*
D10*
X-20566666Y11840000D02*
X-20600000Y11906667D01*
D10*
X-20533332Y11740000D02*
X-20566666Y11840000D01*
D10*
X-20533332Y11573333D02*
X-20533332Y11740000D01*
D10*
X-20566666Y11473333D02*
X-20533332Y11573333D01*
D10*
X-20600000Y11406667D02*
X-20566666Y11473333D01*
D10*
X-20666666Y11340000D02*
X-20600000Y11406667D01*
D10*
X-20733332Y11306667D02*
X-20666666Y11340000D01*
D10*
X-20866666Y11306667D02*
X-20733332Y11306667D01*
D10*
X-20933332Y11340000D02*
X-20866666Y11306667D01*
D10*
X-21000000Y11406667D02*
X-20933332Y11340000D01*
D10*
X-21033332Y11473333D02*
X-21000000Y11406667D01*
D10*
X-21266666Y11306667D02*
X-21266666Y12006667D01*
D10*
X-21266666Y11540000D02*
X-21733332Y12006667D01*
D10*
X-21733332Y11306667D02*
X-21433332Y11706667D01*
D10*
X-1333333Y10211667D02*
X-1333333Y10911667D01*
D10*
X-1633333Y10911667D02*
X-1333333Y10911667D01*
D10*
X-1733333Y10878333D02*
X-1633333Y10911667D01*
D10*
X-1766666Y10845000D02*
X-1733333Y10878333D01*
D10*
X-1800000Y10778333D02*
X-1766666Y10845000D01*
D10*
X-1800000Y10678333D02*
X-1800000Y10778333D01*
D10*
X-1766666Y10611667D02*
X-1800000Y10678333D01*
D10*
X-1733333Y10578333D02*
X-1766666Y10611667D01*
D10*
X-1633333Y10545000D02*
X-1733333Y10578333D01*
D10*
X-1333333Y10545000D02*
X-1633333Y10545000D01*
D10*
X-1933333Y10211667D02*
X-2200000Y10911667D01*
D10*
X-2466666Y10211667D02*
X-2200000Y10911667D01*
D10*
X-2366666Y10445000D02*
X-2033333Y10445000D01*
D10*
X-3000000Y10878333D02*
X-3033333Y10811667D01*
D10*
X-2900000Y10911667D02*
X-3000000Y10878333D01*
D10*
X-2833333Y10911667D02*
X-2900000Y10911667D01*
D10*
X-2733333Y10878333D02*
X-2833333Y10911667D01*
D10*
X-2666666Y10778333D02*
X-2733333Y10878333D01*
D10*
X-2633333Y10611667D02*
X-2666666Y10778333D01*
D10*
X-2633333Y10445000D02*
X-2633333Y10611667D01*
D10*
X-2666666Y10311667D02*
X-2633333Y10445000D01*
D10*
X-2733333Y10245000D02*
X-2666666Y10311667D01*
D10*
X-2833333Y10211667D02*
X-2733333Y10245000D01*
D10*
X-2866666Y10211667D02*
X-2833333Y10211667D01*
D10*
X-2966666Y10245000D02*
X-2866666Y10211667D01*
D10*
X-3033333Y10311667D02*
X-2966666Y10245000D01*
D10*
X-3066666Y10411667D02*
X-3033333Y10311667D01*
D10*
X-3066666Y10445000D02*
X-3066666Y10411667D01*
D10*
X-3033333Y10545000D02*
X-3066666Y10445000D01*
D10*
X-2966666Y10611667D02*
X-3033333Y10545000D01*
D10*
X-2866666Y10645000D02*
X-2966666Y10611667D01*
D10*
X-2833333Y10645000D02*
X-2866666Y10645000D01*
D10*
X-2733333Y10611667D02*
X-2833333Y10645000D01*
D10*
X-2666666Y10545000D02*
X-2733333Y10611667D01*
D10*
X-2633333Y10445000D02*
X-2666666Y10545000D01*
D10*
X-3300000Y10645000D02*
X-3333333Y10678333D01*
D10*
X-3333333Y10611667D02*
X-3300000Y10645000D01*
D10*
X-3366666Y10645000D02*
X-3333333Y10611667D01*
D10*
X-3333333Y10678333D02*
X-3366666Y10645000D01*
D10*
X-3300000Y10245000D02*
X-3333333Y10278333D01*
D10*
X-3333333Y10211667D02*
X-3300000Y10245000D01*
D10*
X-3366666Y10245000D02*
X-3333333Y10211667D01*
D10*
X-3333333Y10278333D02*
X-3366666Y10245000D01*
D10*
X-3800000Y10211667D02*
X-4066666Y10911667D01*
D10*
X-4333333Y10211667D02*
X-4066666Y10911667D01*
D10*
X-4233333Y10445000D02*
X-3900000Y10445000D01*
D10*
X-4866666Y10878333D02*
X-4900000Y10811667D01*
D10*
X-4766666Y10911667D02*
X-4866666Y10878333D01*
D10*
X-4700000Y10911667D02*
X-4766666Y10911667D01*
D10*
X-4600000Y10878333D02*
X-4700000Y10911667D01*
D10*
X-4533333Y10778333D02*
X-4600000Y10878333D01*
D10*
X-4500000Y10611667D02*
X-4533333Y10778333D01*
D10*
X-4500000Y10445000D02*
X-4500000Y10611667D01*
D10*
X-4533333Y10311667D02*
X-4500000Y10445000D01*
D10*
X-4600000Y10245000D02*
X-4533333Y10311667D01*
D10*
X-4700000Y10211667D02*
X-4600000Y10245000D01*
D10*
X-4733333Y10211667D02*
X-4700000Y10211667D01*
D10*
X-4833333Y10245000D02*
X-4733333Y10211667D01*
D10*
X-4900000Y10311667D02*
X-4833333Y10245000D01*
D10*
X-4933333Y10411667D02*
X-4900000Y10311667D01*
D10*
X-4933333Y10445000D02*
X-4933333Y10411667D01*
D10*
X-4900000Y10545000D02*
X-4933333Y10445000D01*
D10*
X-4833333Y10611667D02*
X-4900000Y10545000D01*
D10*
X-4733333Y10645000D02*
X-4833333Y10611667D01*
D10*
X-4700000Y10645000D02*
X-4733333Y10645000D01*
D10*
X-4600000Y10611667D02*
X-4700000Y10645000D01*
D10*
X-4533333Y10545000D02*
X-4600000Y10611667D01*
D10*
X-4500000Y10445000D02*
X-4533333Y10545000D01*
D10*
X-5200000Y10211667D02*
X-5233333Y10245000D01*
D10*
X-5166666Y10245000D02*
X-5200000Y10211667D01*
D10*
X-5200000Y10278333D02*
X-5166666Y10245000D01*
D10*
X-5233333Y10245000D02*
X-5200000Y10278333D01*
D10*
X-5233333Y10178333D02*
X-5233333Y10245000D01*
D10*
X-5200000Y10111667D02*
X-5233333Y10178333D01*
D10*
X-5166666Y10078333D02*
X-5200000Y10111667D01*
D10*
X-5766666Y10211667D02*
X-5766666Y10911667D01*
D10*
X-6033333Y10211667D02*
X-5766666Y10911667D01*
D10*
X-6033333Y10211667D02*
X-6300000Y10911667D01*
D10*
X-6300000Y10211667D02*
X-6300000Y10911667D01*
D10*
X-6566666Y10211667D02*
X-6566666Y10911667D01*
D10*
X-7200000Y10878333D02*
X-7266666Y10811667D01*
D10*
X-7100000Y10911667D02*
X-7200000Y10878333D01*
D10*
X-6966666Y10911667D02*
X-7100000Y10911667D01*
D10*
X-6866666Y10878333D02*
X-6966666Y10911667D01*
D10*
X-6800000Y10811667D02*
X-6866666Y10878333D01*
D10*
X-6800000Y10745000D02*
X-6800000Y10811667D01*
D10*
X-6833333Y10678333D02*
X-6800000Y10745000D01*
D10*
X-6866666Y10645000D02*
X-6833333Y10678333D01*
D10*
X-6933333Y10611667D02*
X-6866666Y10645000D01*
D10*
X-7133333Y10545000D02*
X-6933333Y10611667D01*
D10*
X-7200000Y10511667D02*
X-7133333Y10545000D01*
D10*
X-7233333Y10478333D02*
X-7200000Y10511667D01*
D10*
X-7266666Y10411667D02*
X-7233333Y10478333D01*
D10*
X-7266666Y10311667D02*
X-7266666Y10411667D01*
D10*
X-7200000Y10245000D02*
X-7266666Y10311667D01*
D10*
X-7100000Y10211667D02*
X-7200000Y10245000D01*
D10*
X-6966666Y10211667D02*
X-7100000Y10211667D01*
D10*
X-6866666Y10245000D02*
X-6966666Y10211667D01*
D10*
X-6800000Y10311667D02*
X-6866666Y10245000D01*
D10*
X-7600000Y10878333D02*
X-7666666Y10911667D01*
D10*
X-7533333Y10811667D02*
X-7600000Y10878333D01*
D10*
X-7500000Y10745000D02*
X-7533333Y10811667D01*
D10*
X-7466666Y10645000D02*
X-7500000Y10745000D01*
D10*
X-7466666Y10478333D02*
X-7466666Y10645000D01*
D10*
X-7500000Y10378333D02*
X-7466666Y10478333D01*
D10*
X-7533333Y10311667D02*
X-7500000Y10378333D01*
D10*
X-7600000Y10245000D02*
X-7533333Y10311667D01*
D10*
X-7666666Y10211667D02*
X-7600000Y10245000D01*
D10*
X-7799999Y10211667D02*
X-7666666Y10211667D01*
D10*
X-7866666Y10245000D02*
X-7799999Y10211667D01*
D10*
X-7933333Y10311667D02*
X-7866666Y10245000D01*
D10*
X-7966666Y10378333D02*
X-7933333Y10311667D01*
D10*
X-7999999Y10478333D02*
X-7966666Y10378333D01*
D10*
X-7999999Y10645000D02*
X-7999999Y10478333D01*
D10*
X-7966666Y10745000D02*
X-7999999Y10645000D01*
D10*
X-7933333Y10811667D02*
X-7966666Y10745000D01*
D10*
X-7866666Y10878333D02*
X-7933333Y10811667D01*
D10*
X-7799999Y10911667D02*
X-7866666Y10878333D01*
D10*
X-7666666Y10911667D02*
X-7799999Y10911667D01*
D10*
X-8266666Y10211667D02*
X-8299999Y10245000D01*
D10*
X-8233333Y10245000D02*
X-8266666Y10211667D01*
D10*
X-8266666Y10278333D02*
X-8233333Y10245000D01*
D10*
X-8299999Y10245000D02*
X-8266666Y10278333D01*
D10*
X-8299999Y10178333D02*
X-8299999Y10245000D01*
D10*
X-8266666Y10111667D02*
X-8299999Y10178333D01*
D10*
X-8233333Y10078333D02*
X-8266666Y10111667D01*
D10*
X-8966666Y10211667D02*
X-8966666Y10911667D01*
D10*
X-9200000Y10911667D02*
X-8733333Y10911667D01*
D10*
X-9500000Y10811667D02*
X-9433333Y10778333D01*
D10*
X-9600000Y10911667D02*
X-9500000Y10811667D01*
D10*
X-9600000Y10211667D02*
X-9600000Y10911667D01*
D10*
X-10033333Y10211667D02*
X-10033333Y10911667D01*
D10*
X-10333333Y10911667D02*
X-10033333Y10911667D01*
D10*
X-10433333Y10878333D02*
X-10333333Y10911667D01*
D10*
X-10466666Y10845000D02*
X-10433333Y10878333D01*
D10*
X-10500000Y10778333D02*
X-10466666Y10845000D01*
D10*
X-10500000Y10711667D02*
X-10500000Y10778333D01*
D10*
X-10466666Y10645000D02*
X-10500000Y10711667D01*
D10*
X-10433333Y10611667D02*
X-10466666Y10645000D01*
D10*
X-10333333Y10578333D02*
X-10433333Y10611667D01*
D10*
X-10333333Y10578333D02*
X-10033333Y10578333D01*
D10*
X-10433333Y10545000D02*
X-10333333Y10578333D01*
D10*
X-10466666Y10511667D02*
X-10433333Y10545000D01*
D10*
X-10500000Y10445000D02*
X-10466666Y10511667D01*
D10*
X-10500000Y10345000D02*
X-10500000Y10445000D01*
D10*
X-10466666Y10278333D02*
X-10500000Y10345000D01*
D10*
X-10433333Y10245000D02*
X-10466666Y10278333D01*
D10*
X-10333333Y10211667D02*
X-10433333Y10245000D01*
D10*
X-10033333Y10211667D02*
X-10333333Y10211667D01*
D10*
X-10733333Y10211667D02*
X-10733333Y10911667D01*
D10*
X-10733333Y10445000D02*
X-11200000Y10911667D01*
D10*
X-11200000Y10211667D02*
X-10900000Y10611667D01*
D10*
X-11433333Y10211667D02*
X-11433333Y10911667D01*
D10*
X-11700000Y10211667D02*
X-11700000Y10911667D01*
D10*
X-12166666Y10211667D02*
X-11700000Y10911667D01*
D10*
X-12166666Y10211667D02*
X-12166666Y10911667D01*
D10*
X-12466666Y10211667D02*
X-12500000Y10245000D01*
D10*
X-12433333Y10245000D02*
X-12466666Y10211667D01*
D10*
X-12466666Y10278333D02*
X-12433333Y10245000D01*
D10*
X-12500000Y10245000D02*
X-12466666Y10278333D01*
D10*
X-12500000Y10178333D02*
X-12500000Y10245000D01*
D10*
X-12466666Y10111667D02*
X-12500000Y10178333D01*
D10*
X-12433333Y10078333D02*
X-12466666Y10111667D01*
D10*
X-13166666Y10211667D02*
X-13166666Y10911667D01*
D10*
X-13400000Y10911667D02*
X-12933333Y10911667D01*
D10*
X-13966666Y10911667D02*
X-13600000Y10911667D01*
D10*
X-13766666Y10645000D02*
X-13966666Y10911667D01*
D10*
X-13866666Y10645000D02*
X-13766666Y10645000D01*
D10*
X-13933333Y10611667D02*
X-13866666Y10645000D01*
D10*
X-13966666Y10578333D02*
X-13933333Y10611667D01*
D10*
X-14000000Y10478333D02*
X-13966666Y10578333D01*
D10*
X-14000000Y10411667D02*
X-14000000Y10478333D01*
D10*
X-13966666Y10311667D02*
X-14000000Y10411667D01*
D10*
X-13900000Y10245000D02*
X-13966666Y10311667D01*
D10*
X-13800000Y10211667D02*
X-13900000Y10245000D01*
D10*
X-13700000Y10211667D02*
X-13800000Y10211667D01*
D10*
X-13600000Y10245000D02*
X-13700000Y10211667D01*
D10*
X-13566666Y10278333D02*
X-13600000Y10245000D01*
D10*
X-13533333Y10345000D02*
X-13566666Y10278333D01*
D10*
X-14666666Y10811667D02*
X-14699999Y10745000D01*
D10*
X-14599999Y10878333D02*
X-14666666Y10811667D01*
D10*
X-14533333Y10911667D02*
X-14599999Y10878333D01*
D10*
X-14399999Y10911667D02*
X-14533333Y10911667D01*
D10*
X-14333333Y10878333D02*
X-14399999Y10911667D01*
D10*
X-14266666Y10811667D02*
X-14333333Y10878333D01*
D10*
X-14233333Y10745000D02*
X-14266666Y10811667D01*
D10*
X-14199999Y10645000D02*
X-14233333Y10745000D01*
D10*
X-14199999Y10478333D02*
X-14199999Y10645000D01*
D10*
X-14233333Y10378333D02*
X-14199999Y10478333D01*
D10*
X-14266666Y10311667D02*
X-14233333Y10378333D01*
D10*
X-14333333Y10245000D02*
X-14266666Y10311667D01*
D10*
X-14399999Y10211667D02*
X-14333333Y10245000D01*
D10*
X-14533333Y10211667D02*
X-14399999Y10211667D01*
D10*
X-14599999Y10245000D02*
X-14533333Y10211667D01*
D10*
X-14666666Y10311667D02*
X-14599999Y10245000D01*
D10*
X-14699999Y10378333D02*
X-14666666Y10311667D01*
D10*
X-14933333Y10211667D02*
X-14933333Y10911667D01*
D10*
X-15399999Y10211667D02*
X-15399999Y10911667D01*
D10*
X-15399999Y10578333D02*
X-14933333Y10578333D01*
D10*
X-15799999Y10811667D02*
X-15733333Y10778333D01*
D10*
X-15899999Y10911667D02*
X-15799999Y10811667D01*
D10*
X-15899999Y10211667D02*
X-15899999Y10911667D01*
D10*
X-16366666Y10211667D02*
X-16399999Y10245000D01*
D10*
X-16333333Y10245000D02*
X-16366666Y10211667D01*
D10*
X-16366666Y10278333D02*
X-16333333Y10245000D01*
D10*
X-16399999Y10245000D02*
X-16366666Y10278333D01*
D10*
X-16399999Y10178333D02*
X-16399999Y10245000D01*
D10*
X-16366666Y10111667D02*
X-16399999Y10178333D01*
D10*
X-16333333Y10078333D02*
X-16366666Y10111667D01*
D10*
X-17066666Y10211667D02*
X-17066666Y10911667D01*
D10*
X-17300000Y10911667D02*
X-16833332Y10911667D01*
D10*
X-17600000Y10811667D02*
X-17533332Y10778333D01*
D10*
X-17700000Y10911667D02*
X-17600000Y10811667D01*
D10*
X-17700000Y10211667D02*
X-17700000Y10911667D01*
D10*
X-18500000Y10878333D02*
X-18533332Y10811667D01*
D10*
X-18400000Y10911667D02*
X-18500000Y10878333D01*
D10*
X-18333332Y10911667D02*
X-18400000Y10911667D01*
D10*
X-18233332Y10878333D02*
X-18333332Y10911667D01*
D10*
X-18166666Y10778333D02*
X-18233332Y10878333D01*
D10*
X-18133332Y10611667D02*
X-18166666Y10778333D01*
D10*
X-18133332Y10445000D02*
X-18133332Y10611667D01*
D10*
X-18166666Y10311667D02*
X-18133332Y10445000D01*
D10*
X-18233332Y10245000D02*
X-18166666Y10311667D01*
D10*
X-18333332Y10211667D02*
X-18233332Y10245000D01*
D10*
X-18366666Y10211667D02*
X-18333332Y10211667D01*
D10*
X-18466666Y10245000D02*
X-18366666Y10211667D01*
D10*
X-18533332Y10311667D02*
X-18466666Y10245000D01*
D10*
X-18566666Y10411667D02*
X-18533332Y10311667D01*
D10*
X-18566666Y10445000D02*
X-18566666Y10411667D01*
D10*
X-18533332Y10545000D02*
X-18566666Y10445000D01*
D10*
X-18466666Y10611667D02*
X-18533332Y10545000D01*
D10*
X-18366666Y10645000D02*
X-18466666Y10611667D01*
D10*
X-18333332Y10645000D02*
X-18366666Y10645000D01*
D10*
X-18233332Y10611667D02*
X-18333332Y10645000D01*
D10*
X-18166666Y10545000D02*
X-18233332Y10611667D01*
D10*
X-18133332Y10445000D02*
X-18166666Y10545000D01*
D10*
X-19233332Y10811667D02*
X-19266666Y10745000D01*
D10*
X-19166666Y10878333D02*
X-19233332Y10811667D01*
D10*
X-19100000Y10911667D02*
X-19166666Y10878333D01*
D10*
X-18966666Y10911667D02*
X-19100000Y10911667D01*
D10*
X-18900000Y10878333D02*
X-18966666Y10911667D01*
D10*
X-18833332Y10811667D02*
X-18900000Y10878333D01*
D10*
X-18800000Y10745000D02*
X-18833332Y10811667D01*
D10*
X-18766666Y10645000D02*
X-18800000Y10745000D01*
D10*
X-18766666Y10478333D02*
X-18766666Y10645000D01*
D10*
X-18800000Y10378333D02*
X-18766666Y10478333D01*
D10*
X-18833332Y10311667D02*
X-18800000Y10378333D01*
D10*
X-18900000Y10245000D02*
X-18833332Y10311667D01*
D10*
X-18966666Y10211667D02*
X-18900000Y10245000D01*
D10*
X-19100000Y10211667D02*
X-18966666Y10211667D01*
D10*
X-19166666Y10245000D02*
X-19100000Y10211667D01*
D10*
X-19233332Y10311667D02*
X-19166666Y10245000D01*
D10*
X-19266666Y10378333D02*
X-19233332Y10311667D01*
D10*
X-19500000Y10211667D02*
X-19500000Y10911667D01*
D10*
X-19966666Y10211667D02*
X-19966666Y10911667D01*
D10*
X-19966666Y10578333D02*
X-19500000Y10578333D01*
D10*
X-20366666Y10811667D02*
X-20300000Y10778333D01*
D10*
X-20466666Y10911667D02*
X-20366666Y10811667D01*
D10*
X-20466666Y10211667D02*
X-20466666Y10911667D01*
D10*
X-1333333Y9116667D02*
X-1333333Y9816667D01*
D10*
X-1633333Y9816667D02*
X-1333333Y9816667D01*
D10*
X-1733333Y9783333D02*
X-1633333Y9816667D01*
D10*
X-1766666Y9750000D02*
X-1733333Y9783333D01*
D10*
X-1800000Y9683333D02*
X-1766666Y9750000D01*
D10*
X-1800000Y9583333D02*
X-1800000Y9683333D01*
D10*
X-1766666Y9516667D02*
X-1800000Y9583333D01*
D10*
X-1733333Y9483333D02*
X-1766666Y9516667D01*
D10*
X-1633333Y9450000D02*
X-1733333Y9483333D01*
D10*
X-1333333Y9450000D02*
X-1633333Y9450000D01*
D10*
X-1933333Y9116667D02*
X-2200000Y9816667D01*
D10*
X-2466666Y9116667D02*
X-2200000Y9816667D01*
D10*
X-2366666Y9350000D02*
X-2033333Y9350000D01*
D10*
X-2733333Y9116667D02*
X-3066666Y9816667D01*
D10*
X-3066666Y9816667D02*
X-2600000Y9816667D01*
D10*
X-3300000Y9550000D02*
X-3333333Y9583333D01*
D10*
X-3333333Y9516667D02*
X-3300000Y9550000D01*
D10*
X-3366666Y9550000D02*
X-3333333Y9516667D01*
D10*
X-3333333Y9583333D02*
X-3366666Y9550000D01*
D10*
X-3300000Y9150000D02*
X-3333333Y9183333D01*
D10*
X-3333333Y9116667D02*
X-3300000Y9150000D01*
D10*
X-3366666Y9150000D02*
X-3333333Y9116667D01*
D10*
X-3333333Y9183333D02*
X-3366666Y9150000D01*
D10*
X-3800000Y9116667D02*
X-4066666Y9816667D01*
D10*
X-4333333Y9116667D02*
X-4066666Y9816667D01*
D10*
X-4233333Y9350000D02*
X-3900000Y9350000D01*
D10*
X-4600000Y9116667D02*
X-4933333Y9816667D01*
D10*
X-4933333Y9816667D02*
X-4466666Y9816667D01*
D10*
X-5200000Y9116667D02*
X-5233333Y9150000D01*
D10*
X-5166666Y9150000D02*
X-5200000Y9116667D01*
D10*
X-5200000Y9183333D02*
X-5166666Y9150000D01*
D10*
X-5233333Y9150000D02*
X-5200000Y9183333D01*
D10*
X-5233333Y9083333D02*
X-5233333Y9150000D01*
D10*
X-5200000Y9016667D02*
X-5233333Y9083333D01*
D10*
X-5166666Y8983333D02*
X-5200000Y9016667D01*
D10*
X-5766666Y9116667D02*
X-5766666Y9816667D01*
D10*
X-6033333Y9116667D02*
X-5766666Y9816667D01*
D10*
X-6033333Y9116667D02*
X-6300000Y9816667D01*
D10*
X-6300000Y9116667D02*
X-6300000Y9816667D01*
D10*
X-6666666Y9783333D02*
X-6733333Y9816667D01*
D10*
X-6600000Y9716667D02*
X-6666666Y9783333D01*
D10*
X-6566666Y9650000D02*
X-6600000Y9716667D01*
D10*
X-6533333Y9550000D02*
X-6566666Y9650000D01*
D10*
X-6533333Y9383333D02*
X-6533333Y9550000D01*
D10*
X-6566666Y9283333D02*
X-6533333Y9383333D01*
D10*
X-6600000Y9216667D02*
X-6566666Y9283333D01*
D10*
X-6666666Y9150000D02*
X-6600000Y9216667D01*
D10*
X-6733333Y9116667D02*
X-6666666Y9150000D01*
D10*
X-6866666Y9116667D02*
X-6733333Y9116667D01*
D10*
X-6933333Y9150000D02*
X-6866666Y9116667D01*
D10*
X-7000000Y9216667D02*
X-6933333Y9150000D01*
D10*
X-7033333Y9283333D02*
X-7000000Y9216667D01*
D10*
X-7066666Y9383333D02*
X-7033333Y9283333D01*
D10*
X-7066666Y9550000D02*
X-7066666Y9383333D01*
D10*
X-7033333Y9650000D02*
X-7066666Y9550000D01*
D10*
X-7000000Y9716667D02*
X-7033333Y9650000D01*
D10*
X-6933333Y9783333D02*
X-7000000Y9716667D01*
D10*
X-6866666Y9816667D02*
X-6933333Y9783333D01*
D10*
X-6733333Y9816667D02*
X-6866666Y9816667D01*
D10*
X-7666666Y9783333D02*
X-7733333Y9716667D01*
D10*
X-7566666Y9816667D02*
X-7666666Y9783333D01*
D10*
X-7433333Y9816667D02*
X-7566666Y9816667D01*
D10*
X-7333333Y9783333D02*
X-7433333Y9816667D01*
D10*
X-7266666Y9716667D02*
X-7333333Y9783333D01*
D10*
X-7266666Y9650000D02*
X-7266666Y9716667D01*
D10*
X-7300000Y9583333D02*
X-7266666Y9650000D01*
D10*
X-7333333Y9550000D02*
X-7300000Y9583333D01*
D10*
X-7400000Y9516667D02*
X-7333333Y9550000D01*
D10*
X-7600000Y9450000D02*
X-7400000Y9516667D01*
D10*
X-7666666Y9416667D02*
X-7600000Y9450000D01*
D10*
X-7699999Y9383333D02*
X-7666666Y9416667D01*
D10*
X-7733333Y9316667D02*
X-7699999Y9383333D01*
D10*
X-7733333Y9216667D02*
X-7733333Y9316667D01*
D10*
X-7666666Y9150000D02*
X-7733333Y9216667D01*
D10*
X-7566666Y9116667D02*
X-7666666Y9150000D01*
D10*
X-7433333Y9116667D02*
X-7566666Y9116667D01*
D10*
X-7333333Y9150000D02*
X-7433333Y9116667D01*
D10*
X-7266666Y9216667D02*
X-7333333Y9150000D01*
D10*
X-7966666Y9116667D02*
X-7966666Y9816667D01*
D10*
X-8266666Y9116667D02*
X-8299999Y9150000D01*
D10*
X-8233333Y9150000D02*
X-8266666Y9116667D01*
D10*
X-8266666Y9183333D02*
X-8233333Y9150000D01*
D10*
X-8299999Y9150000D02*
X-8266666Y9183333D01*
D10*
X-8299999Y9083333D02*
X-8299999Y9150000D01*
D10*
X-8266666Y9016667D02*
X-8299999Y9083333D01*
D10*
X-8233333Y8983333D02*
X-8266666Y9016667D01*
D10*
X-8966666Y9116667D02*
X-8966666Y9816667D01*
D10*
X-9200000Y9816667D02*
X-8733333Y9816667D01*
D10*
X-9500000Y9716667D02*
X-9433333Y9683333D01*
D10*
X-9600000Y9816667D02*
X-9500000Y9716667D01*
D10*
X-9600000Y9116667D02*
X-9600000Y9816667D01*
D10*
X-10466666Y9716667D02*
X-10500000Y9650000D01*
D10*
X-10400000Y9783333D02*
X-10466666Y9716667D01*
D10*
X-10333333Y9816667D02*
X-10400000Y9783333D01*
D10*
X-10200000Y9816667D02*
X-10333333Y9816667D01*
D10*
X-10133333Y9783333D02*
X-10200000Y9816667D01*
D10*
X-10066666Y9716667D02*
X-10133333Y9783333D01*
D10*
X-10033333Y9650000D02*
X-10066666Y9716667D01*
D10*
X-10000000Y9550000D02*
X-10033333Y9650000D01*
D10*
X-10000000Y9383333D02*
X-10000000Y9550000D01*
D10*
X-10033333Y9283333D02*
X-10000000Y9383333D01*
D10*
X-10066666Y9216667D02*
X-10033333Y9283333D01*
D10*
X-10133333Y9150000D02*
X-10066666Y9216667D01*
D10*
X-10200000Y9116667D02*
X-10133333Y9150000D01*
D10*
X-10333333Y9116667D02*
X-10200000Y9116667D01*
D10*
X-10400000Y9150000D02*
X-10333333Y9116667D01*
D10*
X-10466666Y9216667D02*
X-10400000Y9150000D01*
D10*
X-10500000Y9283333D02*
X-10466666Y9216667D01*
D10*
X-10733333Y9116667D02*
X-10733333Y9816667D01*
D10*
X-11200000Y9116667D02*
X-11200000Y9816667D01*
D10*
X-11200000Y9483333D02*
X-10733333Y9483333D01*
D10*
X-11600000Y9716667D02*
X-11533333Y9683333D01*
D10*
X-11700000Y9816667D02*
X-11600000Y9716667D01*
D10*
X-11700000Y9116667D02*
X-11700000Y9816667D01*
D10*
X-12133333Y9116667D02*
X-12133333Y9816667D01*
D10*
X-12600000Y9116667D02*
X-12133333Y9816667D01*
D10*
X-12600000Y9116667D02*
X-12600000Y9816667D01*
D10*
X-12900000Y9116667D02*
X-12933333Y9150000D01*
D10*
X-12866666Y9150000D02*
X-12900000Y9116667D01*
D10*
X-12900000Y9183333D02*
X-12866666Y9150000D01*
D10*
X-12933333Y9150000D02*
X-12900000Y9183333D01*
D10*
X-12933333Y9083333D02*
X-12933333Y9150000D01*
D10*
X-12900000Y9016667D02*
X-12933333Y9083333D01*
D10*
X-12866666Y8983333D02*
X-12900000Y9016667D01*
D10*
X-13600000Y9116667D02*
X-13600000Y9816667D01*
D10*
X-13833333Y9816667D02*
X-13366666Y9816667D01*
D10*
X-14399999Y9816667D02*
X-14033333Y9816667D01*
D10*
X-14199999Y9550000D02*
X-14399999Y9816667D01*
D10*
X-14299999Y9550000D02*
X-14199999Y9550000D01*
D10*
X-14366666Y9516667D02*
X-14299999Y9550000D01*
D10*
X-14399999Y9483333D02*
X-14366666Y9516667D01*
D10*
X-14433333Y9383333D02*
X-14399999Y9483333D01*
D10*
X-14433333Y9316667D02*
X-14433333Y9383333D01*
D10*
X-14399999Y9216667D02*
X-14433333Y9316667D01*
D10*
X-14333333Y9150000D02*
X-14399999Y9216667D01*
D10*
X-14233333Y9116667D02*
X-14333333Y9150000D01*
D10*
X-14133333Y9116667D02*
X-14233333Y9116667D01*
D10*
X-14033333Y9150000D02*
X-14133333Y9116667D01*
D10*
X-14000000Y9183333D02*
X-14033333Y9150000D01*
D10*
X-13966666Y9250000D02*
X-14000000Y9183333D01*
D10*
X-15099999Y9716667D02*
X-15133333Y9650000D01*
D10*
X-15033333Y9783333D02*
X-15099999Y9716667D01*
D10*
X-14966666Y9816667D02*
X-15033333Y9783333D01*
D10*
X-14833333Y9816667D02*
X-14966666Y9816667D01*
D10*
X-14766666Y9783333D02*
X-14833333Y9816667D01*
D10*
X-14699999Y9716667D02*
X-14766666Y9783333D01*
D10*
X-14666666Y9650000D02*
X-14699999Y9716667D01*
D10*
X-14633333Y9550000D02*
X-14666666Y9650000D01*
D10*
X-14633333Y9383333D02*
X-14633333Y9550000D01*
D10*
X-14666666Y9283333D02*
X-14633333Y9383333D01*
D10*
X-14699999Y9216667D02*
X-14666666Y9283333D01*
D10*
X-14766666Y9150000D02*
X-14699999Y9216667D01*
D10*
X-14833333Y9116667D02*
X-14766666Y9150000D01*
D10*
X-14966666Y9116667D02*
X-14833333Y9116667D01*
D10*
X-15033333Y9150000D02*
X-14966666Y9116667D01*
D10*
X-15099999Y9216667D02*
X-15033333Y9150000D01*
D10*
X-15133333Y9283333D02*
X-15099999Y9216667D01*
D10*
X-15366666Y9116667D02*
X-15366666Y9816667D01*
D10*
X-15833333Y9116667D02*
X-15833333Y9816667D01*
D10*
X-15833333Y9483333D02*
X-15366666Y9483333D01*
D10*
X-16099999Y9683333D02*
X-16099999Y9650000D01*
D10*
X-16133333Y9750000D02*
X-16099999Y9683333D01*
D10*
X-16166666Y9783333D02*
X-16133333Y9750000D01*
D10*
X-16233333Y9816667D02*
X-16166666Y9783333D01*
D10*
X-16366666Y9816667D02*
X-16233333Y9816667D01*
D10*
X-16433333Y9783333D02*
X-16366666Y9816667D01*
D10*
X-16466666Y9750000D02*
X-16433333Y9783333D01*
D10*
X-16499999Y9683333D02*
X-16466666Y9750000D01*
D10*
X-16499999Y9616667D02*
X-16499999Y9683333D01*
D10*
X-16466666Y9550000D02*
X-16499999Y9616667D01*
D10*
X-16399999Y9450000D02*
X-16466666Y9550000D01*
D10*
X-16066666Y9116667D02*
X-16399999Y9450000D01*
D10*
X-16533333Y9116667D02*
X-16066666Y9116667D01*
D10*
X-16800000Y9116667D02*
X-16833332Y9150000D01*
D10*
X-16766666Y9150000D02*
X-16800000Y9116667D01*
D10*
X-16800000Y9183333D02*
X-16766666Y9150000D01*
D10*
X-16833332Y9150000D02*
X-16800000Y9183333D01*
D10*
X-16833332Y9083333D02*
X-16833332Y9150000D01*
D10*
X-16800000Y9016667D02*
X-16833332Y9083333D01*
D10*
X-16766666Y8983333D02*
X-16800000Y9016667D01*
D10*
X-2533333Y8021666D02*
X-2533333Y8721667D01*
D10*
X-2766666Y8721667D02*
X-2300000Y8721667D01*
D10*
X-3066666Y8621667D02*
X-3000000Y8588333D01*
D10*
X-3166666Y8721667D02*
X-3066666Y8621667D01*
D10*
X-3166666Y8021666D02*
X-3166666Y8721667D01*
D10*
X-3566666Y8255000D02*
X-3900000Y8721667D01*
D10*
X-4066666Y8255000D02*
X-3566666Y8255000D01*
D10*
X-3900000Y8021666D02*
X-3900000Y8721667D01*
D10*
X-4700000Y8621667D02*
X-4733333Y8555000D01*
D10*
X-4633333Y8688333D02*
X-4700000Y8621667D01*
D10*
X-4566666Y8721667D02*
X-4633333Y8688333D01*
D10*
X-4433333Y8721667D02*
X-4566666Y8721667D01*
D10*
X-4366666Y8688333D02*
X-4433333Y8721667D01*
D10*
X-4300000Y8621667D02*
X-4366666Y8688333D01*
D10*
X-4266666Y8555000D02*
X-4300000Y8621667D01*
D10*
X-4233333Y8455000D02*
X-4266666Y8555000D01*
D10*
X-4233333Y8288333D02*
X-4233333Y8455000D01*
D10*
X-4266666Y8188333D02*
X-4233333Y8288333D01*
D10*
X-4300000Y8121666D02*
X-4266666Y8188333D01*
D10*
X-4366666Y8055000D02*
X-4300000Y8121666D01*
D10*
X-4433333Y8021666D02*
X-4366666Y8055000D01*
D10*
X-4566666Y8021666D02*
X-4433333Y8021666D01*
D10*
X-4633333Y8055000D02*
X-4566666Y8021666D01*
D10*
X-4700000Y8121666D02*
X-4633333Y8055000D01*
D10*
X-4733333Y8188333D02*
X-4700000Y8121666D01*
D10*
X-4966666Y8021666D02*
X-4966666Y8721667D01*
D10*
X-5433333Y8021666D02*
X-5433333Y8721667D01*
D10*
X-5433333Y8388333D02*
X-4966666Y8388333D01*
D10*
X-5833333Y8621667D02*
X-5766666Y8588333D01*
D10*
X-5933333Y8721667D02*
X-5833333Y8621667D01*
D10*
X-5933333Y8021666D02*
X-5933333Y8721667D01*
D10*
X-6400000Y8021666D02*
X-6433333Y8055000D01*
D10*
X-6366666Y8055000D02*
X-6400000Y8021666D01*
D10*
X-6400000Y8088333D02*
X-6366666Y8055000D01*
D10*
X-6433333Y8055000D02*
X-6400000Y8088333D01*
D10*
X-6433333Y7988333D02*
X-6433333Y8055000D01*
D10*
X-6400000Y7921666D02*
X-6433333Y7988333D01*
D10*
X-6366666Y7888333D02*
X-6400000Y7921666D01*
D10*
X-7100000Y8021666D02*
X-7100000Y8721667D01*
D10*
X-7333333Y8721667D02*
X-6866666Y8721667D01*
D10*
X-7633333Y8621667D02*
X-7566666Y8588333D01*
D10*
X-7733333Y8721667D02*
X-7633333Y8621667D01*
D10*
X-7733333Y8021666D02*
X-7733333Y8721667D01*
D10*
X-8266666Y8021666D02*
X-8600000Y8721667D01*
D10*
X-8600000Y8721667D02*
X-8133333Y8721667D01*
D10*
X-9266666Y8621667D02*
X-9300000Y8555000D01*
D10*
X-9200000Y8688333D02*
X-9266666Y8621667D01*
D10*
X-9133333Y8721667D02*
X-9200000Y8688333D01*
D10*
X-9000000Y8721667D02*
X-9133333Y8721667D01*
D10*
X-8933333Y8688333D02*
X-9000000Y8721667D01*
D10*
X-8866666Y8621667D02*
X-8933333Y8688333D01*
D10*
X-8833333Y8555000D02*
X-8866666Y8621667D01*
D10*
X-8800000Y8455000D02*
X-8833333Y8555000D01*
D10*
X-8800000Y8288333D02*
X-8800000Y8455000D01*
D10*
X-8833333Y8188333D02*
X-8800000Y8288333D01*
D10*
X-8866666Y8121666D02*
X-8833333Y8188333D01*
D10*
X-8933333Y8055000D02*
X-8866666Y8121666D01*
D10*
X-9000000Y8021666D02*
X-8933333Y8055000D01*
D10*
X-9133333Y8021666D02*
X-9000000Y8021666D01*
D10*
X-9200000Y8055000D02*
X-9133333Y8021666D01*
D10*
X-9266666Y8121666D02*
X-9200000Y8055000D01*
D10*
X-9300000Y8188333D02*
X-9266666Y8121666D01*
D10*
X-9533333Y8021666D02*
X-9533333Y8721667D01*
D10*
X-10000000Y8021666D02*
X-10000000Y8721667D01*
D10*
X-10000000Y8388333D02*
X-9533333Y8388333D01*
D10*
X-10400000Y8621667D02*
X-10333333Y8588333D01*
D10*
X-10500000Y8721667D02*
X-10400000Y8621667D01*
D10*
X-10500000Y8021666D02*
X-10500000Y8721667D01*
D10*
X-1333333Y6926666D02*
X-1333333Y7626666D01*
D10*
X-1633333Y7626666D02*
X-1333333Y7626666D01*
D10*
X-1733333Y7593333D02*
X-1633333Y7626666D01*
D10*
X-1766666Y7560000D02*
X-1733333Y7593333D01*
D10*
X-1800000Y7493333D02*
X-1766666Y7560000D01*
D10*
X-1800000Y7393333D02*
X-1800000Y7493333D01*
D10*
X-1766666Y7326666D02*
X-1800000Y7393333D01*
D10*
X-1733333Y7293333D02*
X-1766666Y7326666D01*
D10*
X-1633333Y7260000D02*
X-1733333Y7293333D01*
D10*
X-1333333Y7260000D02*
X-1633333Y7260000D01*
D10*
X-1933333Y6926666D02*
X-2200000Y7626666D01*
D10*
X-2466666Y6926666D02*
X-2200000Y7626666D01*
D10*
X-2366666Y7160000D02*
X-2033333Y7160000D01*
D10*
X-3000000Y7293333D02*
X-3033333Y7393333D01*
D10*
X-2933333Y7226666D02*
X-3000000Y7293333D01*
D10*
X-2833333Y7193333D02*
X-2933333Y7226666D01*
D10*
X-2800000Y7193333D02*
X-2833333Y7193333D01*
D10*
X-2700000Y7226666D02*
X-2800000Y7193333D01*
D10*
X-2633333Y7293333D02*
X-2700000Y7226666D01*
D10*
X-2600000Y7393333D02*
X-2633333Y7293333D01*
D10*
X-2600000Y7426666D02*
X-2600000Y7393333D01*
D10*
X-2633333Y7526666D02*
X-2600000Y7426666D01*
D10*
X-2700000Y7593333D02*
X-2633333Y7526666D01*
D10*
X-2800000Y7626666D02*
X-2700000Y7593333D01*
D10*
X-2833333Y7626666D02*
X-2800000Y7626666D01*
D10*
X-2933333Y7593333D02*
X-2833333Y7626666D01*
D10*
X-3000000Y7526666D02*
X-2933333Y7593333D01*
D10*
X-3033333Y7393333D02*
X-3000000Y7526666D01*
D10*
X-3033333Y7226666D02*
X-3033333Y7393333D01*
D10*
X-3000000Y7060000D02*
X-3033333Y7226666D01*
D10*
X-2933333Y6960000D02*
X-3000000Y7060000D01*
D10*
X-2833333Y6926666D02*
X-2933333Y6960000D01*
D10*
X-2766666Y6926666D02*
X-2833333Y6926666D01*
D10*
X-2666666Y6960000D02*
X-2766666Y6926666D01*
D10*
X-2633333Y7026666D02*
X-2666666Y6960000D01*
D10*
X-3300000Y7360000D02*
X-3333333Y7393333D01*
D10*
X-3333333Y7326666D02*
X-3300000Y7360000D01*
D10*
X-3366666Y7360000D02*
X-3333333Y7326666D01*
D10*
X-3333333Y7393333D02*
X-3366666Y7360000D01*
D10*
X-3300000Y6960000D02*
X-3333333Y6993333D01*
D10*
X-3333333Y6926666D02*
X-3300000Y6960000D01*
D10*
X-3366666Y6960000D02*
X-3333333Y6926666D01*
D10*
X-3333333Y6993333D02*
X-3366666Y6960000D01*
D10*
X-4033333Y6926666D02*
X-4033333Y7626666D01*
D10*
X-4266666Y7626666D02*
X-3800000Y7626666D01*
D10*
X-4866666Y6926666D02*
X-4400000Y7626666D01*
D10*
X-4400000Y6926666D02*
X-4866666Y7626666D01*
D10*
X-5133333Y6926666D02*
X-5166666Y6960000D01*
D10*
X-5100000Y6960000D02*
X-5133333Y6926666D01*
D10*
X-5133333Y6993333D02*
X-5100000Y6960000D01*
D10*
X-5166666Y6960000D02*
X-5133333Y6993333D01*
D10*
X-5166666Y6893333D02*
X-5166666Y6960000D01*
D10*
X-5133333Y6826666D02*
X-5166666Y6893333D01*
D10*
X-5100000Y6793333D02*
X-5133333Y6826666D01*
D10*
X-6066666Y7593333D02*
X-6133333Y7526666D01*
D10*
X-5966666Y7626666D02*
X-6066666Y7593333D01*
D10*
X-5833333Y7626666D02*
X-5966666Y7626666D01*
D10*
X-5733333Y7593333D02*
X-5833333Y7626666D01*
D10*
X-5666666Y7526666D02*
X-5733333Y7593333D01*
D10*
X-5666666Y7460000D02*
X-5666666Y7526666D01*
D10*
X-5700000Y7393333D02*
X-5666666Y7460000D01*
D10*
X-5733333Y7360000D02*
X-5700000Y7393333D01*
D10*
X-5800000Y7326666D02*
X-5733333Y7360000D01*
D10*
X-6000000Y7260000D02*
X-5800000Y7326666D01*
D10*
X-6066666Y7226666D02*
X-6000000Y7260000D01*
D10*
X-6100000Y7193333D02*
X-6066666Y7226666D01*
D10*
X-6133333Y7126666D02*
X-6100000Y7193333D01*
D10*
X-6133333Y7026666D02*
X-6133333Y7126666D01*
D10*
X-6066666Y6960000D02*
X-6133333Y7026666D01*
D10*
X-5966666Y6926666D02*
X-6066666Y6960000D01*
D10*
X-5833333Y6926666D02*
X-5966666Y6926666D01*
D10*
X-5733333Y6960000D02*
X-5833333Y6926666D01*
D10*
X-5666666Y7026666D02*
X-5733333Y6960000D01*
D10*
X-6800000Y7526666D02*
X-6833333Y7460000D01*
D10*
X-6733333Y7593333D02*
X-6800000Y7526666D01*
D10*
X-6666666Y7626666D02*
X-6733333Y7593333D01*
D10*
X-6533333Y7626666D02*
X-6666666Y7626666D01*
D10*
X-6466666Y7593333D02*
X-6533333Y7626666D01*
D10*
X-6400000Y7526666D02*
X-6466666Y7593333D01*
D10*
X-6366666Y7460000D02*
X-6400000Y7526666D01*
D10*
X-6333333Y7360000D02*
X-6366666Y7460000D01*
D10*
X-6333333Y7193333D02*
X-6333333Y7360000D01*
D10*
X-6366666Y7093333D02*
X-6333333Y7193333D01*
D10*
X-6400000Y7026666D02*
X-6366666Y7093333D01*
D10*
X-6466666Y6960000D02*
X-6400000Y7026666D01*
D10*
X-6533333Y6926666D02*
X-6466666Y6960000D01*
D10*
X-6666666Y6926666D02*
X-6533333Y6926666D01*
D10*
X-6733333Y6960000D02*
X-6666666Y6926666D01*
D10*
X-6800000Y7026666D02*
X-6733333Y6960000D01*
D10*
X-6833333Y7093333D02*
X-6800000Y7026666D01*
D10*
X-7066666Y6926666D02*
X-7066666Y7626666D01*
D10*
X-7466666Y6926666D02*
X-7066666Y6926666D01*
D10*
X-7666666Y6926666D02*
X-7699999Y6960000D01*
D10*
X-7633333Y6960000D02*
X-7666666Y6926666D01*
D10*
X-7666666Y6993333D02*
X-7633333Y6960000D01*
D10*
X-7699999Y6960000D02*
X-7666666Y6993333D01*
D10*
X-7699999Y6893333D02*
X-7699999Y6960000D01*
D10*
X-7666666Y6826666D02*
X-7699999Y6893333D01*
D10*
X-7633333Y6793333D02*
X-7666666Y6826666D01*
D10*
X-8366666Y6926666D02*
X-8366666Y7626666D01*
D10*
X-8600000Y7626666D02*
X-8133333Y7626666D01*
D10*
X-8900000Y7526666D02*
X-8833333Y7493333D01*
D10*
X-9000000Y7626666D02*
X-8900000Y7526666D01*
D10*
X-9000000Y6926666D02*
X-9000000Y7626666D01*
D10*
X-9866666Y7526666D02*
X-9900000Y7460000D01*
D10*
X-9800000Y7593333D02*
X-9866666Y7526666D01*
D10*
X-9733333Y7626666D02*
X-9800000Y7593333D01*
D10*
X-9600000Y7626666D02*
X-9733333Y7626666D01*
D10*
X-9533333Y7593333D02*
X-9600000Y7626666D01*
D10*
X-9466666Y7526666D02*
X-9533333Y7593333D01*
D10*
X-9433333Y7460000D02*
X-9466666Y7526666D01*
D10*
X-9400000Y7360000D02*
X-9433333Y7460000D01*
D10*
X-9400000Y7193333D02*
X-9400000Y7360000D01*
D10*
X-9433333Y7093333D02*
X-9400000Y7193333D01*
D10*
X-9466666Y7026666D02*
X-9433333Y7093333D01*
D10*
X-9533333Y6960000D02*
X-9466666Y7026666D01*
D10*
X-9600000Y6926666D02*
X-9533333Y6960000D01*
D10*
X-9733333Y6926666D02*
X-9600000Y6926666D01*
D10*
X-9800000Y6960000D02*
X-9733333Y6926666D01*
D10*
X-9866666Y7026666D02*
X-9800000Y6960000D01*
D10*
X-9900000Y7093333D02*
X-9866666Y7026666D01*
D10*
X-10133333Y6926666D02*
X-10133333Y7626666D01*
D10*
X-10600000Y6926666D02*
X-10600000Y7626666D01*
D10*
X-10600000Y7293333D02*
X-10133333Y7293333D01*
D10*
X-10866666Y7493333D02*
X-10866666Y7460000D01*
D10*
X-10900000Y7560000D02*
X-10866666Y7493333D01*
D10*
X-10933333Y7593333D02*
X-10900000Y7560000D01*
D10*
X-11000000Y7626666D02*
X-10933333Y7593333D01*
D10*
X-11133333Y7626666D02*
X-11000000Y7626666D01*
D10*
X-11200000Y7593333D02*
X-11133333Y7626666D01*
D10*
X-11233333Y7560000D02*
X-11200000Y7593333D01*
D10*
X-11266666Y7493333D02*
X-11233333Y7560000D01*
D10*
X-11266666Y7426666D02*
X-11266666Y7493333D01*
D10*
X-11233333Y7360000D02*
X-11266666Y7426666D01*
D10*
X-11166666Y7260000D02*
X-11233333Y7360000D01*
D10*
X-10833333Y6926666D02*
X-11166666Y7260000D01*
D10*
X-11300000Y6926666D02*
X-10833333Y6926666D01*
D10*
X-1333333Y5831666D02*
X-1333333Y6531666D01*
D10*
X-1633333Y6531666D02*
X-1333333Y6531666D01*
D10*
X-1733333Y6498333D02*
X-1633333Y6531666D01*
D10*
X-1766666Y6465000D02*
X-1733333Y6498333D01*
D10*
X-1800000Y6398333D02*
X-1766666Y6465000D01*
D10*
X-1800000Y6298333D02*
X-1800000Y6398333D01*
D10*
X-1766666Y6231666D02*
X-1800000Y6298333D01*
D10*
X-1733333Y6198333D02*
X-1766666Y6231666D01*
D10*
X-1633333Y6165000D02*
X-1733333Y6198333D01*
D10*
X-1333333Y6165000D02*
X-1633333Y6165000D01*
D10*
X-1933333Y5831666D02*
X-2200000Y6531666D01*
D10*
X-2466666Y5831666D02*
X-2200000Y6531666D01*
D10*
X-2366666Y6065000D02*
X-2033333Y6065000D01*
D10*
X-2766666Y6431666D02*
X-2700000Y6398333D01*
D10*
X-2866666Y6531666D02*
X-2766666Y6431666D01*
D10*
X-2866666Y5831666D02*
X-2866666Y6531666D01*
D10*
X-3366666Y6498333D02*
X-3466666Y6531666D01*
D10*
X-3300000Y6398333D02*
X-3366666Y6498333D01*
D10*
X-3266666Y6231666D02*
X-3300000Y6398333D01*
D10*
X-3266666Y6131666D02*
X-3266666Y6231666D01*
D10*
X-3300000Y5965000D02*
X-3266666Y6131666D01*
D10*
X-3366666Y5865000D02*
X-3300000Y5965000D01*
D10*
X-3466666Y5831666D02*
X-3366666Y5865000D01*
D10*
X-3533333Y5831666D02*
X-3466666Y5831666D01*
D10*
X-3633333Y5865000D02*
X-3533333Y5831666D01*
D10*
X-3700000Y5965000D02*
X-3633333Y5865000D01*
D10*
X-3733333Y6131666D02*
X-3700000Y5965000D01*
D10*
X-3733333Y6231666D02*
X-3733333Y6131666D01*
D10*
X-3700000Y6398333D02*
X-3733333Y6231666D01*
D10*
X-3633333Y6498333D02*
X-3700000Y6398333D01*
D10*
X-3533333Y6531666D02*
X-3633333Y6498333D01*
D10*
X-3466666Y6531666D02*
X-3533333Y6531666D01*
D10*
X-3966666Y6265000D02*
X-4000000Y6298333D01*
D10*
X-4000000Y6231666D02*
X-3966666Y6265000D01*
D10*
X-4033333Y6265000D02*
X-4000000Y6231666D01*
D10*
X-4000000Y6298333D02*
X-4033333Y6265000D01*
D10*
X-3966666Y5865000D02*
X-4000000Y5898333D01*
D10*
X-4000000Y5831666D02*
X-3966666Y5865000D01*
D10*
X-4033333Y5865000D02*
X-4000000Y5831666D01*
D10*
X-4000000Y5898333D02*
X-4033333Y5865000D01*
D10*
X-4566666Y5831666D02*
X-4566666Y6531666D01*
D10*
X-4866666Y6531666D02*
X-4566666Y6531666D01*
D10*
X-4966666Y6498333D02*
X-4866666Y6531666D01*
D10*
X-5000000Y6465000D02*
X-4966666Y6498333D01*
D10*
X-5033333Y6398333D02*
X-5000000Y6465000D01*
D10*
X-5033333Y6331666D02*
X-5033333Y6398333D01*
D10*
X-5000000Y6265000D02*
X-5033333Y6331666D01*
D10*
X-4966666Y6231666D02*
X-5000000Y6265000D01*
D10*
X-4866666Y6198333D02*
X-4966666Y6231666D01*
D10*
X-4566666Y6198333D02*
X-4866666Y6198333D01*
D10*
X-5033333Y5831666D02*
X-4800000Y6198333D01*
D10*
X-5700000Y5831666D02*
X-5233333Y6531666D01*
D10*
X-5233333Y5831666D02*
X-5700000Y6531666D01*
D10*
X-5966666Y5831666D02*
X-6000000Y5865000D01*
D10*
X-5933333Y5865000D02*
X-5966666Y5831666D01*
D10*
X-5966666Y5898333D02*
X-5933333Y5865000D01*
D10*
X-6000000Y5865000D02*
X-5966666Y5898333D01*
D10*
X-6000000Y5798333D02*
X-6000000Y5865000D01*
D10*
X-5966666Y5731666D02*
X-6000000Y5798333D01*
D10*
X-5933333Y5698333D02*
X-5966666Y5731666D01*
D10*
X-6900000Y6498333D02*
X-6966666Y6431666D01*
D10*
X-6800000Y6531666D02*
X-6900000Y6498333D01*
D10*
X-6666666Y6531666D02*
X-6800000Y6531666D01*
D10*
X-6566666Y6498333D02*
X-6666666Y6531666D01*
D10*
X-6500000Y6431666D02*
X-6566666Y6498333D01*
D10*
X-6500000Y6365000D02*
X-6500000Y6431666D01*
D10*
X-6533333Y6298333D02*
X-6500000Y6365000D01*
D10*
X-6566666Y6265000D02*
X-6533333Y6298333D01*
D10*
X-6633333Y6231666D02*
X-6566666Y6265000D01*
D10*
X-6833333Y6165000D02*
X-6633333Y6231666D01*
D10*
X-6900000Y6131666D02*
X-6833333Y6165000D01*
D10*
X-6933333Y6098333D02*
X-6900000Y6131666D01*
D10*
X-6966666Y6031666D02*
X-6933333Y6098333D01*
D10*
X-6966666Y5931666D02*
X-6966666Y6031666D01*
D10*
X-6900000Y5865000D02*
X-6966666Y5931666D01*
D10*
X-6800000Y5831666D02*
X-6900000Y5865000D01*
D10*
X-6666666Y5831666D02*
X-6800000Y5831666D01*
D10*
X-6566666Y5865000D02*
X-6666666Y5831666D01*
D10*
X-6500000Y5931666D02*
X-6566666Y5865000D01*
D10*
X-7200000Y5831666D02*
X-7200000Y6531666D01*
D10*
X-7433333Y6531666D02*
X-7200000Y6531666D01*
D10*
X-7533333Y6498333D02*
X-7433333Y6531666D01*
D10*
X-7600000Y6431666D02*
X-7533333Y6498333D01*
D10*
X-7633333Y6365000D02*
X-7600000Y6431666D01*
D10*
X-7666666Y6265000D02*
X-7633333Y6365000D01*
D10*
X-7666666Y6098333D02*
X-7666666Y6265000D01*
D10*
X-7633333Y5998333D02*
X-7666666Y6098333D01*
D10*
X-7600000Y5931666D02*
X-7633333Y5998333D01*
D10*
X-7533333Y5865000D02*
X-7600000Y5931666D01*
D10*
X-7433333Y5831666D02*
X-7533333Y5865000D01*
D10*
X-7200000Y5831666D02*
X-7433333Y5831666D01*
D10*
X-7799999Y5831666D02*
X-8066666Y6531666D01*
D10*
X-8333333Y5831666D02*
X-8066666Y6531666D01*
D10*
X-8233333Y6065000D02*
X-7899999Y6065000D01*
D10*
X-8533333Y5831666D02*
X-8566666Y5865000D01*
D10*
X-8500000Y5865000D02*
X-8533333Y5831666D01*
D10*
X-8533333Y5898333D02*
X-8500000Y5865000D01*
D10*
X-8566666Y5865000D02*
X-8533333Y5898333D01*
D10*
X-8566666Y5798333D02*
X-8566666Y5865000D01*
D10*
X-8533333Y5731666D02*
X-8566666Y5798333D01*
D10*
X-8500000Y5698333D02*
X-8533333Y5731666D01*
D10*
X-9233333Y5831666D02*
X-9233333Y6531666D01*
D10*
X-9466666Y6531666D02*
X-9000000Y6531666D01*
D10*
X-9766666Y6431666D02*
X-9700000Y6398333D01*
D10*
X-9866666Y6531666D02*
X-9766666Y6431666D01*
D10*
X-9866666Y5831666D02*
X-9866666Y6531666D01*
D10*
X-10733333Y6431666D02*
X-10766666Y6365000D01*
D10*
X-10666666Y6498333D02*
X-10733333Y6431666D01*
D10*
X-10600000Y6531666D02*
X-10666666Y6498333D01*
D10*
X-10466666Y6531666D02*
X-10600000Y6531666D01*
D10*
X-10400000Y6498333D02*
X-10466666Y6531666D01*
D10*
X-10333333Y6431666D02*
X-10400000Y6498333D01*
D10*
X-10300000Y6365000D02*
X-10333333Y6431666D01*
D10*
X-10266666Y6265000D02*
X-10300000Y6365000D01*
D10*
X-10266666Y6098333D02*
X-10266666Y6265000D01*
D10*
X-10300000Y5998333D02*
X-10266666Y6098333D01*
D10*
X-10333333Y5931666D02*
X-10300000Y5998333D01*
D10*
X-10400000Y5865000D02*
X-10333333Y5931666D01*
D10*
X-10466666Y5831666D02*
X-10400000Y5865000D01*
D10*
X-10600000Y5831666D02*
X-10466666Y5831666D01*
D10*
X-10666666Y5865000D02*
X-10600000Y5831666D01*
D10*
X-10733333Y5931666D02*
X-10666666Y5865000D01*
D10*
X-10766666Y5998333D02*
X-10733333Y5931666D01*
D10*
X-11000000Y5831666D02*
X-11000000Y6531666D01*
D10*
X-11466666Y5831666D02*
X-11466666Y6531666D01*
D10*
X-11466666Y6198333D02*
X-11000000Y6198333D01*
D10*
X-12133333Y6531666D02*
X-11766666Y6531666D01*
D10*
X-11933333Y6265000D02*
X-12133333Y6531666D01*
D10*
X-12033333Y6265000D02*
X-11933333Y6265000D01*
D10*
X-12100000Y6231666D02*
X-12033333Y6265000D01*
D10*
X-12133333Y6198333D02*
X-12100000Y6231666D01*
D10*
X-12166666Y6098333D02*
X-12133333Y6198333D01*
D10*
X-12166666Y6031666D02*
X-12166666Y6098333D01*
D10*
X-12133333Y5931666D02*
X-12166666Y6031666D01*
D10*
X-12066666Y5865000D02*
X-12133333Y5931666D01*
D10*
X-11966666Y5831666D02*
X-12066666Y5865000D01*
D10*
X-11866666Y5831666D02*
X-11966666Y5831666D01*
D10*
X-11766666Y5865000D02*
X-11866666Y5831666D01*
D10*
X-11733333Y5898333D02*
X-11766666Y5865000D01*
D10*
X-11700000Y5965000D02*
X-11733333Y5898333D01*
D10*
X-12433333Y5831666D02*
X-12466666Y5865000D01*
D10*
X-12400000Y5865000D02*
X-12433333Y5831666D01*
D10*
X-12433333Y5898333D02*
X-12400000Y5865000D01*
D10*
X-12466666Y5865000D02*
X-12433333Y5898333D01*
D10*
X-12466666Y5798333D02*
X-12466666Y5865000D01*
D10*
X-12433333Y5731666D02*
X-12466666Y5798333D01*
D10*
X-12400000Y5698333D02*
X-12433333Y5731666D01*
D10*
X-13133333Y5831666D02*
X-13133333Y6531666D01*
D10*
X-13366666Y6531666D02*
X-12900000Y6531666D01*
D10*
X-13666666Y6431666D02*
X-13600000Y6398333D01*
D10*
X-13766666Y6531666D02*
X-13666666Y6431666D01*
D10*
X-13766666Y5831666D02*
X-13766666Y6531666D01*
D10*
X-14299999Y5831666D02*
X-14633333Y6531666D01*
D10*
X-14633333Y6531666D02*
X-14166666Y6531666D01*
D10*
X-14866666Y5831666D02*
X-14866666Y6531666D01*
D10*
X-15166666Y6531666D02*
X-14866666Y6531666D01*
D10*
X-15266666Y6498333D02*
X-15166666Y6531666D01*
D10*
X-15299999Y6465000D02*
X-15266666Y6498333D01*
D10*
X-15333333Y6398333D02*
X-15299999Y6465000D01*
D10*
X-15333333Y6331666D02*
X-15333333Y6398333D01*
D10*
X-15299999Y6265000D02*
X-15333333Y6331666D01*
D10*
X-15266666Y6231666D02*
X-15299999Y6265000D01*
D10*
X-15166666Y6198333D02*
X-15266666Y6231666D01*
D10*
X-15166666Y6198333D02*
X-14866666Y6198333D01*
D10*
X-15266666Y6165000D02*
X-15166666Y6198333D01*
D10*
X-15299999Y6131666D02*
X-15266666Y6165000D01*
D10*
X-15333333Y6065000D02*
X-15299999Y6131666D01*
D10*
X-15333333Y5965000D02*
X-15333333Y6065000D01*
D10*
X-15299999Y5898333D02*
X-15333333Y5965000D01*
D10*
X-15266666Y5865000D02*
X-15299999Y5898333D01*
D10*
X-15166666Y5831666D02*
X-15266666Y5865000D01*
D10*
X-14866666Y5831666D02*
X-15166666Y5831666D01*
D10*
X-15566666Y5831666D02*
X-15566666Y6531666D01*
D10*
X-15566666Y6065000D02*
X-16033333Y6531666D01*
D10*
X-16033333Y5831666D02*
X-15733333Y6231666D01*
D10*
X-16266666Y5831666D02*
X-16266666Y6531666D01*
D10*
X-16533333Y5831666D02*
X-16533333Y6531666D01*
D10*
X-17000000Y5831666D02*
X-16533333Y6531666D01*
D10*
X-17000000Y5831666D02*
X-17000000Y6531666D01*
D10*
X-1333333Y4736666D02*
X-1333333Y5436666D01*
D10*
X-1633333Y5436666D02*
X-1333333Y5436666D01*
D10*
X-1733333Y5403333D02*
X-1633333Y5436666D01*
D10*
X-1766666Y5370000D02*
X-1733333Y5403333D01*
D10*
X-1800000Y5303333D02*
X-1766666Y5370000D01*
D10*
X-1800000Y5203333D02*
X-1800000Y5303333D01*
D10*
X-1766666Y5136666D02*
X-1800000Y5203333D01*
D10*
X-1733333Y5103333D02*
X-1766666Y5136666D01*
D10*
X-1633333Y5070000D02*
X-1733333Y5103333D01*
D10*
X-1333333Y5070000D02*
X-1633333Y5070000D01*
D10*
X-1933333Y4736666D02*
X-2200000Y5436666D01*
D10*
X-2466666Y4736666D02*
X-2200000Y5436666D01*
D10*
X-2366666Y4970000D02*
X-2033333Y4970000D01*
D10*
X-2766666Y5336666D02*
X-2700000Y5303333D01*
D10*
X-2866666Y5436666D02*
X-2766666Y5336666D01*
D10*
X-2866666Y4736666D02*
X-2866666Y5436666D01*
D10*
X-3700000Y5436666D02*
X-3333333Y5436666D01*
D10*
X-3500000Y5170000D02*
X-3700000Y5436666D01*
D10*
X-3600000Y5170000D02*
X-3500000Y5170000D01*
D10*
X-3666666Y5136666D02*
X-3600000Y5170000D01*
D10*
X-3700000Y5103333D02*
X-3666666Y5136666D01*
D10*
X-3733333Y5003333D02*
X-3700000Y5103333D01*
D10*
X-3733333Y4936666D02*
X-3733333Y5003333D01*
D10*
X-3700000Y4836666D02*
X-3733333Y4936666D01*
D10*
X-3633333Y4770000D02*
X-3700000Y4836666D01*
D10*
X-3533333Y4736666D02*
X-3633333Y4770000D01*
D10*
X-3433333Y4736666D02*
X-3533333Y4736666D01*
D10*
X-3333333Y4770000D02*
X-3433333Y4736666D01*
D10*
X-3300000Y4803333D02*
X-3333333Y4770000D01*
D10*
X-3266666Y4870000D02*
X-3300000Y4803333D01*
D10*
X-3966666Y5170000D02*
X-4000000Y5203333D01*
D10*
X-4000000Y5136666D02*
X-3966666Y5170000D01*
D10*
X-4033333Y5170000D02*
X-4000000Y5136666D01*
D10*
X-4000000Y5203333D02*
X-4033333Y5170000D01*
D10*
X-3966666Y4770000D02*
X-4000000Y4803333D01*
D10*
X-4000000Y4736666D02*
X-3966666Y4770000D01*
D10*
X-4033333Y4770000D02*
X-4000000Y4736666D01*
D10*
X-4000000Y4803333D02*
X-4033333Y4770000D01*
D10*
X-4933333Y5403333D02*
X-5000000Y5336666D01*
D10*
X-4833333Y5436666D02*
X-4933333Y5403333D01*
D10*
X-4700000Y5436666D02*
X-4833333Y5436666D01*
D10*
X-4600000Y5403333D02*
X-4700000Y5436666D01*
D10*
X-4533333Y5336666D02*
X-4600000Y5403333D01*
D10*
X-4533333Y5270000D02*
X-4533333Y5336666D01*
D10*
X-4566666Y5203333D02*
X-4533333Y5270000D01*
D10*
X-4600000Y5170000D02*
X-4566666Y5203333D01*
D10*
X-4666666Y5136666D02*
X-4600000Y5170000D01*
D10*
X-4866666Y5070000D02*
X-4666666Y5136666D01*
D10*
X-4933333Y5036666D02*
X-4866666Y5070000D01*
D10*
X-4966666Y5003333D02*
X-4933333Y5036666D01*
D10*
X-5000000Y4936666D02*
X-4966666Y5003333D01*
D10*
X-5000000Y4836666D02*
X-5000000Y4936666D01*
D10*
X-4933333Y4770000D02*
X-5000000Y4836666D01*
D10*
X-4833333Y4736666D02*
X-4933333Y4770000D01*
D10*
X-4700000Y4736666D02*
X-4833333Y4736666D01*
D10*
X-4600000Y4770000D02*
X-4700000Y4736666D01*
D10*
X-4533333Y4836666D02*
X-4600000Y4770000D01*
D10*
X-5333333Y4736666D02*
X-5166666Y5436666D01*
D10*
X-5333333Y4736666D02*
X-5500000Y5436666D01*
D10*
X-5666666Y4736666D02*
X-5500000Y5436666D01*
D10*
X-5666666Y4736666D02*
X-5833333Y5436666D01*
D10*
X-6033333Y4736666D02*
X-6033333Y5436666D01*
D10*
X-6266666Y5436666D02*
X-6033333Y5436666D01*
D10*
X-6366666Y5403333D02*
X-6266666Y5436666D01*
D10*
X-6433333Y5336666D02*
X-6366666Y5403333D01*
D10*
X-6466666Y5270000D02*
X-6433333Y5336666D01*
D10*
X-6500000Y5170000D02*
X-6466666Y5270000D01*
D10*
X-6500000Y5003333D02*
X-6500000Y5170000D01*
D10*
X-6466666Y4903333D02*
X-6500000Y5003333D01*
D10*
X-6433333Y4836666D02*
X-6466666Y4903333D01*
D10*
X-6366666Y4770000D02*
X-6433333Y4836666D01*
D10*
X-6266666Y4736666D02*
X-6366666Y4770000D01*
D10*
X-6033333Y4736666D02*
X-6266666Y4736666D01*
D10*
X-6733333Y4736666D02*
X-6733333Y5436666D01*
D10*
X-7100000Y5403333D02*
X-7166666Y5436666D01*
D10*
X-7033333Y5336666D02*
X-7100000Y5403333D01*
D10*
X-7000000Y5270000D02*
X-7033333Y5336666D01*
D10*
X-6966666Y5170000D02*
X-7000000Y5270000D01*
D10*
X-6966666Y5003333D02*
X-6966666Y5170000D01*
D10*
X-7000000Y4903333D02*
X-6966666Y5003333D01*
D10*
X-7033333Y4836666D02*
X-7000000Y4903333D01*
D10*
X-7100000Y4770000D02*
X-7033333Y4836666D01*
D10*
X-7166666Y4736666D02*
X-7100000Y4770000D01*
D10*
X-7300000Y4736666D02*
X-7166666Y4736666D01*
D10*
X-7366666Y4770000D02*
X-7300000Y4736666D01*
D10*
X-7433333Y4836666D02*
X-7366666Y4770000D01*
D10*
X-7466666Y4903333D02*
X-7433333Y4836666D01*
D10*
X-7500000Y5003333D02*
X-7466666Y4903333D01*
D10*
X-7500000Y5170000D02*
X-7500000Y5003333D01*
D10*
X-7466666Y5270000D02*
X-7500000Y5170000D01*
D10*
X-7433333Y5336666D02*
X-7466666Y5270000D01*
D10*
X-7366666Y5403333D02*
X-7433333Y5336666D01*
D10*
X-7300000Y5436666D02*
X-7366666Y5403333D01*
D10*
X-7166666Y5436666D02*
X-7300000Y5436666D01*
D10*
X-7766666Y4736666D02*
X-7799999Y4770000D01*
D10*
X-7733333Y4770000D02*
X-7766666Y4736666D01*
D10*
X-7766666Y4803333D02*
X-7733333Y4770000D01*
D10*
X-7799999Y4770000D02*
X-7766666Y4803333D01*
D10*
X-7799999Y4703333D02*
X-7799999Y4770000D01*
D10*
X-7766666Y4636666D02*
X-7799999Y4703333D01*
D10*
X-7733333Y4603333D02*
X-7766666Y4636666D01*
D10*
X-8333333Y4736666D02*
X-8333333Y5436666D01*
D10*
X-8600000Y4736666D02*
X-8600000Y5436666D01*
D10*
X-8900000Y5436666D02*
X-8600000Y5436666D01*
D10*
X-9000000Y5403333D02*
X-8900000Y5436666D01*
D10*
X-9033333Y5370000D02*
X-9000000Y5403333D01*
D10*
X-9066666Y5303333D02*
X-9033333Y5370000D01*
D10*
X-9066666Y5236666D02*
X-9066666Y5303333D01*
D10*
X-9033333Y5170000D02*
X-9066666Y5236666D01*
D10*
X-9000000Y5136666D02*
X-9033333Y5170000D01*
D10*
X-8900000Y5103333D02*
X-9000000Y5136666D01*
D10*
X-8600000Y5103333D02*
X-8900000Y5103333D01*
D10*
X-9066666Y4736666D02*
X-8833333Y5103333D01*
D10*
X-9400000Y5403333D02*
X-9466666Y5436666D01*
D10*
X-9333333Y5336666D02*
X-9400000Y5403333D01*
D10*
X-9300000Y5270000D02*
X-9333333Y5336666D01*
D10*
X-9266666Y5170000D02*
X-9300000Y5270000D01*
D10*
X-9266666Y5003333D02*
X-9266666Y5170000D01*
D10*
X-9300000Y4903333D02*
X-9266666Y5003333D01*
D10*
X-9333333Y4836666D02*
X-9300000Y4903333D01*
D10*
X-9400000Y4770000D02*
X-9333333Y4836666D01*
D10*
X-9466666Y4736666D02*
X-9400000Y4770000D01*
D10*
X-9600000Y4736666D02*
X-9466666Y4736666D01*
D10*
X-9666666Y4770000D02*
X-9600000Y4736666D01*
D10*
X-9733333Y4836666D02*
X-9666666Y4770000D01*
D10*
X-9766666Y4903333D02*
X-9733333Y4836666D01*
D10*
X-9800000Y5003333D02*
X-9766666Y4903333D01*
D10*
X-9800000Y5170000D02*
X-9800000Y5003333D01*
D10*
X-9766666Y5270000D02*
X-9800000Y5170000D01*
D10*
X-9733333Y5336666D02*
X-9766666Y5270000D01*
D10*
X-9666666Y5403333D02*
X-9733333Y5336666D01*
D10*
X-9600000Y5436666D02*
X-9666666Y5403333D01*
D10*
X-9466666Y5436666D02*
X-9600000Y5436666D01*
D10*
X-10033333Y4936666D02*
X-10033333Y5436666D01*
D10*
X-10066666Y4836666D02*
X-10033333Y4936666D01*
D10*
X-10133333Y4770000D02*
X-10066666Y4836666D01*
D10*
X-10233333Y4736666D02*
X-10133333Y4770000D01*
D10*
X-10300000Y4736666D02*
X-10233333Y4736666D01*
D10*
X-10400000Y4770000D02*
X-10300000Y4736666D01*
D10*
X-10466666Y4836666D02*
X-10400000Y4770000D01*
D10*
X-10500000Y4936666D02*
X-10466666Y4836666D01*
D10*
X-10500000Y5436666D02*
X-10500000Y4936666D01*
D10*
X-10900000Y4736666D02*
X-10900000Y5436666D01*
D10*
X-11133333Y5436666D02*
X-10666666Y5436666D01*
D10*
X-12100000Y4736666D02*
X-12100000Y5436666D01*
D10*
X-12400000Y5436666D02*
X-12100000Y5436666D01*
D10*
X-12500000Y5403333D02*
X-12400000Y5436666D01*
D10*
X-12533333Y5370000D02*
X-12500000Y5403333D01*
D10*
X-12566666Y5303333D02*
X-12533333Y5370000D01*
D10*
X-12566666Y5203333D02*
X-12566666Y5303333D01*
D10*
X-12533333Y5136666D02*
X-12566666Y5203333D01*
D10*
X-12500000Y5103333D02*
X-12533333Y5136666D01*
D10*
X-12400000Y5070000D02*
X-12500000Y5103333D01*
D10*
X-12100000Y5070000D02*
X-12400000Y5070000D01*
D10*
X-12700000Y4736666D02*
X-12966666Y5436666D01*
D10*
X-13233333Y4736666D02*
X-12966666Y5436666D01*
D10*
X-13133333Y4970000D02*
X-12800000Y4970000D01*
D10*
X-13533333Y5336666D02*
X-13466666Y5303333D01*
D10*
X-13633333Y5436666D02*
X-13533333Y5336666D01*
D10*
X-13633333Y4736666D02*
X-13633333Y5436666D01*
D10*
X-14033333Y4970000D02*
X-14366666Y5436666D01*
D10*
X-14533333Y4970000D02*
X-14033333Y4970000D01*
D10*
X-14366666Y4736666D02*
X-14366666Y5436666D01*
D10*
X-14733333Y5170000D02*
X-14766666Y5203333D01*
D10*
X-14766666Y5136666D02*
X-14733333Y5170000D01*
D10*
X-14799999Y5170000D02*
X-14766666Y5136666D01*
D10*
X-14766666Y5203333D02*
X-14799999Y5170000D01*
D10*
X-14733333Y4770000D02*
X-14766666Y4803333D01*
D10*
X-14766666Y4736666D02*
X-14733333Y4770000D01*
D10*
X-14799999Y4770000D02*
X-14766666Y4736666D01*
D10*
X-14766666Y4803333D02*
X-14799999Y4770000D01*
D10*
X-15699999Y5403333D02*
X-15766666Y5336666D01*
D10*
X-15599999Y5436666D02*
X-15699999Y5403333D01*
D10*
X-15466666Y5436666D02*
X-15599999Y5436666D01*
D10*
X-15366666Y5403333D02*
X-15466666Y5436666D01*
D10*
X-15299999Y5336666D02*
X-15366666Y5403333D01*
D10*
X-15299999Y5270000D02*
X-15299999Y5336666D01*
D10*
X-15333333Y5203333D02*
X-15299999Y5270000D01*
D10*
X-15366666Y5170000D02*
X-15333333Y5203333D01*
D10*
X-15433333Y5136666D02*
X-15366666Y5170000D01*
D10*
X-15633333Y5070000D02*
X-15433333Y5136666D01*
D10*
X-15699999Y5036666D02*
X-15633333Y5070000D01*
D10*
X-15733333Y5003333D02*
X-15699999Y5036666D01*
D10*
X-15766666Y4936666D02*
X-15733333Y5003333D01*
D10*
X-15766666Y4836666D02*
X-15766666Y4936666D01*
D10*
X-15699999Y4770000D02*
X-15766666Y4836666D01*
D10*
X-15599999Y4736666D02*
X-15699999Y4770000D01*
D10*
X-15466666Y4736666D02*
X-15599999Y4736666D01*
D10*
X-15366666Y4770000D02*
X-15466666Y4736666D01*
D10*
X-15299999Y4836666D02*
X-15366666Y4770000D01*
D10*
X-16099999Y4736666D02*
X-15933333Y5436666D01*
D10*
X-16099999Y4736666D02*
X-16266666Y5436666D01*
D10*
X-16433333Y4736666D02*
X-16266666Y5436666D01*
D10*
X-16433333Y4736666D02*
X-16599999Y5436666D01*
D10*
X-17233332Y5336666D02*
X-17266666Y5270000D01*
D10*
X-17166666Y5403333D02*
X-17233332Y5336666D01*
D10*
X-17100000Y5436666D02*
X-17166666Y5403333D01*
D10*
X-16966666Y5436666D02*
X-17100000Y5436666D01*
D10*
X-16900000Y5403333D02*
X-16966666Y5436666D01*
D10*
X-16833332Y5336666D02*
X-16900000Y5403333D01*
D10*
X-16800000Y5270000D02*
X-16833332Y5336666D01*
D10*
X-16766666Y5170000D02*
X-16800000Y5270000D01*
D10*
X-16766666Y5003333D02*
X-16766666Y5170000D01*
D10*
X-16800000Y4903333D02*
X-16766666Y5003333D01*
D10*
X-16833332Y4836666D02*
X-16800000Y4903333D01*
D10*
X-16900000Y4770000D02*
X-16833332Y4836666D01*
D10*
X-16966666Y4736666D02*
X-16900000Y4770000D01*
D10*
X-17100000Y4736666D02*
X-16966666Y4736666D01*
D10*
X-17166666Y4770000D02*
X-17100000Y4736666D01*
D10*
X-17233332Y4836666D02*
X-17166666Y4770000D01*
D10*
X-17266666Y4903333D02*
X-17233332Y4836666D01*
D10*
X-17500000Y4736666D02*
X-17500000Y5436666D01*
D10*
X-17900000Y4736666D02*
X-17500000Y4736666D01*
D10*
X-18066666Y4736666D02*
X-18066666Y5436666D01*
D10*
X-18066666Y4970000D02*
X-18533332Y5436666D01*
D10*
X-18533332Y4736666D02*
X-18233332Y5136666D01*
D10*
X-18800000Y4736666D02*
X-18833332Y4770000D01*
D10*
X-18766666Y4770000D02*
X-18800000Y4736666D01*
D10*
X-18800000Y4803333D02*
X-18766666Y4770000D01*
D10*
X-18833332Y4770000D02*
X-18800000Y4803333D01*
D10*
X-18833332Y4703333D02*
X-18833332Y4770000D01*
D10*
X-18800000Y4636666D02*
X-18833332Y4703333D01*
D10*
X-18766666Y4603333D02*
X-18800000Y4636666D01*
D10*
X-19500000Y4736666D02*
X-19500000Y5436666D01*
D10*
X-19733332Y5436666D02*
X-19266666Y5436666D01*
D10*
X-20333332Y4736666D02*
X-19866666Y5436666D01*
D10*
X-19866666Y4736666D02*
X-20333332Y5436666D01*
D10*
X-1333333Y3641666D02*
X-1333333Y4341666D01*
D10*
X-1633333Y4341666D02*
X-1333333Y4341666D01*
D10*
X-1733333Y4308333D02*
X-1633333Y4341666D01*
D10*
X-1766666Y4275000D02*
X-1733333Y4308333D01*
D10*
X-1800000Y4208333D02*
X-1766666Y4275000D01*
D10*
X-1800000Y4108333D02*
X-1800000Y4208333D01*
D10*
X-1766666Y4041666D02*
X-1800000Y4108333D01*
D10*
X-1733333Y4008333D02*
X-1766666Y4041666D01*
D10*
X-1633333Y3975000D02*
X-1733333Y4008333D01*
D10*
X-1333333Y3975000D02*
X-1633333Y3975000D01*
D10*
X-2033333Y3641666D02*
X-2033333Y4341666D01*
D10*
X-2333333Y4341666D02*
X-2033333Y4341666D01*
D10*
X-2433333Y4308333D02*
X-2333333Y4341666D01*
D10*
X-2466666Y4275000D02*
X-2433333Y4308333D01*
D10*
X-2500000Y4208333D02*
X-2466666Y4275000D01*
D10*
X-2500000Y4141666D02*
X-2500000Y4208333D01*
D10*
X-2466666Y4075000D02*
X-2500000Y4141666D01*
D10*
X-2433333Y4041666D02*
X-2466666Y4075000D01*
D10*
X-2333333Y4008333D02*
X-2433333Y4041666D01*
D10*
X-2333333Y4008333D02*
X-2033333Y4008333D01*
D10*
X-2433333Y3975000D02*
X-2333333Y4008333D01*
D10*
X-2466666Y3941666D02*
X-2433333Y3975000D01*
D10*
X-2500000Y3875000D02*
X-2466666Y3941666D01*
D10*
X-2500000Y3775000D02*
X-2500000Y3875000D01*
D10*
X-2466666Y3708333D02*
X-2500000Y3775000D01*
D10*
X-2433333Y3675000D02*
X-2466666Y3708333D01*
D10*
X-2333333Y3641666D02*
X-2433333Y3675000D01*
D10*
X-2033333Y3641666D02*
X-2333333Y3641666D01*
D10*
X-2866666Y4241666D02*
X-2800000Y4208333D01*
D10*
X-2966666Y4341666D02*
X-2866666Y4241666D01*
D10*
X-2966666Y3641666D02*
X-2966666Y4341666D01*
D10*
X-3400000Y4075000D02*
X-3433333Y4108333D01*
D10*
X-3433333Y4041666D02*
X-3400000Y4075000D01*
D10*
X-3466666Y4075000D02*
X-3433333Y4041666D01*
D10*
X-3433333Y4108333D02*
X-3466666Y4075000D01*
D10*
X-3400000Y3675000D02*
X-3433333Y3708333D01*
D10*
X-3433333Y3641666D02*
X-3400000Y3675000D01*
D10*
X-3466666Y3675000D02*
X-3433333Y3641666D01*
D10*
X-3433333Y3708333D02*
X-3466666Y3675000D01*
D10*
X-3900000Y3641666D02*
X-4166666Y4341666D01*
D10*
X-4433333Y3641666D02*
X-4166666Y4341666D01*
D10*
X-4333333Y3875000D02*
X-4000000Y3875000D01*
D10*
X-4966666Y4008333D02*
X-5000000Y4108333D01*
D10*
X-4900000Y3941666D02*
X-4966666Y4008333D01*
D10*
X-4800000Y3908333D02*
X-4900000Y3941666D01*
D10*
X-4766666Y3908333D02*
X-4800000Y3908333D01*
D10*
X-4666666Y3941666D02*
X-4766666Y3908333D01*
D10*
X-4600000Y4008333D02*
X-4666666Y3941666D01*
D10*
X-4566666Y4108333D02*
X-4600000Y4008333D01*
D10*
X-4566666Y4141666D02*
X-4566666Y4108333D01*
D10*
X-4600000Y4241666D02*
X-4566666Y4141666D01*
D10*
X-4666666Y4308333D02*
X-4600000Y4241666D01*
D10*
X-4766666Y4341666D02*
X-4666666Y4308333D01*
D10*
X-4800000Y4341666D02*
X-4766666Y4341666D01*
D10*
X-4900000Y4308333D02*
X-4800000Y4341666D01*
D10*
X-4966666Y4241666D02*
X-4900000Y4308333D01*
D10*
X-5000000Y4108333D02*
X-4966666Y4241666D01*
D10*
X-5000000Y3941666D02*
X-5000000Y4108333D01*
D10*
X-4966666Y3775000D02*
X-5000000Y3941666D01*
D10*
X-4900000Y3675000D02*
X-4966666Y3775000D01*
D10*
X-4800000Y3641666D02*
X-4900000Y3675000D01*
D10*
X-4733333Y3641666D02*
X-4800000Y3641666D01*
D10*
X-4633333Y3675000D02*
X-4733333Y3641666D01*
D10*
X-4600000Y3741666D02*
X-4633333Y3675000D01*
D10*
X-5300000Y3641666D02*
X-5333333Y3675000D01*
D10*
X-5266666Y3675000D02*
X-5300000Y3641666D01*
D10*
X-5300000Y3708333D02*
X-5266666Y3675000D01*
D10*
X-5333333Y3675000D02*
X-5300000Y3708333D01*
D10*
X-5333333Y3608333D02*
X-5333333Y3675000D01*
D10*
X-5300000Y3541666D02*
X-5333333Y3608333D01*
D10*
X-5266666Y3508333D02*
X-5300000Y3541666D01*
D10*
X-6000000Y3641666D02*
X-6000000Y4341666D01*
D10*
X-6233333Y4341666D02*
X-5766666Y4341666D01*
D10*
X-6533333Y4241666D02*
X-6466666Y4208333D01*
D10*
X-6633333Y4341666D02*
X-6533333Y4241666D01*
D10*
X-6633333Y3641666D02*
X-6633333Y4341666D01*
D10*
X-7500000Y4241666D02*
X-7533333Y4175000D01*
D10*
X-7433333Y4308333D02*
X-7500000Y4241666D01*
D10*
X-7366666Y4341666D02*
X-7433333Y4308333D01*
D10*
X-7233333Y4341666D02*
X-7366666Y4341666D01*
D10*
X-7166666Y4308333D02*
X-7233333Y4341666D01*
D10*
X-7100000Y4241666D02*
X-7166666Y4308333D01*
D10*
X-7066666Y4175000D02*
X-7100000Y4241666D01*
D10*
X-7033333Y4075000D02*
X-7066666Y4175000D01*
D10*
X-7033333Y3908333D02*
X-7033333Y4075000D01*
D10*
X-7066666Y3808333D02*
X-7033333Y3908333D01*
D10*
X-7100000Y3741666D02*
X-7066666Y3808333D01*
D10*
X-7166666Y3675000D02*
X-7100000Y3741666D01*
D10*
X-7233333Y3641666D02*
X-7166666Y3675000D01*
D10*
X-7366666Y3641666D02*
X-7233333Y3641666D01*
D10*
X-7433333Y3675000D02*
X-7366666Y3641666D01*
D10*
X-7500000Y3741666D02*
X-7433333Y3675000D01*
D10*
X-7533333Y3808333D02*
X-7500000Y3741666D01*
D10*
X-7766666Y3641666D02*
X-7766666Y4341666D01*
D10*
X-8233333Y3641666D02*
X-8233333Y4341666D01*
D10*
X-8233333Y4008333D02*
X-7766666Y4008333D01*
D10*
X-8900000Y4341666D02*
X-8533333Y4341666D01*
D10*
X-8700000Y4075000D02*
X-8900000Y4341666D01*
D10*
X-8800000Y4075000D02*
X-8700000Y4075000D01*
D10*
X-8866666Y4041666D02*
X-8800000Y4075000D01*
D10*
X-8900000Y4008333D02*
X-8866666Y4041666D01*
D10*
X-8933333Y3908333D02*
X-8900000Y4008333D01*
D10*
X-8933333Y3841666D02*
X-8933333Y3908333D01*
D10*
X-8900000Y3741666D02*
X-8933333Y3841666D01*
D10*
X-8833333Y3675000D02*
X-8900000Y3741666D01*
D10*
X-8733333Y3641666D02*
X-8833333Y3675000D01*
D10*
X-8633333Y3641666D02*
X-8733333Y3641666D01*
D10*
X-8533333Y3675000D02*
X-8633333Y3641666D01*
D10*
X-8500000Y3708333D02*
X-8533333Y3675000D01*
D10*
X-8466666Y3775000D02*
X-8500000Y3708333D01*
D10*
X-9166666Y3641666D02*
X-9166666Y4341666D01*
D10*
X-9633333Y3641666D02*
X-9166666Y4341666D01*
D10*
X-9633333Y3641666D02*
X-9633333Y4341666D01*
D10*
X-9933333Y3641666D02*
X-9966666Y3675000D01*
D10*
X-9900000Y3675000D02*
X-9933333Y3641666D01*
D10*
X-9933333Y3708333D02*
X-9900000Y3675000D01*
D10*
X-9966666Y3675000D02*
X-9933333Y3708333D01*
D10*
X-9966666Y3608333D02*
X-9966666Y3675000D01*
D10*
X-9933333Y3541666D02*
X-9966666Y3608333D01*
D10*
X-9900000Y3508333D02*
X-9933333Y3541666D01*
D10*
X-10633333Y3641666D02*
X-10633333Y4341666D01*
D10*
X-10866666Y4341666D02*
X-10400000Y4341666D01*
D10*
X-11433333Y4341666D02*
X-11066666Y4341666D01*
D10*
X-11233333Y4075000D02*
X-11433333Y4341666D01*
D10*
X-11333333Y4075000D02*
X-11233333Y4075000D01*
D10*
X-11400000Y4041666D02*
X-11333333Y4075000D01*
D10*
X-11433333Y4008333D02*
X-11400000Y4041666D01*
D10*
X-11466666Y3908333D02*
X-11433333Y4008333D01*
D10*
X-11466666Y3841666D02*
X-11466666Y3908333D01*
D10*
X-11433333Y3741666D02*
X-11466666Y3841666D01*
D10*
X-11366666Y3675000D02*
X-11433333Y3741666D01*
D10*
X-11266666Y3641666D02*
X-11366666Y3675000D01*
D10*
X-11166666Y3641666D02*
X-11266666Y3641666D01*
D10*
X-11066666Y3675000D02*
X-11166666Y3641666D01*
D10*
X-11033333Y3708333D02*
X-11066666Y3675000D01*
D10*
X-11000000Y3775000D02*
X-11033333Y3708333D01*
D10*
X-12133333Y4241666D02*
X-12166666Y4175000D01*
D10*
X-12066666Y4308333D02*
X-12133333Y4241666D01*
D10*
X-12000000Y4341666D02*
X-12066666Y4308333D01*
D10*
X-11866666Y4341666D02*
X-12000000Y4341666D01*
D10*
X-11800000Y4308333D02*
X-11866666Y4341666D01*
D10*
X-11733333Y4241666D02*
X-11800000Y4308333D01*
D10*
X-11700000Y4175000D02*
X-11733333Y4241666D01*
D10*
X-11666666Y4075000D02*
X-11700000Y4175000D01*
D10*
X-11666666Y3908333D02*
X-11666666Y4075000D01*
D10*
X-11700000Y3808333D02*
X-11666666Y3908333D01*
D10*
X-11733333Y3741666D02*
X-11700000Y3808333D01*
D10*
X-11800000Y3675000D02*
X-11733333Y3741666D01*
D10*
X-11866666Y3641666D02*
X-11800000Y3675000D01*
D10*
X-12000000Y3641666D02*
X-11866666Y3641666D01*
D10*
X-12066666Y3675000D02*
X-12000000Y3641666D01*
D10*
X-12133333Y3741666D02*
X-12066666Y3675000D01*
D10*
X-12166666Y3808333D02*
X-12133333Y3741666D01*
D10*
X-12400000Y3641666D02*
X-12400000Y4341666D01*
D10*
X-12866666Y3641666D02*
X-12866666Y4341666D01*
D10*
X-12866666Y4008333D02*
X-12400000Y4008333D01*
D10*
X-13100000Y3875000D02*
X-13433333Y4341666D01*
D10*
X-13600000Y3875000D02*
X-13100000Y3875000D01*
D10*
X-13433333Y3641666D02*
X-13433333Y4341666D01*
D10*
X-13833333Y3641666D02*
X-13866666Y3675000D01*
D10*
X-13800000Y3675000D02*
X-13833333Y3641666D01*
D10*
X-13833333Y3708333D02*
X-13800000Y3675000D01*
D10*
X-13866666Y3675000D02*
X-13833333Y3708333D01*
D10*
X-13866666Y3608333D02*
X-13866666Y3675000D01*
D10*
X-13833333Y3541666D02*
X-13866666Y3608333D01*
D10*
X-13800000Y3508333D02*
X-13833333Y3541666D01*
D10*
X-14533333Y3641666D02*
X-14533333Y4341666D01*
D10*
X-14766666Y4341666D02*
X-14299999Y4341666D01*
D10*
X-15066666Y4241666D02*
X-14999999Y4208333D01*
D10*
X-15166666Y4341666D02*
X-15066666Y4241666D01*
D10*
X-15166666Y3641666D02*
X-15166666Y4341666D01*
D10*
X-15566666Y3875000D02*
X-15899999Y4341666D01*
D10*
X-16066666Y3875000D02*
X-15566666Y3875000D01*
D10*
X-15899999Y3641666D02*
X-15899999Y4341666D01*
D10*
X-16699999Y4241666D02*
X-16733333Y4175000D01*
D10*
X-16633333Y4308333D02*
X-16699999Y4241666D01*
D10*
X-16566666Y4341666D02*
X-16633333Y4308333D01*
D10*
X-16433333Y4341666D02*
X-16566666Y4341666D01*
D10*
X-16366666Y4308333D02*
X-16433333Y4341666D01*
D10*
X-16299999Y4241666D02*
X-16366666Y4308333D01*
D10*
X-16266666Y4175000D02*
X-16299999Y4241666D01*
D10*
X-16233333Y4075000D02*
X-16266666Y4175000D01*
D10*
X-16233333Y3908333D02*
X-16233333Y4075000D01*
D10*
X-16266666Y3808333D02*
X-16233333Y3908333D01*
D10*
X-16299999Y3741666D02*
X-16266666Y3808333D01*
D10*
X-16366666Y3675000D02*
X-16299999Y3741666D01*
D10*
X-16433333Y3641666D02*
X-16366666Y3675000D01*
D10*
X-16566666Y3641666D02*
X-16433333Y3641666D01*
D10*
X-16633333Y3675000D02*
X-16566666Y3641666D01*
D10*
X-16699999Y3741666D02*
X-16633333Y3675000D01*
D10*
X-16733333Y3808333D02*
X-16699999Y3741666D01*
D10*
X-16966666Y3641666D02*
X-16966666Y4341666D01*
D10*
X-17433332Y3641666D02*
X-17433332Y4341666D01*
D10*
X-17433332Y4008333D02*
X-16966666Y4008333D01*
D10*
X-17833332Y4241666D02*
X-17766666Y4208333D01*
D10*
X-17933332Y4341666D02*
X-17833332Y4241666D01*
D10*
X-17933332Y3641666D02*
X-17933332Y4341666D01*
D10*
X-1333333Y2546666D02*
X-1333333Y3246666D01*
D10*
X-1766666Y3246666D02*
X-1333333Y3246666D01*
D10*
X-1600000Y2913333D02*
X-1333333Y2913333D01*
D10*
X-2066666Y2546666D02*
X-2066666Y3246666D01*
D10*
X-2300000Y3246666D02*
X-1833333Y3246666D01*
D10*
X-2466666Y2980000D02*
X-2500000Y3013333D01*
D10*
X-2500000Y2946666D02*
X-2466666Y2980000D01*
D10*
X-2533333Y2980000D02*
X-2500000Y2946666D01*
D10*
X-2500000Y3013333D02*
X-2533333Y2980000D01*
D10*
X-2466666Y2580000D02*
X-2500000Y2613333D01*
D10*
X-2500000Y2546666D02*
X-2466666Y2580000D01*
D10*
X-2533333Y2580000D02*
X-2500000Y2546666D01*
D10*
X-2500000Y2613333D02*
X-2533333Y2580000D01*
D10*
X-3066666Y2546666D02*
X-3066666Y3246666D01*
D10*
X-3366666Y3246666D02*
X-3066666Y3246666D01*
D10*
X-3466666Y3213333D02*
X-3366666Y3246666D01*
D10*
X-3500000Y3180000D02*
X-3466666Y3213333D01*
D10*
X-3533333Y3113333D02*
X-3500000Y3180000D01*
D10*
X-3533333Y3013333D02*
X-3533333Y3113333D01*
D10*
X-3500000Y2946666D02*
X-3533333Y3013333D01*
D10*
X-3466666Y2913333D02*
X-3500000Y2946666D01*
D10*
X-3366666Y2880000D02*
X-3466666Y2913333D01*
D10*
X-3066666Y2880000D02*
X-3366666Y2880000D01*
D10*
X-3766666Y2546666D02*
X-3766666Y3246666D01*
D10*
X-4200000Y3246666D02*
X-3766666Y3246666D01*
D10*
X-4033333Y2913333D02*
X-3766666Y2913333D01*
D10*
X-4433333Y3213333D02*
X-4533333Y3246666D01*
D10*
X-4366666Y3113333D02*
X-4433333Y3213333D01*
D10*
X-4333333Y2946666D02*
X-4366666Y3113333D01*
D10*
X-4333333Y2846666D02*
X-4333333Y2946666D01*
D10*
X-4366666Y2680000D02*
X-4333333Y2846666D01*
D10*
X-4433333Y2580000D02*
X-4366666Y2680000D01*
D10*
X-4533333Y2546666D02*
X-4433333Y2580000D01*
D10*
X-4600000Y2546666D02*
X-4533333Y2546666D01*
D10*
X-4700000Y2580000D02*
X-4600000Y2546666D01*
D10*
X-4766666Y2680000D02*
X-4700000Y2580000D01*
D10*
X-4800000Y2846666D02*
X-4766666Y2680000D01*
D10*
X-4800000Y2946666D02*
X-4800000Y2846666D01*
D10*
X-4766666Y3113333D02*
X-4800000Y2946666D01*
D10*
X-4700000Y3213333D02*
X-4766666Y3113333D01*
D10*
X-4600000Y3246666D02*
X-4700000Y3213333D01*
D10*
X-4533333Y3246666D02*
X-4600000Y3246666D01*
D10*
X-5633333Y2846666D02*
X-5033333Y2846666D01*
D10*
X-5900000Y2546666D02*
X-5900000Y3246666D01*
D10*
X-6200000Y3246666D02*
X-5900000Y3246666D01*
D10*
X-6300000Y3213333D02*
X-6200000Y3246666D01*
D10*
X-6333333Y3180000D02*
X-6300000Y3213333D01*
D10*
X-6366666Y3113333D02*
X-6333333Y3180000D01*
D10*
X-6366666Y3013333D02*
X-6366666Y3113333D01*
D10*
X-6333333Y2946666D02*
X-6366666Y3013333D01*
D10*
X-6300000Y2913333D02*
X-6333333Y2946666D01*
D10*
X-6200000Y2880000D02*
X-6300000Y2913333D01*
D10*
X-5900000Y2880000D02*
X-6200000Y2880000D01*
D10*
X-6600000Y2546666D02*
X-6600000Y3246666D01*
D10*
X-7033333Y3246666D02*
X-6600000Y3246666D01*
D10*
X-6866666Y2913333D02*
X-6600000Y2913333D01*
D10*
X-7333333Y3146666D02*
X-7266666Y3113333D01*
D10*
X-7433333Y3246666D02*
X-7333333Y3146666D01*
D10*
X-7433333Y2546666D02*
X-7433333Y3246666D01*
D10*
X-7899999Y2546666D02*
X-7933333Y2580000D01*
D10*
X-7866666Y2580000D02*
X-7899999Y2546666D01*
D10*
X-7899999Y2613333D02*
X-7866666Y2580000D01*
D10*
X-7933333Y2580000D02*
X-7899999Y2613333D01*
D10*
X-7933333Y2513333D02*
X-7933333Y2580000D01*
D10*
X-7899999Y2446666D02*
X-7933333Y2513333D01*
D10*
X-7866666Y2413333D02*
X-7899999Y2446666D01*
D10*
X-8466666Y2546666D02*
X-8466666Y3246666D01*
D10*
X-8766666Y3246666D02*
X-8466666Y3246666D01*
D10*
X-8866666Y3213333D02*
X-8766666Y3246666D01*
D10*
X-8900000Y3180000D02*
X-8866666Y3213333D01*
D10*
X-8933333Y3113333D02*
X-8900000Y3180000D01*
D10*
X-8933333Y3013333D02*
X-8933333Y3113333D01*
D10*
X-8900000Y2946666D02*
X-8933333Y3013333D01*
D10*
X-8866666Y2913333D02*
X-8900000Y2946666D01*
D10*
X-8766666Y2880000D02*
X-8866666Y2913333D01*
D10*
X-8466666Y2880000D02*
X-8766666Y2880000D01*
D10*
X-9066666Y2546666D02*
X-9333333Y3246666D01*
D10*
X-9600000Y2546666D02*
X-9333333Y3246666D01*
D10*
X-9500000Y2780000D02*
X-9166666Y2780000D01*
D10*
X-10133333Y2913333D02*
X-10166666Y3013333D01*
D10*
X-10066666Y2846666D02*
X-10133333Y2913333D01*
D10*
X-9966666Y2813333D02*
X-10066666Y2846666D01*
D10*
X-9933333Y2813333D02*
X-9966666Y2813333D01*
D10*
X-9833333Y2846666D02*
X-9933333Y2813333D01*
D10*
X-9766666Y2913333D02*
X-9833333Y2846666D01*
D10*
X-9733333Y3013333D02*
X-9766666Y2913333D01*
D10*
X-9733333Y3046666D02*
X-9733333Y3013333D01*
D10*
X-9766666Y3146666D02*
X-9733333Y3046666D01*
D10*
X-9833333Y3213333D02*
X-9766666Y3146666D01*
D10*
X-9933333Y3246666D02*
X-9833333Y3213333D01*
D10*
X-9966666Y3246666D02*
X-9933333Y3246666D01*
D10*
X-10066666Y3213333D02*
X-9966666Y3246666D01*
D10*
X-10133333Y3146666D02*
X-10066666Y3213333D01*
D10*
X-10166666Y3013333D02*
X-10133333Y3146666D01*
D10*
X-10166666Y2846666D02*
X-10166666Y3013333D01*
D10*
X-10133333Y2680000D02*
X-10166666Y2846666D01*
D10*
X-10066666Y2580000D02*
X-10133333Y2680000D01*
D10*
X-9966666Y2546666D02*
X-10066666Y2580000D01*
D10*
X-9900000Y2546666D02*
X-9966666Y2546666D01*
D10*
X-9800000Y2580000D02*
X-9900000Y2546666D01*
D10*
X-9766666Y2646666D02*
X-9800000Y2580000D01*
D10*
X-11033333Y2846666D02*
X-10433333Y2846666D01*
D10*
X-11300000Y2546666D02*
X-11300000Y3246666D01*
D10*
X-11600000Y3246666D02*
X-11300000Y3246666D01*
D10*
X-11700000Y3213333D02*
X-11600000Y3246666D01*
D10*
X-11733333Y3180000D02*
X-11700000Y3213333D01*
D10*
X-11766666Y3113333D02*
X-11733333Y3180000D01*
D10*
X-11766666Y3013333D02*
X-11766666Y3113333D01*
D10*
X-11733333Y2946666D02*
X-11766666Y3013333D01*
D10*
X-11700000Y2913333D02*
X-11733333Y2946666D01*
D10*
X-11600000Y2880000D02*
X-11700000Y2913333D01*
D10*
X-11300000Y2880000D02*
X-11600000Y2880000D01*
D10*
X-11900000Y2546666D02*
X-12166666Y3246666D01*
D10*
X-12433333Y2546666D02*
X-12166666Y3246666D01*
D10*
X-12333333Y2780000D02*
X-12000000Y2780000D01*
D10*
X-12733333Y3146666D02*
X-12666666Y3113333D01*
D10*
X-12833333Y3246666D02*
X-12733333Y3146666D01*
D10*
X-12833333Y2546666D02*
X-12833333Y3246666D01*
D10*
X-13233333Y2780000D02*
X-13566666Y3246666D01*
D10*
X-13733333Y2780000D02*
X-13233333Y2780000D01*
D10*
X-13566666Y2546666D02*
X-13566666Y3246666D01*
D10*
X21602666Y7122333D02*
X21536000Y7155667D01*
D10*
X21669334Y7055667D02*
X21602666Y7122333D01*
D10*
X21702666Y6989000D02*
X21669334Y7055667D01*
D10*
X21702666Y6855667D02*
X21702666Y6989000D01*
D10*
X21669334Y6789000D02*
X21702666Y6855667D01*
D10*
X21602666Y6722333D02*
X21669334Y6789000D01*
D10*
X21536000Y6689000D02*
X21602666Y6722333D01*
D10*
X21436000Y6655667D02*
X21536000Y6689000D01*
D10*
X21269334Y6655667D02*
X21436000Y6655667D01*
D10*
X21169334Y6689000D02*
X21269334Y6655667D01*
D10*
X21102666Y6722333D02*
X21169334Y6689000D01*
D10*
X21036000Y6789000D02*
X21102666Y6722333D01*
D10*
X21002666Y6855667D02*
X21036000Y6789000D01*
D10*
X21002666Y6989000D02*
X21002666Y6855667D01*
D10*
X21036000Y7055667D02*
X21002666Y6989000D01*
D10*
X21102666Y7122333D02*
X21036000Y7055667D01*
D10*
X21169334Y7155667D02*
X21102666Y7122333D01*
D10*
X21269334Y7155667D02*
X21169334Y7155667D01*
D10*
X21269334Y7155667D02*
X21269334Y6989000D01*
D10*
X21002666Y7389000D02*
X21702666Y7389000D01*
D10*
X21002666Y7855666D02*
X21702666Y7389000D01*
D10*
X21002666Y7855666D02*
X21702666Y7855666D01*
D10*
X21002666Y8122333D02*
X21702666Y8122333D01*
D10*
X21702666Y8355666D02*
X21702666Y8122333D01*
D10*
X21669334Y8455667D02*
X21702666Y8355666D01*
D10*
X21602666Y8522333D02*
X21669334Y8455667D01*
D10*
X21536000Y8555667D02*
X21602666Y8522333D01*
D10*
X21436000Y8589000D02*
X21536000Y8555667D01*
D10*
X21269334Y8589000D02*
X21436000Y8589000D01*
D10*
X21169334Y8555667D02*
X21269334Y8589000D01*
D10*
X21102666Y8522333D02*
X21169334Y8555667D01*
D10*
X21036000Y8455667D02*
X21102666Y8522333D01*
D10*
X21002666Y8355666D02*
X21036000Y8455667D01*
D10*
X21002666Y8122333D02*
X21002666Y8355666D01*
D10*
X3265333Y1190666D02*
X2998666Y1890666D01*
D10*
X2732000Y1190666D02*
X2998666Y1890666D01*
D10*
X2832000Y1424000D02*
X3165333Y1424000D01*
D10*
X2198666Y1857333D02*
X2165333Y1790666D01*
D10*
X2298666Y1890666D02*
X2198666Y1857333D01*
D10*
X2365333Y1890666D02*
X2298666Y1890666D01*
D10*
X2465333Y1857333D02*
X2365333Y1890666D01*
D10*
X2532000Y1757333D02*
X2465333Y1857333D01*
D10*
X2565333Y1590666D02*
X2532000Y1757333D01*
D10*
X2565333Y1424000D02*
X2565333Y1590666D01*
D10*
X2532000Y1290666D02*
X2565333Y1424000D01*
D10*
X2465333Y1224000D02*
X2532000Y1290666D01*
D10*
X2365333Y1190666D02*
X2465333Y1224000D01*
D10*
X2332000Y1190666D02*
X2365333Y1190666D01*
D10*
X2232000Y1224000D02*
X2332000Y1190666D01*
D10*
X2165333Y1290666D02*
X2232000Y1224000D01*
D10*
X2132000Y1390666D02*
X2165333Y1290666D01*
D10*
X2132000Y1424000D02*
X2132000Y1390666D01*
D10*
X2165333Y1524000D02*
X2132000Y1424000D01*
D10*
X2232000Y1590666D02*
X2165333Y1524000D01*
D10*
X2332000Y1624000D02*
X2232000Y1590666D01*
D10*
X2365333Y1624000D02*
X2332000Y1624000D01*
D10*
X2465333Y1590666D02*
X2365333Y1624000D01*
D10*
X2532000Y1524000D02*
X2465333Y1590666D01*
D10*
X2565333Y1424000D02*
X2532000Y1524000D01*
D10*
X13584000Y1190666D02*
X13317333Y1890666D01*
D10*
X13050667Y1190666D02*
X13317333Y1890666D01*
D10*
X13150667Y1424000D02*
X13484000Y1424000D01*
D10*
X12750667Y1790666D02*
X12817333Y1757333D01*
D10*
X12650667Y1890666D02*
X12750667Y1790666D01*
D10*
X12650667Y1190666D02*
X12650667Y1890666D01*
D10*
X11817333Y1890666D02*
X12184000Y1890666D01*
D10*
X12017333Y1624000D02*
X11817333Y1890666D01*
D10*
X11917333Y1624000D02*
X12017333Y1624000D01*
D10*
X11850667Y1590666D02*
X11917333Y1624000D01*
D10*
X11817333Y1557333D02*
X11850667Y1590666D01*
D10*
X11784000Y1457333D02*
X11817333Y1557333D01*
D10*
X11784000Y1390666D02*
X11784000Y1457333D01*
D10*
X11817333Y1290666D02*
X11784000Y1390666D01*
D10*
X11884000Y1224000D02*
X11817333Y1290666D01*
D10*
X11984000Y1190666D02*
X11884000Y1224000D01*
D10*
X12084000Y1190666D02*
X11984000Y1190666D01*
D10*
X12184000Y1224000D02*
X12084000Y1190666D01*
D10*
X12217333Y1257333D02*
X12184000Y1224000D01*
D10*
X12250667Y1324000D02*
X12217333Y1257333D01*
D10*
X-21669334Y4322000D02*
X-20969334Y4055333D01*
D10*
X-21669334Y4322000D02*
X-20969334Y4588667D01*
D10*
X-21669334Y4755333D02*
X-20969334Y4755333D01*
D10*
X-20969334Y4988666D02*
X-20969334Y4755333D01*
D10*
X-21002666Y5088666D02*
X-20969334Y4988666D01*
D10*
X-21069334Y5155333D02*
X-21002666Y5088666D01*
D10*
X-21136000Y5188666D02*
X-21069334Y5155333D01*
D10*
X-21236000Y5222000D02*
X-21136000Y5188666D01*
D10*
X-21402666Y5222000D02*
X-21236000Y5222000D01*
D10*
X-21502666Y5188666D02*
X-21402666Y5222000D01*
D10*
X-21569334Y5155333D02*
X-21502666Y5188666D01*
D10*
X-21636000Y5088666D02*
X-21569334Y5155333D01*
D10*
X-21669334Y4988666D02*
X-21636000Y5088666D01*
D10*
X-21669334Y4755333D02*
X-21669334Y4988666D01*
D10*
X-21669334Y5455333D02*
X-20969334Y5455333D01*
D10*
X-20969334Y5688666D02*
X-20969334Y5455333D01*
D10*
X-21002666Y5788666D02*
X-20969334Y5688666D01*
D10*
X-21069334Y5855333D02*
X-21002666Y5788666D01*
D10*
X-21136000Y5888666D02*
X-21069334Y5855333D01*
D10*
X-21236000Y5922000D02*
X-21136000Y5888666D01*
D10*
X-21402666Y5922000D02*
X-21236000Y5922000D01*
D10*
X-21502666Y5888666D02*
X-21402666Y5922000D01*
D10*
X-21569334Y5855333D02*
X-21502666Y5888666D01*
D10*
X-21636000Y5788666D02*
X-21569334Y5855333D01*
D10*
X-21669334Y5688666D02*
X-21636000Y5788666D01*
D10*
X-21669334Y5455333D02*
X-21669334Y5688666D01*
D10*
X11044000Y1190666D02*
X10777333Y1890666D01*
D10*
X10510667Y1190666D02*
X10777333Y1890666D01*
D10*
X10610667Y1424000D02*
X10944000Y1424000D01*
D10*
X10210667Y1790666D02*
X10277333Y1757333D01*
D10*
X10110667Y1890666D02*
X10210667Y1790666D01*
D10*
X10110667Y1190666D02*
X10110667Y1890666D01*
D10*
X9610667Y1857333D02*
X9510667Y1890666D01*
D10*
X9677333Y1757333D02*
X9610667Y1857333D01*
D10*
X9710667Y1590666D02*
X9677333Y1757333D01*
D10*
X9710667Y1490666D02*
X9710667Y1590666D01*
D10*
X9677333Y1324000D02*
X9710667Y1490666D01*
D10*
X9610667Y1224000D02*
X9677333Y1324000D01*
D10*
X9510667Y1190666D02*
X9610667Y1224000D01*
D10*
X9444000Y1190666D02*
X9510667Y1190666D01*
D10*
X9344000Y1224000D02*
X9444000Y1190666D01*
D10*
X9277333Y1324000D02*
X9344000Y1224000D01*
D10*
X9244000Y1490666D02*
X9277333Y1324000D01*
D10*
X9244000Y1590666D02*
X9244000Y1490666D01*
D10*
X9277333Y1757333D02*
X9244000Y1590666D01*
D10*
X9344000Y1857333D02*
X9277333Y1757333D01*
D10*
X9444000Y1890666D02*
X9344000Y1857333D01*
D10*
X9510667Y1890666D02*
X9444000Y1890666D01*
D10*
X-17154666Y1190666D02*
X-17154666Y1890666D01*
D10*
X-17588000Y1890666D02*
X-17154666Y1890666D01*
D10*
X-17421334Y1557333D02*
X-17154666Y1557333D01*
D10*
X-17821334Y1857333D02*
X-17921334Y1890666D01*
D10*
X-17754666Y1757333D02*
X-17821334Y1857333D01*
D10*
X-17721334Y1590666D02*
X-17754666Y1757333D01*
D10*
X-17721334Y1490666D02*
X-17721334Y1590666D01*
D10*
X-17754666Y1324000D02*
X-17721334Y1490666D01*
D10*
X-17821334Y1224000D02*
X-17754666Y1324000D01*
D10*
X-17921334Y1190666D02*
X-17821334Y1224000D01*
D10*
X-17988000Y1190666D02*
X-17921334Y1190666D01*
D10*
X-18088000Y1224000D02*
X-17988000Y1190666D01*
D10*
X-18154666Y1324000D02*
X-18088000Y1224000D01*
D10*
X-18188000Y1490666D02*
X-18154666Y1324000D01*
D10*
X-18188000Y1590666D02*
X-18188000Y1490666D01*
D10*
X-18154666Y1757333D02*
X-18188000Y1590666D01*
D10*
X-18088000Y1857333D02*
X-18154666Y1757333D01*
D10*
X-17988000Y1890666D02*
X-18088000Y1857333D01*
D10*
X-17921334Y1890666D02*
X-17988000Y1890666D01*
D10*
X5805333Y1190666D02*
X5538666Y1890666D01*
D10*
X5272000Y1190666D02*
X5538666Y1890666D01*
D10*
X5372000Y1424000D02*
X5705333Y1424000D01*
D10*
X5005333Y1190666D02*
X4672000Y1890666D01*
D10*
X4672000Y1890666D02*
X5138666Y1890666D01*
D10*
X-21669334Y9675000D02*
X-20969334Y9408333D01*
D10*
X-21669334Y9675000D02*
X-20969334Y9941667D01*
D10*
X-21669334Y10108333D02*
X-20969334Y10108333D01*
D10*
X-21669334Y10375000D02*
X-20969334Y10375000D01*
D10*
X-21669334Y10841667D02*
X-20969334Y10375000D01*
D10*
X-21669334Y10841667D02*
X-20969334Y10841667D01*
D10*
X16566667Y6083333D02*
X16500000Y6116666D01*
D10*
X16633333Y6016666D02*
X16566667Y6083333D01*
D10*
X16666667Y5950000D02*
X16633333Y6016666D01*
D10*
X16700000Y5850000D02*
X16666667Y5950000D01*
D10*
X16700000Y5683333D02*
X16700000Y5850000D01*
D10*
X16666667Y5583333D02*
X16700000Y5683333D01*
D10*
X16633333Y5516666D02*
X16666667Y5583333D01*
D10*
X16566667Y5450000D02*
X16633333Y5516666D01*
D10*
X16500000Y5416666D02*
X16566667Y5450000D01*
D10*
X16366667Y5416666D02*
X16500000Y5416666D01*
D10*
X16300000Y5450000D02*
X16366667Y5416666D01*
D10*
X16233333Y5516666D02*
X16300000Y5450000D01*
D10*
X16200000Y5583333D02*
X16233333Y5516666D01*
D10*
X16166667Y5683333D02*
X16200000Y5583333D01*
D10*
X16166667Y5850000D02*
X16166667Y5683333D01*
D10*
X16200000Y5950000D02*
X16166667Y5850000D01*
D10*
X16233333Y6016666D02*
X16200000Y5950000D01*
D10*
X16300000Y6083333D02*
X16233333Y6016666D01*
D10*
X16366667Y6116666D02*
X16300000Y6083333D01*
D10*
X16500000Y6116666D02*
X16366667Y6116666D01*
D10*
X16200000Y5350000D02*
X16400000Y5550000D01*
D10*
X15800000Y6016666D02*
X15866667Y5983333D01*
D10*
X15700000Y6116666D02*
X15800000Y6016666D01*
D10*
X15700000Y5416666D02*
X15700000Y6116666D01*
D10*
X-14614667Y1190666D02*
X-14614667Y1890666D01*
D10*
X-15048000Y1890666D02*
X-14614667Y1890666D01*
D10*
X-14881333Y1557333D02*
X-14614667Y1557333D01*
D10*
X-15348000Y1790666D02*
X-15281333Y1757333D01*
D10*
X-15448000Y1890666D02*
X-15348000Y1790666D01*
D10*
X-15448000Y1190666D02*
X-15448000Y1890666D01*
D10*
X15775000Y5050000D02*
X15775000Y3450000D01*
D10*
X19225000Y5050000D02*
X19225000Y2620000D01*
D10*
X-174996Y6675000D02*
X-175000Y13724998D01*
D10*
X-175000Y19075000D02*
X8983897Y19075000D01*
D10*
X13225004Y4724998D02*
X10325004Y4724998D01*
D10*
X-175000Y16474998D02*
X-175000Y19075000D01*
D10*
X15075000Y19775000D02*
X15075000Y16474998D01*
D10*
X8983897Y19075000D02*
X11603897Y19775000D01*
D10*
X11603897Y19775000D02*
X15075000Y19775000D01*
D10*
X15075004Y6474998D02*
X15075000Y13724998D01*
D10*
X-18768220Y8594262D02*
X-18923925Y8684165D01*
D10*
X-21844000Y1016000D02*
X-21463000Y1143000D01*
D10*
X-17262932Y7605311D02*
X-17107226Y7515406D01*
D10*
X-19391085Y8414450D02*
X-19131561Y8564299D01*
D10*
X-19131561Y8564299D02*
X-18975835Y8474394D01*
D10*
X-18923925Y8684165D02*
X-18664403Y8834014D01*
D10*
X-17107226Y7095866D02*
X-17314839Y7215734D01*
D10*
X-20325403Y7875023D02*
X-20065881Y8024874D01*
D10*
X-16899591Y7635292D02*
X-17107226Y7515406D01*
D10*
X-17730090Y7335597D02*
X-17574385Y7245713D01*
D10*
X-17781998Y6706286D02*
X-18041518Y6556435D01*
D10*
X-21844000Y1016000D02*
X-21717000Y1397000D01*
D10*
X-20117766Y7755158D02*
X-20325403Y7875023D01*
D10*
X-16795773Y7875023D02*
X-16640068Y7785119D01*
D10*
X-18041518Y6556435D02*
X-18249153Y6676303D01*
D10*
X-16847683Y7245713D02*
X-17107226Y7095866D01*
D10*
X-20117766Y7815100D02*
X-18041518Y9013823D01*
D10*
X-17989631Y6826150D02*
X-17781998Y6706286D01*
D10*
X-19494903Y7815100D02*
X-18664403Y7335597D01*
D10*
X-18041518Y9013823D02*
X-16588158Y8174720D01*
D10*
X-17211022Y8174720D02*
X-18041518Y8654205D01*
D10*
X-18664403Y8834014D02*
X-18508675Y8744109D01*
D10*
X21844000Y1016000D02*
X21463000Y1143000D01*
D10*
X-17574385Y6826150D02*
X-17781998Y6946017D01*
D10*
X-18041518Y6975999D02*
X-17833908Y7095866D01*
D10*
X-16588158Y8174720D02*
X-16588158Y7815100D01*
D10*
X-18664403Y6975999D02*
X-20117766Y7815100D01*
D10*
X-18664403Y6616378D02*
X-20117766Y7455482D01*
D10*
X-17107226Y7515406D02*
X-17055318Y7365579D01*
D10*
X-16588158Y7635292D02*
X-16380523Y7515406D01*
D10*
X-17833908Y7095866D02*
X-17989631Y7185770D01*
D10*
X-18041518Y8654205D02*
X-19494903Y7815100D01*
D10*
X-17522476Y7455482D02*
X-17262932Y7605311D01*
D10*
X-16588158Y8174720D02*
X-18664403Y6975999D01*
D10*
X-17989631Y7185770D02*
X-17730090Y7335597D01*
D10*
X-17055318Y7365579D02*
X-16847683Y7245713D01*
D10*
X-16847683Y7485443D02*
X-16899591Y7635292D01*
D10*
X-19702517Y8054833D02*
X-19858243Y8144738D01*
D10*
X21844000Y1016000D02*
X21717000Y1397000D01*
D10*
X-17314839Y6975999D02*
X-17574385Y6826150D01*
D10*
X-17107226Y7515406D02*
X-17107226Y7515406D01*
D10*
X-16380523Y7515406D02*
X-16640068Y7365579D01*
D10*
X-19598721Y8294587D02*
X-19442993Y8204680D01*
D10*
X-16640068Y7365579D02*
X-16847683Y7485443D01*
D10*
X-18197246Y7065904D02*
X-18041518Y6975999D01*
D10*
X-16640068Y7785119D02*
X-16588158Y7635292D01*
D10*
X-17522476Y7095866D02*
X-17314839Y6975999D01*
D10*
X-20065881Y8024874D02*
X-19910153Y7934967D01*
D10*
X-18664403Y7335597D02*
X-17211022Y8174720D01*
D10*
X-17574385Y7245713D02*
X-17522476Y7095866D01*
D10*
X-18301062Y6826150D02*
X-18456767Y6916054D01*
D10*
X21844000Y1016000D02*
X20701000Y2159000D01*
D10*
X-18301062Y6826150D02*
X-18664403Y6616378D01*
D10*
X-20117766Y7455482D02*
X-20117766Y7815100D01*
D10*
X-17522476Y7994910D02*
X-18041518Y8294587D01*
D10*
X-21844000Y1016000D02*
X-20701000Y2159000D01*
D10*
X-18249153Y6676303D02*
X-18301062Y6826150D01*
D10*
X-17055318Y7725198D02*
X-16795773Y7875023D01*
D10*
X-18456767Y6916054D02*
X-18197246Y7065904D01*
D10*
X-16899591Y7635292D02*
X-17055318Y7725198D01*
D10*
X-18041518Y8294587D02*
X-19183471Y7635292D01*
D10*
X-19858243Y8144738D02*
X-19598721Y8294587D01*
D10*
X-18041518Y8294587D02*
X-18041518Y8654205D01*
D10*
X-17781998Y6946017D02*
X-17833908Y7095866D01*
D10*
X-18664403Y6975999D02*
X-18664403Y6616378D01*
D10*
X-17366749Y7365579D02*
X-17522476Y7455482D01*
D10*
X-17314839Y7215734D02*
X-17366749Y7365579D01*
D10*
X-19235380Y8324548D02*
X-19391085Y8414450D01*
D10*
X-18041518Y6975999D02*
X-17989631Y6826150D01*
D10*
X-17366749Y7365579D02*
X-17574385Y7245713D01*
D10*
X-16588158Y7815100D02*
X-16640068Y7785119D01*
G75*
M02*
