%FSLAX46Y46*%
%MOMM*%
%AMPS21*
21,1,0.600000,0.900000,0.000000,0.000000,0.000000*
%
%ADD21PS21*%
%AMPS19*
21,1,0.600000,0.900000,0.000000,0.000000,90.000000*
%
%ADD19PS19*%
%AMPS11*
21,1,2.150000,3.250000,0.000000,0.000000,180.000000*
%
%ADD11PS11*%
%AMPS15*
21,1,0.800000,0.800000,0.000000,0.000000,180.000000*
%
%ADD15PS15*%
%AMPS12*
21,1,2.150000,0.950000,0.000000,0.000000,180.000000*
%
%ADD12PS12*%
%AMPS26*
21,1,0.400000,1.350000,0.000000,0.000000,90.000000*
%
%ADD26PS26*%
%AMPS25*
21,1,0.400000,1.350000,0.000000,0.000000,270.000000*
%
%ADD25PS25*%
%AMPS23*
21,1,1.250000,1.000000,0.000000,0.000000,0.000000*
%
%ADD23PS23*%
%AMPS24*
21,1,1.250000,1.000000,0.000000,0.000000,180.000000*
%
%ADD24PS24*%
%AMPS16*
21,1,0.800000,0.750000,0.000000,0.000000,0.000000*
%
%ADD16PS16*%
%AMPS13*
21,1,0.800000,0.750000,0.000000,0.000000,180.000000*
%
%ADD13PS13*%
%AMPS18*
21,1,0.700000,1.000000,0.000000,0.000000,180.000000*
%
%ADD18PS18*%
%AMPS14*
21,1,0.700000,1.300000,0.000000,0.000000,0.000000*
%
%ADD14PS14*%
%AMPS10*
21,1,0.500000,0.900000,0.000000,0.000000,0.000000*
%
%ADD10PS10*%
%AMPS17*
21,1,0.500000,0.900000,0.000000,0.000000,180.000000*
%
%ADD17PS17*%
%AMPS22*
21,1,0.600000,0.900000,0.000000,0.000000,180.000000*
%
%ADD22PS22*%
%AMPS20*
21,1,0.600000,0.900000,0.000000,0.000000,270.000000*
%
%ADD20PS20*%
G01*
G01*
%LPD*%
G75*
D10*
X12500000Y5750000D03*
D10*
X14000000Y5750000D03*
D11*
X-19202909Y10054185D03*
D12*
X-13402909Y7754185D03*
D12*
X-13402909Y12354185D03*
D12*
X-13402909Y10054185D03*
D13*
X1500000Y6250000D03*
D13*
X3000000Y6250000D03*
D10*
X12500000Y8750000D03*
D10*
X14000000Y8750000D03*
D10*
X12500000Y7250000D03*
D10*
X14000000Y7250000D03*
D13*
X-20000000Y5250000D03*
D13*
X-18500000Y5250000D03*
D13*
X-9500000Y6750000D03*
D13*
X-8000000Y6750000D03*
D14*
X-17252909Y3500000D03*
D14*
X-15352909Y3500000D03*
D15*
X16800000Y11750000D03*
D15*
X15200000Y11750000D03*
D15*
X16800000Y7250000D03*
D15*
X15200000Y7250000D03*
D16*
X-13302909Y14554185D03*
D16*
X-14802909Y14554185D03*
D17*
X-5500000Y15000000D03*
D17*
X-7000000Y15000000D03*
D18*
X-16302909Y12504185D03*
D18*
X-17252909Y10104185D03*
D18*
X-15352909Y10104185D03*
D15*
X16800000Y3750000D03*
D15*
X15200000Y3750000D03*
D15*
X16800000Y8750000D03*
D15*
X15200000Y8750000D03*
D19*
X7250000Y13050000D03*
D20*
X7250000Y14450000D03*
D10*
X12500000Y11750000D03*
D10*
X14000000Y11750000D03*
D15*
X16800000Y5750000D03*
D15*
X15200000Y5750000D03*
D15*
X16800000Y10250000D03*
D15*
X15200000Y10250000D03*
D21*
X6550000Y11000000D03*
D22*
X7950000Y11000000D03*
D23*
X16625000Y15750000D03*
D23*
X8875000Y15750000D03*
D21*
X3050000Y11000000D03*
D22*
X4450000Y11000000D03*
D24*
X-625000Y15750000D03*
D24*
X7125000Y15750000D03*
D25*
X-6125000Y8125000D03*
D25*
X-6125000Y7475000D03*
D26*
X-375000Y8775000D03*
D26*
X-375000Y6175000D03*
D26*
X-375000Y5525000D03*
D25*
X-6125000Y4225000D03*
D25*
X-6125000Y9425000D03*
D26*
X-375000Y9425000D03*
D25*
X-6125000Y4875000D03*
D25*
X-6125000Y3575000D03*
D25*
X-6125000Y5525000D03*
D26*
X-375000Y8125000D03*
D25*
X-6125000Y6175000D03*
D26*
X-375000Y4225000D03*
D26*
X-375000Y7475000D03*
D26*
X-375000Y3575000D03*
D25*
X-6125000Y6825000D03*
D26*
X-375000Y4875000D03*
D26*
X-375000Y6825000D03*
D25*
X-6125000Y8775000D03*
D10*
X12500000Y10250000D03*
D10*
X14000000Y10250000D03*
D10*
X12500000Y3750000D03*
D10*
X14000000Y3750000D03*
D21*
X-17002909Y5250000D03*
D22*
X-15602909Y5250000D03*
D19*
X8750000Y13050000D03*
D20*
X8750000Y14450000D03*
M02*
