%FSLAX46Y46*%
%MOMM*%
%ADD15C,0.200000*%
%ADD16C,0.600000*%
%AMPS13*
4,1,6,
0.606235,0.000000,
0.303117,0.525000,
-0.303117,0.525000,
-0.606235,0.000000,
-0.303117,-0.525000,
0.303117,-0.525000,
0.606235,0.000000,
0
*
%
%ADD13PS13*%
%AMPS10*
4,1,10,
0.606235,0.000000,
0.303117,0.525000,
-0.303117,0.525000,
-0.450252,0.270000,
-1.884155,0.270000,
-1.733765,0.000000,
-1.884155,-0.270000,
-0.450252,-0.270000,
-0.303117,-0.525000,
0.303117,-0.525000,
0.606235,0.000000,
0
*
%
%ADD10PS10*%
%AMPS14*
4,1,6,
0.606235,0.000000,
0.303117,0.525000,
-0.303117,0.525000,
-0.606235,0.000000,
-0.303117,-0.525000,
0.303117,-0.525000,
0.606235,0.000000,
0
*
%
%ADD14PS14*%
%AMPS24*
21,1,0.700000,1.600000,0.000000,0.000000,180.000000*
%
%ADD24PS24*%
%AMPS20*
21,1,0.800000,0.750000,0.000000,0.000000,180.000000*
%
%ADD20PS20*%
%AMPS17*
21,1,0.500000,0.900000,0.000000,0.000000,360.000000*
%
%ADD17PS17*%
%AMPS25*
21,1,1.200000,2.200000,0.000000,0.000000,180.000000*
%
%ADD25PS25*%
%AMPS27*
21,1,1.600000,1.400000,0.000000,0.000000,180.000000*
%
%ADD27PS27*%
%AMPS26*
21,1,1.200000,1.600000,0.000000,0.000000,180.000000*
%
%ADD26PS26*%
%AMPS18*
21,1,0.700000,1.000000,0.000000,0.000000,180.000000*
%
%ADD18PS18*%
%AMPS28*
1,1,0.700000,0.000000,0.000000*
%
%ADD28PS28*%
%AMPS30*
1,1,0.600000,0.000000,0.000000*
%
%ADD30PS30*%
%AMPS22*
4,1,5,
0.300000,0.000000,
0.750000,-0.450000,
-0.300000,-0.450000,
-0.300000,0.450000,
0.750000,0.450000,
0.300000,0.000000,
0
*
%
%ADD22PS22*%
%AMPS11*
4,1,12,
1.170000,-0.350000,
1.170000,0.350000,
0.721543,0.350000,
0.461893,0.800000,
-0.461893,0.800000,
-0.721543,0.350000,
-1.170000,0.350000,
-1.170000,-0.350000,
-0.721543,-0.350000,
-0.461893,-0.800000,
0.461893,-0.800000,
0.721543,-0.350000,
1.170000,-0.350000,
0
*
%
%ADD11PS11*%
%AMPS29*
1,1,0.600000,0.000000,0.000000*
%
%ADD29PS29*%
%AMPS31*
1,1,0.600000,0.000000,0.000000*
%
%ADD31PS31*%
%AMPS12*
4,1,10,
0.606235,0.000000,
0.303117,0.525000,
-0.303117,0.525000,
-0.450252,0.270000,
-1.884155,0.270000,
-1.733765,0.000000,
-1.884155,-0.270000,
-0.450252,-0.270000,
-0.303117,-0.525000,
0.303117,-0.525000,
0.606235,0.000000,
0
*
%
%ADD12PS12*%
%AMPS21*
4,1,5,
-0.750000,0.000000,
-0.300000,0.450000,
0.300000,0.450000,
0.300000,-0.450000,
-0.300000,-0.450000,
-0.750000,0.000000,
0
*
%
%ADD21PS21*%
%AMPS19*
4,1,6,
0.981524,0.000000,
0.490762,0.850000,
-0.490762,0.850000,
-0.981524,0.000000,
-0.490762,-0.850000,
0.490762,-0.850000,
0.981524,0.000000,
0
*
%
%ADD19PS19*%
%AMPS23*
4,1,6,
-0.981524,0.000000,
-0.490762,-0.850000,
0.490762,-0.850000,
0.981524,0.000000,
0.490762,0.850000,
-0.490762,0.850000,
-0.981524,0.000000,
0
*
%
%ADD23PS23*%
G01*
%LPD*%
G36*
X-19307837Y-1400000D02*
X-19284816Y-1396584D01*
X-19250000Y-1394874D01*
X-19215184Y-1396584D01*
X-19192163Y-1400000D01*
X-18557837Y-1400000D01*
X-18534816Y-1396584D01*
X-18500000Y-1394874D01*
X-18465184Y-1396584D01*
X-18442163Y-1400000D01*
X-17807837Y-1400000D01*
X-17784816Y-1396584D01*
X-17750000Y-1394874D01*
X-17715184Y-1396584D01*
X-17692163Y-1400000D01*
X-17057837Y-1400000D01*
X-17034816Y-1396584D01*
X-17000000Y-1394874D01*
X-16965184Y-1396584D01*
X-16942163Y-1400000D01*
X-16307837Y-1400000D01*
X-16284816Y-1396584D01*
X-16250000Y-1394874D01*
X-16215184Y-1396584D01*
X-16192163Y-1400000D01*
X-15557837Y-1400000D01*
X-15534816Y-1396584D01*
X-15500000Y-1394874D01*
X-15465184Y-1396584D01*
X-15442163Y-1400000D01*
X-14807837Y-1400000D01*
X-14784816Y-1396584D01*
X-14750000Y-1394874D01*
X-14715184Y-1396584D01*
X-14692163Y-1400000D01*
X-14057837Y-1400000D01*
X-14034816Y-1396584D01*
X-14000000Y-1394874D01*
X-13965184Y-1396584D01*
X-13942163Y-1400000D01*
X-13307837Y-1400000D01*
X-13284816Y-1396584D01*
X-13250000Y-1394874D01*
X-13215184Y-1396584D01*
X-13192163Y-1400000D01*
X-12557837Y-1400000D01*
X-12534816Y-1396584D01*
X-12500000Y-1394874D01*
X-12465184Y-1396584D01*
X-12442163Y-1400000D01*
X-11807837Y-1400000D01*
X-11784816Y-1396584D01*
X-11750000Y-1394874D01*
X-11715184Y-1396584D01*
X-11692163Y-1400000D01*
X-11057837Y-1400000D01*
X-11034816Y-1396584D01*
X-11000000Y-1394874D01*
X-10965184Y-1396584D01*
X-10942163Y-1400000D01*
X-10307837Y-1400000D01*
X-10284816Y-1396584D01*
X-10250000Y-1394874D01*
X-10215184Y-1396584D01*
X-10192163Y-1400000D01*
X-9557837Y-1400000D01*
X-9534816Y-1396584D01*
X-9500000Y-1394874D01*
X-9465184Y-1396584D01*
X-9442163Y-1400000D01*
X-8807837Y-1400000D01*
X-8784816Y-1396584D01*
X-8750000Y-1394874D01*
X-8715184Y-1396584D01*
X-8692163Y-1400000D01*
X-8057837Y-1400000D01*
X-8034816Y-1396584D01*
X-8000000Y-1394874D01*
X-7965184Y-1396584D01*
X-7942163Y-1400000D01*
X-7307837Y-1400000D01*
X-7284816Y-1396584D01*
X-7250000Y-1394874D01*
X-7215184Y-1396584D01*
X-7192163Y-1400000D01*
X-6557837Y-1400000D01*
X-6534816Y-1396584D01*
X-6500000Y-1394874D01*
X-6465184Y-1396584D01*
X-6442163Y-1400000D01*
X-5807837Y-1400000D01*
X-5784816Y-1396584D01*
X-5750000Y-1394874D01*
X-5715184Y-1396584D01*
X-5692163Y-1400000D01*
X5692163Y-1400000D01*
X5715184Y-1396584D01*
X5750000Y-1394874D01*
X5784816Y-1396584D01*
X5807837Y-1400000D01*
X6442163Y-1400000D01*
X6465184Y-1396584D01*
X6500000Y-1394874D01*
X6534816Y-1396584D01*
X6557837Y-1400000D01*
X7192163Y-1400000D01*
X7215184Y-1396584D01*
X7250000Y-1394874D01*
X7284816Y-1396584D01*
X7307837Y-1400000D01*
X7942163Y-1400000D01*
X7965184Y-1396584D01*
X8000000Y-1394874D01*
X8034816Y-1396584D01*
X8057837Y-1400000D01*
X8692163Y-1400000D01*
X8715184Y-1396584D01*
X8750000Y-1394874D01*
X8784816Y-1396584D01*
X8807837Y-1400000D01*
X9442163Y-1400000D01*
X9465184Y-1396584D01*
X9500000Y-1394874D01*
X9534816Y-1396584D01*
X9557837Y-1400000D01*
X10192163Y-1400000D01*
X10215184Y-1396584D01*
X10250000Y-1394874D01*
X10284816Y-1396584D01*
X10307837Y-1400000D01*
X10942163Y-1400000D01*
X10965184Y-1396584D01*
X11000000Y-1394874D01*
X11034816Y-1396584D01*
X11057837Y-1400000D01*
X11692163Y-1400000D01*
X11715184Y-1396584D01*
X11750000Y-1394874D01*
X11784816Y-1396584D01*
X11807837Y-1400000D01*
X12442163Y-1400000D01*
X12465184Y-1396584D01*
X12500000Y-1394874D01*
X12534816Y-1396584D01*
X12557837Y-1400000D01*
X13192163Y-1400000D01*
X13215184Y-1396584D01*
X13250000Y-1394874D01*
X13284816Y-1396584D01*
X13307837Y-1400000D01*
X13942163Y-1400000D01*
X13965184Y-1396584D01*
X14000000Y-1394874D01*
X14034816Y-1396584D01*
X14057837Y-1400000D01*
X14692163Y-1400000D01*
X14715184Y-1396584D01*
X14750000Y-1394874D01*
X14784816Y-1396584D01*
X14807837Y-1400000D01*
X15442163Y-1400000D01*
X15465184Y-1396584D01*
X15500000Y-1394874D01*
X15534816Y-1396584D01*
X15557837Y-1400000D01*
X16192163Y-1400000D01*
X16215184Y-1396584D01*
X16250000Y-1394874D01*
X16284816Y-1396584D01*
X16307837Y-1400000D01*
X16942163Y-1400000D01*
X16965184Y-1396584D01*
X17000000Y-1394874D01*
X17034816Y-1396584D01*
X17057837Y-1400000D01*
X17692163Y-1400000D01*
X17715184Y-1396584D01*
X17750000Y-1394874D01*
X17784816Y-1396584D01*
X17807837Y-1400000D01*
X18442163Y-1400000D01*
X18465184Y-1396584D01*
X18500000Y-1394874D01*
X18534816Y-1396584D01*
X18557837Y-1400000D01*
X19192163Y-1400000D01*
X19215184Y-1396584D01*
X19250000Y-1394874D01*
X19284816Y-1396584D01*
X19307837Y-1400000D01*
X24590000Y-1400000D01*
X24590000Y13571038D01*
X24441765Y13610759D01*
X24199295Y13190800D01*
X19800712Y13190800D01*
X17601405Y17000000D01*
X19039048Y19489999D01*
X18981313Y19590000D01*
X-18981306Y19590000D01*
X-19039041Y19489999D01*
X-17601398Y17000000D01*
X-19800705Y13190800D01*
X-24199288Y13190800D01*
X-24441765Y13610771D01*
X-24590000Y13571050D01*
X-24590000Y-1400000D01*
X-19307837Y-1400000D01*
D02*
G37*
%LPC*%
G36*
X-15399998Y7144008D02*
X-15415092Y7145494D01*
X-15449516Y7147186D01*
X-15483604Y7152242D01*
X-15498711Y7153730D01*
X-15513237Y7158136D01*
X-15546665Y7166508D01*
X-15579124Y7178123D01*
X-15593636Y7182525D01*
X-15607010Y7189674D01*
X-15638164Y7204408D01*
X-15667732Y7222131D01*
X-15681116Y7229284D01*
X-15692843Y7238909D01*
X-15720519Y7259434D01*
X-15746073Y7282595D01*
X-15757791Y7292211D01*
X-15767406Y7303926D01*
X-15790562Y7329477D01*
X-15811095Y7357162D01*
X-15820716Y7368885D01*
X-15827860Y7382252D01*
X-15845588Y7411827D01*
X-15860332Y7443003D01*
X-15867475Y7456365D01*
X-15871872Y7470860D01*
X-15883490Y7503330D01*
X-15891868Y7536777D01*
X-15896268Y7551282D01*
X-15897755Y7566378D01*
X-15902814Y7600477D01*
X-15904507Y7634925D01*
X-15905991Y7649999D01*
X-15904507Y7665072D01*
X-15902814Y7699516D01*
X-15897755Y7733624D01*
X-15896269Y7748712D01*
X-15891869Y7763218D01*
X-15883490Y7796670D01*
X-15871870Y7829145D01*
X-15867474Y7843635D01*
X-15860337Y7856988D01*
X-15845590Y7888170D01*
X-15827856Y7917756D01*
X-15820718Y7931109D01*
X-15811104Y7942824D01*
X-15790565Y7970520D01*
X-15767412Y7996067D01*
X-15764212Y7999965D01*
X-15760646Y8003532D01*
X-15757265Y8007263D01*
X-15753533Y8010645D01*
X-14005000Y9759179D01*
X-14005000Y14510075D01*
X-13996269Y14598713D01*
X-13967474Y14693636D01*
X-13920716Y14781113D01*
X-13864215Y14849962D01*
X-11918624Y16795554D01*
X-11911504Y16802675D01*
X-11842647Y16859182D01*
X-11755170Y16905940D01*
X-11660247Y16934735D01*
X-11571609Y16943466D01*
X-10911025Y16943466D01*
X-10853290Y17043467D01*
X-11388239Y17970000D01*
X-10779117Y19025000D01*
X-9560883Y19025000D01*
X-8951761Y17970000D01*
X-9486710Y17043467D01*
X-9428975Y16943466D01*
X-8371025Y16943466D01*
X-8313290Y17043467D01*
X-8848239Y17970000D01*
X-8239117Y19025000D01*
X-7020883Y19025000D01*
X-6411761Y17970000D01*
X-6905827Y17114278D01*
X-6766676Y17007502D01*
X-6123736Y17650441D01*
X-6308239Y17970000D01*
X-5699117Y19025000D01*
X-4480883Y19025000D01*
X-3871761Y17970000D01*
X-4365827Y17114277D01*
X-4226676Y17007501D01*
X-3583736Y17650441D01*
X-3768239Y17970000D01*
X-3159117Y19025000D01*
X-1940883Y19025000D01*
X-1331761Y17970000D01*
X-1940883Y16915000D01*
X-2890822Y16915000D01*
X-4656338Y15149483D01*
X-4662812Y15141714D01*
X-4738883Y15079284D01*
X-4826363Y15032525D01*
X-4921284Y15003731D01*
X-5009933Y14995000D01*
X-11244966Y14995000D01*
X-11250000Y14994752D01*
X-11255034Y14995000D01*
X-11260068Y14995000D01*
X-11265087Y14995494D01*
X-11299517Y14997186D01*
X-11333605Y15002242D01*
X-11348711Y15003730D01*
X-11363237Y15008136D01*
X-11396665Y15016508D01*
X-11429124Y15028123D01*
X-11443637Y15032525D01*
X-11457011Y15039674D01*
X-11488164Y15054408D01*
X-11517733Y15072131D01*
X-11531113Y15079283D01*
X-11542840Y15088907D01*
X-11570519Y15109434D01*
X-11596065Y15132587D01*
X-11607793Y15142212D01*
X-11617411Y15153932D01*
X-11640562Y15179478D01*
X-11661098Y15207166D01*
X-11670716Y15218885D01*
X-11677861Y15232252D01*
X-11695590Y15261830D01*
X-11710333Y15293003D01*
X-11717475Y15306364D01*
X-11721872Y15320860D01*
X-11785930Y15499891D01*
X-12995000Y14290821D01*
X-12995000Y9539935D01*
X-13003731Y9451284D01*
X-13032525Y9356363D01*
X-13079284Y9268884D01*
X-13141715Y9192811D01*
X-13149484Y9186337D01*
X-15039349Y7296474D01*
X-15042736Y7292736D01*
X-15046474Y7289349D01*
X-15050034Y7285789D01*
X-15053923Y7282598D01*
X-15079477Y7259438D01*
X-15107162Y7238905D01*
X-15118888Y7229282D01*
X-15132257Y7222136D01*
X-15161826Y7204413D01*
X-15192983Y7189677D01*
X-15206364Y7182525D01*
X-15220883Y7178120D01*
X-15253330Y7166510D01*
X-15286757Y7158137D01*
X-15301282Y7153731D01*
X-15316398Y7152242D01*
X-15350477Y7147186D01*
X-15384904Y7145494D01*
X-15399998Y7144008D01*
D02*
G37*
%LPC*%
G36*
X-12100883Y16915000D02*
X-13319117Y16915000D01*
X-13928238Y17970000D01*
X-13319117Y19025000D01*
X-12100883Y19025000D01*
X-11491761Y17970000D01*
X-12100883Y16915000D01*
D02*
G37*
%LPC*%
G36*
X-15350000Y18070000D02*
X-16404729Y18070000D01*
X-15856231Y19020000D01*
X-15350000Y19020000D01*
X-15350000Y18070000D01*
D02*
G37*
%LPC*%
G36*
X-14095271Y18070000D02*
X-15150000Y18070000D01*
X-15150000Y19020000D01*
X-14643769Y19020000D01*
X-14095271Y18070000D01*
D02*
G37*
%LPC*%
G36*
X-14095271Y17870000D02*
X-14643769Y16920000D01*
X-15150000Y16920000D01*
X-15150000Y17870000D01*
X-14095271Y17870000D01*
D02*
G37*
%LPC*%
G36*
X-15350000Y16920000D02*
X-15856231Y16920000D01*
X-16404729Y17870000D01*
X-15350000Y17870000D01*
X-15350000Y16920000D01*
D02*
G37*
%LPC*%
G36*
X-400000Y15199998D02*
X-1100000Y15199998D01*
X-1100000Y16399998D01*
X-400000Y16399998D01*
X-400000Y15199998D01*
D02*
G37*
%LPC*%
G36*
X15100000Y15199998D02*
X14400000Y15199998D01*
X14400000Y16399998D01*
X15100000Y16399998D01*
X15100000Y15199998D01*
D02*
G37*
%LPC*%
G36*
X16000000Y15199998D02*
X15300000Y15199998D01*
X15300000Y16399998D01*
X16000000Y16399998D01*
X16000000Y15199998D01*
D02*
G37*
%LPC*%
G36*
X500000Y15199998D02*
X-200000Y15199998D01*
X-200000Y16399998D01*
X500000Y16399998D01*
X500000Y15199998D01*
D02*
G37*
%LPC*%
G36*
X2500000Y14894874D02*
X2440679Y14897788D01*
X2381946Y14906501D01*
X2324347Y14920928D01*
X2268425Y14940939D01*
X2214747Y14966326D01*
X2163807Y14996858D01*
X2116115Y15032228D01*
X2072111Y15072111D01*
X2032228Y15116115D01*
X1996858Y15163807D01*
X1966326Y15214747D01*
X1940939Y15268425D01*
X1920928Y15324347D01*
X1906501Y15381946D01*
X1897788Y15440679D01*
X1894874Y15499998D01*
X1897788Y15559321D01*
X1906501Y15618054D01*
X1920928Y15675653D01*
X1940939Y15731575D01*
X1966326Y15785253D01*
X1996858Y15836193D01*
X2032228Y15883885D01*
X2072111Y15927889D01*
X2116115Y15967772D01*
X2163807Y16003142D01*
X2214747Y16033674D01*
X2268425Y16059061D01*
X2324347Y16079072D01*
X2381946Y16093499D01*
X2440679Y16102212D01*
X2500000Y16105126D01*
X2559321Y16102212D01*
X2618054Y16093499D01*
X2675653Y16079072D01*
X2731575Y16059061D01*
X2785253Y16033674D01*
X2836193Y16003142D01*
X2883885Y15967772D01*
X2927889Y15927889D01*
X2967772Y15883885D01*
X3003142Y15836193D01*
X3033674Y15785253D01*
X3059061Y15731575D01*
X3079072Y15675653D01*
X3093499Y15618054D01*
X3102212Y15559321D01*
X3105126Y15499998D01*
X3102212Y15440679D01*
X3093499Y15381946D01*
X3079072Y15324347D01*
X3059061Y15268425D01*
X3033674Y15214747D01*
X3003142Y15163807D01*
X2967772Y15116115D01*
X2927889Y15072111D01*
X2883885Y15032228D01*
X2836193Y14996858D01*
X2785253Y14966326D01*
X2731575Y14940939D01*
X2675653Y14920928D01*
X2618054Y14906501D01*
X2559321Y14897788D01*
X2500000Y14894874D01*
D02*
G37*
%LPC*%
G36*
X10500004Y14894872D02*
X10440683Y14897786D01*
X10381950Y14906499D01*
X10324351Y14920926D01*
X10268429Y14940937D01*
X10214751Y14966324D01*
X10163811Y14996856D01*
X10116119Y15032226D01*
X10072115Y15072109D01*
X10032232Y15116113D01*
X9996862Y15163805D01*
X9966330Y15214745D01*
X9940943Y15268423D01*
X9920932Y15324345D01*
X9906505Y15381944D01*
X9897792Y15440677D01*
X9894878Y15499998D01*
X9897792Y15559319D01*
X9906505Y15618052D01*
X9920932Y15675651D01*
X9940943Y15731573D01*
X9966330Y15785251D01*
X9996862Y15836191D01*
X10032232Y15883883D01*
X10072115Y15927887D01*
X10116119Y15967770D01*
X10163811Y16003140D01*
X10214751Y16033672D01*
X10268429Y16059059D01*
X10324351Y16079070D01*
X10381950Y16093497D01*
X10440683Y16102210D01*
X10500004Y16105124D01*
X10559325Y16102210D01*
X10618058Y16093497D01*
X10675657Y16079070D01*
X10731579Y16059059D01*
X10785257Y16033672D01*
X10836197Y16003140D01*
X10883889Y15967770D01*
X10927893Y15927887D01*
X10967776Y15883883D01*
X11003146Y15836191D01*
X11033678Y15785251D01*
X11059065Y15731573D01*
X11079076Y15675651D01*
X11093503Y15618052D01*
X11102216Y15559319D01*
X11105130Y15499998D01*
X11102216Y15440677D01*
X11093503Y15381944D01*
X11079076Y15324345D01*
X11059065Y15268423D01*
X11033678Y15214745D01*
X11003146Y15163805D01*
X10967776Y15116113D01*
X10927893Y15072109D01*
X10883889Y15032226D01*
X10836197Y14996856D01*
X10785257Y14966324D01*
X10731579Y14940937D01*
X10675657Y14920926D01*
X10618058Y14906499D01*
X10559325Y14897786D01*
X10500004Y14894872D01*
D02*
G37*
%LPC*%
G36*
X16000000Y13799998D02*
X15300000Y13799998D01*
X15300000Y14999998D01*
X16000000Y14999998D01*
X16000000Y13799998D01*
D02*
G37*
%LPC*%
G36*
X15100000Y13799998D02*
X14400000Y13799998D01*
X14400000Y14999998D01*
X15100000Y14999998D01*
X15100000Y13799998D01*
D02*
G37*
%LPC*%
G36*
X500000Y14999998D02*
X500000Y13799998D01*
X-200000Y13799998D01*
X-200000Y14999998D01*
X500000Y14999998D01*
D02*
G37*
%LPC*%
G36*
X-400000Y13799998D02*
X-1100000Y13799998D01*
X-1100000Y14999998D01*
X-400000Y14999998D01*
X-400000Y13799998D01*
D02*
G37*
%LPC*%
G36*
X-1900010Y8085507D02*
X-1949534Y8087941D01*
X-1998570Y8095215D01*
X-2046677Y8107264D01*
X-2093366Y8123971D01*
X-2138182Y8145167D01*
X-2180705Y8170655D01*
X-2220533Y8200193D01*
X-2257274Y8233491D01*
X-2290572Y8270232D01*
X-2320107Y8310055D01*
X-2345598Y8352581D01*
X-2366797Y8397405D01*
X-2383501Y8444088D01*
X-2395548Y8492187D01*
X-2409427Y8585754D01*
X-3400820Y8585754D01*
X-3450453Y8590641D01*
X-3507852Y8608055D01*
X-3560755Y8636332D01*
X-3606521Y8673891D01*
X-3612995Y8681660D01*
X-6637537Y11706202D01*
X-9553593Y11706202D01*
X-9600955Y11653942D01*
X-9637700Y11620640D01*
X-9677523Y11591105D01*
X-9720049Y11565614D01*
X-9764873Y11544415D01*
X-9811556Y11527711D01*
X-9859663Y11515662D01*
X-9908699Y11508388D01*
X-9958223Y11505954D01*
X-10007747Y11508388D01*
X-10056783Y11515662D01*
X-10104890Y11527711D01*
X-10151579Y11544418D01*
X-10196395Y11565614D01*
X-10238918Y11591102D01*
X-10278746Y11620640D01*
X-10315487Y11653938D01*
X-10348785Y11690679D01*
X-10378320Y11730502D01*
X-10403811Y11773028D01*
X-10425010Y11817852D01*
X-10441714Y11864535D01*
X-10453763Y11912642D01*
X-10461037Y11961678D01*
X-10463471Y12011202D01*
X-10461037Y12060726D01*
X-10453763Y12109762D01*
X-10441714Y12157869D01*
X-10425010Y12204552D01*
X-10403811Y12249376D01*
X-10378320Y12291902D01*
X-10348785Y12331725D01*
X-10315487Y12368465D01*
X-10278748Y12401764D01*
X-10238920Y12431300D01*
X-10196399Y12456788D01*
X-10151573Y12477989D01*
X-10104890Y12494693D01*
X-10056783Y12506742D01*
X-10007747Y12514016D01*
X-9958223Y12516450D01*
X-9908699Y12514016D01*
X-9859663Y12506742D01*
X-9811556Y12494693D01*
X-9764873Y12477989D01*
X-9720047Y12456788D01*
X-9677526Y12431300D01*
X-9637698Y12401764D01*
X-9600959Y12368465D01*
X-9553592Y12316202D01*
X-6785730Y12316202D01*
X-6734590Y12439665D01*
X-7389925Y13095000D01*
X-10095370Y13095000D01*
X-10142732Y13042740D01*
X-10179477Y13009438D01*
X-10219300Y12979903D01*
X-10261826Y12954412D01*
X-10306650Y12933213D01*
X-10353333Y12916509D01*
X-10401440Y12904460D01*
X-10450476Y12897186D01*
X-10500000Y12894752D01*
X-10549524Y12897186D01*
X-10598560Y12904460D01*
X-10646667Y12916509D01*
X-10693356Y12933216D01*
X-10738172Y12954412D01*
X-10780695Y12979900D01*
X-10820523Y13009438D01*
X-10857264Y13042736D01*
X-10890562Y13079477D01*
X-10920097Y13119300D01*
X-10945588Y13161826D01*
X-10966787Y13206650D01*
X-10983491Y13253333D01*
X-10995540Y13301440D01*
X-11002814Y13350476D01*
X-11005248Y13400000D01*
X-11002814Y13449524D01*
X-10995540Y13498560D01*
X-10983491Y13546667D01*
X-10966787Y13593350D01*
X-10945588Y13638174D01*
X-10920097Y13680700D01*
X-10890562Y13720523D01*
X-10857264Y13757263D01*
X-10820525Y13790562D01*
X-10780697Y13820098D01*
X-10738176Y13845586D01*
X-10693350Y13866787D01*
X-10646667Y13883491D01*
X-10598560Y13895540D01*
X-10549524Y13902814D01*
X-10500000Y13905248D01*
X-10450476Y13902814D01*
X-10401440Y13895540D01*
X-10353333Y13883491D01*
X-10306650Y13866787D01*
X-10261824Y13845586D01*
X-10219303Y13820098D01*
X-10179475Y13790562D01*
X-10142736Y13757263D01*
X-10095369Y13705000D01*
X-7253513Y13705000D01*
X-7203890Y13700112D01*
X-7146490Y13682698D01*
X-7093588Y13654421D01*
X-7047822Y13616862D01*
X-7041348Y13609093D01*
X-3237255Y9805000D01*
X-2304641Y9805000D01*
X-2257274Y9857263D01*
X-2220535Y9890562D01*
X-2180707Y9920098D01*
X-2138186Y9945586D01*
X-2093360Y9966787D01*
X-2046677Y9983491D01*
X-1998570Y9995540D01*
X-1949534Y10002814D01*
X-1900010Y10005248D01*
X-1850486Y10002814D01*
X-1801450Y9995540D01*
X-1753343Y9983491D01*
X-1706660Y9966787D01*
X-1661834Y9945586D01*
X-1619313Y9920098D01*
X-1579485Y9890562D01*
X-1542746Y9857263D01*
X-1509448Y9820523D01*
X-1479910Y9780695D01*
X-1454422Y9738172D01*
X-1433226Y9693356D01*
X-1416519Y9646667D01*
X-1404470Y9598560D01*
X-1397196Y9549524D01*
X-1394762Y9500000D01*
X-1397196Y9450476D01*
X-1404470Y9401440D01*
X-1416519Y9353333D01*
X-1433223Y9306650D01*
X-1454422Y9261826D01*
X-1479913Y9219300D01*
X-1509448Y9179477D01*
X-1542746Y9142736D01*
X-1650166Y9045381D01*
X-1542746Y8948018D01*
X-1509448Y8911278D01*
X-1479910Y8871450D01*
X-1454422Y8828927D01*
X-1433226Y8784111D01*
X-1416519Y8737422D01*
X-1404470Y8689315D01*
X-1397196Y8640279D01*
X-1394762Y8590755D01*
X-1397196Y8541231D01*
X-1404470Y8492195D01*
X-1416519Y8444088D01*
X-1433223Y8397405D01*
X-1454422Y8352581D01*
X-1479913Y8310055D01*
X-1509448Y8270232D01*
X-1542746Y8233491D01*
X-1579487Y8200193D01*
X-1619310Y8170658D01*
X-1661836Y8145167D01*
X-1706660Y8123968D01*
X-1753343Y8107264D01*
X-1801450Y8095215D01*
X-1850486Y8087941D01*
X-1900010Y8085507D01*
D02*
G37*
%LPC*%
G36*
X4300000Y6000000D02*
X4745000Y6000000D01*
X4745000Y6005000D01*
X5010833Y6005000D01*
X5045579Y6070003D01*
X5083137Y6115767D01*
X5090906Y6122241D01*
X5590232Y6621567D01*
X5539092Y6745030D01*
X4214363Y6745030D01*
X3597796Y6128463D01*
X3648936Y6005000D01*
X3655000Y6005000D01*
X3655000Y6000000D01*
X4100000Y6000000D01*
X4100000Y4000000D01*
X3655000Y4000000D01*
X3655000Y3995000D01*
X3389165Y3995000D01*
X3354420Y3929996D01*
X3316862Y3884232D01*
X3309093Y3877758D01*
X3043228Y3611893D01*
X3036754Y3604124D01*
X2990988Y3566565D01*
X2938085Y3538288D01*
X2880686Y3520874D01*
X2831053Y3515987D01*
X-1178272Y3515987D01*
X-1232692Y3521344D01*
X-1300977Y3459459D01*
X-1340800Y3429924D01*
X-1383326Y3404433D01*
X-1428150Y3383234D01*
X-1474833Y3366530D01*
X-1522940Y3354481D01*
X-1571976Y3347207D01*
X-1621500Y3344773D01*
X-1671024Y3347207D01*
X-1720060Y3354481D01*
X-1768167Y3366530D01*
X-1814856Y3383237D01*
X-1859672Y3404433D01*
X-1902195Y3429921D01*
X-1942023Y3459459D01*
X-1978764Y3492757D01*
X-2012062Y3529498D01*
X-2041597Y3569321D01*
X-2067088Y3611847D01*
X-2088287Y3656671D01*
X-2104991Y3703354D01*
X-2117040Y3751461D01*
X-2124314Y3800497D01*
X-2126748Y3850021D01*
X-2124314Y3899545D01*
X-2117040Y3948581D01*
X-2104991Y3996688D01*
X-2088287Y4043371D01*
X-2067088Y4088195D01*
X-2041597Y4130721D01*
X-2012062Y4170544D01*
X-1978764Y4207284D01*
X-1942025Y4240583D01*
X-1902197Y4270119D01*
X-1859676Y4295607D01*
X-1814850Y4316808D01*
X-1768167Y4333512D01*
X-1720060Y4345561D01*
X-1671024Y4352835D01*
X-1621500Y4355269D01*
X-1571976Y4352835D01*
X-1522940Y4345561D01*
X-1474833Y4333512D01*
X-1428150Y4316808D01*
X-1383324Y4295607D01*
X-1340803Y4270119D01*
X-1300975Y4240583D01*
X-1264236Y4207284D01*
X-1219780Y4158234D01*
X-1137535Y4150133D01*
X-1057947Y4125987D01*
X345000Y4125987D01*
X345000Y4600000D01*
X-200000Y4600000D01*
X-200000Y5700000D01*
X-1100000Y5700000D01*
X-1100000Y5794062D01*
X-1223463Y5845202D01*
X-1527095Y5541570D01*
X-1533509Y5533732D01*
X-1580001Y5495576D01*
X-1632901Y5467301D01*
X-1690300Y5449887D01*
X-1728307Y5446145D01*
X-1739936Y5445000D01*
X-2373665Y5445000D01*
X-2673898Y5144768D01*
X-2580236Y5059871D01*
X-2546941Y5023134D01*
X-2517403Y4983306D01*
X-2491915Y4940783D01*
X-2470719Y4895967D01*
X-2454012Y4849278D01*
X-2441963Y4801171D01*
X-2434689Y4752135D01*
X-2432255Y4702611D01*
X-2434689Y4653087D01*
X-2441963Y4604051D01*
X-2454012Y4555944D01*
X-2470716Y4509261D01*
X-2491915Y4464437D01*
X-2517406Y4421911D01*
X-2546941Y4382088D01*
X-2580239Y4345347D01*
X-2616980Y4312049D01*
X-2656803Y4282514D01*
X-2699329Y4257023D01*
X-2744153Y4235824D01*
X-2790836Y4219120D01*
X-2838943Y4207071D01*
X-2887979Y4199797D01*
X-2937503Y4197363D01*
X-2987027Y4199797D01*
X-3036063Y4207071D01*
X-3084170Y4219120D01*
X-3130859Y4235827D01*
X-3175675Y4257023D01*
X-3218198Y4282511D01*
X-3258026Y4312049D01*
X-3294767Y4345347D01*
X-3328065Y4382088D01*
X-3357600Y4421911D01*
X-3383091Y4464437D01*
X-3404290Y4509261D01*
X-3420994Y4555944D01*
X-3433043Y4604051D01*
X-3440317Y4653087D01*
X-3442751Y4702611D01*
X-3440317Y4752135D01*
X-3433043Y4801171D01*
X-3420994Y4849278D01*
X-3404290Y4895961D01*
X-3383091Y4940785D01*
X-3357600Y4983311D01*
X-3328065Y5023134D01*
X-3294767Y5059874D01*
X-3242503Y5107245D01*
X-3242503Y5322572D01*
X-3237613Y5372200D01*
X-3220202Y5429594D01*
X-3191924Y5482499D01*
X-3160295Y5521039D01*
X-2809798Y5871537D01*
X-2860938Y5995000D01*
X-7540821Y5995000D01*
X-8136338Y5399484D01*
X-8142813Y5391714D01*
X-8153939Y5382583D01*
X-8179476Y5359438D01*
X-8207164Y5338904D01*
X-8218887Y5329283D01*
X-8232256Y5322137D01*
X-8261830Y5304411D01*
X-8292983Y5289677D01*
X-8306364Y5282525D01*
X-8320883Y5278120D01*
X-8353330Y5266510D01*
X-8386757Y5258137D01*
X-8401282Y5253731D01*
X-8416398Y5252242D01*
X-8450477Y5247186D01*
X-8484904Y5245494D01*
X-8499998Y5244008D01*
X-8515092Y5245494D01*
X-8549516Y5247186D01*
X-8583604Y5252242D01*
X-8598711Y5253730D01*
X-8613237Y5258136D01*
X-8646665Y5266508D01*
X-8679124Y5278123D01*
X-8693636Y5282525D01*
X-8707010Y5289674D01*
X-8738164Y5304408D01*
X-8767732Y5322131D01*
X-8781116Y5329284D01*
X-8792843Y5338909D01*
X-8820520Y5359435D01*
X-8846074Y5382594D01*
X-8849964Y5385787D01*
X-8853526Y5389349D01*
X-8857264Y5392736D01*
X-8860651Y5396474D01*
X-8959178Y5495000D01*
X-13494966Y5495000D01*
X-13500000Y5494752D01*
X-13505034Y5495000D01*
X-13510068Y5495000D01*
X-13515087Y5495494D01*
X-13549517Y5497186D01*
X-13583605Y5502242D01*
X-13598711Y5503730D01*
X-13613237Y5508136D01*
X-13646665Y5516508D01*
X-13679124Y5528123D01*
X-13693637Y5532525D01*
X-13707011Y5539674D01*
X-13738164Y5554408D01*
X-13767733Y5572131D01*
X-13781113Y5579283D01*
X-13792840Y5588907D01*
X-13820519Y5609434D01*
X-13846065Y5632587D01*
X-13857793Y5642212D01*
X-13867411Y5653932D01*
X-13890562Y5679478D01*
X-13911098Y5707166D01*
X-13920716Y5718885D01*
X-13927861Y5732252D01*
X-13945590Y5761830D01*
X-13960333Y5793003D01*
X-13967475Y5806364D01*
X-13971872Y5820860D01*
X-13983490Y5853329D01*
X-13991868Y5886778D01*
X-13996268Y5901284D01*
X-13997754Y5916371D01*
X-14002814Y5950476D01*
X-14004506Y5984912D01*
X-14005992Y5999998D01*
X-14004506Y6015084D01*
X-14002814Y6049522D01*
X-13997753Y6083633D01*
X-13996267Y6098718D01*
X-13991871Y6113212D01*
X-13983493Y6146661D01*
X-13971869Y6179148D01*
X-13967475Y6193633D01*
X-13960337Y6206988D01*
X-13945590Y6238170D01*
X-13927856Y6267756D01*
X-13920717Y6281111D01*
X-13911105Y6292823D01*
X-13890565Y6320519D01*
X-13867406Y6346072D01*
X-13857791Y6357789D01*
X-13846075Y6367404D01*
X-13820527Y6390560D01*
X-13792827Y6411102D01*
X-13781113Y6420716D01*
X-13767749Y6427860D01*
X-13738173Y6445589D01*
X-13706988Y6460337D01*
X-13693635Y6467474D01*
X-13679145Y6471870D01*
X-13646667Y6483491D01*
X-13613215Y6491869D01*
X-13598715Y6496268D01*
X-13583630Y6497754D01*
X-13549516Y6502814D01*
X-13515089Y6504506D01*
X-13510070Y6505000D01*
X-13505034Y6505000D01*
X-13500000Y6505248D01*
X-13494966Y6505000D01*
X-8739925Y6505000D01*
X-8651285Y6496269D01*
X-8510590Y6453589D01*
X-8107090Y6857088D01*
X-8099970Y6864209D01*
X-8031113Y6920716D01*
X-7943636Y6967474D01*
X-7848713Y6996269D01*
X-7760075Y7005000D01*
X-2005034Y7005000D01*
X-2000000Y7005248D01*
X-1994966Y7005000D01*
X-1989930Y7005000D01*
X-1984911Y7004506D01*
X-1950476Y7002814D01*
X-1916371Y6997754D01*
X-1901281Y6996268D01*
X-1886780Y6991869D01*
X-1853335Y6983492D01*
X-1820851Y6971868D01*
X-1806363Y6967473D01*
X-1793015Y6960339D01*
X-1761834Y6945592D01*
X-1732262Y6927865D01*
X-1718887Y6920717D01*
X-1707160Y6911093D01*
X-1679475Y6890562D01*
X-1572153Y6793287D01*
X-1504420Y6920003D01*
X-1472792Y6958542D01*
X-1055000Y7376335D01*
X-1055000Y11580933D01*
X-1050110Y11630561D01*
X-1032698Y11687957D01*
X-1004422Y11740858D01*
X-988257Y11760554D01*
X-972790Y11779402D01*
X206910Y12959103D01*
X213384Y12966872D01*
X259150Y13004431D01*
X312052Y13032708D01*
X369452Y13050122D01*
X419075Y13055010D01*
X1510065Y13055010D01*
X1559693Y13050120D01*
X1617087Y13032709D01*
X1669992Y13004431D01*
X1708532Y12972802D01*
X2179550Y12501784D01*
X2250002Y12505248D01*
X2299524Y12502814D01*
X2348560Y12495540D01*
X2396667Y12483491D01*
X2443350Y12466787D01*
X2488176Y12445586D01*
X2530697Y12420098D01*
X2570525Y12390562D01*
X2607264Y12357263D01*
X2640562Y12320523D01*
X2670100Y12280695D01*
X2695588Y12238172D01*
X2716784Y12193356D01*
X2733491Y12146667D01*
X2745540Y12098560D01*
X2752814Y12049524D01*
X2757468Y11955013D01*
X10463638Y11955013D01*
X10513266Y11950123D01*
X10570660Y11932712D01*
X10623565Y11904434D01*
X10662110Y11872801D01*
X10822802Y11712108D01*
X10831989Y11700914D01*
X10854444Y11673553D01*
X10882717Y11620657D01*
X10900129Y11563260D01*
X10905019Y11513632D01*
X10905019Y9286362D01*
X10900131Y9236739D01*
X10882717Y9179339D01*
X10854440Y9126437D01*
X10816881Y9080671D01*
X10809112Y9074197D01*
X9775930Y8041015D01*
X9769456Y8033246D01*
X9723691Y7995687D01*
X9650272Y7956445D01*
X9688196Y7805040D01*
X10616063Y7805040D01*
X12020116Y9209093D01*
X12026590Y9216862D01*
X12072356Y9254421D01*
X12125258Y9282698D01*
X12182658Y9300112D01*
X12232281Y9305000D01*
X13623665Y9305000D01*
X16045000Y11726335D01*
X16045000Y12405000D01*
X16955000Y12405000D01*
X16955000Y9060938D01*
X17078463Y9009798D01*
X17545000Y9476335D01*
X17545000Y12405000D01*
X18455000Y12405000D01*
X18455000Y8575000D01*
X18600000Y8575000D01*
X18600000Y8100000D01*
X17400000Y8100000D01*
X17400000Y8294062D01*
X17276537Y8345202D01*
X17105000Y8173665D01*
X17105000Y7826335D01*
X17276537Y7654798D01*
X17400000Y7705938D01*
X17400000Y7900000D01*
X18600000Y7900000D01*
X18600000Y7425000D01*
X18455000Y7425000D01*
X18455000Y6095000D01*
X18305000Y6095000D01*
X18305000Y5939923D01*
X18300112Y5890300D01*
X18282698Y5832900D01*
X18254421Y5779998D01*
X18216862Y5734232D01*
X18209093Y5727758D01*
X18055000Y5573665D01*
X18055000Y4745000D01*
X17384290Y4745000D01*
X17384290Y4579398D01*
X17379402Y4529775D01*
X17361988Y4472375D01*
X17333711Y4419473D01*
X17296152Y4373707D01*
X17288383Y4367233D01*
X16799613Y3878463D01*
X16850753Y3755000D01*
X17105000Y3755000D01*
X17105000Y2345000D01*
X16839165Y2345000D01*
X16804420Y2279996D01*
X16766862Y2234232D01*
X16759093Y2227758D01*
X16691332Y2159997D01*
X16742472Y2036534D01*
X18798541Y2036534D01*
X18887179Y2027803D01*
X18982102Y1999008D01*
X19069579Y1952250D01*
X19138428Y1895749D01*
X19979179Y1055000D01*
X20929117Y1055000D01*
X21538238Y0D01*
X20929117Y-1055000D01*
X19710883Y-1055000D01*
X19101761Y0D01*
X19286264Y319558D01*
X18643325Y962497D01*
X18504174Y855721D01*
X18998239Y0D01*
X18389117Y-1055000D01*
X17170883Y-1055000D01*
X16561761Y0D01*
X17096710Y926533D01*
X17038975Y1026534D01*
X15981025Y1026534D01*
X15923290Y926533D01*
X16458239Y0D01*
X15849117Y-1055000D01*
X14630883Y-1055000D01*
X14021761Y0D01*
X14556710Y926533D01*
X14498975Y1026534D01*
X13441025Y1026534D01*
X13383290Y926533D01*
X13918239Y0D01*
X13309117Y-1055000D01*
X12090883Y-1055000D01*
X11481761Y0D01*
X12016710Y926533D01*
X11958975Y1026534D01*
X10901025Y1026534D01*
X10843290Y926533D01*
X11378239Y0D01*
X10769117Y-1055000D01*
X9550883Y-1055000D01*
X8941761Y0D01*
X9476710Y926533D01*
X9418975Y1026534D01*
X8361025Y1026534D01*
X8303290Y926533D01*
X8838239Y0D01*
X8229117Y-1055000D01*
X7010883Y-1055000D01*
X6401761Y0D01*
X6936710Y926533D01*
X6878975Y1026534D01*
X5821025Y1026534D01*
X5763290Y926533D01*
X6298239Y0D01*
X5689117Y-1055000D01*
X4470883Y-1055000D01*
X3861761Y0D01*
X4396710Y926533D01*
X4338975Y1026534D01*
X3281025Y1026534D01*
X3223290Y926533D01*
X3758239Y0D01*
X3149117Y-1055000D01*
X1930883Y-1055000D01*
X1321761Y0D01*
X1856710Y926533D01*
X1798975Y1026534D01*
X741025Y1026534D01*
X683290Y926533D01*
X1218239Y0D01*
X609117Y-1055000D01*
X-609117Y-1055000D01*
X-1218239Y0D01*
X-683290Y926533D01*
X-741025Y1026534D01*
X-1798975Y1026534D01*
X-1856710Y926533D01*
X-1321761Y0D01*
X-1930883Y-1055000D01*
X-3149117Y-1055000D01*
X-3758239Y0D01*
X-3223290Y926533D01*
X-3281025Y1026534D01*
X-4338975Y1026534D01*
X-4396710Y926533D01*
X-3861761Y0D01*
X-4470883Y-1055000D01*
X-5689117Y-1055000D01*
X-6298239Y0D01*
X-5763290Y926533D01*
X-5821025Y1026534D01*
X-6878975Y1026534D01*
X-6936710Y926533D01*
X-6401761Y0D01*
X-7010883Y-1055000D01*
X-8229117Y-1055000D01*
X-8838239Y0D01*
X-8303290Y926533D01*
X-8361025Y1026534D01*
X-9418975Y1026534D01*
X-9476710Y926533D01*
X-8941761Y0D01*
X-9550883Y-1055000D01*
X-10769117Y-1055000D01*
X-11378239Y0D01*
X-10843290Y926533D01*
X-10901025Y1026534D01*
X-11958975Y1026534D01*
X-12016710Y926533D01*
X-11481761Y0D01*
X-12090883Y-1055000D01*
X-13309117Y-1055000D01*
X-13918239Y0D01*
X-13383290Y926533D01*
X-13441025Y1026534D01*
X-14498975Y1026534D01*
X-14556710Y926533D01*
X-14021761Y0D01*
X-14630883Y-1055000D01*
X-15849117Y-1055000D01*
X-16458239Y0D01*
X-15923290Y926533D01*
X-15981025Y1026534D01*
X-17038975Y1026534D01*
X-17096710Y926533D01*
X-16561761Y0D01*
X-17170883Y-1055000D01*
X-18389117Y-1055000D01*
X-18998239Y0D01*
X-18504173Y855722D01*
X-18643324Y962498D01*
X-19286264Y319559D01*
X-19101761Y0D01*
X-19710883Y-1055000D01*
X-20929117Y-1055000D01*
X-21538238Y0D01*
X-20929117Y1055000D01*
X-19979178Y1055000D01*
X-19145556Y1888622D01*
X-19138436Y1895743D01*
X-19069579Y1952250D01*
X-18982102Y1999008D01*
X-18887179Y2027803D01*
X-18798541Y2036534D01*
X12445000Y2036534D01*
X12445000Y2460066D01*
X12449887Y2509699D01*
X12467301Y2567098D01*
X12495578Y2620001D01*
X12533137Y2665767D01*
X12540906Y2672241D01*
X12795000Y2926335D01*
X12795000Y3655000D01*
X13010833Y3655000D01*
X13045579Y3720003D01*
X13083137Y3765767D01*
X13090906Y3772241D01*
X13327768Y4009103D01*
X13334242Y4016872D01*
X13380008Y4054431D01*
X13432910Y4082708D01*
X13490310Y4100122D01*
X13539933Y4105010D01*
X14737265Y4105010D01*
X15108790Y4476535D01*
X15057650Y4599998D01*
X14400004Y4599998D01*
X14400004Y5399998D01*
X15300004Y5399998D01*
X15300004Y4842352D01*
X15423467Y4791212D01*
X15496879Y4864624D01*
X15503353Y4872393D01*
X15549119Y4909952D01*
X15602021Y4938229D01*
X15659421Y4955643D01*
X15709044Y4960531D01*
X15778713Y4960531D01*
X15826080Y5012794D01*
X15862819Y5046093D01*
X15902647Y5075629D01*
X15945168Y5101117D01*
X15989994Y5122318D01*
X16036677Y5139022D01*
X16084784Y5151071D01*
X16133820Y5158345D01*
X16183344Y5160779D01*
X16232868Y5158345D01*
X16281904Y5151071D01*
X16330011Y5139022D01*
X16376694Y5122318D01*
X16421520Y5101117D01*
X16464041Y5075629D01*
X16503869Y5046093D01*
X16540608Y5012794D01*
X16573906Y4976054D01*
X16637026Y4890946D01*
X16774290Y4936292D01*
X16774290Y5039356D01*
X16779177Y5088989D01*
X16796591Y5146388D01*
X16824868Y5199291D01*
X16862427Y5245057D01*
X16870196Y5251531D01*
X16945000Y5326335D01*
X16945000Y6095000D01*
X16045000Y6095000D01*
X16045000Y6773665D01*
X15973664Y6845001D01*
X13064334Y6845001D01*
X11710239Y5490906D01*
X11703765Y5483137D01*
X11658001Y5445580D01*
X11468061Y5344056D01*
X11606298Y5241539D01*
X11643039Y5208238D01*
X11676343Y5171492D01*
X11735249Y5092067D01*
X11849877Y5177074D01*
X11892398Y5202562D01*
X11937224Y5223763D01*
X11983907Y5240467D01*
X12032014Y5252516D01*
X12081050Y5259790D01*
X12130574Y5262224D01*
X12180098Y5259790D01*
X12229134Y5252516D01*
X12277241Y5240467D01*
X12323924Y5223763D01*
X12368750Y5202562D01*
X12411271Y5177074D01*
X12451099Y5147538D01*
X12487838Y5114239D01*
X12521136Y5077499D01*
X12550674Y5037671D01*
X12576162Y4995148D01*
X12597358Y4950332D01*
X12614065Y4903643D01*
X12626114Y4855536D01*
X12633388Y4806500D01*
X12635822Y4756976D01*
X12633388Y4707452D01*
X12626114Y4658416D01*
X12614065Y4610309D01*
X12597361Y4563626D01*
X12576162Y4518802D01*
X12550671Y4476276D01*
X12521136Y4436453D01*
X12487838Y4399712D01*
X12451097Y4366414D01*
X12411274Y4336879D01*
X12368748Y4311388D01*
X12323924Y4290189D01*
X12277241Y4273485D01*
X12229134Y4261436D01*
X12180098Y4254162D01*
X12130576Y4251728D01*
X12060124Y4255192D01*
X11796813Y3991880D01*
X11790339Y3984111D01*
X11744573Y3946552D01*
X11691670Y3918275D01*
X11634271Y3900861D01*
X11584638Y3895974D01*
X11356236Y3895974D01*
X10263723Y2803461D01*
X10257249Y2795692D01*
X10211483Y2758133D01*
X10158580Y2729856D01*
X10101181Y2712442D01*
X10051548Y2707555D01*
X9472835Y2707555D01*
X9425473Y2655295D01*
X9388728Y2621993D01*
X9348905Y2592458D01*
X9306379Y2566967D01*
X9261555Y2545768D01*
X9214872Y2529064D01*
X9166765Y2517015D01*
X9117729Y2509741D01*
X9068205Y2507307D01*
X9018681Y2509741D01*
X8969645Y2517015D01*
X8921538Y2529064D01*
X8874849Y2545771D01*
X8830033Y2566967D01*
X8787510Y2592455D01*
X8747682Y2621993D01*
X8710941Y2655291D01*
X8677643Y2692032D01*
X8648108Y2731855D01*
X8622617Y2774381D01*
X8601418Y2819205D01*
X8544899Y2977154D01*
X8274031Y2706286D01*
X8267557Y2698517D01*
X8221791Y2660958D01*
X8168888Y2632681D01*
X8111489Y2615267D01*
X8061856Y2610380D01*
X7989250Y2610380D01*
X7941888Y2558120D01*
X7905143Y2524818D01*
X7865320Y2495283D01*
X7822794Y2469792D01*
X7777970Y2448593D01*
X7731287Y2431889D01*
X7683180Y2419840D01*
X7634144Y2412566D01*
X7584620Y2410132D01*
X7535096Y2412566D01*
X7486060Y2419840D01*
X7437953Y2431889D01*
X7391264Y2448596D01*
X7346448Y2469792D01*
X7303925Y2495280D01*
X7264097Y2524818D01*
X7227356Y2558116D01*
X7194058Y2594857D01*
X7164523Y2634680D01*
X7139032Y2677206D01*
X7117833Y2722030D01*
X7101128Y2768715D01*
X7072246Y2884033D01*
X6959698Y2849888D01*
X6910067Y2845001D01*
X6564334Y2845001D01*
X6260239Y2540906D01*
X6253765Y2533137D01*
X6207999Y2495578D01*
X6155096Y2467301D01*
X6097697Y2449887D01*
X6048064Y2445000D01*
X-2345370Y2445000D01*
X-2392732Y2392740D01*
X-2429477Y2359438D01*
X-2469300Y2329903D01*
X-2511826Y2304412D01*
X-2556650Y2283213D01*
X-2603333Y2266509D01*
X-2651440Y2254460D01*
X-2700476Y2247186D01*
X-2750000Y2244752D01*
X-2799524Y2247186D01*
X-2848560Y2254460D01*
X-2896667Y2266509D01*
X-2943356Y2283216D01*
X-2988172Y2304412D01*
X-3030695Y2329900D01*
X-3070523Y2359438D01*
X-3107264Y2392736D01*
X-3140562Y2429477D01*
X-3170097Y2469300D01*
X-3195588Y2511826D01*
X-3216787Y2556650D01*
X-3233491Y2603333D01*
X-3245540Y2651440D01*
X-3252814Y2700476D01*
X-3255248Y2750000D01*
X-3252814Y2799524D01*
X-3245540Y2848560D01*
X-3233491Y2896667D01*
X-3216787Y2943350D01*
X-3195588Y2988174D01*
X-3170097Y3030700D01*
X-3140562Y3070523D01*
X-3107264Y3107263D01*
X-3070525Y3140562D01*
X-3030697Y3170098D01*
X-2988176Y3195586D01*
X-2943350Y3216787D01*
X-2896667Y3233491D01*
X-2848560Y3245540D01*
X-2799524Y3252814D01*
X-2750000Y3255248D01*
X-2700476Y3252814D01*
X-2651440Y3245540D01*
X-2603333Y3233491D01*
X-2556650Y3216787D01*
X-2511824Y3195586D01*
X-2469303Y3170098D01*
X-2429475Y3140562D01*
X-2392736Y3107263D01*
X-2345369Y3055000D01*
X4032660Y3055000D01*
X3958216Y3212402D01*
X3941509Y3259093D01*
X3929460Y3307200D01*
X3922186Y3356236D01*
X3919752Y3405760D01*
X3922186Y3455284D01*
X3929460Y3504320D01*
X3941509Y3552427D01*
X3958213Y3599110D01*
X3979412Y3643934D01*
X4004903Y3686460D01*
X4034438Y3726283D01*
X4067736Y3763023D01*
X4104475Y3796322D01*
X4194026Y3862733D01*
X4151985Y3990000D01*
X4300000Y3990000D01*
X4300000Y6000000D01*
D02*
G37*
%LPC*%
G36*
X22760000Y6570000D02*
X22253769Y6570000D01*
X21981701Y7041223D01*
X21833466Y7001502D01*
X21833466Y5708497D01*
X21981701Y5668776D01*
X22250883Y6135000D01*
X23469117Y6135000D01*
X24078239Y5080000D01*
X23469117Y4025000D01*
X22250883Y4025000D01*
X21981701Y4491224D01*
X21833466Y4451503D01*
X21833466Y3168497D01*
X21981701Y3128776D01*
X22250883Y3595000D01*
X23469117Y3595000D01*
X24078239Y2540000D01*
X23469117Y1485000D01*
X22250883Y1485000D01*
X21933331Y2035000D01*
X21768411Y2035000D01*
X21679760Y2043731D01*
X21584839Y2072525D01*
X21497361Y2119283D01*
X21420566Y2182305D01*
X21414149Y2190149D01*
X20978615Y2625683D01*
X20970771Y2632100D01*
X20907749Y2708895D01*
X20860991Y2796373D01*
X20832197Y2891294D01*
X20823466Y2979945D01*
X20823466Y8638532D01*
X20832197Y8727181D01*
X20860991Y8822102D01*
X20907749Y8909579D01*
X20970180Y8985653D01*
X20977950Y8992128D01*
X21826264Y9840442D01*
X21641761Y10160000D01*
X22250883Y11215000D01*
X23469117Y11215000D01*
X24078239Y10160000D01*
X23469117Y9105000D01*
X22519179Y9105000D01*
X22207642Y8793463D01*
X22258782Y8670000D01*
X22760000Y8670000D01*
X22760000Y6570000D01*
D02*
G37*
%LPC*%
G36*
X-22760000Y8670000D02*
X-22258782Y8670000D01*
X-22207642Y8793463D01*
X-22519179Y9105000D01*
X-23469117Y9105000D01*
X-24078239Y10160000D01*
X-23469117Y11215000D01*
X-22250883Y11215000D01*
X-21641761Y10160000D01*
X-21826264Y9840442D01*
X-20977950Y8992128D01*
X-20970180Y8985653D01*
X-20907749Y8909579D01*
X-20860991Y8822102D01*
X-20832197Y8727181D01*
X-20823466Y8638532D01*
X-20823466Y4061469D01*
X-20832197Y3972818D01*
X-20860991Y3877897D01*
X-20907750Y3790418D01*
X-20970181Y3714345D01*
X-20977950Y3707871D01*
X-21826264Y2859559D01*
X-21641761Y2540000D01*
X-22250883Y1485000D01*
X-23469117Y1485000D01*
X-24078239Y2540000D01*
X-23469117Y3595000D01*
X-22519179Y3595000D01*
X-22212642Y3901537D01*
X-22263782Y4025000D01*
X-23469117Y4025000D01*
X-24078239Y5080000D01*
X-23469117Y6135000D01*
X-22250883Y6135000D01*
X-21981701Y5668776D01*
X-21833466Y5708497D01*
X-21833466Y7001502D01*
X-21981701Y7041223D01*
X-22253769Y6570000D01*
X-22760000Y6570000D01*
X-22760000Y8670000D01*
D02*
G37*
%LPC*%
G36*
X24014729Y7720000D02*
X22960000Y7720000D01*
X22960000Y8670000D01*
X23466231Y8670000D01*
X24014729Y7720000D01*
D02*
G37*
%LPC*%
G36*
X-22960000Y8670000D02*
X-22960000Y7720000D01*
X-24014729Y7720000D01*
X-23466231Y8670000D01*
X-22960000Y8670000D01*
D02*
G37*
%LPC*%
G36*
X23466231Y6570000D02*
X22960000Y6570000D01*
X22960000Y7520000D01*
X24014729Y7520000D01*
X23466231Y6570000D01*
D02*
G37*
%LPC*%
G36*
X-22960000Y6570000D02*
X-23466231Y6570000D01*
X-24014729Y7520000D01*
X-22960000Y7520000D01*
X-22960000Y6570000D01*
D02*
G37*
%LPC*%
G36*
X14200004Y5599998D02*
X13300004Y5599998D01*
X13300004Y6399998D01*
X14200004Y6399998D01*
X14200004Y5599998D01*
D02*
G37*
%LPC*%
G36*
X15300004Y5599998D02*
X14400004Y5599998D01*
X14400004Y6399998D01*
X15300004Y6399998D01*
X15300004Y5599998D01*
D02*
G37*
%LPC*%
G36*
X19005000Y2345000D02*
X17895000Y2345000D01*
X17895000Y3755000D01*
X18723666Y3755000D01*
X19445000Y4476335D01*
X19445000Y4595370D01*
X19392740Y4642732D01*
X19359438Y4679477D01*
X19329903Y4719300D01*
X19304412Y4761826D01*
X19283213Y4806650D01*
X19266509Y4853333D01*
X19254460Y4901440D01*
X19247186Y4950476D01*
X19244752Y5000000D01*
X19247186Y5049524D01*
X19254460Y5098560D01*
X19266509Y5146667D01*
X19283213Y5193350D01*
X19304412Y5238174D01*
X19329903Y5280700D01*
X19359438Y5320523D01*
X19392736Y5357263D01*
X19429475Y5390562D01*
X19469303Y5420098D01*
X19511824Y5445586D01*
X19556650Y5466787D01*
X19603333Y5483491D01*
X19651440Y5495540D01*
X19700476Y5502814D01*
X19750000Y5505248D01*
X19799524Y5502814D01*
X19848560Y5495540D01*
X19896667Y5483491D01*
X19943350Y5466787D01*
X19988176Y5445586D01*
X20030697Y5420098D01*
X20070525Y5390562D01*
X20107264Y5357263D01*
X20140562Y5320523D01*
X20170100Y5280695D01*
X20195588Y5238172D01*
X20216784Y5193356D01*
X20233491Y5146667D01*
X20245540Y5098560D01*
X20252814Y5049524D01*
X20255248Y5000000D01*
X20252814Y4950476D01*
X20245540Y4901440D01*
X20233491Y4853333D01*
X20216787Y4806650D01*
X20195588Y4761826D01*
X20170097Y4719300D01*
X20140562Y4679477D01*
X20107260Y4642732D01*
X20055000Y4595370D01*
X20055000Y4339923D01*
X20050112Y4290300D01*
X20032698Y4232900D01*
X20004421Y4179998D01*
X19966862Y4134232D01*
X19959093Y4127758D01*
X19005000Y3173666D01*
X19005000Y2345000D01*
D02*
G37*
%LPC*%
G36*
X-400000Y4600000D02*
X-1100000Y4600000D01*
X-1100000Y5500000D01*
X-400000Y5500000D01*
X-400000Y4600000D01*
D02*
G37*
%LPC*%
G36*
X14200004Y4599998D02*
X13300004Y4599998D01*
X13300004Y5399998D01*
X14200004Y5399998D01*
X14200004Y4599998D01*
D02*
G37*
%LPC*%
G36*
X22760000Y100000D02*
X21705271Y100000D01*
X22253769Y1050000D01*
X22760000Y1050000D01*
X22760000Y100000D01*
D02*
G37*
%LPC*%
G36*
X-22960000Y100000D02*
X-24014729Y100000D01*
X-23466231Y1050000D01*
X-22960000Y1050000D01*
X-22960000Y100000D01*
D02*
G37*
%LPC*%
G36*
X-21705271Y100000D02*
X-22760000Y100000D01*
X-22760000Y1050000D01*
X-22253769Y1050000D01*
X-21705271Y100000D01*
D02*
G37*
%LPC*%
G36*
X24014729Y100000D02*
X22960000Y100000D01*
X22960000Y1050000D01*
X23466231Y1050000D01*
X24014729Y100000D01*
D02*
G37*
%LPC*%
G36*
X24014729Y-100000D02*
X23466231Y-1050000D01*
X22960000Y-1050000D01*
X22960000Y-100000D01*
X24014729Y-100000D01*
D02*
G37*
%LPC*%
G36*
X22760000Y-1050000D02*
X22253769Y-1050000D01*
X21705271Y-100000D01*
X22760000Y-100000D01*
X22760000Y-1050000D01*
D02*
G37*
%LPC*%
G36*
X-21705271Y-100000D02*
X-22253769Y-1050000D01*
X-22760000Y-1050000D01*
X-22760000Y-100000D01*
X-21705271Y-100000D01*
D02*
G37*
%LPC*%
G36*
X-22960000Y-1050000D02*
X-23466231Y-1050000D01*
X-24014729Y-100000D01*
X-22960000Y-100000D01*
X-22960000Y-1050000D01*
D02*
G37*
%LPD*%
G36*
X1710833Y6005000D02*
X1745579Y6070003D01*
X1783137Y6115767D01*
X1790906Y6122241D01*
X3377798Y7709133D01*
X3384272Y7716902D01*
X3430038Y7754461D01*
X3482940Y7782738D01*
X3540340Y7800152D01*
X3589963Y7805040D01*
X5514749Y7805040D01*
X5570157Y7915116D01*
X5529896Y7969404D01*
X5504402Y8011935D01*
X5483203Y8056759D01*
X5466499Y8103442D01*
X5454450Y8151549D01*
X5447176Y8200585D01*
X5444742Y8250109D01*
X5447176Y8299633D01*
X5454450Y8348669D01*
X5466499Y8396776D01*
X5483203Y8443459D01*
X5504402Y8488283D01*
X5529893Y8530809D01*
X5559428Y8570632D01*
X5592726Y8607372D01*
X5629465Y8640671D01*
X5669293Y8670207D01*
X5711814Y8695695D01*
X5756640Y8716896D01*
X5803323Y8733600D01*
X5851430Y8745649D01*
X5900466Y8752923D01*
X5949990Y8755357D01*
X5999514Y8752923D01*
X6048550Y8745649D01*
X6096657Y8733600D01*
X6143340Y8716896D01*
X6188166Y8695695D01*
X6230687Y8670207D01*
X6270515Y8640671D01*
X6307254Y8607372D01*
X6354621Y8555109D01*
X9427354Y8555109D01*
X9943780Y9071535D01*
X9892640Y9194998D01*
X1363680Y9194998D01*
X1205000Y9239227D01*
X1205000Y6005000D01*
X1710833Y6005000D01*
D02*
G37*
%LPD*%
G36*
X-20149997Y13795800D02*
X-18299997Y17000000D01*
X-19968588Y19890000D01*
X-24031405Y19890000D01*
X-24890000Y18402914D01*
X-24890000Y15597086D01*
X-23849996Y13795800D01*
X-20149997Y13795800D01*
D02*
G37*
%LPC*%
G36*
X-22000000Y15294874D02*
X-22167133Y15303085D01*
X-22332658Y15327639D01*
X-22494968Y15368296D01*
X-22652523Y15424669D01*
X-22803793Y15496214D01*
X-22947315Y15582238D01*
X-23081723Y15681922D01*
X-23205706Y15794294D01*
X-23318078Y15918277D01*
X-23417762Y16052685D01*
X-23503786Y16196207D01*
X-23575331Y16347477D01*
X-23631704Y16505032D01*
X-23672361Y16667342D01*
X-23696915Y16832867D01*
X-23705126Y17000000D01*
X-23696915Y17167133D01*
X-23672361Y17332658D01*
X-23631704Y17494968D01*
X-23575331Y17652523D01*
X-23503786Y17803793D01*
X-23417762Y17947315D01*
X-23318078Y18081723D01*
X-23205706Y18205706D01*
X-23081723Y18318078D01*
X-22947315Y18417762D01*
X-22803793Y18503786D01*
X-22652523Y18575331D01*
X-22494968Y18631704D01*
X-22332658Y18672361D01*
X-22167133Y18696915D01*
X-22000000Y18705126D01*
X-21832867Y18696915D01*
X-21667342Y18672361D01*
X-21505032Y18631704D01*
X-21347477Y18575331D01*
X-21196207Y18503786D01*
X-21052686Y18417762D01*
X-20918278Y18318078D01*
X-20794294Y18205707D01*
X-20681922Y18081722D01*
X-20582238Y17947314D01*
X-20496214Y17803793D01*
X-20424669Y17652523D01*
X-20368296Y17494968D01*
X-20327639Y17332658D01*
X-20303085Y17167133D01*
X-20294874Y17000000D01*
X-20303085Y16832867D01*
X-20327639Y16667342D01*
X-20368296Y16505032D01*
X-20424669Y16347477D01*
X-20496214Y16196207D01*
X-20582238Y16052685D01*
X-20681922Y15918277D01*
X-20794294Y15794294D01*
X-20918277Y15681922D01*
X-21052685Y15582238D01*
X-21196207Y15496214D01*
X-21347477Y15424669D01*
X-21505032Y15368296D01*
X-21667342Y15327639D01*
X-21832867Y15303085D01*
X-22000000Y15294874D01*
D02*
G37*
%LPD*%
G36*
X23850003Y13795800D02*
X24890000Y15597074D01*
X24890000Y18402926D01*
X24031412Y19890000D01*
X19968595Y19890000D01*
X18300004Y17000000D01*
X20150004Y13795800D01*
X23850003Y13795800D01*
D02*
G37*
%LPC*%
G36*
X22000000Y15294874D02*
X21832867Y15303085D01*
X21667342Y15327639D01*
X21505032Y15368296D01*
X21347477Y15424669D01*
X21196207Y15496214D01*
X21052685Y15582238D01*
X20918277Y15681922D01*
X20794294Y15794294D01*
X20681922Y15918277D01*
X20582238Y16052685D01*
X20496214Y16196207D01*
X20424669Y16347477D01*
X20368296Y16505032D01*
X20327639Y16667342D01*
X20303085Y16832867D01*
X20294874Y17000000D01*
X20303085Y17167133D01*
X20327639Y17332658D01*
X20368296Y17494968D01*
X20424669Y17652523D01*
X20496214Y17803793D01*
X20582238Y17947315D01*
X20681922Y18081723D01*
X20794294Y18205706D01*
X20918277Y18318078D01*
X21052685Y18417762D01*
X21196207Y18503786D01*
X21347477Y18575331D01*
X21505032Y18631704D01*
X21667342Y18672361D01*
X21832867Y18696915D01*
X22000000Y18705126D01*
X22167133Y18696915D01*
X22332658Y18672361D01*
X22494968Y18631704D01*
X22652523Y18575331D01*
X22803793Y18503786D01*
X22947314Y18417762D01*
X23081722Y18318078D01*
X23205706Y18205707D01*
X23318078Y18081722D01*
X23417762Y17947314D01*
X23503786Y17803793D01*
X23575331Y17652523D01*
X23631704Y17494968D01*
X23672361Y17332658D01*
X23696915Y17167133D01*
X23705126Y17000000D01*
X23696915Y16832867D01*
X23672361Y16667342D01*
X23631704Y16505032D01*
X23575331Y16347477D01*
X23503786Y16196207D01*
X23417762Y16052685D01*
X23318078Y15918277D01*
X23205706Y15794294D01*
X23081723Y15681922D01*
X22947315Y15582238D01*
X22803793Y15496214D01*
X22652523Y15424669D01*
X22494968Y15368296D01*
X22332658Y15327639D01*
X22167133Y15303085D01*
X22000000Y15294874D01*
D02*
G37*
G01*
%LPD*%
D15*
X7584620Y2915380D02*
X8051790Y2915380D01*
D15*
X11115198Y6600020D02*
X12565199Y8050021D01*
D15*
X-300000Y5600000D02*
X-1000000Y5600000D01*
D15*
X13750000Y9000000D02*
X16500000Y11750000D01*
D15*
X12751599Y7600011D02*
X15600011Y7600011D01*
D15*
X5300000Y5000000D02*
X5300000Y5900000D01*
D15*
X4605760Y3405760D02*
X4425000Y3405760D01*
D15*
X6786421Y6150010D02*
X11301598Y6150010D01*
D15*
X17750000Y6750000D02*
X18000000Y6750000D01*
D16*
X18788466Y1531534D02*
X19627035Y692965D01*
D15*
X2599987Y11650013D02*
X10453563Y11650013D01*
D15*
X-9958223Y12011202D02*
X-6511202Y12011202D01*
D15*
X8886410Y3750000D02*
X10117796Y3750000D01*
D15*
X15949979Y9250000D02*
X16500000Y9250000D01*
D15*
X10742398Y7500040D02*
X12242358Y9000000D01*
D15*
X11574572Y4200974D02*
X11830575Y4456977D01*
D15*
X-2750000Y2750000D02*
X6037998Y2750000D01*
D16*
X-11561534Y16438466D02*
X-13500000Y14500000D01*
D15*
X8051790Y2915380D02*
X8886410Y3750000D01*
D15*
X-2200009Y8890754D02*
X-1900010Y8590755D01*
D15*
X10041482Y3012555D02*
X11229901Y4200974D01*
D15*
X-1000000Y5600000D02*
X-2285905Y4314095D01*
D15*
X2250000Y12000000D02*
X1499990Y12750010D01*
D15*
X2000000Y5900000D02*
X3600040Y7500040D01*
D15*
X10928798Y7050030D02*
X12378799Y8500031D01*
D15*
X9068205Y3012555D02*
X10041482Y3012555D01*
D15*
X2820987Y3820987D02*
X-1168202Y3820987D01*
D15*
X5300000Y4100000D02*
X4950000Y3750000D01*
D15*
X-6511202Y12011202D02*
X-3390754Y8890754D01*
D15*
X16250000Y1531534D02*
X16250000Y2150000D01*
D16*
X-22860000Y2540000D02*
X-21328466Y4071534D01*
D15*
X13550010Y3800010D02*
X13300000Y3550000D01*
D15*
X4200000Y5000000D02*
X4200000Y6200000D01*
D15*
X-2285905Y4314095D02*
X-2285905Y3462451D01*
D15*
X8349990Y3849990D02*
X8600000Y4100000D01*
D15*
X1063368Y11665164D02*
X1363367Y11965163D01*
D15*
X9553689Y8250109D02*
X6374254Y8250109D01*
D15*
X6400000Y5000000D02*
X6400000Y5763589D01*
D15*
X3100000Y4100000D02*
X2820987Y3820987D01*
D16*
X-6621534Y16438466D02*
X-11561534Y16438466D01*
D15*
X16250000Y2150000D02*
X16550000Y2450000D01*
D16*
X21778476Y2540000D02*
X21328466Y2990010D01*
D15*
X11750000Y9810010D02*
X10500000Y8560010D01*
D15*
X3100000Y5000000D02*
X3100000Y4100000D01*
D16*
X21328466Y8628466D02*
X22167035Y9467035D01*
D15*
X6437999Y3150001D02*
X6900001Y3150001D01*
D15*
X15600010Y3900010D02*
X14700000Y3000000D01*
D16*
X-18788466Y1531534D02*
X500000Y1531534D01*
D15*
X12565199Y8050021D02*
X14750000Y8050021D01*
D15*
X10453563Y11650013D02*
X10600019Y11503557D01*
D15*
X12750000Y1531534D02*
X12750000Y2450000D01*
D15*
X10600019Y9296439D02*
X9553689Y8250109D01*
D15*
X12750000Y2450000D02*
X13300000Y3000000D01*
D15*
X12378799Y8500031D02*
X14500031Y8500031D01*
D15*
X17079290Y5029290D02*
X17079290Y4589475D01*
D15*
X2250000Y12000000D02*
X2599987Y11650013D01*
D16*
X-13500000Y14500000D02*
X-13500000Y9550000D01*
D15*
X18000000Y5950000D02*
X17500000Y5450000D01*
D15*
X1499990Y12750010D02*
X429152Y12750010D01*
D16*
X22167035Y9467035D02*
X22860000Y10160000D01*
D15*
X10400000Y5700000D02*
X11487998Y5700000D01*
D15*
X18000000Y9250000D02*
X18000000Y10500000D01*
D15*
X13250000Y6500000D02*
X14250000Y6500000D01*
D16*
X-5020000Y15500000D02*
X-2550000Y17970000D01*
D15*
X17079290Y4589475D02*
X16389825Y3900010D01*
D15*
X17500000Y5450000D02*
X17079290Y5029290D01*
D15*
X6645004Y3600012D02*
X5968756Y3600012D01*
D15*
X-1098356Y3349998D02*
X3449998Y3349998D01*
D15*
X-1250000Y6250000D02*
X-1750000Y5750000D01*
D15*
X-750000Y11570858D02*
X-750000Y7250000D01*
D15*
X16389825Y3900010D02*
X15600010Y3900010D01*
D15*
X3449998Y3349998D02*
X3500000Y3400000D01*
D15*
X11218771Y4850975D02*
X11285775Y4850975D01*
D15*
X4200000Y5000000D02*
X4200000Y4100000D01*
D15*
X16500000Y8000000D02*
X17750000Y6750000D01*
D16*
X-13500000Y9550000D02*
X-15400000Y7650000D01*
D15*
X-1750000Y5750000D02*
X-2500000Y5750000D01*
D15*
X-1197236Y3850021D02*
X-1621500Y3850021D01*
D15*
X900000Y11501796D02*
X1063368Y11665164D01*
D15*
X5300000Y5000000D02*
X5300000Y4100000D01*
D15*
X16500000Y8000000D02*
X17750000Y9250000D01*
D15*
X6900001Y3150001D02*
X7599990Y3849990D01*
D15*
X5300000Y5900000D02*
X6000020Y6600020D01*
D15*
X14500031Y8500031D02*
X16500000Y10500000D01*
D15*
X-2500000Y5750000D02*
X-2937503Y5312497D01*
D16*
X-13500000Y6000000D02*
X-8750000Y6000000D01*
D15*
X11301598Y6150010D02*
X12751599Y7600011D01*
D15*
X12242358Y9000000D02*
X13750000Y9000000D01*
D15*
X19750000Y5000000D02*
X19750000Y4350000D01*
D15*
X-2285905Y3462451D02*
X-2023465Y3200011D01*
D15*
X17750000Y9250000D02*
X18000000Y9250000D01*
D15*
X7599990Y3849990D02*
X8349990Y3849990D01*
D15*
X10600019Y11503557D02*
X10600019Y9296439D01*
D15*
X4088028Y7050030D02*
X10928798Y7050030D01*
D16*
X-7750000Y6500000D02*
X-8500000Y5750000D01*
D15*
X5968756Y3600012D02*
X5934372Y3565628D01*
D15*
X13300000Y3550000D02*
X13300000Y3000000D01*
D15*
X2000000Y5000000D02*
X2000000Y5900000D01*
D15*
X-1248343Y3200011D02*
X-1098356Y3349998D01*
D16*
X-21328466Y4071534D02*
X-21328466Y8628466D01*
D15*
X16550000Y2450000D02*
X16550000Y3050000D01*
D16*
X16250000Y1531534D02*
X18788466Y1531534D01*
D16*
X12750000Y1531534D02*
X13250000Y1531534D01*
D15*
X-2023465Y3200011D02*
X-1248343Y3200011D01*
D15*
X3100000Y5000000D02*
X3100000Y6062002D01*
D15*
X3600040Y7500040D02*
X10742398Y7500040D01*
D15*
X19750000Y4350000D02*
X18450000Y3050000D01*
D15*
X4200000Y6200000D02*
X4204805Y6204805D01*
D15*
X-3363590Y9500000D02*
X-1900010Y9500000D01*
D15*
X10117796Y3750000D02*
X11218771Y4850975D01*
D16*
X500000Y1531534D02*
X11500000Y1531534D01*
D15*
X9700000Y5000000D02*
X10400000Y5700000D01*
D15*
X14300004Y6449996D02*
X14300004Y5499998D01*
D15*
X14750000Y8050021D02*
X15949979Y9250000D01*
D15*
X16183344Y4655531D02*
X15719121Y4655531D01*
D15*
X-750000Y7250000D02*
X-1250000Y6750000D01*
D16*
X21328466Y2990010D02*
X21328466Y8628466D01*
D15*
X15600011Y7600011D02*
X16000000Y8000000D01*
D15*
X6000020Y6600020D02*
X11115198Y6600020D01*
D16*
X-5090000Y17970000D02*
X-6621534Y16438466D01*
D15*
X-7263590Y13400000D02*
X-3363590Y9500000D01*
D15*
X18000000Y10500000D02*
X18000000Y11750000D01*
D15*
X-2937503Y5126875D02*
X-2937503Y4702611D01*
D15*
X18000000Y6750000D02*
X18000000Y5950000D01*
D15*
X-1250000Y6750000D02*
X-1250000Y6250000D01*
D15*
X14863600Y3800010D02*
X13550010Y3800010D01*
D15*
X11750000Y12349990D02*
X11750000Y9810010D01*
D15*
X16000000Y8000000D02*
X16500000Y8000000D01*
D15*
X12937999Y7150001D02*
X16099999Y7150001D01*
D16*
X11500000Y1531534D02*
X12750000Y1531534D01*
D15*
X8600000Y4100000D02*
X8600000Y5000000D01*
D16*
X19627035Y692965D02*
X20320000Y0D01*
D16*
X-11250000Y15500000D02*
X-5020000Y15500000D01*
D16*
X-8750000Y6000000D02*
X-8500000Y5750000D01*
D15*
X6400000Y5763589D02*
X6786421Y6150010D01*
D15*
X429152Y12750010D02*
X-750000Y11570858D01*
D15*
X4200000Y4100000D02*
X3500000Y3400000D01*
D15*
X11487998Y5700000D02*
X12937999Y7150001D01*
D15*
X-3390754Y8890754D02*
X-2200009Y8890754D01*
D16*
X-22167035Y9467035D02*
X-22860000Y10160000D01*
D15*
X14250000Y6500000D02*
X14300004Y6449996D01*
D15*
X11229901Y4200974D02*
X11574572Y4200974D01*
D15*
X15719121Y4655531D02*
X14863600Y3800010D01*
D16*
X-21328466Y8628466D02*
X-22167035Y9467035D01*
D15*
X-10500000Y13400000D02*
X-7263590Y13400000D01*
D15*
X6374254Y8250109D02*
X5949990Y8250109D01*
D15*
X7500000Y4455008D02*
X6645004Y3600012D01*
D15*
X900000Y5000000D02*
X900000Y11501796D01*
D15*
X11830575Y4456977D02*
X12130574Y4756976D01*
D15*
X-2937503Y5312497D02*
X-2937503Y5126875D01*
D15*
X-1168202Y3820987D02*
X-1197236Y3850021D01*
D15*
X6037998Y2750000D02*
X6437999Y3150001D01*
D16*
X22860000Y2540000D02*
X21778476Y2540000D01*
D16*
X-20320000Y0D02*
X-18788466Y1531534D01*
D15*
X3100000Y6062002D02*
X4088028Y7050030D01*
D15*
X10500000Y8560010D02*
X10500000Y8250000D01*
D15*
X5300000Y4100000D02*
X4605760Y3405760D01*
D16*
X13250000Y1531534D02*
X16250000Y1531534D01*
D15*
X7500000Y5000000D02*
X7500000Y4455008D01*
D16*
X-2000000Y6500000D02*
X-7750000Y6500000D01*
D15*
X16099999Y7150001D02*
X16500000Y6750000D01*
G75*
D10*
X-16510000Y-8890000D03*
D10*
X21590000Y-19050000D03*
D11*
X17780000Y-17780000D03*
D10*
X19050000Y-26670000D03*
D10*
X-11430000Y-3810000D03*
D11*
X22860000Y-5080000D03*
D11*
X12700000Y-17780000D03*
D11*
X-15240000Y-12700000D03*
D11*
X-7620000Y-12700000D03*
D11*
X12700000Y-20320000D03*
D12*
X11430000Y-29210000D03*
D10*
X11430000Y-13970000D03*
D11*
X7620000Y-27940000D03*
D12*
X-13970000Y-29210000D03*
D10*
X3810000Y-8890000D03*
D10*
X-3810000Y-13970000D03*
D11*
X-17780000Y-5080000D03*
D12*
X-3810000Y-29210000D03*
D13*
X-24130000Y-6350000D03*
D11*
X10160000Y-7620000D03*
D10*
X-3810000Y-11430000D03*
D10*
X-8890000Y-21590000D03*
D10*
X13970000Y-16510000D03*
D11*
X7620000Y-15240000D03*
D10*
X16510000Y-8890000D03*
D10*
X-1270000Y-21590000D03*
D10*
X21590000Y-8890000D03*
D10*
X19050000Y-16510000D03*
D10*
X-8890000Y-13970000D03*
D12*
X21590000Y-24130000D03*
D11*
X-10160000Y-20320000D03*
D10*
X8890000Y-13970000D03*
D11*
X-20320000Y-12700000D03*
D11*
X12700000Y-25400000D03*
D10*
X-16510000Y-19050000D03*
D11*
X-12700000Y-12700000D03*
D11*
X22860000Y-10160000D03*
D10*
X-3810000Y-8890000D03*
D10*
X19050000Y-11430000D03*
D10*
X-11430000Y-24130000D03*
D11*
X12700000Y-27940000D03*
D10*
X13970000Y-26670000D03*
D10*
X-6350000Y-16510000D03*
D11*
X10160000Y-10160000D03*
D10*
X-13970000Y-13970000D03*
D10*
X-8890000Y-24130000D03*
D10*
X-1270000Y-26670000D03*
D11*
X20320000Y-10160000D03*
D11*
X20320000Y-17780000D03*
D10*
X6350000Y-6350000D03*
D11*
X22860000Y-22860000D03*
D10*
X24130000Y-8890000D03*
D11*
X-10160000Y-5080000D03*
D10*
X24130000Y-16510000D03*
D10*
X19050000Y-21590000D03*
D10*
X3810000Y-19050000D03*
D11*
X0Y-25400000D03*
D11*
X5080000Y-7620000D03*
D11*
X-17780000Y-12700000D03*
D10*
X8890000Y-21590000D03*
D10*
X-3810000Y-3810000D03*
D11*
X-22860000Y-10160000D03*
D10*
X-16510000Y-6350000D03*
D10*
X-6350000Y-19050000D03*
D10*
X-13970000Y-24130000D03*
D10*
X-8890000Y-19050000D03*
D10*
X3810000Y-16510000D03*
D11*
X-20320000Y-15240000D03*
D11*
X10160000Y-12700000D03*
D12*
X-1270000Y-29210000D03*
D10*
X1270000Y-8890000D03*
D12*
X6350000Y-29210000D03*
D11*
X-5080000Y-5080000D03*
D10*
X-6350000Y-21590000D03*
D11*
X17780000Y-12700000D03*
D11*
X-15240000Y-15240000D03*
D11*
X7620000Y-5080000D03*
D11*
X-12700000Y-10160000D03*
D10*
X-1270000Y-3810000D03*
D10*
X-8890000Y-8890000D03*
D11*
X10160000Y-22860000D03*
D11*
X2540000Y-22860000D03*
D11*
X-12700000Y-22860000D03*
D11*
X-20320000Y-10160000D03*
D10*
X-13970000Y-8890000D03*
D10*
X-21590000Y-6350000D03*
D11*
X20320000Y-20320000D03*
D11*
X-5080000Y-7620000D03*
D11*
X17780000Y-7620000D03*
D12*
X-8890000Y-29210000D03*
D11*
X-2540000Y-20320000D03*
D11*
X-7620000Y-22860000D03*
D11*
X22860000Y-17780000D03*
D11*
X-5080000Y-20320000D03*
D10*
X-11430000Y-6350000D03*
D10*
X-3810000Y-19050000D03*
D13*
X-24130000Y-8890000D03*
D11*
X5080000Y-20320000D03*
D11*
X5080000Y-27940000D03*
D11*
X20320000Y-22860000D03*
D11*
X-10160000Y-10160000D03*
D10*
X16510000Y-21590000D03*
D11*
X17780000Y-5080000D03*
D11*
X20320000Y-12700000D03*
D10*
X-6350000Y-8890000D03*
D11*
X2540000Y-12700000D03*
D11*
X-12700000Y-15240000D03*
D11*
X-17780000Y-17780000D03*
D10*
X13970000Y-3810000D03*
D11*
X-12700000Y-5080000D03*
D10*
X3810000Y-26670000D03*
D10*
X-8890000Y-26670000D03*
D11*
X-15240000Y-27940000D03*
D10*
X-11430000Y-26670000D03*
D11*
X-7620000Y-27940000D03*
D10*
X6350000Y-3810000D03*
D11*
X5080000Y-17780000D03*
D10*
X-3810000Y-6350000D03*
D10*
X13970000Y-24130000D03*
D10*
X-19050000Y-3810000D03*
D11*
X-22860000Y-12700000D03*
D11*
X-5080000Y-25400000D03*
D11*
X-17780000Y-7620000D03*
D11*
X-20320000Y-5080000D03*
D10*
X-16510000Y-21590000D03*
D11*
X-15240000Y-25400000D03*
D10*
X24130000Y-21590000D03*
D10*
X8890000Y-6350000D03*
D10*
X-6350000Y-6350000D03*
D10*
X8890000Y-26670000D03*
D11*
X-15240000Y-20320000D03*
D11*
X-20320000Y-22860000D03*
D10*
X6350000Y-13970000D03*
D10*
X-1270000Y-8890000D03*
D11*
X7620000Y-22860000D03*
D11*
X-22860000Y-5080000D03*
D10*
X-13970000Y-11430000D03*
D11*
X-2540000Y-5080000D03*
D11*
X15240000Y-7620000D03*
D11*
X-2540000Y-25400000D03*
D11*
X-10160000Y-25400000D03*
D11*
X-17780000Y-25400000D03*
D12*
X3810000Y-29210000D03*
D11*
X0Y-5080000D03*
D10*
X13970000Y-11430000D03*
D11*
X15240000Y-27940000D03*
D11*
X12700000Y-5080000D03*
D11*
X-7620000Y-10160000D03*
D10*
X11430000Y-3810000D03*
D10*
X-6350000Y-11430000D03*
D10*
X3810000Y-6350000D03*
D12*
X24130000Y-24130000D03*
D10*
X-3810000Y-26670000D03*
D11*
X17780000Y-27940000D03*
D11*
X2540000Y-27940000D03*
D12*
X19050000Y-29210000D03*
D10*
X-6350000Y-3810000D03*
D10*
X-11430000Y-8890000D03*
D10*
X21590000Y-11430000D03*
D10*
X-21590000Y-11430000D03*
D10*
X11430000Y-6350000D03*
D11*
X-10160000Y-27940000D03*
D10*
X16510000Y-16510000D03*
D11*
X7620000Y-7620000D03*
D10*
X1270000Y-16510000D03*
D10*
X-3810000Y-16510000D03*
D10*
X-6350000Y-26670000D03*
D11*
X-7620000Y-17780000D03*
D11*
X-15240000Y-7620000D03*
D10*
X1270000Y-11430000D03*
D11*
X-5080000Y-22860000D03*
D13*
X-24130000Y-3810000D03*
D11*
X-10160000Y-15240000D03*
D11*
X17780000Y-20320000D03*
D11*
X15240000Y-25400000D03*
D11*
X10160000Y-27940000D03*
D10*
X16510000Y-26670000D03*
D10*
X-8890000Y-3810000D03*
D10*
X21590000Y-16510000D03*
D11*
X12700000Y-10160000D03*
D10*
X-13970000Y-21590000D03*
D11*
X22860000Y-20320000D03*
D10*
X1270000Y-26670000D03*
D10*
X-8890000Y-16510000D03*
D10*
X-1270000Y-6350000D03*
D11*
X7620000Y-17780000D03*
D11*
X10160000Y-17780000D03*
D12*
X-6350000Y-29210000D03*
D13*
X-24130000Y-21590000D03*
D10*
X16510000Y-3810000D03*
D11*
X0Y-12700000D03*
D10*
X19050000Y-13970000D03*
D10*
X-13970000Y-3810000D03*
D11*
X-7620000Y-5080000D03*
D11*
X-10160000Y-7620000D03*
D10*
X24130000Y-19050000D03*
D10*
X-11430000Y-16510000D03*
D13*
X-24130000Y-11430000D03*
D11*
X-17780000Y-10160000D03*
D11*
X-15240000Y-22860000D03*
D10*
X8890000Y-16510000D03*
D11*
X-10160000Y-12700000D03*
D10*
X13970000Y-6350000D03*
D10*
X-1270000Y-13970000D03*
D10*
X-16510000Y-11430000D03*
D11*
X15240000Y-15240000D03*
D11*
X-2540000Y-22860000D03*
D10*
X-19050000Y-13970000D03*
D10*
X1270000Y-6350000D03*
D11*
X12700000Y-22860000D03*
D11*
X20320000Y-5080000D03*
D10*
X6350000Y-24130000D03*
D10*
X-19050000Y-21590000D03*
D11*
X22860000Y-7620000D03*
D11*
X15240000Y-20320000D03*
D10*
X-21590000Y-13970000D03*
D11*
X10160000Y-15240000D03*
D11*
X0Y-17780000D03*
D10*
X-16510000Y-16510000D03*
D11*
X-15240000Y-10160000D03*
D11*
X5080000Y-15240000D03*
D10*
X6350000Y-8890000D03*
D11*
X2540000Y-17780000D03*
D10*
X-1270000Y-24130000D03*
D10*
X-11430000Y-21590000D03*
D10*
X1270000Y-3810000D03*
D10*
X11430000Y-11430000D03*
D10*
X16510000Y-24130000D03*
D11*
X-22860000Y-7620000D03*
D11*
X0Y-22860000D03*
D10*
X-16510000Y-3810000D03*
D10*
X8890000Y-3810000D03*
D10*
X21590000Y-6350000D03*
D10*
X-11430000Y-19050000D03*
D11*
X5080000Y-12700000D03*
D11*
X17780000Y-15240000D03*
D10*
X-13970000Y-16510000D03*
D11*
X0Y-20320000D03*
D11*
X2540000Y-15240000D03*
D10*
X6350000Y-19050000D03*
D11*
X-2540000Y-27940000D03*
D11*
X-2540000Y-12700000D03*
D10*
X3810000Y-13970000D03*
D10*
X-13970000Y-6350000D03*
D10*
X16510000Y-19050000D03*
D11*
X22860000Y-15240000D03*
D11*
X-7620000Y-15240000D03*
D10*
X8890000Y-19050000D03*
D11*
X2540000Y-10160000D03*
D10*
X-21590000Y-19050000D03*
D11*
X-12700000Y-7620000D03*
D10*
X-21590000Y-3810000D03*
D10*
X-6350000Y-13970000D03*
D11*
X5080000Y-22860000D03*
D11*
X-10160000Y-17780000D03*
D10*
X19050000Y-19050000D03*
D12*
X-11430000Y-29210000D03*
D10*
X19050000Y-24130000D03*
D10*
X13970000Y-21590000D03*
D11*
X2540000Y-7620000D03*
D10*
X-16510000Y-24130000D03*
D11*
X10160000Y-25400000D03*
D10*
X-13970000Y-26670000D03*
D10*
X-21590000Y-8890000D03*
D10*
X21590000Y-3810000D03*
D10*
X-1270000Y-16510000D03*
D12*
X-21590000Y-24130000D03*
D11*
X0Y-10160000D03*
D10*
X3810000Y-11430000D03*
D10*
X-3810000Y-24130000D03*
D11*
X-2540000Y-10160000D03*
D12*
X-16510000Y-29210000D03*
D11*
X15240000Y-22860000D03*
D11*
X-12700000Y-25400000D03*
D11*
X-7620000Y-20320000D03*
D11*
X-17780000Y-27940000D03*
D11*
X-7620000Y-25400000D03*
D10*
X11430000Y-16510000D03*
D10*
X-19050000Y-19050000D03*
D10*
X1270000Y-24130000D03*
D10*
X21590000Y-13970000D03*
D11*
X-5080000Y-15240000D03*
D10*
X6350000Y-11430000D03*
D10*
X6350000Y-21590000D03*
D11*
X-2540000Y-15240000D03*
D10*
X-1270000Y-19050000D03*
D11*
X-20320000Y-20320000D03*
D10*
X6350000Y-26670000D03*
D10*
X13970000Y-13970000D03*
D10*
X24130000Y-11430000D03*
D10*
X-19050000Y-6350000D03*
D11*
X15240000Y-10160000D03*
D10*
X-11430000Y-11430000D03*
D10*
X8890000Y-11430000D03*
D10*
X-8890000Y-6350000D03*
D10*
X6350000Y-16510000D03*
D11*
X2540000Y-5080000D03*
D11*
X-12700000Y-17780000D03*
D10*
X-8890000Y-11430000D03*
D13*
X-19050000Y-26670000D03*
D10*
X-19050000Y-24130000D03*
D10*
X-21590000Y-16510000D03*
D10*
X-13970000Y-19050000D03*
D10*
X1270000Y-19050000D03*
D10*
X-6350000Y-24130000D03*
D11*
X-20320000Y-7620000D03*
D10*
X11430000Y-24130000D03*
D10*
X-19050000Y-8890000D03*
D10*
X13970000Y-8890000D03*
D11*
X12700000Y-12700000D03*
D10*
X-19050000Y-16510000D03*
D13*
X-24130000Y-13970000D03*
D11*
X-5080000Y-10160000D03*
D11*
X7620000Y-20320000D03*
D11*
X5080000Y-10160000D03*
D11*
X-17780000Y-20320000D03*
D11*
X20320000Y-15240000D03*
D11*
X-7620000Y-7620000D03*
D11*
X17780000Y-10160000D03*
D11*
X12700000Y-7620000D03*
D10*
X19050000Y-3810000D03*
D11*
X-5080000Y-12700000D03*
D11*
X-12700000Y-27940000D03*
D10*
X24130000Y-3810000D03*
D10*
X19050000Y-6350000D03*
D10*
X11430000Y-19050000D03*
D11*
X-15240000Y-5080000D03*
D11*
X7620000Y-25400000D03*
D11*
X-17780000Y-15240000D03*
D11*
X5080000Y-5080000D03*
D11*
X22860000Y-12700000D03*
D13*
X-24130000Y-19050000D03*
D10*
X1270000Y-21590000D03*
D11*
X-12700000Y-20320000D03*
D10*
X-1270000Y-11430000D03*
D10*
X-21590000Y-21590000D03*
D11*
X17780000Y-25400000D03*
D11*
X7620000Y-12700000D03*
D11*
X-2540000Y-17780000D03*
D11*
X0Y-7620000D03*
D11*
X-22860000Y-15240000D03*
D10*
X24130000Y-13970000D03*
D10*
X11430000Y-8890000D03*
D11*
X0Y-15240000D03*
D10*
X1270000Y-13970000D03*
D11*
X15240000Y-5080000D03*
D10*
X16510000Y-6350000D03*
D10*
X11430000Y-26670000D03*
D10*
X24130000Y-6350000D03*
D11*
X-22860000Y-22860000D03*
D11*
X-10160000Y-22860000D03*
D10*
X3810000Y-3810000D03*
D10*
X-16510000Y-13970000D03*
D10*
X13970000Y-19050000D03*
D10*
X21590000Y-21590000D03*
D10*
X-3810000Y-21590000D03*
D11*
X2540000Y-20320000D03*
D11*
X5080000Y-25400000D03*
D10*
X16510000Y-13970000D03*
D10*
X8890000Y-24130000D03*
D11*
X10160000Y-5080000D03*
D14*
X-24130000Y-24130000D03*
D11*
X-20320000Y-17780000D03*
D11*
X-15240000Y-17780000D03*
D11*
X-5080000Y-27940000D03*
D11*
X17780000Y-22860000D03*
D11*
X-5080000Y-17780000D03*
D11*
X7620000Y-10160000D03*
D12*
X13970000Y-29210000D03*
D10*
X-16510000Y-26670000D03*
D11*
X20320000Y-7620000D03*
D12*
X1270000Y-29210000D03*
D10*
X-11430000Y-13970000D03*
D11*
X-22860000Y-20320000D03*
D11*
X15240000Y-17780000D03*
D11*
X-2540000Y-7620000D03*
D11*
X12700000Y-15240000D03*
D10*
X3810000Y-24130000D03*
D10*
X16510000Y-11430000D03*
D10*
X-19050000Y-11430000D03*
D13*
X-24130000Y-16510000D03*
D10*
X3810000Y-21590000D03*
D11*
X-22860000Y-17780000D03*
D11*
X0Y-27940000D03*
D10*
X19050000Y-8890000D03*
D10*
X8890000Y-8890000D03*
D12*
X16510000Y-29210000D03*
D12*
X8890000Y-29210000D03*
D11*
X10160000Y-20320000D03*
D11*
X15240000Y-12700000D03*
D11*
X-17780000Y-22860000D03*
D11*
X2540000Y-25400000D03*
D14*
X-19050000Y-29210000D03*
D10*
X11430000Y-21590000D03*
D17*
X18000000Y6750000D03*
D17*
X16500000Y6750000D03*
D18*
X17500000Y5450000D03*
D18*
X18450000Y3050000D03*
D18*
X16550000Y3050000D03*
D19*
X22860000Y2540000D03*
D19*
X22860000Y10160000D03*
D19*
X22860000Y7620000D03*
D19*
X22860000Y5080000D03*
D17*
X18000000Y11750000D03*
D17*
X16500000Y11750000D03*
D19*
X-22860000Y2540000D03*
D19*
X-22860000Y10160000D03*
D19*
X-22860000Y7620000D03*
D19*
X-22860000Y5080000D03*
D20*
X18000000Y8000000D03*
D20*
X16500000Y8000000D03*
D19*
X-10170000Y17970000D03*
D19*
X-2550000Y17970000D03*
D19*
X-5090000Y17970000D03*
D19*
X-12710000Y17970000D03*
D19*
X-7630000Y17970000D03*
D19*
X-15250000Y17970000D03*
D21*
X14700000Y3000000D03*
D22*
X13300000Y3000000D03*
D17*
X18000000Y10500000D03*
D17*
X16500000Y10500000D03*
D23*
X-15240000Y0D03*
D23*
X-7620000Y0D03*
D23*
X20320000Y0D03*
D23*
X0Y0D03*
D23*
X5080000Y0D03*
D23*
X17780000Y0D03*
D23*
X-22860000Y0D03*
D23*
X-20320000Y0D03*
D23*
X-12700000Y0D03*
D23*
X10160000Y0D03*
D23*
X-2540000Y0D03*
D23*
X22860000Y0D03*
D23*
X7620000Y0D03*
D23*
X-5080000Y0D03*
D23*
X2540000Y0D03*
D23*
X15240000Y0D03*
D23*
X12700000Y0D03*
D23*
X-17780000Y0D03*
D23*
X-10160000Y0D03*
D24*
X4200000Y5000000D03*
D25*
X-300000Y15099998D03*
D24*
X7500000Y5000000D03*
D25*
X15200000Y15099998D03*
D24*
X8600000Y5000000D03*
D24*
X900000Y5000000D03*
D24*
X5300000Y5000000D03*
D26*
X-300000Y5600000D03*
D24*
X2000000Y5000000D03*
D24*
X6400000Y5000000D03*
D24*
X9700000Y5000000D03*
D27*
X14300004Y5499998D03*
D24*
X3100000Y5000000D03*
D17*
X18000000Y9250000D03*
D17*
X16500000Y9250000D03*
D28*
X19488424Y16327714D03*
D29*
X10500000Y8250000D03*
D28*
X-24511576Y16327714D03*
D30*
X5949990Y8250109D03*
D28*
X23838299Y15161347D03*
D30*
X-2750000Y2750000D03*
D28*
X21326750Y14488680D03*
D29*
X-1540335Y10731065D03*
D28*
X-19488550Y17672768D03*
D30*
X-8500000Y5750000D03*
D29*
X13500000Y14250000D03*
D29*
X-2173407Y5075108D03*
D29*
X-16552909Y14554185D03*
D30*
X-10500000Y13400000D03*
D30*
X-13500000Y6000000D03*
D29*
X13250000Y6500000D03*
D29*
X-5075000Y12975000D03*
D30*
X12130574Y4756976D03*
D28*
X-23838828Y15161877D03*
D31*
X-1621500Y3850021D03*
D30*
X5934372Y3565628D03*
D30*
X1363367Y11965163D03*
D29*
X18695638Y4949028D03*
D28*
X-24511254Y17673491D03*
D29*
X5250000Y9000000D03*
D29*
X1250000Y-1000000D03*
D30*
X-9958223Y12011202D03*
D28*
X-20161701Y15161347D03*
D29*
X-6150000Y2525000D03*
D28*
X20161172Y15161877D03*
D30*
X7584620Y2915380D03*
D29*
X-500000Y17000000D03*
D29*
X11715306Y3561677D03*
D28*
X-23837946Y18839004D03*
D29*
X11750000Y12349990D03*
D29*
X-11600000Y13850000D03*
D29*
X6750000Y2500000D03*
D29*
X-9525000Y5100000D03*
D28*
X23838829Y18838123D03*
D30*
X9068205Y3012555D03*
D29*
X20750000Y10250000D03*
D29*
X5450000Y12275000D03*
D29*
X-13800000Y4325000D03*
D29*
X-15200000Y11375000D03*
D31*
X-2000000Y6500000D03*
D29*
X-9400000Y3475000D03*
D28*
X-22673250Y14488680D03*
D28*
X22673491Y19511254D03*
D29*
X-3475000Y14100000D03*
D28*
X-22672286Y19511576D03*
D31*
X-1900010Y8590755D03*
D28*
X22672768Y14488550D03*
D28*
X-20161171Y18838123D03*
D29*
X-1000000Y19000000D03*
D31*
X-1900010Y9500000D03*
D29*
X-2005702Y7744386D03*
D30*
X4425000Y3405760D03*
D28*
X21327714Y19511576D03*
D30*
X-11250000Y15500000D03*
D29*
X4204805Y6204805D03*
D29*
X-1250000Y-1000000D03*
D29*
X16750000Y17000000D03*
D30*
X2250000Y12000000D03*
D28*
X-21326509Y19511254D03*
D28*
X19488746Y17673491D03*
D29*
X-7725000Y10575000D03*
D29*
X22250000Y12250000D03*
D30*
X16183344Y4655531D03*
D29*
X19000000Y9500000D03*
D31*
X-2937503Y4702611D03*
D29*
X3500000Y3400000D03*
D28*
X24511450Y17672768D03*
D30*
X11285775Y4850975D03*
D29*
X-17250000Y9000000D03*
D29*
X-20481616Y3998413D03*
D30*
X-15400000Y7650000D03*
D28*
X20162054Y18839004D03*
D28*
X24511320Y16326750D03*
D30*
X19750000Y5000000D03*
D29*
X13250000Y11000000D03*
D28*
X-19488680Y16326750D03*
D29*
X-22250000Y12250000D03*
D28*
X-21327232Y14488550D03*
M02*
