M48
FMAT,2
METRIC,TZ
T4C0.300
T3C0.500
T2C1.000
T1C1.050
%
G90
G05
M71
T4
X10.500Y8.250
X5.950Y8.250
X-2.750Y2.750
X-2.500Y10.000
X-8.500Y5.750
X13.500Y14.250
X-2.173Y5.075
X-16.553Y14.554
X-10.725Y13.225
X-12.750Y6.150
X13.250Y6.500
X-5.075Y12.975
X12.131Y4.757
X-1.621Y3.850
X5.934Y3.566
X1.363Y11.965
X18.696Y4.949
X5.300Y8.950
X1.250Y-1.000
X-9.958Y12.011
X-6.150Y2.525
X7.585Y2.915
X-0.500Y17.000
X11.715Y3.562
X11.750Y12.350
X-11.600Y13.850
X6.750Y2.500
X-9.525Y5.100
X9.068Y3.013
X20.750Y10.250
X5.450Y12.275
X-13.800Y4.325
X-15.200Y11.375
X-1.975Y6.675
X-9.400Y3.475
X-3.475Y14.100
X-1.775Y8.475
X-1.000Y19.000
X-1.625Y10.125
X-1.956Y7.694
X4.425Y3.406
X-11.250Y15.500
X4.205Y6.205
X-1.250Y-1.000
X16.750Y17.000
X2.250Y12.000
X-7.725Y10.575
X22.250Y12.250
X16.183Y4.656
X19.000Y9.500
X-3.313Y4.428
X3.500Y3.400
X11.286Y4.851
X-17.250Y9.000
X-20.482Y3.998
X-15.400Y7.650
X19.750Y5.000
X13.250Y11.000
X-22.250Y12.250
T3
X19.488Y16.328
X-24.512Y16.328
X23.838Y15.161
X21.327Y14.489
X-19.489Y17.673
X-23.839Y15.162
X-24.511Y17.673
X-20.162Y15.161
X20.161Y15.162
X-23.838Y18.839
X23.839Y18.838
X-22.673Y14.489
X22.673Y19.511
X-22.672Y19.512
X22.673Y14.489
X-20.161Y18.838
X21.328Y19.512
X-21.327Y19.511
X19.489Y17.673
X24.511Y17.673
X20.162Y18.839
X24.511Y16.327
X-19.489Y16.327
X-21.327Y14.489
T2
X22.860Y2.540
X22.860Y10.160
X22.860Y7.620
X22.860Y5.080
X-22.860Y2.540
X-22.860Y10.160
X-22.860Y7.620
X-22.860Y5.080
X-10.170Y17.970
X-2.550Y17.970
X-5.090Y17.970
X-12.710Y17.970
X-7.630Y17.970
X-15.250Y17.970
X-15.240Y0.000
X-7.620Y0.000
X20.320Y0.000
X0.000Y0.000
X5.080Y0.000
X17.780Y0.000
X-22.860Y0.000
X-20.320Y0.000
X-12.700Y0.000
X10.160Y0.000
X-2.540Y0.000
X22.860Y0.000
X7.620Y0.000
X-5.080Y0.000
X2.540Y0.000
X15.240Y0.000
X12.700Y0.000
X-17.780Y0.000
X-10.160Y0.000
T1
X17.780Y-17.780
X22.860Y-5.080
X12.700Y-17.780
X-15.240Y-12.700
X-7.620Y-12.700
X12.700Y-20.320
X7.620Y-27.940
X-17.780Y-5.080
X10.160Y-7.620
X7.620Y-15.240
X-10.160Y-20.320
X-20.320Y-12.700
X12.700Y-25.400
X-12.700Y-12.700
X22.860Y-10.160
X12.700Y-27.940
X10.160Y-10.160
X20.320Y-10.160
X20.320Y-17.780
X22.860Y-22.860
X-10.160Y-5.080
X0.000Y-25.400
X5.080Y-7.620
X-17.780Y-12.700
X-22.860Y-10.160
X-20.320Y-15.240
X10.160Y-12.700
X-5.080Y-5.080
X17.780Y-12.700
X-15.240Y-15.240
X7.620Y-5.080
X-12.700Y-10.160
X10.160Y-22.860
X2.540Y-22.860
X-12.700Y-22.860
X-20.320Y-10.160
X20.320Y-20.320
X-5.080Y-7.620
X17.780Y-7.620
X-2.540Y-20.320
X-7.620Y-22.860
X22.860Y-17.780
X-5.080Y-20.320
X5.080Y-20.320
X5.080Y-27.940
X20.320Y-22.860
X-10.160Y-10.160
X17.780Y-5.080
X20.320Y-12.700
X2.540Y-12.700
X-12.700Y-15.240
X-17.780Y-17.780
X-12.700Y-5.080
X-15.240Y-27.940
X-7.620Y-27.940
X5.080Y-17.780
X-22.860Y-12.700
X-5.080Y-25.400
X-17.780Y-7.620
X-20.320Y-5.080
X-15.240Y-25.400
X-15.240Y-20.320
X-20.320Y-22.860
X7.620Y-22.860
X-22.860Y-5.080
X-2.540Y-5.080
X15.240Y-7.620
X-2.540Y-25.400
X-10.160Y-25.400
X-17.780Y-25.400
X0.000Y-5.080
X15.240Y-27.940
X12.700Y-5.080
X-7.620Y-10.160
X17.780Y-27.940
X2.540Y-27.940
X-10.160Y-27.940
X7.620Y-7.620
X-7.620Y-17.780
X-15.240Y-7.620
X-5.080Y-22.860
X-10.160Y-15.240
X17.780Y-20.320
X15.240Y-25.400
X10.160Y-27.940
X12.700Y-10.160
X22.860Y-20.320
X7.620Y-17.780
X10.160Y-17.780
X0.000Y-12.700
X-7.620Y-5.080
X-10.160Y-7.620
X-17.780Y-10.160
X-15.240Y-22.860
X-10.160Y-12.700
X15.240Y-15.240
X-2.540Y-22.860
X12.700Y-22.860
X20.320Y-5.080
X22.860Y-7.620
X15.240Y-20.320
X10.160Y-15.240
X0.000Y-17.780
X-15.240Y-10.160
X5.080Y-15.240
X2.540Y-17.780
X-22.860Y-7.620
X0.000Y-22.860
X5.080Y-12.700
X17.780Y-15.240
X0.000Y-20.320
X2.540Y-15.240
X-2.540Y-27.940
X-2.540Y-12.700
X22.860Y-15.240
X-7.620Y-15.240
X2.540Y-10.160
X-12.700Y-7.620
X5.080Y-22.860
X-10.160Y-17.780
X2.540Y-7.620
X10.160Y-25.400
X0.000Y-10.160
X-2.540Y-10.160
X15.240Y-22.860
X-12.700Y-25.400
X-7.620Y-20.320
X-17.780Y-27.940
X-7.620Y-25.400
X-5.080Y-15.240
X-2.540Y-15.240
X-20.320Y-20.320
X15.240Y-10.160
X2.540Y-5.080
X-12.700Y-17.780
X-20.320Y-7.620
X12.700Y-12.700
X-5.080Y-10.160
X7.620Y-20.320
X5.080Y-10.160
X-17.780Y-20.320
X20.320Y-15.240
X-7.620Y-7.620
X17.780Y-10.160
X12.700Y-7.620
X-5.080Y-12.700
X-12.700Y-27.940
X-15.240Y-5.080
X7.620Y-25.400
X-17.780Y-15.240
X5.080Y-5.080
X22.860Y-12.700
X-12.700Y-20.320
X17.780Y-25.400
X7.620Y-12.700
X-2.540Y-17.780
X0.000Y-7.620
X-22.860Y-15.240
X0.000Y-15.240
X15.240Y-5.080
X-22.860Y-22.860
X-10.160Y-22.860
X2.540Y-20.320
X5.080Y-25.400
X10.160Y-5.080
X-20.320Y-17.780
X-15.240Y-17.780
X-5.080Y-27.940
X17.780Y-22.860
X-5.080Y-17.780
X7.620Y-10.160
X20.320Y-7.620
X-22.860Y-20.320
X15.240Y-17.780
X-2.540Y-7.620
X12.700Y-15.240
X-22.860Y-17.780
X0.000Y-27.940
X10.160Y-20.320
X15.240Y-12.700
X-17.780Y-22.860
X2.540Y-25.400
M30
