M48
FMAT,2
METRIC,TZ
T1C0.500
T3C1.000
T2C3.200
%
G90
G05
M71
T1
X-16.510Y-8.890
X5.750Y-1.750
X21.590Y-19.050
X19.050Y-26.670
X-11.430Y-3.810
X11.430Y-29.210
X11.430Y-13.970
X-13.970Y-29.210
X-16.250Y-1.750
X3.810Y-8.890
X-3.810Y-13.970
X-3.810Y-29.210
X-24.130Y-6.350
X-5.750Y-1.750
X-3.810Y-11.430
X-8.890Y-21.590
X13.970Y-16.510
X16.510Y-8.890
X-1.270Y-21.590
X6.500Y-1.750
X21.590Y-8.890
X19.050Y-16.510
X-8.890Y-13.970
X21.590Y-24.130
X13.250Y-1.750
X8.890Y-13.970
X-16.510Y-19.050
X-3.810Y-8.890
X19.050Y-11.430
X-11.430Y-24.130
X13.970Y-26.670
X-6.350Y-16.510
X-13.970Y-13.970
X-8.890Y-24.130
X-1.270Y-26.670
X14.750Y-1.750
X6.350Y-6.350
X24.130Y-8.890
X24.130Y-16.510
X19.050Y-21.590
X3.810Y-19.050
X-14.000Y-1.750
X8.890Y-21.590
X-3.810Y-3.810
X-16.510Y-6.350
X-6.350Y-19.050
X-13.970Y-24.130
X-8.890Y-19.050
X3.810Y-16.510
X-1.270Y-29.210
X1.270Y-8.890
X6.350Y-29.210
X-8.750Y-1.750
X-6.350Y-21.590
X-11.750Y-1.750
X-1.270Y-3.810
X-8.890Y-8.890
X-8.000Y-1.750
X-13.970Y-8.890
X-21.590Y-6.350
X-8.890Y-29.210
X-11.430Y-6.350
X-3.810Y-19.050
X-24.130Y-8.890
X16.510Y-21.590
X-6.350Y-8.890
X13.970Y-3.810
X-9.500Y-1.750
X19.250Y-1.750
X3.810Y-26.670
X-17.750Y-1.750
X-8.890Y-26.670
X-11.430Y-26.670
X6.350Y-3.810
X-3.810Y-6.350
X13.970Y-24.130
X-19.050Y-3.810
X8.750Y-1.750
X-16.510Y-21.590
X24.130Y-21.590
X8.890Y-6.350
X-6.350Y-6.350
X8.890Y-26.670
X6.350Y-13.970
X-1.270Y-8.890
X-13.970Y-11.430
X3.810Y-29.210
X13.970Y-11.430
X8.000Y-1.750
X11.430Y-3.810
X-6.350Y-11.430
X3.810Y-6.350
X24.130Y-24.130
X-3.810Y-26.670
X19.050Y-29.210
X11.000Y-1.750
X-6.350Y-3.810
X-11.430Y-8.890
X21.590Y-11.430
X-21.590Y-11.430
X11.430Y-6.350
X16.250Y-1.750
X16.510Y-16.510
X1.270Y-16.510
X-3.810Y-16.510
X-6.350Y-26.670
X17.000Y-1.750
X1.270Y-11.430
X-24.130Y-3.810
X16.510Y-26.670
X-8.890Y-3.810
X21.590Y-16.510
X-13.970Y-21.590
X-18.500Y-1.750
X1.270Y-26.670
X-8.890Y-16.510
X-1.270Y-6.350
X-6.350Y-29.210
X-24.130Y-21.590
X16.510Y-3.810
X19.050Y-13.970
X-13.970Y-3.810
X24.130Y-19.050
X-11.430Y-16.510
X-24.130Y-11.430
X-11.000Y-1.750
X8.890Y-16.510
X13.970Y-6.350
X-1.270Y-13.970
X-16.510Y-11.430
X-19.050Y-13.970
X1.270Y-6.350
X18.500Y-1.750
X14.000Y-1.750
X6.350Y-24.130
X-19.050Y-21.590
X-13.250Y-1.750
X-21.590Y-13.970
X-14.750Y-1.750
X-16.510Y-16.510
X6.350Y-8.890
X-1.270Y-24.130
X-11.430Y-21.590
X-19.250Y-1.750
X1.270Y-3.810
X11.430Y-11.430
X10.250Y-1.750
X16.510Y-24.130
X-16.510Y-3.810
X8.890Y-3.810
X21.590Y-6.350
X-11.430Y-19.050
X-13.970Y-16.510
X6.350Y-19.050
X3.810Y-13.970
X-13.970Y-6.350
X16.510Y-19.050
X8.890Y-19.050
X-21.590Y-19.050
X-21.590Y-3.810
X-6.350Y-13.970
X19.050Y-19.050
X-11.430Y-29.210
X19.050Y-24.130
X-15.500Y-1.750
X7.250Y-1.750
X13.970Y-21.590
X-16.510Y-24.130
X-13.970Y-26.670
X-21.590Y-8.890
X21.590Y-3.810
X-1.270Y-16.510
X-21.590Y-24.130
X3.810Y-11.430
X-3.810Y-24.130
X-16.510Y-29.210
X11.430Y-16.510
X-19.050Y-19.050
X1.270Y-24.130
X21.590Y-13.970
X6.350Y-11.430
X11.750Y-1.750
X6.350Y-21.590
X-1.270Y-19.050
X6.350Y-26.670
X13.970Y-13.970
X24.130Y-11.430
X-19.050Y-6.350
X-11.430Y-11.430
X8.890Y-11.430
X-8.890Y-6.350
X6.350Y-16.510
X-8.890Y-11.430
X-10.250Y-1.750
X-19.050Y-26.670
X-19.050Y-24.130
X17.750Y-1.750
X-21.590Y-16.510
X-13.970Y-19.050
X1.270Y-19.050
X-6.350Y-24.130
X11.430Y-24.130
X-19.050Y-8.890
X13.970Y-8.890
X-19.050Y-16.510
X-24.130Y-13.970
X12.500Y-1.750
X19.050Y-3.810
X24.130Y-3.810
X19.050Y-6.350
X11.430Y-19.050
X-24.130Y-19.050
X1.270Y-21.590
X-1.270Y-11.430
X-21.590Y-21.590
X24.130Y-13.970
X11.430Y-8.890
X1.270Y-13.970
X16.510Y-6.350
X11.430Y-26.670
X24.130Y-6.350
X3.810Y-3.810
X-16.510Y-13.970
X-6.500Y-1.750
X13.970Y-19.050
X21.590Y-21.590
X-17.000Y-1.750
X-3.810Y-21.590
X16.510Y-13.970
X8.890Y-24.130
X9.500Y-1.750
X-24.130Y-24.130
X13.970Y-29.210
X-16.510Y-26.670
X1.270Y-29.210
X-11.430Y-13.970
X-7.250Y-1.750
X3.810Y-24.130
X16.510Y-11.430
X-19.050Y-11.430
X15.500Y-1.750
X-24.130Y-16.510
X3.810Y-21.590
X19.050Y-8.890
X8.890Y-8.890
X16.510Y-29.210
X8.890Y-29.210
X-12.500Y-1.750
X-19.050Y-29.210
X11.430Y-21.590
T3
X10.500Y15.500
X2.500Y15.500
T2
X-22.000Y-27.000
X22.000Y17.000
X-22.000Y17.000
X22.000Y-27.000
M30
