M48
;DRILL file {KiCad 4.0.7} date Mon Nov 27 18:48:23 2017
;FORMAT={-:-/ absolute / inch / decimal}
FMAT,2
INCH,TZ
T1C0.020
T2C0.039
T3C0.126
%
G90
G05
M72
T1
X1.4075Y-2.0374
X1.437Y-2.0374
X1.4665Y-2.0374
X1.4961Y-2.0374
X1.5256Y-2.0374
X1.5551Y-2.0374
X1.5846Y-2.0374
X1.6142Y-2.0374
X1.6437Y-2.0374
X1.6732Y-2.0374
X1.7028Y-2.0374
X1.7323Y-2.0374
X1.7618Y-2.0374
X1.7913Y-2.0374
X1.8209Y-2.0374
X1.8504Y-2.0374
X1.8799Y-2.0374
X1.9094Y-2.0374
X1.939Y-2.0374
X2.3917Y-2.0374
X2.4213Y-2.0374
X2.4508Y-2.0374
X2.4803Y-2.0374
X2.5098Y-2.0374
X2.5394Y-2.0374
X2.5689Y-2.0374
X2.5984Y-2.0374
X2.628Y-2.0374
X2.6575Y-2.0374
X2.687Y-2.0374
X2.7165Y-2.0374
X2.7461Y-2.0374
X2.7756Y-2.0374
X2.8051Y-2.0374
X2.8346Y-2.0374
X2.8642Y-2.0374
X2.8937Y-2.0374
X2.9232Y-2.0374
T2
X2.2638Y-1.3583
X2.5787Y-1.3583
T3
X1.2992Y-1.2992
X1.2992Y-3.0315
X3.0315Y-1.2992
X3.0315Y-3.0315
T0
M30
