G04 #@! TF.FileFunction,Legend,Top*
%FSLAX46Y46*%
G04 Gerber Fmt 4.6, Leading zero omitted, Abs format (unit mm)*
G04 Created by KiCad (PCBNEW 4.0.7) date Mon Nov 27 18:48:16 2017*
%MOMM*%
%LPD*%
G01*
G04 APERTURE LIST*
%ADD10C,0.100000*%
%ADD11C,0.150000*%
%ADD12C,0.250000*%
%ADD13C,0.200000*%
%ADD14C,2.398980*%
%ADD15R,1.400000X1.400000*%
%ADD16C,0.900000*%
%ADD17C,3.600000*%
%ADD18R,1.200000X1.200000*%
%ADD19R,2.200000X1.500000*%
%ADD20R,2.180000X0.800000*%
%ADD21R,2.600000X1.600000*%
%ADD22R,2.600000X4.000000*%
%ADD23R,0.951180X1.400760*%
%ADD24C,1.400000*%
%ADD25R,1.400000X1.200000*%
%ADD26R,1.200000X1.400000*%
G04 APERTURE END LIST*
D10*
D11*
X40304762Y-42942857D02*
X39695238Y-42942857D01*
X42304762Y-42942857D02*
X41695238Y-42942857D01*
X42000000Y-42638095D02*
X42000000Y-43247619D01*
X34307143Y-40144762D02*
X34307143Y-39535238D01*
X34611905Y-39840000D02*
X34002381Y-39840000D01*
X33910000Y-42609523D02*
X33871905Y-42685714D01*
X33871905Y-42799999D01*
X33910000Y-42914285D01*
X33986190Y-42990476D01*
X34062381Y-43028571D01*
X34214762Y-43066666D01*
X34329048Y-43066666D01*
X34481429Y-43028571D01*
X34557619Y-42990476D01*
X34633810Y-42914285D01*
X34671905Y-42799999D01*
X34671905Y-42723809D01*
X34633810Y-42609523D01*
X34595714Y-42571428D01*
X34329048Y-42571428D01*
X34329048Y-42723809D01*
X34671905Y-42228571D02*
X33871905Y-42228571D01*
X34671905Y-41771428D01*
X33871905Y-41771428D01*
X34671905Y-41390476D02*
X33871905Y-41390476D01*
X33871905Y-41200000D01*
X33910000Y-41085714D01*
X33986190Y-41009523D01*
X34062381Y-40971428D01*
X34214762Y-40933333D01*
X34329048Y-40933333D01*
X34481429Y-40971428D01*
X34557619Y-41009523D01*
X34633810Y-41085714D01*
X34671905Y-41200000D01*
X34671905Y-41390476D01*
X48929524Y-34061905D02*
X49424762Y-34061905D01*
X49158095Y-34366667D01*
X49272381Y-34366667D01*
X49348571Y-34404762D01*
X49386667Y-34442857D01*
X49424762Y-34519048D01*
X49424762Y-34709524D01*
X49386667Y-34785714D01*
X49348571Y-34823810D01*
X49272381Y-34861905D01*
X49043809Y-34861905D01*
X48967619Y-34823810D01*
X48929524Y-34785714D01*
X49653333Y-34061905D02*
X49920000Y-34861905D01*
X50186667Y-34061905D01*
X50377143Y-34061905D02*
X50872381Y-34061905D01*
X50605714Y-34366667D01*
X50720000Y-34366667D01*
X50796190Y-34404762D01*
X50834286Y-34442857D01*
X50872381Y-34519048D01*
X50872381Y-34709524D01*
X50834286Y-34785714D01*
X50796190Y-34823810D01*
X50720000Y-34861905D01*
X50491428Y-34861905D01*
X50415238Y-34823810D01*
X50377143Y-34785714D01*
X46941905Y-34861905D02*
X46675238Y-34480952D01*
X46484762Y-34861905D02*
X46484762Y-34061905D01*
X46789524Y-34061905D01*
X46865715Y-34100000D01*
X46903810Y-34138095D01*
X46941905Y-34214286D01*
X46941905Y-34328571D01*
X46903810Y-34404762D01*
X46865715Y-34442857D01*
X46789524Y-34480952D01*
X46484762Y-34480952D01*
X47246667Y-34823810D02*
X47360953Y-34861905D01*
X47551429Y-34861905D01*
X47627619Y-34823810D01*
X47665715Y-34785714D01*
X47703810Y-34709524D01*
X47703810Y-34633333D01*
X47665715Y-34557143D01*
X47627619Y-34519048D01*
X47551429Y-34480952D01*
X47399048Y-34442857D01*
X47322857Y-34404762D01*
X47284762Y-34366667D01*
X47246667Y-34290476D01*
X47246667Y-34214286D01*
X47284762Y-34138095D01*
X47322857Y-34100000D01*
X47399048Y-34061905D01*
X47589524Y-34061905D01*
X47703810Y-34100000D01*
X47932381Y-34061905D02*
X48389524Y-34061905D01*
X48160953Y-34861905D02*
X48160953Y-34061905D01*
X44420953Y-34861905D02*
X44420953Y-34061905D01*
X44954286Y-34061905D02*
X45106667Y-34061905D01*
X45182858Y-34100000D01*
X45259048Y-34176190D01*
X45297143Y-34328571D01*
X45297143Y-34595238D01*
X45259048Y-34747619D01*
X45182858Y-34823810D01*
X45106667Y-34861905D01*
X44954286Y-34861905D01*
X44878096Y-34823810D01*
X44801905Y-34747619D01*
X44763810Y-34595238D01*
X44763810Y-34328571D01*
X44801905Y-34176190D01*
X44878096Y-34100000D01*
X44954286Y-34061905D01*
X41823810Y-34785714D02*
X41785715Y-34823810D01*
X41671429Y-34861905D01*
X41595239Y-34861905D01*
X41480953Y-34823810D01*
X41404762Y-34747619D01*
X41366667Y-34671429D01*
X41328572Y-34519048D01*
X41328572Y-34404762D01*
X41366667Y-34252381D01*
X41404762Y-34176190D01*
X41480953Y-34100000D01*
X41595239Y-34061905D01*
X41671429Y-34061905D01*
X41785715Y-34100000D01*
X41823810Y-34138095D01*
X42547620Y-34861905D02*
X42166667Y-34861905D01*
X42166667Y-34061905D01*
X42814286Y-34861905D02*
X42814286Y-34061905D01*
X43271429Y-34861905D02*
X42928572Y-34404762D01*
X43271429Y-34061905D02*
X42814286Y-34519048D01*
X39150477Y-34100000D02*
X39074286Y-34061905D01*
X38960001Y-34061905D01*
X38845715Y-34100000D01*
X38769524Y-34176190D01*
X38731429Y-34252381D01*
X38693334Y-34404762D01*
X38693334Y-34519048D01*
X38731429Y-34671429D01*
X38769524Y-34747619D01*
X38845715Y-34823810D01*
X38960001Y-34861905D01*
X39036191Y-34861905D01*
X39150477Y-34823810D01*
X39188572Y-34785714D01*
X39188572Y-34519048D01*
X39036191Y-34519048D01*
X39531429Y-34861905D02*
X39531429Y-34061905D01*
X39988572Y-34861905D01*
X39988572Y-34061905D01*
X40369524Y-34861905D02*
X40369524Y-34061905D01*
X40560000Y-34061905D01*
X40674286Y-34100000D01*
X40750477Y-34176190D01*
X40788572Y-34252381D01*
X40826667Y-34404762D01*
X40826667Y-34519048D01*
X40788572Y-34671429D01*
X40750477Y-34747619D01*
X40674286Y-34823810D01*
X40560000Y-34861905D01*
X40369524Y-34861905D01*
X31530477Y-47890000D02*
X31454286Y-47851905D01*
X31340001Y-47851905D01*
X31225715Y-47890000D01*
X31149524Y-47966190D01*
X31111429Y-48042381D01*
X31073334Y-48194762D01*
X31073334Y-48309048D01*
X31111429Y-48461429D01*
X31149524Y-48537619D01*
X31225715Y-48613810D01*
X31340001Y-48651905D01*
X31416191Y-48651905D01*
X31530477Y-48613810D01*
X31568572Y-48575714D01*
X31568572Y-48309048D01*
X31416191Y-48309048D01*
X31911429Y-48651905D02*
X31911429Y-47851905D01*
X32368572Y-48651905D01*
X32368572Y-47851905D01*
X32749524Y-48651905D02*
X32749524Y-47851905D01*
X32940000Y-47851905D01*
X33054286Y-47890000D01*
X33130477Y-47966190D01*
X33168572Y-48042381D01*
X33206667Y-48194762D01*
X33206667Y-48309048D01*
X33168572Y-48461429D01*
X33130477Y-48537619D01*
X33054286Y-48613810D01*
X32940000Y-48651905D01*
X32749524Y-48651905D01*
X33689524Y-47851905D02*
X34184762Y-47851905D01*
X33918095Y-48156667D01*
X34032381Y-48156667D01*
X34108571Y-48194762D01*
X34146667Y-48232857D01*
X34184762Y-48309048D01*
X34184762Y-48499524D01*
X34146667Y-48575714D01*
X34108571Y-48613810D01*
X34032381Y-48651905D01*
X33803809Y-48651905D01*
X33727619Y-48613810D01*
X33689524Y-48575714D01*
X34413333Y-47851905D02*
X34680000Y-48651905D01*
X34946667Y-47851905D01*
X35137143Y-47851905D02*
X35632381Y-47851905D01*
X35365714Y-48156667D01*
X35480000Y-48156667D01*
X35556190Y-48194762D01*
X35594286Y-48232857D01*
X35632381Y-48309048D01*
X35632381Y-48499524D01*
X35594286Y-48575714D01*
X35556190Y-48613810D01*
X35480000Y-48651905D01*
X35251428Y-48651905D01*
X35175238Y-48613810D01*
X35137143Y-48575714D01*
X36953334Y-48232857D02*
X36686667Y-48232857D01*
X36686667Y-48651905D02*
X36686667Y-47851905D01*
X37067620Y-47851905D01*
X37524762Y-47851905D02*
X37600953Y-47851905D01*
X37677143Y-47890000D01*
X37715238Y-47928095D01*
X37753334Y-48004286D01*
X37791429Y-48156667D01*
X37791429Y-48347143D01*
X37753334Y-48499524D01*
X37715238Y-48575714D01*
X37677143Y-48613810D01*
X37600953Y-48651905D01*
X37524762Y-48651905D01*
X37448572Y-48613810D01*
X37410476Y-48575714D01*
X37372381Y-48499524D01*
X37334286Y-48347143D01*
X37334286Y-48156667D01*
X37372381Y-48004286D01*
X37410476Y-47928095D01*
X37448572Y-47890000D01*
X37524762Y-47851905D01*
X39493334Y-48232857D02*
X39226667Y-48232857D01*
X39226667Y-48651905D02*
X39226667Y-47851905D01*
X39607620Y-47851905D01*
X40331429Y-48651905D02*
X39874286Y-48651905D01*
X40102857Y-48651905D02*
X40102857Y-47851905D01*
X40026667Y-47966190D01*
X39950476Y-48042381D01*
X39874286Y-48080476D01*
X41728572Y-48423333D02*
X42109524Y-48423333D01*
X41652381Y-48651905D02*
X41919048Y-47851905D01*
X42185715Y-48651905D01*
X42604762Y-47851905D02*
X42680953Y-47851905D01*
X42757143Y-47890000D01*
X42795238Y-47928095D01*
X42833334Y-48004286D01*
X42871429Y-48156667D01*
X42871429Y-48347143D01*
X42833334Y-48499524D01*
X42795238Y-48575714D01*
X42757143Y-48613810D01*
X42680953Y-48651905D01*
X42604762Y-48651905D01*
X42528572Y-48613810D01*
X42490476Y-48575714D01*
X42452381Y-48499524D01*
X42414286Y-48347143D01*
X42414286Y-48156667D01*
X42452381Y-48004286D01*
X42490476Y-47928095D01*
X42528572Y-47890000D01*
X42604762Y-47851905D01*
X44268572Y-48423333D02*
X44649524Y-48423333D01*
X44192381Y-48651905D02*
X44459048Y-47851905D01*
X44725715Y-48651905D01*
X45411429Y-48651905D02*
X44954286Y-48651905D01*
X45182857Y-48651905D02*
X45182857Y-47851905D01*
X45106667Y-47966190D01*
X45030476Y-48042381D01*
X44954286Y-48080476D01*
X46808572Y-48423333D02*
X47189524Y-48423333D01*
X46732381Y-48651905D02*
X46999048Y-47851905D01*
X47265715Y-48651905D01*
X47494286Y-47928095D02*
X47532381Y-47890000D01*
X47608572Y-47851905D01*
X47799048Y-47851905D01*
X47875238Y-47890000D01*
X47913334Y-47928095D01*
X47951429Y-48004286D01*
X47951429Y-48080476D01*
X47913334Y-48194762D01*
X47456191Y-48651905D01*
X47951429Y-48651905D01*
X49348572Y-48423333D02*
X49729524Y-48423333D01*
X49272381Y-48651905D02*
X49539048Y-47851905D01*
X49805715Y-48651905D01*
X49996191Y-47851905D02*
X50491429Y-47851905D01*
X50224762Y-48156667D01*
X50339048Y-48156667D01*
X50415238Y-48194762D01*
X50453334Y-48232857D01*
X50491429Y-48309048D01*
X50491429Y-48499524D01*
X50453334Y-48575714D01*
X50415238Y-48613810D01*
X50339048Y-48651905D01*
X50110476Y-48651905D01*
X50034286Y-48613810D01*
X49996191Y-48575714D01*
X51888572Y-48423333D02*
X52269524Y-48423333D01*
X51812381Y-48651905D02*
X52079048Y-47851905D01*
X52345715Y-48651905D01*
X52955238Y-48118571D02*
X52955238Y-48651905D01*
X52764762Y-47813810D02*
X52574286Y-48385238D01*
X53069524Y-48385238D01*
X54428572Y-48423333D02*
X54809524Y-48423333D01*
X54352381Y-48651905D02*
X54619048Y-47851905D01*
X54885715Y-48651905D01*
X55533334Y-47851905D02*
X55152381Y-47851905D01*
X55114286Y-48232857D01*
X55152381Y-48194762D01*
X55228572Y-48156667D01*
X55419048Y-48156667D01*
X55495238Y-48194762D01*
X55533334Y-48232857D01*
X55571429Y-48309048D01*
X55571429Y-48499524D01*
X55533334Y-48575714D01*
X55495238Y-48613810D01*
X55419048Y-48651905D01*
X55228572Y-48651905D01*
X55152381Y-48613810D01*
X55114286Y-48575714D01*
X56968572Y-48423333D02*
X57349524Y-48423333D01*
X56892381Y-48651905D02*
X57159048Y-47851905D01*
X57425715Y-48651905D01*
X58035238Y-47851905D02*
X57882857Y-47851905D01*
X57806667Y-47890000D01*
X57768572Y-47928095D01*
X57692381Y-48042381D01*
X57654286Y-48194762D01*
X57654286Y-48499524D01*
X57692381Y-48575714D01*
X57730476Y-48613810D01*
X57806667Y-48651905D01*
X57959048Y-48651905D01*
X58035238Y-48613810D01*
X58073334Y-48575714D01*
X58111429Y-48499524D01*
X58111429Y-48309048D01*
X58073334Y-48232857D01*
X58035238Y-48194762D01*
X57959048Y-48156667D01*
X57806667Y-48156667D01*
X57730476Y-48194762D01*
X57692381Y-48232857D01*
X57654286Y-48309048D01*
X59508572Y-48423333D02*
X59889524Y-48423333D01*
X59432381Y-48651905D02*
X59699048Y-47851905D01*
X59965715Y-48651905D01*
X60156191Y-47851905D02*
X60689524Y-47851905D01*
X60346667Y-48651905D01*
X62048572Y-48423333D02*
X62429524Y-48423333D01*
X61972381Y-48651905D02*
X62239048Y-47851905D01*
X62505715Y-48651905D01*
X62810476Y-48651905D02*
X62962857Y-48651905D01*
X63039048Y-48613810D01*
X63077143Y-48575714D01*
X63153334Y-48461429D01*
X63191429Y-48309048D01*
X63191429Y-48004286D01*
X63153334Y-47928095D01*
X63115238Y-47890000D01*
X63039048Y-47851905D01*
X62886667Y-47851905D01*
X62810476Y-47890000D01*
X62772381Y-47928095D01*
X62734286Y-48004286D01*
X62734286Y-48194762D01*
X62772381Y-48270952D01*
X62810476Y-48309048D01*
X62886667Y-48347143D01*
X63039048Y-48347143D01*
X63115238Y-48309048D01*
X63153334Y-48270952D01*
X63191429Y-48194762D01*
X64207619Y-48423333D02*
X64588571Y-48423333D01*
X64131428Y-48651905D02*
X64398095Y-47851905D01*
X64664762Y-48651905D01*
X65350476Y-48651905D02*
X64893333Y-48651905D01*
X65121904Y-48651905D02*
X65121904Y-47851905D01*
X65045714Y-47966190D01*
X64969523Y-48042381D01*
X64893333Y-48080476D01*
X65845714Y-47851905D02*
X65921905Y-47851905D01*
X65998095Y-47890000D01*
X66036190Y-47928095D01*
X66074286Y-48004286D01*
X66112381Y-48156667D01*
X66112381Y-48347143D01*
X66074286Y-48499524D01*
X66036190Y-48575714D01*
X65998095Y-48613810D01*
X65921905Y-48651905D01*
X65845714Y-48651905D01*
X65769524Y-48613810D01*
X65731428Y-48575714D01*
X65693333Y-48499524D01*
X65655238Y-48347143D01*
X65655238Y-48156667D01*
X65693333Y-48004286D01*
X65731428Y-47928095D01*
X65769524Y-47890000D01*
X65845714Y-47851905D01*
X77250477Y-47890000D02*
X77174286Y-47851905D01*
X77060001Y-47851905D01*
X76945715Y-47890000D01*
X76869524Y-47966190D01*
X76831429Y-48042381D01*
X76793334Y-48194762D01*
X76793334Y-48309048D01*
X76831429Y-48461429D01*
X76869524Y-48537619D01*
X76945715Y-48613810D01*
X77060001Y-48651905D01*
X77136191Y-48651905D01*
X77250477Y-48613810D01*
X77288572Y-48575714D01*
X77288572Y-48309048D01*
X77136191Y-48309048D01*
X77631429Y-48651905D02*
X77631429Y-47851905D01*
X78088572Y-48651905D01*
X78088572Y-47851905D01*
X78469524Y-48651905D02*
X78469524Y-47851905D01*
X78660000Y-47851905D01*
X78774286Y-47890000D01*
X78850477Y-47966190D01*
X78888572Y-48042381D01*
X78926667Y-48194762D01*
X78926667Y-48309048D01*
X78888572Y-48461429D01*
X78850477Y-48537619D01*
X78774286Y-48613810D01*
X78660000Y-48651905D01*
X78469524Y-48651905D01*
X74329524Y-47851905D02*
X74824762Y-47851905D01*
X74558095Y-48156667D01*
X74672381Y-48156667D01*
X74748571Y-48194762D01*
X74786667Y-48232857D01*
X74824762Y-48309048D01*
X74824762Y-48499524D01*
X74786667Y-48575714D01*
X74748571Y-48613810D01*
X74672381Y-48651905D01*
X74443809Y-48651905D01*
X74367619Y-48613810D01*
X74329524Y-48575714D01*
X75053333Y-47851905D02*
X75320000Y-48651905D01*
X75586667Y-47851905D01*
X75777143Y-47851905D02*
X76272381Y-47851905D01*
X76005714Y-48156667D01*
X76120000Y-48156667D01*
X76196190Y-48194762D01*
X76234286Y-48232857D01*
X76272381Y-48309048D01*
X76272381Y-48499524D01*
X76234286Y-48575714D01*
X76196190Y-48613810D01*
X76120000Y-48651905D01*
X75891428Y-48651905D01*
X75815238Y-48613810D01*
X75777143Y-48575714D01*
X72456191Y-48232857D02*
X72570477Y-48270952D01*
X72608572Y-48309048D01*
X72646667Y-48385238D01*
X72646667Y-48499524D01*
X72608572Y-48575714D01*
X72570477Y-48613810D01*
X72494286Y-48651905D01*
X72189524Y-48651905D01*
X72189524Y-47851905D01*
X72456191Y-47851905D01*
X72532381Y-47890000D01*
X72570477Y-47928095D01*
X72608572Y-48004286D01*
X72608572Y-48080476D01*
X72570477Y-48156667D01*
X72532381Y-48194762D01*
X72456191Y-48232857D01*
X72189524Y-48232857D01*
X73408572Y-48651905D02*
X72951429Y-48651905D01*
X73180000Y-48651905D02*
X73180000Y-47851905D01*
X73103810Y-47966190D01*
X73027619Y-48042381D01*
X72951429Y-48080476D01*
X69287619Y-48423333D02*
X69668571Y-48423333D01*
X69211428Y-48651905D02*
X69478095Y-47851905D01*
X69744762Y-48651905D01*
X70430476Y-48651905D02*
X69973333Y-48651905D01*
X70201904Y-48651905D02*
X70201904Y-47851905D01*
X70125714Y-47966190D01*
X70049523Y-48042381D01*
X69973333Y-48080476D01*
X71116190Y-48118571D02*
X71116190Y-48651905D01*
X70925714Y-47813810D02*
X70735238Y-48385238D01*
X71230476Y-48385238D01*
X66747619Y-48423333D02*
X67128571Y-48423333D01*
X66671428Y-48651905D02*
X66938095Y-47851905D01*
X67204762Y-48651905D01*
X67890476Y-48651905D02*
X67433333Y-48651905D01*
X67661904Y-48651905D02*
X67661904Y-47851905D01*
X67585714Y-47966190D01*
X67509523Y-48042381D01*
X67433333Y-48080476D01*
X68157143Y-47851905D02*
X68652381Y-47851905D01*
X68385714Y-48156667D01*
X68500000Y-48156667D01*
X68576190Y-48194762D01*
X68614286Y-48232857D01*
X68652381Y-48309048D01*
X68652381Y-48499524D01*
X68614286Y-48575714D01*
X68576190Y-48613810D01*
X68500000Y-48651905D01*
X68271428Y-48651905D01*
X68195238Y-48613810D01*
X68157143Y-48575714D01*
D12*
X44205000Y-43650000D02*
X43570000Y-43015000D01*
X44205000Y-46825000D02*
X37855000Y-46825000D01*
X37855000Y-46825000D02*
X37855000Y-43015000D01*
X42935000Y-43015000D02*
X44205000Y-43015000D01*
X44205000Y-46825000D02*
X44205000Y-43015000D01*
X37855000Y-43015000D02*
X39125000Y-43015000D01*
X34045000Y-37935000D02*
X34045000Y-38570000D01*
X34045000Y-44285000D02*
X34045000Y-43650000D01*
X30870000Y-37935000D02*
X30235000Y-38570000D01*
X34045000Y-44285000D02*
X30235000Y-44285000D01*
X30235000Y-44285000D02*
X30235000Y-37935000D01*
X34045000Y-37935000D02*
X30235000Y-37935000D01*
X51825000Y-34125000D02*
X51190000Y-34125000D01*
X37855000Y-34125000D02*
X38490000Y-34125000D01*
X51825000Y-30315000D02*
X37855000Y-30315000D01*
X51825000Y-30950000D02*
X51190000Y-30315000D01*
X37855000Y-34125000D02*
X37855000Y-30315000D01*
X51825000Y-34125000D02*
X51825000Y-30315000D01*
X51350000Y-43600000D02*
X51350000Y-42400000D01*
X48650000Y-42400000D02*
X48650000Y-43600000D01*
X48650000Y-43600000D02*
X51350000Y-43600000D01*
X51350000Y-42400000D02*
X48650000Y-42400000D01*
X62100000Y-42150000D02*
X60900000Y-42150000D01*
X60900000Y-44850000D02*
X62100000Y-44850000D01*
X62100000Y-44850000D02*
X62100000Y-42150000D01*
X60900000Y-42150000D02*
X60900000Y-44850000D01*
X34900000Y-40350000D02*
X36100000Y-40350000D01*
X36100000Y-37650000D02*
X34900000Y-37650000D01*
X34900000Y-37650000D02*
X34900000Y-40350000D01*
X36100000Y-40350000D02*
X36100000Y-37650000D01*
X46850000Y-36600000D02*
X46850000Y-35400000D01*
X44150000Y-35400000D02*
X44150000Y-36600000D01*
X44150000Y-36600000D02*
X46850000Y-36600000D01*
X46850000Y-35400000D02*
X44150000Y-35400000D01*
X51350000Y-42100000D02*
X51350000Y-40900000D01*
X48650000Y-40900000D02*
X48650000Y-42100000D01*
X48650000Y-42100000D02*
X51350000Y-42100000D01*
X51350000Y-40900000D02*
X48650000Y-40900000D01*
X36850000Y-47100000D02*
X36850000Y-45900000D01*
X34150000Y-45900000D02*
X34150000Y-47100000D01*
X34150000Y-47100000D02*
X36850000Y-47100000D01*
X36850000Y-45900000D02*
X34150000Y-45900000D01*
X69150000Y-37900000D02*
X69150000Y-39100000D01*
X71850000Y-39100000D02*
X71850000Y-37900000D01*
X71850000Y-37900000D02*
X69150000Y-37900000D01*
X69150000Y-39100000D02*
X71850000Y-39100000D01*
X69150000Y-39900000D02*
X69150000Y-41100000D01*
X71850000Y-41100000D02*
X71850000Y-39900000D01*
X71850000Y-39900000D02*
X69150000Y-39900000D01*
X69150000Y-41100000D02*
X71850000Y-41100000D01*
X69150000Y-41900000D02*
X69150000Y-43100000D01*
X71850000Y-43100000D02*
X71850000Y-41900000D01*
X71850000Y-41900000D02*
X69150000Y-41900000D01*
X69150000Y-43100000D02*
X71850000Y-43100000D01*
X69150000Y-43900000D02*
X69150000Y-45100000D01*
X71850000Y-45100000D02*
X71850000Y-43900000D01*
X71850000Y-43900000D02*
X69150000Y-43900000D01*
X69150000Y-45100000D02*
X71850000Y-45100000D01*
X69150000Y-45900000D02*
X69150000Y-47100000D01*
X71850000Y-47100000D02*
X71850000Y-45900000D01*
X71850000Y-45900000D02*
X69150000Y-45900000D01*
X69150000Y-47100000D02*
X71850000Y-47100000D01*
X58800000Y-32300000D02*
X58800000Y-34700000D01*
X58200000Y-31700000D02*
X58800000Y-32300000D01*
X55800000Y-31700000D02*
X58200000Y-31700000D01*
X55200000Y-32300000D02*
X55800000Y-31700000D01*
X55200000Y-34700000D02*
X55200000Y-32300000D01*
X55800000Y-35300000D02*
X55200000Y-34700000D01*
X58200000Y-35300000D02*
X55800000Y-35300000D01*
X58800000Y-34700000D02*
X58200000Y-35300000D01*
X59600000Y-34900000D02*
X58400000Y-36100000D01*
X59600000Y-32100000D02*
X59600000Y-34900000D01*
X58400000Y-30900000D02*
X59600000Y-32100000D01*
X55600000Y-30900000D02*
X58400000Y-30900000D01*
X54400000Y-32100000D02*
X55600000Y-30900000D01*
X54400000Y-34900000D02*
X54400000Y-32100000D01*
X55600000Y-36100000D02*
X54400000Y-34900000D01*
X58400000Y-36100000D02*
X55600000Y-36100000D01*
X58000000Y-33500000D02*
G75*
G03X58000000Y-33500000I-1000000J0D01*
G01*
X67800000Y-32300000D02*
X67800000Y-34700000D01*
X67200000Y-31700000D02*
X67800000Y-32300000D01*
X64800000Y-31700000D02*
X67200000Y-31700000D01*
X64200000Y-32300000D02*
X64800000Y-31700000D01*
X64200000Y-34700000D02*
X64200000Y-32300000D01*
X64800000Y-35300000D02*
X64200000Y-34700000D01*
X67200000Y-35300000D02*
X64800000Y-35300000D01*
X67800000Y-34700000D02*
X67200000Y-35300000D01*
X68600000Y-34900000D02*
X67400000Y-36100000D01*
X68600000Y-32100000D02*
X68600000Y-34900000D01*
X67400000Y-30900000D02*
X68600000Y-32100000D01*
X64600000Y-30900000D02*
X67400000Y-30900000D01*
X63400000Y-32100000D02*
X64600000Y-30900000D01*
X63400000Y-34900000D02*
X63400000Y-32100000D01*
X64600000Y-36100000D02*
X63400000Y-34900000D01*
X67400000Y-36100000D02*
X64600000Y-36100000D01*
X67000000Y-33500000D02*
G75*
G03X67000000Y-33500000I-1000000J0D01*
G01*
X58200000Y-46300000D02*
X58200000Y-39700000D01*
X58200000Y-39700000D02*
X56600000Y-39700000D01*
X56600000Y-39700000D02*
X56000000Y-40300000D01*
X56000000Y-40300000D02*
X55400000Y-39700000D01*
X55400000Y-39700000D02*
X53800000Y-39700000D01*
X53800000Y-39700000D02*
X53800000Y-46300000D01*
X53800000Y-46300000D02*
X58200000Y-46300000D01*
X42750000Y-42250000D02*
X42750000Y-35750000D01*
X39250000Y-42250000D02*
X42750000Y-42250000D01*
X39250000Y-42250000D02*
X39250000Y-35750000D01*
X39250000Y-35750000D02*
X42750000Y-35750000D01*
X42500000Y-38300000D02*
X42500000Y-39700000D01*
X39500000Y-39700000D02*
X39500000Y-38300000D01*
X39500000Y-39700000D02*
X42500000Y-39700000D01*
X39500000Y-38300000D02*
X42500000Y-38300000D01*
X32650000Y-46200000D02*
X32350000Y-46500000D01*
X32350000Y-46500000D02*
X32650000Y-46800000D01*
X32650000Y-46800000D02*
X32650000Y-46200000D01*
X33850000Y-47100000D02*
X33850000Y-45900000D01*
X31150000Y-45900000D02*
X31150000Y-47100000D01*
X31150000Y-47100000D02*
X33850000Y-47100000D01*
X33850000Y-45900000D02*
X31150000Y-45900000D01*
X77350000Y-38800000D02*
X77650000Y-38500000D01*
X77650000Y-38500000D02*
X77350000Y-38200000D01*
X77350000Y-38200000D02*
X77350000Y-38800000D01*
X76150000Y-37900000D02*
X76150000Y-39100000D01*
X78850000Y-39100000D02*
X78850000Y-37900000D01*
X78850000Y-37900000D02*
X76150000Y-37900000D01*
X76150000Y-39100000D02*
X78850000Y-39100000D01*
X77350000Y-40800000D02*
X77650000Y-40500000D01*
X77650000Y-40500000D02*
X77350000Y-40200000D01*
X77350000Y-40200000D02*
X77350000Y-40800000D01*
X76150000Y-39900000D02*
X76150000Y-41100000D01*
X78850000Y-41100000D02*
X78850000Y-39900000D01*
X78850000Y-39900000D02*
X76150000Y-39900000D01*
X76150000Y-41100000D02*
X78850000Y-41100000D01*
X77350000Y-42800000D02*
X77650000Y-42500000D01*
X77650000Y-42500000D02*
X77350000Y-42200000D01*
X77350000Y-42200000D02*
X77350000Y-42800000D01*
X76150000Y-41900000D02*
X76150000Y-43100000D01*
X78850000Y-43100000D02*
X78850000Y-41900000D01*
X78850000Y-41900000D02*
X76150000Y-41900000D01*
X76150000Y-43100000D02*
X78850000Y-43100000D01*
X77350000Y-44800000D02*
X77650000Y-44500000D01*
X77650000Y-44500000D02*
X77350000Y-44200000D01*
X77350000Y-44200000D02*
X77350000Y-44800000D01*
X76150000Y-43900000D02*
X76150000Y-45100000D01*
X78850000Y-45100000D02*
X78850000Y-43900000D01*
X78850000Y-43900000D02*
X76150000Y-43900000D01*
X76150000Y-45100000D02*
X78850000Y-45100000D01*
X77350000Y-46800000D02*
X77650000Y-46500000D01*
X77650000Y-46500000D02*
X77350000Y-46200000D01*
X77350000Y-46200000D02*
X77350000Y-46800000D01*
X76150000Y-45900000D02*
X76150000Y-47100000D01*
X78850000Y-47100000D02*
X78850000Y-45900000D01*
X78850000Y-45900000D02*
X76150000Y-45900000D01*
X76150000Y-47100000D02*
X78850000Y-47100000D01*
X52600000Y-36600000D02*
X52600000Y-35400000D01*
X49900000Y-35400000D02*
X49900000Y-36600000D01*
X49900000Y-36600000D02*
X52600000Y-36600000D01*
X52600000Y-35400000D02*
X49900000Y-35400000D01*
X70900000Y-36850000D02*
X72100000Y-36850000D01*
X72100000Y-34150000D02*
X70900000Y-34150000D01*
X70900000Y-34150000D02*
X70900000Y-36850000D01*
X72100000Y-36850000D02*
X72100000Y-34150000D01*
D13*
X45952381Y-46000000D02*
X44952381Y-46000000D01*
X45952381Y-45523810D02*
X44952381Y-45523810D01*
X44952381Y-45285715D01*
X45000000Y-45142857D01*
X45095238Y-45047619D01*
X45190476Y-45000000D01*
X45380952Y-44952381D01*
X45523810Y-44952381D01*
X45714286Y-45000000D01*
X45809524Y-45047619D01*
X45904762Y-45142857D01*
X45952381Y-45285715D01*
X45952381Y-45523810D01*
X45952381Y-44523810D02*
X44952381Y-44523810D01*
X44952381Y-44285715D01*
X45000000Y-44142857D01*
X45095238Y-44047619D01*
X45190476Y-44000000D01*
X45380952Y-43952381D01*
X45523810Y-43952381D01*
X45714286Y-44000000D01*
X45809524Y-44047619D01*
X45904762Y-44142857D01*
X45952381Y-44285715D01*
X45952381Y-44523810D01*
X31044762Y-36452381D02*
X31378095Y-37452381D01*
X31711429Y-36452381D01*
X32044762Y-37452381D02*
X32044762Y-36452381D01*
X32520952Y-37452381D02*
X32520952Y-36452381D01*
X33092381Y-37452381D01*
X33092381Y-36452381D01*
X37404762Y-33577143D02*
X37452381Y-33434286D01*
X37452381Y-33196190D01*
X37404762Y-33100952D01*
X37357143Y-33053333D01*
X37261905Y-33005714D01*
X37166667Y-33005714D01*
X37071429Y-33053333D01*
X37023810Y-33100952D01*
X36976190Y-33196190D01*
X36928571Y-33386667D01*
X36880952Y-33481905D01*
X36833333Y-33529524D01*
X36738095Y-33577143D01*
X36642857Y-33577143D01*
X36547619Y-33529524D01*
X36500000Y-33481905D01*
X36452381Y-33386667D01*
X36452381Y-33148571D01*
X36500000Y-33005714D01*
X36452381Y-32672381D02*
X37452381Y-32434286D01*
X36738095Y-32243809D01*
X37452381Y-32053333D01*
X36452381Y-31815238D01*
X37452381Y-31434286D02*
X36452381Y-31434286D01*
X36452381Y-31196191D01*
X36500000Y-31053333D01*
X36595238Y-30958095D01*
X36690476Y-30910476D01*
X36880952Y-30862857D01*
X37023810Y-30862857D01*
X37214286Y-30910476D01*
X37309524Y-30958095D01*
X37404762Y-31053333D01*
X37452381Y-31196191D01*
X37452381Y-31434286D01*
X47333334Y-43357143D02*
X47285715Y-43404762D01*
X47142858Y-43452381D01*
X47047620Y-43452381D01*
X46904762Y-43404762D01*
X46809524Y-43309524D01*
X46761905Y-43214286D01*
X46714286Y-43023810D01*
X46714286Y-42880952D01*
X46761905Y-42690476D01*
X46809524Y-42595238D01*
X46904762Y-42500000D01*
X47047620Y-42452381D01*
X47142858Y-42452381D01*
X47285715Y-42500000D01*
X47333334Y-42547619D01*
X48285715Y-43452381D02*
X47714286Y-43452381D01*
X48000000Y-43452381D02*
X48000000Y-42452381D01*
X47904762Y-42595238D01*
X47809524Y-42690476D01*
X47714286Y-42738095D01*
X63857143Y-43666666D02*
X63904762Y-43714285D01*
X63952381Y-43857142D01*
X63952381Y-43952380D01*
X63904762Y-44095238D01*
X63809524Y-44190476D01*
X63714286Y-44238095D01*
X63523810Y-44285714D01*
X63380952Y-44285714D01*
X63190476Y-44238095D01*
X63095238Y-44190476D01*
X63000000Y-44095238D01*
X62952381Y-43952380D01*
X62952381Y-43857142D01*
X63000000Y-43714285D01*
X63047619Y-43666666D01*
X63047619Y-43285714D02*
X63000000Y-43238095D01*
X62952381Y-43142857D01*
X62952381Y-42904761D01*
X63000000Y-42809523D01*
X63047619Y-42761904D01*
X63142857Y-42714285D01*
X63238095Y-42714285D01*
X63380952Y-42761904D01*
X63952381Y-43333333D01*
X63952381Y-42714285D01*
X35333334Y-36857143D02*
X35285715Y-36904762D01*
X35142858Y-36952381D01*
X35047620Y-36952381D01*
X34904762Y-36904762D01*
X34809524Y-36809524D01*
X34761905Y-36714286D01*
X34714286Y-36523810D01*
X34714286Y-36380952D01*
X34761905Y-36190476D01*
X34809524Y-36095238D01*
X34904762Y-36000000D01*
X35047620Y-35952381D01*
X35142858Y-35952381D01*
X35285715Y-36000000D01*
X35333334Y-36047619D01*
X35666667Y-35952381D02*
X36285715Y-35952381D01*
X35952381Y-36333333D01*
X36095239Y-36333333D01*
X36190477Y-36380952D01*
X36238096Y-36428571D01*
X36285715Y-36523810D01*
X36285715Y-36761905D01*
X36238096Y-36857143D01*
X36190477Y-36904762D01*
X36095239Y-36952381D01*
X35809524Y-36952381D01*
X35714286Y-36904762D01*
X35666667Y-36857143D01*
X46333334Y-37857143D02*
X46285715Y-37904762D01*
X46142858Y-37952381D01*
X46047620Y-37952381D01*
X45904762Y-37904762D01*
X45809524Y-37809524D01*
X45761905Y-37714286D01*
X45714286Y-37523810D01*
X45714286Y-37380952D01*
X45761905Y-37190476D01*
X45809524Y-37095238D01*
X45904762Y-37000000D01*
X46047620Y-36952381D01*
X46142858Y-36952381D01*
X46285715Y-37000000D01*
X46333334Y-37047619D01*
X47190477Y-37285714D02*
X47190477Y-37952381D01*
X46952381Y-36904762D02*
X46714286Y-37619048D01*
X47333334Y-37619048D01*
X47333334Y-41952381D02*
X47000000Y-41476190D01*
X46761905Y-41952381D02*
X46761905Y-40952381D01*
X47142858Y-40952381D01*
X47238096Y-41000000D01*
X47285715Y-41047619D01*
X47333334Y-41142857D01*
X47333334Y-41285714D01*
X47285715Y-41380952D01*
X47238096Y-41428571D01*
X47142858Y-41476190D01*
X46761905Y-41476190D01*
X48285715Y-41952381D02*
X47714286Y-41952381D01*
X48000000Y-41952381D02*
X48000000Y-40952381D01*
X47904762Y-41095238D01*
X47809524Y-41190476D01*
X47714286Y-41238095D01*
X35333334Y-45702381D02*
X35000000Y-45226190D01*
X34761905Y-45702381D02*
X34761905Y-44702381D01*
X35142858Y-44702381D01*
X35238096Y-44750000D01*
X35285715Y-44797619D01*
X35333334Y-44892857D01*
X35333334Y-45035714D01*
X35285715Y-45130952D01*
X35238096Y-45178571D01*
X35142858Y-45226190D01*
X34761905Y-45226190D01*
X36190477Y-44702381D02*
X36000000Y-44702381D01*
X35904762Y-44750000D01*
X35857143Y-44797619D01*
X35761905Y-44940476D01*
X35714286Y-45130952D01*
X35714286Y-45511905D01*
X35761905Y-45607143D01*
X35809524Y-45654762D01*
X35904762Y-45702381D01*
X36095239Y-45702381D01*
X36190477Y-45654762D01*
X36238096Y-45607143D01*
X36285715Y-45511905D01*
X36285715Y-45273810D01*
X36238096Y-45178571D01*
X36190477Y-45130952D01*
X36095239Y-45083333D01*
X35904762Y-45083333D01*
X35809524Y-45130952D01*
X35761905Y-45178571D01*
X35714286Y-45273810D01*
X67833334Y-38952381D02*
X67500000Y-38476190D01*
X67261905Y-38952381D02*
X67261905Y-37952381D01*
X67642858Y-37952381D01*
X67738096Y-38000000D01*
X67785715Y-38047619D01*
X67833334Y-38142857D01*
X67833334Y-38285714D01*
X67785715Y-38380952D01*
X67738096Y-38428571D01*
X67642858Y-38476190D01*
X67261905Y-38476190D01*
X68166667Y-37952381D02*
X68833334Y-37952381D01*
X68404762Y-38952381D01*
X67833334Y-40952381D02*
X67500000Y-40476190D01*
X67261905Y-40952381D02*
X67261905Y-39952381D01*
X67642858Y-39952381D01*
X67738096Y-40000000D01*
X67785715Y-40047619D01*
X67833334Y-40142857D01*
X67833334Y-40285714D01*
X67785715Y-40380952D01*
X67738096Y-40428571D01*
X67642858Y-40476190D01*
X67261905Y-40476190D01*
X68404762Y-40380952D02*
X68309524Y-40333333D01*
X68261905Y-40285714D01*
X68214286Y-40190476D01*
X68214286Y-40142857D01*
X68261905Y-40047619D01*
X68309524Y-40000000D01*
X68404762Y-39952381D01*
X68595239Y-39952381D01*
X68690477Y-40000000D01*
X68738096Y-40047619D01*
X68785715Y-40142857D01*
X68785715Y-40190476D01*
X68738096Y-40285714D01*
X68690477Y-40333333D01*
X68595239Y-40380952D01*
X68404762Y-40380952D01*
X68309524Y-40428571D01*
X68261905Y-40476190D01*
X68214286Y-40571429D01*
X68214286Y-40761905D01*
X68261905Y-40857143D01*
X68309524Y-40904762D01*
X68404762Y-40952381D01*
X68595239Y-40952381D01*
X68690477Y-40904762D01*
X68738096Y-40857143D01*
X68785715Y-40761905D01*
X68785715Y-40571429D01*
X68738096Y-40476190D01*
X68690477Y-40428571D01*
X68595239Y-40380952D01*
X67833334Y-42952381D02*
X67500000Y-42476190D01*
X67261905Y-42952381D02*
X67261905Y-41952381D01*
X67642858Y-41952381D01*
X67738096Y-42000000D01*
X67785715Y-42047619D01*
X67833334Y-42142857D01*
X67833334Y-42285714D01*
X67785715Y-42380952D01*
X67738096Y-42428571D01*
X67642858Y-42476190D01*
X67261905Y-42476190D01*
X68309524Y-42952381D02*
X68500000Y-42952381D01*
X68595239Y-42904762D01*
X68642858Y-42857143D01*
X68738096Y-42714286D01*
X68785715Y-42523810D01*
X68785715Y-42142857D01*
X68738096Y-42047619D01*
X68690477Y-42000000D01*
X68595239Y-41952381D01*
X68404762Y-41952381D01*
X68309524Y-42000000D01*
X68261905Y-42047619D01*
X68214286Y-42142857D01*
X68214286Y-42380952D01*
X68261905Y-42476190D01*
X68309524Y-42523810D01*
X68404762Y-42571429D01*
X68595239Y-42571429D01*
X68690477Y-42523810D01*
X68738096Y-42476190D01*
X68785715Y-42380952D01*
X66857143Y-44952381D02*
X66523809Y-44476190D01*
X66285714Y-44952381D02*
X66285714Y-43952381D01*
X66666667Y-43952381D01*
X66761905Y-44000000D01*
X66809524Y-44047619D01*
X66857143Y-44142857D01*
X66857143Y-44285714D01*
X66809524Y-44380952D01*
X66761905Y-44428571D01*
X66666667Y-44476190D01*
X66285714Y-44476190D01*
X67809524Y-44952381D02*
X67238095Y-44952381D01*
X67523809Y-44952381D02*
X67523809Y-43952381D01*
X67428571Y-44095238D01*
X67333333Y-44190476D01*
X67238095Y-44238095D01*
X68428571Y-43952381D02*
X68523810Y-43952381D01*
X68619048Y-44000000D01*
X68666667Y-44047619D01*
X68714286Y-44142857D01*
X68761905Y-44333333D01*
X68761905Y-44571429D01*
X68714286Y-44761905D01*
X68666667Y-44857143D01*
X68619048Y-44904762D01*
X68523810Y-44952381D01*
X68428571Y-44952381D01*
X68333333Y-44904762D01*
X68285714Y-44857143D01*
X68238095Y-44761905D01*
X68190476Y-44571429D01*
X68190476Y-44333333D01*
X68238095Y-44142857D01*
X68285714Y-44047619D01*
X68333333Y-44000000D01*
X68428571Y-43952381D01*
X66857143Y-46952381D02*
X66523809Y-46476190D01*
X66285714Y-46952381D02*
X66285714Y-45952381D01*
X66666667Y-45952381D01*
X66761905Y-46000000D01*
X66809524Y-46047619D01*
X66857143Y-46142857D01*
X66857143Y-46285714D01*
X66809524Y-46380952D01*
X66761905Y-46428571D01*
X66666667Y-46476190D01*
X66285714Y-46476190D01*
X67809524Y-46952381D02*
X67238095Y-46952381D01*
X67523809Y-46952381D02*
X67523809Y-45952381D01*
X67428571Y-46095238D01*
X67333333Y-46190476D01*
X67238095Y-46238095D01*
X68761905Y-46952381D02*
X68190476Y-46952381D01*
X68476190Y-46952381D02*
X68476190Y-45952381D01*
X68380952Y-46095238D01*
X68285714Y-46190476D01*
X68190476Y-46238095D01*
X55547619Y-37452381D02*
X55214285Y-36976190D01*
X54976190Y-37452381D02*
X54976190Y-36452381D01*
X55357143Y-36452381D01*
X55452381Y-36500000D01*
X55500000Y-36547619D01*
X55547619Y-36642857D01*
X55547619Y-36785714D01*
X55500000Y-36880952D01*
X55452381Y-36928571D01*
X55357143Y-36976190D01*
X54976190Y-36976190D01*
X55976190Y-36928571D02*
X56309524Y-36928571D01*
X56452381Y-37452381D02*
X55976190Y-37452381D01*
X55976190Y-36452381D01*
X56452381Y-36452381D01*
X56833333Y-37404762D02*
X56976190Y-37452381D01*
X57214286Y-37452381D01*
X57309524Y-37404762D01*
X57357143Y-37357143D01*
X57404762Y-37261905D01*
X57404762Y-37166667D01*
X57357143Y-37071429D01*
X57309524Y-37023810D01*
X57214286Y-36976190D01*
X57023809Y-36928571D01*
X56928571Y-36880952D01*
X56880952Y-36833333D01*
X56833333Y-36738095D01*
X56833333Y-36642857D01*
X56880952Y-36547619D01*
X56928571Y-36500000D01*
X57023809Y-36452381D01*
X57261905Y-36452381D01*
X57404762Y-36500000D01*
X57833333Y-36928571D02*
X58166667Y-36928571D01*
X58309524Y-37452381D02*
X57833333Y-37452381D01*
X57833333Y-36452381D01*
X58309524Y-36452381D01*
X58595238Y-36452381D02*
X59166667Y-36452381D01*
X58880952Y-37452381D02*
X58880952Y-36452381D01*
X64833333Y-37452381D02*
X64833333Y-36452381D01*
X65214286Y-36452381D01*
X65309524Y-36500000D01*
X65357143Y-36547619D01*
X65404762Y-36642857D01*
X65404762Y-36785714D01*
X65357143Y-36880952D01*
X65309524Y-36928571D01*
X65214286Y-36976190D01*
X64833333Y-36976190D01*
X65785714Y-37166667D02*
X66261905Y-37166667D01*
X65690476Y-37452381D02*
X66023809Y-36452381D01*
X66357143Y-37452381D01*
X66880952Y-36452381D02*
X66976191Y-36452381D01*
X67071429Y-36500000D01*
X67119048Y-36547619D01*
X67166667Y-36642857D01*
X67214286Y-36833333D01*
X67214286Y-37071429D01*
X67166667Y-37261905D01*
X67119048Y-37357143D01*
X67071429Y-37404762D01*
X66976191Y-37452381D01*
X66880952Y-37452381D01*
X66785714Y-37404762D01*
X66738095Y-37357143D01*
X66690476Y-37261905D01*
X66642857Y-37071429D01*
X66642857Y-36833333D01*
X66690476Y-36642857D01*
X66738095Y-36547619D01*
X66785714Y-36500000D01*
X66880952Y-36452381D01*
X31761905Y-45702381D02*
X31761905Y-44702381D01*
X32000000Y-44702381D01*
X32142858Y-44750000D01*
X32238096Y-44845238D01*
X32285715Y-44940476D01*
X32333334Y-45130952D01*
X32333334Y-45273810D01*
X32285715Y-45464286D01*
X32238096Y-45559524D01*
X32142858Y-45654762D01*
X32000000Y-45702381D01*
X31761905Y-45702381D01*
X33285715Y-45702381D02*
X32714286Y-45702381D01*
X33000000Y-45702381D02*
X33000000Y-44702381D01*
X32904762Y-44845238D01*
X32809524Y-44940476D01*
X32714286Y-44988095D01*
X73333333Y-38952381D02*
X73333333Y-37952381D01*
X73714286Y-37952381D01*
X73809524Y-38000000D01*
X73857143Y-38047619D01*
X73904762Y-38142857D01*
X73904762Y-38285714D01*
X73857143Y-38380952D01*
X73809524Y-38428571D01*
X73714286Y-38476190D01*
X73333333Y-38476190D01*
X74285714Y-38666667D02*
X74761905Y-38666667D01*
X74190476Y-38952381D02*
X74523809Y-37952381D01*
X74857143Y-38952381D01*
X75714286Y-38952381D02*
X75142857Y-38952381D01*
X75428571Y-38952381D02*
X75428571Y-37952381D01*
X75333333Y-38095238D01*
X75238095Y-38190476D01*
X75142857Y-38238095D01*
X73333333Y-40952381D02*
X73333333Y-39952381D01*
X73714286Y-39952381D01*
X73809524Y-40000000D01*
X73857143Y-40047619D01*
X73904762Y-40142857D01*
X73904762Y-40285714D01*
X73857143Y-40380952D01*
X73809524Y-40428571D01*
X73714286Y-40476190D01*
X73333333Y-40476190D01*
X74285714Y-40666667D02*
X74761905Y-40666667D01*
X74190476Y-40952381D02*
X74523809Y-39952381D01*
X74857143Y-40952381D01*
X75142857Y-40047619D02*
X75190476Y-40000000D01*
X75285714Y-39952381D01*
X75523810Y-39952381D01*
X75619048Y-40000000D01*
X75666667Y-40047619D01*
X75714286Y-40142857D01*
X75714286Y-40238095D01*
X75666667Y-40380952D01*
X75095238Y-40952381D01*
X75714286Y-40952381D01*
X73333333Y-42952381D02*
X73333333Y-41952381D01*
X73714286Y-41952381D01*
X73809524Y-42000000D01*
X73857143Y-42047619D01*
X73904762Y-42142857D01*
X73904762Y-42285714D01*
X73857143Y-42380952D01*
X73809524Y-42428571D01*
X73714286Y-42476190D01*
X73333333Y-42476190D01*
X74285714Y-42666667D02*
X74761905Y-42666667D01*
X74190476Y-42952381D02*
X74523809Y-41952381D01*
X74857143Y-42952381D01*
X75095238Y-41952381D02*
X75714286Y-41952381D01*
X75380952Y-42333333D01*
X75523810Y-42333333D01*
X75619048Y-42380952D01*
X75666667Y-42428571D01*
X75714286Y-42523810D01*
X75714286Y-42761905D01*
X75666667Y-42857143D01*
X75619048Y-42904762D01*
X75523810Y-42952381D01*
X75238095Y-42952381D01*
X75142857Y-42904762D01*
X75095238Y-42857143D01*
X73333333Y-44952381D02*
X73333333Y-43952381D01*
X73714286Y-43952381D01*
X73809524Y-44000000D01*
X73857143Y-44047619D01*
X73904762Y-44142857D01*
X73904762Y-44285714D01*
X73857143Y-44380952D01*
X73809524Y-44428571D01*
X73714286Y-44476190D01*
X73333333Y-44476190D01*
X74285714Y-44666667D02*
X74761905Y-44666667D01*
X74190476Y-44952381D02*
X74523809Y-43952381D01*
X74857143Y-44952381D01*
X75238095Y-44952381D02*
X75428571Y-44952381D01*
X75523810Y-44904762D01*
X75571429Y-44857143D01*
X75666667Y-44714286D01*
X75714286Y-44523810D01*
X75714286Y-44142857D01*
X75666667Y-44047619D01*
X75619048Y-44000000D01*
X75523810Y-43952381D01*
X75333333Y-43952381D01*
X75238095Y-44000000D01*
X75190476Y-44047619D01*
X75142857Y-44142857D01*
X75142857Y-44380952D01*
X75190476Y-44476190D01*
X75238095Y-44523810D01*
X75333333Y-44571429D01*
X75523810Y-44571429D01*
X75619048Y-44523810D01*
X75666667Y-44476190D01*
X75714286Y-44380952D01*
X72357143Y-46952381D02*
X72357143Y-45952381D01*
X72738096Y-45952381D01*
X72833334Y-46000000D01*
X72880953Y-46047619D01*
X72928572Y-46142857D01*
X72928572Y-46285714D01*
X72880953Y-46380952D01*
X72833334Y-46428571D01*
X72738096Y-46476190D01*
X72357143Y-46476190D01*
X73309524Y-46666667D02*
X73785715Y-46666667D01*
X73214286Y-46952381D02*
X73547619Y-45952381D01*
X73880953Y-46952381D01*
X74738096Y-46952381D02*
X74166667Y-46952381D01*
X74452381Y-46952381D02*
X74452381Y-45952381D01*
X74357143Y-46095238D01*
X74261905Y-46190476D01*
X74166667Y-46238095D01*
X75357143Y-45952381D02*
X75452382Y-45952381D01*
X75547620Y-46000000D01*
X75595239Y-46047619D01*
X75642858Y-46142857D01*
X75690477Y-46333333D01*
X75690477Y-46571429D01*
X75642858Y-46761905D01*
X75595239Y-46857143D01*
X75547620Y-46904762D01*
X75452382Y-46952381D01*
X75357143Y-46952381D01*
X75261905Y-46904762D01*
X75214286Y-46857143D01*
X75166667Y-46761905D01*
X75119048Y-46571429D01*
X75119048Y-46333333D01*
X75166667Y-46142857D01*
X75214286Y-46047619D01*
X75261905Y-46000000D01*
X75357143Y-45952381D01*
X50916667Y-36952381D02*
X50916667Y-37666667D01*
X50869047Y-37809524D01*
X50773809Y-37904762D01*
X50630952Y-37952381D01*
X50535714Y-37952381D01*
X51821429Y-37285714D02*
X51821429Y-37952381D01*
X51583333Y-36904762D02*
X51345238Y-37619048D01*
X51964286Y-37619048D01*
X71166667Y-32452381D02*
X71166667Y-33166667D01*
X71119047Y-33309524D01*
X71023809Y-33404762D01*
X70880952Y-33452381D01*
X70785714Y-33452381D01*
X72166667Y-33452381D02*
X71595238Y-33452381D01*
X71880952Y-33452381D02*
X71880952Y-32452381D01*
X71785714Y-32595238D01*
X71690476Y-32690476D01*
X71595238Y-32738095D01*
%LPC*%
D14*
X42300000Y-44920000D03*
X39760000Y-44920000D03*
D15*
X51190000Y-77940000D03*
X48650000Y-77940000D03*
X49920000Y-77940000D03*
X49920000Y-79210000D03*
X51190000Y-79210000D03*
X48650000Y-79210000D03*
X43570000Y-77940000D03*
X47380000Y-77940000D03*
X46110000Y-79210000D03*
X46110000Y-77940000D03*
X44840000Y-77940000D03*
X47380000Y-79210000D03*
X43570000Y-79210000D03*
X44840000Y-79210000D03*
X58810000Y-79210000D03*
X60080000Y-77940000D03*
X57540000Y-77940000D03*
X60080000Y-79210000D03*
X57540000Y-79210000D03*
X58810000Y-77940000D03*
X56270000Y-77940000D03*
X55000000Y-77940000D03*
X53730000Y-77940000D03*
X52460000Y-77940000D03*
X53730000Y-79210000D03*
X55000000Y-79210000D03*
X56270000Y-79210000D03*
X52460000Y-79210000D03*
X71510000Y-77940000D03*
X72780000Y-79210000D03*
X71510000Y-79210000D03*
X72780000Y-77940000D03*
X74050000Y-77940000D03*
X74050000Y-79210000D03*
X62620000Y-79210000D03*
X61350000Y-77940000D03*
X61350000Y-79210000D03*
X62620000Y-77940000D03*
X63890000Y-79210000D03*
X65160000Y-79210000D03*
X63890000Y-77940000D03*
X66430000Y-79210000D03*
X67700000Y-77940000D03*
X67700000Y-79210000D03*
X66430000Y-77940000D03*
X65160000Y-77940000D03*
X68970000Y-79210000D03*
X70240000Y-77940000D03*
X70240000Y-79210000D03*
X68970000Y-77940000D03*
X37220000Y-77940000D03*
X37220000Y-79210000D03*
X35950000Y-79210000D03*
X41030000Y-79210000D03*
X41030000Y-77940000D03*
X39760000Y-79210000D03*
X38490000Y-79210000D03*
X38490000Y-77940000D03*
X39760000Y-77940000D03*
X42300000Y-77940000D03*
X42300000Y-79210000D03*
X35950000Y-77940000D03*
X53730000Y-71590000D03*
X55000000Y-70320000D03*
X53730000Y-72860000D03*
X53730000Y-70320000D03*
X56270000Y-74130000D03*
X51190000Y-74130000D03*
X49920000Y-72860000D03*
X52460000Y-72860000D03*
X52460000Y-74130000D03*
X49920000Y-74130000D03*
X51190000Y-72860000D03*
X53730000Y-69050000D03*
X52460000Y-69050000D03*
X51190000Y-69050000D03*
X49920000Y-69050000D03*
X51190000Y-71590000D03*
X49920000Y-70320000D03*
X52460000Y-70320000D03*
X52460000Y-71590000D03*
X49920000Y-71590000D03*
X51190000Y-70320000D03*
X55000000Y-69050000D03*
X56270000Y-69050000D03*
X57540000Y-76670000D03*
X55000000Y-76670000D03*
X56270000Y-76670000D03*
X56270000Y-75400000D03*
X56270000Y-71590000D03*
X56270000Y-72860000D03*
X55000000Y-71590000D03*
X56270000Y-70320000D03*
X55000000Y-72860000D03*
X51190000Y-75400000D03*
X49920000Y-75400000D03*
X52460000Y-75400000D03*
X52460000Y-76670000D03*
X49920000Y-76670000D03*
X51190000Y-76670000D03*
X53730000Y-76670000D03*
X53730000Y-74130000D03*
X55000000Y-74130000D03*
X55000000Y-75400000D03*
X53730000Y-75400000D03*
X34680000Y-69050000D03*
X37220000Y-71590000D03*
X37220000Y-70320000D03*
X38490000Y-71590000D03*
X38490000Y-70320000D03*
X39760000Y-71590000D03*
X34680000Y-71590000D03*
X34680000Y-70320000D03*
X35950000Y-70320000D03*
X35950000Y-71590000D03*
X35950000Y-69050000D03*
X37220000Y-69050000D03*
X39760000Y-69050000D03*
X38490000Y-69050000D03*
X39760000Y-70320000D03*
X41030000Y-71590000D03*
X42300000Y-70320000D03*
X41030000Y-70320000D03*
X41030000Y-69050000D03*
X42300000Y-69050000D03*
X44840000Y-69050000D03*
X47380000Y-69050000D03*
X47380000Y-70320000D03*
X48650000Y-69050000D03*
X48650000Y-70320000D03*
X42300000Y-71590000D03*
X43570000Y-70320000D03*
X43570000Y-69050000D03*
X43570000Y-71590000D03*
X44840000Y-70320000D03*
X44840000Y-71590000D03*
X47380000Y-71590000D03*
X46110000Y-69050000D03*
X48650000Y-71590000D03*
X46110000Y-70320000D03*
X46110000Y-71590000D03*
X33410000Y-71590000D03*
X30870000Y-70320000D03*
X32140000Y-71590000D03*
X32140000Y-70320000D03*
X33410000Y-70320000D03*
X30870000Y-71590000D03*
X33410000Y-69050000D03*
X30870000Y-69050000D03*
X32140000Y-69050000D03*
X37220000Y-76670000D03*
X35950000Y-76670000D03*
X35950000Y-75400000D03*
X37220000Y-75400000D03*
X39760000Y-76670000D03*
X38490000Y-76670000D03*
X38490000Y-75400000D03*
X37220000Y-74130000D03*
X35950000Y-74130000D03*
X35950000Y-72860000D03*
X38490000Y-72860000D03*
X37220000Y-72860000D03*
X30870000Y-74130000D03*
X30870000Y-72860000D03*
X34680000Y-74130000D03*
X34680000Y-72860000D03*
X32140000Y-74130000D03*
X32140000Y-72860000D03*
X33410000Y-72860000D03*
X33410000Y-74130000D03*
X38490000Y-74130000D03*
X39760000Y-75400000D03*
X39760000Y-72860000D03*
X39760000Y-74130000D03*
X47380000Y-74130000D03*
X48650000Y-72860000D03*
X46110000Y-74130000D03*
X47380000Y-72860000D03*
X48650000Y-74130000D03*
X41030000Y-74130000D03*
X43570000Y-74130000D03*
X42300000Y-74130000D03*
X42300000Y-72860000D03*
X43570000Y-72860000D03*
X41030000Y-72860000D03*
X47380000Y-76670000D03*
X47380000Y-75400000D03*
X48650000Y-76670000D03*
X48650000Y-75400000D03*
X46110000Y-76670000D03*
X41030000Y-76670000D03*
X41030000Y-75400000D03*
X42300000Y-75400000D03*
X42300000Y-76670000D03*
X43570000Y-76670000D03*
X43570000Y-75400000D03*
X44840000Y-74130000D03*
X46110000Y-72860000D03*
X44840000Y-72860000D03*
X44840000Y-76670000D03*
X46110000Y-75400000D03*
X44840000Y-75400000D03*
X62620000Y-76670000D03*
X62620000Y-75400000D03*
X61350000Y-76670000D03*
X61350000Y-75400000D03*
X60080000Y-75400000D03*
X60080000Y-74130000D03*
X60080000Y-76670000D03*
X58810000Y-69050000D03*
X58810000Y-70320000D03*
X61350000Y-70320000D03*
X60080000Y-70320000D03*
X60080000Y-69050000D03*
X61350000Y-74130000D03*
X61350000Y-72860000D03*
X60080000Y-72860000D03*
X61350000Y-71590000D03*
X60080000Y-71590000D03*
X57540000Y-72860000D03*
X58810000Y-71590000D03*
X58810000Y-72860000D03*
X57540000Y-71590000D03*
X57540000Y-69050000D03*
X57540000Y-70320000D03*
X58810000Y-76670000D03*
X57540000Y-75400000D03*
X58810000Y-74130000D03*
X58810000Y-75400000D03*
X57540000Y-74130000D03*
X70240000Y-72860000D03*
X70240000Y-74130000D03*
X70240000Y-71590000D03*
X71510000Y-71590000D03*
X75320000Y-74130000D03*
X74050000Y-76670000D03*
X74050000Y-75400000D03*
X74050000Y-74130000D03*
X75320000Y-71590000D03*
X75320000Y-72860000D03*
X77860000Y-74130000D03*
X77860000Y-71590000D03*
X76590000Y-74130000D03*
X76590000Y-71590000D03*
X76590000Y-72860000D03*
X79130000Y-71590000D03*
X79130000Y-72860000D03*
X77860000Y-72860000D03*
X79130000Y-74130000D03*
X70240000Y-75400000D03*
X71510000Y-75400000D03*
X72780000Y-76670000D03*
X71510000Y-76670000D03*
X72780000Y-75400000D03*
X70240000Y-76670000D03*
X74050000Y-71590000D03*
X74050000Y-72860000D03*
X71510000Y-72860000D03*
X71510000Y-74130000D03*
X72780000Y-74130000D03*
X72780000Y-71590000D03*
X72780000Y-72860000D03*
X71510000Y-69050000D03*
X72780000Y-69050000D03*
X79130000Y-70320000D03*
X79130000Y-69050000D03*
X77860000Y-70320000D03*
X75320000Y-70320000D03*
X74050000Y-69050000D03*
X74050000Y-70320000D03*
X75320000Y-69050000D03*
X70240000Y-70320000D03*
X71510000Y-70320000D03*
X70240000Y-69050000D03*
X72780000Y-70320000D03*
X77860000Y-69050000D03*
X76590000Y-70320000D03*
X76590000Y-69050000D03*
X68970000Y-76670000D03*
X67700000Y-74130000D03*
X67700000Y-76670000D03*
X68970000Y-74130000D03*
X67700000Y-75400000D03*
X68970000Y-75400000D03*
X63890000Y-76670000D03*
X63890000Y-75400000D03*
X65160000Y-76670000D03*
X66430000Y-74130000D03*
X66430000Y-75400000D03*
X65160000Y-75400000D03*
X66430000Y-76670000D03*
X65160000Y-74130000D03*
X65160000Y-69050000D03*
X66430000Y-69050000D03*
X63890000Y-70320000D03*
X61350000Y-69050000D03*
X62620000Y-70320000D03*
X62620000Y-69050000D03*
X63890000Y-74130000D03*
X63890000Y-71590000D03*
X63890000Y-72860000D03*
X62620000Y-72860000D03*
X62620000Y-71590000D03*
X62620000Y-74130000D03*
X67700000Y-71590000D03*
X65160000Y-71590000D03*
X65160000Y-72860000D03*
X67700000Y-70320000D03*
X66430000Y-71590000D03*
X65160000Y-70320000D03*
X67700000Y-72860000D03*
X68970000Y-71590000D03*
X68970000Y-72860000D03*
X66430000Y-70320000D03*
X66430000Y-72860000D03*
X68970000Y-70320000D03*
X67700000Y-69050000D03*
X68970000Y-69050000D03*
X63890000Y-69050000D03*
X41030000Y-67780000D03*
X41030000Y-65240000D03*
X41030000Y-62700000D03*
X41030000Y-60160000D03*
X41030000Y-66510000D03*
X41030000Y-63970000D03*
X41030000Y-61430000D03*
X41030000Y-58890000D03*
X42300000Y-66510000D03*
X42300000Y-63970000D03*
X42300000Y-61430000D03*
X42300000Y-58890000D03*
X42300000Y-67780000D03*
X42300000Y-65240000D03*
X42300000Y-62700000D03*
X42300000Y-60160000D03*
X43570000Y-67780000D03*
X43570000Y-65240000D03*
X43570000Y-62700000D03*
X43570000Y-60160000D03*
X43570000Y-66510000D03*
X43570000Y-63970000D03*
X43570000Y-61430000D03*
X43570000Y-58890000D03*
X34680000Y-67780000D03*
X34680000Y-65240000D03*
X34680000Y-62700000D03*
X34680000Y-60160000D03*
X33410000Y-67780000D03*
X33410000Y-65240000D03*
X33410000Y-62700000D03*
X33410000Y-60160000D03*
X32140000Y-67780000D03*
X32140000Y-65240000D03*
X32140000Y-62700000D03*
X32140000Y-60160000D03*
X34680000Y-66510000D03*
X34680000Y-63970000D03*
X34680000Y-61430000D03*
X34680000Y-58890000D03*
X32140000Y-66510000D03*
X32140000Y-63970000D03*
X32140000Y-61430000D03*
X32140000Y-58890000D03*
X33410000Y-66510000D03*
X33410000Y-63970000D03*
X33410000Y-61430000D03*
X33410000Y-58890000D03*
X37220000Y-67780000D03*
X37220000Y-65240000D03*
X37220000Y-62700000D03*
X37220000Y-60160000D03*
X37220000Y-66510000D03*
X37220000Y-63970000D03*
X37220000Y-61430000D03*
X37220000Y-58890000D03*
X35950000Y-66510000D03*
X35950000Y-63970000D03*
X35950000Y-61430000D03*
X35950000Y-58890000D03*
X35950000Y-67780000D03*
X35950000Y-65240000D03*
X35950000Y-62700000D03*
X35950000Y-60160000D03*
X39760000Y-67780000D03*
X39760000Y-65240000D03*
X39760000Y-62700000D03*
X39760000Y-60160000D03*
X39760000Y-66510000D03*
X39760000Y-63970000D03*
X39760000Y-61430000D03*
X39760000Y-58890000D03*
X38490000Y-67780000D03*
X38490000Y-65240000D03*
X38490000Y-62700000D03*
X38490000Y-60160000D03*
X38490000Y-66510000D03*
X38490000Y-63970000D03*
X38490000Y-61430000D03*
X38490000Y-58890000D03*
X47380000Y-67780000D03*
X47380000Y-65240000D03*
X47380000Y-62700000D03*
X47380000Y-60160000D03*
X47380000Y-66510000D03*
X47380000Y-63970000D03*
X47380000Y-61430000D03*
X47380000Y-58890000D03*
X48650000Y-67780000D03*
X48650000Y-65240000D03*
X48650000Y-62700000D03*
X48650000Y-60160000D03*
X48650000Y-66510000D03*
X48650000Y-63970000D03*
X48650000Y-61430000D03*
X48650000Y-58890000D03*
X46110000Y-67780000D03*
X46110000Y-65240000D03*
X46110000Y-62700000D03*
X46110000Y-60160000D03*
X44840000Y-66510000D03*
X44840000Y-63970000D03*
X44840000Y-61430000D03*
X44840000Y-58890000D03*
X44840000Y-67780000D03*
X44840000Y-65240000D03*
X44840000Y-62700000D03*
X44840000Y-60160000D03*
X46110000Y-66510000D03*
X46110000Y-63970000D03*
X46110000Y-61430000D03*
X46110000Y-58890000D03*
X75320000Y-67780000D03*
X75320000Y-65240000D03*
X75320000Y-62700000D03*
X75320000Y-60160000D03*
X77860000Y-67780000D03*
X77860000Y-65240000D03*
X77860000Y-62700000D03*
X77860000Y-60160000D03*
X76590000Y-67780000D03*
X76590000Y-65240000D03*
X76590000Y-62700000D03*
X76590000Y-60160000D03*
X79130000Y-67780000D03*
X79130000Y-65240000D03*
X79130000Y-62700000D03*
X79130000Y-60160000D03*
X74050000Y-67780000D03*
X74050000Y-65240000D03*
X74050000Y-62700000D03*
X74050000Y-60160000D03*
X79130000Y-66510000D03*
X79130000Y-63970000D03*
X79130000Y-61430000D03*
X79130000Y-58890000D03*
X75320000Y-66510000D03*
X75320000Y-63970000D03*
X75320000Y-61430000D03*
X75320000Y-58890000D03*
X74050000Y-66510000D03*
X74050000Y-63970000D03*
X74050000Y-61430000D03*
X74050000Y-58890000D03*
X76590000Y-66510000D03*
X76590000Y-63970000D03*
X76590000Y-61430000D03*
X76590000Y-58890000D03*
X77860000Y-66510000D03*
X77860000Y-63970000D03*
X77860000Y-61430000D03*
X77860000Y-58890000D03*
X68970000Y-67780000D03*
X68970000Y-65240000D03*
X68970000Y-62700000D03*
X68970000Y-60160000D03*
X70240000Y-66510000D03*
X70240000Y-63970000D03*
X70240000Y-61430000D03*
X70240000Y-58890000D03*
X67700000Y-67780000D03*
X67700000Y-65240000D03*
X67700000Y-62700000D03*
X67700000Y-60160000D03*
X67700000Y-66510000D03*
X67700000Y-63970000D03*
X67700000Y-61430000D03*
X67700000Y-58890000D03*
X70240000Y-67780000D03*
X70240000Y-65240000D03*
X70240000Y-62700000D03*
X70240000Y-60160000D03*
X68970000Y-66510000D03*
X68970000Y-63970000D03*
X68970000Y-61430000D03*
X68970000Y-58890000D03*
X72780000Y-67780000D03*
X72780000Y-65240000D03*
X72780000Y-62700000D03*
X72780000Y-60160000D03*
X71510000Y-67780000D03*
X71510000Y-65240000D03*
X71510000Y-62700000D03*
X71510000Y-60160000D03*
X72780000Y-66510000D03*
X72780000Y-63970000D03*
X72780000Y-61430000D03*
X72780000Y-58890000D03*
X71510000Y-66510000D03*
X71510000Y-63970000D03*
X71510000Y-61430000D03*
X71510000Y-58890000D03*
X63890000Y-67780000D03*
X63890000Y-65240000D03*
X63890000Y-62700000D03*
X63890000Y-60160000D03*
X65160000Y-67780000D03*
X65160000Y-65240000D03*
X65160000Y-62700000D03*
X65160000Y-60160000D03*
X65160000Y-66510000D03*
X65160000Y-63970000D03*
X65160000Y-61430000D03*
X65160000Y-58890000D03*
X66430000Y-67780000D03*
X66430000Y-65240000D03*
X66430000Y-62700000D03*
X66430000Y-60160000D03*
X63890000Y-66510000D03*
X63890000Y-63970000D03*
X63890000Y-61430000D03*
X63890000Y-58890000D03*
X66430000Y-66510000D03*
X66430000Y-63970000D03*
X66430000Y-61430000D03*
X66430000Y-58890000D03*
X61350000Y-67780000D03*
X61350000Y-65240000D03*
X61350000Y-62700000D03*
X61350000Y-60160000D03*
X62620000Y-66510000D03*
X62620000Y-63970000D03*
X62620000Y-61430000D03*
X62620000Y-58890000D03*
X62620000Y-67780000D03*
X62620000Y-65240000D03*
X62620000Y-62700000D03*
X62620000Y-60160000D03*
X61350000Y-66510000D03*
X61350000Y-63970000D03*
X61350000Y-61430000D03*
X61350000Y-58890000D03*
X60080000Y-66510000D03*
X60080000Y-63970000D03*
X60080000Y-61430000D03*
X60080000Y-58890000D03*
X60080000Y-67780000D03*
X60080000Y-65240000D03*
X60080000Y-62700000D03*
X60080000Y-60160000D03*
X58810000Y-67780000D03*
X58810000Y-65240000D03*
X58810000Y-62700000D03*
X58810000Y-60160000D03*
X58810000Y-66510000D03*
X58810000Y-63970000D03*
X58810000Y-61430000D03*
X58810000Y-58890000D03*
X53730000Y-67780000D03*
X53730000Y-65240000D03*
X53730000Y-62700000D03*
X53730000Y-60160000D03*
X53730000Y-66510000D03*
X53730000Y-63970000D03*
X53730000Y-61430000D03*
X53730000Y-58890000D03*
X51190000Y-67780000D03*
X51190000Y-65240000D03*
X51190000Y-62700000D03*
X51190000Y-60160000D03*
X51190000Y-66510000D03*
X51190000Y-63970000D03*
X51190000Y-61430000D03*
X51190000Y-58890000D03*
X49920000Y-66510000D03*
X49920000Y-63970000D03*
X49920000Y-61430000D03*
X49920000Y-58890000D03*
X52460000Y-66510000D03*
X52460000Y-63970000D03*
X52460000Y-61430000D03*
X52460000Y-58890000D03*
X52460000Y-67780000D03*
X52460000Y-65240000D03*
X52460000Y-62700000D03*
X52460000Y-60160000D03*
X49920000Y-67780000D03*
X49920000Y-65240000D03*
X49920000Y-62700000D03*
X49920000Y-60160000D03*
X30870000Y-67780000D03*
X30870000Y-65240000D03*
X30870000Y-62700000D03*
X30870000Y-60160000D03*
X30870000Y-66510000D03*
X30870000Y-63970000D03*
X30870000Y-61430000D03*
X30870000Y-58890000D03*
X57540000Y-67780000D03*
X57540000Y-65240000D03*
X57540000Y-62700000D03*
X57540000Y-60160000D03*
X56270000Y-67780000D03*
X56270000Y-65240000D03*
X56270000Y-62700000D03*
X56270000Y-60160000D03*
X56270000Y-66510000D03*
X56270000Y-63970000D03*
X56270000Y-61430000D03*
X56270000Y-58890000D03*
X55000000Y-67780000D03*
X55000000Y-65240000D03*
X55000000Y-62700000D03*
X55000000Y-60160000D03*
X55000000Y-66510000D03*
X55000000Y-63970000D03*
X55000000Y-61430000D03*
X55000000Y-58890000D03*
X57540000Y-66510000D03*
X57540000Y-63970000D03*
X57540000Y-61430000D03*
X57540000Y-58890000D03*
X41030000Y-57620000D03*
X41030000Y-56350000D03*
X42300000Y-56350000D03*
X42300000Y-57620000D03*
X43570000Y-57620000D03*
X43570000Y-56350000D03*
X34680000Y-57620000D03*
X33410000Y-57620000D03*
X32140000Y-57620000D03*
X34680000Y-56350000D03*
X32140000Y-56350000D03*
X33410000Y-56350000D03*
X37220000Y-57620000D03*
X37220000Y-56350000D03*
X35950000Y-56350000D03*
X35950000Y-57620000D03*
X39760000Y-57620000D03*
X39760000Y-56350000D03*
X38490000Y-57620000D03*
X38490000Y-56350000D03*
X47380000Y-57620000D03*
X47380000Y-56350000D03*
X48650000Y-57620000D03*
X48650000Y-56350000D03*
X46110000Y-57620000D03*
X44840000Y-56350000D03*
X44840000Y-57620000D03*
X46110000Y-56350000D03*
X75320000Y-57620000D03*
X77860000Y-57620000D03*
X76590000Y-57620000D03*
X79130000Y-57620000D03*
X74050000Y-57620000D03*
X79130000Y-56350000D03*
X75320000Y-56350000D03*
X74050000Y-56350000D03*
X76590000Y-56350000D03*
X77860000Y-56350000D03*
X68970000Y-57620000D03*
X70240000Y-56350000D03*
X67700000Y-57620000D03*
X67700000Y-56350000D03*
X70240000Y-57620000D03*
X68970000Y-56350000D03*
X72780000Y-57620000D03*
X71510000Y-57620000D03*
X72780000Y-56350000D03*
X71510000Y-56350000D03*
X63890000Y-57620000D03*
X65160000Y-57620000D03*
X65160000Y-56350000D03*
X66430000Y-57620000D03*
X63890000Y-56350000D03*
X66430000Y-56350000D03*
X61350000Y-57620000D03*
X62620000Y-56350000D03*
X62620000Y-57620000D03*
X61350000Y-56350000D03*
X60080000Y-56350000D03*
X60080000Y-57620000D03*
X58810000Y-57620000D03*
X58810000Y-56350000D03*
X53730000Y-57620000D03*
X53730000Y-56350000D03*
X51190000Y-57620000D03*
X51190000Y-56350000D03*
X49920000Y-56350000D03*
X52460000Y-56350000D03*
X52460000Y-57620000D03*
X49920000Y-57620000D03*
X30870000Y-57620000D03*
X30870000Y-56350000D03*
X57540000Y-57620000D03*
X56270000Y-57620000D03*
X56270000Y-56350000D03*
X55000000Y-57620000D03*
X55000000Y-56350000D03*
X57540000Y-56350000D03*
X37220000Y-55080000D03*
X38490000Y-55080000D03*
X39760000Y-55080000D03*
X48650000Y-55080000D03*
X47380000Y-55080000D03*
X46110000Y-55080000D03*
X44840000Y-55080000D03*
X43570000Y-55080000D03*
X41030000Y-55080000D03*
X42300000Y-55080000D03*
X79130000Y-55080000D03*
X75320000Y-55080000D03*
X76590000Y-55080000D03*
X74050000Y-55080000D03*
X77860000Y-55080000D03*
X66430000Y-55080000D03*
X63890000Y-55080000D03*
X65160000Y-55080000D03*
X71510000Y-55080000D03*
X72780000Y-55080000D03*
X70240000Y-55080000D03*
X68970000Y-55080000D03*
X67700000Y-55080000D03*
X61350000Y-55080000D03*
X62620000Y-55080000D03*
X52460000Y-55080000D03*
X56270000Y-55080000D03*
X53730000Y-55080000D03*
X55000000Y-55080000D03*
X49920000Y-55080000D03*
X51190000Y-55080000D03*
X57540000Y-55080000D03*
X58810000Y-55080000D03*
X60080000Y-55080000D03*
X35950000Y-55080000D03*
X34680000Y-55080000D03*
X32140000Y-55080000D03*
X30870000Y-55080000D03*
X33410000Y-55080000D03*
X79130000Y-53810000D03*
X72780000Y-53810000D03*
X71510000Y-53810000D03*
X77860000Y-53810000D03*
X74050000Y-53810000D03*
X75320000Y-53810000D03*
X76590000Y-53810000D03*
X68970000Y-53810000D03*
X70240000Y-53810000D03*
X67700000Y-53810000D03*
X55000000Y-53810000D03*
X51190000Y-53810000D03*
X52460000Y-53810000D03*
X53730000Y-53810000D03*
X65160000Y-53810000D03*
X66430000Y-53810000D03*
X60080000Y-53810000D03*
X58810000Y-53810000D03*
X62620000Y-53810000D03*
X63890000Y-53810000D03*
X61350000Y-53810000D03*
X56270000Y-53810000D03*
X57540000Y-53810000D03*
X42300000Y-53810000D03*
X41030000Y-53810000D03*
X43570000Y-53810000D03*
X48650000Y-53810000D03*
X49920000Y-53810000D03*
X46110000Y-53810000D03*
X44840000Y-53810000D03*
X47380000Y-53810000D03*
X38490000Y-53810000D03*
X35950000Y-53810000D03*
X39760000Y-53810000D03*
X37220000Y-53810000D03*
X34680000Y-53810000D03*
X33410000Y-53810000D03*
X32140000Y-53810000D03*
D16*
X72750000Y-51750000D03*
X74250000Y-51750000D03*
X73500000Y-51750000D03*
X49250000Y-51750000D03*
X47750000Y-51750000D03*
X48500000Y-51750000D03*
X66750000Y-51750000D03*
X63750000Y-51750000D03*
X65250000Y-51750000D03*
X66000000Y-51750000D03*
X63000000Y-51750000D03*
X64500000Y-51750000D03*
X61500000Y-51750000D03*
X62250000Y-51750000D03*
X60750000Y-51750000D03*
X69750000Y-51750000D03*
X69000000Y-51750000D03*
X71250000Y-51750000D03*
X67500000Y-51750000D03*
X72000000Y-51750000D03*
X68250000Y-51750000D03*
X70500000Y-51750000D03*
X41750000Y-51750000D03*
X42500000Y-51750000D03*
X43250000Y-51750000D03*
X45500000Y-51750000D03*
X46250000Y-51750000D03*
X44750000Y-51750000D03*
X44000000Y-51750000D03*
X47000000Y-51750000D03*
X40250000Y-51750000D03*
X39500000Y-51750000D03*
X41000000Y-51750000D03*
X38750000Y-51750000D03*
X37250000Y-51750000D03*
X38000000Y-51750000D03*
X36500000Y-51750000D03*
D14*
X32140000Y-39840000D03*
X32140000Y-42380000D03*
X49920000Y-32220000D03*
X47380000Y-32220000D03*
X44840000Y-32220000D03*
X42300000Y-32220000D03*
X39760000Y-32220000D03*
D17*
X33000000Y-33000000D03*
X33000000Y-77000000D03*
X77000000Y-77000000D03*
D18*
X50750000Y-43000000D03*
X49250000Y-43000000D03*
X61500000Y-42750000D03*
X61500000Y-44250000D03*
X35500000Y-39750000D03*
X35500000Y-38250000D03*
X46250000Y-36000000D03*
X44750000Y-36000000D03*
X50750000Y-41500000D03*
X49250000Y-41500000D03*
X36250000Y-46500000D03*
X34750000Y-46500000D03*
X69750000Y-38500000D03*
X71250000Y-38500000D03*
X69750000Y-40500000D03*
X71250000Y-40500000D03*
X69750000Y-42500000D03*
X71250000Y-42500000D03*
X69750000Y-44500000D03*
X71250000Y-44500000D03*
X69750000Y-46500000D03*
X71250000Y-46500000D03*
D19*
X60100000Y-35350000D03*
X60100000Y-31650000D03*
X53900000Y-31650000D03*
X53900000Y-35350000D03*
X69100000Y-35350000D03*
X69100000Y-31650000D03*
X62900000Y-31650000D03*
X62900000Y-35350000D03*
D20*
X58970000Y-45925000D03*
X58970000Y-45275000D03*
X53030000Y-45275000D03*
X53030000Y-45925000D03*
X53030000Y-44625000D03*
X53030000Y-42675000D03*
X53030000Y-43975000D03*
X53030000Y-43325000D03*
X58970000Y-43325000D03*
X58970000Y-43975000D03*
X58970000Y-42675000D03*
X58970000Y-44625000D03*
X58970000Y-42025000D03*
X58970000Y-40075000D03*
X58970000Y-41375000D03*
X58970000Y-40725000D03*
X53030000Y-40725000D03*
X53030000Y-41375000D03*
X53030000Y-40075000D03*
X53030000Y-42025000D03*
D21*
X37900000Y-36700000D03*
X37900000Y-39000000D03*
X37900000Y-41300000D03*
D22*
X44100000Y-39000000D03*
D23*
X39973840Y-37801120D03*
X42000760Y-37801120D03*
X41000000Y-40198880D03*
D18*
X33250000Y-46500000D03*
X31750000Y-46500000D03*
X76750000Y-38500000D03*
X78250000Y-38500000D03*
X76750000Y-40500000D03*
X78250000Y-40500000D03*
X76750000Y-42500000D03*
X78250000Y-42500000D03*
X76750000Y-44500000D03*
X78250000Y-44500000D03*
X76750000Y-46500000D03*
X78250000Y-46500000D03*
D17*
X77000000Y-33000000D03*
D24*
X65500000Y-34500000D03*
X57500000Y-34500000D03*
D14*
X77860000Y-50000000D03*
X75320000Y-50000000D03*
X72780000Y-50000000D03*
X62620000Y-50000000D03*
X60080000Y-50000000D03*
X57540000Y-50000000D03*
X55000000Y-50000000D03*
X52460000Y-50000000D03*
X65160000Y-50000000D03*
X67700000Y-50000000D03*
X70240000Y-50000000D03*
X49920000Y-50000000D03*
X47380000Y-50000000D03*
X44840000Y-50000000D03*
X32140000Y-50000000D03*
X34680000Y-50000000D03*
X37220000Y-50000000D03*
X39760000Y-50000000D03*
X42300000Y-50000000D03*
D16*
X35750000Y-51750000D03*
D15*
X30870000Y-53810000D03*
D25*
X51900000Y-36000000D03*
X50600000Y-36000000D03*
D26*
X71500000Y-36150000D03*
X71500000Y-34850000D03*
M02*
