M48
;DRILL file {KiCad 4.0.7} date Mon Nov 27 18:48:23 2017
;FORMAT={-:-/ absolute / inch / decimal}
FMAT,2
INCH,TZ
T1C0.016
T2C0.028
T3C0.039
%
G90
G05
M72
T1
X1.2205Y-1.7913
X1.3976Y-1.4665
X1.4764Y-1.8307
X1.4862Y-1.3976
X1.5157Y-1.8701
X1.5846Y-1.6634
X1.6142Y-1.6929
X1.6142Y-1.8701
X1.6535Y-1.4469
X1.6535Y-1.5846
X1.6929Y-1.6339
X1.7109Y-1.878
X1.7126Y-1.4173
X1.752Y-1.7323
X1.8281Y-1.8727
X1.8504Y-1.8504
X1.8701Y-1.5846
X1.9094Y-1.4173
X1.9193Y-1.7323
X1.9291Y-1.8602
X1.9549Y-1.5984
X1.9685Y-1.7323
X2.0077Y-1.5454
X2.0079Y-1.8701
X2.0276Y-1.3533
X2.058Y-1.2491
X2.1063Y-1.3504
X2.1358Y-1.4862
X2.1358Y-1.5354
X2.1457Y-1.5945
X2.1681Y-1.8571
X2.185Y-1.25
X2.2146Y-1.3583
X2.2244Y-1.8504
X2.2564Y-1.6749
X2.2603Y-1.5164
X2.276Y-1.8325
X2.3028Y-1.5161
X2.3031Y-1.25
X2.3317Y-1.8602
X2.3425Y-1.8307
X2.3819Y-1.7205
X2.3967Y-1.8307
X2.4016Y-1.6535
X2.4213Y-1.2795
X2.4213Y-1.3583
X2.4213Y-1.5157
X2.4311Y-1.8602
X2.4531Y-1.716
X2.4803Y-1.8307
X2.4974Y-1.5689
X2.5197Y-1.5945
X2.5197Y-1.6339
X2.5197Y-1.8504
X2.5394Y-1.25
X2.5394Y-1.6732
X2.5394Y-1.5354
X2.5582Y-1.7175
X2.6132Y-1.8602
X2.6378Y-1.5551
X2.6575Y-1.25
X2.6719Y-1.8602
X2.6772Y-1.752
X2.7165Y-1.4764
X2.7165Y-1.5551
X2.7362Y-1.7953
X2.7756Y-1.2992
X2.7789Y-1.7195
X2.8346Y-1.8701
X3.0807Y-1.7913
T2
X1.2154Y-2.1185
X1.2154Y-2.1685
X1.2154Y-2.2185
X1.2154Y-2.2685
X1.2154Y-2.3185
X1.2154Y-2.3685
X1.2154Y-2.4185
X1.2154Y-2.4685
X1.2154Y-2.5185
X1.2154Y-2.5685
X1.2154Y-2.6185
X1.2154Y-2.6685
X1.2154Y-2.7185
X1.2154Y-2.7685
X1.2154Y-2.8185
X1.2154Y-2.8685
X1.2154Y-2.9185
X1.2654Y-2.1185
X1.2654Y-2.1685
X1.2654Y-2.2185
X1.2654Y-2.2685
X1.2654Y-2.3185
X1.2654Y-2.3685
X1.2654Y-2.4185
X1.2654Y-2.4685
X1.2654Y-2.5185
X1.2654Y-2.5685
X1.2654Y-2.6185
X1.2654Y-2.6685
X1.2654Y-2.7185
X1.2654Y-2.7685
X1.2654Y-2.8185
X1.2654Y-2.8685
X1.2654Y-2.9185
X1.3154Y-2.1185
X1.3154Y-2.1685
X1.3154Y-2.2185
X1.3154Y-2.2685
X1.3154Y-2.3185
X1.3154Y-2.3685
X1.3154Y-2.4185
X1.3154Y-2.4685
X1.3154Y-2.5185
X1.3154Y-2.5685
X1.3154Y-2.6185
X1.3154Y-2.6685
X1.3154Y-2.7185
X1.3154Y-2.7685
X1.3154Y-2.8185
X1.3154Y-2.8685
X1.3154Y-2.9185
X1.3654Y-2.1185
X1.3654Y-2.1685
X1.3654Y-2.2185
X1.3654Y-2.2685
X1.3654Y-2.3185
X1.3654Y-2.3685
X1.3654Y-2.4185
X1.3654Y-2.4685
X1.3654Y-2.5185
X1.3654Y-2.5685
X1.3654Y-2.6185
X1.3654Y-2.6685
X1.3654Y-2.7185
X1.3654Y-2.7685
X1.3654Y-2.8185
X1.3654Y-2.8685
X1.3654Y-2.9185
X1.4154Y-2.1185
X1.4154Y-2.1685
X1.4154Y-2.2185
X1.4154Y-2.2685
X1.4154Y-2.3185
X1.4154Y-2.3685
X1.4154Y-2.4185
X1.4154Y-2.4685
X1.4154Y-2.5185
X1.4154Y-2.5685
X1.4154Y-2.6185
X1.4154Y-2.6685
X1.4154Y-2.7185
X1.4154Y-2.7685
X1.4154Y-2.8185
X1.4154Y-2.8685
X1.4154Y-2.9185
X1.4154Y-2.9685
X1.4154Y-3.0185
X1.4154Y-3.0685
X1.4154Y-3.1185
X1.4654Y-2.1185
X1.4654Y-2.1685
X1.4654Y-2.2185
X1.4654Y-2.2685
X1.4654Y-2.3185
X1.4654Y-2.3685
X1.4654Y-2.4185
X1.4654Y-2.4685
X1.4654Y-2.5185
X1.4654Y-2.5685
X1.4654Y-2.6185
X1.4654Y-2.6685
X1.4654Y-2.7185
X1.4654Y-2.7685
X1.4654Y-2.8185
X1.4654Y-2.8685
X1.4654Y-2.9185
X1.4654Y-2.9685
X1.4654Y-3.0185
X1.4654Y-3.0685
X1.4654Y-3.1185
X1.5154Y-2.1185
X1.5154Y-2.1685
X1.5154Y-2.2185
X1.5154Y-2.2685
X1.5154Y-2.3185
X1.5154Y-2.3685
X1.5154Y-2.4185
X1.5154Y-2.4685
X1.5154Y-2.5185
X1.5154Y-2.5685
X1.5154Y-2.6185
X1.5154Y-2.6685
X1.5154Y-2.7185
X1.5154Y-2.7685
X1.5154Y-2.8185
X1.5154Y-2.8685
X1.5154Y-2.9185
X1.5154Y-2.9685
X1.5154Y-3.0185
X1.5154Y-3.0685
X1.5154Y-3.1185
X1.5654Y-2.1185
X1.5654Y-2.1685
X1.5654Y-2.2185
X1.5654Y-2.2685
X1.5654Y-2.3185
X1.5654Y-2.3685
X1.5654Y-2.4185
X1.5654Y-2.4685
X1.5654Y-2.5185
X1.5654Y-2.5685
X1.5654Y-2.6185
X1.5654Y-2.6685
X1.5654Y-2.7185
X1.5654Y-2.7685
X1.5654Y-2.8185
X1.5654Y-2.8685
X1.5654Y-2.9185
X1.5654Y-2.9685
X1.5654Y-3.0185
X1.5654Y-3.0685
X1.5654Y-3.1185
X1.6154Y-2.1185
X1.6154Y-2.1685
X1.6154Y-2.2185
X1.6154Y-2.2685
X1.6154Y-2.3185
X1.6154Y-2.3685
X1.6154Y-2.4185
X1.6154Y-2.4685
X1.6154Y-2.5185
X1.6154Y-2.5685
X1.6154Y-2.6185
X1.6154Y-2.6685
X1.6154Y-2.7185
X1.6154Y-2.7685
X1.6154Y-2.8185
X1.6154Y-2.8685
X1.6154Y-2.9185
X1.6154Y-2.9685
X1.6154Y-3.0185
X1.6154Y-3.0685
X1.6154Y-3.1185
X1.6654Y-2.1185
X1.6654Y-2.1685
X1.6654Y-2.2185
X1.6654Y-2.2685
X1.6654Y-2.3185
X1.6654Y-2.3685
X1.6654Y-2.4185
X1.6654Y-2.4685
X1.6654Y-2.5185
X1.6654Y-2.5685
X1.6654Y-2.6185
X1.6654Y-2.6685
X1.6654Y-2.7185
X1.6654Y-2.7685
X1.6654Y-2.8185
X1.6654Y-2.8685
X1.6654Y-2.9185
X1.6654Y-2.9685
X1.6654Y-3.0185
X1.6654Y-3.0685
X1.6654Y-3.1185
X1.7154Y-2.1185
X1.7154Y-2.1685
X1.7154Y-2.2185
X1.7154Y-2.2685
X1.7154Y-2.3185
X1.7154Y-2.3685
X1.7154Y-2.4185
X1.7154Y-2.4685
X1.7154Y-2.5185
X1.7154Y-2.5685
X1.7154Y-2.6185
X1.7154Y-2.6685
X1.7154Y-2.7185
X1.7154Y-2.7685
X1.7154Y-2.8185
X1.7154Y-2.8685
X1.7154Y-2.9185
X1.7154Y-2.9685
X1.7154Y-3.0185
X1.7154Y-3.0685
X1.7154Y-3.1185
X1.7654Y-2.1185
X1.7654Y-2.1685
X1.7654Y-2.2185
X1.7654Y-2.2685
X1.7654Y-2.3185
X1.7654Y-2.3685
X1.7654Y-2.4185
X1.7654Y-2.4685
X1.7654Y-2.5185
X1.7654Y-2.5685
X1.7654Y-2.6185
X1.7654Y-2.6685
X1.7654Y-2.7185
X1.7654Y-2.7685
X1.7654Y-2.8185
X1.7654Y-2.8685
X1.7654Y-2.9185
X1.7654Y-2.9685
X1.7654Y-3.0185
X1.7654Y-3.0685
X1.7654Y-3.1185
X1.8154Y-2.1185
X1.8154Y-2.1685
X1.8154Y-2.2185
X1.8154Y-2.2685
X1.8154Y-2.3185
X1.8154Y-2.3685
X1.8154Y-2.4185
X1.8154Y-2.4685
X1.8154Y-2.5185
X1.8154Y-2.5685
X1.8154Y-2.6185
X1.8154Y-2.6685
X1.8154Y-2.7185
X1.8154Y-2.7685
X1.8154Y-2.8185
X1.8154Y-2.8685
X1.8154Y-2.9185
X1.8154Y-2.9685
X1.8154Y-3.0185
X1.8154Y-3.0685
X1.8154Y-3.1185
X1.8654Y-2.1185
X1.8654Y-2.1685
X1.8654Y-2.2185
X1.8654Y-2.2685
X1.8654Y-2.3185
X1.8654Y-2.3685
X1.8654Y-2.4185
X1.8654Y-2.4685
X1.8654Y-2.5185
X1.8654Y-2.5685
X1.8654Y-2.6185
X1.8654Y-2.6685
X1.8654Y-2.7185
X1.8654Y-2.7685
X1.8654Y-2.8185
X1.8654Y-2.8685
X1.8654Y-2.9185
X1.8654Y-2.9685
X1.8654Y-3.0185
X1.8654Y-3.0685
X1.8654Y-3.1185
X1.9154Y-2.1185
X1.9154Y-2.1685
X1.9154Y-2.2185
X1.9154Y-2.2685
X1.9154Y-2.3185
X1.9154Y-2.3685
X1.9154Y-2.4185
X1.9154Y-2.4685
X1.9154Y-2.5185
X1.9154Y-2.5685
X1.9154Y-2.6185
X1.9154Y-2.6685
X1.9154Y-2.7185
X1.9154Y-2.7685
X1.9154Y-2.8185
X1.9154Y-2.8685
X1.9154Y-2.9185
X1.9154Y-2.9685
X1.9154Y-3.0185
X1.9154Y-3.0685
X1.9154Y-3.1185
X1.9654Y-2.1185
X1.9654Y-2.1685
X1.9654Y-2.2185
X1.9654Y-2.2685
X1.9654Y-2.3185
X1.9654Y-2.3685
X1.9654Y-2.4185
X1.9654Y-2.4685
X1.9654Y-2.5185
X1.9654Y-2.5685
X1.9654Y-2.6185
X1.9654Y-2.6685
X1.9654Y-2.7185
X1.9654Y-2.7685
X1.9654Y-2.8185
X1.9654Y-2.8685
X1.9654Y-2.9185
X1.9654Y-2.9685
X1.9654Y-3.0185
X1.9654Y-3.0685
X1.9654Y-3.1185
X2.0154Y-2.1185
X2.0154Y-2.1685
X2.0154Y-2.2185
X2.0154Y-2.2685
X2.0154Y-2.3185
X2.0154Y-2.3685
X2.0154Y-2.4185
X2.0154Y-2.4685
X2.0154Y-2.5185
X2.0154Y-2.5685
X2.0154Y-2.6185
X2.0154Y-2.6685
X2.0154Y-2.7185
X2.0154Y-2.7685
X2.0154Y-2.8185
X2.0154Y-2.8685
X2.0154Y-2.9185
X2.0154Y-2.9685
X2.0154Y-3.0185
X2.0154Y-3.0685
X2.0154Y-3.1185
X2.0654Y-2.1185
X2.0654Y-2.1685
X2.0654Y-2.2185
X2.0654Y-2.2685
X2.0654Y-2.3185
X2.0654Y-2.3685
X2.0654Y-2.4185
X2.0654Y-2.4685
X2.0654Y-2.5185
X2.0654Y-2.5685
X2.0654Y-2.6185
X2.0654Y-2.6685
X2.0654Y-2.7185
X2.0654Y-2.7685
X2.0654Y-2.8185
X2.0654Y-2.8685
X2.0654Y-2.9185
X2.0654Y-2.9685
X2.0654Y-3.0185
X2.0654Y-3.0685
X2.0654Y-3.1185
X2.1154Y-2.1185
X2.1154Y-2.1685
X2.1154Y-2.2185
X2.1154Y-2.2685
X2.1154Y-2.3185
X2.1154Y-2.3685
X2.1154Y-2.4185
X2.1154Y-2.4685
X2.1154Y-2.5185
X2.1154Y-2.5685
X2.1154Y-2.6185
X2.1154Y-2.6685
X2.1154Y-2.7185
X2.1154Y-2.7685
X2.1154Y-2.8185
X2.1154Y-2.8685
X2.1154Y-2.9185
X2.1154Y-2.9685
X2.1154Y-3.0185
X2.1154Y-3.0685
X2.1154Y-3.1185
X2.1654Y-2.1185
X2.1654Y-2.1685
X2.1654Y-2.2185
X2.1654Y-2.2685
X2.1654Y-2.3185
X2.1654Y-2.3685
X2.1654Y-2.4185
X2.1654Y-2.4685
X2.1654Y-2.5185
X2.1654Y-2.5685
X2.1654Y-2.6185
X2.1654Y-2.6685
X2.1654Y-2.7185
X2.1654Y-2.7685
X2.1654Y-2.8185
X2.1654Y-2.8685
X2.1654Y-2.9185
X2.1654Y-2.9685
X2.1654Y-3.0185
X2.1654Y-3.0685
X2.1654Y-3.1185
X2.2154Y-2.1185
X2.2154Y-2.1685
X2.2154Y-2.2185
X2.2154Y-2.2685
X2.2154Y-2.3185
X2.2154Y-2.3685
X2.2154Y-2.4185
X2.2154Y-2.4685
X2.2154Y-2.5185
X2.2154Y-2.5685
X2.2154Y-2.6185
X2.2154Y-2.6685
X2.2154Y-2.7185
X2.2154Y-2.7685
X2.2154Y-2.8185
X2.2154Y-2.8685
X2.2154Y-2.9185
X2.2154Y-2.9685
X2.2154Y-3.0185
X2.2154Y-3.0685
X2.2154Y-3.1185
X2.2654Y-2.1185
X2.2654Y-2.1685
X2.2654Y-2.2185
X2.2654Y-2.2685
X2.2654Y-2.3185
X2.2654Y-2.3685
X2.2654Y-2.4185
X2.2654Y-2.4685
X2.2654Y-2.5185
X2.2654Y-2.5685
X2.2654Y-2.6185
X2.2654Y-2.6685
X2.2654Y-2.7185
X2.2654Y-2.7685
X2.2654Y-2.8185
X2.2654Y-2.8685
X2.2654Y-2.9185
X2.2654Y-2.9685
X2.2654Y-3.0185
X2.2654Y-3.0685
X2.2654Y-3.1185
X2.3154Y-2.1185
X2.3154Y-2.1685
X2.3154Y-2.2185
X2.3154Y-2.2685
X2.3154Y-2.3185
X2.3154Y-2.3685
X2.3154Y-2.4185
X2.3154Y-2.4685
X2.3154Y-2.5185
X2.3154Y-2.5685
X2.3154Y-2.6185
X2.3154Y-2.6685
X2.3154Y-2.7185
X2.3154Y-2.7685
X2.3154Y-2.8185
X2.3154Y-2.8685
X2.3154Y-2.9185
X2.3154Y-2.9685
X2.3154Y-3.0185
X2.3154Y-3.0685
X2.3154Y-3.1185
X2.3654Y-2.1185
X2.3654Y-2.1685
X2.3654Y-2.2185
X2.3654Y-2.2685
X2.3654Y-2.3185
X2.3654Y-2.3685
X2.3654Y-2.4185
X2.3654Y-2.4685
X2.3654Y-2.5185
X2.3654Y-2.5685
X2.3654Y-2.6185
X2.3654Y-2.6685
X2.3654Y-2.7185
X2.3654Y-2.7685
X2.3654Y-2.8185
X2.3654Y-2.8685
X2.3654Y-2.9185
X2.3654Y-2.9685
X2.3654Y-3.0185
X2.3654Y-3.0685
X2.3654Y-3.1185
X2.4154Y-2.1185
X2.4154Y-2.1685
X2.4154Y-2.2185
X2.4154Y-2.2685
X2.4154Y-2.3185
X2.4154Y-2.3685
X2.4154Y-2.4185
X2.4154Y-2.4685
X2.4154Y-2.5185
X2.4154Y-2.5685
X2.4154Y-2.6185
X2.4154Y-2.6685
X2.4154Y-2.7185
X2.4154Y-2.7685
X2.4154Y-2.8185
X2.4154Y-2.8685
X2.4154Y-2.9185
X2.4154Y-2.9685
X2.4154Y-3.0185
X2.4154Y-3.0685
X2.4154Y-3.1185
X2.4654Y-2.1185
X2.4654Y-2.1685
X2.4654Y-2.2185
X2.4654Y-2.2685
X2.4654Y-2.3185
X2.4654Y-2.3685
X2.4654Y-2.4185
X2.4654Y-2.4685
X2.4654Y-2.5185
X2.4654Y-2.5685
X2.4654Y-2.6185
X2.4654Y-2.6685
X2.4654Y-2.7185
X2.4654Y-2.7685
X2.4654Y-2.8185
X2.4654Y-2.8685
X2.4654Y-2.9185
X2.4654Y-2.9685
X2.4654Y-3.0185
X2.4654Y-3.0685
X2.4654Y-3.1185
X2.5154Y-2.1185
X2.5154Y-2.1685
X2.5154Y-2.2185
X2.5154Y-2.2685
X2.5154Y-2.3185
X2.5154Y-2.3685
X2.5154Y-2.4185
X2.5154Y-2.4685
X2.5154Y-2.5185
X2.5154Y-2.5685
X2.5154Y-2.6185
X2.5154Y-2.6685
X2.5154Y-2.7185
X2.5154Y-2.7685
X2.5154Y-2.8185
X2.5154Y-2.8685
X2.5154Y-2.9185
X2.5154Y-2.9685
X2.5154Y-3.0185
X2.5154Y-3.0685
X2.5154Y-3.1185
X2.5654Y-2.1185
X2.5654Y-2.1685
X2.5654Y-2.2185
X2.5654Y-2.2685
X2.5654Y-2.3185
X2.5654Y-2.3685
X2.5654Y-2.4185
X2.5654Y-2.4685
X2.5654Y-2.5185
X2.5654Y-2.5685
X2.5654Y-2.6185
X2.5654Y-2.6685
X2.5654Y-2.7185
X2.5654Y-2.7685
X2.5654Y-2.8185
X2.5654Y-2.8685
X2.5654Y-2.9185
X2.5654Y-2.9685
X2.5654Y-3.0185
X2.5654Y-3.0685
X2.5654Y-3.1185
X2.6154Y-2.1185
X2.6154Y-2.1685
X2.6154Y-2.2185
X2.6154Y-2.2685
X2.6154Y-2.3185
X2.6154Y-2.3685
X2.6154Y-2.4185
X2.6154Y-2.4685
X2.6154Y-2.5185
X2.6154Y-2.5685
X2.6154Y-2.6185
X2.6154Y-2.6685
X2.6154Y-2.7185
X2.6154Y-2.7685
X2.6154Y-2.8185
X2.6154Y-2.8685
X2.6154Y-2.9185
X2.6154Y-2.9685
X2.6154Y-3.0185
X2.6154Y-3.0685
X2.6154Y-3.1185
X2.6654Y-2.1185
X2.6654Y-2.1685
X2.6654Y-2.2185
X2.6654Y-2.2685
X2.6654Y-2.3185
X2.6654Y-2.3685
X2.6654Y-2.4185
X2.6654Y-2.4685
X2.6654Y-2.5185
X2.6654Y-2.5685
X2.6654Y-2.6185
X2.6654Y-2.6685
X2.6654Y-2.7185
X2.6654Y-2.7685
X2.6654Y-2.8185
X2.6654Y-2.8685
X2.6654Y-2.9185
X2.6654Y-2.9685
X2.6654Y-3.0185
X2.6654Y-3.0685
X2.6654Y-3.1185
X2.7154Y-2.1185
X2.7154Y-2.1685
X2.7154Y-2.2185
X2.7154Y-2.2685
X2.7154Y-2.3185
X2.7154Y-2.3685
X2.7154Y-2.4185
X2.7154Y-2.4685
X2.7154Y-2.5185
X2.7154Y-2.5685
X2.7154Y-2.6185
X2.7154Y-2.6685
X2.7154Y-2.7185
X2.7154Y-2.7685
X2.7154Y-2.8185
X2.7154Y-2.8685
X2.7154Y-2.9185
X2.7154Y-2.9685
X2.7154Y-3.0185
X2.7154Y-3.0685
X2.7154Y-3.1185
X2.7654Y-2.1185
X2.7654Y-2.1685
X2.7654Y-2.2185
X2.7654Y-2.2685
X2.7654Y-2.3185
X2.7654Y-2.3685
X2.7654Y-2.4185
X2.7654Y-2.4685
X2.7654Y-2.5185
X2.7654Y-2.5685
X2.7654Y-2.6185
X2.7654Y-2.6685
X2.7654Y-2.7185
X2.7654Y-2.7685
X2.7654Y-2.8185
X2.7654Y-2.8685
X2.7654Y-2.9185
X2.7654Y-2.9685
X2.7654Y-3.0185
X2.7654Y-3.0685
X2.7654Y-3.1185
X2.8154Y-2.1185
X2.8154Y-2.1685
X2.8154Y-2.2185
X2.8154Y-2.2685
X2.8154Y-2.3185
X2.8154Y-2.3685
X2.8154Y-2.4185
X2.8154Y-2.4685
X2.8154Y-2.5185
X2.8154Y-2.5685
X2.8154Y-2.6185
X2.8154Y-2.6685
X2.8154Y-2.7185
X2.8154Y-2.7685
X2.8154Y-2.8185
X2.8154Y-2.8685
X2.8154Y-2.9185
X2.8154Y-2.9685
X2.8154Y-3.0185
X2.8154Y-3.0685
X2.8154Y-3.1185
X2.8654Y-2.1185
X2.8654Y-2.1685
X2.8654Y-2.2185
X2.8654Y-2.2685
X2.8654Y-2.3185
X2.8654Y-2.3685
X2.8654Y-2.4185
X2.8654Y-2.4685
X2.8654Y-2.5185
X2.8654Y-2.5685
X2.8654Y-2.6185
X2.8654Y-2.6685
X2.8654Y-2.7185
X2.8654Y-2.7685
X2.8654Y-2.8185
X2.8654Y-2.8685
X2.8654Y-2.9185
X2.8654Y-2.9685
X2.8654Y-3.0185
X2.8654Y-3.0685
X2.8654Y-3.1185
X2.9154Y-2.1185
X2.9154Y-2.1685
X2.9154Y-2.2185
X2.9154Y-2.2685
X2.9154Y-2.3185
X2.9154Y-2.3685
X2.9154Y-2.4185
X2.9154Y-2.4685
X2.9154Y-2.5185
X2.9154Y-2.5685
X2.9154Y-2.6185
X2.9154Y-2.6685
X2.9154Y-2.7185
X2.9154Y-2.7685
X2.9154Y-2.8185
X2.9154Y-2.8685
X2.9154Y-2.9185
X2.9154Y-2.9685
X2.9154Y-3.0185
X2.9154Y-3.0685
X2.9154Y-3.1185
X2.9654Y-2.1185
X2.9654Y-2.1685
X2.9654Y-2.2185
X2.9654Y-2.2685
X2.9654Y-2.3185
X2.9654Y-2.3685
X2.9654Y-2.4185
X2.9654Y-2.4685
X2.9654Y-2.5185
X2.9654Y-2.5685
X2.9654Y-2.6185
X2.9654Y-2.6685
X2.9654Y-2.7185
X2.9654Y-2.7685
X2.9654Y-2.8185
X2.9654Y-2.8685
X2.9654Y-2.9185
X3.0154Y-2.1185
X3.0154Y-2.1685
X3.0154Y-2.2185
X3.0154Y-2.2685
X3.0154Y-2.3185
X3.0154Y-2.3685
X3.0154Y-2.4185
X3.0154Y-2.4685
X3.0154Y-2.5185
X3.0154Y-2.5685
X3.0154Y-2.6185
X3.0154Y-2.6685
X3.0154Y-2.7185
X3.0154Y-2.7685
X3.0154Y-2.8185
X3.0154Y-2.8685
X3.0154Y-2.9185
X3.0654Y-2.1185
X3.0654Y-2.1685
X3.0654Y-2.2185
X3.0654Y-2.2685
X3.0654Y-2.3185
X3.0654Y-2.3685
X3.0654Y-2.4185
X3.0654Y-2.4685
X3.0654Y-2.5185
X3.0654Y-2.5685
X3.0654Y-2.6185
X3.0654Y-2.6685
X3.0654Y-2.7185
X3.0654Y-2.7685
X3.0654Y-2.8185
X3.0654Y-2.8685
X3.0654Y-2.9185
X3.1154Y-2.1185
X3.1154Y-2.1685
X3.1154Y-2.2185
X3.1154Y-2.2685
X3.1154Y-2.3185
X3.1154Y-2.3685
X3.1154Y-2.4185
X3.1154Y-2.4685
X3.1154Y-2.5185
X3.1154Y-2.5685
X3.1154Y-2.6185
X3.1154Y-2.6685
X3.1154Y-2.7185
X3.1154Y-2.7685
X3.1154Y-2.8185
X3.1154Y-2.8685
X3.1154Y-2.9185
T3
X1.2654Y-1.5685
X1.2654Y-1.6685
X1.2654Y-1.9685
X1.3654Y-1.9685
X1.4654Y-1.9685
X1.5654Y-1.2685
X1.5654Y-1.7685
X1.5654Y-1.9685
X1.6654Y-1.2685
X1.6654Y-1.7685
X1.6654Y-1.9685
X1.7654Y-1.2685
X1.7654Y-1.9685
X1.8654Y-1.2685
X1.8654Y-1.9685
X1.9654Y-1.2685
X1.9654Y-1.9685
X2.0654Y-1.9685
X2.1654Y-1.9685
X2.2654Y-1.9685
X2.3654Y-1.9685
X2.4654Y-1.9685
X2.5654Y-1.9685
X2.6654Y-1.9685
X2.7654Y-1.9685
X2.8654Y-1.9685
X2.9654Y-1.9685
X3.0654Y-1.9685
T0
M30
