G04 #@! TF.FileFunction,Legend,Bot*
%FSLAX46Y46*%
G04 Gerber Fmt 4.6, Leading zero omitted, Abs format (unit mm)*
G04 Created by KiCad (PCBNEW 4.0.7) date Mon Nov 27 18:48:16 2017*
%MOMM*%
%LPD*%
G01*
G04 APERTURE LIST*
%ADD10C,0.100000*%
%ADD11C,0.150000*%
%ADD12C,0.250000*%
%ADD13C,0.010000*%
%ADD14C,0.200000*%
%ADD15C,2.398980*%
%ADD16R,1.400000X1.400000*%
%ADD17C,0.900000*%
%ADD18C,3.600000*%
%ADD19R,1.200000X1.200000*%
%ADD20R,1.600000X2.600000*%
%ADD21R,1.100000X2.000000*%
%ADD22R,1.600000X1.800000*%
%ADD23R,2.000000X1.800000*%
%ADD24C,1.400000*%
%ADD25R,1.400760X0.951180*%
%ADD26R,1.400000X1.200000*%
G04 APERTURE END LIST*
D10*
D11*
X74847619Y-33008333D02*
X74466667Y-33008333D01*
X74923810Y-33236905D02*
X74657143Y-32436905D01*
X74390476Y-33236905D01*
X73704762Y-33236905D02*
X74161905Y-33236905D01*
X73933334Y-33236905D02*
X73933334Y-32436905D01*
X74009524Y-32551190D01*
X74085715Y-32627381D01*
X74161905Y-32665476D01*
X72600000Y-32436905D02*
X72447619Y-32436905D01*
X72371428Y-32475000D01*
X72295238Y-32551190D01*
X72257143Y-32703571D01*
X72257143Y-32970238D01*
X72295238Y-33122619D01*
X72371428Y-33198810D01*
X72447619Y-33236905D01*
X72600000Y-33236905D01*
X72676190Y-33198810D01*
X72752381Y-33122619D01*
X72790476Y-32970238D01*
X72790476Y-32703571D01*
X72752381Y-32551190D01*
X72676190Y-32475000D01*
X72600000Y-32436905D01*
X71914286Y-33236905D02*
X71914286Y-32436905D01*
X71457143Y-33236905D01*
X71457143Y-32436905D01*
X74542857Y-34167857D02*
X74428571Y-34205952D01*
X74390476Y-34244048D01*
X74352381Y-34320238D01*
X74352381Y-34434524D01*
X74390476Y-34510714D01*
X74428571Y-34548810D01*
X74504762Y-34586905D01*
X74809524Y-34586905D01*
X74809524Y-33786905D01*
X74542857Y-33786905D01*
X74466667Y-33825000D01*
X74428571Y-33863095D01*
X74390476Y-33939286D01*
X74390476Y-34015476D01*
X74428571Y-34091667D01*
X74466667Y-34129762D01*
X74542857Y-34167857D01*
X74809524Y-34167857D01*
X73590476Y-34586905D02*
X74047619Y-34586905D01*
X73819048Y-34586905D02*
X73819048Y-33786905D01*
X73895238Y-33901190D01*
X73971429Y-33977381D01*
X74047619Y-34015476D01*
X72676190Y-34548810D02*
X72561904Y-34586905D01*
X72371428Y-34586905D01*
X72295238Y-34548810D01*
X72257142Y-34510714D01*
X72219047Y-34434524D01*
X72219047Y-34358333D01*
X72257142Y-34282143D01*
X72295238Y-34244048D01*
X72371428Y-34205952D01*
X72523809Y-34167857D01*
X72600000Y-34129762D01*
X72638095Y-34091667D01*
X72676190Y-34015476D01*
X72676190Y-33939286D01*
X72638095Y-33863095D01*
X72600000Y-33825000D01*
X72523809Y-33786905D01*
X72333333Y-33786905D01*
X72219047Y-33825000D01*
X71952380Y-33786905D02*
X71761904Y-34586905D01*
X71609523Y-34015476D01*
X71457142Y-34586905D01*
X71266666Y-33786905D01*
X74847619Y-35708333D02*
X74466667Y-35708333D01*
X74923810Y-35936905D02*
X74657143Y-35136905D01*
X74390476Y-35936905D01*
X73780953Y-35403571D02*
X73780953Y-35936905D01*
X73971429Y-35098810D02*
X74161905Y-35670238D01*
X73666667Y-35670238D01*
X72295238Y-35860714D02*
X72333333Y-35898810D01*
X72447619Y-35936905D01*
X72523809Y-35936905D01*
X72638095Y-35898810D01*
X72714286Y-35822619D01*
X72752381Y-35746429D01*
X72790476Y-35594048D01*
X72790476Y-35479762D01*
X72752381Y-35327381D01*
X72714286Y-35251190D01*
X72638095Y-35175000D01*
X72523809Y-35136905D01*
X72447619Y-35136905D01*
X72333333Y-35175000D01*
X72295238Y-35213095D01*
X71990476Y-35898810D02*
X71876190Y-35936905D01*
X71685714Y-35936905D01*
X71609524Y-35898810D01*
X71571428Y-35860714D01*
X71533333Y-35784524D01*
X71533333Y-35708333D01*
X71571428Y-35632143D01*
X71609524Y-35594048D01*
X71685714Y-35555952D01*
X71838095Y-35517857D01*
X71914286Y-35479762D01*
X71952381Y-35441667D01*
X71990476Y-35365476D01*
X71990476Y-35289286D01*
X71952381Y-35213095D01*
X71914286Y-35175000D01*
X71838095Y-35136905D01*
X71647619Y-35136905D01*
X71533333Y-35175000D01*
X72942857Y-34999000D02*
X71380952Y-34999000D01*
X74847619Y-37058333D02*
X74466667Y-37058333D01*
X74923810Y-37286905D02*
X74657143Y-36486905D01*
X74390476Y-37286905D01*
X73742857Y-36486905D02*
X74123810Y-36486905D01*
X74161905Y-36867857D01*
X74123810Y-36829762D01*
X74047619Y-36791667D01*
X73857143Y-36791667D01*
X73780953Y-36829762D01*
X73742857Y-36867857D01*
X73704762Y-36944048D01*
X73704762Y-37134524D01*
X73742857Y-37210714D01*
X73780953Y-37248810D01*
X73857143Y-37286905D01*
X74047619Y-37286905D01*
X74123810Y-37248810D01*
X74161905Y-37210714D01*
X72790476Y-37248810D02*
X72676190Y-37286905D01*
X72485714Y-37286905D01*
X72409524Y-37248810D01*
X72371428Y-37210714D01*
X72333333Y-37134524D01*
X72333333Y-37058333D01*
X72371428Y-36982143D01*
X72409524Y-36944048D01*
X72485714Y-36905952D01*
X72638095Y-36867857D01*
X72714286Y-36829762D01*
X72752381Y-36791667D01*
X72790476Y-36715476D01*
X72790476Y-36639286D01*
X72752381Y-36563095D01*
X72714286Y-36525000D01*
X72638095Y-36486905D01*
X72447619Y-36486905D01*
X72333333Y-36525000D01*
X71533333Y-37210714D02*
X71571428Y-37248810D01*
X71685714Y-37286905D01*
X71761904Y-37286905D01*
X71876190Y-37248810D01*
X71952381Y-37172619D01*
X71990476Y-37096429D01*
X72028571Y-36944048D01*
X72028571Y-36829762D01*
X71990476Y-36677381D01*
X71952381Y-36601190D01*
X71876190Y-36525000D01*
X71761904Y-36486905D01*
X71685714Y-36486905D01*
X71571428Y-36525000D01*
X71533333Y-36563095D01*
X71190476Y-37286905D02*
X71190476Y-36486905D01*
X70733333Y-37286905D02*
X71076190Y-36829762D01*
X70733333Y-36486905D02*
X71190476Y-36944048D01*
X74847619Y-38408333D02*
X74466667Y-38408333D01*
X74923810Y-38636905D02*
X74657143Y-37836905D01*
X74390476Y-38636905D01*
X73780953Y-37836905D02*
X73933334Y-37836905D01*
X74009524Y-37875000D01*
X74047619Y-37913095D01*
X74123810Y-38027381D01*
X74161905Y-38179762D01*
X74161905Y-38484524D01*
X74123810Y-38560714D01*
X74085715Y-38598810D01*
X74009524Y-38636905D01*
X73857143Y-38636905D01*
X73780953Y-38598810D01*
X73742857Y-38560714D01*
X73704762Y-38484524D01*
X73704762Y-38294048D01*
X73742857Y-38217857D01*
X73780953Y-38179762D01*
X73857143Y-38141667D01*
X74009524Y-38141667D01*
X74085715Y-38179762D01*
X74123810Y-38217857D01*
X74161905Y-38294048D01*
X72752381Y-38636905D02*
X72752381Y-37836905D01*
X72485714Y-38408333D01*
X72219047Y-37836905D01*
X72219047Y-38636905D01*
X71838095Y-38636905D02*
X71838095Y-37836905D01*
X71495238Y-38598810D02*
X71380952Y-38636905D01*
X71190476Y-38636905D01*
X71114286Y-38598810D01*
X71076190Y-38560714D01*
X71038095Y-38484524D01*
X71038095Y-38408333D01*
X71076190Y-38332143D01*
X71114286Y-38294048D01*
X71190476Y-38255952D01*
X71342857Y-38217857D01*
X71419048Y-38179762D01*
X71457143Y-38141667D01*
X71495238Y-38065476D01*
X71495238Y-37989286D01*
X71457143Y-37913095D01*
X71419048Y-37875000D01*
X71342857Y-37836905D01*
X71152381Y-37836905D01*
X71038095Y-37875000D01*
X70542857Y-37836905D02*
X70390476Y-37836905D01*
X70314285Y-37875000D01*
X70238095Y-37951190D01*
X70200000Y-38103571D01*
X70200000Y-38370238D01*
X70238095Y-38522619D01*
X70314285Y-38598810D01*
X70390476Y-38636905D01*
X70542857Y-38636905D01*
X70619047Y-38598810D01*
X70695238Y-38522619D01*
X70733333Y-38370238D01*
X70733333Y-38103571D01*
X70695238Y-37951190D01*
X70619047Y-37875000D01*
X70542857Y-37836905D01*
X74847619Y-39758333D02*
X74466667Y-39758333D01*
X74923810Y-39986905D02*
X74657143Y-39186905D01*
X74390476Y-39986905D01*
X74200000Y-39186905D02*
X73666667Y-39186905D01*
X74009524Y-39986905D01*
X72752381Y-39986905D02*
X72752381Y-39186905D01*
X72485714Y-39758333D01*
X72219047Y-39186905D01*
X72219047Y-39986905D01*
X71685714Y-39186905D02*
X71533333Y-39186905D01*
X71457142Y-39225000D01*
X71380952Y-39301190D01*
X71342857Y-39453571D01*
X71342857Y-39720238D01*
X71380952Y-39872619D01*
X71457142Y-39948810D01*
X71533333Y-39986905D01*
X71685714Y-39986905D01*
X71761904Y-39948810D01*
X71838095Y-39872619D01*
X71876190Y-39720238D01*
X71876190Y-39453571D01*
X71838095Y-39301190D01*
X71761904Y-39225000D01*
X71685714Y-39186905D01*
X71038095Y-39948810D02*
X70923809Y-39986905D01*
X70733333Y-39986905D01*
X70657143Y-39948810D01*
X70619047Y-39910714D01*
X70580952Y-39834524D01*
X70580952Y-39758333D01*
X70619047Y-39682143D01*
X70657143Y-39644048D01*
X70733333Y-39605952D01*
X70885714Y-39567857D01*
X70961905Y-39529762D01*
X71000000Y-39491667D01*
X71038095Y-39415476D01*
X71038095Y-39339286D01*
X71000000Y-39263095D01*
X70961905Y-39225000D01*
X70885714Y-39186905D01*
X70695238Y-39186905D01*
X70580952Y-39225000D01*
X70238095Y-39986905D02*
X70238095Y-39186905D01*
X32749523Y-43850000D02*
X32825714Y-43811905D01*
X32939999Y-43811905D01*
X33054285Y-43850000D01*
X33130476Y-43926190D01*
X33168571Y-44002381D01*
X33206666Y-44154762D01*
X33206666Y-44269048D01*
X33168571Y-44421429D01*
X33130476Y-44497619D01*
X33054285Y-44573810D01*
X32939999Y-44611905D01*
X32863809Y-44611905D01*
X32749523Y-44573810D01*
X32711428Y-44535714D01*
X32711428Y-44269048D01*
X32863809Y-44269048D01*
X32368571Y-44611905D02*
X32368571Y-43811905D01*
X31911428Y-44611905D01*
X31911428Y-43811905D01*
X31530476Y-44611905D02*
X31530476Y-43811905D01*
X31340000Y-43811905D01*
X31225714Y-43850000D01*
X31149523Y-43926190D01*
X31111428Y-44002381D01*
X31073333Y-44154762D01*
X31073333Y-44269048D01*
X31111428Y-44421429D01*
X31149523Y-44497619D01*
X31225714Y-44573810D01*
X31340000Y-44611905D01*
X31530476Y-44611905D01*
X33016190Y-37561905D02*
X32749523Y-38361905D01*
X32482856Y-37561905D01*
X32216190Y-38361905D02*
X32216190Y-37561905D01*
X31835238Y-38361905D02*
X31835238Y-37561905D01*
X31378095Y-38361905D01*
X31378095Y-37561905D01*
X43580952Y-34436905D02*
X43580952Y-35008333D01*
X43619048Y-35122619D01*
X43695238Y-35198810D01*
X43809524Y-35236905D01*
X43885714Y-35236905D01*
X42780952Y-35236905D02*
X43238095Y-35236905D01*
X43009524Y-35236905D02*
X43009524Y-34436905D01*
X43085714Y-34551190D01*
X43161905Y-34627381D01*
X43238095Y-34665476D01*
X42438095Y-35160714D02*
X42400000Y-35198810D01*
X42438095Y-35236905D01*
X42476190Y-35198810D01*
X42438095Y-35160714D01*
X42438095Y-35236905D01*
X42438095Y-34741667D02*
X42400000Y-34779762D01*
X42438095Y-34817857D01*
X42476190Y-34779762D01*
X42438095Y-34741667D01*
X42438095Y-34817857D01*
X41485714Y-35008333D02*
X41104762Y-35008333D01*
X41561905Y-35236905D02*
X41295238Y-34436905D01*
X41028571Y-35236905D01*
X40609524Y-34436905D02*
X40533333Y-34436905D01*
X40457143Y-34475000D01*
X40419048Y-34513095D01*
X40380952Y-34589286D01*
X40342857Y-34741667D01*
X40342857Y-34932143D01*
X40380952Y-35084524D01*
X40419048Y-35160714D01*
X40457143Y-35198810D01*
X40533333Y-35236905D01*
X40609524Y-35236905D01*
X40685714Y-35198810D01*
X40723810Y-35160714D01*
X40761905Y-35084524D01*
X40800000Y-34932143D01*
X40800000Y-34741667D01*
X40761905Y-34589286D01*
X40723810Y-34513095D01*
X40685714Y-34475000D01*
X40609524Y-34436905D01*
X39161904Y-35541667D02*
X39200000Y-35503571D01*
X39276190Y-35389286D01*
X39314285Y-35313095D01*
X39352381Y-35198810D01*
X39390476Y-35008333D01*
X39390476Y-34855952D01*
X39352381Y-34665476D01*
X39314285Y-34551190D01*
X39276190Y-34475000D01*
X39200000Y-34360714D01*
X39161904Y-34322619D01*
X38590476Y-34817857D02*
X38476190Y-34855952D01*
X38438095Y-34894048D01*
X38400000Y-34970238D01*
X38400000Y-35084524D01*
X38438095Y-35160714D01*
X38476190Y-35198810D01*
X38552381Y-35236905D01*
X38857143Y-35236905D01*
X38857143Y-34436905D01*
X38590476Y-34436905D01*
X38514286Y-34475000D01*
X38476190Y-34513095D01*
X38438095Y-34589286D01*
X38438095Y-34665476D01*
X38476190Y-34741667D01*
X38514286Y-34779762D01*
X38590476Y-34817857D01*
X38857143Y-34817857D01*
X38171429Y-34436905D02*
X37714286Y-34436905D01*
X37942857Y-35236905D02*
X37942857Y-34436905D01*
X37447619Y-35236905D02*
X37447619Y-34436905D01*
X36990476Y-35236905D01*
X36990476Y-34436905D01*
X36685714Y-35541667D02*
X36647619Y-35503571D01*
X36571429Y-35389286D01*
X36533333Y-35313095D01*
X36495238Y-35198810D01*
X36457143Y-35008333D01*
X36457143Y-34855952D01*
X36495238Y-34665476D01*
X36533333Y-34551190D01*
X36571429Y-34475000D01*
X36647619Y-34360714D01*
X36685714Y-34322619D01*
X43580952Y-35786905D02*
X43580952Y-36358333D01*
X43619048Y-36472619D01*
X43695238Y-36548810D01*
X43809524Y-36586905D01*
X43885714Y-36586905D01*
X43238095Y-35863095D02*
X43200000Y-35825000D01*
X43123809Y-35786905D01*
X42933333Y-35786905D01*
X42857143Y-35825000D01*
X42819047Y-35863095D01*
X42780952Y-35939286D01*
X42780952Y-36015476D01*
X42819047Y-36129762D01*
X43276190Y-36586905D01*
X42780952Y-36586905D01*
X42438095Y-36510714D02*
X42400000Y-36548810D01*
X42438095Y-36586905D01*
X42476190Y-36548810D01*
X42438095Y-36510714D01*
X42438095Y-36586905D01*
X42438095Y-36091667D02*
X42400000Y-36129762D01*
X42438095Y-36167857D01*
X42476190Y-36129762D01*
X42438095Y-36091667D01*
X42438095Y-36167857D01*
X41180952Y-36167857D02*
X41066666Y-36205952D01*
X41028571Y-36244048D01*
X40990476Y-36320238D01*
X40990476Y-36434524D01*
X41028571Y-36510714D01*
X41066666Y-36548810D01*
X41142857Y-36586905D01*
X41447619Y-36586905D01*
X41447619Y-35786905D01*
X41180952Y-35786905D01*
X41104762Y-35825000D01*
X41066666Y-35863095D01*
X41028571Y-35939286D01*
X41028571Y-36015476D01*
X41066666Y-36091667D01*
X41104762Y-36129762D01*
X41180952Y-36167857D01*
X41447619Y-36167857D01*
X40228571Y-36586905D02*
X40685714Y-36586905D01*
X40457143Y-36586905D02*
X40457143Y-35786905D01*
X40533333Y-35901190D01*
X40609524Y-35977381D01*
X40685714Y-36015476D01*
X39047618Y-36891667D02*
X39085714Y-36853571D01*
X39161904Y-36739286D01*
X39199999Y-36663095D01*
X39238095Y-36548810D01*
X39276190Y-36358333D01*
X39276190Y-36205952D01*
X39238095Y-36015476D01*
X39199999Y-35901190D01*
X39161904Y-35825000D01*
X39085714Y-35710714D01*
X39047618Y-35672619D01*
X38780952Y-36548810D02*
X38666666Y-36586905D01*
X38476190Y-36586905D01*
X38400000Y-36548810D01*
X38361904Y-36510714D01*
X38323809Y-36434524D01*
X38323809Y-36358333D01*
X38361904Y-36282143D01*
X38400000Y-36244048D01*
X38476190Y-36205952D01*
X38628571Y-36167857D01*
X38704762Y-36129762D01*
X38742857Y-36091667D01*
X38780952Y-36015476D01*
X38780952Y-35939286D01*
X38742857Y-35863095D01*
X38704762Y-35825000D01*
X38628571Y-35786905D01*
X38438095Y-35786905D01*
X38323809Y-35825000D01*
X37980952Y-36586905D02*
X37980952Y-35786905D01*
X37790476Y-35786905D01*
X37676190Y-35825000D01*
X37599999Y-35901190D01*
X37561904Y-35977381D01*
X37523809Y-36129762D01*
X37523809Y-36244048D01*
X37561904Y-36396429D01*
X37599999Y-36472619D01*
X37676190Y-36548810D01*
X37790476Y-36586905D01*
X37980952Y-36586905D01*
X36609523Y-36548810D02*
X36495237Y-36586905D01*
X36304761Y-36586905D01*
X36228571Y-36548810D01*
X36190475Y-36510714D01*
X36152380Y-36434524D01*
X36152380Y-36358333D01*
X36190475Y-36282143D01*
X36228571Y-36244048D01*
X36304761Y-36205952D01*
X36457142Y-36167857D01*
X36533333Y-36129762D01*
X36571428Y-36091667D01*
X36609523Y-36015476D01*
X36609523Y-35939286D01*
X36571428Y-35863095D01*
X36533333Y-35825000D01*
X36457142Y-35786905D01*
X36266666Y-35786905D01*
X36152380Y-35825000D01*
X35885713Y-35786905D02*
X35695237Y-36586905D01*
X35542856Y-36015476D01*
X35390475Y-36586905D01*
X35199999Y-35786905D01*
X34971427Y-36891667D02*
X34933332Y-36853571D01*
X34857142Y-36739286D01*
X34819046Y-36663095D01*
X34780951Y-36548810D01*
X34742856Y-36358333D01*
X34742856Y-36205952D01*
X34780951Y-36015476D01*
X34819046Y-35901190D01*
X34857142Y-35825000D01*
X34933332Y-35710714D01*
X34971427Y-35672619D01*
X43580952Y-37136905D02*
X43580952Y-37708333D01*
X43619048Y-37822619D01*
X43695238Y-37898810D01*
X43809524Y-37936905D01*
X43885714Y-37936905D01*
X43276190Y-37136905D02*
X42780952Y-37136905D01*
X43047619Y-37441667D01*
X42933333Y-37441667D01*
X42857143Y-37479762D01*
X42819047Y-37517857D01*
X42780952Y-37594048D01*
X42780952Y-37784524D01*
X42819047Y-37860714D01*
X42857143Y-37898810D01*
X42933333Y-37936905D01*
X43161905Y-37936905D01*
X43238095Y-37898810D01*
X43276190Y-37860714D01*
X42438095Y-37860714D02*
X42400000Y-37898810D01*
X42438095Y-37936905D01*
X42476190Y-37898810D01*
X42438095Y-37860714D01*
X42438095Y-37936905D01*
X42438095Y-37441667D02*
X42400000Y-37479762D01*
X42438095Y-37517857D01*
X42476190Y-37479762D01*
X42438095Y-37441667D01*
X42438095Y-37517857D01*
X41447619Y-37936905D02*
X41447619Y-37136905D01*
X41066667Y-37936905D02*
X41066667Y-37136905D01*
X40876191Y-37136905D01*
X40761905Y-37175000D01*
X40685714Y-37251190D01*
X40647619Y-37327381D01*
X40609524Y-37479762D01*
X40609524Y-37594048D01*
X40647619Y-37746429D01*
X40685714Y-37822619D01*
X40761905Y-37898810D01*
X40876191Y-37936905D01*
X41066667Y-37936905D01*
X40266667Y-37936905D02*
X40266667Y-37136905D01*
X40076191Y-37136905D01*
X39961905Y-37175000D01*
X39885714Y-37251190D01*
X39847619Y-37327381D01*
X39809524Y-37479762D01*
X39809524Y-37594048D01*
X39847619Y-37746429D01*
X39885714Y-37822619D01*
X39961905Y-37898810D01*
X40076191Y-37936905D01*
X40266667Y-37936905D01*
X38628571Y-38241667D02*
X38666667Y-38203571D01*
X38742857Y-38089286D01*
X38780952Y-38013095D01*
X38819048Y-37898810D01*
X38857143Y-37708333D01*
X38857143Y-37555952D01*
X38819048Y-37365476D01*
X38780952Y-37251190D01*
X38742857Y-37175000D01*
X38666667Y-37060714D01*
X38628571Y-37022619D01*
X38400000Y-37136905D02*
X37904762Y-37136905D01*
X38171429Y-37441667D01*
X38057143Y-37441667D01*
X37980953Y-37479762D01*
X37942857Y-37517857D01*
X37904762Y-37594048D01*
X37904762Y-37784524D01*
X37942857Y-37860714D01*
X37980953Y-37898810D01*
X38057143Y-37936905D01*
X38285715Y-37936905D01*
X38361905Y-37898810D01*
X38400000Y-37860714D01*
X37676191Y-37136905D02*
X37409524Y-37936905D01*
X37142857Y-37136905D01*
X36952381Y-37136905D02*
X36457143Y-37136905D01*
X36723810Y-37441667D01*
X36609524Y-37441667D01*
X36533334Y-37479762D01*
X36495238Y-37517857D01*
X36457143Y-37594048D01*
X36457143Y-37784524D01*
X36495238Y-37860714D01*
X36533334Y-37898810D01*
X36609524Y-37936905D01*
X36838096Y-37936905D01*
X36914286Y-37898810D01*
X36952381Y-37860714D01*
X36190476Y-38241667D02*
X36152381Y-38203571D01*
X36076191Y-38089286D01*
X36038095Y-38013095D01*
X36000000Y-37898810D01*
X35961905Y-37708333D01*
X35961905Y-37555952D01*
X36000000Y-37365476D01*
X36038095Y-37251190D01*
X36076191Y-37175000D01*
X36152381Y-37060714D01*
X36190476Y-37022619D01*
X43580952Y-38486905D02*
X43580952Y-39058333D01*
X43619048Y-39172619D01*
X43695238Y-39248810D01*
X43809524Y-39286905D01*
X43885714Y-39286905D01*
X42857143Y-38753571D02*
X42857143Y-39286905D01*
X43047619Y-38448810D02*
X43238095Y-39020238D01*
X42742857Y-39020238D01*
X42438095Y-39210714D02*
X42400000Y-39248810D01*
X42438095Y-39286905D01*
X42476190Y-39248810D01*
X42438095Y-39210714D01*
X42438095Y-39286905D01*
X42438095Y-38791667D02*
X42400000Y-38829762D01*
X42438095Y-38867857D01*
X42476190Y-38829762D01*
X42438095Y-38791667D01*
X42438095Y-38867857D01*
X41447619Y-39286905D02*
X41447619Y-38486905D01*
X40990476Y-39286905D01*
X40990476Y-38486905D01*
X40152381Y-39286905D02*
X40419048Y-38905952D01*
X40609524Y-39286905D02*
X40609524Y-38486905D01*
X40304762Y-38486905D01*
X40228571Y-38525000D01*
X40190476Y-38563095D01*
X40152381Y-38639286D01*
X40152381Y-38753571D01*
X40190476Y-38829762D01*
X40228571Y-38867857D01*
X40304762Y-38905952D01*
X40609524Y-38905952D01*
X39847619Y-39248810D02*
X39733333Y-39286905D01*
X39542857Y-39286905D01*
X39466667Y-39248810D01*
X39428571Y-39210714D01*
X39390476Y-39134524D01*
X39390476Y-39058333D01*
X39428571Y-38982143D01*
X39466667Y-38944048D01*
X39542857Y-38905952D01*
X39695238Y-38867857D01*
X39771429Y-38829762D01*
X39809524Y-38791667D01*
X39847619Y-38715476D01*
X39847619Y-38639286D01*
X39809524Y-38563095D01*
X39771429Y-38525000D01*
X39695238Y-38486905D01*
X39504762Y-38486905D01*
X39390476Y-38525000D01*
X39161905Y-38486905D02*
X38704762Y-38486905D01*
X38933333Y-39286905D02*
X38933333Y-38486905D01*
X37599999Y-39591667D02*
X37638095Y-39553571D01*
X37714285Y-39439286D01*
X37752380Y-39363095D01*
X37790476Y-39248810D01*
X37828571Y-39058333D01*
X37828571Y-38905952D01*
X37790476Y-38715476D01*
X37752380Y-38601190D01*
X37714285Y-38525000D01*
X37638095Y-38410714D01*
X37599999Y-38372619D01*
X37028571Y-38867857D02*
X36914285Y-38905952D01*
X36876190Y-38944048D01*
X36838095Y-39020238D01*
X36838095Y-39134524D01*
X36876190Y-39210714D01*
X36914285Y-39248810D01*
X36990476Y-39286905D01*
X37295238Y-39286905D01*
X37295238Y-38486905D01*
X37028571Y-38486905D01*
X36952381Y-38525000D01*
X36914285Y-38563095D01*
X36876190Y-38639286D01*
X36876190Y-38715476D01*
X36914285Y-38791667D01*
X36952381Y-38829762D01*
X37028571Y-38867857D01*
X37295238Y-38867857D01*
X36609524Y-38486905D02*
X36152381Y-38486905D01*
X36380952Y-39286905D02*
X36380952Y-38486905D01*
X35885714Y-39286905D02*
X35885714Y-38486905D01*
X35428571Y-39286905D01*
X35428571Y-38486905D01*
X35123809Y-39591667D02*
X35085714Y-39553571D01*
X35009524Y-39439286D01*
X34971428Y-39363095D01*
X34933333Y-39248810D01*
X34895238Y-39058333D01*
X34895238Y-38905952D01*
X34933333Y-38715476D01*
X34971428Y-38601190D01*
X35009524Y-38525000D01*
X35085714Y-38410714D01*
X35123809Y-38372619D01*
X43580952Y-39836905D02*
X43580952Y-40408333D01*
X43619048Y-40522619D01*
X43695238Y-40598810D01*
X43809524Y-40636905D01*
X43885714Y-40636905D01*
X42819047Y-39836905D02*
X43200000Y-39836905D01*
X43238095Y-40217857D01*
X43200000Y-40179762D01*
X43123809Y-40141667D01*
X42933333Y-40141667D01*
X42857143Y-40179762D01*
X42819047Y-40217857D01*
X42780952Y-40294048D01*
X42780952Y-40484524D01*
X42819047Y-40560714D01*
X42857143Y-40598810D01*
X42933333Y-40636905D01*
X43123809Y-40636905D01*
X43200000Y-40598810D01*
X43238095Y-40560714D01*
X42438095Y-40560714D02*
X42400000Y-40598810D01*
X42438095Y-40636905D01*
X42476190Y-40598810D01*
X42438095Y-40560714D01*
X42438095Y-40636905D01*
X42438095Y-40141667D02*
X42400000Y-40179762D01*
X42438095Y-40217857D01*
X42476190Y-40179762D01*
X42438095Y-40141667D01*
X42438095Y-40217857D01*
X41485714Y-40598810D02*
X41371428Y-40636905D01*
X41180952Y-40636905D01*
X41104762Y-40598810D01*
X41066666Y-40560714D01*
X41028571Y-40484524D01*
X41028571Y-40408333D01*
X41066666Y-40332143D01*
X41104762Y-40294048D01*
X41180952Y-40255952D01*
X41333333Y-40217857D01*
X41409524Y-40179762D01*
X41447619Y-40141667D01*
X41485714Y-40065476D01*
X41485714Y-39989286D01*
X41447619Y-39913095D01*
X41409524Y-39875000D01*
X41333333Y-39836905D01*
X41142857Y-39836905D01*
X41028571Y-39875000D01*
X40685714Y-40636905D02*
X40685714Y-39836905D01*
X40495238Y-39836905D01*
X40380952Y-39875000D01*
X40304761Y-39951190D01*
X40266666Y-40027381D01*
X40228571Y-40179762D01*
X40228571Y-40294048D01*
X40266666Y-40446429D01*
X40304761Y-40522619D01*
X40380952Y-40598810D01*
X40495238Y-40636905D01*
X40685714Y-40636905D01*
X39276190Y-40636905D02*
X39276190Y-39836905D01*
X38971428Y-39836905D01*
X38895237Y-39875000D01*
X38857142Y-39913095D01*
X38819047Y-39989286D01*
X38819047Y-40103571D01*
X38857142Y-40179762D01*
X38895237Y-40217857D01*
X38971428Y-40255952D01*
X39276190Y-40255952D01*
X38552380Y-39836905D02*
X38361904Y-40636905D01*
X38209523Y-40065476D01*
X38057142Y-40636905D01*
X37866666Y-39836905D01*
X37104761Y-40636905D02*
X37371428Y-40255952D01*
X37561904Y-40636905D02*
X37561904Y-39836905D01*
X37257142Y-39836905D01*
X37180951Y-39875000D01*
X37142856Y-39913095D01*
X37104761Y-39989286D01*
X37104761Y-40103571D01*
X37142856Y-40179762D01*
X37180951Y-40217857D01*
X37257142Y-40255952D01*
X37561904Y-40255952D01*
X43580952Y-41186905D02*
X43580952Y-41758333D01*
X43619048Y-41872619D01*
X43695238Y-41948810D01*
X43809524Y-41986905D01*
X43885714Y-41986905D01*
X42857143Y-41186905D02*
X43009524Y-41186905D01*
X43085714Y-41225000D01*
X43123809Y-41263095D01*
X43200000Y-41377381D01*
X43238095Y-41529762D01*
X43238095Y-41834524D01*
X43200000Y-41910714D01*
X43161905Y-41948810D01*
X43085714Y-41986905D01*
X42933333Y-41986905D01*
X42857143Y-41948810D01*
X42819047Y-41910714D01*
X42780952Y-41834524D01*
X42780952Y-41644048D01*
X42819047Y-41567857D01*
X42857143Y-41529762D01*
X42933333Y-41491667D01*
X43085714Y-41491667D01*
X43161905Y-41529762D01*
X43200000Y-41567857D01*
X43238095Y-41644048D01*
X42438095Y-41910714D02*
X42400000Y-41948810D01*
X42438095Y-41986905D01*
X42476190Y-41948810D01*
X42438095Y-41910714D01*
X42438095Y-41986905D01*
X42438095Y-41491667D02*
X42400000Y-41529762D01*
X42438095Y-41567857D01*
X42476190Y-41529762D01*
X42438095Y-41491667D01*
X42438095Y-41567857D01*
X41485714Y-41758333D02*
X41104762Y-41758333D01*
X41561905Y-41986905D02*
X41295238Y-41186905D01*
X41028571Y-41986905D01*
X40342857Y-41986905D02*
X40800000Y-41986905D01*
X40571429Y-41986905D02*
X40571429Y-41186905D01*
X40647619Y-41301190D01*
X40723810Y-41377381D01*
X40800000Y-41415476D01*
X39161904Y-42291667D02*
X39200000Y-42253571D01*
X39276190Y-42139286D01*
X39314285Y-42063095D01*
X39352381Y-41948810D01*
X39390476Y-41758333D01*
X39390476Y-41605952D01*
X39352381Y-41415476D01*
X39314285Y-41301190D01*
X39276190Y-41225000D01*
X39200000Y-41110714D01*
X39161904Y-41072619D01*
X38895238Y-41948810D02*
X38780952Y-41986905D01*
X38590476Y-41986905D01*
X38514286Y-41948810D01*
X38476190Y-41910714D01*
X38438095Y-41834524D01*
X38438095Y-41758333D01*
X38476190Y-41682143D01*
X38514286Y-41644048D01*
X38590476Y-41605952D01*
X38742857Y-41567857D01*
X38819048Y-41529762D01*
X38857143Y-41491667D01*
X38895238Y-41415476D01*
X38895238Y-41339286D01*
X38857143Y-41263095D01*
X38819048Y-41225000D01*
X38742857Y-41186905D01*
X38552381Y-41186905D01*
X38438095Y-41225000D01*
X38095238Y-41986905D02*
X38095238Y-41186905D01*
X37904762Y-41186905D01*
X37790476Y-41225000D01*
X37714285Y-41301190D01*
X37676190Y-41377381D01*
X37638095Y-41529762D01*
X37638095Y-41644048D01*
X37676190Y-41796429D01*
X37714285Y-41872619D01*
X37790476Y-41948810D01*
X37904762Y-41986905D01*
X38095238Y-41986905D01*
X36533333Y-41186905D02*
X36380952Y-41186905D01*
X36304761Y-41225000D01*
X36228571Y-41301190D01*
X36190476Y-41453571D01*
X36190476Y-41720238D01*
X36228571Y-41872619D01*
X36304761Y-41948810D01*
X36380952Y-41986905D01*
X36533333Y-41986905D01*
X36609523Y-41948810D01*
X36685714Y-41872619D01*
X36723809Y-41720238D01*
X36723809Y-41453571D01*
X36685714Y-41301190D01*
X36609523Y-41225000D01*
X36533333Y-41186905D01*
X35847619Y-41986905D02*
X35847619Y-41186905D01*
X35390476Y-41986905D01*
X35390476Y-41186905D01*
X35085714Y-42291667D02*
X35047619Y-42253571D01*
X34971429Y-42139286D01*
X34933333Y-42063095D01*
X34895238Y-41948810D01*
X34857143Y-41758333D01*
X34857143Y-41605952D01*
X34895238Y-41415476D01*
X34933333Y-41301190D01*
X34971429Y-41225000D01*
X35047619Y-41110714D01*
X35085714Y-41072619D01*
X79097620Y-46061905D02*
X78830953Y-46861905D01*
X78564286Y-46061905D01*
X78335715Y-46138095D02*
X78297620Y-46100000D01*
X78221429Y-46061905D01*
X78030953Y-46061905D01*
X77954763Y-46100000D01*
X77916667Y-46138095D01*
X77878572Y-46214286D01*
X77878572Y-46290476D01*
X77916667Y-46404762D01*
X78373810Y-46861905D01*
X77878572Y-46861905D01*
X77535715Y-46785714D02*
X77497620Y-46823810D01*
X77535715Y-46861905D01*
X77573810Y-46823810D01*
X77535715Y-46785714D01*
X77535715Y-46861905D01*
X77002382Y-46061905D02*
X76926191Y-46061905D01*
X76850001Y-46100000D01*
X76811906Y-46138095D01*
X76773810Y-46214286D01*
X76735715Y-46366667D01*
X76735715Y-46557143D01*
X76773810Y-46709524D01*
X76811906Y-46785714D01*
X76850001Y-46823810D01*
X76926191Y-46861905D01*
X77002382Y-46861905D01*
X77078572Y-46823810D01*
X77116668Y-46785714D01*
X77154763Y-46709524D01*
X77192858Y-46557143D01*
X77192858Y-46366667D01*
X77154763Y-46214286D01*
X77116668Y-46138095D01*
X77078572Y-46100000D01*
X77002382Y-46061905D01*
X75783334Y-46557143D02*
X75173810Y-46557143D01*
X73840477Y-46328571D02*
X73840477Y-46861905D01*
X74030953Y-46023810D02*
X74221429Y-46595238D01*
X73726191Y-46595238D01*
X73307143Y-46404762D02*
X73383334Y-46366667D01*
X73421429Y-46328571D01*
X73459524Y-46252381D01*
X73459524Y-46214286D01*
X73421429Y-46138095D01*
X73383334Y-46100000D01*
X73307143Y-46061905D01*
X73154762Y-46061905D01*
X73078572Y-46100000D01*
X73040476Y-46138095D01*
X73002381Y-46214286D01*
X73002381Y-46252381D01*
X73040476Y-46328571D01*
X73078572Y-46366667D01*
X73154762Y-46404762D01*
X73307143Y-46404762D01*
X73383334Y-46442857D01*
X73421429Y-46480952D01*
X73459524Y-46557143D01*
X73459524Y-46709524D01*
X73421429Y-46785714D01*
X73383334Y-46823810D01*
X73307143Y-46861905D01*
X73154762Y-46861905D01*
X73078572Y-46823810D01*
X73040476Y-46785714D01*
X73002381Y-46709524D01*
X73002381Y-46557143D01*
X73040476Y-46480952D01*
X73078572Y-46442857D01*
X73154762Y-46404762D01*
X72240476Y-46861905D02*
X72697619Y-46861905D01*
X72469048Y-46861905D02*
X72469048Y-46061905D01*
X72545238Y-46176190D01*
X72621429Y-46252381D01*
X72697619Y-46290476D01*
X71973809Y-46061905D02*
X71440476Y-46061905D01*
X71783333Y-46861905D01*
X68652381Y-48343333D02*
X68271429Y-48343333D01*
X68728572Y-48571905D02*
X68461905Y-47771905D01*
X68195238Y-48571905D01*
X67509524Y-48571905D02*
X67966667Y-48571905D01*
X67738096Y-48571905D02*
X67738096Y-47771905D01*
X67814286Y-47886190D01*
X67890477Y-47962381D01*
X67966667Y-48000476D01*
X67242857Y-47771905D02*
X66747619Y-47771905D01*
X67014286Y-48076667D01*
X66900000Y-48076667D01*
X66823810Y-48114762D01*
X66785714Y-48152857D01*
X66747619Y-48229048D01*
X66747619Y-48419524D01*
X66785714Y-48495714D01*
X66823810Y-48533810D01*
X66900000Y-48571905D01*
X67128572Y-48571905D01*
X67204762Y-48533810D01*
X67242857Y-48495714D01*
X71192381Y-48343333D02*
X70811429Y-48343333D01*
X71268572Y-48571905D02*
X71001905Y-47771905D01*
X70735238Y-48571905D01*
X70049524Y-48571905D02*
X70506667Y-48571905D01*
X70278096Y-48571905D02*
X70278096Y-47771905D01*
X70354286Y-47886190D01*
X70430477Y-47962381D01*
X70506667Y-48000476D01*
X69363810Y-48038571D02*
X69363810Y-48571905D01*
X69554286Y-47733810D02*
X69744762Y-48305238D01*
X69249524Y-48305238D01*
X73103809Y-48152857D02*
X72989523Y-48190952D01*
X72951428Y-48229048D01*
X72913333Y-48305238D01*
X72913333Y-48419524D01*
X72951428Y-48495714D01*
X72989523Y-48533810D01*
X73065714Y-48571905D01*
X73370476Y-48571905D01*
X73370476Y-47771905D01*
X73103809Y-47771905D01*
X73027619Y-47810000D01*
X72989523Y-47848095D01*
X72951428Y-47924286D01*
X72951428Y-48000476D01*
X72989523Y-48076667D01*
X73027619Y-48114762D01*
X73103809Y-48152857D01*
X73370476Y-48152857D01*
X72151428Y-48571905D02*
X72608571Y-48571905D01*
X72380000Y-48571905D02*
X72380000Y-47771905D01*
X72456190Y-47886190D01*
X72532381Y-47962381D01*
X72608571Y-48000476D01*
X76310476Y-47771905D02*
X75815238Y-47771905D01*
X76081905Y-48076667D01*
X75967619Y-48076667D01*
X75891429Y-48114762D01*
X75853333Y-48152857D01*
X75815238Y-48229048D01*
X75815238Y-48419524D01*
X75853333Y-48495714D01*
X75891429Y-48533810D01*
X75967619Y-48571905D01*
X76196191Y-48571905D01*
X76272381Y-48533810D01*
X76310476Y-48495714D01*
X75586667Y-47771905D02*
X75320000Y-48571905D01*
X75053333Y-47771905D01*
X74862857Y-47771905D02*
X74367619Y-47771905D01*
X74634286Y-48076667D01*
X74520000Y-48076667D01*
X74443810Y-48114762D01*
X74405714Y-48152857D01*
X74367619Y-48229048D01*
X74367619Y-48419524D01*
X74405714Y-48495714D01*
X74443810Y-48533810D01*
X74520000Y-48571905D01*
X74748572Y-48571905D01*
X74824762Y-48533810D01*
X74862857Y-48495714D01*
X78469523Y-47810000D02*
X78545714Y-47771905D01*
X78659999Y-47771905D01*
X78774285Y-47810000D01*
X78850476Y-47886190D01*
X78888571Y-47962381D01*
X78926666Y-48114762D01*
X78926666Y-48229048D01*
X78888571Y-48381429D01*
X78850476Y-48457619D01*
X78774285Y-48533810D01*
X78659999Y-48571905D01*
X78583809Y-48571905D01*
X78469523Y-48533810D01*
X78431428Y-48495714D01*
X78431428Y-48229048D01*
X78583809Y-48229048D01*
X78088571Y-48571905D02*
X78088571Y-47771905D01*
X77631428Y-48571905D01*
X77631428Y-47771905D01*
X77250476Y-48571905D02*
X77250476Y-47771905D01*
X77060000Y-47771905D01*
X76945714Y-47810000D01*
X76869523Y-47886190D01*
X76831428Y-47962381D01*
X76793333Y-48114762D01*
X76793333Y-48229048D01*
X76831428Y-48381429D01*
X76869523Y-48457619D01*
X76945714Y-48533810D01*
X77060000Y-48571905D01*
X77250476Y-48571905D01*
X66112381Y-48343333D02*
X65731429Y-48343333D01*
X66188572Y-48571905D02*
X65921905Y-47771905D01*
X65655238Y-48571905D01*
X64969524Y-48571905D02*
X65426667Y-48571905D01*
X65198096Y-48571905D02*
X65198096Y-47771905D01*
X65274286Y-47886190D01*
X65350477Y-47962381D01*
X65426667Y-48000476D01*
X64474286Y-47771905D02*
X64398095Y-47771905D01*
X64321905Y-47810000D01*
X64283810Y-47848095D01*
X64245714Y-47924286D01*
X64207619Y-48076667D01*
X64207619Y-48267143D01*
X64245714Y-48419524D01*
X64283810Y-48495714D01*
X64321905Y-48533810D01*
X64398095Y-48571905D01*
X64474286Y-48571905D01*
X64550476Y-48533810D01*
X64588572Y-48495714D01*
X64626667Y-48419524D01*
X64664762Y-48267143D01*
X64664762Y-48076667D01*
X64626667Y-47924286D01*
X64588572Y-47848095D01*
X64550476Y-47810000D01*
X64474286Y-47771905D01*
X63191428Y-48343333D02*
X62810476Y-48343333D01*
X63267619Y-48571905D02*
X63000952Y-47771905D01*
X62734285Y-48571905D01*
X62429524Y-48571905D02*
X62277143Y-48571905D01*
X62200952Y-48533810D01*
X62162857Y-48495714D01*
X62086666Y-48381429D01*
X62048571Y-48229048D01*
X62048571Y-47924286D01*
X62086666Y-47848095D01*
X62124762Y-47810000D01*
X62200952Y-47771905D01*
X62353333Y-47771905D01*
X62429524Y-47810000D01*
X62467619Y-47848095D01*
X62505714Y-47924286D01*
X62505714Y-48114762D01*
X62467619Y-48190952D01*
X62429524Y-48229048D01*
X62353333Y-48267143D01*
X62200952Y-48267143D01*
X62124762Y-48229048D01*
X62086666Y-48190952D01*
X62048571Y-48114762D01*
X60651428Y-48343333D02*
X60270476Y-48343333D01*
X60727619Y-48571905D02*
X60460952Y-47771905D01*
X60194285Y-48571905D01*
X60003809Y-47771905D02*
X59470476Y-47771905D01*
X59813333Y-48571905D01*
X58111428Y-48343333D02*
X57730476Y-48343333D01*
X58187619Y-48571905D02*
X57920952Y-47771905D01*
X57654285Y-48571905D01*
X57044762Y-47771905D02*
X57197143Y-47771905D01*
X57273333Y-47810000D01*
X57311428Y-47848095D01*
X57387619Y-47962381D01*
X57425714Y-48114762D01*
X57425714Y-48419524D01*
X57387619Y-48495714D01*
X57349524Y-48533810D01*
X57273333Y-48571905D01*
X57120952Y-48571905D01*
X57044762Y-48533810D01*
X57006666Y-48495714D01*
X56968571Y-48419524D01*
X56968571Y-48229048D01*
X57006666Y-48152857D01*
X57044762Y-48114762D01*
X57120952Y-48076667D01*
X57273333Y-48076667D01*
X57349524Y-48114762D01*
X57387619Y-48152857D01*
X57425714Y-48229048D01*
X55571428Y-48343333D02*
X55190476Y-48343333D01*
X55647619Y-48571905D02*
X55380952Y-47771905D01*
X55114285Y-48571905D01*
X54466666Y-47771905D02*
X54847619Y-47771905D01*
X54885714Y-48152857D01*
X54847619Y-48114762D01*
X54771428Y-48076667D01*
X54580952Y-48076667D01*
X54504762Y-48114762D01*
X54466666Y-48152857D01*
X54428571Y-48229048D01*
X54428571Y-48419524D01*
X54466666Y-48495714D01*
X54504762Y-48533810D01*
X54580952Y-48571905D01*
X54771428Y-48571905D01*
X54847619Y-48533810D01*
X54885714Y-48495714D01*
X53031428Y-48343333D02*
X52650476Y-48343333D01*
X53107619Y-48571905D02*
X52840952Y-47771905D01*
X52574285Y-48571905D01*
X51964762Y-48038571D02*
X51964762Y-48571905D01*
X52155238Y-47733810D02*
X52345714Y-48305238D01*
X51850476Y-48305238D01*
X50491428Y-48343333D02*
X50110476Y-48343333D01*
X50567619Y-48571905D02*
X50300952Y-47771905D01*
X50034285Y-48571905D01*
X49843809Y-47771905D02*
X49348571Y-47771905D01*
X49615238Y-48076667D01*
X49500952Y-48076667D01*
X49424762Y-48114762D01*
X49386666Y-48152857D01*
X49348571Y-48229048D01*
X49348571Y-48419524D01*
X49386666Y-48495714D01*
X49424762Y-48533810D01*
X49500952Y-48571905D01*
X49729524Y-48571905D01*
X49805714Y-48533810D01*
X49843809Y-48495714D01*
X47951428Y-48343333D02*
X47570476Y-48343333D01*
X48027619Y-48571905D02*
X47760952Y-47771905D01*
X47494285Y-48571905D01*
X47265714Y-47848095D02*
X47227619Y-47810000D01*
X47151428Y-47771905D01*
X46960952Y-47771905D01*
X46884762Y-47810000D01*
X46846666Y-47848095D01*
X46808571Y-47924286D01*
X46808571Y-48000476D01*
X46846666Y-48114762D01*
X47303809Y-48571905D01*
X46808571Y-48571905D01*
X45411428Y-48343333D02*
X45030476Y-48343333D01*
X45487619Y-48571905D02*
X45220952Y-47771905D01*
X44954285Y-48571905D01*
X44268571Y-48571905D02*
X44725714Y-48571905D01*
X44497143Y-48571905D02*
X44497143Y-47771905D01*
X44573333Y-47886190D01*
X44649524Y-47962381D01*
X44725714Y-48000476D01*
X42871428Y-48343333D02*
X42490476Y-48343333D01*
X42947619Y-48571905D02*
X42680952Y-47771905D01*
X42414285Y-48571905D01*
X41995238Y-47771905D02*
X41919047Y-47771905D01*
X41842857Y-47810000D01*
X41804762Y-47848095D01*
X41766666Y-47924286D01*
X41728571Y-48076667D01*
X41728571Y-48267143D01*
X41766666Y-48419524D01*
X41804762Y-48495714D01*
X41842857Y-48533810D01*
X41919047Y-48571905D01*
X41995238Y-48571905D01*
X42071428Y-48533810D01*
X42109524Y-48495714D01*
X42147619Y-48419524D01*
X42185714Y-48267143D01*
X42185714Y-48076667D01*
X42147619Y-47924286D01*
X42109524Y-47848095D01*
X42071428Y-47810000D01*
X41995238Y-47771905D01*
X40026666Y-48152857D02*
X40293333Y-48152857D01*
X40293333Y-48571905D02*
X40293333Y-47771905D01*
X39912380Y-47771905D01*
X39188571Y-48571905D02*
X39645714Y-48571905D01*
X39417143Y-48571905D02*
X39417143Y-47771905D01*
X39493333Y-47886190D01*
X39569524Y-47962381D01*
X39645714Y-48000476D01*
X37486666Y-48152857D02*
X37753333Y-48152857D01*
X37753333Y-48571905D02*
X37753333Y-47771905D01*
X37372380Y-47771905D01*
X36915238Y-47771905D02*
X36839047Y-47771905D01*
X36762857Y-47810000D01*
X36724762Y-47848095D01*
X36686666Y-47924286D01*
X36648571Y-48076667D01*
X36648571Y-48267143D01*
X36686666Y-48419524D01*
X36724762Y-48495714D01*
X36762857Y-48533810D01*
X36839047Y-48571905D01*
X36915238Y-48571905D01*
X36991428Y-48533810D01*
X37029524Y-48495714D01*
X37067619Y-48419524D01*
X37105714Y-48267143D01*
X37105714Y-48076667D01*
X37067619Y-47924286D01*
X37029524Y-47848095D01*
X36991428Y-47810000D01*
X36915238Y-47771905D01*
X35670476Y-47771905D02*
X35175238Y-47771905D01*
X35441905Y-48076667D01*
X35327619Y-48076667D01*
X35251429Y-48114762D01*
X35213333Y-48152857D01*
X35175238Y-48229048D01*
X35175238Y-48419524D01*
X35213333Y-48495714D01*
X35251429Y-48533810D01*
X35327619Y-48571905D01*
X35556191Y-48571905D01*
X35632381Y-48533810D01*
X35670476Y-48495714D01*
X34946667Y-47771905D02*
X34680000Y-48571905D01*
X34413333Y-47771905D01*
X34222857Y-47771905D02*
X33727619Y-47771905D01*
X33994286Y-48076667D01*
X33880000Y-48076667D01*
X33803810Y-48114762D01*
X33765714Y-48152857D01*
X33727619Y-48229048D01*
X33727619Y-48419524D01*
X33765714Y-48495714D01*
X33803810Y-48533810D01*
X33880000Y-48571905D01*
X34108572Y-48571905D01*
X34184762Y-48533810D01*
X34222857Y-48495714D01*
X32749523Y-47810000D02*
X32825714Y-47771905D01*
X32939999Y-47771905D01*
X33054285Y-47810000D01*
X33130476Y-47886190D01*
X33168571Y-47962381D01*
X33206666Y-48114762D01*
X33206666Y-48229048D01*
X33168571Y-48381429D01*
X33130476Y-48457619D01*
X33054285Y-48533810D01*
X32939999Y-48571905D01*
X32863809Y-48571905D01*
X32749523Y-48533810D01*
X32711428Y-48495714D01*
X32711428Y-48229048D01*
X32863809Y-48229048D01*
X32368571Y-48571905D02*
X32368571Y-47771905D01*
X31911428Y-48571905D01*
X31911428Y-47771905D01*
X31530476Y-48571905D02*
X31530476Y-47771905D01*
X31340000Y-47771905D01*
X31225714Y-47810000D01*
X31149523Y-47886190D01*
X31111428Y-47962381D01*
X31073333Y-48114762D01*
X31073333Y-48229048D01*
X31111428Y-48381429D01*
X31149523Y-48457619D01*
X31225714Y-48533810D01*
X31340000Y-48571905D01*
X31530476Y-48571905D01*
D12*
X51150000Y-40600000D02*
X51150000Y-39400000D01*
X53850000Y-39400000D02*
X53850000Y-40600000D01*
X53850000Y-40600000D02*
X51150000Y-40600000D01*
X51150000Y-39400000D02*
X53850000Y-39400000D01*
X51150000Y-43600000D02*
X51150000Y-42400000D01*
X53850000Y-42400000D02*
X53850000Y-43600000D01*
X53850000Y-43600000D02*
X51150000Y-43600000D01*
X51150000Y-42400000D02*
X53850000Y-42400000D01*
X51150000Y-42100000D02*
X51150000Y-40900000D01*
X53850000Y-40900000D02*
X53850000Y-42100000D01*
X53850000Y-42100000D02*
X51150000Y-42100000D01*
X51150000Y-40900000D02*
X53850000Y-40900000D01*
X51150000Y-39100000D02*
X51150000Y-37900000D01*
X53850000Y-37900000D02*
X53850000Y-39100000D01*
X53850000Y-39100000D02*
X51150000Y-39100000D01*
X51150000Y-37900000D02*
X53850000Y-37900000D01*
X51150000Y-37600000D02*
X51150000Y-36400000D01*
X53850000Y-36400000D02*
X53850000Y-37600000D01*
X53850000Y-37600000D02*
X51150000Y-37600000D01*
X51150000Y-36400000D02*
X53850000Y-36400000D01*
X69800000Y-30000000D02*
X69800000Y-44500000D01*
X69800000Y-30000000D02*
X66450000Y-30000000D01*
X66450000Y-30000000D02*
X63450000Y-30700000D01*
X63450000Y-30700000D02*
X55100000Y-30700000D01*
X69800000Y-44500000D02*
X55100000Y-44500000D01*
X55100000Y-30700000D02*
X55100000Y-44500000D01*
X45498880Y-45526160D02*
X46898880Y-45526160D01*
X46898880Y-42526160D02*
X45498880Y-42526160D01*
X46898880Y-42526160D02*
X46898880Y-45526160D01*
X45498880Y-42526160D02*
X45498880Y-45526160D01*
X52150000Y-47100000D02*
X52150000Y-45900000D01*
X54850000Y-45900000D02*
X54850000Y-47100000D01*
X54850000Y-47100000D02*
X52150000Y-47100000D01*
X52150000Y-45900000D02*
X54850000Y-45900000D01*
X46850000Y-45900000D02*
X46850000Y-47100000D01*
X44150000Y-47100000D02*
X44150000Y-45900000D01*
X44150000Y-45900000D02*
X46850000Y-45900000D01*
X46850000Y-47100000D02*
X44150000Y-47100000D01*
X44650000Y-42100000D02*
X44650000Y-40900000D01*
X47350000Y-40900000D02*
X47350000Y-42100000D01*
X47350000Y-42100000D02*
X44650000Y-42100000D01*
X44650000Y-40900000D02*
X47350000Y-40900000D01*
D13*
G36*
X71328611Y-43377375D02*
X71284603Y-43378390D01*
X71256707Y-43379878D01*
X71249500Y-43381251D01*
X71253582Y-43394571D01*
X71265293Y-43429564D01*
X71283834Y-43483943D01*
X71308407Y-43555420D01*
X71338213Y-43641709D01*
X71372452Y-43740522D01*
X71410325Y-43849571D01*
X71451034Y-43966568D01*
X71493780Y-44089228D01*
X71537762Y-44215261D01*
X71582183Y-44342382D01*
X71626243Y-44468302D01*
X71669143Y-44590733D01*
X71710084Y-44707390D01*
X71748267Y-44815983D01*
X71782893Y-44914226D01*
X71813163Y-44999832D01*
X71838278Y-45070513D01*
X71857439Y-45123981D01*
X71869847Y-45157949D01*
X71873350Y-45167110D01*
X71941217Y-45309206D01*
X72022844Y-45431023D01*
X72117668Y-45531991D01*
X72225127Y-45611538D01*
X72344657Y-45669091D01*
X72378805Y-45680747D01*
X72437650Y-45697957D01*
X72492451Y-45711783D01*
X72538242Y-45721213D01*
X72570059Y-45725235D01*
X72582937Y-45722836D01*
X72583000Y-45722383D01*
X72585228Y-45707772D01*
X72591141Y-45674646D01*
X72599584Y-45629425D01*
X72602048Y-45616492D01*
X72610932Y-45569697D01*
X72617606Y-45533847D01*
X72620925Y-45515104D01*
X72621098Y-45513775D01*
X72610762Y-45510922D01*
X72602706Y-45510600D01*
X72572015Y-45505646D01*
X72525607Y-45492542D01*
X72470759Y-45473923D01*
X72414751Y-45452425D01*
X72364860Y-45430683D01*
X72328366Y-45411334D01*
X72328073Y-45411149D01*
X72251569Y-45347834D01*
X72184906Y-45261270D01*
X72131297Y-45158711D01*
X72088174Y-45059750D01*
X72181268Y-45047050D01*
X72468853Y-44221550D01*
X72516958Y-44082982D01*
X72562301Y-43951427D01*
X72604225Y-43828847D01*
X72642076Y-43717208D01*
X72675196Y-43618471D01*
X72702930Y-43534602D01*
X72724622Y-43467563D01*
X72739615Y-43419319D01*
X72747254Y-43391834D01*
X72747992Y-43386057D01*
X72732510Y-43382236D01*
X72697388Y-43379822D01*
X72648364Y-43379075D01*
X72607984Y-43379707D01*
X72476421Y-43383350D01*
X72240786Y-44103457D01*
X72198304Y-44233059D01*
X72158073Y-44355369D01*
X72120798Y-44468269D01*
X72087184Y-44569642D01*
X72057936Y-44657373D01*
X72033761Y-44729343D01*
X72015364Y-44783438D01*
X72003451Y-44817541D01*
X71998763Y-44829511D01*
X71993828Y-44818882D01*
X71981898Y-44786173D01*
X71963681Y-44733509D01*
X71939884Y-44663013D01*
X71911215Y-44576811D01*
X71878381Y-44477025D01*
X71842090Y-44365781D01*
X71803050Y-44245203D01*
X71771614Y-44147504D01*
X71730466Y-44019460D01*
X71691229Y-43897717D01*
X71654658Y-43784597D01*
X71621510Y-43682422D01*
X71592541Y-43593516D01*
X71568507Y-43520201D01*
X71550165Y-43464800D01*
X71538271Y-43429634D01*
X71534175Y-43418275D01*
X71517497Y-43377000D01*
X71383499Y-43377000D01*
X71328611Y-43377375D01*
X71328611Y-43377375D01*
G37*
X71328611Y-43377375D02*
X71284603Y-43378390D01*
X71256707Y-43379878D01*
X71249500Y-43381251D01*
X71253582Y-43394571D01*
X71265293Y-43429564D01*
X71283834Y-43483943D01*
X71308407Y-43555420D01*
X71338213Y-43641709D01*
X71372452Y-43740522D01*
X71410325Y-43849571D01*
X71451034Y-43966568D01*
X71493780Y-44089228D01*
X71537762Y-44215261D01*
X71582183Y-44342382D01*
X71626243Y-44468302D01*
X71669143Y-44590733D01*
X71710084Y-44707390D01*
X71748267Y-44815983D01*
X71782893Y-44914226D01*
X71813163Y-44999832D01*
X71838278Y-45070513D01*
X71857439Y-45123981D01*
X71869847Y-45157949D01*
X71873350Y-45167110D01*
X71941217Y-45309206D01*
X72022844Y-45431023D01*
X72117668Y-45531991D01*
X72225127Y-45611538D01*
X72344657Y-45669091D01*
X72378805Y-45680747D01*
X72437650Y-45697957D01*
X72492451Y-45711783D01*
X72538242Y-45721213D01*
X72570059Y-45725235D01*
X72582937Y-45722836D01*
X72583000Y-45722383D01*
X72585228Y-45707772D01*
X72591141Y-45674646D01*
X72599584Y-45629425D01*
X72602048Y-45616492D01*
X72610932Y-45569697D01*
X72617606Y-45533847D01*
X72620925Y-45515104D01*
X72621098Y-45513775D01*
X72610762Y-45510922D01*
X72602706Y-45510600D01*
X72572015Y-45505646D01*
X72525607Y-45492542D01*
X72470759Y-45473923D01*
X72414751Y-45452425D01*
X72364860Y-45430683D01*
X72328366Y-45411334D01*
X72328073Y-45411149D01*
X72251569Y-45347834D01*
X72184906Y-45261270D01*
X72131297Y-45158711D01*
X72088174Y-45059750D01*
X72181268Y-45047050D01*
X72468853Y-44221550D01*
X72516958Y-44082982D01*
X72562301Y-43951427D01*
X72604225Y-43828847D01*
X72642076Y-43717208D01*
X72675196Y-43618471D01*
X72702930Y-43534602D01*
X72724622Y-43467563D01*
X72739615Y-43419319D01*
X72747254Y-43391834D01*
X72747992Y-43386057D01*
X72732510Y-43382236D01*
X72697388Y-43379822D01*
X72648364Y-43379075D01*
X72607984Y-43379707D01*
X72476421Y-43383350D01*
X72240786Y-44103457D01*
X72198304Y-44233059D01*
X72158073Y-44355369D01*
X72120798Y-44468269D01*
X72087184Y-44569642D01*
X72057936Y-44657373D01*
X72033761Y-44729343D01*
X72015364Y-44783438D01*
X72003451Y-44817541D01*
X71998763Y-44829511D01*
X71993828Y-44818882D01*
X71981898Y-44786173D01*
X71963681Y-44733509D01*
X71939884Y-44663013D01*
X71911215Y-44576811D01*
X71878381Y-44477025D01*
X71842090Y-44365781D01*
X71803050Y-44245203D01*
X71771614Y-44147504D01*
X71730466Y-44019460D01*
X71691229Y-43897717D01*
X71654658Y-43784597D01*
X71621510Y-43682422D01*
X71592541Y-43593516D01*
X71568507Y-43520201D01*
X71550165Y-43464800D01*
X71538271Y-43429634D01*
X71534175Y-43418275D01*
X71517497Y-43377000D01*
X71383499Y-43377000D01*
X71328611Y-43377375D01*
G36*
X78532950Y-44716850D02*
X78504175Y-44763122D01*
X78473435Y-44799335D01*
X78434830Y-44828864D01*
X78427975Y-44832517D01*
X78371159Y-44850680D01*
X78298177Y-44860011D01*
X78216762Y-44860288D01*
X78134645Y-44851290D01*
X78091545Y-44842196D01*
X78045640Y-44830844D01*
X78009362Y-44822476D01*
X77989706Y-44818694D01*
X77988696Y-44818622D01*
X77979646Y-44829415D01*
X77965600Y-44857201D01*
X77949438Y-44894825D01*
X77934040Y-44935132D01*
X77922285Y-44970967D01*
X77917054Y-44995175D01*
X77917000Y-44996760D01*
X77928849Y-45011288D01*
X77961244Y-45027237D01*
X78009458Y-45043484D01*
X78068766Y-45058908D01*
X78134440Y-45072386D01*
X78201756Y-45082796D01*
X78265986Y-45089015D01*
X78310700Y-45090238D01*
X78355846Y-45086927D01*
X78410709Y-45079231D01*
X78445463Y-45072597D01*
X78551509Y-45038534D01*
X78639695Y-44986622D01*
X78709536Y-44917344D01*
X78760550Y-44831185D01*
X78792252Y-44728631D01*
X78793111Y-44724197D01*
X78795733Y-44697253D01*
X78798100Y-44646237D01*
X78800193Y-44572478D01*
X78801993Y-44477304D01*
X78803484Y-44362041D01*
X78804646Y-44228018D01*
X78805462Y-44076563D01*
X78805912Y-43909003D01*
X78806001Y-43788016D01*
X78806000Y-42919800D01*
X79314000Y-42919800D01*
X79314000Y-42703900D01*
X78539892Y-42703900D01*
X78532950Y-44716850D01*
X78532950Y-44716850D01*
G37*
X78532950Y-44716850D02*
X78504175Y-44763122D01*
X78473435Y-44799335D01*
X78434830Y-44828864D01*
X78427975Y-44832517D01*
X78371159Y-44850680D01*
X78298177Y-44860011D01*
X78216762Y-44860288D01*
X78134645Y-44851290D01*
X78091545Y-44842196D01*
X78045640Y-44830844D01*
X78009362Y-44822476D01*
X77989706Y-44818694D01*
X77988696Y-44818622D01*
X77979646Y-44829415D01*
X77965600Y-44857201D01*
X77949438Y-44894825D01*
X77934040Y-44935132D01*
X77922285Y-44970967D01*
X77917054Y-44995175D01*
X77917000Y-44996760D01*
X77928849Y-45011288D01*
X77961244Y-45027237D01*
X78009458Y-45043484D01*
X78068766Y-45058908D01*
X78134440Y-45072386D01*
X78201756Y-45082796D01*
X78265986Y-45089015D01*
X78310700Y-45090238D01*
X78355846Y-45086927D01*
X78410709Y-45079231D01*
X78445463Y-45072597D01*
X78551509Y-45038534D01*
X78639695Y-44986622D01*
X78709536Y-44917344D01*
X78760550Y-44831185D01*
X78792252Y-44728631D01*
X78793111Y-44724197D01*
X78795733Y-44697253D01*
X78798100Y-44646237D01*
X78800193Y-44572478D01*
X78801993Y-44477304D01*
X78803484Y-44362041D01*
X78804646Y-44228018D01*
X78805462Y-44076563D01*
X78805912Y-43909003D01*
X78806001Y-43788016D01*
X78806000Y-42919800D01*
X79314000Y-42919800D01*
X79314000Y-42703900D01*
X78539892Y-42703900D01*
X78532950Y-44716850D01*
G36*
X76755098Y-43362508D02*
X76634853Y-43395067D01*
X76528123Y-43449029D01*
X76435229Y-43524145D01*
X76356496Y-43620165D01*
X76292246Y-43736842D01*
X76252864Y-43840550D01*
X76240508Y-43884970D01*
X76231518Y-43932553D01*
X76225159Y-43989319D01*
X76220695Y-44061291D01*
X76218329Y-44123125D01*
X76212112Y-44316800D01*
X77336278Y-44316800D01*
X77329675Y-44396175D01*
X77309187Y-44513664D01*
X77269413Y-44616695D01*
X77211885Y-44703773D01*
X77138135Y-44773405D01*
X77049697Y-44824098D01*
X76948103Y-44854357D01*
X76850693Y-44862900D01*
X76757879Y-44858602D01*
X76675527Y-44844071D01*
X76593827Y-44816852D01*
X76508229Y-44777183D01*
X76461385Y-44754761D01*
X76423316Y-44739278D01*
X76399303Y-44732738D01*
X76393929Y-44733777D01*
X76383403Y-44749286D01*
X76362855Y-44779139D01*
X76337167Y-44816251D01*
X76310278Y-44857473D01*
X76299344Y-44886331D01*
X76306015Y-44908982D01*
X76331940Y-44931586D01*
X76375189Y-44958204D01*
X76497631Y-45017183D01*
X76631645Y-45059146D01*
X76770556Y-45082820D01*
X76907690Y-45086929D01*
X76999459Y-45077414D01*
X77131142Y-45043705D01*
X77248650Y-44989019D01*
X77351589Y-44913717D01*
X77439566Y-44818157D01*
X77512190Y-44702699D01*
X77569065Y-44567702D01*
X77574320Y-44551750D01*
X77592970Y-44473026D01*
X77605413Y-44376978D01*
X77611491Y-44270947D01*
X77611049Y-44162278D01*
X77607715Y-44113600D01*
X77336473Y-44113600D01*
X76465919Y-44113600D01*
X76474720Y-44024274D01*
X76495062Y-43904908D01*
X76530485Y-43801420D01*
X76580023Y-43715799D01*
X76642712Y-43650036D01*
X76663879Y-43634517D01*
X76732063Y-43596176D01*
X76800480Y-43574953D01*
X76879945Y-43567661D01*
X76891032Y-43567570D01*
X76990910Y-43579248D01*
X77081251Y-43613289D01*
X77160364Y-43667898D01*
X77226559Y-43741280D01*
X77278145Y-43831641D01*
X77313433Y-43937186D01*
X77328897Y-44032469D01*
X77336473Y-44113600D01*
X77607715Y-44113600D01*
X77603928Y-44058314D01*
X77589972Y-43966398D01*
X77587098Y-43953319D01*
X77543540Y-43811378D01*
X77483038Y-43686693D01*
X77406690Y-43580211D01*
X77315594Y-43492876D01*
X77210846Y-43425633D01*
X77093545Y-43379429D01*
X76964787Y-43355208D01*
X76888532Y-43351599D01*
X76755098Y-43362508D01*
X76755098Y-43362508D01*
G37*
X76755098Y-43362508D02*
X76634853Y-43395067D01*
X76528123Y-43449029D01*
X76435229Y-43524145D01*
X76356496Y-43620165D01*
X76292246Y-43736842D01*
X76252864Y-43840550D01*
X76240508Y-43884970D01*
X76231518Y-43932553D01*
X76225159Y-43989319D01*
X76220695Y-44061291D01*
X76218329Y-44123125D01*
X76212112Y-44316800D01*
X77336278Y-44316800D01*
X77329675Y-44396175D01*
X77309187Y-44513664D01*
X77269413Y-44616695D01*
X77211885Y-44703773D01*
X77138135Y-44773405D01*
X77049697Y-44824098D01*
X76948103Y-44854357D01*
X76850693Y-44862900D01*
X76757879Y-44858602D01*
X76675527Y-44844071D01*
X76593827Y-44816852D01*
X76508229Y-44777183D01*
X76461385Y-44754761D01*
X76423316Y-44739278D01*
X76399303Y-44732738D01*
X76393929Y-44733777D01*
X76383403Y-44749286D01*
X76362855Y-44779139D01*
X76337167Y-44816251D01*
X76310278Y-44857473D01*
X76299344Y-44886331D01*
X76306015Y-44908982D01*
X76331940Y-44931586D01*
X76375189Y-44958204D01*
X76497631Y-45017183D01*
X76631645Y-45059146D01*
X76770556Y-45082820D01*
X76907690Y-45086929D01*
X76999459Y-45077414D01*
X77131142Y-45043705D01*
X77248650Y-44989019D01*
X77351589Y-44913717D01*
X77439566Y-44818157D01*
X77512190Y-44702699D01*
X77569065Y-44567702D01*
X77574320Y-44551750D01*
X77592970Y-44473026D01*
X77605413Y-44376978D01*
X77611491Y-44270947D01*
X77611049Y-44162278D01*
X77607715Y-44113600D01*
X77336473Y-44113600D01*
X76465919Y-44113600D01*
X76474720Y-44024274D01*
X76495062Y-43904908D01*
X76530485Y-43801420D01*
X76580023Y-43715799D01*
X76642712Y-43650036D01*
X76663879Y-43634517D01*
X76732063Y-43596176D01*
X76800480Y-43574953D01*
X76879945Y-43567661D01*
X76891032Y-43567570D01*
X76990910Y-43579248D01*
X77081251Y-43613289D01*
X77160364Y-43667898D01*
X77226559Y-43741280D01*
X77278145Y-43831641D01*
X77313433Y-43937186D01*
X77328897Y-44032469D01*
X77336473Y-44113600D01*
X77607715Y-44113600D01*
X77603928Y-44058314D01*
X77589972Y-43966398D01*
X77587098Y-43953319D01*
X77543540Y-43811378D01*
X77483038Y-43686693D01*
X77406690Y-43580211D01*
X77315594Y-43492876D01*
X77210846Y-43425633D01*
X77093545Y-43379429D01*
X76964787Y-43355208D01*
X76888532Y-43351599D01*
X76755098Y-43362508D01*
G36*
X75218250Y-43355747D02*
X75141445Y-43360365D01*
X75069041Y-43367571D01*
X75008741Y-43376479D01*
X74976950Y-43383503D01*
X74918846Y-43402436D01*
X74854502Y-43427765D01*
X74791231Y-43456172D01*
X74736342Y-43484339D01*
X74697146Y-43508947D01*
X74692452Y-43512635D01*
X74661954Y-43537828D01*
X74716643Y-43619339D01*
X74743075Y-43658611D01*
X74763617Y-43688903D01*
X74774538Y-43704718D01*
X74775255Y-43705680D01*
X74787440Y-43702382D01*
X74816749Y-43689486D01*
X74857914Y-43669385D01*
X74879643Y-43658242D01*
X74973788Y-43615066D01*
X75064512Y-43586999D01*
X75160250Y-43572240D01*
X75269434Y-43568986D01*
X75294450Y-43569582D01*
X75360525Y-43572435D01*
X75408527Y-43577038D01*
X75445778Y-43584742D01*
X75479604Y-43596898D01*
X75504100Y-43608257D01*
X75564052Y-43645995D01*
X75601489Y-43691133D01*
X75619063Y-43747611D01*
X75621231Y-43782462D01*
X75611910Y-43851473D01*
X75582532Y-43906301D01*
X75530979Y-43950632D01*
X75521018Y-43956712D01*
X75490601Y-43971207D01*
X75440676Y-43991183D01*
X75376080Y-44014875D01*
X75301649Y-44040515D01*
X75222220Y-44066336D01*
X75213114Y-44069196D01*
X75105396Y-44103654D01*
X75018636Y-44133436D01*
X74949208Y-44160259D01*
X74893489Y-44185842D01*
X74847853Y-44211903D01*
X74808676Y-44240160D01*
X74772333Y-44272331D01*
X74760878Y-44283566D01*
X74709167Y-44344451D01*
X74674495Y-44409224D01*
X74654657Y-44483954D01*
X74647449Y-44574712D01*
X74647333Y-44596200D01*
X74653703Y-44686219D01*
X74673776Y-44762043D01*
X74710406Y-44832440D01*
X74735988Y-44868563D01*
X74797965Y-44930714D01*
X74880363Y-44984026D01*
X74979440Y-45027491D01*
X75091455Y-45060100D01*
X75212666Y-45080843D01*
X75339331Y-45088711D01*
X75467708Y-45082695D01*
X75510350Y-45077413D01*
X75629266Y-45052540D01*
X75745610Y-45013829D01*
X75852289Y-44964164D01*
X75942211Y-44906431D01*
X75954243Y-44896904D01*
X75977921Y-44875876D01*
X75984034Y-44860911D01*
X75975125Y-44842557D01*
X75970628Y-44836013D01*
X75950285Y-44809380D01*
X75920803Y-44773610D01*
X75900445Y-44750007D01*
X75851369Y-44694265D01*
X75763525Y-44747246D01*
X75635489Y-44811115D01*
X75503384Y-44850275D01*
X75365055Y-44865345D01*
X75351290Y-44865548D01*
X75234264Y-44858922D01*
X75134960Y-44837755D01*
X75054324Y-44802664D01*
X74993302Y-44754268D01*
X74952839Y-44693185D01*
X74933881Y-44620033D01*
X74932500Y-44591782D01*
X74936143Y-44537483D01*
X74948581Y-44491110D01*
X74972085Y-44450996D01*
X75008923Y-44415476D01*
X75061362Y-44382884D01*
X75131672Y-44351554D01*
X75222120Y-44319820D01*
X75334977Y-44286017D01*
X75357498Y-44279681D01*
X75485982Y-44241123D01*
X75591774Y-44203056D01*
X75677511Y-44164034D01*
X75745825Y-44122605D01*
X75799352Y-44077321D01*
X75840726Y-44026732D01*
X75853071Y-44007083D01*
X75883281Y-43933868D01*
X75898402Y-43848521D01*
X75898235Y-43759486D01*
X75882577Y-43675213D01*
X75862202Y-43623398D01*
X75826876Y-43571433D01*
X75775322Y-43516988D01*
X75714977Y-43466807D01*
X75653279Y-43427633D01*
X75637939Y-43420085D01*
X75551996Y-43387275D01*
X75460347Y-43366095D01*
X75357227Y-43355660D01*
X75236875Y-43355088D01*
X75218250Y-43355747D01*
X75218250Y-43355747D01*
G37*
X75218250Y-43355747D02*
X75141445Y-43360365D01*
X75069041Y-43367571D01*
X75008741Y-43376479D01*
X74976950Y-43383503D01*
X74918846Y-43402436D01*
X74854502Y-43427765D01*
X74791231Y-43456172D01*
X74736342Y-43484339D01*
X74697146Y-43508947D01*
X74692452Y-43512635D01*
X74661954Y-43537828D01*
X74716643Y-43619339D01*
X74743075Y-43658611D01*
X74763617Y-43688903D01*
X74774538Y-43704718D01*
X74775255Y-43705680D01*
X74787440Y-43702382D01*
X74816749Y-43689486D01*
X74857914Y-43669385D01*
X74879643Y-43658242D01*
X74973788Y-43615066D01*
X75064512Y-43586999D01*
X75160250Y-43572240D01*
X75269434Y-43568986D01*
X75294450Y-43569582D01*
X75360525Y-43572435D01*
X75408527Y-43577038D01*
X75445778Y-43584742D01*
X75479604Y-43596898D01*
X75504100Y-43608257D01*
X75564052Y-43645995D01*
X75601489Y-43691133D01*
X75619063Y-43747611D01*
X75621231Y-43782462D01*
X75611910Y-43851473D01*
X75582532Y-43906301D01*
X75530979Y-43950632D01*
X75521018Y-43956712D01*
X75490601Y-43971207D01*
X75440676Y-43991183D01*
X75376080Y-44014875D01*
X75301649Y-44040515D01*
X75222220Y-44066336D01*
X75213114Y-44069196D01*
X75105396Y-44103654D01*
X75018636Y-44133436D01*
X74949208Y-44160259D01*
X74893489Y-44185842D01*
X74847853Y-44211903D01*
X74808676Y-44240160D01*
X74772333Y-44272331D01*
X74760878Y-44283566D01*
X74709167Y-44344451D01*
X74674495Y-44409224D01*
X74654657Y-44483954D01*
X74647449Y-44574712D01*
X74647333Y-44596200D01*
X74653703Y-44686219D01*
X74673776Y-44762043D01*
X74710406Y-44832440D01*
X74735988Y-44868563D01*
X74797965Y-44930714D01*
X74880363Y-44984026D01*
X74979440Y-45027491D01*
X75091455Y-45060100D01*
X75212666Y-45080843D01*
X75339331Y-45088711D01*
X75467708Y-45082695D01*
X75510350Y-45077413D01*
X75629266Y-45052540D01*
X75745610Y-45013829D01*
X75852289Y-44964164D01*
X75942211Y-44906431D01*
X75954243Y-44896904D01*
X75977921Y-44875876D01*
X75984034Y-44860911D01*
X75975125Y-44842557D01*
X75970628Y-44836013D01*
X75950285Y-44809380D01*
X75920803Y-44773610D01*
X75900445Y-44750007D01*
X75851369Y-44694265D01*
X75763525Y-44747246D01*
X75635489Y-44811115D01*
X75503384Y-44850275D01*
X75365055Y-44865345D01*
X75351290Y-44865548D01*
X75234264Y-44858922D01*
X75134960Y-44837755D01*
X75054324Y-44802664D01*
X74993302Y-44754268D01*
X74952839Y-44693185D01*
X74933881Y-44620033D01*
X74932500Y-44591782D01*
X74936143Y-44537483D01*
X74948581Y-44491110D01*
X74972085Y-44450996D01*
X75008923Y-44415476D01*
X75061362Y-44382884D01*
X75131672Y-44351554D01*
X75222120Y-44319820D01*
X75334977Y-44286017D01*
X75357498Y-44279681D01*
X75485982Y-44241123D01*
X75591774Y-44203056D01*
X75677511Y-44164034D01*
X75745825Y-44122605D01*
X75799352Y-44077321D01*
X75840726Y-44026732D01*
X75853071Y-44007083D01*
X75883281Y-43933868D01*
X75898402Y-43848521D01*
X75898235Y-43759486D01*
X75882577Y-43675213D01*
X75862202Y-43623398D01*
X75826876Y-43571433D01*
X75775322Y-43516988D01*
X75714977Y-43466807D01*
X75653279Y-43427633D01*
X75637939Y-43420085D01*
X75551996Y-43387275D01*
X75460347Y-43366095D01*
X75357227Y-43355660D01*
X75236875Y-43355088D01*
X75218250Y-43355747D01*
G36*
X76677028Y-40802118D02*
X76409487Y-40838326D01*
X76221550Y-40877346D01*
X75987597Y-40942335D01*
X75753707Y-41025334D01*
X75525878Y-41123746D01*
X75310109Y-41234971D01*
X75112397Y-41356411D01*
X75106077Y-41360680D01*
X74934720Y-41488066D01*
X74769849Y-41632540D01*
X74616207Y-41789273D01*
X74478540Y-41953435D01*
X74364922Y-42114940D01*
X74356784Y-42123973D01*
X74352020Y-42116915D01*
X74349713Y-42090373D01*
X74349047Y-42056278D01*
X74348300Y-41973806D01*
X73970555Y-41595903D01*
X73642212Y-41267423D01*
X72924500Y-41267423D01*
X72908859Y-41304317D01*
X72904882Y-41309074D01*
X72874000Y-41329728D01*
X72838860Y-41326277D01*
X72814426Y-41312529D01*
X72791111Y-41282837D01*
X72788693Y-41246053D01*
X72807371Y-41209814D01*
X72811600Y-41205300D01*
X72840993Y-41183719D01*
X72869509Y-41183964D01*
X72897675Y-41199670D01*
X72920567Y-41229429D01*
X72924500Y-41267423D01*
X73642212Y-41267423D01*
X73592809Y-41218000D01*
X73006178Y-41218000D01*
X72991698Y-41186220D01*
X72966138Y-41153256D01*
X72926452Y-41124272D01*
X72883574Y-41106349D01*
X72864320Y-41103747D01*
X72818085Y-41112921D01*
X72771941Y-41136522D01*
X72736591Y-41168462D01*
X72728491Y-41180981D01*
X72710650Y-41238690D01*
X72714327Y-41294239D01*
X72736473Y-41343081D01*
X72774037Y-41380665D01*
X72823970Y-41402445D01*
X72878416Y-41404586D01*
X72927717Y-41388723D01*
X72969479Y-41358806D01*
X72995161Y-41321133D01*
X72996388Y-41317591D01*
X73000373Y-41309894D01*
X73008928Y-41304094D01*
X73025268Y-41299923D01*
X73052605Y-41297117D01*
X73094156Y-41295409D01*
X73153134Y-41294533D01*
X73232754Y-41294224D01*
X73279265Y-41294200D01*
X73554718Y-41294200D01*
X74272100Y-42011914D01*
X74272100Y-42154230D01*
X74271050Y-42225165D01*
X74267253Y-42278308D01*
X74259737Y-42321207D01*
X74247533Y-42361409D01*
X74244347Y-42370048D01*
X74226113Y-42423046D01*
X74207146Y-42485486D01*
X74194482Y-42532450D01*
X74172370Y-42621350D01*
X74171435Y-42386291D01*
X74170500Y-42151233D01*
X73894170Y-41875116D01*
X73617839Y-41599000D01*
X72658777Y-41598999D01*
X71699715Y-41598999D01*
X71605802Y-41693543D01*
X71561694Y-41736784D01*
X71530882Y-41763601D01*
X71509773Y-41776542D01*
X71494778Y-41778157D01*
X71489480Y-41776093D01*
X71442683Y-41764049D01*
X71394080Y-41772623D01*
X71349070Y-41798076D01*
X71313052Y-41836669D01*
X71291425Y-41884662D01*
X71287600Y-41915915D01*
X71297766Y-41974011D01*
X71325054Y-42018596D01*
X71364655Y-42048967D01*
X71411758Y-42064421D01*
X71461551Y-42064255D01*
X71509223Y-42047766D01*
X71549965Y-42014251D01*
X71578965Y-41963007D01*
X71580442Y-41958703D01*
X71584948Y-41926518D01*
X71502629Y-41926518D01*
X71488370Y-41962231D01*
X71482482Y-41969474D01*
X71450228Y-41990203D01*
X71415253Y-41986195D01*
X71389200Y-41967300D01*
X71366893Y-41930995D01*
X71367319Y-41894486D01*
X71389243Y-41864124D01*
X71411697Y-41851689D01*
X71449288Y-41847984D01*
X71479419Y-41863291D01*
X71498422Y-41891503D01*
X71502629Y-41926518D01*
X71584948Y-41926518D01*
X71587770Y-41906365D01*
X71582036Y-41879639D01*
X71577361Y-41861535D01*
X71579589Y-41845052D01*
X71591632Y-41825342D01*
X71616400Y-41797558D01*
X71654269Y-41759368D01*
X71739088Y-41675199D01*
X73579950Y-41675931D01*
X73837125Y-41930020D01*
X74094300Y-42184108D01*
X74094300Y-42696693D01*
X73849084Y-42452646D01*
X73603867Y-42208599D01*
X72168653Y-42208599D01*
X72134216Y-42244544D01*
X72110991Y-42265723D01*
X72088095Y-42275355D01*
X72055293Y-42276509D01*
X72032828Y-42274936D01*
X71989959Y-42273362D01*
X71960832Y-42279470D01*
X71934233Y-42296195D01*
X71926037Y-42302907D01*
X71885084Y-42351157D01*
X71866406Y-42404358D01*
X71868848Y-42457647D01*
X71891257Y-42506163D01*
X71932478Y-42545045D01*
X71989169Y-42568913D01*
X72035795Y-42568520D01*
X72085300Y-42549498D01*
X72128709Y-42515681D01*
X72137349Y-42505628D01*
X72155319Y-42476284D01*
X72162310Y-42442708D01*
X72161943Y-42419042D01*
X72086446Y-42419042D01*
X72078514Y-42453846D01*
X72067743Y-42468042D01*
X72038000Y-42483784D01*
X72000818Y-42487091D01*
X71968972Y-42477386D01*
X71963241Y-42472760D01*
X71947645Y-42441672D01*
X71950127Y-42405568D01*
X71967231Y-42372823D01*
X71995501Y-42351816D01*
X72014583Y-42348300D01*
X72051114Y-42358687D01*
X72076190Y-42384795D01*
X72086446Y-42419042D01*
X72161943Y-42419042D01*
X72161707Y-42403837D01*
X72161667Y-42358179D01*
X72170015Y-42328056D01*
X72181744Y-42311547D01*
X72187451Y-42305705D01*
X72194508Y-42300782D01*
X72204988Y-42296699D01*
X72220968Y-42293379D01*
X72244520Y-42290742D01*
X72277721Y-42288709D01*
X72322645Y-42287203D01*
X72381367Y-42286144D01*
X72455961Y-42285453D01*
X72548502Y-42285051D01*
X72661066Y-42284861D01*
X72795726Y-42284803D01*
X72886730Y-42284800D01*
X73567523Y-42284799D01*
X73786462Y-42504007D01*
X74005400Y-42723214D01*
X74005400Y-43600191D01*
X73935069Y-43533683D01*
X73859280Y-43473451D01*
X73770278Y-43420911D01*
X73677811Y-43381249D01*
X73615766Y-43363825D01*
X73568229Y-43357377D01*
X73506867Y-43353715D01*
X73443161Y-43353441D01*
X73428281Y-43353970D01*
X73316311Y-43368813D01*
X73221407Y-43402464D01*
X73143595Y-43454901D01*
X73082899Y-43526101D01*
X73039345Y-43616042D01*
X73014355Y-43715826D01*
X73011947Y-43743140D01*
X73009695Y-43793052D01*
X73007649Y-43862762D01*
X73005855Y-43949468D01*
X73004363Y-44050370D01*
X73003220Y-44162665D01*
X73002475Y-44283554D01*
X73002177Y-44410234D01*
X73002174Y-44421575D01*
X73002100Y-45053400D01*
X73268800Y-45053400D01*
X73268800Y-44420705D01*
X73268915Y-44271987D01*
X73269296Y-44146510D01*
X73270004Y-44042115D01*
X73271095Y-43956643D01*
X73272629Y-43887937D01*
X73274664Y-43833836D01*
X73277257Y-43792184D01*
X73280469Y-43760821D01*
X73284356Y-43737588D01*
X73287621Y-43724634D01*
X73313469Y-43664201D01*
X73352251Y-43619884D01*
X73407714Y-43588737D01*
X73483606Y-43567818D01*
X73488409Y-43566913D01*
X73584913Y-43561797D01*
X73682369Y-43581380D01*
X73779268Y-43625079D01*
X73874101Y-43692312D01*
X73918561Y-43732887D01*
X74005400Y-43818190D01*
X74005400Y-45053400D01*
X74272100Y-45053400D01*
X74272100Y-42864958D01*
X74325658Y-42793954D01*
X74385038Y-42722663D01*
X74459500Y-42644538D01*
X74542379Y-42565869D01*
X74627010Y-42492942D01*
X74706725Y-42432046D01*
X74716568Y-42425212D01*
X74857686Y-42338477D01*
X74999498Y-42272260D01*
X75146194Y-42225429D01*
X75301965Y-42196849D01*
X75471000Y-42185388D01*
X75597686Y-42186873D01*
X75683267Y-42191748D01*
X75762090Y-42200022D01*
X75837958Y-42212832D01*
X75914676Y-42231316D01*
X75996046Y-42256613D01*
X76085874Y-42289860D01*
X76187963Y-42332195D01*
X76306116Y-42384757D01*
X76393000Y-42424790D01*
X76509612Y-42478354D01*
X76608177Y-42521926D01*
X76693176Y-42557254D01*
X76769086Y-42586085D01*
X76840385Y-42610168D01*
X76911553Y-42631251D01*
X76945450Y-42640416D01*
X77049374Y-42665690D01*
X77144596Y-42683676D01*
X77239403Y-42695373D01*
X77342082Y-42701777D01*
X77460920Y-42703886D01*
X77472769Y-42703899D01*
X77702567Y-42694099D01*
X77933081Y-42665426D01*
X78160427Y-42618976D01*
X78380722Y-42555844D01*
X78590083Y-42477123D01*
X78784625Y-42383909D01*
X78941958Y-42289779D01*
X79023831Y-42229761D01*
X79106261Y-42159488D01*
X79182954Y-42084945D01*
X79247615Y-42012119D01*
X79281050Y-41967300D01*
X79328223Y-41897450D01*
X79234473Y-41808857D01*
X77649622Y-41808857D01*
X77643950Y-41807872D01*
X77486477Y-41765514D01*
X77312332Y-41725312D01*
X77130241Y-41688971D01*
X76948930Y-41658199D01*
X76777123Y-41634702D01*
X76733422Y-41629818D01*
X76637114Y-41622023D01*
X76524629Y-41616858D01*
X76401437Y-41614246D01*
X76273007Y-41614113D01*
X76144808Y-41616383D01*
X76022311Y-41620979D01*
X75910984Y-41627828D01*
X75816296Y-41636852D01*
X75770700Y-41643126D01*
X75548018Y-41687406D01*
X75335111Y-41746935D01*
X75134828Y-41820555D01*
X74950018Y-41907106D01*
X74783531Y-42005431D01*
X74663761Y-42093155D01*
X74622801Y-42125884D01*
X74589568Y-42151551D01*
X74568717Y-42166604D01*
X74564200Y-42169074D01*
X74570069Y-42161165D01*
X74590934Y-42139525D01*
X74623229Y-42107763D01*
X74651506Y-42080701D01*
X74801099Y-41956029D01*
X74969305Y-41847006D01*
X75154502Y-41753928D01*
X75355071Y-41677089D01*
X75569390Y-41616784D01*
X75795839Y-41573307D01*
X76032797Y-41546955D01*
X76278644Y-41538020D01*
X76531757Y-41546799D01*
X76790518Y-41573585D01*
X77053305Y-41618675D01*
X77116900Y-41632276D01*
X77195390Y-41651256D01*
X77281758Y-41674722D01*
X77370227Y-41700860D01*
X77455022Y-41727854D01*
X77530367Y-41753890D01*
X77590487Y-41777153D01*
X77618550Y-41789872D01*
X77643081Y-41803123D01*
X77649622Y-41808857D01*
X79234473Y-41808857D01*
X79209987Y-41785718D01*
X79027629Y-41624450D01*
X78846028Y-41486420D01*
X78662495Y-41369701D01*
X78532950Y-41300398D01*
X78438105Y-41255671D01*
X78348337Y-41218752D01*
X78257935Y-41187962D01*
X78161187Y-41161620D01*
X78052383Y-41138048D01*
X77925812Y-41115566D01*
X77878900Y-41108058D01*
X77834450Y-41101095D01*
X77903901Y-41039638D01*
X77973352Y-40978182D01*
X77935651Y-40963584D01*
X77700381Y-40885921D01*
X77455111Y-40830854D01*
X77201613Y-40798471D01*
X76941661Y-40788863D01*
X76677028Y-40802118D01*
X76677028Y-40802118D01*
G37*
X76677028Y-40802118D02*
X76409487Y-40838326D01*
X76221550Y-40877346D01*
X75987597Y-40942335D01*
X75753707Y-41025334D01*
X75525878Y-41123746D01*
X75310109Y-41234971D01*
X75112397Y-41356411D01*
X75106077Y-41360680D01*
X74934720Y-41488066D01*
X74769849Y-41632540D01*
X74616207Y-41789273D01*
X74478540Y-41953435D01*
X74364922Y-42114940D01*
X74356784Y-42123973D01*
X74352020Y-42116915D01*
X74349713Y-42090373D01*
X74349047Y-42056278D01*
X74348300Y-41973806D01*
X73970555Y-41595903D01*
X73642212Y-41267423D01*
X72924500Y-41267423D01*
X72908859Y-41304317D01*
X72904882Y-41309074D01*
X72874000Y-41329728D01*
X72838860Y-41326277D01*
X72814426Y-41312529D01*
X72791111Y-41282837D01*
X72788693Y-41246053D01*
X72807371Y-41209814D01*
X72811600Y-41205300D01*
X72840993Y-41183719D01*
X72869509Y-41183964D01*
X72897675Y-41199670D01*
X72920567Y-41229429D01*
X72924500Y-41267423D01*
X73642212Y-41267423D01*
X73592809Y-41218000D01*
X73006178Y-41218000D01*
X72991698Y-41186220D01*
X72966138Y-41153256D01*
X72926452Y-41124272D01*
X72883574Y-41106349D01*
X72864320Y-41103747D01*
X72818085Y-41112921D01*
X72771941Y-41136522D01*
X72736591Y-41168462D01*
X72728491Y-41180981D01*
X72710650Y-41238690D01*
X72714327Y-41294239D01*
X72736473Y-41343081D01*
X72774037Y-41380665D01*
X72823970Y-41402445D01*
X72878416Y-41404586D01*
X72927717Y-41388723D01*
X72969479Y-41358806D01*
X72995161Y-41321133D01*
X72996388Y-41317591D01*
X73000373Y-41309894D01*
X73008928Y-41304094D01*
X73025268Y-41299923D01*
X73052605Y-41297117D01*
X73094156Y-41295409D01*
X73153134Y-41294533D01*
X73232754Y-41294224D01*
X73279265Y-41294200D01*
X73554718Y-41294200D01*
X74272100Y-42011914D01*
X74272100Y-42154230D01*
X74271050Y-42225165D01*
X74267253Y-42278308D01*
X74259737Y-42321207D01*
X74247533Y-42361409D01*
X74244347Y-42370048D01*
X74226113Y-42423046D01*
X74207146Y-42485486D01*
X74194482Y-42532450D01*
X74172370Y-42621350D01*
X74171435Y-42386291D01*
X74170500Y-42151233D01*
X73894170Y-41875116D01*
X73617839Y-41599000D01*
X72658777Y-41598999D01*
X71699715Y-41598999D01*
X71605802Y-41693543D01*
X71561694Y-41736784D01*
X71530882Y-41763601D01*
X71509773Y-41776542D01*
X71494778Y-41778157D01*
X71489480Y-41776093D01*
X71442683Y-41764049D01*
X71394080Y-41772623D01*
X71349070Y-41798076D01*
X71313052Y-41836669D01*
X71291425Y-41884662D01*
X71287600Y-41915915D01*
X71297766Y-41974011D01*
X71325054Y-42018596D01*
X71364655Y-42048967D01*
X71411758Y-42064421D01*
X71461551Y-42064255D01*
X71509223Y-42047766D01*
X71549965Y-42014251D01*
X71578965Y-41963007D01*
X71580442Y-41958703D01*
X71584948Y-41926518D01*
X71502629Y-41926518D01*
X71488370Y-41962231D01*
X71482482Y-41969474D01*
X71450228Y-41990203D01*
X71415253Y-41986195D01*
X71389200Y-41967300D01*
X71366893Y-41930995D01*
X71367319Y-41894486D01*
X71389243Y-41864124D01*
X71411697Y-41851689D01*
X71449288Y-41847984D01*
X71479419Y-41863291D01*
X71498422Y-41891503D01*
X71502629Y-41926518D01*
X71584948Y-41926518D01*
X71587770Y-41906365D01*
X71582036Y-41879639D01*
X71577361Y-41861535D01*
X71579589Y-41845052D01*
X71591632Y-41825342D01*
X71616400Y-41797558D01*
X71654269Y-41759368D01*
X71739088Y-41675199D01*
X73579950Y-41675931D01*
X73837125Y-41930020D01*
X74094300Y-42184108D01*
X74094300Y-42696693D01*
X73849084Y-42452646D01*
X73603867Y-42208599D01*
X72168653Y-42208599D01*
X72134216Y-42244544D01*
X72110991Y-42265723D01*
X72088095Y-42275355D01*
X72055293Y-42276509D01*
X72032828Y-42274936D01*
X71989959Y-42273362D01*
X71960832Y-42279470D01*
X71934233Y-42296195D01*
X71926037Y-42302907D01*
X71885084Y-42351157D01*
X71866406Y-42404358D01*
X71868848Y-42457647D01*
X71891257Y-42506163D01*
X71932478Y-42545045D01*
X71989169Y-42568913D01*
X72035795Y-42568520D01*
X72085300Y-42549498D01*
X72128709Y-42515681D01*
X72137349Y-42505628D01*
X72155319Y-42476284D01*
X72162310Y-42442708D01*
X72161943Y-42419042D01*
X72086446Y-42419042D01*
X72078514Y-42453846D01*
X72067743Y-42468042D01*
X72038000Y-42483784D01*
X72000818Y-42487091D01*
X71968972Y-42477386D01*
X71963241Y-42472760D01*
X71947645Y-42441672D01*
X71950127Y-42405568D01*
X71967231Y-42372823D01*
X71995501Y-42351816D01*
X72014583Y-42348300D01*
X72051114Y-42358687D01*
X72076190Y-42384795D01*
X72086446Y-42419042D01*
X72161943Y-42419042D01*
X72161707Y-42403837D01*
X72161667Y-42358179D01*
X72170015Y-42328056D01*
X72181744Y-42311547D01*
X72187451Y-42305705D01*
X72194508Y-42300782D01*
X72204988Y-42296699D01*
X72220968Y-42293379D01*
X72244520Y-42290742D01*
X72277721Y-42288709D01*
X72322645Y-42287203D01*
X72381367Y-42286144D01*
X72455961Y-42285453D01*
X72548502Y-42285051D01*
X72661066Y-42284861D01*
X72795726Y-42284803D01*
X72886730Y-42284800D01*
X73567523Y-42284799D01*
X73786462Y-42504007D01*
X74005400Y-42723214D01*
X74005400Y-43600191D01*
X73935069Y-43533683D01*
X73859280Y-43473451D01*
X73770278Y-43420911D01*
X73677811Y-43381249D01*
X73615766Y-43363825D01*
X73568229Y-43357377D01*
X73506867Y-43353715D01*
X73443161Y-43353441D01*
X73428281Y-43353970D01*
X73316311Y-43368813D01*
X73221407Y-43402464D01*
X73143595Y-43454901D01*
X73082899Y-43526101D01*
X73039345Y-43616042D01*
X73014355Y-43715826D01*
X73011947Y-43743140D01*
X73009695Y-43793052D01*
X73007649Y-43862762D01*
X73005855Y-43949468D01*
X73004363Y-44050370D01*
X73003220Y-44162665D01*
X73002475Y-44283554D01*
X73002177Y-44410234D01*
X73002174Y-44421575D01*
X73002100Y-45053400D01*
X73268800Y-45053400D01*
X73268800Y-44420705D01*
X73268915Y-44271987D01*
X73269296Y-44146510D01*
X73270004Y-44042115D01*
X73271095Y-43956643D01*
X73272629Y-43887937D01*
X73274664Y-43833836D01*
X73277257Y-43792184D01*
X73280469Y-43760821D01*
X73284356Y-43737588D01*
X73287621Y-43724634D01*
X73313469Y-43664201D01*
X73352251Y-43619884D01*
X73407714Y-43588737D01*
X73483606Y-43567818D01*
X73488409Y-43566913D01*
X73584913Y-43561797D01*
X73682369Y-43581380D01*
X73779268Y-43625079D01*
X73874101Y-43692312D01*
X73918561Y-43732887D01*
X74005400Y-43818190D01*
X74005400Y-45053400D01*
X74272100Y-45053400D01*
X74272100Y-42864958D01*
X74325658Y-42793954D01*
X74385038Y-42722663D01*
X74459500Y-42644538D01*
X74542379Y-42565869D01*
X74627010Y-42492942D01*
X74706725Y-42432046D01*
X74716568Y-42425212D01*
X74857686Y-42338477D01*
X74999498Y-42272260D01*
X75146194Y-42225429D01*
X75301965Y-42196849D01*
X75471000Y-42185388D01*
X75597686Y-42186873D01*
X75683267Y-42191748D01*
X75762090Y-42200022D01*
X75837958Y-42212832D01*
X75914676Y-42231316D01*
X75996046Y-42256613D01*
X76085874Y-42289860D01*
X76187963Y-42332195D01*
X76306116Y-42384757D01*
X76393000Y-42424790D01*
X76509612Y-42478354D01*
X76608177Y-42521926D01*
X76693176Y-42557254D01*
X76769086Y-42586085D01*
X76840385Y-42610168D01*
X76911553Y-42631251D01*
X76945450Y-42640416D01*
X77049374Y-42665690D01*
X77144596Y-42683676D01*
X77239403Y-42695373D01*
X77342082Y-42701777D01*
X77460920Y-42703886D01*
X77472769Y-42703899D01*
X77702567Y-42694099D01*
X77933081Y-42665426D01*
X78160427Y-42618976D01*
X78380722Y-42555844D01*
X78590083Y-42477123D01*
X78784625Y-42383909D01*
X78941958Y-42289779D01*
X79023831Y-42229761D01*
X79106261Y-42159488D01*
X79182954Y-42084945D01*
X79247615Y-42012119D01*
X79281050Y-41967300D01*
X79328223Y-41897450D01*
X79234473Y-41808857D01*
X77649622Y-41808857D01*
X77643950Y-41807872D01*
X77486477Y-41765514D01*
X77312332Y-41725312D01*
X77130241Y-41688971D01*
X76948930Y-41658199D01*
X76777123Y-41634702D01*
X76733422Y-41629818D01*
X76637114Y-41622023D01*
X76524629Y-41616858D01*
X76401437Y-41614246D01*
X76273007Y-41614113D01*
X76144808Y-41616383D01*
X76022311Y-41620979D01*
X75910984Y-41627828D01*
X75816296Y-41636852D01*
X75770700Y-41643126D01*
X75548018Y-41687406D01*
X75335111Y-41746935D01*
X75134828Y-41820555D01*
X74950018Y-41907106D01*
X74783531Y-42005431D01*
X74663761Y-42093155D01*
X74622801Y-42125884D01*
X74589568Y-42151551D01*
X74568717Y-42166604D01*
X74564200Y-42169074D01*
X74570069Y-42161165D01*
X74590934Y-42139525D01*
X74623229Y-42107763D01*
X74651506Y-42080701D01*
X74801099Y-41956029D01*
X74969305Y-41847006D01*
X75154502Y-41753928D01*
X75355071Y-41677089D01*
X75569390Y-41616784D01*
X75795839Y-41573307D01*
X76032797Y-41546955D01*
X76278644Y-41538020D01*
X76531757Y-41546799D01*
X76790518Y-41573585D01*
X77053305Y-41618675D01*
X77116900Y-41632276D01*
X77195390Y-41651256D01*
X77281758Y-41674722D01*
X77370227Y-41700860D01*
X77455022Y-41727854D01*
X77530367Y-41753890D01*
X77590487Y-41777153D01*
X77618550Y-41789872D01*
X77643081Y-41803123D01*
X77649622Y-41808857D01*
X79234473Y-41808857D01*
X79209987Y-41785718D01*
X79027629Y-41624450D01*
X78846028Y-41486420D01*
X78662495Y-41369701D01*
X78532950Y-41300398D01*
X78438105Y-41255671D01*
X78348337Y-41218752D01*
X78257935Y-41187962D01*
X78161187Y-41161620D01*
X78052383Y-41138048D01*
X77925812Y-41115566D01*
X77878900Y-41108058D01*
X77834450Y-41101095D01*
X77903901Y-41039638D01*
X77973352Y-40978182D01*
X77935651Y-40963584D01*
X77700381Y-40885921D01*
X77455111Y-40830854D01*
X77201613Y-40798471D01*
X76941661Y-40788863D01*
X76677028Y-40802118D01*
G36*
X72996729Y-41794469D02*
X72965419Y-41808256D01*
X72931927Y-41831479D01*
X72903826Y-41857784D01*
X72888686Y-41880817D01*
X72887800Y-41885878D01*
X72884530Y-41890560D01*
X72873235Y-41894374D01*
X72851694Y-41897406D01*
X72817683Y-41899737D01*
X72768979Y-41901450D01*
X72703360Y-41902630D01*
X72618602Y-41903359D01*
X72512483Y-41903720D01*
X72408489Y-41903800D01*
X71929177Y-41903800D01*
X71671761Y-42160975D01*
X71414344Y-42418150D01*
X71338529Y-42418150D01*
X71293460Y-42419669D01*
X71263901Y-42426441D01*
X71240037Y-42441783D01*
X71223972Y-42456879D01*
X71190337Y-42504729D01*
X71177827Y-42555429D01*
X71183530Y-42605162D01*
X71204536Y-42650111D01*
X71237936Y-42686459D01*
X71280818Y-42710389D01*
X71330272Y-42718083D01*
X71383388Y-42705725D01*
X71405004Y-42694314D01*
X71445897Y-42654902D01*
X71469731Y-42601478D01*
X71471687Y-42569972D01*
X71401900Y-42569972D01*
X71391412Y-42597055D01*
X71366369Y-42622984D01*
X71336406Y-42638857D01*
X71325700Y-42640400D01*
X71298053Y-42631780D01*
X71274900Y-42615000D01*
X71255900Y-42587722D01*
X71249500Y-42565121D01*
X71259113Y-42542080D01*
X71281915Y-42515667D01*
X71308855Y-42494775D01*
X71327990Y-42488000D01*
X71347092Y-42497468D01*
X71371092Y-42519966D01*
X71392001Y-42546636D01*
X71401832Y-42568619D01*
X71401900Y-42569972D01*
X71471687Y-42569972D01*
X71473475Y-42541202D01*
X71472564Y-42534673D01*
X71464298Y-42482985D01*
X71715555Y-42231492D01*
X71966812Y-41980000D01*
X72873664Y-41980000D01*
X72895154Y-42016378D01*
X72934280Y-42061263D01*
X72983335Y-42086753D01*
X73036674Y-42093036D01*
X73088654Y-42080301D01*
X73133630Y-42048737D01*
X73162035Y-42007459D01*
X73175598Y-41953478D01*
X73174822Y-41947672D01*
X73103700Y-41947672D01*
X73093212Y-41974755D01*
X73068169Y-42000684D01*
X73038206Y-42016557D01*
X73027500Y-42018100D01*
X72999853Y-42009480D01*
X72976700Y-41992700D01*
X72957845Y-41967333D01*
X72951300Y-41947672D01*
X72960144Y-41925617D01*
X72981189Y-41898706D01*
X73006214Y-41875788D01*
X73026991Y-41865711D01*
X73027500Y-41865700D01*
X73048003Y-41875212D01*
X73073018Y-41897853D01*
X73094322Y-41924773D01*
X73103690Y-41947124D01*
X73103700Y-41947672D01*
X73174822Y-41947672D01*
X73168510Y-41900482D01*
X73144420Y-41853171D01*
X73106979Y-41816248D01*
X73059836Y-41794416D01*
X73006640Y-41792377D01*
X72996729Y-41794469D01*
X72996729Y-41794469D01*
G37*
X72996729Y-41794469D02*
X72965419Y-41808256D01*
X72931927Y-41831479D01*
X72903826Y-41857784D01*
X72888686Y-41880817D01*
X72887800Y-41885878D01*
X72884530Y-41890560D01*
X72873235Y-41894374D01*
X72851694Y-41897406D01*
X72817683Y-41899737D01*
X72768979Y-41901450D01*
X72703360Y-41902630D01*
X72618602Y-41903359D01*
X72512483Y-41903720D01*
X72408489Y-41903800D01*
X71929177Y-41903800D01*
X71671761Y-42160975D01*
X71414344Y-42418150D01*
X71338529Y-42418150D01*
X71293460Y-42419669D01*
X71263901Y-42426441D01*
X71240037Y-42441783D01*
X71223972Y-42456879D01*
X71190337Y-42504729D01*
X71177827Y-42555429D01*
X71183530Y-42605162D01*
X71204536Y-42650111D01*
X71237936Y-42686459D01*
X71280818Y-42710389D01*
X71330272Y-42718083D01*
X71383388Y-42705725D01*
X71405004Y-42694314D01*
X71445897Y-42654902D01*
X71469731Y-42601478D01*
X71471687Y-42569972D01*
X71401900Y-42569972D01*
X71391412Y-42597055D01*
X71366369Y-42622984D01*
X71336406Y-42638857D01*
X71325700Y-42640400D01*
X71298053Y-42631780D01*
X71274900Y-42615000D01*
X71255900Y-42587722D01*
X71249500Y-42565121D01*
X71259113Y-42542080D01*
X71281915Y-42515667D01*
X71308855Y-42494775D01*
X71327990Y-42488000D01*
X71347092Y-42497468D01*
X71371092Y-42519966D01*
X71392001Y-42546636D01*
X71401832Y-42568619D01*
X71401900Y-42569972D01*
X71471687Y-42569972D01*
X71473475Y-42541202D01*
X71472564Y-42534673D01*
X71464298Y-42482985D01*
X71715555Y-42231492D01*
X71966812Y-41980000D01*
X72873664Y-41980000D01*
X72895154Y-42016378D01*
X72934280Y-42061263D01*
X72983335Y-42086753D01*
X73036674Y-42093036D01*
X73088654Y-42080301D01*
X73133630Y-42048737D01*
X73162035Y-42007459D01*
X73175598Y-41953478D01*
X73174822Y-41947672D01*
X73103700Y-41947672D01*
X73093212Y-41974755D01*
X73068169Y-42000684D01*
X73038206Y-42016557D01*
X73027500Y-42018100D01*
X72999853Y-42009480D01*
X72976700Y-41992700D01*
X72957845Y-41967333D01*
X72951300Y-41947672D01*
X72960144Y-41925617D01*
X72981189Y-41898706D01*
X73006214Y-41875788D01*
X73026991Y-41865711D01*
X73027500Y-41865700D01*
X73048003Y-41875212D01*
X73073018Y-41897853D01*
X73094322Y-41924773D01*
X73103690Y-41947124D01*
X73103700Y-41947672D01*
X73174822Y-41947672D01*
X73168510Y-41900482D01*
X73144420Y-41853171D01*
X73106979Y-41816248D01*
X73059836Y-41794416D01*
X73006640Y-41792377D01*
X72996729Y-41794469D01*
D14*
X50166666Y-40357143D02*
X50214285Y-40404762D01*
X50357142Y-40452381D01*
X50452380Y-40452381D01*
X50595238Y-40404762D01*
X50690476Y-40309524D01*
X50738095Y-40214286D01*
X50785714Y-40023810D01*
X50785714Y-39880952D01*
X50738095Y-39690476D01*
X50690476Y-39595238D01*
X50595238Y-39500000D01*
X50452380Y-39452381D01*
X50357142Y-39452381D01*
X50214285Y-39500000D01*
X50166666Y-39547619D01*
X49261904Y-39452381D02*
X49738095Y-39452381D01*
X49785714Y-39928571D01*
X49738095Y-39880952D01*
X49642857Y-39833333D01*
X49404761Y-39833333D01*
X49309523Y-39880952D01*
X49261904Y-39928571D01*
X49214285Y-40023810D01*
X49214285Y-40261905D01*
X49261904Y-40357143D01*
X49309523Y-40404762D01*
X49404761Y-40452381D01*
X49642857Y-40452381D01*
X49738095Y-40404762D01*
X49785714Y-40357143D01*
X50166666Y-43452381D02*
X50500000Y-42976190D01*
X50738095Y-43452381D02*
X50738095Y-42452381D01*
X50357142Y-42452381D01*
X50261904Y-42500000D01*
X50214285Y-42547619D01*
X50166666Y-42642857D01*
X50166666Y-42785714D01*
X50214285Y-42880952D01*
X50261904Y-42928571D01*
X50357142Y-42976190D01*
X50738095Y-42976190D01*
X49785714Y-42547619D02*
X49738095Y-42500000D01*
X49642857Y-42452381D01*
X49404761Y-42452381D01*
X49309523Y-42500000D01*
X49261904Y-42547619D01*
X49214285Y-42642857D01*
X49214285Y-42738095D01*
X49261904Y-42880952D01*
X49833333Y-43452381D01*
X49214285Y-43452381D01*
X50166666Y-41952381D02*
X50500000Y-41476190D01*
X50738095Y-41952381D02*
X50738095Y-40952381D01*
X50357142Y-40952381D01*
X50261904Y-41000000D01*
X50214285Y-41047619D01*
X50166666Y-41142857D01*
X50166666Y-41285714D01*
X50214285Y-41380952D01*
X50261904Y-41428571D01*
X50357142Y-41476190D01*
X50738095Y-41476190D01*
X49833333Y-40952381D02*
X49214285Y-40952381D01*
X49547619Y-41333333D01*
X49404761Y-41333333D01*
X49309523Y-41380952D01*
X49261904Y-41428571D01*
X49214285Y-41523810D01*
X49214285Y-41761905D01*
X49261904Y-41857143D01*
X49309523Y-41904762D01*
X49404761Y-41952381D01*
X49690476Y-41952381D01*
X49785714Y-41904762D01*
X49833333Y-41857143D01*
X50166666Y-38952381D02*
X50500000Y-38476190D01*
X50738095Y-38952381D02*
X50738095Y-37952381D01*
X50357142Y-37952381D01*
X50261904Y-38000000D01*
X50214285Y-38047619D01*
X50166666Y-38142857D01*
X50166666Y-38285714D01*
X50214285Y-38380952D01*
X50261904Y-38428571D01*
X50357142Y-38476190D01*
X50738095Y-38476190D01*
X49309523Y-38285714D02*
X49309523Y-38952381D01*
X49547619Y-37904762D02*
X49785714Y-38619048D01*
X49166666Y-38619048D01*
X50166666Y-37452381D02*
X50500000Y-36976190D01*
X50738095Y-37452381D02*
X50738095Y-36452381D01*
X50357142Y-36452381D01*
X50261904Y-36500000D01*
X50214285Y-36547619D01*
X50166666Y-36642857D01*
X50166666Y-36785714D01*
X50214285Y-36880952D01*
X50261904Y-36928571D01*
X50357142Y-36976190D01*
X50738095Y-36976190D01*
X49261904Y-36452381D02*
X49738095Y-36452381D01*
X49785714Y-36928571D01*
X49738095Y-36880952D01*
X49642857Y-36833333D01*
X49404761Y-36833333D01*
X49309523Y-36880952D01*
X49261904Y-36928571D01*
X49214285Y-37023810D01*
X49214285Y-37261905D01*
X49261904Y-37357143D01*
X49309523Y-37404762D01*
X49404761Y-37452381D01*
X49642857Y-37452381D01*
X49738095Y-37404762D01*
X49785714Y-37357143D01*
X67488095Y-45952381D02*
X67488095Y-44952381D01*
X66916666Y-45952381D02*
X67345238Y-45380952D01*
X66916666Y-44952381D02*
X67488095Y-45523810D01*
X66535714Y-45047619D02*
X66488095Y-45000000D01*
X66392857Y-44952381D01*
X66154761Y-44952381D01*
X66059523Y-45000000D01*
X66011904Y-45047619D01*
X65964285Y-45142857D01*
X65964285Y-45238095D01*
X66011904Y-45380952D01*
X66583333Y-45952381D01*
X65964285Y-45952381D01*
X48595238Y-45547619D02*
X48690476Y-45500000D01*
X48785714Y-45404762D01*
X48928571Y-45261905D01*
X49023810Y-45214286D01*
X49119048Y-45214286D01*
X49071429Y-45452381D02*
X49166667Y-45404762D01*
X49261905Y-45309524D01*
X49309524Y-45119048D01*
X49309524Y-44785714D01*
X49261905Y-44595238D01*
X49166667Y-44500000D01*
X49071429Y-44452381D01*
X48880952Y-44452381D01*
X48785714Y-44500000D01*
X48690476Y-44595238D01*
X48642857Y-44785714D01*
X48642857Y-45119048D01*
X48690476Y-45309524D01*
X48785714Y-45404762D01*
X48880952Y-45452381D01*
X49071429Y-45452381D01*
X47690476Y-45452381D02*
X48261905Y-45452381D01*
X47976191Y-45452381D02*
X47976191Y-44452381D01*
X48071429Y-44595238D01*
X48166667Y-44690476D01*
X48261905Y-44738095D01*
X51333333Y-45952381D02*
X51333333Y-46666667D01*
X51380953Y-46809524D01*
X51476191Y-46904762D01*
X51619048Y-46952381D01*
X51714286Y-46952381D01*
X50904762Y-46047619D02*
X50857143Y-46000000D01*
X50761905Y-45952381D01*
X50523809Y-45952381D01*
X50428571Y-46000000D01*
X50380952Y-46047619D01*
X50333333Y-46142857D01*
X50333333Y-46238095D01*
X50380952Y-46380952D01*
X50952381Y-46952381D01*
X50333333Y-46952381D01*
X48333333Y-45952381D02*
X48333333Y-46666667D01*
X48380953Y-46809524D01*
X48476191Y-46904762D01*
X48619048Y-46952381D01*
X48714286Y-46952381D01*
X47428571Y-45952381D02*
X47619048Y-45952381D01*
X47714286Y-46000000D01*
X47761905Y-46047619D01*
X47857143Y-46190476D01*
X47904762Y-46380952D01*
X47904762Y-46761905D01*
X47857143Y-46857143D01*
X47809524Y-46904762D01*
X47714286Y-46952381D01*
X47523809Y-46952381D01*
X47428571Y-46904762D01*
X47380952Y-46857143D01*
X47333333Y-46761905D01*
X47333333Y-46523810D01*
X47380952Y-46428571D01*
X47428571Y-46380952D01*
X47523809Y-46333333D01*
X47714286Y-46333333D01*
X47809524Y-46380952D01*
X47857143Y-46428571D01*
X47904762Y-46523810D01*
X46333333Y-39452381D02*
X46333333Y-40166667D01*
X46380953Y-40309524D01*
X46476191Y-40404762D01*
X46619048Y-40452381D01*
X46714286Y-40452381D01*
X45380952Y-39452381D02*
X45857143Y-39452381D01*
X45904762Y-39928571D01*
X45857143Y-39880952D01*
X45761905Y-39833333D01*
X45523809Y-39833333D01*
X45428571Y-39880952D01*
X45380952Y-39928571D01*
X45333333Y-40023810D01*
X45333333Y-40261905D01*
X45380952Y-40357143D01*
X45428571Y-40404762D01*
X45523809Y-40452381D01*
X45761905Y-40452381D01*
X45857143Y-40404762D01*
X45904762Y-40357143D01*
D10*
G36*
X79200000Y-39950000D02*
X75550000Y-39950000D01*
X75550000Y-35300000D01*
X79200000Y-35300000D01*
X79200000Y-39950000D01*
X79200000Y-39950000D01*
G37*
X79200000Y-39950000D02*
X75550000Y-39950000D01*
X75550000Y-35300000D01*
X79200000Y-35300000D01*
X79200000Y-39950000D01*
%LPC*%
D15*
X42300000Y-44920000D03*
X39760000Y-44920000D03*
D16*
X51190000Y-77940000D03*
X48650000Y-77940000D03*
X49920000Y-77940000D03*
X49920000Y-79210000D03*
X51190000Y-79210000D03*
X48650000Y-79210000D03*
X43570000Y-77940000D03*
X47380000Y-77940000D03*
X46110000Y-79210000D03*
X46110000Y-77940000D03*
X44840000Y-77940000D03*
X47380000Y-79210000D03*
X43570000Y-79210000D03*
X44840000Y-79210000D03*
X58810000Y-79210000D03*
X60080000Y-77940000D03*
X57540000Y-77940000D03*
X60080000Y-79210000D03*
X57540000Y-79210000D03*
X58810000Y-77940000D03*
X56270000Y-77940000D03*
X55000000Y-77940000D03*
X53730000Y-77940000D03*
X52460000Y-77940000D03*
X53730000Y-79210000D03*
X55000000Y-79210000D03*
X56270000Y-79210000D03*
X52460000Y-79210000D03*
X71510000Y-77940000D03*
X72780000Y-79210000D03*
X71510000Y-79210000D03*
X72780000Y-77940000D03*
X74050000Y-77940000D03*
X74050000Y-79210000D03*
X62620000Y-79210000D03*
X61350000Y-77940000D03*
X61350000Y-79210000D03*
X62620000Y-77940000D03*
X63890000Y-79210000D03*
X65160000Y-79210000D03*
X63890000Y-77940000D03*
X66430000Y-79210000D03*
X67700000Y-77940000D03*
X67700000Y-79210000D03*
X66430000Y-77940000D03*
X65160000Y-77940000D03*
X68970000Y-79210000D03*
X70240000Y-77940000D03*
X70240000Y-79210000D03*
X68970000Y-77940000D03*
X37220000Y-77940000D03*
X37220000Y-79210000D03*
X35950000Y-79210000D03*
X41030000Y-79210000D03*
X41030000Y-77940000D03*
X39760000Y-79210000D03*
X38490000Y-79210000D03*
X38490000Y-77940000D03*
X39760000Y-77940000D03*
X42300000Y-77940000D03*
X42300000Y-79210000D03*
X35950000Y-77940000D03*
X53730000Y-71590000D03*
X55000000Y-70320000D03*
X53730000Y-72860000D03*
X53730000Y-70320000D03*
X56270000Y-74130000D03*
X51190000Y-74130000D03*
X49920000Y-72860000D03*
X52460000Y-72860000D03*
X52460000Y-74130000D03*
X49920000Y-74130000D03*
X51190000Y-72860000D03*
X53730000Y-69050000D03*
X52460000Y-69050000D03*
X51190000Y-69050000D03*
X49920000Y-69050000D03*
X51190000Y-71590000D03*
X49920000Y-70320000D03*
X52460000Y-70320000D03*
X52460000Y-71590000D03*
X49920000Y-71590000D03*
X51190000Y-70320000D03*
X55000000Y-69050000D03*
X56270000Y-69050000D03*
X57540000Y-76670000D03*
X55000000Y-76670000D03*
X56270000Y-76670000D03*
X56270000Y-75400000D03*
X56270000Y-71590000D03*
X56270000Y-72860000D03*
X55000000Y-71590000D03*
X56270000Y-70320000D03*
X55000000Y-72860000D03*
X51190000Y-75400000D03*
X49920000Y-75400000D03*
X52460000Y-75400000D03*
X52460000Y-76670000D03*
X49920000Y-76670000D03*
X51190000Y-76670000D03*
X53730000Y-76670000D03*
X53730000Y-74130000D03*
X55000000Y-74130000D03*
X55000000Y-75400000D03*
X53730000Y-75400000D03*
X34680000Y-69050000D03*
X37220000Y-71590000D03*
X37220000Y-70320000D03*
X38490000Y-71590000D03*
X38490000Y-70320000D03*
X39760000Y-71590000D03*
X34680000Y-71590000D03*
X34680000Y-70320000D03*
X35950000Y-70320000D03*
X35950000Y-71590000D03*
X35950000Y-69050000D03*
X37220000Y-69050000D03*
X39760000Y-69050000D03*
X38490000Y-69050000D03*
X39760000Y-70320000D03*
X41030000Y-71590000D03*
X42300000Y-70320000D03*
X41030000Y-70320000D03*
X41030000Y-69050000D03*
X42300000Y-69050000D03*
X44840000Y-69050000D03*
X47380000Y-69050000D03*
X47380000Y-70320000D03*
X48650000Y-69050000D03*
X48650000Y-70320000D03*
X42300000Y-71590000D03*
X43570000Y-70320000D03*
X43570000Y-69050000D03*
X43570000Y-71590000D03*
X44840000Y-70320000D03*
X44840000Y-71590000D03*
X47380000Y-71590000D03*
X46110000Y-69050000D03*
X48650000Y-71590000D03*
X46110000Y-70320000D03*
X46110000Y-71590000D03*
X33410000Y-71590000D03*
X30870000Y-70320000D03*
X32140000Y-71590000D03*
X32140000Y-70320000D03*
X33410000Y-70320000D03*
X30870000Y-71590000D03*
X33410000Y-69050000D03*
X30870000Y-69050000D03*
X32140000Y-69050000D03*
X37220000Y-76670000D03*
X35950000Y-76670000D03*
X35950000Y-75400000D03*
X37220000Y-75400000D03*
X39760000Y-76670000D03*
X38490000Y-76670000D03*
X38490000Y-75400000D03*
X37220000Y-74130000D03*
X35950000Y-74130000D03*
X35950000Y-72860000D03*
X38490000Y-72860000D03*
X37220000Y-72860000D03*
X30870000Y-74130000D03*
X30870000Y-72860000D03*
X34680000Y-74130000D03*
X34680000Y-72860000D03*
X32140000Y-74130000D03*
X32140000Y-72860000D03*
X33410000Y-72860000D03*
X33410000Y-74130000D03*
X38490000Y-74130000D03*
X39760000Y-75400000D03*
X39760000Y-72860000D03*
X39760000Y-74130000D03*
X47380000Y-74130000D03*
X48650000Y-72860000D03*
X46110000Y-74130000D03*
X47380000Y-72860000D03*
X48650000Y-74130000D03*
X41030000Y-74130000D03*
X43570000Y-74130000D03*
X42300000Y-74130000D03*
X42300000Y-72860000D03*
X43570000Y-72860000D03*
X41030000Y-72860000D03*
X47380000Y-76670000D03*
X47380000Y-75400000D03*
X48650000Y-76670000D03*
X48650000Y-75400000D03*
X46110000Y-76670000D03*
X41030000Y-76670000D03*
X41030000Y-75400000D03*
X42300000Y-75400000D03*
X42300000Y-76670000D03*
X43570000Y-76670000D03*
X43570000Y-75400000D03*
X44840000Y-74130000D03*
X46110000Y-72860000D03*
X44840000Y-72860000D03*
X44840000Y-76670000D03*
X46110000Y-75400000D03*
X44840000Y-75400000D03*
X62620000Y-76670000D03*
X62620000Y-75400000D03*
X61350000Y-76670000D03*
X61350000Y-75400000D03*
X60080000Y-75400000D03*
X60080000Y-74130000D03*
X60080000Y-76670000D03*
X58810000Y-69050000D03*
X58810000Y-70320000D03*
X61350000Y-70320000D03*
X60080000Y-70320000D03*
X60080000Y-69050000D03*
X61350000Y-74130000D03*
X61350000Y-72860000D03*
X60080000Y-72860000D03*
X61350000Y-71590000D03*
X60080000Y-71590000D03*
X57540000Y-72860000D03*
X58810000Y-71590000D03*
X58810000Y-72860000D03*
X57540000Y-71590000D03*
X57540000Y-69050000D03*
X57540000Y-70320000D03*
X58810000Y-76670000D03*
X57540000Y-75400000D03*
X58810000Y-74130000D03*
X58810000Y-75400000D03*
X57540000Y-74130000D03*
X70240000Y-72860000D03*
X70240000Y-74130000D03*
X70240000Y-71590000D03*
X71510000Y-71590000D03*
X75320000Y-74130000D03*
X74050000Y-76670000D03*
X74050000Y-75400000D03*
X74050000Y-74130000D03*
X75320000Y-71590000D03*
X75320000Y-72860000D03*
X77860000Y-74130000D03*
X77860000Y-71590000D03*
X76590000Y-74130000D03*
X76590000Y-71590000D03*
X76590000Y-72860000D03*
X79130000Y-71590000D03*
X79130000Y-72860000D03*
X77860000Y-72860000D03*
X79130000Y-74130000D03*
X70240000Y-75400000D03*
X71510000Y-75400000D03*
X72780000Y-76670000D03*
X71510000Y-76670000D03*
X72780000Y-75400000D03*
X70240000Y-76670000D03*
X74050000Y-71590000D03*
X74050000Y-72860000D03*
X71510000Y-72860000D03*
X71510000Y-74130000D03*
X72780000Y-74130000D03*
X72780000Y-71590000D03*
X72780000Y-72860000D03*
X71510000Y-69050000D03*
X72780000Y-69050000D03*
X79130000Y-70320000D03*
X79130000Y-69050000D03*
X77860000Y-70320000D03*
X75320000Y-70320000D03*
X74050000Y-69050000D03*
X74050000Y-70320000D03*
X75320000Y-69050000D03*
X70240000Y-70320000D03*
X71510000Y-70320000D03*
X70240000Y-69050000D03*
X72780000Y-70320000D03*
X77860000Y-69050000D03*
X76590000Y-70320000D03*
X76590000Y-69050000D03*
X68970000Y-76670000D03*
X67700000Y-74130000D03*
X67700000Y-76670000D03*
X68970000Y-74130000D03*
X67700000Y-75400000D03*
X68970000Y-75400000D03*
X63890000Y-76670000D03*
X63890000Y-75400000D03*
X65160000Y-76670000D03*
X66430000Y-74130000D03*
X66430000Y-75400000D03*
X65160000Y-75400000D03*
X66430000Y-76670000D03*
X65160000Y-74130000D03*
X65160000Y-69050000D03*
X66430000Y-69050000D03*
X63890000Y-70320000D03*
X61350000Y-69050000D03*
X62620000Y-70320000D03*
X62620000Y-69050000D03*
X63890000Y-74130000D03*
X63890000Y-71590000D03*
X63890000Y-72860000D03*
X62620000Y-72860000D03*
X62620000Y-71590000D03*
X62620000Y-74130000D03*
X67700000Y-71590000D03*
X65160000Y-71590000D03*
X65160000Y-72860000D03*
X67700000Y-70320000D03*
X66430000Y-71590000D03*
X65160000Y-70320000D03*
X67700000Y-72860000D03*
X68970000Y-71590000D03*
X68970000Y-72860000D03*
X66430000Y-70320000D03*
X66430000Y-72860000D03*
X68970000Y-70320000D03*
X67700000Y-69050000D03*
X68970000Y-69050000D03*
X63890000Y-69050000D03*
X41030000Y-67780000D03*
X41030000Y-65240000D03*
X41030000Y-62700000D03*
X41030000Y-60160000D03*
X41030000Y-66510000D03*
X41030000Y-63970000D03*
X41030000Y-61430000D03*
X41030000Y-58890000D03*
X42300000Y-66510000D03*
X42300000Y-63970000D03*
X42300000Y-61430000D03*
X42300000Y-58890000D03*
X42300000Y-67780000D03*
X42300000Y-65240000D03*
X42300000Y-62700000D03*
X42300000Y-60160000D03*
X43570000Y-67780000D03*
X43570000Y-65240000D03*
X43570000Y-62700000D03*
X43570000Y-60160000D03*
X43570000Y-66510000D03*
X43570000Y-63970000D03*
X43570000Y-61430000D03*
X43570000Y-58890000D03*
X34680000Y-67780000D03*
X34680000Y-65240000D03*
X34680000Y-62700000D03*
X34680000Y-60160000D03*
X33410000Y-67780000D03*
X33410000Y-65240000D03*
X33410000Y-62700000D03*
X33410000Y-60160000D03*
X32140000Y-67780000D03*
X32140000Y-65240000D03*
X32140000Y-62700000D03*
X32140000Y-60160000D03*
X34680000Y-66510000D03*
X34680000Y-63970000D03*
X34680000Y-61430000D03*
X34680000Y-58890000D03*
X32140000Y-66510000D03*
X32140000Y-63970000D03*
X32140000Y-61430000D03*
X32140000Y-58890000D03*
X33410000Y-66510000D03*
X33410000Y-63970000D03*
X33410000Y-61430000D03*
X33410000Y-58890000D03*
X37220000Y-67780000D03*
X37220000Y-65240000D03*
X37220000Y-62700000D03*
X37220000Y-60160000D03*
X37220000Y-66510000D03*
X37220000Y-63970000D03*
X37220000Y-61430000D03*
X37220000Y-58890000D03*
X35950000Y-66510000D03*
X35950000Y-63970000D03*
X35950000Y-61430000D03*
X35950000Y-58890000D03*
X35950000Y-67780000D03*
X35950000Y-65240000D03*
X35950000Y-62700000D03*
X35950000Y-60160000D03*
X39760000Y-67780000D03*
X39760000Y-65240000D03*
X39760000Y-62700000D03*
X39760000Y-60160000D03*
X39760000Y-66510000D03*
X39760000Y-63970000D03*
X39760000Y-61430000D03*
X39760000Y-58890000D03*
X38490000Y-67780000D03*
X38490000Y-65240000D03*
X38490000Y-62700000D03*
X38490000Y-60160000D03*
X38490000Y-66510000D03*
X38490000Y-63970000D03*
X38490000Y-61430000D03*
X38490000Y-58890000D03*
X47380000Y-67780000D03*
X47380000Y-65240000D03*
X47380000Y-62700000D03*
X47380000Y-60160000D03*
X47380000Y-66510000D03*
X47380000Y-63970000D03*
X47380000Y-61430000D03*
X47380000Y-58890000D03*
X48650000Y-67780000D03*
X48650000Y-65240000D03*
X48650000Y-62700000D03*
X48650000Y-60160000D03*
X48650000Y-66510000D03*
X48650000Y-63970000D03*
X48650000Y-61430000D03*
X48650000Y-58890000D03*
X46110000Y-67780000D03*
X46110000Y-65240000D03*
X46110000Y-62700000D03*
X46110000Y-60160000D03*
X44840000Y-66510000D03*
X44840000Y-63970000D03*
X44840000Y-61430000D03*
X44840000Y-58890000D03*
X44840000Y-67780000D03*
X44840000Y-65240000D03*
X44840000Y-62700000D03*
X44840000Y-60160000D03*
X46110000Y-66510000D03*
X46110000Y-63970000D03*
X46110000Y-61430000D03*
X46110000Y-58890000D03*
X75320000Y-67780000D03*
X75320000Y-65240000D03*
X75320000Y-62700000D03*
X75320000Y-60160000D03*
X77860000Y-67780000D03*
X77860000Y-65240000D03*
X77860000Y-62700000D03*
X77860000Y-60160000D03*
X76590000Y-67780000D03*
X76590000Y-65240000D03*
X76590000Y-62700000D03*
X76590000Y-60160000D03*
X79130000Y-67780000D03*
X79130000Y-65240000D03*
X79130000Y-62700000D03*
X79130000Y-60160000D03*
X74050000Y-67780000D03*
X74050000Y-65240000D03*
X74050000Y-62700000D03*
X74050000Y-60160000D03*
X79130000Y-66510000D03*
X79130000Y-63970000D03*
X79130000Y-61430000D03*
X79130000Y-58890000D03*
X75320000Y-66510000D03*
X75320000Y-63970000D03*
X75320000Y-61430000D03*
X75320000Y-58890000D03*
X74050000Y-66510000D03*
X74050000Y-63970000D03*
X74050000Y-61430000D03*
X74050000Y-58890000D03*
X76590000Y-66510000D03*
X76590000Y-63970000D03*
X76590000Y-61430000D03*
X76590000Y-58890000D03*
X77860000Y-66510000D03*
X77860000Y-63970000D03*
X77860000Y-61430000D03*
X77860000Y-58890000D03*
X68970000Y-67780000D03*
X68970000Y-65240000D03*
X68970000Y-62700000D03*
X68970000Y-60160000D03*
X70240000Y-66510000D03*
X70240000Y-63970000D03*
X70240000Y-61430000D03*
X70240000Y-58890000D03*
X67700000Y-67780000D03*
X67700000Y-65240000D03*
X67700000Y-62700000D03*
X67700000Y-60160000D03*
X67700000Y-66510000D03*
X67700000Y-63970000D03*
X67700000Y-61430000D03*
X67700000Y-58890000D03*
X70240000Y-67780000D03*
X70240000Y-65240000D03*
X70240000Y-62700000D03*
X70240000Y-60160000D03*
X68970000Y-66510000D03*
X68970000Y-63970000D03*
X68970000Y-61430000D03*
X68970000Y-58890000D03*
X72780000Y-67780000D03*
X72780000Y-65240000D03*
X72780000Y-62700000D03*
X72780000Y-60160000D03*
X71510000Y-67780000D03*
X71510000Y-65240000D03*
X71510000Y-62700000D03*
X71510000Y-60160000D03*
X72780000Y-66510000D03*
X72780000Y-63970000D03*
X72780000Y-61430000D03*
X72780000Y-58890000D03*
X71510000Y-66510000D03*
X71510000Y-63970000D03*
X71510000Y-61430000D03*
X71510000Y-58890000D03*
X63890000Y-67780000D03*
X63890000Y-65240000D03*
X63890000Y-62700000D03*
X63890000Y-60160000D03*
X65160000Y-67780000D03*
X65160000Y-65240000D03*
X65160000Y-62700000D03*
X65160000Y-60160000D03*
X65160000Y-66510000D03*
X65160000Y-63970000D03*
X65160000Y-61430000D03*
X65160000Y-58890000D03*
X66430000Y-67780000D03*
X66430000Y-65240000D03*
X66430000Y-62700000D03*
X66430000Y-60160000D03*
X63890000Y-66510000D03*
X63890000Y-63970000D03*
X63890000Y-61430000D03*
X63890000Y-58890000D03*
X66430000Y-66510000D03*
X66430000Y-63970000D03*
X66430000Y-61430000D03*
X66430000Y-58890000D03*
X61350000Y-67780000D03*
X61350000Y-65240000D03*
X61350000Y-62700000D03*
X61350000Y-60160000D03*
X62620000Y-66510000D03*
X62620000Y-63970000D03*
X62620000Y-61430000D03*
X62620000Y-58890000D03*
X62620000Y-67780000D03*
X62620000Y-65240000D03*
X62620000Y-62700000D03*
X62620000Y-60160000D03*
X61350000Y-66510000D03*
X61350000Y-63970000D03*
X61350000Y-61430000D03*
X61350000Y-58890000D03*
X60080000Y-66510000D03*
X60080000Y-63970000D03*
X60080000Y-61430000D03*
X60080000Y-58890000D03*
X60080000Y-67780000D03*
X60080000Y-65240000D03*
X60080000Y-62700000D03*
X60080000Y-60160000D03*
X58810000Y-67780000D03*
X58810000Y-65240000D03*
X58810000Y-62700000D03*
X58810000Y-60160000D03*
X58810000Y-66510000D03*
X58810000Y-63970000D03*
X58810000Y-61430000D03*
X58810000Y-58890000D03*
X53730000Y-67780000D03*
X53730000Y-65240000D03*
X53730000Y-62700000D03*
X53730000Y-60160000D03*
X53730000Y-66510000D03*
X53730000Y-63970000D03*
X53730000Y-61430000D03*
X53730000Y-58890000D03*
X51190000Y-67780000D03*
X51190000Y-65240000D03*
X51190000Y-62700000D03*
X51190000Y-60160000D03*
X51190000Y-66510000D03*
X51190000Y-63970000D03*
X51190000Y-61430000D03*
X51190000Y-58890000D03*
X49920000Y-66510000D03*
X49920000Y-63970000D03*
X49920000Y-61430000D03*
X49920000Y-58890000D03*
X52460000Y-66510000D03*
X52460000Y-63970000D03*
X52460000Y-61430000D03*
X52460000Y-58890000D03*
X52460000Y-67780000D03*
X52460000Y-65240000D03*
X52460000Y-62700000D03*
X52460000Y-60160000D03*
X49920000Y-67780000D03*
X49920000Y-65240000D03*
X49920000Y-62700000D03*
X49920000Y-60160000D03*
X30870000Y-67780000D03*
X30870000Y-65240000D03*
X30870000Y-62700000D03*
X30870000Y-60160000D03*
X30870000Y-66510000D03*
X30870000Y-63970000D03*
X30870000Y-61430000D03*
X30870000Y-58890000D03*
X57540000Y-67780000D03*
X57540000Y-65240000D03*
X57540000Y-62700000D03*
X57540000Y-60160000D03*
X56270000Y-67780000D03*
X56270000Y-65240000D03*
X56270000Y-62700000D03*
X56270000Y-60160000D03*
X56270000Y-66510000D03*
X56270000Y-63970000D03*
X56270000Y-61430000D03*
X56270000Y-58890000D03*
X55000000Y-67780000D03*
X55000000Y-65240000D03*
X55000000Y-62700000D03*
X55000000Y-60160000D03*
X55000000Y-66510000D03*
X55000000Y-63970000D03*
X55000000Y-61430000D03*
X55000000Y-58890000D03*
X57540000Y-66510000D03*
X57540000Y-63970000D03*
X57540000Y-61430000D03*
X57540000Y-58890000D03*
X41030000Y-57620000D03*
X41030000Y-56350000D03*
X42300000Y-56350000D03*
X42300000Y-57620000D03*
X43570000Y-57620000D03*
X43570000Y-56350000D03*
X34680000Y-57620000D03*
X33410000Y-57620000D03*
X32140000Y-57620000D03*
X34680000Y-56350000D03*
X32140000Y-56350000D03*
X33410000Y-56350000D03*
X37220000Y-57620000D03*
X37220000Y-56350000D03*
X35950000Y-56350000D03*
X35950000Y-57620000D03*
X39760000Y-57620000D03*
X39760000Y-56350000D03*
X38490000Y-57620000D03*
X38490000Y-56350000D03*
X47380000Y-57620000D03*
X47380000Y-56350000D03*
X48650000Y-57620000D03*
X48650000Y-56350000D03*
X46110000Y-57620000D03*
X44840000Y-56350000D03*
X44840000Y-57620000D03*
X46110000Y-56350000D03*
X75320000Y-57620000D03*
X77860000Y-57620000D03*
X76590000Y-57620000D03*
X79130000Y-57620000D03*
X74050000Y-57620000D03*
X79130000Y-56350000D03*
X75320000Y-56350000D03*
X74050000Y-56350000D03*
X76590000Y-56350000D03*
X77860000Y-56350000D03*
X68970000Y-57620000D03*
X70240000Y-56350000D03*
X67700000Y-57620000D03*
X67700000Y-56350000D03*
X70240000Y-57620000D03*
X68970000Y-56350000D03*
X72780000Y-57620000D03*
X71510000Y-57620000D03*
X72780000Y-56350000D03*
X71510000Y-56350000D03*
X63890000Y-57620000D03*
X65160000Y-57620000D03*
X65160000Y-56350000D03*
X66430000Y-57620000D03*
X63890000Y-56350000D03*
X66430000Y-56350000D03*
X61350000Y-57620000D03*
X62620000Y-56350000D03*
X62620000Y-57620000D03*
X61350000Y-56350000D03*
X60080000Y-56350000D03*
X60080000Y-57620000D03*
X58810000Y-57620000D03*
X58810000Y-56350000D03*
X53730000Y-57620000D03*
X53730000Y-56350000D03*
X51190000Y-57620000D03*
X51190000Y-56350000D03*
X49920000Y-56350000D03*
X52460000Y-56350000D03*
X52460000Y-57620000D03*
X49920000Y-57620000D03*
X30870000Y-57620000D03*
X30870000Y-56350000D03*
X57540000Y-57620000D03*
X56270000Y-57620000D03*
X56270000Y-56350000D03*
X55000000Y-57620000D03*
X55000000Y-56350000D03*
X57540000Y-56350000D03*
X37220000Y-55080000D03*
X38490000Y-55080000D03*
X39760000Y-55080000D03*
X48650000Y-55080000D03*
X47380000Y-55080000D03*
X46110000Y-55080000D03*
X44840000Y-55080000D03*
X43570000Y-55080000D03*
X41030000Y-55080000D03*
X42300000Y-55080000D03*
X79130000Y-55080000D03*
X75320000Y-55080000D03*
X76590000Y-55080000D03*
X74050000Y-55080000D03*
X77860000Y-55080000D03*
X66430000Y-55080000D03*
X63890000Y-55080000D03*
X65160000Y-55080000D03*
X71510000Y-55080000D03*
X72780000Y-55080000D03*
X70240000Y-55080000D03*
X68970000Y-55080000D03*
X67700000Y-55080000D03*
X61350000Y-55080000D03*
X62620000Y-55080000D03*
X52460000Y-55080000D03*
X56270000Y-55080000D03*
X53730000Y-55080000D03*
X55000000Y-55080000D03*
X49920000Y-55080000D03*
X51190000Y-55080000D03*
X57540000Y-55080000D03*
X58810000Y-55080000D03*
X60080000Y-55080000D03*
X35950000Y-55080000D03*
X34680000Y-55080000D03*
X32140000Y-55080000D03*
X30870000Y-55080000D03*
X33410000Y-55080000D03*
X79130000Y-53810000D03*
X72780000Y-53810000D03*
X71510000Y-53810000D03*
X77860000Y-53810000D03*
X74050000Y-53810000D03*
X75320000Y-53810000D03*
X76590000Y-53810000D03*
X68970000Y-53810000D03*
X70240000Y-53810000D03*
X67700000Y-53810000D03*
X55000000Y-53810000D03*
X51190000Y-53810000D03*
X52460000Y-53810000D03*
X53730000Y-53810000D03*
X65160000Y-53810000D03*
X66430000Y-53810000D03*
X60080000Y-53810000D03*
X58810000Y-53810000D03*
X62620000Y-53810000D03*
X63890000Y-53810000D03*
X61350000Y-53810000D03*
X56270000Y-53810000D03*
X57540000Y-53810000D03*
X42300000Y-53810000D03*
X41030000Y-53810000D03*
X43570000Y-53810000D03*
X48650000Y-53810000D03*
X49920000Y-53810000D03*
X46110000Y-53810000D03*
X44840000Y-53810000D03*
X47380000Y-53810000D03*
X38490000Y-53810000D03*
X35950000Y-53810000D03*
X39760000Y-53810000D03*
X37220000Y-53810000D03*
X34680000Y-53810000D03*
X33410000Y-53810000D03*
X32140000Y-53810000D03*
D17*
X72750000Y-51750000D03*
X74250000Y-51750000D03*
X73500000Y-51750000D03*
X49250000Y-51750000D03*
X47750000Y-51750000D03*
X48500000Y-51750000D03*
X66750000Y-51750000D03*
X63750000Y-51750000D03*
X65250000Y-51750000D03*
X66000000Y-51750000D03*
X63000000Y-51750000D03*
X64500000Y-51750000D03*
X61500000Y-51750000D03*
X62250000Y-51750000D03*
X60750000Y-51750000D03*
X69750000Y-51750000D03*
X69000000Y-51750000D03*
X71250000Y-51750000D03*
X67500000Y-51750000D03*
X72000000Y-51750000D03*
X68250000Y-51750000D03*
X70500000Y-51750000D03*
X41750000Y-51750000D03*
X42500000Y-51750000D03*
X43250000Y-51750000D03*
X45500000Y-51750000D03*
X46250000Y-51750000D03*
X44750000Y-51750000D03*
X44000000Y-51750000D03*
X47000000Y-51750000D03*
X40250000Y-51750000D03*
X39500000Y-51750000D03*
X41000000Y-51750000D03*
X38750000Y-51750000D03*
X37250000Y-51750000D03*
X38000000Y-51750000D03*
X36500000Y-51750000D03*
D15*
X32140000Y-39840000D03*
X32140000Y-42380000D03*
X49920000Y-32220000D03*
X47380000Y-32220000D03*
X44840000Y-32220000D03*
X42300000Y-32220000D03*
X39760000Y-32220000D03*
D18*
X33000000Y-33000000D03*
X33000000Y-77000000D03*
X77000000Y-77000000D03*
D19*
X51750000Y-40000000D03*
X53250000Y-40000000D03*
X51750000Y-43000000D03*
X53250000Y-43000000D03*
X51750000Y-41500000D03*
X53250000Y-41500000D03*
X51750000Y-38500000D03*
X53250000Y-38500000D03*
X51750000Y-37000000D03*
X53250000Y-37000000D03*
D18*
X77000000Y-33000000D03*
D20*
X70200000Y-34900000D03*
D21*
X64750000Y-45000000D03*
X63650000Y-45000000D03*
X62550000Y-45000000D03*
X61450000Y-45000000D03*
X60350000Y-45000000D03*
X59250000Y-45000000D03*
X58150000Y-45000000D03*
X57050000Y-45000000D03*
X55950000Y-45000000D03*
D22*
X54700000Y-44500000D03*
D23*
X69300000Y-44500000D03*
D20*
X54700000Y-34900000D03*
D24*
X65500000Y-34500000D03*
X57500000Y-34500000D03*
D15*
X77860000Y-50000000D03*
X75320000Y-50000000D03*
X72780000Y-50000000D03*
X62620000Y-50000000D03*
X60080000Y-50000000D03*
X57540000Y-50000000D03*
X55000000Y-50000000D03*
X52460000Y-50000000D03*
X65160000Y-50000000D03*
X67700000Y-50000000D03*
X70240000Y-50000000D03*
X49920000Y-50000000D03*
X47380000Y-50000000D03*
X44840000Y-50000000D03*
X32140000Y-50000000D03*
X34680000Y-50000000D03*
X37220000Y-50000000D03*
X39760000Y-50000000D03*
X42300000Y-50000000D03*
D17*
X35750000Y-51750000D03*
D16*
X30870000Y-53810000D03*
D25*
X45000000Y-43000000D03*
X45000000Y-45026920D03*
X47397760Y-44026160D03*
D26*
X52850000Y-46500000D03*
X54150000Y-46500000D03*
X46150000Y-46500000D03*
X44850000Y-46500000D03*
X45350000Y-41500000D03*
X46650000Y-41500000D03*
M02*
