G04 #@! TF.FileFunction,Legend,Bot*
%FSLAX46Y46*%
G04 Gerber Fmt 4.6, Leading zero omitted, Abs format (unit mm)*
G04 Created by KiCad (PCBNEW 4.0.4-stable) date Thu Nov 17 11:55:04 2016*
%MOMM*%
%LPD*%
G01*
G04 APERTURE LIST*
%ADD10C,0.100000*%
%ADD11C,0.250000*%
%ADD12C,0.200000*%
%ADD13R,1.400000X1.400000*%
%ADD14C,0.900000*%
%ADD15C,2.398980*%
%ADD16C,3.600000*%
%ADD17R,1.200000X1.200000*%
%ADD18R,1.600000X2.600000*%
%ADD19R,1.100000X2.000000*%
%ADD20R,1.600000X1.800000*%
%ADD21R,2.000000X1.800000*%
%ADD22C,1.400000*%
G04 APERTURE END LIST*
D10*
D11*
X51150000Y-40600000D02*
X51150000Y-39400000D01*
X53850000Y-39400000D02*
X53850000Y-40600000D01*
X53850000Y-40600000D02*
X51150000Y-40600000D01*
X51150000Y-39400000D02*
X53850000Y-39400000D01*
X52150000Y-47600000D02*
X52150000Y-46400000D01*
X54850000Y-46400000D02*
X54850000Y-47600000D01*
X54850000Y-47600000D02*
X52150000Y-47600000D01*
X52150000Y-46400000D02*
X54850000Y-46400000D01*
X51150000Y-43600000D02*
X51150000Y-42400000D01*
X53850000Y-42400000D02*
X53850000Y-43600000D01*
X53850000Y-43600000D02*
X51150000Y-43600000D01*
X51150000Y-42400000D02*
X53850000Y-42400000D01*
X51150000Y-42100000D02*
X51150000Y-40900000D01*
X53850000Y-40900000D02*
X53850000Y-42100000D01*
X53850000Y-42100000D02*
X51150000Y-42100000D01*
X51150000Y-40900000D02*
X53850000Y-40900000D01*
X51150000Y-39100000D02*
X51150000Y-37900000D01*
X53850000Y-37900000D02*
X53850000Y-39100000D01*
X53850000Y-39100000D02*
X51150000Y-39100000D01*
X51150000Y-37900000D02*
X53850000Y-37900000D01*
X51150000Y-37600000D02*
X51150000Y-36400000D01*
X53850000Y-36400000D02*
X53850000Y-37600000D01*
X53850000Y-37600000D02*
X51150000Y-37600000D01*
X51150000Y-36400000D02*
X53850000Y-36400000D01*
X69800000Y-30000000D02*
X69800000Y-44500000D01*
X69800000Y-30000000D02*
X66450000Y-30000000D01*
X66450000Y-30000000D02*
X63450000Y-30700000D01*
X63450000Y-30700000D02*
X55100000Y-30700000D01*
X69800000Y-44500000D02*
X55100000Y-44500000D01*
X55100000Y-30700000D02*
X55100000Y-44500000D01*
D12*
X50166666Y-40357143D02*
X50214285Y-40404762D01*
X50357142Y-40452381D01*
X50452380Y-40452381D01*
X50595238Y-40404762D01*
X50690476Y-40309524D01*
X50738095Y-40214286D01*
X50785714Y-40023810D01*
X50785714Y-39880952D01*
X50738095Y-39690476D01*
X50690476Y-39595238D01*
X50595238Y-39500000D01*
X50452380Y-39452381D01*
X50357142Y-39452381D01*
X50214285Y-39500000D01*
X50166666Y-39547619D01*
X49261904Y-39452381D02*
X49738095Y-39452381D01*
X49785714Y-39928571D01*
X49738095Y-39880952D01*
X49642857Y-39833333D01*
X49404761Y-39833333D01*
X49309523Y-39880952D01*
X49261904Y-39928571D01*
X49214285Y-40023810D01*
X49214285Y-40261905D01*
X49261904Y-40357143D01*
X49309523Y-40404762D01*
X49404761Y-40452381D01*
X49642857Y-40452381D01*
X49738095Y-40404762D01*
X49785714Y-40357143D01*
X51333333Y-45452381D02*
X51333333Y-46166667D01*
X51380953Y-46309524D01*
X51476191Y-46404762D01*
X51619048Y-46452381D01*
X51714286Y-46452381D01*
X50904762Y-45547619D02*
X50857143Y-45500000D01*
X50761905Y-45452381D01*
X50523809Y-45452381D01*
X50428571Y-45500000D01*
X50380952Y-45547619D01*
X50333333Y-45642857D01*
X50333333Y-45738095D01*
X50380952Y-45880952D01*
X50952381Y-46452381D01*
X50333333Y-46452381D01*
X50166666Y-43452381D02*
X50500000Y-42976190D01*
X50738095Y-43452381D02*
X50738095Y-42452381D01*
X50357142Y-42452381D01*
X50261904Y-42500000D01*
X50214285Y-42547619D01*
X50166666Y-42642857D01*
X50166666Y-42785714D01*
X50214285Y-42880952D01*
X50261904Y-42928571D01*
X50357142Y-42976190D01*
X50738095Y-42976190D01*
X49785714Y-42547619D02*
X49738095Y-42500000D01*
X49642857Y-42452381D01*
X49404761Y-42452381D01*
X49309523Y-42500000D01*
X49261904Y-42547619D01*
X49214285Y-42642857D01*
X49214285Y-42738095D01*
X49261904Y-42880952D01*
X49833333Y-43452381D01*
X49214285Y-43452381D01*
X50166666Y-41952381D02*
X50500000Y-41476190D01*
X50738095Y-41952381D02*
X50738095Y-40952381D01*
X50357142Y-40952381D01*
X50261904Y-41000000D01*
X50214285Y-41047619D01*
X50166666Y-41142857D01*
X50166666Y-41285714D01*
X50214285Y-41380952D01*
X50261904Y-41428571D01*
X50357142Y-41476190D01*
X50738095Y-41476190D01*
X49833333Y-40952381D02*
X49214285Y-40952381D01*
X49547619Y-41333333D01*
X49404761Y-41333333D01*
X49309523Y-41380952D01*
X49261904Y-41428571D01*
X49214285Y-41523810D01*
X49214285Y-41761905D01*
X49261904Y-41857143D01*
X49309523Y-41904762D01*
X49404761Y-41952381D01*
X49690476Y-41952381D01*
X49785714Y-41904762D01*
X49833333Y-41857143D01*
X50166666Y-38952381D02*
X50500000Y-38476190D01*
X50738095Y-38952381D02*
X50738095Y-37952381D01*
X50357142Y-37952381D01*
X50261904Y-38000000D01*
X50214285Y-38047619D01*
X50166666Y-38142857D01*
X50166666Y-38285714D01*
X50214285Y-38380952D01*
X50261904Y-38428571D01*
X50357142Y-38476190D01*
X50738095Y-38476190D01*
X49309523Y-38285714D02*
X49309523Y-38952381D01*
X49547619Y-37904762D02*
X49785714Y-38619048D01*
X49166666Y-38619048D01*
X50166666Y-37452381D02*
X50500000Y-36976190D01*
X50738095Y-37452381D02*
X50738095Y-36452381D01*
X50357142Y-36452381D01*
X50261904Y-36500000D01*
X50214285Y-36547619D01*
X50166666Y-36642857D01*
X50166666Y-36785714D01*
X50214285Y-36880952D01*
X50261904Y-36928571D01*
X50357142Y-36976190D01*
X50738095Y-36976190D01*
X49261904Y-36452381D02*
X49738095Y-36452381D01*
X49785714Y-36928571D01*
X49738095Y-36880952D01*
X49642857Y-36833333D01*
X49404761Y-36833333D01*
X49309523Y-36880952D01*
X49261904Y-36928571D01*
X49214285Y-37023810D01*
X49214285Y-37261905D01*
X49261904Y-37357143D01*
X49309523Y-37404762D01*
X49404761Y-37452381D01*
X49642857Y-37452381D01*
X49738095Y-37404762D01*
X49785714Y-37357143D01*
X67488095Y-45952381D02*
X67488095Y-44952381D01*
X66916666Y-45952381D02*
X67345238Y-45380952D01*
X66916666Y-44952381D02*
X67488095Y-45523810D01*
X66535714Y-45047619D02*
X66488095Y-45000000D01*
X66392857Y-44952381D01*
X66154761Y-44952381D01*
X66059523Y-45000000D01*
X66011904Y-45047619D01*
X65964285Y-45142857D01*
X65964285Y-45238095D01*
X66011904Y-45380952D01*
X66583333Y-45952381D01*
X65964285Y-45952381D01*
%LPC*%
D13*
X51190000Y-77940000D03*
X48650000Y-77940000D03*
X49920000Y-77940000D03*
X49920000Y-79210000D03*
X51190000Y-79210000D03*
X48650000Y-79210000D03*
X43570000Y-77940000D03*
X47380000Y-77940000D03*
X46110000Y-79210000D03*
X46110000Y-77940000D03*
X44840000Y-77940000D03*
X47380000Y-79210000D03*
X43570000Y-79210000D03*
X44840000Y-79210000D03*
X58810000Y-79210000D03*
X60080000Y-77940000D03*
X57540000Y-77940000D03*
X60080000Y-79210000D03*
X57540000Y-79210000D03*
X58810000Y-77940000D03*
X56270000Y-77940000D03*
X55000000Y-77940000D03*
X53730000Y-77940000D03*
X52460000Y-77940000D03*
X53730000Y-79210000D03*
X55000000Y-79210000D03*
X56270000Y-79210000D03*
X52460000Y-79210000D03*
X71510000Y-77940000D03*
X72780000Y-79210000D03*
X71510000Y-79210000D03*
X72780000Y-77940000D03*
X74050000Y-77940000D03*
X74050000Y-79210000D03*
X62620000Y-79210000D03*
X61350000Y-77940000D03*
X61350000Y-79210000D03*
X62620000Y-77940000D03*
X63890000Y-79210000D03*
X65160000Y-79210000D03*
X63890000Y-77940000D03*
X66430000Y-79210000D03*
X67700000Y-77940000D03*
X67700000Y-79210000D03*
X66430000Y-77940000D03*
X65160000Y-77940000D03*
X68970000Y-79210000D03*
X70240000Y-77940000D03*
X70240000Y-79210000D03*
X68970000Y-77940000D03*
X37220000Y-77940000D03*
X37220000Y-79210000D03*
X35950000Y-79210000D03*
X41030000Y-79210000D03*
X41030000Y-77940000D03*
X39760000Y-79210000D03*
X38490000Y-79210000D03*
X38490000Y-77940000D03*
X39760000Y-77940000D03*
X42300000Y-77940000D03*
X42300000Y-79210000D03*
X35950000Y-77940000D03*
X53730000Y-71590000D03*
X55000000Y-70320000D03*
X53730000Y-72860000D03*
X53730000Y-70320000D03*
X56270000Y-74130000D03*
X51190000Y-74130000D03*
X49920000Y-72860000D03*
X52460000Y-72860000D03*
X52460000Y-74130000D03*
X49920000Y-74130000D03*
X51190000Y-72860000D03*
X53730000Y-69050000D03*
X52460000Y-69050000D03*
X51190000Y-69050000D03*
X49920000Y-69050000D03*
X51190000Y-71590000D03*
X49920000Y-70320000D03*
X52460000Y-70320000D03*
X52460000Y-71590000D03*
X49920000Y-71590000D03*
X51190000Y-70320000D03*
X55000000Y-69050000D03*
X56270000Y-69050000D03*
X57540000Y-76670000D03*
X55000000Y-76670000D03*
X56270000Y-76670000D03*
X56270000Y-75400000D03*
X56270000Y-71590000D03*
X56270000Y-72860000D03*
X55000000Y-71590000D03*
X56270000Y-70320000D03*
X55000000Y-72860000D03*
X51190000Y-75400000D03*
X49920000Y-75400000D03*
X52460000Y-75400000D03*
X52460000Y-76670000D03*
X49920000Y-76670000D03*
X51190000Y-76670000D03*
X53730000Y-76670000D03*
X53730000Y-74130000D03*
X55000000Y-74130000D03*
X55000000Y-75400000D03*
X53730000Y-75400000D03*
X34680000Y-69050000D03*
X37220000Y-71590000D03*
X37220000Y-70320000D03*
X38490000Y-71590000D03*
X38490000Y-70320000D03*
X39760000Y-71590000D03*
X34680000Y-71590000D03*
X34680000Y-70320000D03*
X35950000Y-70320000D03*
X35950000Y-71590000D03*
X35950000Y-69050000D03*
X37220000Y-69050000D03*
X39760000Y-69050000D03*
X38490000Y-69050000D03*
X39760000Y-70320000D03*
X41030000Y-71590000D03*
X42300000Y-70320000D03*
X41030000Y-70320000D03*
X41030000Y-69050000D03*
X42300000Y-69050000D03*
X44840000Y-69050000D03*
X47380000Y-69050000D03*
X47380000Y-70320000D03*
X48650000Y-69050000D03*
X48650000Y-70320000D03*
X42300000Y-71590000D03*
X43570000Y-70320000D03*
X43570000Y-69050000D03*
X43570000Y-71590000D03*
X44840000Y-70320000D03*
X44840000Y-71590000D03*
X47380000Y-71590000D03*
X46110000Y-69050000D03*
X48650000Y-71590000D03*
X46110000Y-70320000D03*
X46110000Y-71590000D03*
X33410000Y-71590000D03*
X30870000Y-70320000D03*
X32140000Y-71590000D03*
X32140000Y-70320000D03*
X33410000Y-70320000D03*
X30870000Y-71590000D03*
X33410000Y-69050000D03*
X30870000Y-69050000D03*
X32140000Y-69050000D03*
X37220000Y-76670000D03*
X35950000Y-76670000D03*
X35950000Y-75400000D03*
X37220000Y-75400000D03*
X39760000Y-76670000D03*
X38490000Y-76670000D03*
X38490000Y-75400000D03*
X37220000Y-74130000D03*
X35950000Y-74130000D03*
X35950000Y-72860000D03*
X38490000Y-72860000D03*
X37220000Y-72860000D03*
X30870000Y-74130000D03*
X30870000Y-72860000D03*
X34680000Y-74130000D03*
X34680000Y-72860000D03*
X32140000Y-74130000D03*
X32140000Y-72860000D03*
X33410000Y-72860000D03*
X33410000Y-74130000D03*
X38490000Y-74130000D03*
X39760000Y-75400000D03*
X39760000Y-72860000D03*
X39760000Y-74130000D03*
X47380000Y-74130000D03*
X48650000Y-72860000D03*
X46110000Y-74130000D03*
X47380000Y-72860000D03*
X48650000Y-74130000D03*
X41030000Y-74130000D03*
X43570000Y-74130000D03*
X42300000Y-74130000D03*
X42300000Y-72860000D03*
X43570000Y-72860000D03*
X41030000Y-72860000D03*
X47380000Y-76670000D03*
X47380000Y-75400000D03*
X48650000Y-76670000D03*
X48650000Y-75400000D03*
X46110000Y-76670000D03*
X41030000Y-76670000D03*
X41030000Y-75400000D03*
X42300000Y-75400000D03*
X42300000Y-76670000D03*
X43570000Y-76670000D03*
X43570000Y-75400000D03*
X44840000Y-74130000D03*
X46110000Y-72860000D03*
X44840000Y-72860000D03*
X44840000Y-76670000D03*
X46110000Y-75400000D03*
X44840000Y-75400000D03*
X62620000Y-76670000D03*
X62620000Y-75400000D03*
X61350000Y-76670000D03*
X61350000Y-75400000D03*
X60080000Y-75400000D03*
X60080000Y-74130000D03*
X60080000Y-76670000D03*
X58810000Y-69050000D03*
X58810000Y-70320000D03*
X61350000Y-70320000D03*
X60080000Y-70320000D03*
X60080000Y-69050000D03*
X61350000Y-74130000D03*
X61350000Y-72860000D03*
X60080000Y-72860000D03*
X61350000Y-71590000D03*
X60080000Y-71590000D03*
X57540000Y-72860000D03*
X58810000Y-71590000D03*
X58810000Y-72860000D03*
X57540000Y-71590000D03*
X57540000Y-69050000D03*
X57540000Y-70320000D03*
X58810000Y-76670000D03*
X57540000Y-75400000D03*
X58810000Y-74130000D03*
X58810000Y-75400000D03*
X57540000Y-74130000D03*
X70240000Y-72860000D03*
X70240000Y-74130000D03*
X70240000Y-71590000D03*
X71510000Y-71590000D03*
X75320000Y-74130000D03*
X74050000Y-76670000D03*
X74050000Y-75400000D03*
X74050000Y-74130000D03*
X75320000Y-71590000D03*
X75320000Y-72860000D03*
X77860000Y-74130000D03*
X77860000Y-71590000D03*
X76590000Y-74130000D03*
X76590000Y-71590000D03*
X76590000Y-72860000D03*
X79130000Y-71590000D03*
X79130000Y-72860000D03*
X77860000Y-72860000D03*
X79130000Y-74130000D03*
X70240000Y-75400000D03*
X71510000Y-75400000D03*
X72780000Y-76670000D03*
X71510000Y-76670000D03*
X72780000Y-75400000D03*
X70240000Y-76670000D03*
X74050000Y-71590000D03*
X74050000Y-72860000D03*
X71510000Y-72860000D03*
X71510000Y-74130000D03*
X72780000Y-74130000D03*
X72780000Y-71590000D03*
X72780000Y-72860000D03*
X71510000Y-69050000D03*
X72780000Y-69050000D03*
X79130000Y-70320000D03*
X79130000Y-69050000D03*
X77860000Y-70320000D03*
X75320000Y-70320000D03*
X74050000Y-69050000D03*
X74050000Y-70320000D03*
X75320000Y-69050000D03*
X70240000Y-70320000D03*
X71510000Y-70320000D03*
X70240000Y-69050000D03*
X72780000Y-70320000D03*
X77860000Y-69050000D03*
X76590000Y-70320000D03*
X76590000Y-69050000D03*
X68970000Y-76670000D03*
X67700000Y-74130000D03*
X67700000Y-76670000D03*
X68970000Y-74130000D03*
X67700000Y-75400000D03*
X68970000Y-75400000D03*
X63890000Y-76670000D03*
X63890000Y-75400000D03*
X65160000Y-76670000D03*
X66430000Y-74130000D03*
X66430000Y-75400000D03*
X65160000Y-75400000D03*
X66430000Y-76670000D03*
X65160000Y-74130000D03*
X65160000Y-69050000D03*
X66430000Y-69050000D03*
X63890000Y-70320000D03*
X61350000Y-69050000D03*
X62620000Y-70320000D03*
X62620000Y-69050000D03*
X63890000Y-74130000D03*
X63890000Y-71590000D03*
X63890000Y-72860000D03*
X62620000Y-72860000D03*
X62620000Y-71590000D03*
X62620000Y-74130000D03*
X67700000Y-71590000D03*
X65160000Y-71590000D03*
X65160000Y-72860000D03*
X67700000Y-70320000D03*
X66430000Y-71590000D03*
X65160000Y-70320000D03*
X67700000Y-72860000D03*
X68970000Y-71590000D03*
X68970000Y-72860000D03*
X66430000Y-70320000D03*
X66430000Y-72860000D03*
X68970000Y-70320000D03*
X67700000Y-69050000D03*
X68970000Y-69050000D03*
X63890000Y-69050000D03*
X41030000Y-67780000D03*
X41030000Y-65240000D03*
X41030000Y-62700000D03*
X41030000Y-60160000D03*
X41030000Y-66510000D03*
X41030000Y-63970000D03*
X41030000Y-61430000D03*
X41030000Y-58890000D03*
X42300000Y-66510000D03*
X42300000Y-63970000D03*
X42300000Y-61430000D03*
X42300000Y-58890000D03*
X42300000Y-67780000D03*
X42300000Y-65240000D03*
X42300000Y-62700000D03*
X42300000Y-60160000D03*
X43570000Y-67780000D03*
X43570000Y-65240000D03*
X43570000Y-62700000D03*
X43570000Y-60160000D03*
X43570000Y-66510000D03*
X43570000Y-63970000D03*
X43570000Y-61430000D03*
X43570000Y-58890000D03*
X34680000Y-67780000D03*
X34680000Y-65240000D03*
X34680000Y-62700000D03*
X34680000Y-60160000D03*
X33410000Y-67780000D03*
X33410000Y-65240000D03*
X33410000Y-62700000D03*
X33410000Y-60160000D03*
X32140000Y-67780000D03*
X32140000Y-65240000D03*
X32140000Y-62700000D03*
X32140000Y-60160000D03*
X34680000Y-66510000D03*
X34680000Y-63970000D03*
X34680000Y-61430000D03*
X34680000Y-58890000D03*
X32140000Y-66510000D03*
X32140000Y-63970000D03*
X32140000Y-61430000D03*
X32140000Y-58890000D03*
X33410000Y-66510000D03*
X33410000Y-63970000D03*
X33410000Y-61430000D03*
X33410000Y-58890000D03*
X37220000Y-67780000D03*
X37220000Y-65240000D03*
X37220000Y-62700000D03*
X37220000Y-60160000D03*
X37220000Y-66510000D03*
X37220000Y-63970000D03*
X37220000Y-61430000D03*
X37220000Y-58890000D03*
X35950000Y-66510000D03*
X35950000Y-63970000D03*
X35950000Y-61430000D03*
X35950000Y-58890000D03*
X35950000Y-67780000D03*
X35950000Y-65240000D03*
X35950000Y-62700000D03*
X35950000Y-60160000D03*
X39760000Y-67780000D03*
X39760000Y-65240000D03*
X39760000Y-62700000D03*
X39760000Y-60160000D03*
X39760000Y-66510000D03*
X39760000Y-63970000D03*
X39760000Y-61430000D03*
X39760000Y-58890000D03*
X38490000Y-67780000D03*
X38490000Y-65240000D03*
X38490000Y-62700000D03*
X38490000Y-60160000D03*
X38490000Y-66510000D03*
X38490000Y-63970000D03*
X38490000Y-61430000D03*
X38490000Y-58890000D03*
X47380000Y-67780000D03*
X47380000Y-65240000D03*
X47380000Y-62700000D03*
X47380000Y-60160000D03*
X47380000Y-66510000D03*
X47380000Y-63970000D03*
X47380000Y-61430000D03*
X47380000Y-58890000D03*
X48650000Y-67780000D03*
X48650000Y-65240000D03*
X48650000Y-62700000D03*
X48650000Y-60160000D03*
X48650000Y-66510000D03*
X48650000Y-63970000D03*
X48650000Y-61430000D03*
X48650000Y-58890000D03*
X46110000Y-67780000D03*
X46110000Y-65240000D03*
X46110000Y-62700000D03*
X46110000Y-60160000D03*
X44840000Y-66510000D03*
X44840000Y-63970000D03*
X44840000Y-61430000D03*
X44840000Y-58890000D03*
X44840000Y-67780000D03*
X44840000Y-65240000D03*
X44840000Y-62700000D03*
X44840000Y-60160000D03*
X46110000Y-66510000D03*
X46110000Y-63970000D03*
X46110000Y-61430000D03*
X46110000Y-58890000D03*
X75320000Y-67780000D03*
X75320000Y-65240000D03*
X75320000Y-62700000D03*
X75320000Y-60160000D03*
X77860000Y-67780000D03*
X77860000Y-65240000D03*
X77860000Y-62700000D03*
X77860000Y-60160000D03*
X76590000Y-67780000D03*
X76590000Y-65240000D03*
X76590000Y-62700000D03*
X76590000Y-60160000D03*
X79130000Y-67780000D03*
X79130000Y-65240000D03*
X79130000Y-62700000D03*
X79130000Y-60160000D03*
X74050000Y-67780000D03*
X74050000Y-65240000D03*
X74050000Y-62700000D03*
X74050000Y-60160000D03*
X79130000Y-66510000D03*
X79130000Y-63970000D03*
X79130000Y-61430000D03*
X79130000Y-58890000D03*
X75320000Y-66510000D03*
X75320000Y-63970000D03*
X75320000Y-61430000D03*
X75320000Y-58890000D03*
X74050000Y-66510000D03*
X74050000Y-63970000D03*
X74050000Y-61430000D03*
X74050000Y-58890000D03*
X76590000Y-66510000D03*
X76590000Y-63970000D03*
X76590000Y-61430000D03*
X76590000Y-58890000D03*
X77860000Y-66510000D03*
X77860000Y-63970000D03*
X77860000Y-61430000D03*
X77860000Y-58890000D03*
X68970000Y-67780000D03*
X68970000Y-65240000D03*
X68970000Y-62700000D03*
X68970000Y-60160000D03*
X70240000Y-66510000D03*
X70240000Y-63970000D03*
X70240000Y-61430000D03*
X70240000Y-58890000D03*
X67700000Y-67780000D03*
X67700000Y-65240000D03*
X67700000Y-62700000D03*
X67700000Y-60160000D03*
X67700000Y-66510000D03*
X67700000Y-63970000D03*
X67700000Y-61430000D03*
X67700000Y-58890000D03*
X70240000Y-67780000D03*
X70240000Y-65240000D03*
X70240000Y-62700000D03*
X70240000Y-60160000D03*
X68970000Y-66510000D03*
X68970000Y-63970000D03*
X68970000Y-61430000D03*
X68970000Y-58890000D03*
X72780000Y-67780000D03*
X72780000Y-65240000D03*
X72780000Y-62700000D03*
X72780000Y-60160000D03*
X71510000Y-67780000D03*
X71510000Y-65240000D03*
X71510000Y-62700000D03*
X71510000Y-60160000D03*
X72780000Y-66510000D03*
X72780000Y-63970000D03*
X72780000Y-61430000D03*
X72780000Y-58890000D03*
X71510000Y-66510000D03*
X71510000Y-63970000D03*
X71510000Y-61430000D03*
X71510000Y-58890000D03*
X63890000Y-67780000D03*
X63890000Y-65240000D03*
X63890000Y-62700000D03*
X63890000Y-60160000D03*
X65160000Y-67780000D03*
X65160000Y-65240000D03*
X65160000Y-62700000D03*
X65160000Y-60160000D03*
X65160000Y-66510000D03*
X65160000Y-63970000D03*
X65160000Y-61430000D03*
X65160000Y-58890000D03*
X66430000Y-67780000D03*
X66430000Y-65240000D03*
X66430000Y-62700000D03*
X66430000Y-60160000D03*
X63890000Y-66510000D03*
X63890000Y-63970000D03*
X63890000Y-61430000D03*
X63890000Y-58890000D03*
X66430000Y-66510000D03*
X66430000Y-63970000D03*
X66430000Y-61430000D03*
X66430000Y-58890000D03*
X61350000Y-67780000D03*
X61350000Y-65240000D03*
X61350000Y-62700000D03*
X61350000Y-60160000D03*
X62620000Y-66510000D03*
X62620000Y-63970000D03*
X62620000Y-61430000D03*
X62620000Y-58890000D03*
X62620000Y-67780000D03*
X62620000Y-65240000D03*
X62620000Y-62700000D03*
X62620000Y-60160000D03*
X61350000Y-66510000D03*
X61350000Y-63970000D03*
X61350000Y-61430000D03*
X61350000Y-58890000D03*
X60080000Y-66510000D03*
X60080000Y-63970000D03*
X60080000Y-61430000D03*
X60080000Y-58890000D03*
X60080000Y-67780000D03*
X60080000Y-65240000D03*
X60080000Y-62700000D03*
X60080000Y-60160000D03*
X58810000Y-67780000D03*
X58810000Y-65240000D03*
X58810000Y-62700000D03*
X58810000Y-60160000D03*
X58810000Y-66510000D03*
X58810000Y-63970000D03*
X58810000Y-61430000D03*
X58810000Y-58890000D03*
X53730000Y-67780000D03*
X53730000Y-65240000D03*
X53730000Y-62700000D03*
X53730000Y-60160000D03*
X53730000Y-66510000D03*
X53730000Y-63970000D03*
X53730000Y-61430000D03*
X53730000Y-58890000D03*
X51190000Y-67780000D03*
X51190000Y-65240000D03*
X51190000Y-62700000D03*
X51190000Y-60160000D03*
X51190000Y-66510000D03*
X51190000Y-63970000D03*
X51190000Y-61430000D03*
X51190000Y-58890000D03*
X49920000Y-66510000D03*
X49920000Y-63970000D03*
X49920000Y-61430000D03*
X49920000Y-58890000D03*
X52460000Y-66510000D03*
X52460000Y-63970000D03*
X52460000Y-61430000D03*
X52460000Y-58890000D03*
X52460000Y-67780000D03*
X52460000Y-65240000D03*
X52460000Y-62700000D03*
X52460000Y-60160000D03*
X49920000Y-67780000D03*
X49920000Y-65240000D03*
X49920000Y-62700000D03*
X49920000Y-60160000D03*
X30870000Y-67780000D03*
X30870000Y-65240000D03*
X30870000Y-62700000D03*
X30870000Y-60160000D03*
X30870000Y-66510000D03*
X30870000Y-63970000D03*
X30870000Y-61430000D03*
X30870000Y-58890000D03*
X57540000Y-67780000D03*
X57540000Y-65240000D03*
X57540000Y-62700000D03*
X57540000Y-60160000D03*
X56270000Y-67780000D03*
X56270000Y-65240000D03*
X56270000Y-62700000D03*
X56270000Y-60160000D03*
X56270000Y-66510000D03*
X56270000Y-63970000D03*
X56270000Y-61430000D03*
X56270000Y-58890000D03*
X55000000Y-67780000D03*
X55000000Y-65240000D03*
X55000000Y-62700000D03*
X55000000Y-60160000D03*
X55000000Y-66510000D03*
X55000000Y-63970000D03*
X55000000Y-61430000D03*
X55000000Y-58890000D03*
X57540000Y-66510000D03*
X57540000Y-63970000D03*
X57540000Y-61430000D03*
X57540000Y-58890000D03*
X41030000Y-57620000D03*
X41030000Y-56350000D03*
X42300000Y-56350000D03*
X42300000Y-57620000D03*
X43570000Y-57620000D03*
X43570000Y-56350000D03*
X34680000Y-57620000D03*
X33410000Y-57620000D03*
X32140000Y-57620000D03*
X34680000Y-56350000D03*
X32140000Y-56350000D03*
X33410000Y-56350000D03*
X37220000Y-57620000D03*
X37220000Y-56350000D03*
X35950000Y-56350000D03*
X35950000Y-57620000D03*
X39760000Y-57620000D03*
X39760000Y-56350000D03*
X38490000Y-57620000D03*
X38490000Y-56350000D03*
X47380000Y-57620000D03*
X47380000Y-56350000D03*
X48650000Y-57620000D03*
X48650000Y-56350000D03*
X46110000Y-57620000D03*
X44840000Y-56350000D03*
X44840000Y-57620000D03*
X46110000Y-56350000D03*
X75320000Y-57620000D03*
X77860000Y-57620000D03*
X76590000Y-57620000D03*
X79130000Y-57620000D03*
X74050000Y-57620000D03*
X79130000Y-56350000D03*
X75320000Y-56350000D03*
X74050000Y-56350000D03*
X76590000Y-56350000D03*
X77860000Y-56350000D03*
X68970000Y-57620000D03*
X70240000Y-56350000D03*
X67700000Y-57620000D03*
X67700000Y-56350000D03*
X70240000Y-57620000D03*
X68970000Y-56350000D03*
X72780000Y-57620000D03*
X71510000Y-57620000D03*
X72780000Y-56350000D03*
X71510000Y-56350000D03*
X63890000Y-57620000D03*
X65160000Y-57620000D03*
X65160000Y-56350000D03*
X66430000Y-57620000D03*
X63890000Y-56350000D03*
X66430000Y-56350000D03*
X61350000Y-57620000D03*
X62620000Y-56350000D03*
X62620000Y-57620000D03*
X61350000Y-56350000D03*
X60080000Y-56350000D03*
X60080000Y-57620000D03*
X58810000Y-57620000D03*
X58810000Y-56350000D03*
X53730000Y-57620000D03*
X53730000Y-56350000D03*
X51190000Y-57620000D03*
X51190000Y-56350000D03*
X49920000Y-56350000D03*
X52460000Y-56350000D03*
X52460000Y-57620000D03*
X49920000Y-57620000D03*
X30870000Y-57620000D03*
X30870000Y-56350000D03*
X57540000Y-57620000D03*
X56270000Y-57620000D03*
X56270000Y-56350000D03*
X55000000Y-57620000D03*
X55000000Y-56350000D03*
X57540000Y-56350000D03*
X37220000Y-55080000D03*
X38490000Y-55080000D03*
X39760000Y-55080000D03*
X48650000Y-55080000D03*
X47380000Y-55080000D03*
X46110000Y-55080000D03*
X44840000Y-55080000D03*
X43570000Y-55080000D03*
X41030000Y-55080000D03*
X42300000Y-55080000D03*
X79130000Y-55080000D03*
X75320000Y-55080000D03*
X76590000Y-55080000D03*
X74050000Y-55080000D03*
X77860000Y-55080000D03*
X66430000Y-55080000D03*
X63890000Y-55080000D03*
X65160000Y-55080000D03*
X71510000Y-55080000D03*
X72780000Y-55080000D03*
X70240000Y-55080000D03*
X68970000Y-55080000D03*
X67700000Y-55080000D03*
X61350000Y-55080000D03*
X62620000Y-55080000D03*
X52460000Y-55080000D03*
X56270000Y-55080000D03*
X53730000Y-55080000D03*
X55000000Y-55080000D03*
X49920000Y-55080000D03*
X51190000Y-55080000D03*
X57540000Y-55080000D03*
X58810000Y-55080000D03*
X60080000Y-55080000D03*
X35950000Y-55080000D03*
X34680000Y-55080000D03*
X32140000Y-55080000D03*
X30870000Y-55080000D03*
X33410000Y-55080000D03*
X79130000Y-53810000D03*
X72780000Y-53810000D03*
X71510000Y-53810000D03*
X77860000Y-53810000D03*
X74050000Y-53810000D03*
X75320000Y-53810000D03*
X76590000Y-53810000D03*
X68970000Y-53810000D03*
X70240000Y-53810000D03*
X67700000Y-53810000D03*
X55000000Y-53810000D03*
X51190000Y-53810000D03*
X52460000Y-53810000D03*
X53730000Y-53810000D03*
X65160000Y-53810000D03*
X66430000Y-53810000D03*
X60080000Y-53810000D03*
X58810000Y-53810000D03*
X62620000Y-53810000D03*
X63890000Y-53810000D03*
X61350000Y-53810000D03*
X56270000Y-53810000D03*
X57540000Y-53810000D03*
X42300000Y-53810000D03*
X41030000Y-53810000D03*
X43570000Y-53810000D03*
X48650000Y-53810000D03*
X49920000Y-53810000D03*
X46110000Y-53810000D03*
X44840000Y-53810000D03*
X47380000Y-53810000D03*
X38490000Y-53810000D03*
X35950000Y-53810000D03*
X39760000Y-53810000D03*
X37220000Y-53810000D03*
X34680000Y-53810000D03*
X33410000Y-53810000D03*
X32140000Y-53810000D03*
D14*
X72750000Y-51750000D03*
X74250000Y-51750000D03*
X73500000Y-51750000D03*
X49250000Y-51750000D03*
X47750000Y-51750000D03*
X48500000Y-51750000D03*
X66750000Y-51750000D03*
X63750000Y-51750000D03*
X65250000Y-51750000D03*
X66000000Y-51750000D03*
X63000000Y-51750000D03*
X64500000Y-51750000D03*
X61500000Y-51750000D03*
X62250000Y-51750000D03*
X60750000Y-51750000D03*
X69750000Y-51750000D03*
X69000000Y-51750000D03*
X71250000Y-51750000D03*
X67500000Y-51750000D03*
X72000000Y-51750000D03*
X68250000Y-51750000D03*
X70500000Y-51750000D03*
X41750000Y-51750000D03*
X42500000Y-51750000D03*
X43250000Y-51750000D03*
X45500000Y-51750000D03*
X46250000Y-51750000D03*
X44750000Y-51750000D03*
X44000000Y-51750000D03*
X47000000Y-51750000D03*
X40250000Y-51750000D03*
X39500000Y-51750000D03*
X41000000Y-51750000D03*
X38750000Y-51750000D03*
X37250000Y-51750000D03*
X38000000Y-51750000D03*
X36500000Y-51750000D03*
D15*
X32140000Y-39840000D03*
X32140000Y-42380000D03*
X49920000Y-32220000D03*
X47380000Y-32220000D03*
X44840000Y-32220000D03*
X42300000Y-32220000D03*
X39760000Y-32220000D03*
D16*
X33000000Y-33000000D03*
X33000000Y-77000000D03*
X77000000Y-77000000D03*
D17*
X51750000Y-40000000D03*
X53250000Y-40000000D03*
X52750000Y-47000000D03*
X54250000Y-47000000D03*
D15*
X42300000Y-44920000D03*
X39760000Y-44920000D03*
D17*
X51750000Y-43000000D03*
X53250000Y-43000000D03*
X51750000Y-41500000D03*
X53250000Y-41500000D03*
X51750000Y-38500000D03*
X53250000Y-38500000D03*
X51750000Y-37000000D03*
X53250000Y-37000000D03*
D16*
X77000000Y-33000000D03*
D18*
X70200000Y-34900000D03*
D19*
X64750000Y-45000000D03*
X63650000Y-45000000D03*
X62550000Y-45000000D03*
X61450000Y-45000000D03*
X60350000Y-45000000D03*
X59250000Y-45000000D03*
X58150000Y-45000000D03*
X57050000Y-45000000D03*
X55950000Y-45000000D03*
D20*
X54700000Y-44500000D03*
D21*
X69300000Y-44500000D03*
D18*
X54700000Y-34900000D03*
D22*
X65500000Y-34500000D03*
X57500000Y-34500000D03*
D15*
X77860000Y-50000000D03*
X75320000Y-50000000D03*
X72780000Y-50000000D03*
X62620000Y-50000000D03*
X60080000Y-50000000D03*
X57540000Y-50000000D03*
X55000000Y-50000000D03*
X52460000Y-50000000D03*
X65160000Y-50000000D03*
X67700000Y-50000000D03*
X70240000Y-50000000D03*
X49920000Y-50000000D03*
X47380000Y-50000000D03*
X44840000Y-50000000D03*
X32140000Y-50000000D03*
X34680000Y-50000000D03*
X37220000Y-50000000D03*
X39760000Y-50000000D03*
X42300000Y-50000000D03*
D14*
X35750000Y-51750000D03*
D13*
X30870000Y-53810000D03*
M02*
